<svg id="icon5" xmlns="http://www.w3.org/2000/svg" xmlns:xlink="http://www.w3.org/1999/xlink" width="79.155" height="79.154" viewBox="0 0 79.155 79.154">
  <defs>
    <radialGradient id="radial-gradient" cx="0.077" cy="0.019" r="1.465" gradientTransform="matrix(1, 0, 0, -1, 0, 9.666)" gradientUnits="objectBoundingBox">
      <stop offset="0" stop-color="#f4f4f5"/>
      <stop offset="0.477" stop-color="#f7f8fa"/>
      <stop offset="0.715" stop-color="#fff"/>
    </radialGradient>
  </defs>
  <g id="Group_18531" data-name="Group 18531">
    <g id="Group_18423" data-name="Group 18423">
      <g id="Group_18421" data-name="Group 18421">
        <g id="Group_18420" data-name="Group 18420">
          <g id="Group_18419" data-name="Group 18419">
            <path id="Path_40936" data-name="Path 40936" d="M201.954,554.407a39.577,39.577,0,1,1-39.578-39.575h0A39.576,39.576,0,0,1,201.954,554.407Z" transform="translate(-122.8 -514.832)" fill="#fff"/>
          </g>
        </g>
      </g>
      <path id="Path_40937" data-name="Path 40937" d="M201.953,554.407a39.42,39.42,0,1,0,0,.312Z" transform="translate(-122.799 -514.832)" fill="url(#radial-gradient)"/>
      <path id="Path_40938" data-name="Path 40938" d="M190.028,551.858a30.209,30.209,0,1,0-30.209,30.209h0a30.1,30.1,0,0,0,30.209-29.984Z" transform="translate(-120.122 -512.151)" fill="none" stroke="#1d272b" stroke-miterlimit="10" stroke-width="2"/>
      <g id="Group_18422" data-name="Group 18422" transform="translate(7.012 22.22)">
        <path id="Path_40939" data-name="Path 40939" d="M195.973,530.78a39.581,39.581,0,0,1-68.14,39.411,39.456,39.456,0,0,0,68.14-39.411Z" transform="translate(-127.833 -530.78)" fill="#e7e9eb"/>
      </g>
    </g>
  </g>
  <g id="myKCYe" transform="translate(-5595.266 -1408.2)">
    <g id="Grupo_117569" data-name="Grupo 117569" transform="translate(5617.161 1427.044)">
      <path id="Trazado_157849" data-name="Trazado 157849" d="M5640.269,1518.677l-.83-1.617c.45-.239.884-.483,1.33-.706q4.775-2.392,9.553-4.778c.931-.467,1.221-1.287.724-2.031a1.309,1.309,0,0,0-1.748-.36q-3.179,1.582-6.345,3.189-2.5,1.261-5,2.529c-.665.336-1.224.241-1.478-.24-.281-.533-.035-1.049.675-1.407q3.173-1.6,6.348-3.2c.836-.422,1.678-.835,2.5-1.278a1.192,1.192,0,0,0,.615-1.442,1.361,1.361,0,0,0-1.158-.964,1.8,1.8,0,0,0-.8.221q-5.641,2.937-11.272,5.9c-1.655.867-3.316,1.724-4.968,2.6a.937.937,0,0,1-1.153-.057.92.92,0,0,1-.246-1.2c.51-1.263,1.015-2.529,1.554-3.779a4.239,4.239,0,0,0-.611-4.478c-.621,1.136-1.226,2.229-1.817,3.327-.8,1.489-1.562,3-2.4,4.47a14.671,14.671,0,0,0-1.578,4.5c-.306,1.553-.636,3.1-.976,4.648a.961.961,0,0,1-1.049.866.99.99,0,0,1-.73-1.2c.545-2.528,1.035-5.074,1.728-7.562a17.136,17.136,0,0,1,1.618-3.3c1.321-2.472,2.688-4.92,3.994-7.4.425-.808,1.027-1.216,1.921-.4a4.009,4.009,0,0,0,.923-4.866c-.685.724-1.366,1.427-2.027,2.147-1.078,1.175-2.109,2.395-3.222,3.535a18.336,18.336,0,0,0-3.628,5.3c-.55,1.214-1.114,2.424-1.715,3.613a1.531,1.531,0,0,1-.719.713,1.045,1.045,0,0,1-.844-.212.756.756,0,0,1-.215-.93c.485-1.065.953-2.139,1.468-3.19a27.89,27.89,0,0,1,1.9-3.612,36.5,36.5,0,0,1,3.008-3.586c1.656-1.838,3.354-3.639,5.034-5.455.183-.2.359-.4.555-.584a.878.878,0,0,1,1.419.122,6.175,6.175,0,0,1-.285,7.956c-.143.172-.285.344-.422.51.114.393.309.477.723.376q7.414-1.811,14.841-3.574a3.077,3.077,0,0,1,3.577,2.6,3.491,3.491,0,0,1-.628,2.516c-.117.164-.086.433-.129.69,1.984-.708,3.382-.383,4.272.949a2.756,2.756,0,0,1-.284,3.631c2.034,1.433,2.4,4.371-.9,5.863a9.05,9.05,0,0,1,.938,1.5,2.872,2.872,0,0,1-1.462,3.622c-1.84,1.023-3.716,1.982-5.592,2.938q-5.154,2.629-10.328,5.22a15.48,15.48,0,0,1-7.921,1.438c-.741-.039-1.479-.135-2.218-.214-.383-.041-.784-.152-.907-.54a1.381,1.381,0,0,1,.039-.919.87.87,0,0,1,.959-.408c.561.061,1.122.139,1.684.184a14.817,14.817,0,0,0,8.246-1.509c4.748-2.474,9.541-4.861,14.307-7.3a6.148,6.148,0,0,0,1.281-.873c.424-.378.4-.771.034-1.4-.3-.526-.566-.67-1.135-.508a8.551,8.551,0,0,0-1.407.539c-1.91.937-3.807,1.9-5.717,2.839a1.68,1.68,0,0,1-.8.2.784.784,0,0,1-.743-.663.9.9,0,0,1,.458-1.026c.428-.239.873-.449,1.312-.669,2.66-1.333,5.324-2.656,7.975-4a5.909,5.909,0,0,0,1.285-.868c.466-.422.438-.864.029-1.525a.952.952,0,0,0-1.258-.45,4.242,4.242,0,0,0-.657.262C5646.629,1515.479,5643.477,1517.065,5640.269,1518.677Zm6.973-13.608c.067-1.128-.627-1.674-1.759-1.4q-6.061,1.462-12.126,2.912c-.859.206-1.716.42-2.626.643.351,1.88-.426,3.484-1.156,5.158.116-.049.154-.062.188-.08q7-3.66,14-7.318a3,3,0,0,1,2.226-.378C5646.406,1504.722,5646.81,1504.907,5647.242,1505.069Z" transform="translate(-5617.16 -1489.906)" fill="#1d272b"/>
      <path id="Trazado_157850" data-name="Trazado 157850" d="M5968.7,1453.1a25.484,25.484,0,0,1,2.977,5.085,3.193,3.193,0,1,1-6.2,1.121,3.48,3.48,0,0,1,.262-1.25A22.219,22.219,0,0,1,5968.7,1453.1Zm.076,3.31-.205,0c-.384.811-.789,1.613-1.144,2.437a1.232,1.232,0,0,0,.377,1.48,1.4,1.4,0,0,0,1.7.023,1.238,1.238,0,0,0,.431-1.5C5969.578,1458.018,5969.168,1457.218,5968.781,1456.408Z" transform="translate(-5934.293 -1450.766)" fill="#1d272b"/>
      <path id="Trazado_157851" data-name="Trazado 157851" d="M5886.339,1427.044a18.252,18.252,0,0,1,2.621,4.525,2.715,2.715,0,0,1-2.433,3.477,2.752,2.752,0,0,1-2.914-2.7,3.679,3.679,0,0,1,.4-1.439,12.551,12.551,0,0,1,.869-1.646C5885.334,1428.52,5885.834,1427.807,5886.339,1427.044Zm.077,3.377-.145.009c-.262.562-.554,1.112-.774,1.689a.75.75,0,0,0,.332.929.856.856,0,0,0,1.07-.02.744.744,0,0,0,.3-.938C5886.951,1431.528,5886.678,1430.977,5886.417,1430.421Z" transform="translate(-5859.757 -1427.044)" fill="#1d272b"/>
    </g>
  </g>
</svg>
