<svg id="icon1" xmlns="http://www.w3.org/2000/svg" width="64.048" height="57.403" viewBox="0 0 64.048 57.403">
  <g id="Grupo_87606" data-name="Grupo 87606">
    <path id="Trazado_139403" data-name="Trazado 139403" d="M123.971-39.366H74.541a7.221,7.221,0,0,1-6.32-3.649,7.222,7.222,0,0,1,0-7.3l24.715-42.81a7.225,7.225,0,0,1,6.32-3.648h0a7.224,7.224,0,0,1,6.318,3.648l24.716,42.81a7.222,7.222,0,0,1,0,7.3A7.222,7.222,0,0,1,123.971-39.366ZM96.213-91.228,71.5-48.42a3.475,3.475,0,0,0,0,3.514,3.478,3.478,0,0,0,3.043,1.757h49.431a3.479,3.479,0,0,0,3.043-1.757,3.478,3.478,0,0,0,0-3.514L102.3-91.228a3.478,3.478,0,0,0-3.042-1.757,3.48,3.48,0,0,0-3.044,1.757Z" transform="translate(-67.232 96.769)" fill="#db8804"/>
  </g>
  <g id="Grupo_87607" data-name="Grupo 87607" transform="translate(27.468 15.496)">
    <path id="Trazado_139404" data-name="Trazado 139404" d="M96.128-83.045h0a4.568,4.568,0,0,1,4.536,5.11L98.658-61.151a2.561,2.561,0,0,1-2.543,2.256h0a2.561,2.561,0,0,1-2.543-2.26l-1.98-16.786A4.568,4.568,0,0,1,96.128-83.045Z" transform="translate(-91.56 83.045)" fill="#db8804"/>
    <path id="Trazado_139405" data-name="Trazado 139405" d="M93.435-53.721a3.516,3.516,0,0,1-1.057-2.588A3.522,3.522,0,0,1,93.435-58.9a3.519,3.519,0,0,1,2.588-1.056A3.524,3.524,0,0,1,98.612-58.9a3.521,3.521,0,0,1,1.056,2.589,3.515,3.515,0,0,1-1.056,2.588,3.52,3.52,0,0,1-2.589,1.057A3.516,3.516,0,0,1,93.435-53.721Z" transform="translate(-91.454 86.026)" fill="#db8804"/>
  </g>
</svg>
