<svg id="icon2" xmlns="http://www.w3.org/2000/svg" xmlns:xlink="http://www.w3.org/1999/xlink" width="79.155" height="79.154" viewBox="0 0 79.155 79.154">
  <defs>
    <radialGradient id="radial-gradient" cx="0.077" cy="0.019" r="1.465" gradientTransform="matrix(1, 0, 0, -1, 0, 9.666)" gradientUnits="objectBoundingBox">
      <stop offset="0" stop-color="#f4f4f5"/>
      <stop offset="0.477" stop-color="#f7f8fa"/>
      <stop offset="0.715" stop-color="#fff"/>
    </radialGradient>
  </defs>
  <g id="Group_18531" data-name="Group 18531">
    <g id="Group_18423" data-name="Group 18423">
      <g id="Group_18421" data-name="Group 18421">
        <g id="Group_18420" data-name="Group 18420">
          <g id="Group_18419" data-name="Group 18419">
            <path id="Path_40936" data-name="Path 40936" d="M201.954,554.407a39.577,39.577,0,1,1-39.578-39.575h0A39.576,39.576,0,0,1,201.954,554.407Z" transform="translate(-122.8 -514.832)" fill="#fff"/>
          </g>
        </g>
      </g>
      <path id="Path_40937" data-name="Path 40937" d="M201.953,554.407a39.42,39.42,0,1,0,0,.312Z" transform="translate(-122.799 -514.832)" fill="url(#radial-gradient)"/>
      <path id="Path_40938" data-name="Path 40938" d="M190.028,551.858a30.209,30.209,0,1,0-30.209,30.209h0a30.1,30.1,0,0,0,30.209-29.984Z" transform="translate(-120.122 -512.151)" fill="none" stroke="#1d272b" stroke-miterlimit="10" stroke-width="2"/>
      <g id="Group_18422" data-name="Group 18422" transform="translate(7.012 22.22)">
        <path id="Path_40939" data-name="Path 40939" d="M195.973,530.78a39.581,39.581,0,0,1-68.14,39.411,39.456,39.456,0,0,0,68.14-39.411Z" transform="translate(-127.833 -530.78)" fill="#e7e9eb"/>
      </g>
    </g>
  </g>
  <g id="orc9hl" transform="translate(363.159 -1661.042)">
    <g id="Grupo_90664" data-name="Grupo 90664" transform="translate(-338.002 1682.829)">
      <path id="Trazado_145267" data-name="Trazado 145267" d="M-312.425,1716.069H-338v-33.224c.1,0,.2-.015.3-.015q10.131,0,20.263.007a.718.718,0,0,1,.453.178q2.229,2.136,4.434,4.3a.47.47,0,0,1,.145.292c.009,1.449.005,2.9,0,4.348a.5.5,0,0,1-.033.107c-.16-.088-.305-.18-.46-.249-.484-.215-.968-.434-1.462-.625a.335.335,0,0,1-.258-.375c.013-.733,0-1.466,0-2.238H-318.3v-3.5h-17.5v28.785c.112.005.215.015.318.015q10.262,0,20.524.007c.289,0,.349-.092.345-.361-.015-1.043,0-2.087-.01-3.131a.339.339,0,0,1,.252-.379c.579-.238,1.142-.515,1.711-.777.068-.031.135-.065.232-.113Z" transform="translate(338.002 -1682.829)" fill="#1d272b"/>
      <path id="Trazado_145268" data-name="Trazado 145268" d="M-143.005,1839.88a9.135,9.135,0,0,1,9.2-9.055,9.124,9.124,0,0,1,9.066,9.247,9.23,9.23,0,0,1-9.219,9.042A9.262,9.262,0,0,1-143.005,1839.88Zm9.071,6.916a6.867,6.867,0,0,0,6.909-6.8,6.963,6.963,0,0,0-6.853-6.876,6.824,6.824,0,0,0-6.82,6.772A6.81,6.81,0,0,0-133.935,1846.8Z" transform="translate(154.312 -1822.245)" fill="#1d272b"/>
      <path id="Trazado_145269" data-name="Trazado 145269" d="M126.545,2111.422l-2.064,1.976-6.869-7.166,2.062-1.979Z" transform="translate(-91.195 -2079.818)" fill="#1d272b"/>
      <path id="Trazado_145270" data-name="Trazado 145270" d="M-251.827,2048.22c-.087.005-.161.013-.236.013h-6.086a.847.847,0,0,1-.856-.422,1.034,1.034,0,0,1,.033-1.072.745.745,0,0,1,.687-.355q2.724-.006,5.448,0a.3.3,0,0,1,.227.117C-252.345,2047.06-252.1,2047.624-251.827,2048.22Z" transform="translate(263.711 -2025.303)" fill="#1d272b"/>
      <path id="Trazado_145271" data-name="Trazado 145271" d="M-251.713,1804.447c.754,0,1.508.019,2.261-.005a.941.941,0,0,1,.826,1.45.765.765,0,0,1-.692.4c-1.6.006-3.208.01-4.812,0a.852.852,0,0,1-.839-.923.861.861,0,0,1,.879-.917c.792-.012,1.585,0,2.377,0Z" transform="translate(259.783 -1797.39)" fill="#1d272b"/>
      <path id="Trazado_145272" data-name="Trazado 145272" d="M-252.88,1937.821c-.113.557-.226,1.093-.327,1.63-.029.157-.105.2-.256.2-1.621,0-3.242,0-4.863-.007a.849.849,0,0,1-.9-.919.845.845,0,0,1,.867-.922c1.794-.009,3.589,0,5.384,0A.486.486,0,0,1-252.88,1937.821Z" transform="translate(263.794 -1923.013)" fill="#1d272b"/>
      <path id="Trazado_145273" data-name="Trazado 145273" d="M-251.732,1857.812c-.763,0-1.526,0-2.289,0a.863.863,0,0,1-.952-.9.869.869,0,0,1,.941-.943q2.3-.012,4.607,0a.857.857,0,0,1,.936.917.864.864,0,0,1-.954.924C-250.206,1857.815-250.969,1857.812-251.732,1857.812Z" transform="translate(259.788 -1845.926)" fill="#1d272b"/>
      <path id="Trazado_145274" data-name="Trazado 145274" d="M-253.35,1989.38l.166,1.82c-.082.008-.163.022-.244.023q-2.42,0-4.84,0a.933.933,0,0,1-.832-1.455.687.687,0,0,1,.609-.382C-256.783,1989.375-255.075,1989.38-253.35,1989.38Z" transform="translate(263.817 -1971.605)" fill="#1d272b"/>
      <path id="Trazado_145275" data-name="Trazado 145275" d="M-100.715,2130.543a2.743,2.743,0,0,1-.3.032c-1.514,0-3.028.005-4.542,0a.921.921,0,0,1-.813-1.452.957.957,0,0,1,1.175-.332A10.841,10.841,0,0,0-100.715,2130.543Z" transform="translate(119.954 -2102.843)" fill="#1d272b"/>
      <path id="Trazado_145276" data-name="Trazado 145276" d="M65.661,1908.547v-10.484a15.458,15.458,0,0,1,1.217.977,9.347,9.347,0,0,1,.895,1.1.626.626,0,0,1,.08.354c0,1.768-.015,3.536.015,5.3a1.781,1.781,0,0,1-.422,1.24,6.51,6.51,0,0,1-1.664,1.468A.757.757,0,0,1,65.661,1908.547Z" transform="translate(-42.256 -1885.584)" fill="#1d272b"/>
      <path id="Trazado_145277" data-name="Trazado 145277" d="M-89.226,1989.252c1.578,0,3.113-.009,4.647,0a.832.832,0,0,1,.825.926.84.84,0,0,1-.815.91c-.414.021-.83.008-1.245.008-.956,0-1.912-.007-2.867.006-.208,0-.3-.067-.331-.259-.07-.437-.145-.874-.212-1.311A1.969,1.969,0,0,1-89.226,1989.252Z" transform="translate(103.654 -1971.482)" fill="#1d272b"/>
      <path id="Trazado_145278" data-name="Trazado 145278" d="M-87,1939.573a5.255,5.255,0,0,1,.631-1.721.3.3,0,0,1,.222-.084c1.206,0,2.412-.01,3.617,0a.836.836,0,0,1,.876.906.827.827,0,0,1-.822.928c-1.476.018-2.952.007-4.427.006A.371.371,0,0,1-87,1939.573Z" transform="translate(101.55 -1922.981)" fill="#1d272b"/>
      <path id="Trazado_145279" data-name="Trazado 145279" d="M-71.91,2046.353c1.261,0,2.457-.009,3.652,0a.835.835,0,0,1,.824.9.844.844,0,0,1-.789.932c-.558.028-1.118.011-1.678.011a.271.271,0,0,1-.136-.038A6.011,6.011,0,0,1-71.91,2046.353Z" transform="translate(87.338 -2025.272)" fill="#1d272b"/>
    </g>
  </g>
</svg>
