<svg id="img1" xmlns="http://www.w3.org/2000/svg" xmlns:xlink="http://www.w3.org/1999/xlink" width="453.877" height="309.613" viewBox="0 0 453.877 309.613">
  <defs>
    <linearGradient id="linear-gradient" y1="0.5" x2="1" y2="0.5" gradientUnits="objectBoundingBox">
      <stop offset="0.494" stop-color="#ebeff2"/>
      <stop offset="1" stop-color="#fff"/>
    </linearGradient>
    <linearGradient id="linear-gradient-3" x1="0.73" y1="0.758" x2="-0.115" y2="-0.571" gradientUnits="objectBoundingBox">
      <stop offset="0" stop-color="#f5f5f5"/>
      <stop offset="0.25" stop-color="#f5f5f5"/>
      <stop offset="1" stop-color="#a7b3cf"/>
    </linearGradient>
    <linearGradient id="linear-gradient-4" x1="0.688" y1="1.104" x2="0.376" y2="-0.135" xlink:href="#linear-gradient-3"/>
    <linearGradient id="linear-gradient-5" x1="0.425" y1="0.687" x2="0.693" y2="-0.203" gradientUnits="objectBoundingBox">
      <stop offset="0" stop-color="#311944"/>
      <stop offset="1" stop-color="#6b3976"/>
    </linearGradient>
    <linearGradient id="linear-gradient-6" x1="0.464" y1="0.589" x2="0.756" y2="-0.579" xlink:href="#linear-gradient-5"/>
    <linearGradient id="linear-gradient-7" x1="0.5" y1="0" x2="0.5" y2="1" xlink:href="#linear-gradient-3"/>
    <linearGradient id="linear-gradient-12" x1="0.901" y1="1.06" x2="0.269" y2="-0.179" gradientUnits="objectBoundingBox">
      <stop offset="0" stop-color="#c6c6c6"/>
      <stop offset="1" stop-color="#fff"/>
    </linearGradient>
  </defs>
  <path id="Trazado_151846" data-name="Trazado 151846" d="M471.716,383.8c17.036-18.563,21.883-42.656,12.862-63.93-5.7-13.45-16.648-25.946-18.048-39.972-2.8-28.043,32.481-50.714,39.8-78.333,3.217-12.138-.293-26.279-14.082-33.652-13.62-7.282-33.06-5.8-48.479-.7S415.3,180.477,400.5,186.445s-33.033,9.658-48.668,4.908c-15.836-4.812-24.819-16.94-29.85-28.761s-7.5-24.411-16.088-35.12c-14.153-17.65-44.328-27.273-72.449-24.783s-53.245,16.131-66.722,34.053-15.832,39.6-9.123,59.392c3.4,10.039,9.009,19.653,12.066,29.75s3.337,21.148-3.488,30.243c-14.271,19.018-51.92,21.67-71.635,37.979-16.272,13.461-16.782,34-7.548,50.556s26.589,29.984,43.892,42.763c80.708,1.951,162.862,2.08,243.569,4.031C405.823,392.214,440.386,385.122,471.716,383.8Z" transform="translate(-80.961 -96.362)" fill="#a4a4b4" opacity="0.354" style="mix-blend-mode: multiply;isolation: isolate"/>
  <path id="Trazado_151847" data-name="Trazado 151847" d="M359.21,189.2c-.213,22.828,21.487,42.7,17.711,65.21-2.019,12.046-11.2,24.258-5.864,35.245,4.719,9.722,18.237,11.408,28.572,8.247,24.193-7.4,38.9-32.13,45.93-56.433,6.615-22.859,8.256-48.393-2.337-69.7-8.536-17.169-28.231-32.327-48.23-30.924C376.674,142.13,359.371,172.008,359.21,189.2Z" transform="translate(3.031 -93.219)" fill="#a4a4b4" opacity="0.31" style="mix-blend-mode: multiply;isolation: isolate"/>
  <path id="Trazado_151848" data-name="Trazado 151848" d="M119.2,155.625c-16.16,26.962-16.889,62.5-1.847,90.1,4.753,8.721,11.173,16.849,19.84,21.7s19.85,5.931,28.477,1.01c13.084-7.464,15.978-25.067,14.936-40.095s-4.446-30.781,1.341-44.688c3.773-9.065,11.016-16.133,17.442-23.556s12.424-16.088,12.756-25.9c.861-25.438-26.147-23.538-42.423-18.255C148.944,122.683,130.467,136.829,119.2,155.625Z" transform="translate(-73.235 -93.235)" fill="#a4a4b4" opacity="0.31" style="mix-blend-mode: multiply;isolation: isolate"/>
  <g id="Grupo_107069" data-name="Grupo 107069" transform="translate(9.041)" style="mix-blend-mode: multiply;isolation: isolate">
    <path id="Trazado_151849" data-name="Trazado 151849" d="M465.591,387.377l-1.735-1.14c4.775-3.754,12.4-12.361,9.817-27.835-1.148-6.888-4-13.693-6.749-20.273-1.229-2.94-2.5-5.98-3.611-9-11.842-32.208-6.662-67.738,14.211-97.478,1.854-2.639,3.86-5.288,5.8-7.848,5.753-7.591,11.7-15.442,14.259-23.923,4.486-14.881-4.382-26.035-14.52-30.1-9.726-3.9-23.456-3.306-37.665,1.637-5.2,1.807-10.251,4.019-15.137,6.157a163.993,163.993,0,0,1-20.3,7.817c-28.2,8.14-63.468,1.222-82.024-16.089-8.918-8.319-13.953-18.374-18.822-28.1-1.886-3.768-3.838-7.664-5.983-11.393-6.673-11.591-18.887-26.141-39.177-29.621-17.828-3.06-35.885,3.665-47.89,9.844-22.97,11.823-39.161,27.834-45.594,45.084-4.336,11.633-4.511,24.293-4.68,36.537-.251,18.234-.512,37.089-14.826,52.274-6.512,6.908-15.469,12.419-24.129,17.75-8.112,4.992-16.5,10.154-22.753,16.411C89.913,292.269,86.44,312.34,94.553,333.16c7.29,18.706,22.151,35.3,36.522,51.356l-1.975.914c-14.465-16.156-29.423-32.863-36.809-51.814-8.307-21.317-4.7-41.915,9.882-56.511,6.418-6.423,14.915-11.651,23.131-16.709,8.544-5.258,17.379-10.7,23.712-17.414,13.917-14.763,14.162-32.531,14.421-51.342.171-12.35.346-25.119,4.762-36.96,6.572-17.626,23.085-33.97,46.495-46.021,12.4-6.383,31.111-13.32,49.8-10.113,21.254,3.646,33.92,18.663,40.8,30.619,2.168,3.765,4.128,7.68,6.024,11.467,4.808,9.6,9.778,19.528,18.472,27.638,17.937,16.735,52.025,23.421,79.29,15.553a162.126,162.126,0,0,0,19.956-7.692c4.933-2.16,10.033-4.392,15.333-6.235,14.908-5.185,29.426-5.767,39.833-1.592,10.871,4.36,20.412,16.214,15.672,31.935-2.63,8.718-8.66,16.677-14.494,24.374-1.932,2.549-3.93,5.185-5.766,7.8C459,261.79,453.887,296.885,465.584,328.7c1.1,2.991,2.365,6.017,3.589,8.944,2.782,6.649,5.659,13.524,6.834,20.559C478.7,374.344,470.635,383.411,465.591,387.377Z" transform="translate(-87.906 -97.739)" fill="#a4a4b4"/>
  </g>
  <g id="Grupo_127486" data-name="Grupo 127486" transform="translate(84.494)">
    <g id="Grupo_91912" data-name="Grupo 91912" transform="translate(0 30.999)">
      <rect id="Rectángulo_34130" data-name="Rectángulo 34130" width="20.834" height="3.145" transform="translate(45.211 3.931)" fill="#fff"/>
      <rect id="Rectángulo_34131" data-name="Rectángulo 34131" width="16.117" height="3.145" transform="translate(7.079 3.931)" fill="#fff"/>
      <rect id="Rectángulo_34132" data-name="Rectángulo 34132" width="16.51" height="3.145" transform="translate(106.535 3.931)" fill="#d8dee8"/>
      <rect id="Rectángulo_34133" data-name="Rectángulo 34133" width="16.51" height="3.145" transform="translate(161.569 3.931)" fill="#fff"/>
      <g id="Grupo_91900" data-name="Grupo 91900" transform="translate(39.314)">
        <rect id="Rectángulo_34134" data-name="Rectángulo 34134" width="20.834" height="81.372" transform="translate(11.007 12.186)" fill="#d8dee8"/>
        <rect id="Rectángulo_34135" data-name="Rectángulo 34135" width="11.007" height="81.372" transform="translate(0 12.186)" fill="#97a6b7"/>
        <rect id="Rectángulo_34136" data-name="Rectángulo 34136" width="3.538" height="16.903" transform="translate(4.717)" fill="#97a6b7"/>
        <rect id="Rectángulo_34137" data-name="Rectángulo 34137" width="3.538" height="16.903" transform="translate(23.193)" fill="#d8dee8"/>
      </g>
      <g id="Grupo_91901" data-name="Grupo 91901" transform="translate(153.314)">
        <rect id="Rectángulo_34138" data-name="Rectángulo 34138" width="20.441" height="81.372" transform="translate(11.007 12.186)" fill="#d8dee8"/>
        <rect id="Rectángulo_34139" data-name="Rectángulo 34139" width="11.007" height="81.372" transform="translate(0 12.186)" fill="#97a6b7"/>
        <rect id="Rectángulo_34140" data-name="Rectángulo 34140" width="3.931" height="16.903" transform="translate(4.324)" fill="#97a6b7"/>
        <rect id="Rectángulo_34141" data-name="Rectángulo 34141" width="3.931" height="16.903" transform="translate(22.8)" fill="#d8dee8"/>
      </g>
      <g id="Grupo_91902" data-name="Grupo 91902" transform="translate(98.279)">
        <rect id="Rectángulo_34142" data-name="Rectángulo 34142" width="20.048" height="81.372" transform="translate(11.793 12.186)" fill="#d8dee8"/>
        <rect id="Rectángulo_34143" data-name="Rectángulo 34143" width="11.793" height="81.372" transform="translate(0 12.186)" fill="#97a6b7"/>
        <rect id="Rectángulo_34144" data-name="Rectángulo 34144" width="3.538" height="16.903" transform="translate(4.717)" fill="#97a6b7"/>
        <rect id="Rectángulo_34145" data-name="Rectángulo 34145" width="3.538" height="16.903" transform="translate(23.193)" fill="#d8dee8"/>
      </g>
      <g id="Grupo_91903" data-name="Grupo 91903" transform="translate(1.576)">
        <rect id="Rectángulo_34146" data-name="Rectángulo 34146" width="17.297" height="81.372" transform="translate(9.434 12.186)" fill="#d8dee8"/>
        <rect id="Rectángulo_34147" data-name="Rectángulo 34147" width="9.434" height="81.372" transform="translate(0 12.186)" fill="#97a6b7"/>
        <rect id="Rectángulo_34148" data-name="Rectángulo 34148" width="3.145" height="16.903" transform="translate(3.931)" fill="#97a6b7"/>
        <rect id="Rectángulo_34149" data-name="Rectángulo 34149" width="3.931" height="16.903" transform="translate(19.262)" fill="#d8dee8"/>
      </g>
      <path id="Trazado_150963" data-name="Trazado 150963" d="M590.078,1767.207l-50.3-4.573V1611.809l50.3-2.649Z" transform="translate(-537.871 -1521.5)" fill="#d8dee8"/>
      <path id="Trazado_150964" data-name="Trazado 150964" d="M569.5,1588.078,522.25,1589.7V1581l47.253-1.869Z" transform="translate(-522.25 -1494.737)" fill="#97a6b7"/>
      <path id="Trazado_150965" data-name="Trazado 150965" d="M569.5,2184.6l-47.253-.159v-8.7l47.253-.087Z" transform="translate(-522.25 -2026.41)" fill="#97a6b7"/>
      <path id="Trazado_150966" data-name="Trazado 150966" d="M1126,1754.039l-137.566,5.383V1600.33L1126,1602.984Z" transform="translate(-937.752 -1513.63)" fill="#fff"/>
      <path id="Trazado_150967" data-name="Trazado 150967" d="M1101.314,1582.987l-144.425-.161v-9.365l144.425.656Z" transform="translate(-909.636 -1489.682)" fill="#d8dee8"/>
      <path id="Trazado_150968" data-name="Trazado 150968" d="M1101.314,2159.089l-144.425,3.29v-8.991l144.425-2.814Z" transform="translate(-909.636 -2004.053)" fill="#d8dee8"/>
      <path id="Trazado_150969" data-name="Trazado 150969" d="M1101.314,2980.87l-144.425,7.93v-1.5l144.425-7.851Z" transform="translate(-909.636 -2742.816)" fill="#d8dee8"/>
      <g id="Grupo_91907" data-name="Grupo 91907" transform="translate(59.828 102.2)">
        <g id="Grupo_91904" data-name="Grupo 91904" transform="translate(0 0.205)">
          <path id="Trazado_150970" data-name="Trazado 150970" d="M1104.949,1784.208l-32.391.552v-39.894l32.391-.079Z" transform="translate(-1072.558 -1744.788)" fill="#d8dee8"/>
        </g>
        <g id="Grupo_91905" data-name="Grupo 91905" transform="translate(45.728 0.104)">
          <path id="Trazado_150971" data-name="Trazado 150971" d="M1524.423,1782.626l-31.248.53v-39.226l31.248-.07Z" transform="translate(-1493.175 -1743.861)" fill="#d8dee8"/>
        </g>
        <g id="Grupo_91906" data-name="Grupo 91906" transform="translate(89.933)">
          <path id="Trazado_150972" data-name="Trazado 150972" d="M1930.257,1781.029l-30.486.515V1742.97l30.486-.069Z" transform="translate(-1899.772 -1742.901)" fill="#d8dee8"/>
        </g>
      </g>
      <g id="Grupo_91910" data-name="Grupo 91910" transform="translate(59.828 182.02)">
        <g id="Grupo_91908" data-name="Grupo 91908" transform="translate(0 2.911)">
          <path id="Trazado_150973" data-name="Trazado 150973" d="M1104.949,2542.927l-32.391,1.538v-39.521l32.391-1.069Z" transform="translate(-1072.558 -2503.875)" fill="#d8dee8"/>
        </g>
        <g id="Grupo_91909" data-name="Grupo 91909" transform="translate(89.933)">
          <path id="Trazado_150974" data-name="Trazado 150974" d="M1930.257,2514.869l-30.486,1.445V2478.1l30.486-1Z" transform="translate(-1899.772 -2477.097)" fill="#d8dee8"/>
        </g>
      </g>
      <path id="Trazado_150975" data-name="Trazado 150975" d="M988.435,1663.093s27.7,3.73,39.632,22.159c11.825,18.267,38.508,10.622,61.753,15.4,22.841,4.7,36.444,15.855,36.444,15.855l-137.829,3.078Z" transform="translate(-937.753 -1569.569)" fill="#97a6b7" opacity="0.1" style="mix-blend-mode: multiply;isolation: isolate"/>
      <path id="Trazado_150976" data-name="Trazado 150976" d="M988.435,2530.544s27.7,2.787,39.632,20.81c11.825,17.865,38.508,9.312,61.753,13.3,22.841,3.918,36.444,14.616,36.444,14.616l-137.829,7.767Z" transform="translate(-937.753 -2342.713)" fill="#97a6b7" opacity="0.1" style="mix-blend-mode: multiply;isolation: isolate"/>
      <path id="Trazado_150977" data-name="Trazado 150977" d="M1524.423,2479.824l-31.248,1.615v-56.822l31.248-.948Z" transform="translate(-1387.619 -2247.458)" fill="#e4e9f2"/>
      <path id="Trazado_150978" data-name="Trazado 150978" d="M1491.888,2383.694l-40.774,1.278v-8.079l40.774-1.156Z" transform="translate(-1350.13 -2204.737)" fill="#d8dee8"/>
      <g id="Grupo_91911" data-name="Grupo 91911" transform="translate(89.17 227.228)">
        <path id="Trazado_150979" data-name="Trazado 150979" d="M1464.458,2897.621l-48.4,2.49v-4.781l48.4-2.4Z" transform="translate(-1408.06 -2892.927)" fill="url(#linear-gradient)"/>
        <path id="Trazado_150980" data-name="Trazado 150980" d="M1425.294,2938.492l-58.3,3.12v-4.79l58.3-3.015Z" transform="translate(-1364.323 -2929.362)" fill="#d8dee8"/>
        <path id="Trazado_150981" data-name="Trazado 150981" d="M1406.474,2980.126l-64.02,3.536v-4.794l64.02-3.422Z" transform="translate(-1342.454 -2966.474)" fill="url(#linear-gradient)"/>
      </g>
    </g>
    <g id="Grupo_91916" data-name="Grupo 91916" transform="translate(65.789 0)">
      <g id="Grupo_91915" data-name="Grupo 91915" transform="translate(0)">
        <path id="Trazado_150989" data-name="Trazado 150989" d="M597.977,645.575a13.363,13.363,0,0,1-7.272-1.881,140.6,140.6,0,0,1-25.269-19.151c-11.2-10.915-17.629-22.009-19.037-32.9l-.022-.171-.273-46.487c0-9.187,5.992-16.645,17.243-21.545,9.3-4.049,21.615-6.055,34.631-5.678,12.864.372,24.767,3.026,33.577,7.449,10.473,5.257,15.968,12.646,15.968,21.4l-.249,44.419-.02.164c-1.286,10.433-7.205,21.216-17.666,32.122A145.886,145.886,0,0,1,605.2,643.288,13.842,13.842,0,0,1,597.977,645.575Z" transform="translate(-546.104 -517.713)" fill="#364246"/>
        <path id="Trazado_150990" data-name="Trazado 150990" d="M627.078,645.575a13.052,13.052,0,0,1-7.176-1.881,138.923,138.923,0,0,1-24.935-19.151c-11.049-10.915-17.4-22.009-18.785-32.9l-.022-.171-.269-46.487c0-9.187,5.913-16.645,17.015-21.545,9.172-4.049,21.33-6.055,34.173-5.678,12.694.372,24.44,3.026,33.134,7.449,10.335,5.257,15.757,12.646,15.757,21.4l-.246,44.419-.02.164c-1.269,10.433-7.11,21.216-17.433,32.122a144.352,144.352,0,0,1-24.063,19.973A13.533,13.533,0,0,1,627.078,645.575Z" transform="translate(-572.652 -517.713)" fill="#1d272b"/>
        <path id="Trazado_150991" data-name="Trazado 150991" d="M604.122,568.424l.271,46.252c3.045,23.6,30.779,42.706,42.858,49.965a10.664,10.664,0,0,0,11.32-.3c11.827-7.782,38.042-27.375,40.843-50.065l.249-44.3C699.664,537.111,604.122,534.107,604.122,568.424Z" transform="translate(-597.814 -541.122)" fill="url(#linear-gradient-3)"/>
        <path id="Trazado_150992" data-name="Trazado 150992" d="M728.006,728.312a1.651,1.651,0,0,1-.9-.237,131.279,131.279,0,0,1-23-17.559c-9.06-8.9-14.285-17.552-15.483-25.678l-.266-45.486c.011-4.365,3.466-8.1,10.238-11.088,7.56-3.337,18.3-5.088,29.408-4.824,11,.261,21.424,2.476,28.645,6.059,6.387,3.169,9.616,6.906,9.627,11.119l-.248,43.912c-1.118,7.863-6.022,16.341-14.633,25.252a136.411,136.411,0,0,1-22.5,18.251A1.711,1.711,0,0,1,728.006,728.312Z" transform="translate(-672.894 -611.923)" fill="#1d272b"/>
        <path id="Trazado_150993" data-name="Trazado 150993" d="M742.456,748.744a127.582,127.582,0,0,1-21.747-16.736c-8.514-8.379-13.441-16.42-14.6-23.86l-.264-45.222c.008-3.121,2.876-5.983,8.5-8.475,7.162-3.171,17.423-4.842,28.106-4.6,10.581.238,20.554,2.327,27.408,5.719,5.325,2.635,8.019,5.509,8.027,8.552l-.247,43.75c-1.087,7.219-5.734,15.113-13.861,23.508A132.479,132.479,0,0,1,742.456,748.744Z" transform="translate(-688.479 -635.463)" fill="url(#linear-gradient-4)"/>
      </g>
      <path id="Trazado_150994" data-name="Trazado 150994" d="M876.132,900.038a4.557,4.557,0,0,1-3.857-2.011L859.79,878.611a4.234,4.234,0,0,1,1.32-5.51,3.8,3.8,0,0,1,5.5.515L875.8,887.1l13.706-25.8a7.092,7.092,0,0,1,7.353-3.476c2.828.621,3.974,3.28,2.51,5.891l-19.05,33.962a4.783,4.783,0,0,1-4.025,2.362Z" transform="translate(-825.202 -820.729)" fill="#008f85"/>
    </g>
    <g id="Grupo_91936" data-name="Grupo 91936" transform="translate(105.845 54.305)">
      <g id="Grupo_91918" data-name="Grupo 91918" transform="translate(0 12.915)">
        <path id="Trazado_150995" data-name="Trazado 150995" d="M1033.224,2195.7c-7.04-18.331,2.9-48.372,9.154-61.988,18.241-39.686,51.757-41.027,79.235-42.127,26.992-1.081,53.048-2.124,72.117,28.317,12.457,19.886,23.912,56.368,16.273,75.8-8.035,20.436-30.344,4.6-83.4,4.319C1068.24,2199.708,1042.013,2218.586,1033.224,2195.7Z" transform="translate(-1030.802 -1987.342)" fill="#1d272b"/>
        <path id="Trazado_150996" data-name="Trazado 150996" d="M1653.652,2106.511c0,5-12.2,10.994-27.249,10.994s-27.25-6-27.25-10.994,12.2-2.763,27.25-2.763S1653.652,2101.514,1653.652,2106.511Z" transform="translate(-1537.363 -1998.095)" fill="#008f85"/>
        <path id="Trazado_150997" data-name="Trazado 150997" d="M1668.408,1812.63c-4.143,0,5.421,29.113-9.642,33.11a1.658,1.658,0,0,0-.371,3.063c4.043,2.191,11.617,4.966,24.038,4.966a30.659,30.659,0,0,0,17.037-5.1,1.657,1.657,0,0,0-.179-2.849c-4.644-2.393-11.09-10-9.167-32.441Z" transform="translate(-1589.389 -1739.071)" fill="#e8b698"/>
        <path id="Trazado_150998" data-name="Trazado 150998" d="M1641.85,1355.423c.062.365,1.315,26.939,7.389,40.21,1.743,3.809,10.391,3.353,15.987,2.894,4.861-.4,12.481,1.376,14.627-1.98,8.628-13.493,7.166-46.911,7.166-46.911s-4.421-11.119-22.547-10.814S1641.85,1355.423,1641.85,1355.423Z" transform="translate(-1575.418 -1316.768)" fill="#e8b698"/>
        <path id="Trazado_150999" data-name="Trazado 150999" d="M1589.329,1581.688s-3.792-4.407-7.365-4.994-5.9,8.667-1.026,14.689,10.508,1.028,10.508,1.028Z" transform="translate(-1518.656 -1528.761)" fill="#e8b698"/>
        <path id="Trazado_151000" data-name="Trazado 151000" d="M2003.388,1581.688s3.792-4.407,7.365-4.994,5.9,8.667,1.027,14.689-10.509,1.028-10.509,1.028Z" transform="translate(-1895.764 -1528.761)" fill="#e8b698"/>
        <path id="Trazado_151001" data-name="Trazado 151001" d="M1587.348,1188.615c.477.876,1.024,1.691,1.394,1.595,1.532-.4-4.378-15.333,1.066-20.562,2.814-2.7,5.985-.239,17.516-.761,11.612-.526,14.582-3.3,18.092-1.176,3.2,1.939,6.059,7.474,3.688,23.87l1.98-.457c-.889-5.37.081-8.759,1.191-10.894.809-1.558,2.274-3.567,2.16-6.469-.071-1.8-.667-1.88-.765-3.352-.288-4.318,4.64-5.48,4.877-9.746.183-3.284-2.65-4.03-2.133-7.463.44-2.919,2.653-3.465,2.3-5.574-.378-2.276-3.341-3.969-5.421-4.56-2.122-.6-2.889.066-4.132-.792-2.01-1.387-1.044-3.848-2.5-4.762-2.587-1.627-7.73,4.871-11.054,3.253-2.013-.98-1.238-3.9-3.019-4.611-3.442-1.37-9.525,8.274-11.972,6.994-1.171-.613-.042-2.962-1.685-4.691-1.929-2.031-6.561-2.027-8.672.122-1.968,2-.3,4.4-2.381,6.936-1.871,2.28-4.032,1.342-6.144,3.168-3.588,3.1-2.339,10.126-1.893,12.632,1.534,8.627,6.311,10.373,5.239,16.255a13.215,13.215,0,0,0-.457,5.635A11.572,11.572,0,0,0,1587.348,1188.615Z" transform="translate(-1519.643 -1136.019)" fill="url(#linear-gradient-5)"/>
        <g id="Grupo_91917" data-name="Grupo 91917" transform="translate(59.629 13.222)" opacity="0.3" style="mix-blend-mode: multiply;isolation: isolate">
          <path id="Trazado_151002" data-name="Trazado 151002" d="M1631.478,1278.376c-.424-4.242,2.862-6.215,2.311-9.241-.443-2.431-3.193-4.616-5.776-5.083-5.51-1-9.076,7.117-14.555,6.238-4.236-.68-3.767-5.8-8.548-7.855-7.579-3.262-15.523,6.682-20.562,3.927-1.515-.828-3.046-2.955-3.155-8.726-2.89,3.319-1.756,9.707-1.335,12.072,1.534,8.627,6.311,10.373,5.239,16.255a13.211,13.211,0,0,0-.457,5.635,11.569,11.569,0,0,0,2.719,5.411c.477.876,1.024,1.691,1.393,1.595,1.532-.4-4.378-15.333,1.066-20.562,2.815-2.7,5.985-.24,17.516-.761,11.612-.526,14.582-3.3,18.092-1.176,3.2,1.939,6.059,7.474,3.689,23.87l1.98-.457c-.889-5.37.081-8.759,1.19-10.894.334-.642.778-1.362,1.178-2.188a19.513,19.513,0,0,0-.827-4.594C1632.044,1279.93,1631.614,1279.741,1631.478,1278.376Z" transform="translate(-1579.281 -1257.636)" fill="url(#linear-gradient-6)"/>
        </g>
      </g>
      <g id="Grupo_91921" data-name="Grupo 91921" transform="translate(31.947 116.647)">
        <g id="Grupo_91919" data-name="Grupo 91919">
          <path id="Trazado_151003" data-name="Trazado 151003" d="M1384.052,2149.548v56.578h-53.818a4.274,4.274,0,0,1-4.27-4.216l-.447-33.777-.861-65.208a2.2,2.2,0,0,1,1.188-1.98l2.883-1.483,3.077-1.585,20.271-7.508a3.193,3.193,0,0,1,3.971,1.58l27.565,55.706A4.264,4.264,0,0,1,1384.052,2149.548Z" transform="translate(-1324.656 -2090.169)" fill="url(#linear-gradient-7)"/>
          <path id="Trazado_151004" data-name="Trazado 151004" d="M1329.819,2236.445a6.086,6.086,0,0,1-1.221,3.763l-3.081,4.095-.861-65.208a2.2,2.2,0,0,1,1.188-1.98l2.883-1.483Z" transform="translate(-1324.656 -2166.339)" fill="#008f85" opacity="0.7" style="mix-blend-mode: multiply;isolation: isolate"/>
          <rect id="Rectángulo_34150" data-name="Rectángulo 34150" width="58.179" height="14.938" transform="translate(1.216 79.005)" fill="#fff"/>
          <path id="Trazado_151005" data-name="Trazado 151005" d="M1593.807,2147.643l-27.564-55.706a3.194,3.194,0,0,0-3.971-1.579l-1.78.66a3.2,3.2,0,0,1,.685.919l27.542,55.706a4.251,4.251,0,0,1,.419,1.893v56.579h5.11v-56.579A4.272,4.272,0,0,0,1593.807,2147.643Z" transform="translate(-1534.853 -2090.159)" fill="#e4e9f2"/>
        </g>
        <g id="Grupo_91920" data-name="Grupo 91920" transform="translate(59.396)">
          <path id="Trazado_151006" data-name="Trazado 151006" d="M1870.987,2149.548v56.578h53.844a4.274,4.274,0,0,0,4.27-4.216l.447-33.777.861-65.208a2.2,2.2,0,0,0-1.188-1.98l-2.883-1.483-3.077-1.585-20.271-7.508a3.193,3.193,0,0,0-3.971,1.58l-27.578,55.706A4.277,4.277,0,0,0,1870.987,2149.548Z" transform="translate(-1870.987 -2090.169)" fill="url(#linear-gradient-7)"/>
          <path id="Trazado_151007" data-name="Trazado 151007" d="M2370.06,2236.445a6.086,6.086,0,0,0,1.22,3.763l3.082,4.095.862-65.208a2.2,2.2,0,0,0-1.189-1.98l-2.883-1.483Z" transform="translate(-2315.801 -2166.339)" opacity="0.7" fill="url(#linear-gradient-7)" style="mix-blend-mode: multiply;isolation: isolate"/>
          <rect id="Rectángulo_34151" data-name="Rectángulo 34151" width="58.572" height="14.938" transform="translate(0 79.005)" fill="url(#linear-gradient-7)"/>
          <path id="Trazado_151008" data-name="Trazado 151008" d="M1871.441,2147.643l27.571-55.706a3.2,3.2,0,0,1,3.975-1.579l1.782.66a3.193,3.193,0,0,0-.685.919l-27.554,55.706a4.267,4.267,0,0,0-.432,1.893v56.579h-5.11v-56.579A4.285,4.285,0,0,1,1871.441,2147.643Z" transform="translate(-1870.987 -2090.159)" fill="url(#linear-gradient-7)"/>
        </g>
      </g>
      <g id="Grupo_91922" data-name="Grupo 91922" transform="translate(69.345 78.51)">
        <path id="Trazado_151009" data-name="Trazado 151009" d="M1669.377,1739.532a.3.3,0,0,0-.4-.121l-.173.093a.3.3,0,0,0-.121.4l5.1,9.531a.3.3,0,0,0,.4.121l.173-.093a.3.3,0,0,0,.121-.4Z" transform="translate(-1668.649 -1739.376)" fill="#fff"/>
        <path id="Trazado_151010" data-name="Trazado 151010" d="M1992.55,1739.5l-.173-.093a.3.3,0,0,0-.4.121l-5.1,9.531a.3.3,0,0,0,.121.4l.173.093a.3.3,0,0,0,.4-.121l5.1-9.531A.3.3,0,0,0,1992.55,1739.5Z" transform="translate(-1952.249 -1739.376)" fill="#fff"/>
      </g>
      <g id="Grupo_91929" data-name="Grupo 91929" transform="translate(66.517 63.598)">
        <g id="Grupo_91925" data-name="Grupo 91925" transform="translate(5.06 8.429)">
          <path id="Trazado_151011" data-name="Trazado 151011" d="M1725.052,1685.963c0,.208-.008.417-.016.621a15.684,15.684,0,0,1-1.789,7.783c-1.478,3.392-3.683,6.038-5.908,7.1a.5.5,0,0,1-.094.04,5.737,5.737,0,0,1-.547.22c-.137.094-.22.145-.22.145l-.444.032a91.43,91.43,0,0,1-17.847,0l-.444-.032s-.083-.051-.22-.145c-.125-.043-.251-.09-.377-.145-.086-.035-.177-.071-.263-.114-2.225-1.065-4.344-3.711-5.822-7.1a13.054,13.054,0,0,1-1.7-7.783v-.079a1.339,1.339,0,0,0-.063-.318.9.9,0,0,1-.039-.224,19.334,19.334,0,0,1,.106-2.472,1.29,1.29,0,0,1,.806-1.046,54.809,54.809,0,0,1,33.913,0,1.312,1.312,0,0,1,.825,1.046,19.2,19.2,0,0,1,.142,2.28C1725.052,1685.833,1725.052,1685.9,1725.052,1685.963Z" transform="translate(-1689.248 -1679.738)" fill="#fff"/>
          <path id="Trazado_151012" data-name="Trazado 151012" d="M1724.986,1710.551c0,.208-.008.417-.016.621a15.685,15.685,0,0,1-1.789,7.784c-1.478,3.392-3.684,6.038-5.908,7.1a.5.5,0,0,1-.094.039c-4.375.358-14.588.208-20.1.075-.086-.035-.177-.071-.263-.114-2.225-1.065-4.344-3.711-5.822-7.1a13.054,13.054,0,0,1-1.7-7.784v-.079c0-.086-.083-.173-.079-.259,0,0-.031-.008-.031-.012l.047-.047a4.544,4.544,0,0,1,2.1-1.262c3.8-1.05,18.453-4.5,32.258.275l1.4.57C1724.986,1710.421,1724.986,1710.488,1724.986,1710.551Z" transform="translate(-1689.182 -1704.326)" fill="#eeebf5" opacity="0.3"/>
          <g id="Grupo_91923" data-name="Grupo 91923" transform="translate(1.118 9.653)" style="mix-blend-mode: soft-light;isolation: isolate">
            <path id="Trazado_151013" data-name="Trazado 151013" d="M1714.45,1770.07c-9.835,0-14.739-1.08-14.811-1.1a.225.225,0,0,1,.1-.438c.108.024,11.072,2.433,33.251,0a.225.225,0,1,1,.049.447A170.729,170.729,0,0,1,1714.45,1770.07Z" transform="translate(-1699.465 -1768.53)" fill="#1d272b"/>
          </g>
          <g id="Grupo_91924" data-name="Grupo 91924" transform="translate(4.977 15.493)" style="mix-blend-mode: soft-light;isolation: isolate">
            <path id="Trazado_151014" data-name="Trazado 151014" d="M1747.046,1823.781c-7.914,0-11.863-1.082-11.922-1.1a.225.225,0,1,1,.123-.432c.086.025,8.884,2.427,26.679-.006a.226.226,0,0,1,.253.192.224.224,0,0,1-.192.253A110.545,110.545,0,0,1,1747.046,1823.781Z" transform="translate(-1734.961 -1822.242)" fill="#1d272b"/>
          </g>
        </g>
        <g id="Grupo_91928" data-name="Grupo 91928">
          <g id="Grupo_91926" data-name="Grupo 91926" transform="translate(0 0.231)">
            <path id="Trazado_151015" data-name="Trazado 151015" d="M1649.152,1615.979a.449.449,0,0,1-.392-.229L1642.694,1605a.449.449,0,0,1,.783-.441l6.065,10.747a.449.449,0,0,1-.391.67Z" transform="translate(-1642.636 -1604.333)" fill="#fff"/>
          </g>
          <g id="Grupo_91927" data-name="Grupo 91927" transform="translate(39.571)">
            <path id="Trazado_151016" data-name="Trazado 151016" d="M2007.069,1615.215a.449.449,0,0,1-.441-.536l2.386-12.108a.449.449,0,0,1,.882.174l-2.387,12.108A.45.45,0,0,1,2007.069,1615.215Z" transform="translate(-2006.619 -1602.208)" fill="#fff"/>
          </g>
        </g>
      </g>
      <g id="Grupo_91934" data-name="Grupo 91934" transform="translate(63.825 56.739)">
        <g id="Grupo_91930" data-name="Grupo 91930" transform="translate(0 3.685)">
          <path id="Trazado_151017" data-name="Trazado 151017" d="M1618.72,1573.015c-.665,0-.841.523-.841,1.188v1.821c0,.665.177.922.841.922h1.91v-3.931Z" transform="translate(-1617.879 -1573.015)" fill="#008f85"/>
          <path id="Trazado_151018" data-name="Trazado 151018" d="M2050.1,1573.015a1.2,1.2,0,0,1,1.212,1.188v1.821c0,.665-.547.922-1.212.922h-1.933v-3.931Z" transform="translate(-2001.383 -1573.015)" fill="#008f85"/>
        </g>
        <g id="Grupo_91933" data-name="Grupo 91933" transform="translate(2.359)">
          <g id="Grupo_91931" data-name="Grupo 91931" transform="translate(0.393 0.471)">
            <path id="Trazado_151019" data-name="Trazado 151019" d="M1687.611,1545.519v5.573a6.648,6.648,0,0,1-5.916,6.555l-5.235.587a8.289,8.289,0,0,1-7.147-2.57l-2.923-3.1h-1.88l-2.918,3.1a8.326,8.326,0,0,1-7.143,2.638l-5.313-.622a6.706,6.706,0,0,1-5.947-6.589v-5.573a2.215,2.215,0,0,1,2.288-2.063l19.95.846,19.939-.846a2.138,2.138,0,0,1,1.561.569A2.109,2.109,0,0,1,1687.611,1545.519Z" transform="translate(-1643.19 -1543.453)" fill="#e4cbb7"/>
            <path id="Trazado_151020" data-name="Trazado 151020" d="M1684.937,1575.161a6.577,6.577,0,0,1-3.261,1.306l-5.225.587a8.279,8.279,0,0,1-7.143-2.57l-2.918-3.1h-1.88l-2.918,3.1a8.327,8.327,0,0,1-7.143,2.638l-5.313-.622a6.707,6.707,0,0,1-5.947-6.589v-5.343c1.966,1.4,5.012,2.6,9.641,2.782C1664.188,1567.8,1679.477,1562.625,1684.937,1575.161Z" transform="translate(-1643.19 -1562.274)" fill="#fff" opacity="0.5" style="mix-blend-mode: soft-light;isolation: isolate"/>
          </g>
          <g id="Grupo_91932" data-name="Grupo 91932">
            <path id="Trazado_151021" data-name="Trazado 151021" d="M1672.682,1555.013a8.533,8.533,0,0,1-6.474-2.741l-2.77-2.786h-1.486l-2.841,2.8a8.466,8.466,0,0,1-6.419,2.644,10.509,10.509,0,0,1-1.165-.08l-5.393-.594a7.322,7.322,0,0,1-6.561-7.027v-5.575a2.734,2.734,0,0,1,1.051-1.832,3.116,3.116,0,0,1,2.108-.7l19.913.848,19.945-.85a2.181,2.181,0,0,1,2.19,2.516v5.6a6.9,6.9,0,0,1-6.04,7.078l-4.984.645A9.63,9.63,0,0,1,1672.682,1555.013Zm-11.121-6.314h2.273l3.059,3.006a7.609,7.609,0,0,0,5.788,2.436,8.759,8.759,0,0,0,.962-.088l5.06-.662a6.05,6.05,0,0,0,5.29-6.162v-5.575a1.491,1.491,0,0,0-.333-1.153,1.428,1.428,0,0,0-1.026-.444h-.086l-19.881.848-20.016-.849a1.93,1.93,0,0,0-1.255.444c-.589.564-.644.938-.644,1.153v5.575a6.254,6.254,0,0,0,5.605,6.086l5.308.586a9.258,9.258,0,0,0,1.044.06,7.458,7.458,0,0,0,5.728-2.243Z" transform="translate(-1639.574 -1539.118)" fill="#008f85"/>
          </g>
        </g>
      </g>
      <g id="Grupo_91935" data-name="Grupo 91935" transform="translate(54.659 0)">
        <path id="Rectángulo_34152" data-name="Rectángulo 34152" d="M31.262,0h0A31.262,31.262,0,0,1,62.525,31.262v7.92a0,0,0,0,1,0,0H0a0,0,0,0,1,0,0v-7.92A31.262,31.262,0,0,1,31.262,0Z" transform="translate(3.551 3.953)" fill="#db8804"/>
        <path id="Rectángulo_34153" data-name="Rectángulo 34153" d="M8.7,0h0a8.7,8.7,0,0,1,8.7,8.7V43.134a0,0,0,0,1,0,0H0a0,0,0,0,1,0,0V8.7A8.7,8.7,0,0,1,8.7,0Z" transform="translate(26.118)" fill="#f7b242"/>
        <rect id="Rectángulo_34154" data-name="Rectángulo 34154" width="69.626" height="7.569" rx="3.785" transform="translate(0 42.682)" fill="#f7b242"/>
        <path id="Trazado_151022" data-name="Trazado 151022" d="M1574.934,1475.333c1.31,5.974,14.381,10.667,30.316,10.667s29.006-4.693,30.316-10.667Z" transform="translate(-1570.437 -1425.529)" fill="#db8804"/>
      </g>
    </g>
    <g id="Grupo_91940" data-name="Grupo 91940" transform="translate(162.854 167.435)">
      <g id="Grupo_91938" data-name="Grupo 91938" transform="translate(0 0)">
        <g id="Grupo_91937" data-name="Grupo 91937">
          <path id="Trazado_151023" data-name="Trazado 151023" d="M2029.139,2179.64a8.863,8.863,0,0,1-7.736-13.315l60.086-104.058a8.934,8.934,0,0,1,15.471.011l60.086,104.073a8.851,8.851,0,0,1-7.736,13.289Z" transform="translate(-2020.21 -2057.808)" fill="#1d272b"/>
          <path id="Trazado_151024" data-name="Trazado 151024" d="M2185.42,2205.334a5.168,5.168,0,0,1-4.381,2.641H2060.867a5.2,5.2,0,0,1-4.378-7.756l60.084-104.1a5.078,5.078,0,0,1,3.412-2.45,4.943,4.943,0,0,1,.969-.1,5.053,5.053,0,0,1,4.381,2.527l60.086,104.125A5.164,5.164,0,0,1,2185.42,2205.334Z" transform="translate(-2051.939 -2089.681)" fill="#db8804"/>
        </g>
      </g>
      <g id="Grupo_91939" data-name="Grupo 91939" transform="translate(61.552 37.2)">
        <path id="Trazado_151026" data-name="Trazado 151026" d="M2597.642,2442.284l-5.236-.125a2.9,2.9,0,0,1-2.743-2.752l-1.917-36.89a2.393,2.393,0,0,1,.755-1.9,2.509,2.509,0,0,1,2-.627l9.018.628a2.76,2.76,0,0,1,1.952.874,2.794,2.794,0,0,1,.733,2.012l-1.865,36.218A2.668,2.668,0,0,1,2597.642,2442.284Z" transform="translate(-2587.594 -2399.979)" fill="#fff"/>
        <path id="Trazado_151027" data-name="Trazado 151027" d="M2588.346,2857.091a7.48,7.48,0,0,1,5.513-1.815,7.786,7.786,0,0,1,5.552,1.926,7.3,7.3,0,0,1,1.892,5.442,7.141,7.141,0,0,1-1.934,5.347,7.543,7.543,0,0,1-5.51,1.9,7.452,7.452,0,0,1-5.491-1.968,7.272,7.272,0,0,1-1.989-5.4A7.167,7.167,0,0,1,2588.346,2857.091Z" transform="translate(-2586.378 -2805.776)" fill="#fff"/>
      </g>
    </g>
  </g>
  <path id="Trazado_165469" data-name="Trazado 165469" d="M3.779-4.509V0H1.143V-12.8H6.135a5.776,5.776,0,0,1,2.536.527,3.886,3.886,0,0,1,1.683,1.5,4.178,4.178,0,0,1,.589,2.21A3.674,3.674,0,0,1,9.655-5.594,5.363,5.363,0,0,1,6.091-4.509Zm0-2.136H6.135a2.316,2.316,0,0,0,1.6-.492,1.79,1.79,0,0,0,.549-1.406,2.111,2.111,0,0,0-.554-1.521,2.068,2.068,0,0,0-1.529-.6H3.779ZM17.49-4.685h-2.1V0H12.753V-12.8h4.755a5.375,5.375,0,0,1,3.5,1.011,3.488,3.488,0,0,1,1.23,2.856,3.937,3.937,0,0,1-.567,2.184,3.866,3.866,0,0,1-1.718,1.393L22.72-.123V0H19.89ZM15.39-6.82h2.127a2.178,2.178,0,0,0,1.538-.505A1.806,1.806,0,0,0,19.6-8.719a1.933,1.933,0,0,0-.514-1.424,2.137,2.137,0,0,0-1.578-.519H15.39Zm19.362.712a7.725,7.725,0,0,1-.668,3.313A5.03,5.03,0,0,1,32.172-.6,5.288,5.288,0,0,1,29.32.176a5.324,5.324,0,0,1-2.839-.765,5.08,5.08,0,0,1-1.934-2.184,7.5,7.5,0,0,1-.694-3.265v-.633A7.685,7.685,0,0,1,24.535-10,5.072,5.072,0,0,1,26.459-12.2a5.3,5.3,0,0,1,2.843-.769,5.3,5.3,0,0,1,2.843.769A5.072,5.072,0,0,1,34.071-10a7.663,7.663,0,0,1,.681,3.318Zm-2.672-.58a5.385,5.385,0,0,0-.721-3.059A2.349,2.349,0,0,0,29.3-10.793,2.349,2.349,0,0,0,27.255-9.76a5.324,5.324,0,0,0-.729,3.028v.624a5.453,5.453,0,0,0,.721,3.041A2.342,2.342,0,0,0,29.32-1.986a2.321,2.321,0,0,0,2.039-1.042,5.421,5.421,0,0,0,.721-3.037Zm13.474-3.973h-3.92V0H39V-10.661H35.13V-12.8H45.554ZM57.322-6.108a7.725,7.725,0,0,1-.668,3.313A5.03,5.03,0,0,1,54.743-.6a5.288,5.288,0,0,1-2.852.773,5.324,5.324,0,0,1-2.839-.765,5.08,5.08,0,0,1-1.934-2.184,7.5,7.5,0,0,1-.694-3.265v-.633A7.685,7.685,0,0,1,47.1-10,5.072,5.072,0,0,1,49.03-12.2a5.3,5.3,0,0,1,2.843-.769,5.3,5.3,0,0,1,2.843.769A5.072,5.072,0,0,1,56.641-10a7.663,7.663,0,0,1,.681,3.318Zm-2.672-.58a5.385,5.385,0,0,0-.721-3.059,2.349,2.349,0,0,0-2.057-1.046A2.349,2.349,0,0,0,49.825-9.76,5.324,5.324,0,0,0,49.1-6.732v.624a5.453,5.453,0,0,0,.721,3.041,2.342,2.342,0,0,0,2.074,1.081A2.321,2.321,0,0,0,53.93-3.028a5.421,5.421,0,0,0,.721-3.037ZM69.284-4.263a4.528,4.528,0,0,1-1.525,3.252A5.355,5.355,0,0,1,64.134.176a4.816,4.816,0,0,1-3.872-1.657,6.793,6.793,0,0,1-1.411-4.548v-.782a7.671,7.671,0,0,1,.65-3.252,4.874,4.874,0,0,1,1.859-2.158,5.207,5.207,0,0,1,2.808-.751,5.217,5.217,0,0,1,3.568,1.187A4.866,4.866,0,0,1,69.3-8.455H66.665a2.673,2.673,0,0,0-.69-1.8,2.555,2.555,0,0,0-1.806-.558,2.24,2.24,0,0,0-1.973.945,5.3,5.3,0,0,0-.672,2.931v.967a5.667,5.667,0,0,0,.628,3.032,2.2,2.2,0,0,0,1.982.958,2.6,2.6,0,0,0,1.824-.558,2.521,2.521,0,0,0,.69-1.727ZM81.527-6.108a7.725,7.725,0,0,1-.668,3.313A5.03,5.03,0,0,1,78.948-.6,5.288,5.288,0,0,1,76.1.176a5.324,5.324,0,0,1-2.839-.765,5.08,5.08,0,0,1-1.934-2.184,7.5,7.5,0,0,1-.694-3.265v-.633A7.685,7.685,0,0,1,71.31-10,5.072,5.072,0,0,1,73.235-12.2a5.3,5.3,0,0,1,2.843-.769,5.3,5.3,0,0,1,2.843.769A5.072,5.072,0,0,1,80.846-10a7.663,7.663,0,0,1,.681,3.318Zm-2.672-.58a5.385,5.385,0,0,0-.721-3.059,2.349,2.349,0,0,0-2.057-1.046A2.349,2.349,0,0,0,74.03-9.76,5.324,5.324,0,0,0,73.3-6.732v.624a5.453,5.453,0,0,0,.721,3.041A2.342,2.342,0,0,0,76.1-1.986a2.321,2.321,0,0,0,2.039-1.042,5.421,5.421,0,0,0,.721-3.037Zm7.225,4.57h5.6V0H83.443V-12.8H86.08Zm17.06-3.99a7.725,7.725,0,0,1-.668,3.313A5.03,5.03,0,0,1,100.56-.6a5.288,5.288,0,0,1-2.852.773,5.324,5.324,0,0,1-2.839-.765,5.08,5.08,0,0,1-1.934-2.184,7.5,7.5,0,0,1-.694-3.265v-.633A7.685,7.685,0,0,1,92.922-10,5.072,5.072,0,0,1,94.847-12.2a5.3,5.3,0,0,1,2.843-.769,5.3,5.3,0,0,1,2.843.769A5.072,5.072,0,0,1,102.458-10a7.663,7.663,0,0,1,.681,3.318Zm-2.672-.58a5.385,5.385,0,0,0-.721-3.059,2.349,2.349,0,0,0-2.057-1.046A2.349,2.349,0,0,0,95.643-9.76a5.324,5.324,0,0,0-.729,3.028v.624a5.453,5.453,0,0,0,.721,3.041,2.342,2.342,0,0,0,2.074,1.081,2.321,2.321,0,0,0,2.039-1.042,5.421,5.421,0,0,0,.721-3.037Zm11.224,3.331a1.353,1.353,0,0,0-.527-1.147,6.917,6.917,0,0,0-1.9-.844,13.458,13.458,0,0,1-2.171-.875,3.547,3.547,0,0,1-2.18-3.173,3.09,3.09,0,0,1,.584-1.85,3.812,3.812,0,0,1,1.679-1.27,6.318,6.318,0,0,1,2.457-.457,5.751,5.751,0,0,1,2.443.5,3.891,3.891,0,0,1,1.666,1.4,3.668,3.668,0,0,1,.593,2.057H111.7a1.726,1.726,0,0,0-.554-1.367,2.276,2.276,0,0,0-1.556-.488,2.432,2.432,0,0,0-1.5.409,1.289,1.289,0,0,0-.536,1.077,1.235,1.235,0,0,0,.628,1.046,7.1,7.1,0,0,0,1.85.791,7.994,7.994,0,0,1,3.278,1.679,3.343,3.343,0,0,1,1.028,2.5A3.08,3.08,0,0,1,113.08-.769,5.5,5.5,0,0,1,109.7.176a6.534,6.534,0,0,1-2.689-.541,4.256,4.256,0,0,1-1.85-1.481,3.793,3.793,0,0,1-.637-2.18h2.646q0,2.118,2.531,2.118a2.462,2.462,0,0,0,1.468-.382A1.244,1.244,0,0,0,111.691-3.357Z" transform="translate(270 32.863)" fill="#008f85"/>
  <path id="Trazado_165470" data-name="Trazado 165470" d="M1.206,0V-13.508H5.362a6.312,6.312,0,0,1,3.187.8,5.6,5.6,0,0,1,2.194,2.282,7.039,7.039,0,0,1,.789,3.363v.622a7.059,7.059,0,0,1-.775,3.349A5.548,5.548,0,0,1,8.572-.816,6.359,6.359,0,0,1,5.39,0ZM3.989-11.253v9.018H5.334A3.022,3.022,0,0,0,7.83-3.3a4.821,4.821,0,0,0,.881-3.052v-.714a4.9,4.9,0,0,0-.854-3.122,3.012,3.012,0,0,0-2.5-1.062Zm17.692,5.4H16.337v3.618h6.271V0H13.554V-13.508H22.59v2.254H16.337v3.219h5.344ZM28.973,0V-13.508H33.7a6.213,6.213,0,0,1,3.729.942,3.22,3.22,0,0,1,1.271,2.76,3.052,3.052,0,0,1-.51,1.749,2.947,2.947,0,0,1-1.419,1.109A2.852,2.852,0,0,1,38.413-5.9a3.1,3.1,0,0,1,.6,1.93,3.565,3.565,0,0,1-1.243,2.95A5.6,5.6,0,0,1,34.224,0Zm2.783-5.882v3.646h2.384A2.3,2.3,0,0,0,35.676-2.7,1.607,1.607,0,0,0,36.228-4a1.7,1.7,0,0,0-1.92-1.883Zm0-1.967h2.06q2.106-.037,2.106-1.679a1.552,1.552,0,0,0-.533-1.322,2.806,2.806,0,0,0-1.684-.4H31.756ZM44.058,0H41.275V-13.508h2.783ZM57.733-6.448a8.154,8.154,0,0,1-.705,3.5A5.31,5.31,0,0,1,55.01-.631,5.582,5.582,0,0,1,52,.186a5.62,5.62,0,0,1-3-.807,5.362,5.362,0,0,1-2.041-2.305,7.921,7.921,0,0,1-.733-3.447v-.668a8.111,8.111,0,0,1,.719-3.511,5.353,5.353,0,0,1,2.032-2.329,5.589,5.589,0,0,1,3-.812,5.589,5.589,0,0,1,3,.812,5.353,5.353,0,0,1,2.032,2.329,8.088,8.088,0,0,1,.719,3.5Zm-2.82-.612a5.684,5.684,0,0,0-.761-3.229,2.479,2.479,0,0,0-2.171-1.1,2.48,2.48,0,0,0-2.162,1.09,5.619,5.619,0,0,0-.77,3.2v.659a5.755,5.755,0,0,0,.761,3.21A2.473,2.473,0,0,0,52-2.1a2.45,2.45,0,0,0,2.152-1.1A5.722,5.722,0,0,0,54.913-6.4ZM66.76-3.544A1.428,1.428,0,0,0,66.2-4.755a7.3,7.3,0,0,0-2-.891,14.205,14.205,0,0,1-2.292-.923,3.744,3.744,0,0,1-2.3-3.349,3.262,3.262,0,0,1,.617-1.953A4.024,4.024,0,0,1,62-13.211a6.669,6.669,0,0,1,2.593-.482,6.071,6.071,0,0,1,2.579.524,4.107,4.107,0,0,1,1.758,1.48,3.872,3.872,0,0,1,.626,2.171H66.769a1.821,1.821,0,0,0-.584-1.443,2.4,2.4,0,0,0-1.642-.515,2.567,2.567,0,0,0-1.586.431,1.361,1.361,0,0,0-.566,1.136,1.3,1.3,0,0,0,.663,1.1,7.494,7.494,0,0,0,1.953.835A8.438,8.438,0,0,1,68.467-6.2a3.529,3.529,0,0,1,1.085,2.635A3.251,3.251,0,0,1,68.226-.812a5.808,5.808,0,0,1-3.572,1,6.9,6.9,0,0,1-2.839-.571,4.492,4.492,0,0,1-1.953-1.563,4,4,0,0,1-.673-2.3h2.792q0,2.236,2.672,2.236a2.6,2.6,0,0,0,1.549-.4A1.313,1.313,0,0,0,66.76-3.544Zm12.8-2.31H74.219v3.618H80.49V0H71.436V-13.508h9.036v2.254H74.219v3.219h5.344ZM92.811-1.707a4.831,4.831,0,0,1-2.125,1.4,8.9,8.9,0,0,1-3.043.5A6.028,6.028,0,0,1,84.568-.58,5.1,5.1,0,0,1,82.527-2.8a7.82,7.82,0,0,1-.738-3.423v-.918a8.305,8.305,0,0,1,.682-3.5,5.044,5.044,0,0,1,1.967-2.264,5.665,5.665,0,0,1,3.01-.784,5.642,5.642,0,0,1,3.757,1.146,4.9,4.9,0,0,1,1.6,3.335H90.1a2.693,2.693,0,0,0-.821-1.7,2.622,2.622,0,0,0-1.749-.538,2.468,2.468,0,0,0-2.162,1.067,5.61,5.61,0,0,0-.751,3.173v.863a5.341,5.341,0,0,0,.807,3.21A2.764,2.764,0,0,0,87.792-2.05a3.087,3.087,0,0,0,2.236-.668V-5.047H87.495V-7.1h5.316Zm12.478-11.8v8.9A4.555,4.555,0,0,1,103.9-1.1a5.347,5.347,0,0,1-3.79,1.29,5.407,5.407,0,0,1-3.757-1.252,4.477,4.477,0,0,1-1.419-3.442v-9h2.783v8.916a2.574,2.574,0,0,0,.635,1.934,2.44,2.44,0,0,0,1.758.608q2.347,0,2.384-2.468v-8.99Zm7.283,8.563h-2.217V0h-2.783V-13.508h5.019a5.674,5.674,0,0,1,3.692,1.067,3.682,3.682,0,0,1,1.3,3.015,4.156,4.156,0,0,1-.6,2.305,4.081,4.081,0,0,1-1.814,1.47l2.922,5.52V0H115.1ZM110.354-7.2H112.6a2.3,2.3,0,0,0,1.624-.533A1.907,1.907,0,0,0,114.8-9.2a2.041,2.041,0,0,0-.543-1.5,2.255,2.255,0,0,0-1.665-.547h-2.236Zm12.3,7.2h-2.783V-13.508h2.783Zm2.579,0V-13.508h4.156a6.312,6.312,0,0,1,3.187.8,5.6,5.6,0,0,1,2.194,2.282,7.039,7.039,0,0,1,.789,3.363v.622a7.059,7.059,0,0,1-.775,3.349A5.548,5.548,0,0,1,132.6-.816,6.359,6.359,0,0,1,129.419,0Zm2.783-11.253v9.018h1.345a3.022,3.022,0,0,0,2.5-1.067,4.821,4.821,0,0,0,.881-3.052v-.714a4.9,4.9,0,0,0-.854-3.122,3.012,3.012,0,0,0-2.5-1.062Zm17.191,8.47h-4.88L139.4,0h-2.959l5.028-13.508h2.579L149.105,0h-2.959Zm-4.128-2.254h3.377l-1.7-5.056ZM150.367,0V-13.508h4.156a6.312,6.312,0,0,1,3.187.8,5.6,5.6,0,0,1,2.194,2.282,7.039,7.039,0,0,1,.789,3.363v.622a7.059,7.059,0,0,1-.775,3.349,5.548,5.548,0,0,1-2.185,2.273A6.359,6.359,0,0,1,154.551,0Zm2.783-11.253v9.018H154.5a3.022,3.022,0,0,0,2.5-1.067,4.821,4.821,0,0,0,.881-3.052v-.714a4.9,4.9,0,0,0-.854-3.122,3.012,3.012,0,0,0-2.5-1.062Z" transform="translate(270 50.863)" fill="#1d272b"/>
  <rect id="Rectángulo_34968" data-name="Rectángulo 34968" width="4" height="53" transform="translate(261 7.863)" fill="#d93328"/>
  <g id="Grupo_91829" data-name="Grupo 91829" transform="translate(13.413 55.864)">
    <g id="Grupo_91518" data-name="Grupo 91518" transform="translate(0 0)">
      <path id="Trazado_150333" data-name="Trazado 150333" d="M-230.707,392.877c-1.183,4.312-3.088,7.578-2.09,13.28,3.54,3.583,8.977,7.361,13.824,10.406v.031c8.764,5.785,19.77,9.438,23.177,2.594.576-1.824-.882-4.484-2.236-5.856-4.094-4.15-10.929-5.734-12.095-12.084a21.892,21.892,0,0,1-.182-5.523Z" transform="translate(250.597 -190.08)" fill="#4d4948" fill-rule="evenodd"/>
      <path id="Trazado_150334" data-name="Trazado 150334" d="M-231.446,401.939c2.173,5.194,5.117,4.266,7.48,6.2,7.232,5.914,8.672,11.157,19.476,13.233,4.364.839,9.67-.731,10.478-3.391l-.423,2.841c-.928,2.237-6.236,4.144-10.48,3.195-11.756-2.629-26.871-15.266-27.921-17.59C-233.789,404.311-231.909,403.435-231.446,401.939Z" transform="translate(248.97 -189.271)" fill="#3c3c3b" fill-rule="evenodd"/>
      <path id="Trazado_150335" data-name="Trazado 150335" d="M-230.115,302.609s.367.267,1.019.767A21.659,21.659,0,0,1-227.527,301l.384-.237s33.3,28.224,33.067,53.486c0,.1,0,.2,0,.3h0l-.017.76h0l-.016.747h0l-.019.735h0l-.02.722h0l-.023.709h0l-.024.7h0l-.025.686h0l-.026.675-.03.662-.03.653-.034.642-.035.631-.037.621-.039.611-.042.6-.042.593-.047.58-.049.573-.05.564-.053.556-.055.547-.059.54-.061.532-.063.525-.066.517-.07.511-.071.5-.075.5-.077.491-.079.486h0l-.083.479h0l-.085.475h0l-.089.47h0l-.093.464h0l-.1.458h0l-.1.458h0l-.1.451h0l-.1.448h0l-.108.444h0l-.112.441h0l-.116.438h0l-.12.435h0l-.124.433h0l-.126.43h0l-.131.428h0l-.134.427h0l-.137.426h0l-.142.425h0l-.147.423h0l-.149.423h0l-.155.422-.157.423-.163.422-.167.423-.171.424-.174.424-.181.425-.184.427-.188.428-.192.43-.2.431-.2.436-.207.438-.21.441c-1.605,9.219-13.167,10.278-20.034,5.835.106.016.2.025.3.039a7.152,7.152,0,0,1-3.471-4.9c2.524-24.274-5.761-45.366-19.924-53.627,2.821,16.408-13.077,60.85-17.789,67.4-.445,7.981-20.451,12.037-19.985-4.025-2.2-8.144,6.677-17.053,10.045-36.823,1.217-7.148-2.227-27.887-2.27-34.2-.142-20.991,1.855-29.976,9.015-37.234,5.469,6.631,22.733,17.207,30.8,13.619Z" transform="translate(301.763 -199.253)" fill="#f9a825" fill-rule="evenodd"/>
      <path id="Trazado_150336" data-name="Trazado 150336" d="M-277.433,332.222l-.023-.014.023-.026v.04Zm0,.191v-.054l-.023-.15A.505.505,0,0,0-277.433,332.412Zm6.064-10.33c0,13.578,12.56-13.889,12.56,5.956,0,5.518,4.705,2.833,7.493,5.625,6.375,6.385,19.291,24.881,18.751,34.925-.276,5.121-.512,9.76-.716,14.005l-.04.092-.192.43-.2.431-.2.436-.207.438-.21.441c-1.606,9.219-13.167,10.278-20.034,5.835.106.016.2.025.3.039a7.151,7.151,0,0,1-3.471-4.9c2.523-24.261-5.752-45.342-19.9-53.613v-.04c2.525-2.9,1.842-10.1,6.064-10.1Zm-6.064,10.276v.054l.023.1Z" transform="translate(335.822 -196.532)" fill="#de9318" fill-rule="evenodd"/>
      <path id="Trazado_150337" data-name="Trazado 150337" d="M-251.782,307.937l-8.421,7.5c-3.775-2.93-11.781-11.425-16.836-17.1-4.058-4.553-25.459-26.073-29.873-39.064,5.642-13.739-9.967-22.291-1.81-23.295,8.095-1,12.281.769,17.89,7.457,4.472,8.029,17.8,36.709,24.04,44.383C-255.616,301.072-252.671,301.708-251.782,307.937Z" transform="translate(391.733 -204.099)" fill="#f9a825" fill-rule="evenodd"/>
      <path id="Trazado_150338" data-name="Trazado 150338" d="M-279.217,282.618c13.653,4.969.072,2.957,1.457,6.65.691,1.842,2.795.071,5.888,2.377,5.691,4.241.784,9.41,11.25,15.238,2.386,1.329,4.528,2.532,8.776.328.1,4.264-2.189,6.857-7.965,7.007-9.3,1.15-20.157-15.355-25.208-21.026-4.949-5.555-23.379-37-25.7-42.971,12.157-1.821,18.917-.753,21.856,6.234C-285.532,264.369-286.511,278.663-279.217,282.618Z" transform="translate(391.341 -202.876)" fill="#de9318" fill-rule="evenodd"/>
      <path id="Trazado_150339" data-name="Trazado 150339" d="M-291.337,383.341c-.073,4.47-1.1,8.107,1.281,13.382,4.32,2.588,10.526,4.895,15.977,6.639l.007.031c9.928,3.422,21.5,4.223,23.094-3.254.1-1.91-1.97-4.125-3.623-5.116-5-3-12.012-2.833-14.721-8.694a21.877,21.877,0,0,1-1.55-5.3Z" transform="translate(369.67 -191.137)" fill="#4d4948" fill-rule="evenodd"/>
      <path id="Trazado_150340" data-name="Trazado 150340" d="M-291.1,392.469c3.4,4.49,6.017,2.857,8.786,4.14,8.476,3.929,11.176,8.648,22.157,7.972,4.436-.273,9.185-3.115,9.305-5.892l.3,2.857c-.342,2.4-5.009,5.565-9.356,5.7-6.771.212-12.433-2.116-20.034-5.412-5.656-2.453-9.77-2.8-11.384-4.677C-292.783,395.349-291.181,394.031-291.1,392.469Z" transform="translate(369.601 -190.116)" fill="#3c3c3b" fill-rule="evenodd"/>
      <path id="Trazado_150341" data-name="Trazado 150341" d="M-199.677,412.542c-6.323-6.185-9.685-3.347-11.542-9.893-4.843,2.181-14.347-.588-17.65-5.813h0c-2.666,7.478,2.225,6.091,7.149,9.765,4.741,3.54,12.461,12.229,19.079,12.576C-197.365,419.455-196.943,415.218-199.677,412.542Z" transform="translate(249.187 -189.726)" fill="#666" fill-rule="evenodd"/>
      <path id="Trazado_150342" data-name="Trazado 150342" d="M-259.334,243.71s-.363,10.614-1.3,16.033c-.909,10.887-7.654,24.891-12.007,35.137,5.626,19.084,23.955,29.7,37.239,10.719,13.9-7.721,23.908-27.285,23.385-48.749-1.672-6.537-2.063-15.344-8.573-19.043C-232.2,231.214-259.516,243.349-259.334,243.71Z" transform="translate(310.027 -204.088)" fill="#f9a825" fill-rule="evenodd"/>
      <path id="Trazado_150343" data-name="Trazado 150343" d="M-215.959,333.718c2.489,10.414,4.186,23.007,2.923,34.786-.816,7.616-14.317,32.612-20.712,32.612-.308,5.511-7.964,9.987-17.809,1.126,1.211-.392,7.3.431,9.07-.552,12.152-6.752,6.169-27,8.926-29.483,4.052-3.653,8.734-.549,9.852-5.711,3.245-14.979-4.114-39.667-7.636-54.1,2.362-.785,8.826,14.1,16.873,8.208,1.507-1.1,9.373-10.064,14.541-16.986C-195.68,308.784-213.137,331.126-215.959,333.718Z" transform="translate(274.325 -198.042)" fill="#de9318" fill-rule="evenodd"/>
      <path id="Trazado_150344" data-name="Trazado 150344" d="M-198.447,397.576a23.742,23.742,0,0,0-.017-4.073c-1.9,8.253-21.045,5.253-19.706-4.522-.027-.4-1.91,4.623-1.8,5.743C-218.607,403.049-199.527,405.7-198.447,397.576Z" transform="translate(239.041 -190.429)" fill="#3c3c3b"/>
      <path id="Trazado_150345" data-name="Trazado 150345" d="M-320.89,308.231c-.031-1.744,3.787-5.6,5.152-3.579,1.528,1.478,7.359,7.238,7.687,7.719a19.116,19.116,0,0,1,1.342,2.224,4.371,4.371,0,0,1,.558,3.18c-.053,1.172-.111,4.543-.251,5.588-.436,1.852-.732,4.361-1.514,5.943a1.043,1.043,0,0,1-.98-.559c-.277.623-.483,1.771-1.3,1.547a2.046,2.046,0,0,1-1.314-1.919l-.167.756c-1.17.546-2.171-1.457-2.312-2.218-.137-.743.225-3.048.112-3.81-.282-1.852-.9-6.128-.588-1.722.163,1.911.006,4.552-.939,4.065-1.948-1-1-2.641-1.351-4.543-.309-1.677-1.137-5.044-2.262-6.513C-321.445,311.222-320.847,310.634-320.89,308.231Z" transform="translate(456.701 -198.001)" fill="#3c3c3b" fill-rule="evenodd"/>
      <path id="Trazado_150346" data-name="Trazado 150346" d="M-304.809,302.024a32.88,32.88,0,0,1-8.421,7.5c1.988,1.476,3.277,2.336,3.277,2.336,4.866-1.894,8.184-4.956,7.276-7.517C-303.29,303.7-304.014,302.921-304.809,302.024Z" transform="translate(444.76 -198.184)" fill="#575756" fill-rule="evenodd"/>
      <path id="Trazado_150347" data-name="Trazado 150347" d="M-252.311,382.619a23.956,23.956,0,0,0-1.029-3.94c.21,8.466-19.076,10.325-20.212.523-.126-.383-.7,4.953-.318,6.011C-270.475,392.936-251.334,390.761-252.311,382.619Z" transform="translate(351.78 -191.355)" fill="#3c3c3b"/>
      <path id="Trazado_150348" data-name="Trazado 150348" d="M-255.566,395.535c-7.664-4.418-10.212-.831-13.64-6.711-4.149,3.318-14.043,3-18.543-1.237h0c-.721,7.908,3.672,5.347,9.355,7.68,5.473,2.247,15.112,8.743,21.608,7.432C-251.607,401.654-252.252,397.447-255.566,395.535Z" transform="translate(367.551 -190.552)" fill="#666" fill-rule="evenodd"/>
      <path id="Trazado_150369" data-name="Trazado 150369" d="M-214.877,258.9c-3.607,8.808-9.976,15.851-19.645,15.851-8.4,0-9,9.606-12.781,0-1.251-3.18-17.974,11.555-20.051,14.117-4.392,5.413,1.015,6.775,4.406,11.249,5.642,7.443-12.711-4.49-9.2.633,1.428,2.086,2.536,7.439,6.425,10.929,6.8,6.106,14.941,14.066,27.491-8.142C-225.23,296.316-215.629,278.722-214.877,258.9Z" transform="translate(312.856 -202.031)" fill="#de9318" fill-rule="evenodd"/>
      <path id="Trazado_150371" data-name="Trazado 150371" d="M-258.248,216.455c-.968,2.615-5.748,18.46-10.747,23.2,8.51,3.037,7.418,25.5,18.35,21.339,3.484-1.326,6.974-6.357,7.1-14.96-2.743-3.99-5.165-3.24,2.005-11.985C-239.733,231.121-258.249,216.455-258.248,216.455Z" transform="translate(335.467 -205.818)" fill="#f9a825" fill-rule="evenodd"/>
      <path id="Trazado_150372" data-name="Trazado 150372" d="M-253.591,230.168c-.635,1.327-2.329.846-2.634,7.236-.193,3.946-.774,3.753-4.712,8.984-2.229,2.962-9.927,7.583-12.828,3.833-.908-1.173-2.8-9.54-7.874-4.016-1.5,1.636-2.281-2.635-1.65-8.157.157-1.379,2.945-15.5-.268-7.5-4.911,12.224-.487-15.935,4.393-20.033,4.913-4.306,15.079-6.854,26.269,2.894,4.441,3.868,7.573,11.817,2.987,16.176C-251.21,230.822-252.963,227.941-253.591,230.168Z" transform="translate(359.897 -206.689)" fill="#de9318" fill-rule="evenodd"/>
      <path id="Trazado_150374" data-name="Trazado 150374" d="M-263.92,220.718c-5.629,1.281-15.424,8.331-18.524,15.689s-2.193,8.187-1.1,9.991c1.061,1.145,1.931,2.076,2.334,2.6,2.9,3.751,10.6-.871,12.828-3.833,3.938-5.23,4.519-5.038,4.712-8.984.305-6.389,2-5.909,2.634-7.236.627-2.227,2.381.654,3.684-.586a7.148,7.148,0,0,0,1.024-1.215C-256.445,222.336-258.291,219.436-263.92,220.718Z" transform="translate(367.342 -205.465)" fill="#f9a825" fill-rule="evenodd"/>
      <path id="Trazado_150375" data-name="Trazado 150375" d="M-265.657,222.052c-6.035,1.346-13.423,8.464-16.757,17.025s.634,13.273,6.668,11.927,13.189-8.921,15.974-16.914S-259.623,220.707-265.657,222.052Z" transform="translate(368.652 -205.337)" fill="#333" fill-rule="evenodd"/>
      <path id="Trazado_150376" data-name="Trazado 150376" d="M-262.625,232.923l-2.076,14.128-10.371,7.663c-2.28-1.8-3.587-2.627-5.791-4.509l-.053-.047c-7.462-6.592,5.576-24.339,12.437-25.871C-263.646,223.209-261.259,226.978-262.625,232.923Z" transform="translate(371.717 -205.136)" fill="#7f7f7f" fill-rule="evenodd"/>
      <path id="Trazado_150377" data-name="Trazado 150377" d="M-278.56,253.705c-6.45-3.6-5.225-16.218-1.7-24.607,2.393-2.532,4.922-4.363,6.926-4.811,4.834-1.078,7.221,2.691,5.855,8.636l-2.076,14.128Z" transform="translate(376.571 -205.136)" fill="#b2b2b2" fill-rule="evenodd"/>
      <path id="Trazado_150378" data-name="Trazado 150378" d="M-275.345,225.593l-2.739,22.6-2.193-.193-1.714-23.178a10.348,10.348,0,0,1,1.675-.537C-278.1,223.794-276.407,224.313-275.345,225.593Z" transform="translate(383.553 -205.136)" fill-rule="evenodd" fill="url(#linear-gradient-12)"/>
      <path id="Trazado_150379" data-name="Trazado 150379" d="M-267.71,250.875l-3.787-6.52a1.205,1.205,0,0,0-.19-.234c-3.359-3.587-15.167,3.574-12.782,7.977h0l3.682,6.339Z" transform="translate(378.96 -203.437)" fill="#4c4c4c" fill-rule="evenodd"/>
      <path id="Trazado_150380" data-name="Trazado 150380" d="M-269.388,251.551l-3.442-5.826a9.6,9.6,0,0,0-3.109,3.228l3.472,5.873A9.589,9.589,0,0,1-269.388,251.551Z" transform="translate(371.003 -203.207)" fill="#333" fill-rule="evenodd"/>
      <path id="Trazado_150381" data-name="Trazado 150381" d="M-284.508,258.427c1.505,1.607,5.519,1.027,8.961-1.294s5.015-5.507,3.511-7.115-5.518-1.028-8.961,1.293S-286.012,256.82-284.508,258.427Z" transform="translate(383.038 -202.905)" fill="#333" fill-rule="evenodd"/>
      <path id="Trazado_150382" data-name="Trazado 150382" d="M-273,250.725l-3.447-5.821c-.294.152-.585.316-.868.49l3.447,5.82Q-273.434,250.949-273,250.725Z" transform="translate(376.106 -203.28)" fill="#333" fill-rule="evenodd"/>
      <path id="Trazado_150383" data-name="Trazado 150383" d="M-271.987,252.006l-.747-1.286a1.138,1.138,0,0,0-.176-.216c-3.11-3.322-14.046,3.309-11.836,7.387h0l.649,1.117Z" transform="translate(383.515 -202.861)" fill="#4c4c4c" fill-rule="evenodd"/>
      <path id="Trazado_150384" data-name="Trazado 150384" d="M-284.783,259.389c1.393,1.488,5.109.952,8.3-1.2s4.644-5.1,3.251-6.589-5.112-.953-8.3,1.2S-286.177,257.9-284.783,259.389Z" transform="translate(384.53 -202.758)" fill="#333" fill-rule="evenodd"/>
      <path id="Trazado_150385" data-name="Trazado 150385" d="M-280.534,243.467l3.573,6.11a5.923,5.923,0,0,0-2.4-.039l-3.762-6.051A5.773,5.773,0,0,1-280.534,243.467Z" transform="translate(386.398 -203.42)" fill="#999" fill-rule="evenodd"/>
      <g id="Grupo_91517" data-name="Grupo 91517" transform="translate(0 103.474)">
        <path id="Trazado_150386" data-name="Trazado 150386" d="M-200.39,312.475c-.828,1.788.342,3.126,1.17,4.94.936,2.049-.887,5.71.882,8.392.9,1.369,1.974-.778,2.068-3.225s1.482-4,1.5-5.994c.009-1.182-.3-5.261-1.839-5.8C-199.294,309.856-199.414,311.244-200.39,312.475Z" transform="translate(214.408 -300.904)" fill="#575756" fill-rule="evenodd"/>
        <path id="Trazado_150387" data-name="Trazado 150387" d="M-189.64,302.369c1.429-1.309,7.714-.761,7.13,1.933,0,2.441,1.575,11.021,1.438,11.666-.215,1.086-2.109,2.583-2.463,3.648a4.529,4.529,0,0,1-2.2,2.832c-1.021.817-3.876,3.245-4.86,3.891-1.894.976-5.552,3.769-6.174,3.03a2.1,2.1,0,0,1-.5-1.683c-.694.347-1.584,1.256-2.165.385a2.22,2.22,0,0,1,.542-2.576l-.765.409c-1.406-.256-.437-2.586.083-3.271.51-.669,2.627-2.452,3.173-3.114,1.317-1.611,4.382-5.308.962-1.787-1.462,1.55-3.919,3.375-4.144,2.159-.387-2.108,1.591-2.891,2.894-4.6,1.148-1.509,3.1-4.655,3.417-6.733C-192.58,304.078-191.61,304.174-189.64,302.369Z" transform="translate(200.384 -301.689)" fill="#3c3c3b" fill-rule="evenodd"/>
      </g>
      <path id="Trazado_150388" data-name="Trazado 150388" d="M-187.586,312.986a22.36,22.36,0,0,1-1.083,6.629c-1.224,1.038-2.774,1.173-3.841-.3-1.42.151-2.658-.634-2.74-1.634a2.266,2.266,0,0,1-2.211-2.133,3.916,3.916,0,0,1-1.092-2.024c.308-1.7,1.362-2.843,2.061-4.778C-193.322,310.65-189.74,313.478-187.586,312.986Z" transform="translate(204.897 -197.585)" fill="#575756" fill-rule="evenodd"/>
      <path id="Trazado_150389" data-name="Trazado 150389" d="M-231.668,275.516c-7.264,10.869-8.294,36.231-8.294,36.231l12.611,1.269c7.945-2.947,1.822-14.435,5.608-17.459,1.89-1.509,1.876-3.05,2.2-5.28.185-1.268,3.083.156,3.569-2.073,1.709-7.841,10.016-12.134,16.65-12.731,21.3-8.168,14.147-33.825,10.083-33.2a24.728,24.728,0,0,0-8.566,1.445C-206.456,247.294-219.241,256.919-231.668,275.516Z" transform="translate(247.168 -203.515)" fill="#de9318" fill-rule="evenodd"/>
      <path id="Trazado_150390" data-name="Trazado 150390" d="M-229.644,275.507c-7.263,10.869-12.512,29.79-8.4,33.54l3.143,1.344c2.892-.365,7.761-1.527,8.1-3.832.7-4.679-5.2-8.126.586-17.694,1.005-1.662,2.858.815,6.733-4.163.685-.88-3.582-1.775-2.9-2.461,1.024-1.025,7.593-1.694,9.2-2.925,10.154-7.777,25.2-9.358,28.171-14.657q.134-.276.26-.556c.019-.05.04-.1.057-.147l.009,0c4.492-10.179-2.649-22.012-5.437-21.582-.891.071-2.017-.172-5.666,1.335C-204.431,247.285-217.217,256.911-229.644,275.507Z" transform="translate(245.143 -203.506)" fill="#f9a825" fill-rule="evenodd"/>
      <path id="Trazado_150391" data-name="Trazado 150391" d="M-187.893,307.546a46.191,46.191,0,0,1-12.713-3.96c-.192,2.468-.232,4.018-.232,4.018,4.195,3.11,10.432,5.118,12.116,2.984C-188.5,309.727-188.228,308.7-187.893,307.546Z" transform="translate(207.708 -198.045)" fill="#575756" fill-rule="evenodd"/>
      <g id="Grupo_91530" data-name="Grupo 91530" transform="matrix(-0.951, -0.309, 0.309, -0.951, 146.023, 253.75)">
        <path id="Trazado_150296" data-name="Trazado 150296" d="M55.691,117.969,2.119,44.721a7.436,7.436,0,0,1-.725-1.337C-8.964,20.983,41.279-14.064,56.768,5.953h0l52.945,72.395Z" transform="translate(1.91 2.409)" fill="#2e3c42" fill-rule="evenodd"/>
        <path id="Trazado_150297" data-name="Trazado 150297" d="M64.26,95.34,0,6.894C6.934,2.685,14.481.018,21.07,0l60.2,82.861Z" transform="translate(24.186 2.418)" fill="#1d272b" fill-rule="evenodd"/>
        <path id="Trazado_150298" data-name="Trazado 150298" d="M53.095,76.008,0,2.929Q1.887,1.393,3.9,0l53.09,73.073Q54.952,74.475,53.095,76.008Z" transform="translate(17.243 11.282)" fill="#1d272b" fill-rule="evenodd"/>
        <g id="Grupo_91501" data-name="Grupo 91501" transform="translate(37.785 52.007)">
          <path id="Trazado_150299" data-name="Trazado 150299" d="M62.008,9.4a13.959,13.959,0,0,1,1.246,4.829L58.987,8.356l-.019.013C43.755-12.009-6.869,23.1,3.54,45.59A11.993,11.993,0,0,0,4.808,47.72l3.961,5.567a13.317,13.317,0,0,1-7-6.6C-11,19.861,49.147-17.741,62.008,9.4Z" transform="translate(0 0)" fill="#afafaf" fill-rule="evenodd"/>
          <path id="Trazado_150300" data-name="Trazado 150300" d="M62.009,9.4a13.973,13.973,0,0,1,1.245,4.829L58.987,8.357l-.018.013C43.756-12.009-6.869,23.1,3.54,45.592A11.984,11.984,0,0,0,4.808,47.72l3.961,5.567a13.32,13.32,0,0,1-7-6.6C-11,19.861,49.147-17.741,62.009,9.4Z" transform="translate(0.834 1.288)" fill="#e8e8e8" fill-rule="evenodd"/>
        </g>
        <g id="Grupo_91502" data-name="Grupo 91502" transform="translate(15.703 21.614)">
          <path id="Trazado_150301" data-name="Trazado 150301" d="M62.008,9.4a13.941,13.941,0,0,1,1.246,4.829L58.987,8.356l-.019.013C43.755-12.009-6.869,23.1,3.54,45.591A11.982,11.982,0,0,0,4.808,47.72l3.961,5.567a13.315,13.315,0,0,1-7-6.6C-11,19.861,49.147-17.741,62.008,9.4Z" transform="translate(0 0)" fill="#afafaf" fill-rule="evenodd"/>
          <path id="Trazado_150302" data-name="Trazado 150302" d="M62.009,9.4a13.968,13.968,0,0,1,1.245,4.828L58.987,8.357l-.018.013C43.756-12.009-6.869,23.1,3.54,45.591A11.993,11.993,0,0,0,4.808,47.72l3.961,5.567a13.322,13.322,0,0,1-7-6.6C-11,19.861,49.147-17.741,62.009,9.4Z" transform="translate(0.834 1.289)" fill="#e8e8e8" fill-rule="evenodd"/>
        </g>
        <path id="Trazado_150303" data-name="Trazado 150303" d="M61.653,8.2C66.589,18.87,57.08,35.891,40.418,46.206S6.239,56.231,1.3,45.559,5.876,17.867,22.54,7.551,56.716-2.474,61.653,8.2Z" transform="translate(52.616 72.761)" fill="#afafaf" fill-rule="evenodd"/>
        <path id="Trazado_150304" data-name="Trazado 150304" d="M61.653,8.2C66.588,18.87,57.08,35.89,40.417,46.206S6.24,56.232,1.3,45.56,5.876,17.867,22.539,7.551,56.717-2.474,61.653,8.2Z" transform="translate(53.482 74.138)" fill="#1d272b" fill-rule="evenodd"/>
        <path id="Trazado_150306" data-name="Trazado 150306" d="M52.772,7.017C57,16.152,48.858,30.721,34.6,39.551S5.341,48.131,1.116,39,5.03,15.293,19.293,6.463,48.548-2.118,52.772,7.017Z" transform="translate(58.016 78.01)" fill="#2e3c42" fill-rule="evenodd"/>
        <path id="Trazado_150307" data-name="Trazado 150307" d="M50.09,4.641c4.14,8.952-3.835,23.229-17.812,31.88C19.985,44.134,7.141,44.86,1.408,38.833c-.11-.2-.216-.409-.314-.62-4.14-8.952,3.836-23.228,17.812-31.88C31.2-1.279,44.044-2,49.777,4.022,49.887,4.225,49.992,4.43,50.09,4.641Z" transform="translate(58.54 78.45)" fill="#afafaf" fill-rule="evenodd"/>
        <g id="Grupo_91503" data-name="Grupo 91503" transform="translate(94.434 94.719)">
          <path id="Trazado_150308" data-name="Trazado 150308" d="M11.061,1.471c.886,1.914-.82,4.968-3.809,6.819S1.12,10.088.234,8.174s.821-4.969,3.81-6.819S10.176-.444,11.061,1.471Z" transform="translate(1.281 1.661)" fill="#afafaf" fill-rule="evenodd"/>
          <path id="Trazado_150309" data-name="Trazado 150309" d="M1.844,10.35h0l-.008-.011.009.01Zm-.134-.173L.624,8.758a2.2,2.2,0,0,1-.252-.33v0h0a2.157,2.157,0,0,1-.137-.253c-.886-1.914.82-4.968,3.81-6.818C6.786-.343,9.656-.439,10.8,1.033h0l1.218,1.586c-1.179-1.393-4-1.27-6.689.4-2.99,1.85-4.7,4.9-3.81,6.819A2.284,2.284,0,0,0,1.71,10.177Z" transform="translate(0 0)" fill="#1d272b" fill-rule="evenodd"/>
          <path id="Trazado_150310" data-name="Trazado 150310" d="M9.865,1.312c.791,1.707-.731,4.431-3.4,6.082S1,9,.208,7.29s.732-4.431,3.4-6.081S9.076-.4,9.865,1.312Z" transform="translate(1.891 2.182)" fill="#1d272b" fill-rule="evenodd"/>
          <path id="Trazado_150311" data-name="Trazado 150311" d="M9.865,1.312c.791,1.707-.731,4.431-3.4,6.082S1,9,.208,7.29s.732-4.431,3.4-6.081S9.076-.4,9.865,1.312Z" transform="translate(2.146 2.533)" fill="#afafaf" fill-rule="evenodd"/>
        </g>
        <g id="Grupo_91504" data-name="Grupo 91504" transform="translate(0 0)">
          <path id="Trazado_150312" data-name="Trazado 150312" d="M62.008,9.4a13.95,13.95,0,0,1,1.246,4.829L58.987,8.356l-.019.013C43.755-12.009-6.869,23.1,3.54,45.59A12,12,0,0,0,4.808,47.72l3.961,5.567a13.316,13.316,0,0,1-7-6.6C-11,19.861,49.147-17.741,62.008,9.4Z" transform="translate(0 0)" fill="#94adca" fill-rule="evenodd"/>
          <path id="Trazado_150313" data-name="Trazado 150313" d="M62.01,9.4a13.968,13.968,0,0,1,1.245,4.828L58.987,8.357l-.018.013C43.756-12.01-6.869,23.1,3.54,45.591A11.987,11.987,0,0,0,4.808,47.72l3.96,5.566a13.32,13.32,0,0,1-7-6.6C-11,19.86,49.148-17.741,62.01,9.4Z" transform="translate(0.834 1.289)" fill="#e8e8e8" fill-rule="evenodd"/>
        </g>
        <path id="Trazado_150314" data-name="Trazado 150314" d="M3.456,7.5l.009.012A6.407,6.407,0,0,0,1.737,8.961,8.309,8.309,0,0,0,0,13.56,6.306,6.306,0,0,1,4.2,8.521,6.306,6.306,0,0,0,0,13.56a8.309,8.309,0,0,1,1.737-4.6A6.407,6.407,0,0,1,3.465,7.509L4.2,8.521A5.829,5.829,0,0,0,0,13.56a8.309,8.309,0,0,1,1.737-4.6A6.341,6.341,0,0,1,3.456,7.5Zm3.338,4.595,1.711,2.355a5.809,5.809,0,0,0,.986,2.337,6.426,6.426,0,0,1-.55,1,6.228,6.228,0,0,1-.465.614c-.089-.11.215.32-.264-.34a10.329,10.329,0,0,1-1.483-4.1,7.963,7.963,0,0,1,.066-1.868Zm3.41,4.693a7.444,7.444,0,0,1-.746,1.42,5.74,5.74,0,0,1-3.326,2.62,4.7,4.7,0,0,1-5.3-2.449,6.826,6.826,0,0,0,2.929,3.333,5.445,5.445,0,0,0,4.034.332,7.3,7.3,0,0,0,3.147-1.888,7.624,7.624,0,0,0,1.442,3.65,6.783,6.783,0,0,0,3.634,2.516,6.708,6.708,0,0,0,1.259.2h0a6.694,6.694,0,0,1-1.258-.2A6.768,6.768,0,0,1,12.383,23.8a7.633,7.633,0,0,1-1.443-3.653,7.312,7.312,0,0,1-3.149,1.889,5.427,5.427,0,0,1-4.032-.334A6.862,6.862,0,0,1,.83,18.375a4.7,4.7,0,0,0,5.3,2.451,5.722,5.722,0,0,0,3.327-2.62,7.5,7.5,0,0,0,.746-1.423,7.5,7.5,0,0,1-.746,1.423,5.722,5.722,0,0,1-3.327,2.62,4.7,4.7,0,0,1-5.3-2.451,6.862,6.862,0,0,0,2.929,3.333,5.427,5.427,0,0,0,4.032.334,7.312,7.312,0,0,0,3.149-1.889A7.633,7.633,0,0,0,12.383,23.8a6.768,6.768,0,0,0,3.632,2.514,6.694,6.694,0,0,0,1.258.2l-.355-.489a5.37,5.37,0,0,1-2.508-1.99,6,6,0,0,1-1.056-2.915L10.2,16.785Zm3.149,4.335a6,6,0,0,0,1.056,2.915,5.37,5.37,0,0,0,2.508,1.99,5.37,5.37,0,0,1-2.508-1.99A6,6,0,0,1,13.354,21.119Zm2.655-.77a7.288,7.288,0,0,1-2.1.425,5.629,5.629,0,0,1,0-.945,5.329,5.329,0,0,1,.159-.907,5.491,5.491,0,0,0,.812-.123l1.126,1.549Zm1.265,6.165h0a7.085,7.085,0,0,0,2.9-.436l-.01-.013a5.224,5.224,0,0,1-3.242-.039l.355.489a7.085,7.085,0,0,0,2.9-.436,7.084,7.084,0,0,1-2.9.437Zm-3.92-5.4a6.738,6.738,0,0,1,.61-3.584l-2.674-3.681-.6.088a6.737,6.737,0,0,1-.482,2.841,6.737,6.737,0,0,0,.482-2.841l.6-.088h0c-.2.027-.4.057-.6.088a6.733,6.733,0,0,1-.481,2.843l3.149,4.335ZM8.506,14.447,6.794,12.092a7.743,7.743,0,0,1,.741-2.313,4.8,4.8,0,0,1,.424.28,5.105,5.105,0,0,1,.933.908,6.1,6.1,0,0,0-.387,3.48ZM4.2,8.521,3.465,7.509a6.3,6.3,0,0,1,2.235-.8c.125-.018.248-.033.368-.044-.12.011-.243.025-.368.044a6.3,6.3,0,0,0-2.235.8L3.456,7.5A6.367,6.367,0,0,1,5.7,6.712c.124-.018.248-.029.371-.039L7.86,9.135a4.319,4.319,0,0,0-3.506-.646L4.2,8.521l.154-.033a4.319,4.319,0,0,1,3.506.646l.026.036a5.176,5.176,0,0,0-3.532-.683L4.2,8.521Zm6.317,4.271.225.309-.153.021c-.02-.112-.045-.222-.072-.33Zm3.447,4.744a6.735,6.735,0,0,0-.61,3.583,6.735,6.735,0,0,1,.61-3.583Zm2.954,8.489a5.224,5.224,0,0,0,3.242.039,5.224,5.224,0,0,1-3.242-.039Zm-6.329-12.9c-.02-.112-.045-.222-.072-.33.026.109.052.218.072.33l.153-.021Zm7.516,6.11a8.421,8.421,0,0,1-2.1,1.118L14.883,18.8a6.119,6.119,0,0,0,3.807-2.77l1.126,1.549A8.372,8.372,0,0,1,18.1,19.232Zm2.065,6.845-.01-.013.2-.06-.189.073Zm-6.206-8.542-2.674-3.681c.25-.035.5-.067.755-.1.054.238-.026.22.306.677a2.1,2.1,0,0,0,2.194.585l.642.884a5.343,5.343,0,0,0-1.222,1.635A5.343,5.343,0,0,1,15.186,15.9l-.642-.884a2.1,2.1,0,0,1-2.194-.585c-.332-.457-.252-.439-.306-.677-.251.032-.5.064-.755.1h0c.251-.036.506-.069.758-.1.052.24-.028.222.3.679a2.089,2.089,0,0,0,2.192.582l.643.885a5.324,5.324,0,0,0-1.221,1.636ZM10.742,13.1l-.225-.309A5.805,5.805,0,0,0,8.372,9.5a5.331,5.331,0,0,0-.486-.326L7.86,9.135c.17.111.34.232.512.362a5.805,5.805,0,0,1,2.145,3.3A5.805,5.805,0,0,0,8.372,9.5c-.172-.129-.342-.251-.512-.362L6.071,6.673A6.889,6.889,0,0,1,9.4,7.252a6.907,6.907,0,0,1,.481-3.346l1.787,2.459c.054.2.119.4.189.6a5.822,5.822,0,0,0,2.473,3.063l.223.307c-.19.39-.376.786-.563,1.184a1.816,1.816,0,0,0-1.245.335,1.77,1.77,0,0,0-.7,1.082q-.654.075-1.3.165Zm.926-6.737.022.031a5.343,5.343,0,0,0,.165.571,5.816,5.816,0,0,0,2.475,3.062,5.822,5.822,0,0,1-2.473-3.063c-.07-.205-.135-.4-.189-.6ZM15.1,11.089l2.674,3.68a5.324,5.324,0,0,0-1.935.656L15.2,14.54a2.091,2.091,0,0,0,.124-2.264c-.332-.456-.34-.375-.551-.5l.331-.685Zm8.868,12.206.008.011-.127.16.119-.172-.119.172.127-.16h0l-.125.157.117-.169ZM20.359,26l-.189.073L20.359,26l-.2.06.2-.06ZM6.068,6.668A6.377,6.377,0,0,1,9.4,7.252,6.372,6.372,0,0,1,9.877,3.9,6.372,6.372,0,0,0,9.4,7.252a6.377,6.377,0,0,0-3.332-.583Zm8.484,3.667c-.19.39-.376.786-.563,1.184a1.8,1.8,0,0,0-1.244.334,1.782,1.782,0,0,0-.7,1.083q-.654.075-1.3.165.648-.089,1.3-.165a1.782,1.782,0,0,1,.7-1.083,1.8,1.8,0,0,1,1.244-.334c.186-.4.372-.794.563-1.184Zm3.222,4.434a5.324,5.324,0,0,0-1.934.657l-.642-.884a2.1,2.1,0,0,0,.122-2.267c-.332-.457-.34-.375-.551-.5l.331-.685-.331.685c.211.127.218.045.551.5a2.1,2.1,0,0,1-.122,2.267l.642.884A5.324,5.324,0,0,1,17.774,14.769Zm.916,1.261a5.378,5.378,0,0,0,.368-.73,5.445,5.445,0,0,1,.916.126,5.858,5.858,0,0,1,.9.286,7.319,7.319,0,0,1-1.055,1.867L18.69,16.03Zm5.287,7.277h0a7.107,7.107,0,0,0,1.311-2.613h0a7.1,7.1,0,0,1-1.311,2.613Zm0,0a7.107,7.107,0,0,0,1.311-2.613l-.357-.491a5.242,5.242,0,0,1-.963,3.092l.008.011Zm-6.2-8.538a6.743,6.743,0,0,1,3.592.527l-3.15-4.335a6.73,6.73,0,0,1-2.844-.419l-.272.548,2.674,3.68Zm-3.221-4.433-.223-.307c.094.059.192.115.292.168l-.069.139ZM11.69,6.4l-.022-.031a4.318,4.318,0,0,1,.471-3.529l.077-.134-.738-1.015a6.294,6.294,0,0,0-1.444,1.877c-.056.114-.109.226-.157.336.048-.11.1-.223.157-.336a6.294,6.294,0,0,1,1.444-1.877l-.008-.011a6.373,6.373,0,0,0-1.437,1.888c-.054.113-.107.227-.153.341l1.787,2.459a4.318,4.318,0,0,1,.471-3.529l.077-.134-.077.134A5.185,5.185,0,0,0,11.69,6.4Zm3.119-.125,1.713,2.357a6.081,6.081,0,0,0-3.429-.709,4.952,4.952,0,0,1-.572-1.169,4.075,4.075,0,0,1-.14-.491,7.831,7.831,0,0,1,2.428.012Zm-.479,3.758c.094.059.192.115.292.168l-.069.139.069-.139c-.1-.053-.2-.108-.292-.168Zm1.041.513a6.737,6.737,0,0,0,2.846.418,6.737,6.737,0,0,1-2.846-.418l-.271.547.271-.547Zm8.6,12.752a5.24,5.24,0,0,0,.964-3.091,5.24,5.24,0,0,1-.964,3.091Zm-2.6-8a6.748,6.748,0,0,0-3.592-.526A6.748,6.748,0,0,1,21.366,15.3Zm3.923,5.4h0a6.638,6.638,0,0,0,.207-1.262A6.762,6.762,0,0,0,24.222,15.2a7.632,7.632,0,0,0-3.028-2.5,7.276,7.276,0,0,0,2.769-2.412A5.414,5.414,0,0,0,24.9,6.353a6.858,6.858,0,0,0-2.269-3.816,4.694,4.694,0,0,1,.695,5.8A5.717,5.717,0,0,1,19.8,10.688a7.648,7.648,0,0,1-1.589.272l3.15,4.335a6,6,0,0,1,2.452,1.9,5.371,5.371,0,0,1,1.113,3l.357.491a6.638,6.638,0,0,0,.207-1.262A6.762,6.762,0,0,0,24.222,15.2a7.632,7.632,0,0,0-3.028-2.5,7.276,7.276,0,0,0,2.769-2.412A5.414,5.414,0,0,0,24.9,6.353a6.858,6.858,0,0,0-2.269-3.816,4.694,4.694,0,0,1,.695,5.8A5.717,5.717,0,0,1,19.8,10.688a7.648,7.648,0,0,1-1.589.272,7.648,7.648,0,0,0,1.589-.272,6.261,6.261,0,0,0,3.515-2.35c1.341-1.766,1-4.037-.691-5.8A6.858,6.858,0,0,1,24.9,6.353a5.092,5.092,0,0,1-.935,3.935A7.39,7.39,0,0,1,21.194,12.7a7.624,7.624,0,0,1,3.027,2.5,6.773,6.773,0,0,1,1.274,4.233,6.646,6.646,0,0,1-.206,1.263ZM16.521,8.627,14.809,6.27a8.023,8.023,0,0,1,1.8.511,10.306,10.306,0,0,1,3.432,2.68c.48.66.167.235.244.354a6,6,0,0,1-.725.251,6.711,6.711,0,0,1-1.121.217,5.793,5.793,0,0,0-1.918-1.656ZM12.216,2.7l-.738-1.015A6.407,6.407,0,0,1,13.4.49a8.31,8.31,0,0,1,4.91-.228A6.309,6.309,0,0,0,12.216,2.7Zm-.738-1.015-.008-.011A6.341,6.341,0,0,1,13.4.49,8.333,8.333,0,0,1,18.31.26,5.844,5.844,0,0,0,12.216,2.7,6.309,6.309,0,0,1,18.307.262,8.31,8.31,0,0,0,13.4.49a6.407,6.407,0,0,0-1.919,1.2ZM24.931,20.2a5.371,5.371,0,0,0-1.113-3,6,6,0,0,0-2.452-1.9,6,6,0,0,1,2.452,1.9A5.371,5.371,0,0,1,24.931,20.2Z" transform="translate(31.107 32.851)" fill="#b42218" fill-rule="evenodd"/>
      </g>
      <path id="Trazado_150368" data-name="Trazado 150368" d="M-319.049,311.571c.321,1.733,2.871,2.651,4.323,3.505,1.639.966,1.108,3.991,3.623,4.961,2.417.932-1.538-7.413-2.128-8.551-.475-.915-2.79-3.618-4.1-3.17C-319.6,309.1-319,310.158-319.049,311.571Z" transform="translate(458.938 -197.628)" fill="#575756" fill-rule="evenodd"/>
    </g>
  </g>
</svg>
