<svg id="num3" xmlns="http://www.w3.org/2000/svg" width="87.882" height="87.882" viewBox="0 0 87.882 87.882">
  <g id="Grupo_18423" data-name="Grupo 18423" transform="translate(0 0)">
    <g id="Grupo_18421" data-name="Grupo 18421">
      <g id="Grupo_18420" data-name="Grupo 18420">
        <g id="Grupo_18419" data-name="Grupo 18419">
          <path id="Trazado_40936" data-name="Trazado 40936" d="M282.5,2189.661a43.941,43.941,0,1,1-43.94-43.939A43.94,43.94,0,0,1,282.5,2189.661Z" transform="translate(-194.623 -2145.721)" fill="#fff"/>
        </g>
      </g>
    </g>
    <path id="Trazado_40938" data-name="Trazado 40938" d="M269.512,2187.06a33.54,33.54,0,1,0-33.54,33.54A33.415,33.415,0,0,0,269.512,2187.06Z" transform="translate(-191.898 -2142.974)" fill="none" stroke="#1d272b" stroke-miterlimit="10" stroke-width="4"/>
    <g id="Grupo_18422" data-name="Grupo 18422" transform="translate(7.785 24.67)">
      <path id="Trazado_40939" data-name="Trazado 40939" d="M276.2,2164.488a43.946,43.946,0,0,1-75.654,43.759,43.807,43.807,0,0,0,75.654-43.759Z" transform="translate(-200.545 -2164.488)" fill="#eceef0"/>
    </g>
  </g>
  <path id="Trazado_165473" data-name="Trazado 165473" d="M6.333-13.793H8.814a3.5,3.5,0,0,0,2.626-.886,3.247,3.247,0,0,0,.854-2.353,2.871,2.871,0,0,0-.846-2.208,3.278,3.278,0,0,0-2.328-.79,3.436,3.436,0,0,0-2.24.733,2.344,2.344,0,0,0-.9,1.909H1.321a5.727,5.727,0,0,1,.991-3.3,6.6,6.6,0,0,1,2.771-2.28,9.25,9.25,0,0,1,3.924-.822A8.772,8.772,0,0,1,14.84-22,6.075,6.075,0,0,1,16.951-17.1a4.937,4.937,0,0,1-.983,2.965,6.386,6.386,0,0,1-2.578,2.079,5.829,5.829,0,0,1,2.957,2.127,5.77,5.77,0,0,1,.975,3.352,6.176,6.176,0,0,1-2.28,5.011A9.167,9.167,0,0,1,9.007.322,8.692,8.692,0,0,1,3.263-1.531a6.052,6.052,0,0,1-2.232-4.9H5.688A2.7,2.7,0,0,0,6.679-4.27a3.652,3.652,0,0,0,2.441.838,3.669,3.669,0,0,0,2.6-.878,3.031,3.031,0,0,0,.943-2.328q0-3.513-3.867-3.513H6.333Z" transform="translate(34.587 57.429)" fill="#12263f"/>
</svg>
