<svg id="num4" xmlns="http://www.w3.org/2000/svg" width="87.882" height="87.882" viewBox="0 0 87.882 87.882">
  <g id="Grupo_18423" data-name="Grupo 18423" transform="translate(0 0)">
    <g id="Grupo_18421" data-name="Grupo 18421">
      <g id="Grupo_18420" data-name="Grupo 18420">
        <g id="Grupo_18419" data-name="Grupo 18419">
          <path id="Trazado_40936" data-name="Trazado 40936" d="M282.5,2189.661a43.941,43.941,0,1,1-43.94-43.939A43.94,43.94,0,0,1,282.5,2189.661Z" transform="translate(-194.623 -2145.721)" fill="#fff"/>
        </g>
      </g>
    </g>
    <path id="Trazado_40938" data-name="Trazado 40938" d="M269.512,2187.06a33.54,33.54,0,1,0-33.54,33.54A33.415,33.415,0,0,0,269.512,2187.06Z" transform="translate(-191.898 -2142.974)" fill="none" stroke="#1d272b" stroke-miterlimit="10" stroke-width="4"/>
    <g id="Grupo_18422" data-name="Grupo 18422" transform="translate(7.785 24.67)">
      <path id="Trazado_40939" data-name="Trazado 40939" d="M276.2,2164.488a43.946,43.946,0,0,1-75.654,43.759,43.807,43.807,0,0,0,75.654-43.759Z" transform="translate(-200.545 -2164.488)" fill="#eceef0"/>
    </g>
  </g>
  <path id="Trazado_165474" data-name="Trazado 165474" d="M15.372-8.83h2.659v3.754H15.372V0H10.715V-5.076H1.1L.886-8.008l9.781-15.453h4.705Zm-9.845,0h5.188v-8.282l-.306.532Z" transform="translate(34.587 57.429)" fill="#12263f"/>
</svg>
