<svg xmlns="http://www.w3.org/2000/svg" xmlns:xlink="http://www.w3.org/1999/xlink" width="1328" height="1370" viewBox="0 0 1328 1370">
  <defs>
    <clipPath id="clip-path">
      <rect id="Rectángulo_35482" data-name="Rectángulo 35482" width="1328" height="1370" transform="translate(116 3314)" fill="#b0c0d2" stroke="#707070" stroke-width="1"/>
    </clipPath>
  </defs>
  <g id="fondo2" transform="translate(-116 -3314)" opacity="0.554" clip-path="url(#clip-path)">
    <path id="Trazado_165287" data-name="Trazado 165287" d="M-56.113,349.371C-14.8,432.14,62.118,486.522,148.155,512.217c102,30.465,200.157,14.216,302.5-1.954,94.363-14.911,199.313-19.064,278.931,44.107,123.582,98.054,135.386,288.019,248.542,397.939,55.984,54.379,132.214,86.067,209.155,86.937,85.066.966,192.713-37.173,236.217-118.024,42.246-78.507-.566-156.682,14.434-237.05,29.339-157.186,240.057-147.845,341.87-225.866,48.646-37.281,81.383-92.9,103.812-150.932,24.892-64.406,38.449-136.154,21.6-203.266C1877.305-7.064,1772.467-48.676,1670.367-52.672,1594.5-55.641,1519.072-35.526,1449.4-4.452c-61.623,27.484-119.583,63.542-182.607,87.414-155.642,58.948-308.963-16.276-443.25-97.157C651.156-118.023,473.117-218.116,267.01-182.4,109.518-155.1-53.926-55.3-84.837,118.187-97.913,191.578-91.85,269.408-61.8,337.3Q-59.077,343.433-56.113,349.371Z" transform="translate(132.278 3534.751)" fill="#b0c0d2" opacity="0.118"/>
  </g>
</svg>
