<svg xmlns="http://www.w3.org/2000/svg" xmlns:xlink="http://www.w3.org/1999/xlink" width="222.94" height="222.945" viewBox="0 0 222.94 222.945">
  <defs>
    <radialGradient id="radial-gradient" cx="0.076" cy="0.019" r="1.465" gradientTransform="translate(0)" gradientUnits="objectBoundingBox">
      <stop offset="0" stop-color="#f6f6f7"/>
      <stop offset="0.477" stop-color="#f9f9fa"/>
      <stop offset="0.715" stop-color="#fff"/>
    </radialGradient>
  </defs>
  <g id="icon17" transform="translate(-701.749 -761.795)">
    <g id="Grupo_91009" data-name="Grupo 91009" transform="translate(701.749 761.795)">
      <g id="Grupo_42274" data-name="Grupo 42274" transform="translate(0 0)">
        <g id="Grupo_18423" data-name="Grupo 18423" transform="translate(0 0)">
          <g id="Grupo_18421" data-name="Grupo 18421">
            <g id="Grupo_18420" data-name="Grupo 18420">
              <g id="Grupo_18419" data-name="Grupo 18419">
                <path id="Trazado_40936" data-name="Trazado 40936" d="M417.562,2257.189a111.47,111.47,0,1,1-111.468-111.468A111.468,111.468,0,0,1,417.562,2257.189Z" transform="translate(-194.623 -2145.721)" fill="#fff"/>
              </g>
            </g>
          </g>
          <path id="Trazado_40937" data-name="Trazado 40937" d="M415.569,2255.017A111.467,111.467,0,1,0,304.1,2366.492,111.031,111.031,0,0,0,415.569,2255.017Z" transform="translate(-192.629 -2143.547)" fill="url(#radial-gradient)"/>
          <path id="Trazado_40938" data-name="Trazado 40938" d="M389.579,2246.181a94.349,94.349,0,1,0-94.349,94.35A94.011,94.011,0,0,0,389.579,2246.181Z" transform="translate(-183.54 -2134.468)" fill="none" stroke="#1d272b" stroke-miterlimit="10" stroke-width="5"/>
          <g id="Grupo_18422" data-name="Grupo 18422" transform="translate(19.748 62.583)">
            <path id="Trazado_40939" data-name="Trazado 40939" d="M392.465,2164.488A111.483,111.483,0,0,1,200.545,2275.5a111.8,111.8,0,0,0,11.094,14.849,111.485,111.485,0,0,0,180.826-125.859Z" transform="translate(-200.545 -2164.488)" fill="#eceef0"/>
          </g>
          <g id="ITJmF2.tif" transform="translate(-1702.486 397.237)">
            <g id="Grupo_127423" data-name="Grupo 127423" transform="translate(1744.004 -333.899)">
              <path id="Trazado_163301" data-name="Trazado 163301" d="M1751.109-308.693c0-3.328-.317-6.461.063-9.508.951-7.621,6.516-13.442,14.128-15.237a18.053,18.053,0,0,1,19.006,7.528,7.279,7.279,0,0,0,6.773,3.544,28.886,28.886,0,0,0,12.594-2.57,22.807,22.807,0,0,1,16.88-1.011,34.659,34.659,0,0,0,12.019,1.18,13.926,13.926,0,0,0,3.278-.926c3.686-1.113,7.31-2.534,11.069-3.275,5.709-1.126,10.942.475,15.627,3.883.692.5,1.377,1.017,2.2,1.622.61-.889,1.191-1.738,1.776-2.585a6.793,6.793,0,0,1,7.832-2.93,6.889,6.889,0,0,1,4.712,6.784c.014,4.431,0,8.862,0,13.5,1.43,0,2.791-.014,4.152,0,1.869.024,2.7.842,2.71,2.714.018,2.862.029,5.723,0,8.585a6.845,6.845,0,0,1-7.093,7.01c-2.813.025-5.626.011-8.439.018a3.761,3.761,0,0,0-.483.1v1.461q0,19.1-.025,38.2a2.881,2.881,0,0,0,1.016,2.326,11.381,11.381,0,0,1,.2,16.388,11.436,11.436,0,0,1-16.3-.185,11.353,11.353,0,0,1,.468-16.272,2.67,2.67,0,0,0,.92-2.222c-.043-3.283-.017-6.568-.017-9.947h-82.4c0,3.627-.04,7.236.047,10.842.011.484.6,1.01,1.02,1.419a11.437,11.437,0,0,1,2.666,12.518,11.448,11.448,0,0,1-10.45,7.175,11.515,11.515,0,0,1-10.708-7.016,11.274,11.274,0,0,1,2.629-12.623,3.15,3.15,0,0,0,1.077-2.587q-.048-18.886-.02-37.772v-1.816c-2.887,0-5.639,0-8.391,0-4.827-.006-7.623-2.8-7.632-7.628q-.007-3.72,0-7.44c0-2.558.677-3.243,3.186-3.25C1748.373-308.7,1749.553-308.693,1751.109-308.693Zm59.441-13.69a35.1,35.1,0,0,0-5.116,1.666c-4.512,2.27-9.255,2.922-14.253,2.933-4.662.01-8.04-1.614-10.67-5.56a13.67,13.67,0,0,0-21.348-1.57c-4.467,4.7-3.74,10.459-3.648,16.118h118.969c0-4.63.006-9.155,0-13.68a2.1,2.1,0,0,0-1.576-2.139,2.084,2.084,0,0,0-2.47.969c-.837,1.217-1.65,2.451-2.47,3.679-1.742,2.607-2.5,2.676-5.036.924-2.417-1.668-4.917-3.23-7.471-4.68a14.82,14.82,0,0,0-3.438-.918,7.635,7.635,0,0,0,4.855,4.652l-1.419,4.272c-4.421-1.429-6.975-4.44-8.245-8.8-.99.278-1.907.5-2.8.793-3.209,1.057-6.407,2.148-9.616,3.206a5.882,5.882,0,0,1-1.661.362c-4.818.108-9.624.137-14.264-1.531a22.373,22.373,0,0,0-3.376-.652c.817,2.287,1.448,2.9,4.717,4.76l-1.4,4.163C1814.418-314.894,1811.854-317.843,1810.549-322.383Zm45.508,47.984v-15.888h-48.781a7.263,7.263,0,0,1,.789,2.117c.083,3.05.062,6.1.022,9.155a2.2,2.2,0,0,1-2.323,2.361q-6.794.055-13.588,0a2.233,2.233,0,0,1-2.376-2.458c-.037-2.05-.072-4.1.008-6.151.066-1.691.3-3.376.456-5.042h-16.412v15.9Zm25.291-29.623h-80.112c0,1.892-.053,3.7.016,5.5.061,1.59,2.284,3.571,3.878,3.571h64.762c2.955,0,5.909.014,8.864-.007,1.572-.011,2.537-.819,2.576-2.256C1881.393-299.448,1881.349-301.684,1881.349-304.023Zm-84.694,0h-48.068c0,1.992,0,3.891,0,5.79,0,2.615.657,3.273,3.3,3.273q20.435,0,40.87,0c1.6,0,3.824-1.973,3.887-3.557C1796.709-300.312,1796.655-302.118,1796.655-304.018Zm-22.819,38.735h82.226V-269.7h-82.226Zm-4.751,13.913v-38.935h-4.375v38.935Zm96.148,0v-38.887h-4.385v38.887Zm-91.472,11.4a6.882,6.882,0,0,0-6.76-6.895,6.887,6.887,0,0,0-6.965,6.833,6.894,6.894,0,0,0,6.76,6.9A6.892,6.892,0,0,0,1773.76-239.974Zm96.143.025a6.879,6.879,0,0,0-6.736-6.917,6.878,6.878,0,0,0-6.986,6.807,6.89,6.89,0,0,0,6.734,6.921A6.888,6.888,0,0,0,1869.9-239.949Zm-66.379-41.34c0-1.666.018-3.232-.01-4.8a2.88,2.88,0,0,0-.239-1.5c-1.358-1.935-2.805-3.807-4.327-5.843-1.541,2.062-2.964,3.958-4.37,5.866a1.2,1.2,0,0,0-.2.66c-.016,1.847-.009,3.7-.009,5.613Z" transform="translate(-1744.004 333.899)" fill="#008f85"/>
              <path id="Trazado_163302" data-name="Trazado 163302" d="M1838.951-310.959c1.3,4.54,3.868,7.49,8.263,8.967l1.4-4.163c-3.27-1.855-3.9-2.473-4.717-4.76a22.366,22.366,0,0,1,3.376.652c4.64,1.668,9.446,1.64,14.264,1.531a5.879,5.879,0,0,0,1.661-.362c3.209-1.058,6.407-2.148,9.616-3.205.894-.294,1.811-.515,2.8-.793,1.27,4.36,3.824,7.371,8.245,8.8l1.419-4.272a7.634,7.634,0,0,1-4.854-4.652,14.823,14.823,0,0,1,3.438.918c2.554,1.45,5.054,3.012,7.471,4.68,2.539,1.752,3.294,1.683,5.036-.924.821-1.228,1.633-2.462,2.47-3.679a2.084,2.084,0,0,1,2.47-.969,2.1,2.1,0,0,1,1.576,2.139c.01,4.525,0,9.05,0,13.68H1783.917c-.093-5.659-.819-11.422,3.647-16.118a13.67,13.67,0,0,1,21.348,1.57c2.629,3.946,6.007,5.571,10.67,5.56,5-.011,9.741-.663,14.253-2.933A35.1,35.1,0,0,1,1838.951-310.959Z" transform="translate(-1772.406 322.475)" fill="#1d272b"/>
              <path id="Trazado_163303" data-name="Trazado 163303" d="M1928.872-180.568h-9.152c0-1.918-.007-3.765.009-5.613a1.193,1.193,0,0,1,.2-.66c1.405-1.909,2.829-3.8,4.37-5.866,1.522,2.035,2.969,3.907,4.327,5.843a2.881,2.881,0,0,1,.239,1.5C1928.89-183.8,1928.872-182.234,1928.872-180.568Z" transform="translate(-1869.352 233.178)" fill="#1d272b"/>
            </g>
          </g>
        </g>
      </g>
    </g>
  </g>
</svg>
