<svg id="icon12" xmlns="http://www.w3.org/2000/svg" xmlns:xlink="http://www.w3.org/1999/xlink" width="114.636" height="114.636" viewBox="0 0 114.636 114.636">
  <defs>
    <radialGradient id="radial-gradient" cx="0.076" cy="0.019" r="1.465" gradientTransform="translate(0.001)" gradientUnits="objectBoundingBox">
      <stop offset="0" stop-color="#f6f6f7"/>
      <stop offset="0.477" stop-color="#f9f9fa"/>
      <stop offset="0.715" stop-color="#fff"/>
    </radialGradient>
  </defs>
  <g id="Grupo_18423" data-name="Grupo 18423" transform="translate(0 0)">
    <g id="Grupo_18421" data-name="Grupo 18421">
      <g id="Grupo_18420" data-name="Grupo 18420">
        <g id="Grupo_18419" data-name="Grupo 18419">
          <path id="Trazado_40936" data-name="Trazado 40936" d="M309.259,2203.037a57.318,57.318,0,1,1-57.317-57.316A57.317,57.317,0,0,1,309.259,2203.037Z" transform="translate(-194.623 -2145.721)" fill="#fff"/>
        </g>
      </g>
    </g>
    <path id="Trazado_40937" data-name="Trazado 40937" d="M308.648,2202.372a57.316,57.316,0,1,0-57.317,57.319A57.091,57.091,0,0,0,308.648,2202.372Z" transform="translate(-194.013 -2145.056)" fill="url(#radial-gradient)"/>
    <path id="Trazado_40938" data-name="Trazado 40938" d="M289.672,2196.986a43.75,43.75,0,1,0-43.75,43.75A43.587,43.587,0,0,0,289.672,2196.986Z" transform="translate(-188.43 -2139.479)" fill="none" stroke="#1d272b" stroke-miterlimit="10" stroke-width="4"/>
    <g id="Grupo_18422" data-name="Grupo 18422" transform="translate(10.154 32.18)">
      <path id="Trazado_40939" data-name="Trazado 40939" d="M299.231,2164.488a57.325,57.325,0,0,1-98.686,57.081,57.143,57.143,0,0,0,98.686-57.081Z" transform="translate(-200.545 -2164.488)" fill="#eceef0"/>
    </g>
  </g>
  <g id="sLAdiF" transform="translate(-3443.469 -476.463)">
    <g id="Grupo_128287" data-name="Grupo 128287" transform="translate(3484.915 505.443)">
      <path id="Trazado_165281" data-name="Trazado 165281" d="M3517.976,558.211h-33.061V520.237h5.47v-.665q0-3.938,0-7.877a6,6,0,0,1,6.23-6.247q4.811-.009,9.621,0a6,6,0,0,1,6.271,6.262c.006,2.607,0,5.214,0,7.821v.678h5.466Zm-32.323-3.553h31.566V521.776h-.675q-4.219,0-8.439-.005c-.191,0-.459-.016-.56-.135-.355-.421-.653-.89-1.039-1.434h4.842v-.636q0-3.91,0-7.82a4.871,4.871,0,0,0-5.164-5.141q-4.782-.006-9.564,0a4.872,4.872,0,0,0-5.075,5.061c-.006,2.663,0,5.326,0,7.989v.513a1.694,1.694,0,0,0,1.611-.416,4.742,4.742,0,0,1,5.1-.843,1.4,1.4,0,0,0,1.064.012,6.55,6.55,0,0,1,8.655,4.976,23.962,23.962,0,0,1,.141,3.194,1.113,1.113,0,0,0,.075.482,5.015,5.015,0,0,0,.5.627h1.192l.707-.864V525.87h.864c0,.476-.006.921,0,1.367a.617.617,0,0,0,.09.357,6.219,6.219,0,0,0,.533.518l-.083.147h2.993v.819h-11.374v-.846h3.017c.025-.2,0-.438.069-.476.588-.306.305-.835.343-1.268a13.771,13.771,0,0,0,.007-1.406,5.146,5.146,0,0,0-.927-2.959.9.9,0,0,0-.622-.331c-1.2-.032-2.4-.009-3.6-.023a.639.639,0,0,1-.471-.17c-.265-.419-.476-.873-.74-1.377h3.219a4.73,4.73,0,0,0-3.881-.353c.4.759.778,1.521,1.2,2.263a.689.689,0,0,0,.457.277,2.5,2.5,0,1,1-2.416,3.683,2.453,2.453,0,0,1,.641-3.138.525.525,0,0,0,.224-.7c-.127-.345-.282-.518-.682-.491-.566.039-1.137.01-1.705.01l-.043-.134,1.228-1.075-.061-.138a1.808,1.808,0,0,0-.48.162,5.09,5.09,0,0,0-2.222,3.2,8.015,8.015,0,0,0,.151,4.483h2.987v.8h-11.371v-.836h2.948a3.447,3.447,0,0,0,.464-1.026c.111-1.8-.178-3.619.292-5.409h-5.975Zm7.731-32.9a2.475,2.475,0,0,1,2.292-1.534,7.4,7.4,0,0,0,1.067-.013,3.851,3.851,0,0,0,.785-.291,3.755,3.755,0,0,0-5.055,3.424c-.013,1.611-.437,3.286.4,4.865h1.324l.576-.729c.166-1.876-.129-3.872,1.075-5.722Z" transform="translate(-3484.915 -505.443)" fill="#1d272b"/>
      <path id="Trazado_165282" data-name="Trazado 165282" d="M3494.056,985.429a2.286,2.286,0,1,1,2.271-2.3A2.268,2.268,0,0,1,3494.056,985.429Z" transform="translate(-3490.993 -927.352)" fill="#1d272b"/>
      <path id="Trazado_165283" data-name="Trazado 165283" d="M3735.864,983.15a2.282,2.282,0,1,1-2.258-2.31A2.272,2.272,0,0,1,3735.864,983.15Z" transform="translate(-3703.571 -927.337)" fill="#1d272b"/>
      <path id="Trazado_165284" data-name="Trazado 165284" d="M3500.725,719.545c-.192-.066-.369-.078-.464-.172a.671.671,0,0,1-.229-.457c.019-.146.2-.291.334-.393.076-.057.217-.033.329-.033,2.982,0,5.963-.009,8.945.016.217,0,.432.25.648.384a6.308,6.308,0,0,1-.384.541c-.05.059-.172.056-.29.09a15.7,15.7,0,0,0,.029,2.124,1.911,1.911,0,0,0,.618.944c.371.365.844.625,1.222.983a3.146,3.146,0,0,1,.876,2.5c-.033,2.794-.009,5.588-.008,8.382q0,3.713,0,7.426c0,.865-.275,1.132-1.152,1.132q-6.048,0-12.1,0c-.891,0-1.173-.285-1.173-1.182q0-7.651,0-15.3a11.718,11.718,0,0,1,.018-1.287,3.1,3.1,0,0,1,1.68-2.329,2.171,2.171,0,0,0,1.1-2.316C3500.7,720.266,3500.725,719.927,3500.725,719.545Z" transform="translate(-3496.458 -694.509)" fill="#1d272b"/>
      <path id="Trazado_165285" data-name="Trazado 165285" d="M3639.933,719.486c-.163-.057-.339-.07-.432-.164a.672.672,0,0,1-.225-.459c.021-.146.2-.289.34-.391.077-.056.217-.029.329-.029q4.444,0,8.887,0c.094,0,.213-.031.276.014.155.111.393.254.4.392.006.171-.163.472-.3.5-.392.081-.41.315-.392.615a1.925,1.925,0,0,1,0,.393,2.47,2.47,0,0,0,1.344,2.7,3.032,3.032,0,0,1,1.458,2.806q0,8.016,0,16.031c0,.75-.317,1.068-1.058,1.068q-6.16.005-12.319,0c-.767,0-1.041-.3-1.041-1.125q0-7.65,0-15.3a4.816,4.816,0,0,0-.018-.5,3.01,3.01,0,0,1,1.292-2.877,4.859,4.859,0,0,0,.777-.547,2.407,2.407,0,0,0,.658-1.053A13.51,13.51,0,0,0,3639.933,719.486Z" transform="translate(-3620.021 -694.461)" fill="#1d272b"/>
    </g>
  </g>
</svg>
