<svg id="icon2" xmlns="http://www.w3.org/2000/svg" xmlns:xlink="http://www.w3.org/1999/xlink" width="114.636" height="114.636" viewBox="0 0 114.636 114.636">
  <defs>
    <radialGradient id="radial-gradient" cx="0.076" cy="0.019" r="1.465" gradientTransform="translate(0.001)" gradientUnits="objectBoundingBox">
      <stop offset="0" stop-color="#f6f6f7"/>
      <stop offset="0.477" stop-color="#f9f9fa"/>
      <stop offset="0.715" stop-color="#fff"/>
    </radialGradient>
  </defs>
  <g id="Grupo_18423" data-name="Grupo 18423" transform="translate(0 0)">
    <g id="Grupo_18421" data-name="Grupo 18421">
      <g id="Grupo_18420" data-name="Grupo 18420">
        <g id="Grupo_18419" data-name="Grupo 18419">
          <path id="Trazado_40936" data-name="Trazado 40936" d="M309.259,2203.037a57.318,57.318,0,1,1-57.317-57.316A57.317,57.317,0,0,1,309.259,2203.037Z" transform="translate(-194.623 -2145.721)" fill="#fff"/>
        </g>
      </g>
    </g>
    <path id="Trazado_40937" data-name="Trazado 40937" d="M308.648,2202.372a57.316,57.316,0,1,0-57.317,57.319A57.091,57.091,0,0,0,308.648,2202.372Z" transform="translate(-194.013 -2145.056)" fill="url(#radial-gradient)"/>
    <path id="Trazado_40938" data-name="Trazado 40938" d="M289.672,2196.986a43.75,43.75,0,1,0-43.75,43.75A43.587,43.587,0,0,0,289.672,2196.986Z" transform="translate(-188.43 -2139.479)" fill="none" stroke="#1d272b" stroke-miterlimit="10" stroke-width="4"/>
    <g id="Grupo_18422" data-name="Grupo 18422" transform="translate(10.154 32.18)">
      <path id="Trazado_40939" data-name="Trazado 40939" d="M299.231,2164.488a57.325,57.325,0,0,1-98.686,57.081,57.143,57.143,0,0,0,98.686-57.081Z" transform="translate(-200.545 -2164.488)" fill="#eceef0"/>
    </g>
  </g>
  <g id="_064hSz.tif" data-name="064hSz.tif" transform="translate(-1068.156 49.306)">
    <g id="Grupo_127938" data-name="Grupo 127938" transform="translate(1094.798 -23.723)">
      <path id="Trazado_164083" data-name="Trazado 164083" d="M1150.86,38.282h-50.121a2.591,2.591,0,0,1-1.682-2.762c.037-3.551-.021-7.1.032-10.655a5.645,5.645,0,0,0-.865-3.429,10.288,10.288,0,0,1-.813-1.684,30.792,30.792,0,0,1-2.317-16.726,30.761,30.761,0,0,1,3.7-10.979,2.288,2.288,0,0,0,.255-1.026c.032-1.271,0-2.543.023-3.814a2.188,2.188,0,0,1,2.354-2.337,13.329,13.329,0,0,1,1.633.009,2.714,2.714,0,0,0,2.3-.877,26.516,26.516,0,0,1,5.411-3.842c.728-.4,1.445-.071,1.482.658.025.5-.289.749-.662.991-1.248.812-2.488,1.639-3.725,2.468-.217.145-.405.331-.682.561h37.227c-.62-.479-1.125-.9-1.661-1.281A28.891,28.891,0,0,0,1130-21.562a28.6,28.6,0,0,0-10.563.408c-1.329.3-2.629.74-3.941,1.121a.866.866,0,0,1-1.131-.535.879.879,0,0,1,.49-1.155,3.677,3.677,0,0,1,.451-.171,30.811,30.811,0,0,1,15.892-1.347,30.173,30.173,0,0,1,15.311,7.482,2.053,2.053,0,0,0,1.661.635c.621-.053,1.25-.01,1.875,0a2.233,2.233,0,0,1,2.483,2.517c.006,1.15-.024,2.3.022,3.45a3.07,3.07,0,0,0,.326,1.308,30.531,30.531,0,0,1,3.455,9.866c.164,1.029.308,2.061.461,3.092V9.463c-.09.7-.168,1.393-.272,2.086a31.538,31.538,0,0,1-3.68,10.919,2.43,2.43,0,0,0-.292,1.135c-.021,3.953-.036,7.907,0,11.86A2.627,2.627,0,0,1,1150.86,38.282ZM1110.932,32.5c.163-.468.257-.794.387-1.1,2.139-5.1,4.24-10.217,6.449-15.287a10.682,10.682,0,0,0,1.073-5.241,15.936,15.936,0,0,1,.029-2.116.845.845,0,0,1,.891-.872.819.819,0,0,1,.893.792,4.63,4.63,0,0,1,.051.781q-.04,12.53-.086,25.061a4.985,4.985,0,0,0,.014.665.946.946,0,0,0,.923.869.882.882,0,0,0,.843-.928q.184-4.2.353-8.4c.118-2.922.226-5.844.349-8.765.033-.778.361-1.1,1.12-1.115q1.573-.024,3.147,0c.763.009,1.1.333,1.132,1.1q.18,3.9.34,7.8c.124,3.083.234,6.166.355,9.25.027.681.374,1.077.9,1.06s.872-.444.883-1.1.005-1.332,0-2q-.059-15.406-.119-30.811c0-.845.28-1.205,1.024-1.279q3.725-.369,7.453-.723,4.689-.444,9.379-.876c.421-.039.845-.061,1.261-.131.356-.06.665-.22.636-.665s-.32-.572-.7-.595c-.181-.011-.363,0-.545,0q-10.138,0-20.275.006a2.589,2.589,0,0,1-2.055-.831c-1.073-1.2-.8-2.758.679-3.827a3.446,3.446,0,0,0,1.581-3.078,3.372,3.372,0,0,0-2.115-3.116,3.435,3.435,0,0,0-3.85.729,3.413,3.413,0,0,0-.815,3.728,4.331,4.331,0,0,0,1.687,1.991,2.284,2.284,0,0,1,.931,2.391,2.414,2.414,0,0,1-2.562,2.006q-10.349,0-20.7,0c-.426,0-.844.04-.885.587-.039.515.347.645.747.684q5.048.5,10.1.978c2.625.251,5.25.493,7.875.746.63.061,1,.378,1.015.913.022.988.023,1.978-.01,2.966a.911.911,0,0,1-.924.985c-.573-.015-.9-.379-.911-1.047s0-1.319,0-1.975a2.3,2.3,0,0,0-.345-.1c-5.851-.566-11.7-1.13-17.6-1.7-.012.19-.032.365-.032.54q0,10.321.017,20.642a1.676,1.676,0,0,0,.26.836,27.417,27.417,0,0,0,5.88,6.7C1108.287,30.626,1109.6,31.519,1110.932,32.5ZM1132.7,2.644c0,.2,0,.3,0,.4.026,3.389.047,6.779.087,10.168a2.4,2.4,0,0,0,.21.867q2.76,6.595,5.536,13.182c.712,1.695,1.417,3.393,2.136,5.113.179-.106.353-.2.522-.31A28.986,28.986,0,0,0,1150.361,23a2.1,2.1,0,0,0,.319-1.058c.025-2.966.013-5.931.016-8.9,0-.241-.056-.537.059-.711.18-.273.475-.632.738-.646a1.354,1.354,0,0,1,.9.5c.154.176.128.536.13.814.009,1.715,0,3.43,0,5.145,0,.167.021.334.037.57,3.09-5.1,3.067-18.8-.038-22.857v.713q0,5.72,0,11.439a1.659,1.659,0,0,1-.121.879,1.174,1.174,0,0,1-.821.527,1.477,1.477,0,0,1-.82-.629c-.122-.16-.062-.468-.062-.709q-.005-3.268,0-6.537V.9Zm-27.774-15.7c.153.094.251.162.356.216q8.449,4.357,16.9,8.71c.123.063.282.168.385.134a1.248,1.248,0,0,0,.674-.375c.089-.151-.045-.47-.145-.685-.06-.129-.241-.2-.372-.3a5.264,5.264,0,0,1-2.048-5.915,16.483,16.483,0,0,1,.908-1.987C1120.085-13.475,1105.327-13.345,1104.931-13.055Zm24.976-.188c.075.12.114.19.161.254a5.3,5.3,0,0,1-.291,6.829c-.361.4-.853.677-1.224,1.069a.873.873,0,0,0-.2.722c.056.175.378.321.606.368a1.007,1.007,0,0,0,.551-.186q8.315-4.282,16.625-8.572c.169-.087.329-.191.514-.3C1146.266-13.347,1131.665-13.485,1129.907-13.242Zm6.726,49.7h13.181c.807,0,.865-.047.865-.847q0-4.6-.011-9.193a4.056,4.056,0,0,0-.08-.521A32.243,32.243,0,0,1,1136.633,36.462Zm-35.68-10.642c-.019.363-.036.539-.036.716q0,4.536,0,9.073c0,.8.053.852.857.853h13.2A32.305,32.305,0,0,1,1100.953,25.82ZM1124.2,36.4h3.19l-.7-17.678h-1.787C1124.672,24.61,1124.44,30.463,1124.2,36.4Zm-25.166-17.757v-22.7A28.246,28.246,0,0,0,1099.039,18.644Zm19.2-22.625.019-.1c-.1-.058-.2-.12-.3-.174q-6.725-3.471-13.451-6.939c-.142-.073-.31-.193-.441-.166-.25.05-.6.131-.69.311s.038.509.128.752c.04.11.213.175.331.251q4.544,2.924,9.092,5.841a1.229,1.229,0,0,0,.6.217C1115.1-3.973,1116.67-3.981,1118.241-3.981Zm15.091-.123.024.121c1.488,0,2.976.016,4.463-.012a1.913,1.913,0,0,0,.947-.274c2.987-1.9,5.961-3.827,8.937-5.748.152-.1.361-.179.426-.321a.977.977,0,0,0,.105-.709.9.9,0,0,0-.63-.325,1.107,1.107,0,0,0-.553.2q-3.246,1.666-6.487,3.339Zm-14.551,22.773-.114-.027c-.188.437-.379.872-.563,1.311-1.706,4.058-3.421,8.112-5.1,12.183a1.505,1.505,0,0,0,.031,1.173c.383.646,1.244.456,1.606-.326q2.017-4.351,4.008-8.715a1.163,1.163,0,0,0,.123-.458C1118.785,22.1,1118.781,20.383,1118.781,18.669Zm14.159-.031-.125.034c0,1.613-.011,3.227.009,4.84a2.363,2.363,0,0,0,.2.921c1.264,2.783,2.546,5.558,3.824,8.334a4.691,4.691,0,0,0,.219.43.9.9,0,0,0,1.677-.615,2.5,2.5,0,0,0-.165-.513q-1.89-4.5-3.786-9.005Q1133.869,20.852,1132.941,18.638Zm8.944-22.729.053.119h8.749c0-1.1-.062-2.155.018-3.2a3.227,3.227,0,0,0-.879-2.072Zm-32.212.127.034-.126-7.945-5.166c-.244.4-.753.873-.8,1.389-.125,1.293-.041,2.605-.041,3.9Zm23.184,32.43v7.165l2.925-.9Zm-14.107-.018-2.937,6.288,2.937.887Zm30.254-41.718,1.638,1.992c.021-.288.036-.423.039-.558C1150.711-13.372,1150.711-13.372,1149.005-13.27Zm-48.077,1.815.146.019,1.506-1.864a6.856,6.856,0,0,0-1.187.019.658.658,0,0,0-.445.415A11.012,11.012,0,0,0,1100.928-11.454Z" transform="translate(-1094.798 23.723)" fill="#1d272b"/>
      <path id="Trazado_164084" data-name="Trazado 164084" d="M1443.48,250.788c1.028,0,2.056-.006,3.084,0,.639.005,1.015.324,1.038.85a.907.907,0,0,1-1.007.959q-3.145.024-6.29,0a.938.938,0,0,1-1.051-.929c.01-.53.423-.876,1.082-.881C1441.384,250.783,1442.432,250.788,1443.48,250.788Z" transform="translate(-1397.472 -217.489)" fill="#1d272b"/>
      <path id="Trazado_164085" data-name="Trazado 164085" d="M1442.447,271.683c-.725,0-1.451.009-2.176,0a.9.9,0,1,1-.079-1.8q2.266-.044,4.532,0a.888.888,0,0,1,.942.96.9.9,0,0,1-.983.844c-.745.014-1.491,0-2.236,0Z" transform="translate(-1397.473 -234.248)" fill="#1d272b"/>
      <path id="Trazado_164086" data-name="Trazado 164086" d="M1441.032,223.758c.281,0,.564-.021.843,0a.81.81,0,0,1,.786.772.756.756,0,0,1-.653.93,10.08,10.08,0,0,1-2.088-.009.748.748,0,0,1-.62-.9.81.81,0,0,1,.768-.793C1440.387,223.735,1440.711,223.758,1441.032,223.758Z" transform="translate(-1397.508 -193.731)" fill="#1d272b"/>
    </g>
  </g>
</svg>
