<svg id="icon14" xmlns="http://www.w3.org/2000/svg" xmlns:xlink="http://www.w3.org/1999/xlink" width="79.155" height="79.153" viewBox="0 0 79.155 79.153">
  <defs>
    <linearGradient id="linear-gradient" x1="0.5" x2="0.5" y2="1" gradientUnits="objectBoundingBox">
      <stop offset="0" stop-color="#fff"/>
      <stop offset="1" stop-color="#f8f8f8"/>
    </linearGradient>
  </defs>
  <g id="Group_18531" data-name="Group 18531">
    <g id="Group_18423" data-name="Group 18423">
      <g id="Group_18421" data-name="Group 18421">
        <g id="Group_18420" data-name="Group 18420">
          <g id="Group_18419" data-name="Group 18419">
            <path id="Path_40936" data-name="Path 40936" d="M201.954,554.407a39.577,39.577,0,1,1-39.578-39.575h0A39.576,39.576,0,0,1,201.954,554.407Z" transform="translate(-122.8 -514.832)" fill="#fff"/>
          </g>
        </g>
      </g>
      <path id="Path_40937" data-name="Path 40937" d="M201.953,554.407a39.42,39.42,0,1,0,0,.312Z" transform="translate(-122.799 -514.832)" fill="url(#linear-gradient)"/>
      <path id="Path_40938" data-name="Path 40938" d="M190.028,551.858a30.209,30.209,0,1,0-30.209,30.209h0a30.1,30.1,0,0,0,30.209-29.984Z" transform="translate(-120.122 -512.151)" fill="none" stroke="#008f85" stroke-miterlimit="10" stroke-width="2"/>
      <g id="Group_18422" data-name="Group 18422" transform="translate(7.012 22.22)">
        <path id="Path_40939" data-name="Path 40939" d="M195.973,530.78a39.581,39.581,0,0,1-68.14,39.411,39.456,39.456,0,0,0,68.14-39.411Z" transform="translate(-127.833 -530.78)" fill="#e7e9eb"/>
      </g>
    </g>
  </g>
  <path id="Trazado_163212" data-name="Trazado 163212" d="M150.737-14.97l1.946,2.138,4.9-4.609,1.164,1,4.282-4.034,1.106,1.037-4.147,4.307.725,1-4.672,4.825L157.9-7.243,147.172,2.994l-1.165-1.082,9.67-9.23-5.015-5.31-1.319,1.212,1.328,1.572-1.2,1.14L148.393-10.5l-2.009,1.832,1.238,1.6-.885,1.054-1.613-1.4L143.4-5.78l1.346,1.532-.992,1.066-1.56-1.426-1.732,1.6,1.416,1.688L140.82-.3l-1.6-1.476L137.524-.16l1.341,1.648-1.061.959-1.537-1.412-1.393,1.272,5.36,4.652-.278.424,1.385-.966,1.045.969L139.947,9.82l-2.985-3.281-4.906,4.651,3.029,3.289-3.659,3.474-7.251-7.618,3.638-3.473,2.97,3.323,5.286-5.029-3.6-2.735Zm-24.368,25.3,5.109,5.343,1.378-1.3-4.921-5.152Zm28.487-20.9,3.78-3.6L157.521-15.5l-3.494,4.056Z" transform="translate(-104.906 43.122)" fill="#1d272b"/>
</svg>
