<svg xmlns="http://www.w3.org/2000/svg" width="177.161" height="233.757" viewBox="0 0 177.161 233.757">
  <g id="img19" transform="translate(-661.998 -767.048)">
    <g id="Grupo_128136" data-name="Grupo 128136" transform="translate(661.998 767.048)">
      <path id="Trazado_165079" data-name="Trazado 165079" d="M751.72,897.031l-.468-2.6a2.5,2.5,0,0,1,.758-.459c1.47-.3,2.876.154,4.242-1.557,1.01-1.266,3.679-1.21,5.609-1.739.324-.089.863-.067.948-.257,1.4-3.085,4.183-5.265,5.365-8.541.572-1.584,1.988-2.863,3.2-4.528,1.117,2.685,1.914,4.768.438,7.162a47.246,47.246,0,0,0-2.641,5.97,11.382,11.382,0,0,0,1.141.579c.775-1.261,1.455-2.58,2.267-4.11l2.04-1.021-1.363-1.795c.833-3.061,1.738-6.387,2.679-9.842-1.226-.925-1.226-.925.113-5.865l1.791,4.257,2.884-1.88c-3.655.527-2.722-3.583-4.384-4.455l3.2-8.419c-.872-1.771-1.5-3.048-2.129-4.322-.331-.666-.649-1.341-1.013-1.988a15.135,15.135,0,0,1-2.25-8.516c.091-1.473-.383-2.978-.321-4.457.059-1.41.561-2.795.716-4.208a5.219,5.219,0,0,0-.3-2.2q-1.524-4.414-3.184-8.78a21.147,21.147,0,0,0-1.463-2.528c-.308,1.4-.461,2.09-.744,3.374-.9-2.03-2.151-3.592-2.017-5.026.071-.76,2.541-1.295,3.823-2.389h-3.545l-.429-3.25-.077.077c2.613.849,1.747-1.288,1.7-2.235a12.647,12.647,0,0,1,1.457-7.032c.731-1.352-.442-3.82-1-5.712-.12-.4-1.306-.489-2.182-.782l.457-1.871c-1.832-.528-4.472.768-5.017-2.212.136-.218.164-.317.229-.362.772-.538,1.551-1.068,2.327-1.6a11.88,11.88,0,0,1-3.433.3,62.332,62.332,0,0,1-7.02-2c-2.075-.69-4.091-1.557-5.984-2.287a41.245,41.245,0,0,1,3.074-4.818c.657-.8,2.055-.954,2.963-1.614,1.4-1.015,1.955-2.249.882-4.006-.462-.757-.254-1.922-.408-3.486l2,2.9-.073-.069c.173.638.164,1.431.552,1.886,1.2,1.414,2.614,2.654,3.812,4.073.252.3-.062,1.074-.115,1.629q-1.656.711-3.312,1.425l1.07-.3,2,2.436c.06-.824.144-1.992.229-3.16,1.8.693,2.71-.363,2.953-1.846.446-2.726.627-5.5.928-8.34,1.054.619,3.234,1.2,4.108,2.59a5.028,5.028,0,0,0,4.27,2.179c4.787.461,7.052,4.116,9.62,7.183a92.734,92.734,0,0,1,7.514,10.869c2.224,3.6,4.657,7.295,4.37,11.743-.238,3.7-1.275,7.333-1.612,11.028-.18,1.977.392,4.019.582,6.036a7.625,7.625,0,0,1,.042,2.574c-1.266,4.762-1.3,4.753,2.8,6.955,1.287.692,2.875,4.7,2.574,6.083-.607,2.8-.986,5.642-1.657,8.42a57.615,57.615,0,0,1-1.987,5.6l-1.06-1.691c.67,4.437-4.513,5.067-5.456,8.412-2.054-.143-2.206.1-1.622,2.077l-5.495,3.392.375.762h1.5l.549.575q-2.416,2.237-4.832,4.476c-.6.56-1.634,1.061-1.729,1.7-.564,3.774-.828,7.591-1.361,11.37-.34,2.414-1.191,4.766-1.419,7.183-.385,4.1,2.741,6.314,5.247,8.792.47.465,1.435.663,1.595,1.167,1.132,3.576,4.494,4.432,7.258,4.9,2.48.42,4.153,1.829,6.293,2.659V893.259l2.49-1.21c-.361,5.623-.7,10.787-1.022,15.951a21.97,21.97,0,0,0-.11,3.369c.049.532.589,1.02.907,1.528.283-.54.8-1.075.811-1.619.072-4.868-.02-9.739.1-14.605.049-2.015.594-4.016.7-6.034a9.49,9.49,0,0,0-.782-2.765l2.726-.647c0-2.577-.1-5.094.042-7.6.077-1.318.68-2.6.875-3.919a21.644,21.644,0,0,0,.033-3.118c0-6.948,0-13.9.542-21.116.378.6,1.1,1.218,1.077,1.809-.145,4.377-.454,8.749-.673,13.124-.065,1.3-.052,2.61.013,3.911.029.573.166,1.564.443,1.635,2.816.731,2.174,2.954,2.225,4.871q.456,17.121.884,34.242a8.865,8.865,0,0,1-.2,1.465l-.652.05a53.076,53.076,0,0,1-.916-6.444c-.134-5.561.079-11.132-.1-16.69a59.371,59.371,0,0,0-1.443-10.593,4.1,4.1,0,0,0-.29.955c-.314,5.924-.77,11.849-.83,17.777a21.457,21.457,0,0,0,1.352,7.2c.747,2.111-.738,3.436-.3,5.284l-.739-.141-2.49-4.278c-1.646,5.48-.76,9.086,2.781,11.677-.3-1.961-.577-3.789-.855-5.616l.979-.357c.626,1.571,1.8,3.159,1.756,4.709-.088,2.777,1.834,3.536,3.582,4.031,5.444,1.542,9.8,4.72,14.2,8.1a84.8,84.8,0,0,0,13.145,8.191A6.045,6.045,0,0,1,839,941.61a87.428,87.428,0,0,1,.047,9.643,2.28,2.28,0,0,1-.654,1.5q-5.946,5.316-11.978,10.536c-.642.559-1.379,1.011-2.072,1.512l-.551-.62,10.65-10.818-.409-.5-7.071,4.009,6.522-6.845-1.623.543c-1.672.554-3.373,1.034-5,1.7-.551.226-.909.923-1.355,1.406l-7.1,3.18-.5-1.05-.777.036c.081,1.608.163,3.217.263,5.2l3.676-1.948-.894,2.266,6.495-4.305c-2.592,2.457-5,5.169-7.862,7.253a2.972,2.972,0,0,0-1.509,2.833q.019,9.9.012,19.8a5.662,5.662,0,0,1-.47,2.684l-.648-1.843c-.147,0-.359-.065-.441.011-.45.418-.869.871-1.3,1.312-.254-.484-.494-.977-.764-1.452-.384-.675-.79-1.338-1.39-2.351-1.386,6.387-1.386,6.387-3.691,8.157-1.4-1.8,2.466-4.306-.715-5.766h.01c1.311-5.068,3.078-10,3.179-15.375.042-2.222,1.518-4.381,1.956-6.643.264-1.364.315-3.306-.453-4.234a90.5,90.5,0,0,0-7.681-7.765,14.9,14.9,0,0,0-2.729-1.63l-1.606,2.257c4.572.931,6.623,4.54,9.439,7.2a2.624,2.624,0,0,1,.521,2.154c-.652,2.685-1.534,5.314-2.254,7.984-.5,1.866-.905,3.761-1.308,5.652-.493,2.314-.879,4.653-1.423,6.955-.584,2.469-1.3,4.908-1.956,7.36l-.783-.2.767-3.536-.526-.33-6.727,9.64-.8-.552,9.185-14.243-.8-.561L791.41,998.751c-.319-1.294-.334-1.305,2.935-6.084,1.3-1.906,2.693-3.752,4.043-5.626l-.816-.68-7.68,9.1-.657-.473c1.323-4.764,6.669-7.055,7.959-12.681l-5.316,5.332-.9-.87,9.691-11.57-.348-.469-16.864,13.351a22.475,22.475,0,0,1,7.966-8.185c2.562-1.659,4.631-4.079,6.918-6.16l-.717-.9L783.5,983.76l-.513-.521,6.083-6.256-.443-.591-5.147,3.515.67-.982-2.257-2.444c1.63-1.673,4.187-4.3,6.738-6.932q4.813-3.936,9.64-7.854l-.682-.871c-2,1.551-4.122,2.971-5.956,4.7a25.593,25.593,0,0,0-2.947,4.077c-.726.016-1.67-.256-2.14.1-1.581,1.2-2.994,2.614-4.58,4.047-1.54-.761-2.588-1.506-.826-3.337a18.909,18.909,0,0,0,3.1-4.636l-2.768,2.341-.6-.363a9.125,9.125,0,0,1,1.222-2.7c3.046-3.2,6.189-6.313,9.362-9.392a43.049,43.049,0,0,1,3.431-2.734l-.662-.841a27.02,27.02,0,0,0-3.35,2.377c-3.131,3-6.147,6.112-9.24,9.15a7.9,7.9,0,0,0-2.452,5.712c-.15,4.634-.543,9.259-.845,13.887-.3,4.531-.617,9.06-.9,13.592-.078,1.264-3.333,4.905-4.669,4.985a4.485,4.485,0,0,1-1.563-.536,10.683,10.683,0,0,1,1.249-1.162,2.64,2.64,0,0,1,1.016-.179l.661-2.465c-.643-1.378-1.127-2.416-1.607-3.447.6.467,1.195.928,1.721,1.335v-5.862c-.213.074-.627.381-.937.3-1.967-.528-2.389-.01-1.438,1.814a11.794,11.794,0,0,1,.679,2.467c-2.314-2.958-2.755-2.9-4.482.267a11.244,11.244,0,0,1-1.853,2.027q-.272-1.438-.543-2.878l.793-.468,4.8-5.919-.577-.448-3.175,2.488.078.062a26.239,26.239,0,0,1,2.106-4.448c2.189-3.041,4.913-5.736,6.813-8.932,1.182-1.987,1.515-4.609,1.741-6.992.17-1.793-.7-3.671-.62-5.489a30.113,30.113,0,0,1,1.2-5.1,5.653,5.653,0,0,0,.3-2.513,28.616,28.616,0,0,1-.114-13.462c.506-2.507.2-5.189.153-7.79a3.123,3.123,0,0,0-.68-1.875c-1.471-1.664-2.358-3.136-1.236-5.6.507-1.112-.681-3-1.034-4.293a44.115,44.115,0,0,0-4.983,2.11c-1.548.872-2.474,2.323-1.741,4.212,1.671,4.305-.221,7.8-4.961,8.4-6.086.78-12.209,1.292-18.328,1.783-1.216.1-2.474-.517-3.727-.626a8.377,8.377,0,0,0-3.022.191c-5.85,1.721-12.264-.079-11.853-7.938.141-2.686-1.47-3.582-2.963-4.768-1.246-.99-2.9-1.473-4.132-2.476-1.174-.956-2.036-2.3-3.381-3.245a6.933,6.933,0,0,0,1.619,6.018c.442.495.908.969,1.364,1.451-.616.194-1.225.414-1.85.572a10.7,10.7,0,0,1-1.451.113c.955,2.989,1.976,5.79,2.74,8.659a162,162,0,0,1,3.91,16.009,33.6,33.6,0,0,0,7.473,16.246c2.44,2.991,5.171,5.744,7.635,8.717.485.585.344,1.69.491,2.554l.019-.052-6.535-7.5c-1.686,1.772-1.377,3.151.408,4.783,2.1,1.916,2.082,4.587,1.636,7.219a37.224,37.224,0,0,1-.763,3.963c-.288,1.016-.874,1.944-1.257,2.939a6.11,6.11,0,0,0-.481,1.924c-.063,1.888-.022,3.78-.022,5.67l-.834.1q-.93-6.1-1.862-12.2a108.467,108.467,0,0,0-2.453-12.505L726.4,977.8l-.516.033-.282-5.495-.407-.087q-.365,1.045-.729,2.09h-.43c-.105-1.549-.21-3.1-.336-4.95l-.857.9c-.218-4.249-.45-8.781-.683-13.314l-.634-.081-1.663,4.78-.853-.124q.642-6.35,1.283-12.7l-.658-.124-3.353,12.9c-.033-2.109-2.1-3.94-.622-6.262.406-.637-.387-2.038-.635-3.078q.271-2.682.552-5.383l-.478-.078-.395,1.506c-1.3.364-2.408.346-2.7.825a11.848,11.848,0,0,0-.915,3.176l.815.124a8.97,8.97,0,0,1,.287-1.882,4.743,4.743,0,0,1,.938-1.182c.241.471.724.972.672,1.409a13.746,13.746,0,0,1-.774,2.545l.409.286,1.626-1.433c-.259,2.113-.549,4.213-2.48,6.318.046,1.529,2.37,3.584.548,6.142-.275.386.726,1.681,1.325,2.955l-1.92,7.547-1-1.249-.628,2.177c-.271-.161-.5-.217-.533-.329-.332-1.2-1.009-2.394-1.377-3.384-1.054-2.831-1.129-6.106-1.158-9.212a50.746,50.746,0,0,1,.961-7.321c-3.034.288-3.387,1.052-2.47,4.754l.525-3.619.224.031v19.428c-.546-2.487-1.033-4.708-1.52-6.929l-.536.085q.44,3.612.88,7.224l-.843.135q-.76-4.073-1.519-8.147c-1.092,4.009.7,7.791,1.2,12.486-3.216-3.394-3.055-7.5-4.941-10.861-3.454-.984-4-2.532-2.406-6.148,1.692-3.844,3.091-7.817,4.617-11.733l-.634-.323-2.386,3.85-.3-.54q-1.409.727-2.817,1.454a5.564,5.564,0,0,1-1.312.676c-1.884.382-3.194,3.6-2.169,5.8q4.389,9.414,8.922,18.761c1.076,2.229,2.341,4.367,3.4,6.6a2.284,2.284,0,0,1-.494,2.084c-1-1.767-1.966-3.55-3-5.3-.615-1.042-.6-2.349-2.616-2.524-1.1-.095-2.527-2.4-1.3-4.451-.475-.3-1.214-.492-1.387-.916-1.616-3.956-3.159-7.942-4.672-11.939a40.8,40.8,0,0,1-1.794-5.482,3.339,3.339,0,0,1,.8-2.284c1.425-1.9,2.988-3.705,4.5-5.546l-.557-.693-7.83,6.7-.7-.516c.18.708.308,1.435.548,2.122,1.37,3.935,2.767,7.86,4.155,11.79l.074-.067-1.64-.452-.684,2.626c-1.019-2.477-1.813-4.408-2.707-6.584l-2.172,3.965-2-5.537-.937-.194-3.175,6.673-.753-3.431-.912,2.766-.464,0c0-2.11-.318-4.283.076-6.317.57-2.952,1.678-5.8,2.5-8.707a3.53,3.53,0,0,0,.016-1.8c-.1-.385-.608-.663-.933-.989-.279.281-.745.525-.807.847-.71,3.708-2.149,7-5.29,9.279.824.984,2.987,1.6.32,2.841-.455.211-.2,1.945-.343,3.879-.856-1.561-1.8-2.562-1.888-3.637-.1-1.179.576-2.426.37-3.86l-1.194,1.389c.315-3.956.6-7.544.888-11.134l-1.054-.069v6.321l-.56.01q-.515-2.405-1.03-4.812l-.965.083-.345,5.674-.893.019c0-3.337.061-6.675-.033-10.01a12.588,12.588,0,0,0-.716-3.387c-1.088-3.406.4-6.789.018-10.184a78.094,78.094,0,0,0-.987-8.7c-.864-3.787,2.069-4.831,4.216-6.164a71.6,71.6,0,0,1,11.029-5.759c4.3-1.722,7.5-4.819,11.162-7.38,3.267-2.283,7.3-3.479,10.991-5.146,1.594-.719,3.2-1.418,4.8-2.126l-6.857,8.73.964.839,4.031-4.568.479.332-.515,1.893,2.367,1.111c-.124-2.015.356-3.18,2.424-2.394l-.132,1.525.962.136c.334-2.954.668-5.907,1.016-8.985l-4.253.784c-.38-1.164-.748-2.332-1.145-3.49-.158-.462-.543-.9-.543-1.35,0-1.279.142-2.557.222-3.728l-3.807.9-.335,3.488-.683.232-1.591-4.393c-.195,1.719-.334,2.955-.474,4.19l-.363.06c-.4-2.38-.793-4.759-1.318-7.913a8.484,8.484,0,0,0,1.2,1.52,1.677,1.677,0,0,0,1.122.251c.18-.032.465-.716.382-.8-1.6-1.709-.328-3.337.069-4.994a3.213,3.213,0,0,0-.161-.978l-2.359,1.36c-.093-1.432-.175-2.68-.262-4.027l-1.951.239c.269-2.572.521-4.969.793-7.566-2.638,1.22-.809,3.888-2.024,5.909-.223-1.188-.39-2.074-.556-2.961l-.631-.05c-.592,4.3-1.236,8.595-1.762,12.9-.544,4.456-.973,8.926-1.717,13.394,0-3.681-.051-7.364.031-11.044a26.241,26.241,0,0,1,.645-3.2c.613-4.033,1.117-8.085,1.821-12.1.195-1.108.945-2.119,1.241-3.262l2.858-3.878h-2.316c.405-4.644.793-9.1,1.182-13.551l.609-.005c0,2.088-.116,4.184.054,6.258a9.062,9.062,0,0,0,1.129,2.639l-.052-.063v5.948l1.415-1.541c-.3,2.984-.565,5.672-.832,8.36l.866.131c.111-1.246.223-2.492.381-4.272l.911,1.389q.952-13.836,1.949-28.333l-1.262-.234.07.067.468-11.427,1.288-.151a11.287,11.287,0,0,1,.853,2.58,14.465,14.465,0,0,0,1.4,5.8c1.095,2.159.393,5.24.382,7.918,0,.146-.867.288-.636.216.257,2.9.587,5.658.722,8.421s0,5.567.152,8.341a5.447,5.447,0,0,0,1.086,2.242c1.268,2.033-.317,3.022-1.55,3.96a5.8,5.8,0,0,0-1.958,6.578c.483,1.164.94,2.339,1.639,4.085,1.617-3.693-.668-7.361,2.026-10.448,1.027,10.926,6.255,18.955,15,25.482a15.685,15.685,0,0,1-1.611-.288,4.924,4.924,0,0,1-.84-.463c-1.58,7.307,2.114,13.419,8.308,17.136,4.769,2.861,9.588,5.666,14.555,8.157,1.881.943,4.239.938,6.487,1.387a10.053,10.053,0,0,1,.5-2.1c1.586-3.388.833-5.355-3.636-5.834a32.6,32.6,0,0,1-14.143-5.221c-1.422-.913-2.759-1.958-4.629-3.3l6.464-2.645c.522-3.677-.475-4.845-4.081-5.105A29.073,29.073,0,0,1,720.924,901c-.251-.064-.373-.637-.555-.974.414-.182,1.069-.63,1.205-.507,1.407,1.277,2.229.3,3.279-.573a3.087,3.087,0,0,1,2.159-.343,14.24,14.24,0,0,1,3.139.875c.595.228,1.6.8,1.552,1.068-.411,2.457,1.581,1.756,2.866,2.084l-1.641-2.461c3.351-1.51,6.416-2.958,9.545-4.251a4.255,4.255,0,0,1,2.557-.091c2.471.67,2.453.736,3.776-1.634,1.014.929,2.009,1.841,3.007,2.749-3.477,2.73-2.124,6.093-1.4,9.417l4.225-1.7c-.128,3.59-3.249,6.67-.231,10.5l7.1-7.694v-5.394a39.072,39.072,0,0,0-4.464-3.411C755.438,897.749,754.389,894.556,751.72,897.031Zm-53.737,47.408c1.946-.92,2.028.673,2.445,1.814-.67-.033-1.34-.058-2.009-.1a3.84,3.84,0,0,1-1.593-.165c-2.057-1.217-4.056-2.533-6.4-4.02l-.341-2.589-1.184,1.37-.743-.32c.827-2.939,1.654-5.877,2.461-8.84,2.331-6.336,5.81-12.28,6.7-19.12-3.186,4.84-3.595,10.951-7.389,15.462q.372,1.851.746,3.7c-2.273-.671-1.27,1.421-1.508,2.08-1.238,3.443-3.264,6.782-2.315,10.429,3.239,1.15,6.272,2.137,9.222,3.328a10.621,10.621,0,0,1,2.427,1.97l.033,1.148,2.646-2.331,4.863-2.389c.15,1.188.3,2.411.458,3.633a24.4,24.4,0,0,0-2.98,10.309,24.876,24.876,0,0,0,2.918-10.359c1.969-1.058,1.506-2.831.483-3.859-1.834-1.842-.9-3.138.609-3.9,2.622-1.315,2.556-3.732,3.307-5.852l-1.066-.966c-.145.569-.11,1.342-.474,1.663a13.626,13.626,0,0,1-2.448,1.434c-.364-.813-.792-1.6-1.075-2.444-.313-.932-.458-1.919-.743-2.862a31.773,31.773,0,0,1-1.076-3.251c-.568-3.063-1.009-6.15-1.51-9.218q-.251-4.3-.5-8.6l-.7.035c0,2.46-.057,4.922.058,7.376.018.392.805.748,1.237,1.121.193,4.683.386,9.365.577,14.015-1.63-.277-2.051,1.083-1.874,2.915.187,1.943-.618,2.555-2.429,1.933l-.685-2.19-.487.127.926,5.528-.671.111m77.654-143.223.331-1.036c.513-.615,1.278-1.154,1.488-1.859.52-1.739.786-3.554,1.18-5.462h-.964c-.685-7.4-.755-7.491-8.182-10.166-.519,1.6.009,3.964-3.487,3.7,3.459,2.186,2.092,5.177,2.461,7.784a34.649,34.649,0,0,0,1.145,4.271l.764.043.653-3.217c.962.467,3.064-2.481,3.741.966l-.816,3.183-1.787-.4c.732,2.95,1.415,5.7,2.1,8.455a7.4,7.4,0,0,0-.87,3.076c-.375,3.806,3.374,5.071,4.588,7.9l.655-.205c-.458-3.084-.917-6.167-1.341-9.022a14.726,14.726,0,0,0,.765-2.016C775.476,804,776.554,801.248,775.552,799.352Zm-1.294,103.7a21.048,21.048,0,0,1-1.943,3.609c-5.77,6.868-12.885,11.222-22.077,11.8a3.54,3.54,0,0,0-2.575,2.092c-.4,1.789-.121,3.734-.121,6.214,4.259-1.386,8.153-2.433,11.876-3.912,6.566-2.608,12.093-6.573,14.68-13.484C774.794,907.514,776.965,905.41,774.258,903.05Zm-64.776,13.876v10.951c-3.828-.168-4.418-1.071-3.208-4.342l1.01,3.046.709-.235c-1.2-4.377-1.2-4.377-3.593-3.781.76,4.019,1.513,8.081,2.322,12.131a1.389,1.389,0,0,0,.807.808c.193.075.647-.2.819-.443,1.381-1.9,2.8-3.789,4.046-5.78a6.759,6.759,0,0,0,1.378-3.446c-.089-1.822,1.835-3.983-.661-5.528-.067-.042.117-.469.164-.721a21.821,21.821,0,0,0,.594-3.472c.07-4.12.14-8.246-.031-12.36a46.084,46.084,0,0,0-1.147-6.279,33.984,33.984,0,0,0-1.788,4.465,34.921,34.921,0,0,0-1.341,7.957c0,1.135-.247,3.708,2.207,3.591.15.753.242,1.493.451,2.2.228.771.563,1.511.851,2.265l-.755.608Zm39.6.87-1.924-3.446,2.7-.2a35.065,35.065,0,0,0-17.43-10.185c.253,2.814.478,5.3.7,7.739l-2.961.636C736.179,916.129,742.684,916.079,749.083,917.8Zm-57.914-6.283-.859.094v9.975l-.6.021c-.322-3.111-.644-6.222-1-9.623-2.388,1.206-4.4,1.811-4.71,4.654l3.563-2.716c-.419,3.835-.82,7.507-1.235,11.3l-1.034.065c-1.18,3.479-1.221,6.839-2.852,10.132-2.329,4.7-3.376,10.044-4.884,15.139-.17.573.226,1.314.36,1.977.5-.584,1.23-1.092,1.454-1.767.5-1.512.6-3.168,1.167-4.646.344-.89,1.268-1.556,2.292-2.741l-1.287-1.849c.894-1.183,2.328-2.215,2.307-3.216-.061-2.886,1.757-4.962,2.464-7.445s3.082-4.81,1.377-7.81c-.3-.526-.071-1.367-.038-2.061s.127-1.376.184-1.95l2.424,6.465.662-.234c.876-2.714,1.751-5.428,2.684-8.316C690.687,916.48,691.376,913.766,691.169,911.513Zm86.816-67.692c.4-.621.8-1.249,1.216-1.86.745-1.089,1.273-2.589,2.308-3.162,1.989-1.1,3.524-2.012,2.688-4.7-.889-2.86-1.535-5.8-2.455-9.346-.133-.857-.382-2.443-.629-4.029l-1-.016a36.815,36.815,0,0,0-.88,4.767c-.153,2.674-.007,5.364-.086,8.045-.048,1.609.322,3.933-.559,4.674C776.5,839.955,777.944,841.821,777.985,843.821Zm20.136,81.253c6.25,5.945,9.182,13.211,10.64,21.417l-5.058,1.415c.089.688.187,1.443.308,2.375l7.589-3.091c-2.049-6.791-4.612-13.285-8.874-18.912C801.735,926.97,801.49,924.118,798.121,925.073Zm-125.842,2.691-.784.081c-.853,2.568-.009,5.25-1.725,8.025a10.388,10.388,0,0,0,.539,11.59c.3-4.063.565-7.72.828-11.3l2.3,1.479C673,933.892,672.638,930.828,672.279,927.764Zm99.271-35.4c-2.466,1.9-2.9,6.012-.806,7.634l-.237.678-3.359-1.076v6.908C771.892,904.845,773.566,899.555,771.55,892.362Zm22.832-55.072c-2.445-.756-4.741-2.69-7.163,0-1.894,2.1-4.078,3.936-6.118,5.874l1.321,2.68C785.995,842.336,788.216,837.107,794.382,837.29Zm-5.194-24.636v7.769l-2.44-1.752c.175,1.8.332,3.423.535,5.515.694-.326,2.145-.538,2.4-1.2C790.975,819.569,792.178,816.038,789.188,812.654Zm-14.313,9.639,1.437-2.348-4.414-.458c1.149,1.827,3.538,3.047.094,4.164l5.256,5.333.487-.077ZM788.34,972.37l.261.433a3.571,3.571,0,0,0,1.346-.3c1.577-1.171,3.082-2.438,4.635-3.64,1.07-.828,2.224-1.556,3.239-2.444.278-.244.189-.906.269-1.377-.464-.037-1.115-.292-1.363-.078C793.895,967.389,791.125,969.889,788.34,972.37Zm-1.363-145.636c-.308.379-1.32,1.067-1.269,1.664a63.807,63.807,0,0,0,1.22,6.609l2.9-4.068ZM816.153,955.42c.865-3.255,4.834-4.262,5.308-7.838a47.464,47.464,0,0,0-5.963,4.846C814.086,953.69,814.517,954.565,816.153,955.42Zm-21.1-113.435.743-.794c-.894-.579-1.784-1.607-2.683-1.615-.978-.008-2.815.985-2.785,1.447.083,1.3.93,2.561,1.475,3.837l.84-.286.421-4.189ZM696.016,943.574l-2.472-7.963c-.556,1.878-1.012,3.283-1.367,4.714a1.372,1.372,0,0,0,.247,1.178C693.357,942.151,694.389,942.658,696.016,943.574ZM814.637,950.4l.627.6,5.868-6.375-.585-.616Zm-62.32-35.638-2.758-7.684-2.124,3.667C750.871,909.762,749.951,913.38,752.317,914.759Zm-74.1,21.974c1.8-2.556,1.775-4.425-.079-7.45-.37-.6-.179-1.551-.247-2.34l-.6.017C677.6,930.3,677.919,933.641,678.213,936.732ZM783.2,859.484l-1.8,2.059c3.484.53-.39,2.838.947,3.851C785.009,863.346,785.321,861.6,783.2,859.484ZM787,953.7l.67.788c2.085-.261,4.6-2.745,4.98-5.347Zm-57.375-20.225.615-.088c0-1.861.062-3.726-.047-5.58-.025-.415-.646-.8-.993-1.192-.253.48-.777,1-.71,1.433C728.771,929.874,729.23,931.671,729.625,933.478Zm58.737,27.8.468.548,6.618-5.437-.677-.791Zm-26.5-64.629c-.6.489-1.17.76-1.389,1.206-.146.3.212.842.345,1.276.963-1,1.959-1.977,2.833-3.052.08-.1-.557-.946-1-1.238-.263-.175-.793.054-1.279.11Zm18.489,64.635,5.5-4.7C783.317,956.952,780.767,959.412,780.346,961.284Zm-3.2-144.212-3.939-3.05C772.764,817.221,773.592,817.947,777.145,817.071ZM687.9,950.546c-.4,1.842-.807,3.685-1.357,6.2C689.426,954.672,688.393,952.562,687.9,950.546Zm16.992-31.481.719-.206c.1-1.705.849-3.6-1.918-4.491Zm83.517,45.816.544.672,4.8-3.919-.726-.873Zm-86.873-78.216c-.53,3.712-.434,3.83,2.172,3.239v-3.378l-1.131,1.7Zm-24.856,46.5c-2.244.688-1.822,2.283-1.617,3.732a.91.91,0,0,0,.765.469c.322-.083.791-.43.813-.7C676.735,935.579,676.682,934.471,676.682,933.169Zm-2.127-1.668.471.074c.23-1.739.49-3.475.645-5.22.017-.187-.635-.647-.887-.589a1.141,1.141,0,0,0-.677.879C674.193,928.267,674.394,929.883,674.555,931.5Zm81.8-149.656-.6-.556-3.872,4.6C755.016,785.725,755.286,783.386,756.351,781.845Zm-68.118,165.76c.428.953.775,1.856,1.227,2.7.609,1.141,1.3,2.234,2.206.683l-1.936-3.386Zm26.543-11.8-1.409-3.841-1.454,5.213Zm-14.786,33.246v-4.879C698.973,965.771,697.409,967.406,699.991,969.048Z" transform="translate(-661.998 -770.38)" fill="#1d272b"/>
      <path id="Trazado_165080" data-name="Trazado 165080" d="M778.362,942.615l-7.338,2.426-.119.8,3.69,1.754-1.886,2.9c2.578-.854,4.891-1.3,5.122,2.571l1.215-2.438,2.243.23-1.977,2.831,2.2,1.56c-1.724,2.38-3.862,1.682-5.262-1.108-2.934-.319-5.557-.575-8.171-.9q-3.015-.372-6.01-.9a12.944,12.944,0,0,1-2.006-.688c.54-.366,1.072-.746,1.625-1.094a8.4,8.4,0,0,0,1.1-.607c1.161-1.014,2-2.837,4.294-.85-1-2.935-2.99-1.907-4.48-2.2-1.388-.273-2.782-.515-4.173-.771l.139-1.046c2.819,0,5.64.05,8.456-.038a5.88,5.88,0,0,0,1.9-.8,7.581,7.581,0,0,0-1.8-.906c-3.214-.656-6.428-1.372-9.678-1.768-1.874-.228-3.943-.764-5.57,1.088-.566.643-1.6.876-3.062.936l1.742-4.5c-.506-1.683.222-3.163,2.316-3.768l.395,4.162.893.043,6.974-9.749-6.028.994,2.944-3.449-3.9-1.273-4.844,6.921c-.272-1.361-.7-2.157-.459-2.522,1.026-1.575,2.25-3.02,3.392-4.521a13.492,13.492,0,0,0,1.462-2.03c1.233-2.474,2.383-4.988,3.565-7.487l.914.338a17.034,17.034,0,0,1-1.217,3.581c-2.161,3.555-2.178,3.662,2.709,5.9l3.288-4.714.526.36c.09,1,.181,1.992.237,2.61,3.08.537,5.946,1.129,8.842,1.467a2.424,2.424,0,0,0,1.866-1.294,7.271,7.271,0,0,0,.08-2.658h-2.529a15.721,15.721,0,0,0,1.13-1.583c.234-.423.265-.953.464-1.4.575-1.3,1.189-2.577,1.789-3.864l.882.406-2.2,5.081,2.615-1.69a10.954,10.954,0,0,0,.581,2.1c.666,1.338,1.171,3.336,2.258,3.77,2.744,1.094,2.29,3.585,3.109,5.479,1.548,3.578,1.45,3.344,4.531,2.647a16.057,16.057,0,0,1,3.826.143c-2.953,3.791-6.1.467-8.508,1.115,1.058,2.664,2.01,5.209,3.1,7.7.246.561.989,1.29,1.465,1.263.56-.031,1.077-.8,1.218-.92l3.888,2.289c2.661-2.223,2.3-5.093,3.92-7.986.273,2.29.458,3.838.671,5.624h2.708l1.677-4.273c1.745,2.941,1.593,5.327-.912,7.284a3.193,3.193,0,0,1-2.038.79,14.959,14.959,0,0,0-8.252.907,1.453,1.453,0,0,1-1.256-.1c-1.952-1.582-3.7-.468-5.544.241-1.14.44-2.361.667-3.637,1.014Zm-10.878-6.283-.441-.793,2.146,5.53c1.237-.993,2.438-1.906,3.581-2.886,1.607-1.379.5-2.294-.695-2.936a29.152,29.152,0,0,0-3.627-1.4l.728.5Z" transform="translate(-703.519 -837.921)" fill="#1d272b"/>
      <path id="Trazado_165081" data-name="Trazado 165081" d="M827.511,892.133c-.076-2.522-.145-5.045-.233-7.566a11.145,11.145,0,0,0-.164-2.131c-1.226-.071-3.245-.369-3.559.209-1.188,2.186-2.6,3.079-5.309,1.615l.089.976,2.234,1.686-.061.4-7.219-1.3,3.885-2.057a20.716,20.716,0,0,0-2.272-1.148,7.5,7.5,0,0,0-2.441-.548,5.181,5.181,0,0,0-2.788.5c-2.537,1.733-8.075,1.112-10.621-1.721,3.776.321,7.407,2.68,10.752-.687l-2.393-.525c.113-.773.223-1.537.443-3.051-2.352,2.094-4.038,4.693-7.227,2.964l-.87-3.537c-1.154,2.156-.7,4.945-3.671,4.891-1.891-.034-3.784.032-5.675.054l-.184-1.02,2.863-.881-1.826-2.05c-.566,1.034-.821,2.04-1.468,2.54a10.845,10.845,0,0,1-2.869,1.15,6.916,6.916,0,0,1,.6-2.328,9.63,9.63,0,0,0,.638-8.2c-.457-.983-.078-2.354-.078-3.548l.656-.212,1.737,2.257a1.652,1.652,0,0,0,.232-.015c4.317-.786,8.628-1.608,12.958-2.317.511-.083,1.122.451,1.687.7a9.553,9.553,0,0,1-1.65,1.049c-1.093.421-2.239.706-3.456,1.076,4.043,3.259,5.619,3.072,6.275-.246l7.193,2.719c1.944-2.357,3.424-2.1,5.132.389,1.579,2.3,2.995,4.955,5.151,6.55,1.642,1.215,3.839,1.76,5.051,3.66.344.54.918,1.477.726,1.727-1.269,1.654.139,3.468-.175,4.654-.567,2.143.84,3.893.237,5.805Z" transform="translate(-721.774 -814.647)" fill="#1d272b"/>
      <path id="Trazado_165082" data-name="Trazado 165082" d="M751.729,878.6l-1.227-1.561,2.447-.527-.732-1.638-8.272.988c.371-2.677.627-5.077,1.056-7.445.339-1.869,3.824-3.886,5.629-3.455,1.462.349,2.975.509,4.413.929a17.153,17.153,0,0,1,2.851,1.548l2.352-1.064c-.475-2.5-.475-2.5,1.567-3.15.552,1.769.762,3.352-.542,5.024a3.535,3.535,0,0,0-.437,2.916c1.154,3.1.644,4.194-2.305,5.661a33.882,33.882,0,0,0-4.913,3.639c-.274.207-.567.537-.857.544a18.1,18.1,0,0,1-2.2-.187Z" transform="translate(-701.208 -813.065)" fill="#1d272b"/>
      <path id="Trazado_165083" data-name="Trazado 165083" d="M941.388,946.509a11.483,11.483,0,0,0,1.081-2.93c.172-2.072.018-4.17.1-6.253.014-.35.554-.679.851-1.018.244.364.736.759.7,1.086-.577,4.6-1.419,9.21,1.38,13.742h-1.7v36.348l-.283.141c-.341-1.316-.617-2.655-1.046-3.942a23.576,23.576,0,0,0-1.144-2.253,4.189,4.189,0,0,1-.629-1.808c.193-2.628.65-5.239.75-7.867.047-1.215-.731-2.45-.748-3.68q-.133-9.257-.02-18.516a13.832,13.832,0,0,1,.77-3.129Z" transform="translate(-795.318 -848.036)" fill="#1d272b"/>
      <path id="Trazado_165084" data-name="Trazado 165084" d="M952.989,944.587a23.383,23.383,0,0,0-.408,9.328c.864,5.153.458,10.569.117,15.842-.1,1.6-1.774,3.093-2.726,4.635l-.652-.163q-1.127-10.9-2.255-21.791c2.969,4.8,2.969,4.8,2.969,11.119V970.5l1.049-.013c0-1.246.011-2.493,0-3.74-.021-1.908-.07-3.816-.087-5.725-.026-3.038-.032-6.077-.062-9.116,0-.146-.145-.289-.319-.614l-1.406,1.7c0-4.078.043-7.522-.028-10.963a22.469,22.469,0,0,0-.557-2.96,4.362,4.362,0,0,1,.025-1.4c.018-.1.6-.261.661-.186a2.534,2.534,0,0,1,.687,1.216c.088,1.82.052,3.645.081,5.468.015.9.075,1.8.115,2.7l.737,0v-11.79l1-.015c0,2.393-.1,4.792.052,7.175a7.729,7.729,0,0,0,1.083,2.432Z" transform="translate(-798.396 -847.439)" fill="#1d272b"/>
      <path id="Trazado_165085" data-name="Trazado 165085" d="M967.128,954.74a18.441,18.441,0,0,1-.922-3.613c-.094-5.373-.024-10.75-.123-16.123-.029-1.592-.534-3.173-.6-4.768a17.709,17.709,0,0,1,.617-3.461c2.88,2.352,1.664,4.854,1.749,7.086q.056,1.462.069,2.926c.017,2.252.651,4.768-.148,6.682-.817,1.953.129,3,.6,4.419C969.084,950.037,969.57,952.164,967.128,954.74Z" transform="translate(-807.206 -843.473)" fill="#1d272b"/>
      <path id="Trazado_165086" data-name="Trazado 165086" d="M958.331,943.562c.054-1.734-1.117-3.625,1.207-5.044.588-.359.189-2.418.146-3.693-.021-.614-.289-1.219-.374-1.837a3.562,3.562,0,0,1,.852-.238,6.584,6.584,0,0,1,.646,2.08c.065,3.037-.089,6.08.046,9.112.2,4.54.631,9.07.828,13.61.031.722-.646,1.475-1,2.213a9.161,9.161,0,0,1-.773-2.2c-.361-4.262-.614-8.534-.961-12.8-.036-.446-.451-.862-.689-1.292Z" transform="translate(-803.668 -846.332)" fill="#1d272b"/>
      <path id="Trazado_165087" data-name="Trazado 165087" d="M806.257,1179.643c8.3,4.9,4.481,12.067,3.8,18.519-.1-2.106-.2-4.213-.316-6.536-2.617,1.349-5.081.769-6.569-1.215-1.182-1.576-2.194-3.89-.039-6.018.38,1.3.7,2.56,1.117,3.783.582,1.695,1.644,2.547,3.412,1.495,1.481-.882,2.789-1.827,1.57-3.933C808.168,1183.9,807.352,1181.915,806.257,1179.643Z" transform="translate(-728.925 -964.466)" fill="#1d272b"/>
      <path id="Trazado_165088" data-name="Trazado 165088" d="M710.073,929.907c.028,2.127,1.264,4.047.314,6.425-.478,1.2.635,2.938.566,4.411a50.791,50.791,0,0,1-.957,7.5c-.7,3.538-1.594,7.04-2.459,10.544-.317,1.285-.785,2.532-1.185,3.8l-.764-.128c.376-2.586.761-5.17,1.125-7.757.6-4.268,1.277-8.528,1.753-12.81.441-3.969.662-7.963.979-11.946Z" transform="translate(-682.855 -844.972)" fill="#1d272b"/>
      <path id="Trazado_165089" data-name="Trazado 165089" d="M668.5,905.92c-1.282-10.853.633-21.351,3.726-31.822a10.118,10.118,0,0,1,.14,2.305c-.483,2.918-1.142,5.809-1.6,8.731-.447,2.867-.763,5.756-1.071,8.642C669.266,897.821,668.9,901.872,668.5,905.92Z" transform="translate(-664.915 -818.269)" fill="#1d272b"/>
      <path id="Trazado_165090" data-name="Trazado 165090" d="M741.7,815.3c1.253-3.829,2.522-7.653,3.754-11.488,1.005-3.129,1.811-6.333,3.012-9.383.662-1.681,2.014-3.079,2.951-4.666.785-1.33,1.421-2.748,2.233-4.345.343,1.622.61,3.053-.69,4.675a31.2,31.2,0,0,0-6.427,14.183c-.583,3.183-2.141,6.2-3.4,9.236-.266.642.707,2.584-1.438,1.786Z" transform="translate(-700.132 -775.84)" fill="#1d272b"/>
      <path id="Trazado_165091" data-name="Trazado 165091" d="M719.792,915.469c0-4.881-.121-9.1.117-13.3.04-.716,1.571-1.429,2.512-1.97.379-.218,1.026.03,2.073.1l-1.313,10.912-.491.013c-.1-1.557-.2-3.113-.338-5.409C720.576,909.122,723.053,912.606,719.792,915.469Z" transform="translate(-689.636 -830.717)" fill="#1d272b"/>
      <path id="Trazado_165092" data-name="Trazado 165092" d="M715.528,1153.356c1.194,2.259,2.89,4.4,3.459,6.807.795,3.36.753,6.919,1.044,10.4.017.2-.192.427-.34.73a21.711,21.711,0,0,1-2-2.6,4.173,4.173,0,0,1-.594-3.424c.343-1.335-.71-3.022-1.131-4.559-.668-2.442-2.577-4.824-.37-7.414Z" transform="translate(-687.15 -951.857)" fill="#1d272b"/>
      <path id="Trazado_165093" data-name="Trazado 165093" d="M922.648,947.079c0,6.656.07,13.314-.081,19.966-.021.919-1.4,1.742-1.675,2.74a14.013,14.013,0,0,0-.07,3.592l-.684.03a37.688,37.688,0,0,1,.066-6.528c.723-4.047,2.325-7.928,1.083-12.207a20.054,20.054,0,0,1-.414-5.782c.01-.709.656-1.409,1.012-2.113Z" transform="translate(-785.454 -853.044)" fill="#1d272b"/>
      <path id="Trazado_165094" data-name="Trazado 165094" d="M815.584,797.085c.145-1.631.261-2.937.392-4.407-1.907-.349-.94,4.306-4.047,2.028a8.345,8.345,0,0,0,1.286-2.116,9.7,9.7,0,0,0-.25-2.853h6.78C820.407,793.591,819.134,795.951,815.584,797.085Z" transform="translate(-733.736 -777.904)" fill="#1d272b"/>
      <path id="Trazado_165095" data-name="Trazado 165095" d="M910.995,957.7c-.359,8.754-.71,17.508-1.117,26.26-.01.222-.619.416-1.06.694.85-9.117-.669-18.165,1.283-26.994Z" transform="translate(-780.096 -858.254)" fill="#1d272b"/>
      <path id="Trazado_165096" data-name="Trazado 165096" d="M694.213,918.528l4.956-17,.99.291-3.949,16.708Z" transform="translate(-677.412 -831.394)" fill="#1d272b"/>
      <path id="Trazado_165097" data-name="Trazado 165097" d="M809.763,1170.206c.754.032,1.781-.244,2.218.145,3.676,3.263,6.935,6.883,7.539,12.035a14.692,14.692,0,0,1-.509,4.435,12.386,12.386,0,0,1-1.627,4.153c0-1.169-.358-2.489.06-3.482,2.146-5.081.163-9.153-2.979-12.9a52.245,52.245,0,0,0-4.674-4.446A.486.486,0,0,0,809.763,1170.206Z" transform="translate(-732.7 -959.919)" fill="#1d272b"/>
      <path id="Trazado_165098" data-name="Trazado 165098" d="M858.157,1190.348l-.793.468a16.825,16.825,0,0,0-2.933,10.672c-2.09-4.126.082-13.132,4.852-14.958l-.077-.062Z" transform="translate(-753.692 -967.732)" fill="#1d272b"/>
      <path id="Trazado_165099" data-name="Trazado 165099" d="M938.154,1183.744a32.318,32.318,0,0,1-.339,3.614c-.6,2.971-1.292,5.926-2,8.873a15.327,15.327,0,0,1-1.5,3.948c-.418-5.864,1.527-11.191,3.856-16.434A.039.039,0,0,0,938.154,1183.744Z" transform="translate(-792.267 -966.428)" fill="#1d272b"/>
      <path id="Trazado_165100" data-name="Trazado 165100" d="M680.745,939.267l3.145-16.353.839.139c.264,5.653-2.3,10.863-2.82,16.393Z" transform="translate(-670.968 -841.626)" fill="#1d272b"/>
      <path id="Trazado_165101" data-name="Trazado 165101" d="M671.472,940.539,668.3,956.888l-.671-.106c-.742-5.693,2.439-10.784,2.663-16.328Z" transform="translate(-664.641 -850.019)" fill="#1d272b"/>
      <path id="Trazado_165102" data-name="Trazado 165102" d="M721.06,832.493l-2.075,15.354c-1.3-5.363-.2-10.43,1.317-15.448Z" transform="translate(-688.99 -798.317)" fill="#1d272b"/>
      <path id="Trazado_165103" data-name="Trazado 165103" d="M741.109,842.717c.187,1.528.374,3.056.584,4.768l2.021-.6-.069-.055-2.4,8.87-.777-.054.645-12.926Z" transform="translate(-699.544 -803.254)" fill="#1d272b"/>
      <path id="Trazado_165104" data-name="Trazado 165104" d="M949.347,890.155a21.285,21.285,0,0,1,.035-3.658c.5-2.815,1.143-5.607,1.826-8.385.1-.4.736-.677,1.123-1.011.212.506.692,1.075.592,1.51-.893,3.876-1.89,7.729-2.856,11.587Z" transform="translate(-799.456 -819.706)" fill="#1d272b"/>
      <path id="Trazado_165105" data-name="Trazado 165105" d="M725.92,886.727c-.888-1.8-2.134-3.315-2.319-4.951-.228-2.017.426-4.135.73-6.445l2.461,2.276c-1.238.51-1.617.927-1.031,2.562C726.442,882.064,725.92,884.389,725.92,886.727Z" transform="translate(-691.451 -818.859)" fill="#1d272b"/>
      <path id="Trazado_165106" data-name="Trazado 165106" d="M761.388,797.668c-.82,3.46-1.224,7.148-5.532,8.714l4.763-9.179Z" transform="translate(-706.907 -781.476)" fill="#1d272b"/>
      <path id="Trazado_165107" data-name="Trazado 165107" d="M916.661,982.7v-14.5l.867-.005v14.478Z" transform="translate(-783.849 -863.295)" fill="#1d272b"/>
      <path id="Trazado_165108" data-name="Trazado 165108" d="M786.7,907.01c-.695,2.789-.924,5.658-4.672,6.7.394-.84.692-1.366.891-1.927a6.338,6.338,0,0,0,.665-2.356C783.4,906.865,783.855,906.422,786.7,907.01Z" transform="translate(-719.43 -833.906)" fill="#1d272b"/>
      <path id="Trazado_165109" data-name="Trazado 165109" d="M828.383,768.272l-.718,1.58c-.91-.868-1.751,1.613-3.193-.223-.961-1.223-3.713-1.04-5.663-1.488-.311-.072-.621-.147-.931-.221q.033-.436.066-.872c1.255.1,2.516.167,3.765.318C823.786,767.617,825.854,767.925,828.383,768.272Z" transform="translate(-736.583 -767.048)" fill="#1d272b"/>
      <path id="Trazado_165110" data-name="Trazado 165110" d="M704.087,997.746c-.159,1.939-.337,3.876-.467,5.817-.063.949.009,1.907-.061,2.855-.062.827-.237,1.646-.363,2.468l-1.274-.17q.552-5.517,1.1-11.035Z" transform="translate(-681.101 -877.4)" fill="#1d272b"/>
      <path id="Trazado_165111" data-name="Trazado 165111" d="M683.872,889.212l-1.889,8.8-.507-.184c0-2.479-.119-4.967.082-7.43.052-.634,1.111-1.185,1.708-1.774Z" transform="translate(-671.301 -825.22)" fill="#1d272b"/>
      <path id="Trazado_165112" data-name="Trazado 165112" d="M698.026,965.045c-.936-4.442.3-8.628,1.036-12.889l1.157.176Z" transform="translate(-679.075 -855.618)" fill="#1d272b"/>
      <path id="Trazado_165113" data-name="Trazado 165113" d="M714.349,877.891q-1.061,6.278-2.124,12.556l-.82-.114,1.826-12.566Z" transform="translate(-685.638 -820.025)" fill="#1d272b"/>
      <path id="Trazado_165114" data-name="Trazado 165114" d="M933.789,883.158c-.513-3.323.412-6.351,1.728-9.3l.767.147q-.893,4.662-1.786,9.323Z" transform="translate(-791.975 -818.154)" fill="#1d272b"/>
      <path id="Trazado_165115" data-name="Trazado 165115" d="M902.8,988.991c1.931,2.574,1.154,5.464,1.139,8.266l-.853.107-1.1-8.271Z" transform="translate(-776.826 -873.243)" fill="#1d272b"/>
      <path id="Trazado_165116" data-name="Trazado 165116" d="M863.742,915.626l2.328,2.485-.351,3.577-.948.022c-.725-1.742-1.477-3.474-2.117-5.246C862.606,916.333,863.361,915.912,863.742,915.626Z" transform="translate(-758.006 -838.139)" fill="#1d272b"/>
      <path id="Trazado_165117" data-name="Trazado 165117" d="M675.873,978.951q.433-5.49.865-10.979l1.058.073q-.509,5.47-1.019,10.938Z" transform="translate(-668.637 -863.185)" fill="#1d272b"/>
      <path id="Trazado_165118" data-name="Trazado 165118" d="M947.686,908.927l.831,7.314-2.155,2.03c.3-3.132.593-6.213.888-9.3Z" transform="translate(-798.06 -834.934)" fill="#1d272b"/>
      <path id="Trazado_165119" data-name="Trazado 165119" d="M693.633,990.961c-.2,3.023.846,6.186-1.141,9.012l-.743-.083q.566-4.482,1.132-8.964Z" transform="translate(-676.233 -874.169)" fill="#1d272b"/>
      <path id="Trazado_165120" data-name="Trazado 165120" d="M720.508,1018.871c-1.925-2.474,1.4-2.723,1.4-4.654l2.327,3.176Z" transform="translate(-689.707 -885.313)" fill="#1d272b"/>
      <path id="Trazado_165121" data-name="Trazado 165121" d="M776.737,913.426c.39-1.745.7-2.9.895-4.07.211-1.26.317-2.539.47-3.828C780.193,906.679,779.726,911.018,776.737,913.426Z" transform="translate(-716.898 -833.308)" fill="#1d272b"/>
      <path id="Trazado_165122" data-name="Trazado 165122" d="M784,867.8c-2.2-4.333-1.958-5.674,1.232-6.365Z" transform="translate(-719.683 -812.21)" fill="#1d272b"/>
      <path id="Trazado_165123" data-name="Trazado 165123" d="M904.252,975c0,1.618.054,3.239-.042,4.851-.021.352-.579.672-.89,1.008-.272-.375-.805-.776-.771-1.12.164-1.641.482-3.266.745-4.9Z" transform="translate(-777.096 -866.471)" fill="#1d272b"/>
      <path id="Trazado_165124" data-name="Trazado 165124" d="M861.272,927.717c-3.263,1.809-3.263,1.809-4.525-2.337l2.384,2.29c.1-.985.153-1.585.211-2.186l.551-.2Z" transform="translate(-755.181 -842.762)" fill="#1d272b"/>
      <path id="Trazado_165125" data-name="Trazado 165125" d="M843.431,774.6c-.028-1.384-.136-2.772-.04-4.147a1.771,1.771,0,0,1,.941-1.22,1.465,1.465,0,0,1,1.385.286,1.946,1.946,0,0,1,.153,1.68,38.742,38.742,0,0,1-2.515,3.33Z" transform="translate(-748.772 -768.06)" fill="#1d272b"/>
      <path id="Trazado_165126" data-name="Trazado 165126" d="M688.8,864.091c-.235-1.476-.34-2.134-.567-3.564l-.975,2.806-.623-.109c.219-1.3.438-2.592.758-4.491l2.733,2.437Z" transform="translate(-673.788 -810.917)" fill="#1d272b"/>
      <path id="Trazado_165127" data-name="Trazado 165127" d="M924.246,926.517v8.08l-.48.006v-8.1Z" transform="translate(-787.248 -843.341)" fill="#1d272b"/>
      <path id="Trazado_165128" data-name="Trazado 165128" d="M708.755,860.21l-2.282,6.449-.81-.252q.875-3.3,1.75-6.593Z" transform="translate(-682.89 -811.434)" fill="#1d272b"/>
      <path id="Trazado_165129" data-name="Trazado 165129" d="M723.684,941.558v-8.075c.423,2.678,1.582,5.374-.06,8Z" transform="translate(-691.485 -846.683)" fill="#1d272b"/>
      <path id="Trazado_165130" data-name="Trazado 165130" d="M678.233,860.285q-.607,2.749-1.215,5.5l-.759-.107c.293-1.88-.945-3.956,1.117-5.607Z" transform="translate(-668.771 -811.557)" fill="#1d272b"/>
      <path id="Trazado_165131" data-name="Trazado 165131" d="M964.306,989.129v7.208l-.479.009V989.1Z" transform="translate(-806.417 -873.294)" fill="#1d272b"/>
      <path id="Trazado_165132" data-name="Trazado 165132" d="M852.791,877.749l-3.116-2.648c1.345-.274,2.547-.881,3.008-.527.652.5.756,1.714,1.094,2.623Z" transform="translate(-751.797 -818.445)" fill="#1d272b"/>
      <path id="Trazado_165133" data-name="Trazado 165133" d="M714.936,1013.5c1,1.467,2.926,3.055,0,4.858Z" transform="translate(-687.328 -884.971)" fill="#1d272b"/>
      <path id="Trazado_165134" data-name="Trazado 165134" d="M746.624,845.726c.053-1.679.106-3.357.172-5.427,2.461,1.65,2.447,1.639,1.329,3.1-.558.73-1.056,1.507-1.575,2.266Z" transform="translate(-702.454 -802.097)" fill="#1d272b"/>
      <path id="Trazado_165135" data-name="Trazado 165135" d="M690.107,890.711a15.33,15.33,0,0,1,1.259,3.356c.066.592-.538,1.325-.988,1.874-.168.2-.755.067-1.15.085.065-.589.1-1.183.2-1.766C689.6,893.237,689.816,892.22,690.107,890.711Z" transform="translate(-675.027 -826.218)" fill="#1d272b"/>
      <path id="Trazado_165136" data-name="Trazado 165136" d="M729.109,913.275c.009,1.817.121,3.643-.029,5.447-.05.6-.765,1.152-1.176,1.725l.066.068c.071-1.7.055-3.419.255-5.108a7.361,7.361,0,0,1,.955-2.064Z" transform="translate(-693.533 -837.014)" fill="#1d272b"/>
      <path id="Trazado_165137" data-name="Trazado 165137" d="M969.664,981.533c-.153,2.339-.293,4.475-.465,7.113C967.911,985.507,968.209,982.417,969.664,981.533Z" transform="translate(-808.597 -869.674)" fill="#1d272b"/>
      <path id="Trazado_165138" data-name="Trazado 165138" d="M815.145,999.954l1.6-3.17,2.423,3.033-.455.508Z" transform="translate(-735.275 -876.972)" fill="#1d272b"/>
      <path id="Trazado_165139" data-name="Trazado 165139" d="M727.248,927.027c.126,2.294.253,4.588.407,7.383-1.434-2.2-1.438-6.2-.334-7.308Z" transform="translate(-692.876 -843.594)" fill="#1d272b"/>
      <path id="Trazado_165140" data-name="Trazado 165140" d="M767.327,774.305l4.529-4.779.54.477-4.3,5.019Z" transform="translate(-712.395 -768.234)" fill="#1d272b"/>
      <path id="Trazado_165141" data-name="Trazado 165141" d="M860.839,869.949l3.427,2.679-.976,1.132-3.213-2.954Z" transform="translate(-756.775 -816.284)" fill="#1d272b"/>
      <path id="Trazado_165142" data-name="Trazado 165142" d="M940.584,950.818c-2.991-1.116-1.153-3.435-1.676-5.165l1.062-.176q.28,2.7.555,5.413Z" transform="translate(-794.451 -852.422)" fill="#1d272b"/>
      <path id="Trazado_165143" data-name="Trazado 165143" d="M802.2,794.034l3.069-2.24,1.07,1.977-4.044.855Q802.242,794.33,802.2,794.034Z" transform="translate(-729.079 -778.888)" fill="#1d272b"/>
      <path id="Trazado_165144" data-name="Trazado 165144" d="M735.71,1192.814l-2.088-5.711.665-.232,2.43,5.583Z" transform="translate(-696.268 -967.924)" fill="#1d272b"/>
      <path id="Trazado_165145" data-name="Trazado 165145" d="M941.129,1037.263l-.77-4.654.778-.163q.688,2.249,1.374,4.5Z" transform="translate(-795.188 -894.035)" fill="#1d272b"/>
      <path id="Trazado_165146" data-name="Trazado 165146" d="M858.951,847.491l-4.124-2.567c2.16-.615,3.332.325,4.042,2.649Z" transform="translate(-754.262 -804.222)" fill="#1d272b"/>
      <path id="Trazado_165147" data-name="Trazado 165147" d="M699.5,1150.832l1.277,7.276-.912.144-1.225-7.284Z" transform="translate(-679.532 -950.68)" fill="#1d272b"/>
      <path id="Trazado_165148" data-name="Trazado 165148" d="M878.139,818.032c-1.792.556-1.83-.535-1.686-1.8q.408-1.592.816-3.183c2.049.023,2.335.955,1.2,3.937C878.36,817.341,878.249,817.686,878.139,818.032Z" transform="translate(-764.585 -789.06)" fill="#1d272b"/>
      <path id="Trazado_165149" data-name="Trazado 165149" d="M734.848,1138.632v4.879" transform="translate(-696.855 -944.843)" fill="#1d272b"/>
      <path id="Trazado_165150" data-name="Trazado 165150" d="M968.348,1123.373l3.663-4.969c.231.59.8,1.57.641,1.707C971.293,1121.285,969.8,1122.306,968.348,1123.373Z" transform="translate(-808.58 -935.164)" fill="#1d272b"/>
    </g>
  </g>
</svg>
