<svg xmlns="http://www.w3.org/2000/svg" width="345.362" height="326.492" viewBox="0 0 345.362 326.492">
  <g id="img11" transform="translate(-272.208 -2550.142)">
    <g id="Grupo_128166" data-name="Grupo 128166" transform="translate(-689.914 456.366)">
      <path id="Trazado_151846" data-name="Trazado 151846" d="M372.267,403.56a84.693,84.693,0,0,0,9.589-68.419c-4.252-14.395-12.411-27.768-13.454-42.779-2.087-30.012,24.215-54.275,29.671-83.833,2.4-12.99-.218-28.124-10.5-36.015-10.154-7.793-24.646-6.2-36.141-.744s-21.222,14.2-32.259,20.583-24.626,10.336-36.281,5.253c-11.806-5.15-18.5-18.13-22.253-30.78s-5.592-26.125-11.994-37.586c-10.551-18.889-33.047-29.188-54.01-26.523s-39.694,17.264-49.741,36.444-11.8,42.378-6.8,63.562c2.537,10.744,6.716,21.033,8.995,31.839s2.487,22.633-2.6,32.366c-10.639,20.353-38.706,23.191-53.4,40.646-12.131,14.406-12.511,36.39-5.627,54.106s19.822,32.09,32.721,45.765c60.167,2.088,121.412,2.226,181.58,4.314C323.143,412.57,348.91,404.98,372.267,403.56Z" transform="translate(881.161 2008.448)" fill="#a4a4b4" opacity="0.354" style="mix-blend-mode: multiply;isolation: isolate"/>
      <path id="Trazado_151847" data-name="Trazado 151847" d="M359.21,180.7c-.192,18.824,19.307,35.207,15.914,53.772-1.814,9.933-10.062,20-5.269,29.063,4.24,8.017,16.386,9.407,25.673,6.8,21.738-6.1,34.951-26.494,41.27-46.534,5.944-18.85,7.419-39.9-2.1-57.477-7.67-14.157-25.367-26.656-43.337-25.5C374.9,141.889,359.354,166.526,359.21,180.7Z" transform="translate(865.936 2014.511)" fill="#a4a4b4" opacity="0.31" style="mix-blend-mode: multiply;isolation: isolate"/>
      <path id="Trazado_151848" data-name="Trazado 151848" d="M117.736,147.521a69.768,69.768,0,0,0-1.633,73.1c4.2,7.076,9.878,13.671,17.542,17.605s17.55,4.813,25.178.82c11.568-6.056,14.127-20.339,13.206-32.532s-3.931-24.975,1.186-36.259c3.336-7.355,9.74-13.09,15.422-19.113s10.984-13.054,11.278-21.016c.761-20.64-23.117-19.1-37.508-14.811C144.033,120.792,127.7,132.27,117.736,147.521Z" transform="translate(923.56 1992.522)" fill="#a4a4b4" opacity="0.31" style="mix-blend-mode: multiply;isolation: isolate"/>
      <g id="Grupo_107069" data-name="Grupo 107069" transform="translate(972.666 2104.393)" style="mix-blend-mode: multiply;isolation: isolate">
        <path id="Trazado_151849" data-name="Trazado 151849" d="M364.37,407.713l-1.27-1.22c3.5-4.018,9.075-13.229,7.186-29.79-.84-7.372-2.925-14.654-4.94-21.7-.9-3.146-1.831-6.4-2.643-9.63a156.6,156.6,0,0,1,10.4-104.322c1.357-2.824,2.825-5.659,4.246-8.4,4.211-8.124,8.565-16.527,10.438-25.6,3.284-15.926-3.208-27.863-10.628-32.214-7.12-4.176-17.169-3.538-27.571,1.752-3.805,1.934-7.5,4.3-11.08,6.589a100.928,100.928,0,0,1-14.861,8.366c-20.646,8.712-46.459,1.308-60.041-17.219-6.528-8.9-10.214-19.664-13.778-30.07-1.381-4.032-2.809-8.2-4.38-12.193-4.885-12.405-13.826-27.977-28.677-31.7-13.05-3.274-26.267,3.922-35.055,10.535-16.814,12.653-28.666,29.789-33.375,48.25-3.174,12.449-3.3,26-3.426,39.1-.184,19.514-.374,39.693-10.852,55.944-4.767,7.393-11.323,13.291-17.662,19-5.938,5.342-12.078,10.867-16.655,17.563-10.371,15.172-12.914,36.653-6.975,58.935,5.337,20.02,16.215,37.783,26.734,54.962l-1.446.978c-10.588-17.29-21.538-35.17-26.944-55.452-6.081-22.814-3.444-44.858,7.234-60.478,4.7-6.874,10.918-12.469,16.932-17.882,6.254-5.627,12.721-11.446,17.357-18.636,10.187-15.8,10.366-34.815,10.556-54.947.125-13.217.253-26.883,3.486-39.555,4.811-18.864,16.9-36.355,34.034-49.252,9.079-6.832,22.773-14.255,36.455-10.823,15.558,3.9,24.829,19.973,29.867,32.768,1.587,4.029,3.022,8.22,4.409,12.272,3.519,10.274,7.158,20.9,13.522,29.578,13.13,17.91,38.082,25.066,58.04,16.645a99.805,99.805,0,0,0,14.608-8.232c3.611-2.311,7.344-4.7,11.224-6.673,10.912-5.549,21.54-6.172,29.158-1.7,7.957,4.667,14.941,17.352,11.472,34.178-1.925,9.33-6.339,17.848-10.609,26.085-1.414,2.728-2.877,5.549-4.221,8.348a154.675,154.675,0,0,0-10.275,103.044c.8,3.2,1.732,6.44,2.627,9.572,2.036,7.116,4.143,14.474,5,22C373.964,393.766,368.062,403.469,364.37,407.713Z" transform="translate(-87.906 -97.739)" fill="#a4a4b4"/>
      </g>
    </g>
    <g id="Grupo_128168" data-name="Grupo 128168" transform="translate(-1694.636 2789.104)">
      <g id="Grupo_128167" data-name="Grupo 128167" transform="translate(2029.843 -238.962)">
        <path id="Trazado_165170" data-name="Trazado 165170" d="M2212.556-164.957c-2.791,7.36-3.655,12.769,2.531,20.758,14.831,19.16,8.225,38.434-14.545,48.073-4.467,1.886-6.575,4.518-8.308,8.522-6.173,14.275-16.518,25.255-30.244,31.685-10.067,4.715-7.806,12.368-7.889,19.715-.125,11.141,8.814,7.063,14.071,7.059,11.735,0,32.445,8.666,32.445,8.666s13.973,16.194,14.471,18.962c-3.454.271-19.889-10.122-23.342-9.855l-.008-.039s-4.972-4.348-8.657-3.689a5.19,5.19,0,0,0-3.986-.327c-9.783-7.2-21.9-1.484-32.2-5.867-.9-2.694-2.51-5.361-2.589-8.081-.279-9.334,1.175-17.811-13.558-18.121-13.093-.275-13.617,6.3-14.053,15.511-.41,8.6-5.313,11.647-13.843,12.721-50.942,6.417-61.834,19.1-61.572,70.111.14,27.285.375,27.451,28.463,20.632,3.13-8.949-17.995-18.72,1.5-26.9,5.645,19.715,14.363,35.278,39.133,29.184l38.578-.1c26.072,8.439,34.851-11.665,43.782-31.8,9.029,14.245-1.956,21.666-2.624,32.1h14.625c11.94,2.567,15.681-1.9,16.615-14.406,1.7-22.736-12.087-49.981-18.654-70.971,17.026,1.118,24.714,22.876,26.42,33.174,3.227,19.51,8.025,42.844-1.633,58.442-7.234,11.687-30.511,3.558-46.576,3.789-44.2.629-88.42-.262-132.613.5-13.8.24-19.619-3.514-18.27-18,1.122-12.058-.445-24.36.572-36.435,2.729-32.467,26.486-56.259,57.264-59.236,6.081-.589,15.567,5.435,17.82-5.029,1.864-8.666,2.664-18.545-8.438-23.5-1.411-.629-1.759-3.637-2.6-5.536,13.8-3.667,25.766,6.216,39.718,4.8,24.9-2.528,47.973-21.719,52.562-46.244,4.644-24.831-.24-35-21.391-44.555,3.571-6.531,9.887-4.06,15.24-4.6,4.8-.485,11.133.72,11.2-6.43.066-6.461-4.413-11.023-10.939-10.543-12.324.912-25.474-4.558-36.788,5.374-6.331,5.553-15.765,7.378-21.955,2.55-13.979-10.914-29.533-7.911-44.826-8.185-6.727-.122-16.327-2.069-16.664,8.028-.327,9.871,8.832,9.12,15.922,9.176,7.111.052,14.327-.825,21.316.087,18.559,2.427,37.967-5.763,55.84,4.545-8.77,9.748-20.819,2.126-30.729,5.832l-38.238.092c-10.2-2.824-14.449.637-11.879,11.316-1.611,17.327-1.257,34.2,11.228,48.222l1.5,12.145c-4.78,1.1-8.43-.541-10.622-4.868-5.423-10.7-11.634-18.545-24.643-23.033-14.472-4.994-14.249-29.433-1.947-49.043l1.332-.214.379-1.3c5.151-1.2,2.68-2.646.126-4.09l-1.292-8.251c6.37-26.94,24.679-43.8,47.719-56.516,6.767-3.737,13.508-6.836,18.969-13.005,5.993-6.771,14.986-9.609,23.22-4.1,19.069,12.761,38.373,25.329,56.9,38.648C2204.423-191.282,2204.166-174.6,2212.556-164.957Zm-89.665-10.172c6.392,7.666,14.559,5.758,16.794-1.489,4.623-14.97,5.095-31.336-.279-46.148-2.746-7.561-11.194-7.3-17.2-.45C2117.055-207.111,2116.047-191.064,2122.892-175.129Zm74.373,52.011c1.777,5.343-3.554,15.135,5.438,15.563,8.587.41,9.5-9.451,9.639-16.209.131-6.858-1.1-16.637-9.858-15.746C2194.461-138.7,2198.564-129.038,2197.264-123.118Zm-24.687-57.49c6.518-1.615,18.217,2.58,17.942-5.684-.257-7.858-14.337-3.829-20.99-10.355-3.375-3.309-10.822,4.649-10.945,9.748C2158.322-176.055,2167.9-182.957,2172.577-180.608ZM2103.7-181.83c-2.012-9.12-7.089-19.339-13.9-13.725-6.082,5.012-19.867.615-17.842,10.22,1.843,8.718,13.516,3.361,20.784,4.4C2095.965-180.481,2099.393-181.429,2103.7-181.83Zm-43.66,74.341c4.737-4.942,2.716-10.962,2.371-16.183-.357-5.435,4.144-15.572-5.077-15.148-8.709.4-7.6,10.6-7.2,17.611C2050.5-114.854,2051.3-108.188,2060.045-107.489Z" transform="translate(-2029.842 238.962)" fill="#1d272b"/>
        <path id="Trazado_165176" data-name="Trazado 165176" d="M2141.675-201.245q-5.829,0-11.656,0c-17.873-10.307-37.281-2.117-55.84-4.545-6.99-.912-14.206-.035-21.317-.087-7.09-.057-16.249.694-15.922-9.176.337-10.1,9.936-8.15,16.664-8.028,15.293.275,30.847-2.728,44.826,8.185,6.19,4.828,15.624,3,21.955-2.55,11.314-9.932,24.465-4.462,36.788-5.374,6.526-.48,11.005,4.082,10.939,10.543-.065,7.151-6.4,5.946-11.2,6.43C2151.562-205.3,2145.246-207.776,2141.675-201.245Z" transform="translate(-2005.982 290.965)" fill="#d93328"/>
        <path id="Trazado_165179" data-name="Trazado 165179" d="M2051-231.361c6.011-6.854,14.459-7.112,17.2.45,5.374,14.812,4.9,31.179.28,46.148-2.236,7.247-10.4,9.155-16.8,1.489C2058.87-199.409,2060-215.457,2051-231.361Z" transform="translate(-1958.639 247.107)" fill="#db8804"/>
        <path id="Trazado_165181" data-name="Trazado 165181" d="M2073.329-212.628c-4.676-2.349-14.254,4.553-13.992-6.291.123-5.1,7.57-13.057,10.945-9.748,6.653,6.526,20.732,2.5,20.989,10.355C2091.546-210.048,2079.846-214.243,2073.329-212.628Z" transform="translate(-1930.594 270.982)" fill="#008f85"/>
        <path id="Trazado_165182" data-name="Trazado 165182" d="M2071.391-214.057c-4.312.4-7.74,1.349-10.962.891-7.268-1.035-18.942,4.322-20.784-4.4-2.025-9.6,11.76-5.208,17.842-10.22C2064.3-233.4,2069.379-223.177,2071.391-214.057Z" transform="translate(-1997.529 271.189)" fill="#008f85"/>
        <path id="Trazado_165183" data-name="Trazado 165183" d="M2054.2-235.355c9,15.9,7.871,31.952.685,48.087C2048.047-203.2,2049.054-219.251,2054.2-235.355Z" transform="translate(-1961.842 251.101)" fill="#db8804"/>
      </g>
      <circle id="Elipse_4385" data-name="Elipse 4385" cx="4.304" cy="4.304" r="4.304" transform="translate(2106.241 -127.467)" fill="#1d272b"/>
      <circle id="Elipse_4386" data-name="Elipse 4386" cx="4.304" cy="4.304" r="4.304" transform="translate(2140.225 -127.467)" fill="#1d272b"/>
      <path id="Trazado_165187" data-name="Trazado 165187" d="M2047.343-205.946s25.9,6.2,42.717,0" transform="translate(58.899 111.117)" fill="#1d272b" stroke="#030504" stroke-miterlimit="10" stroke-width="2"/>
    </g>
  </g>
</svg>
