<svg xmlns="http://www.w3.org/2000/svg" xmlns:xlink="http://www.w3.org/1999/xlink" width="236.672" height="236.312" viewBox="0 0 236.672 236.312">
  <defs>
    <linearGradient id="linear-gradient" x1="0.5" x2="0.5" y2="1" gradientUnits="objectBoundingBox">
      <stop offset="0" stop-color="#fff"/>
      <stop offset="1" stop-color="#f8f8f8"/>
    </linearGradient>
    <filter id="Rectángulo_29523" x="0" y="0" width="236.672" height="236.312" filterUnits="userSpaceOnUse">
      <feOffset dy="3" input="SourceAlpha"/>
      <feGaussianBlur stdDeviation="3" result="blur"/>
      <feFlood flood-opacity="0.161"/>
      <feComposite operator="in" in2="blur"/>
      <feComposite in="SourceGraphic"/>
    </filter>
    <radialGradient id="radial-gradient" cx="0.076" cy="0.019" r="1.465" gradientTransform="translate(0.001)" gradientUnits="objectBoundingBox">
      <stop offset="0" stop-color="#f6f6f7"/>
      <stop offset="0.477" stop-color="#f9f9fa"/>
      <stop offset="0.715" stop-color="#fff"/>
    </radialGradient>
  </defs>
  <g id="img29" transform="translate(-270.076 -2914.593)">
    <g id="Grupo_61744" data-name="Grupo 61744" transform="translate(272 2913.391)">
      <g id="Grupo_57070" data-name="Grupo 57070" transform="translate(0 0)">
        <g transform="matrix(1, 0, 0, 1, -1.92, 1.2)" filter="url(#Rectángulo_29523)">
          <rect id="Rectángulo_29523-2" data-name="Rectángulo 29523" width="218.672" height="218.312" rx="10" transform="translate(9 6)" fill="url(#linear-gradient)"/>
        </g>
        <path id="Trazado_123976" data-name="Trazado 123976" d="M185.015,982.253H403.687v8.985H306.651l-12.736,8.61-13.7-8.8-95.2.187Z" transform="translate(-177.939 -975.05)" fill="#d93328"/>
        <path id="Trazado_123977" data-name="Trazado 123977" d="M271.948,988.712l-7.319,6.865a1.845,1.845,0,0,1-2.586.019l-7.739-7.079" transform="translate(-147.512 -976.938)" fill="none" stroke="#12263f" stroke-linecap="round" stroke-miterlimit="10" stroke-width="0.806"/>
        <path id="Trazado_165454" data-name="Trazado 165454" d="M50.238,14.023H45.473L44.4,17H42.855L47.2,5.625h1.313L52.863,17H51.324ZM45.926,12.8h3.867l-1.937-5.32ZM59.09,14.758a1.064,1.064,0,0,0-.441-.91,4.249,4.249,0,0,0-1.539-.559,7.277,7.277,0,0,1-1.742-.562,2.479,2.479,0,0,1-.953-.781,1.869,1.869,0,0,1-.309-1.078,2.193,2.193,0,0,1,.879-1.758,3.432,3.432,0,0,1,2.246-.719,3.532,3.532,0,0,1,2.332.742,2.357,2.357,0,0,1,.895,1.9H59a1.3,1.3,0,0,0-.5-1.023,1.888,1.888,0,0,0-1.27-.43A1.976,1.976,0,0,0,56,9.922a1.082,1.082,0,0,0-.445.9.877.877,0,0,0,.414.789,5.1,5.1,0,0,0,1.5.508,7.8,7.8,0,0,1,1.754.578,2.558,2.558,0,0,1,1,.809,1.988,1.988,0,0,1,.324,1.152,2.163,2.163,0,0,1-.906,1.816,3.8,3.8,0,0,1-2.352.684,4.257,4.257,0,0,1-1.8-.359,2.922,2.922,0,0,1-1.223-1,2.42,2.42,0,0,1-.441-1.395h1.445a1.5,1.5,0,0,0,.582,1.152,2.258,2.258,0,0,0,1.434.426,2.331,2.331,0,0,0,1.316-.332A1.02,1.02,0,0,0,59.09,14.758Zm6.836,2.4a3.693,3.693,0,0,1-2.8-1.129,4.19,4.19,0,0,1-1.078-3.02v-.266a5.073,5.073,0,0,1,.48-2.246,3.748,3.748,0,0,1,1.344-1.547,3.378,3.378,0,0,1,1.871-.559,3.166,3.166,0,0,1,2.563,1.086,4.7,4.7,0,0,1,.914,3.109v.6H63.5a3,3,0,0,0,.73,2.02,2.3,2.3,0,0,0,1.777.77,2.517,2.517,0,0,0,1.3-.312,3.259,3.259,0,0,0,.93-.828l.883.688A3.55,3.55,0,0,1,65.926,17.156Zm-.18-7.578a1.928,1.928,0,0,0-1.469.637A3.1,3.1,0,0,0,63.543,12h4.234v-.109a2.753,2.753,0,0,0-.594-1.707A1.815,1.815,0,0,0,65.746,9.578ZM70.512,12.7A4.993,4.993,0,0,1,71,10.461,3.643,3.643,0,0,1,72.359,8.93a3.7,3.7,0,0,1,1.988-.539,3.565,3.565,0,0,1,2.793,1.2,4.6,4.6,0,0,1,1.066,3.18v.1a5.036,5.036,0,0,1-.473,2.215,3.589,3.589,0,0,1-1.352,1.527,3.743,3.743,0,0,1-2.02.547,3.556,3.556,0,0,1-2.785-1.2A4.575,4.575,0,0,1,70.512,12.8Zm1.453.172a3.616,3.616,0,0,0,.652,2.258,2.211,2.211,0,0,0,3.5-.012,3.955,3.955,0,0,0,.648-2.418,3.61,3.61,0,0,0-.66-2.254,2.1,2.1,0,0,0-1.754-.863,2.075,2.075,0,0,0-1.727.852A3.925,3.925,0,0,0,71.965,12.867Zm15.523,4.289a3.693,3.693,0,0,1-2.8-1.129,4.19,4.19,0,0,1-1.078-3.02v-.266a5.073,5.073,0,0,1,.48-2.246,3.748,3.748,0,0,1,1.344-1.547,3.378,3.378,0,0,1,1.871-.559,3.166,3.166,0,0,1,2.563,1.086,4.7,4.7,0,0,1,.914,3.109v.6H85.059a3,3,0,0,0,.73,2.02,2.3,2.3,0,0,0,1.777.77,2.517,2.517,0,0,0,1.3-.312,3.259,3.259,0,0,0,.93-.828l.883.688A3.55,3.55,0,0,1,87.488,17.156Zm-.18-7.578a1.928,1.928,0,0,0-1.469.637A3.1,3.1,0,0,0,85.105,12H89.34v-.109a2.753,2.753,0,0,0-.594-1.707A1.815,1.815,0,0,0,87.309,9.578Zm7.984,2.055,1.875-3.086h1.688l-2.766,4.18L98.941,17H97.27l-1.953-3.164L93.363,17h-1.68l2.852-4.273L91.77,8.547h1.672ZM102.348,6.5V8.547h1.578V9.664h-1.578v5.249a1.173,1.173,0,0,0,.211.763.888.888,0,0,0,.719.254,3.5,3.5,0,0,0,.688-.094V17a4.215,4.215,0,0,1-1.109.155,1.8,1.8,0,0,1-1.461-.586,2.517,2.517,0,0,1-.492-1.664V9.664H99.363V8.547H100.9V6.5Zm6.773,10.656a3.693,3.693,0,0,1-2.8-1.129,4.19,4.19,0,0,1-1.078-3.02v-.266a5.073,5.073,0,0,1,.48-2.246,3.748,3.748,0,0,1,1.344-1.547,3.378,3.378,0,0,1,1.871-.559A3.166,3.166,0,0,1,111.5,9.477a4.7,4.7,0,0,1,.914,3.109v.6h-5.727a3,3,0,0,0,.73,2.02,2.3,2.3,0,0,0,1.777.77,2.517,2.517,0,0,0,1.3-.312,3.259,3.259,0,0,0,.93-.828l.883.688A3.55,3.55,0,0,1,109.121,17.156Zm-.18-7.578a1.928,1.928,0,0,0-1.469.637A3.1,3.1,0,0,0,106.738,12h4.234v-.109a2.753,2.753,0,0,0-.594-1.707A1.815,1.815,0,0,0,108.941,9.578Zm9.234.266a4.331,4.331,0,0,0-.711-.055A1.9,1.9,0,0,0,115.535,11v6H114.09V8.547H115.5l.023.977a2.251,2.251,0,0,1,2.016-1.133,1.477,1.477,0,0,1,.641.109Zm2.7-1.3.047,1.063a3.08,3.08,0,0,1,2.531-1.219q2.68,0,2.7,3.023V17h-1.445V11.406a1.946,1.946,0,0,0-.418-1.352,1.675,1.675,0,0,0-1.277-.437,2.086,2.086,0,0,0-1.234.375,2.546,2.546,0,0,0-.828.984V17H119.5V8.547Zm7.078,4.148a4.993,4.993,0,0,1,.488-2.234A3.642,3.642,0,0,1,129.8,8.93a3.7,3.7,0,0,1,1.988-.539,3.565,3.565,0,0,1,2.793,1.2,4.6,4.6,0,0,1,1.066,3.18v.1a5.036,5.036,0,0,1-.473,2.215,3.589,3.589,0,0,1-1.352,1.527,3.743,3.743,0,0,1-2.02.547,3.556,3.556,0,0,1-2.785-1.2,4.575,4.575,0,0,1-1.066-3.164Zm1.453.172a3.616,3.616,0,0,0,.652,2.258,2.211,2.211,0,0,0,3.5-.012A3.954,3.954,0,0,0,134.2,12.7a3.61,3.61,0,0,0-.66-2.254,2.1,2.1,0,0,0-1.754-.863,2.075,2.075,0,0,0-1.727.852A3.925,3.925,0,0,0,129.4,12.867ZM44.7,36.7a4.968,4.968,0,0,1,.914-3.145,3.151,3.151,0,0,1,4.836-.074l.07-.937h1.32V40.8a3.439,3.439,0,0,1-.973,2.586,3.589,3.589,0,0,1-2.613.945,4.348,4.348,0,0,1-1.789-.391,3.08,3.08,0,0,1-1.336-1.07l.75-.867a2.826,2.826,0,0,0,2.273,1.148,2.214,2.214,0,0,0,1.645-.594,2.269,2.269,0,0,0,.59-1.672v-.727a2.971,2.971,0,0,1-2.367,1,2.887,2.887,0,0,1-2.4-1.2A5.224,5.224,0,0,1,44.7,36.7Zm1.453.164a3.79,3.79,0,0,0,.586,2.246,1.9,1.9,0,0,0,1.641.816,2.117,2.117,0,0,0,2.008-1.242V34.828a2.142,2.142,0,0,0-1.992-1.211,1.921,1.921,0,0,0-1.648.82A4.128,4.128,0,0,0,46.148,36.867Zm11.375,4.289a3.693,3.693,0,0,1-2.8-1.129,4.19,4.19,0,0,1-1.078-3.02v-.266a5.073,5.073,0,0,1,.48-2.246,3.748,3.748,0,0,1,1.344-1.547,3.378,3.378,0,0,1,1.871-.559,3.166,3.166,0,0,1,2.563,1.086,4.7,4.7,0,0,1,.914,3.109v.6H55.094a3,3,0,0,0,.73,2.02,2.3,2.3,0,0,0,1.777.77,2.517,2.517,0,0,0,1.3-.312,3.258,3.258,0,0,0,.93-.828l.883.688A3.55,3.55,0,0,1,57.523,41.156Zm-.18-7.578a1.928,1.928,0,0,0-1.469.637A3.1,3.1,0,0,0,55.141,36h4.234v-.109a2.753,2.753,0,0,0-.594-1.707A1.815,1.815,0,0,0,57.344,33.578Zm6.516-1.031.047,1.063a3.08,3.08,0,0,1,2.531-1.219q2.68,0,2.7,3.023V41H67.7V35.406a1.946,1.946,0,0,0-.418-1.352A1.675,1.675,0,0,0,66,33.617a2.086,2.086,0,0,0-1.234.375,2.546,2.546,0,0,0-.828.984V41H62.492V32.547Zm10.969,8.609a3.693,3.693,0,0,1-2.8-1.129,4.19,4.19,0,0,1-1.078-3.02v-.266a5.073,5.073,0,0,1,.48-2.246,3.748,3.748,0,0,1,1.344-1.547,3.378,3.378,0,0,1,1.871-.559,3.166,3.166,0,0,1,2.563,1.086,4.7,4.7,0,0,1,.914,3.109v.6H72.4a3,3,0,0,0,.73,2.02,2.3,2.3,0,0,0,1.777.77,2.517,2.517,0,0,0,1.3-.312,3.259,3.259,0,0,0,.93-.828l.883.688A3.55,3.55,0,0,1,74.828,41.156Zm-.18-7.578a1.928,1.928,0,0,0-1.469.637A3.1,3.1,0,0,0,72.445,36H76.68v-.109a2.753,2.753,0,0,0-.594-1.707A1.815,1.815,0,0,0,74.648,33.578Zm9.234.266a4.331,4.331,0,0,0-.711-.055A1.9,1.9,0,0,0,81.242,35v6H79.8V32.547H81.2l.023.977a2.251,2.251,0,0,1,2.016-1.133,1.477,1.477,0,0,1,.641.109ZM90.117,41a3.036,3.036,0,0,1-.2-.891,3.225,3.225,0,0,1-2.406,1.047,2.984,2.984,0,0,1-2.051-.707,2.288,2.288,0,0,1-.8-1.793,2.39,2.39,0,0,1,1-2.051,4.733,4.733,0,0,1,2.824-.73h1.406v-.664A1.623,1.623,0,0,0,89.438,34a1.821,1.821,0,0,0-1.336-.449,2.107,2.107,0,0,0-1.3.391,1.151,1.151,0,0,0-.523.945H84.828a2,2,0,0,1,.449-1.223,3.066,3.066,0,0,1,1.219-.934,4.1,4.1,0,0,1,1.691-.344,3.342,3.342,0,0,1,2.289.73,2.635,2.635,0,0,1,.859,2.012v3.891a4.757,4.757,0,0,0,.3,1.852V41Zm-2.4-1.1a2.54,2.54,0,0,0,1.289-.352,2.127,2.127,0,0,0,.883-.914V36.9H88.758q-2.656,0-2.656,1.555a1.316,1.316,0,0,0,.453,1.063A1.742,1.742,0,0,0,87.719,39.9ZM95.172,41H93.727V29h1.445Zm3.883,0H97.609V32.547h1.445ZM97.492,30.3a.863.863,0,0,1,.215-.594.807.807,0,0,1,.637-.242.819.819,0,0,1,.641.242.854.854,0,0,1,.219.594.826.826,0,0,1-.219.586.834.834,0,0,1-.641.234.821.821,0,0,1-.637-.234A.834.834,0,0,1,97.492,30.3Zm5.234,9.516h4.945V41h-6.711V39.938l4.664-6.2h-4.594v-1.2h6.406V33.57ZM114.516,41a3.036,3.036,0,0,1-.2-.891,3.225,3.225,0,0,1-2.406,1.047,2.984,2.984,0,0,1-2.051-.707,2.288,2.288,0,0,1-.8-1.793,2.39,2.39,0,0,1,1-2.051,4.733,4.733,0,0,1,2.824-.73h1.406v-.664A1.623,1.623,0,0,0,113.836,34a1.821,1.821,0,0,0-1.336-.449,2.107,2.107,0,0,0-1.3.391,1.151,1.151,0,0,0-.523.945h-1.453a2,2,0,0,1,.449-1.223,3.066,3.066,0,0,1,1.219-.934,4.1,4.1,0,0,1,1.691-.344,3.342,3.342,0,0,1,2.289.73,2.635,2.635,0,0,1,.859,2.012v3.891a4.757,4.757,0,0,0,.3,1.852V41Zm-2.4-1.1a2.54,2.54,0,0,0,1.289-.352,2.127,2.127,0,0,0,.883-.914V36.9h-1.133q-2.656,0-2.656,1.555a1.316,1.316,0,0,0,.453,1.063A1.742,1.742,0,0,0,112.117,39.9Zm5.531-3.2a4.952,4.952,0,0,1,.922-3.129,3.137,3.137,0,0,1,4.766-.168V29h1.445V41h-1.328l-.07-.906a2.943,2.943,0,0,1-2.414,1.063,2.887,2.887,0,0,1-2.395-1.2,5.008,5.008,0,0,1-.926-3.141Zm1.445.164a3.749,3.749,0,0,0,.594,2.25,1.92,1.92,0,0,0,1.641.813,2.108,2.108,0,0,0,2.008-1.234V34.813a2.125,2.125,0,0,0-1.992-1.2,1.929,1.929,0,0,0-1.656.82A4.128,4.128,0,0,0,119.094,36.867Zm7.547-.172a4.993,4.993,0,0,1,.488-2.234,3.643,3.643,0,0,1,1.359-1.531,3.7,3.7,0,0,1,1.988-.539,3.565,3.565,0,0,1,2.793,1.2,4.6,4.6,0,0,1,1.066,3.18v.1a5.036,5.036,0,0,1-.473,2.215,3.589,3.589,0,0,1-1.352,1.527,3.743,3.743,0,0,1-2.02.547,3.556,3.556,0,0,1-2.785-1.2,4.575,4.575,0,0,1-1.066-3.164Zm1.453.172a3.616,3.616,0,0,0,.652,2.258,2.211,2.211,0,0,0,3.5-.012,3.954,3.954,0,0,0,.648-2.418,3.61,3.61,0,0,0-.66-2.254,2.1,2.1,0,0,0-1.754-.863,2.075,2.075,0,0,0-1.727.852A3.925,3.925,0,0,0,128.094,36.867Z" transform="translate(26.906 120.202)" fill="#12263f"/>
      </g>
      <line id="Línea_1692" data-name="Línea 1692" x2="37.16" transform="translate(99.663 211.419)" fill="none" stroke="#12263f" stroke-linecap="round" stroke-miterlimit="10" stroke-width="1"/>
      <g id="Grupo_127424" data-name="Grupo 127424" transform="translate(-155.629 -723.452)">
        <g id="Grupo_42274" data-name="Grupo 42274" transform="translate(233.65 755.984)">
          <g id="Grupo_18423" data-name="Grupo 18423" transform="translate(0 0)">
            <g id="Grupo_18421" data-name="Grupo 18421">
              <g id="Grupo_18420" data-name="Grupo 18420">
                <g id="Grupo_18419" data-name="Grupo 18419">
                  <path id="Trazado_40936" data-name="Trazado 40936" d="M271.406,2184.112a38.391,38.391,0,1,1-38.391-38.39A38.391,38.391,0,0,1,271.406,2184.112Z" transform="translate(-194.623 -2145.721)" fill="#fff"/>
                </g>
              </g>
            </g>
            <path id="Trazado_40937" data-name="Trazado 40937" d="M271.279,2183.973a38.391,38.391,0,1,0-38.391,38.392A38.239,38.239,0,0,0,271.279,2183.973Z" transform="translate(-194.496 -2145.583)" fill="url(#radial-gradient)"/>
            <path id="Trazado_40938" data-name="Trazado 40938" d="M261.148,2182.943a29.3,29.3,0,1,0-29.3,29.3A29.2,29.2,0,0,0,261.148,2182.943Z" transform="translate(-193.336 -2144.424)" fill="none" stroke="#1d272b" stroke-miterlimit="10" stroke-width="2"/>
            <g id="Grupo_18422" data-name="Grupo 18422" transform="translate(6.801 21.554)">
              <path id="Trazado_40939" data-name="Trazado 40939" d="M266.644,2164.488a38.4,38.4,0,0,1-66.1,38.232,38.274,38.274,0,0,0,66.1-38.232Z" transform="translate(-200.545 -2164.488)" fill="#eceef0"/>
            </g>
          </g>
        </g>
        <g id="_84QdQs" data-name="84QdQs" transform="translate(-4578.09 -373.653)">
          <g id="Grupo_127478" data-name="Grupo 127478" transform="translate(4829.026 1146.429)">
            <path id="Trazado_163327" data-name="Trazado 163327" d="M4829.026,1227.053H4849.2a7.748,7.748,0,0,0-1.241-4.012,25.016,25.016,0,0,1-1.324-4.283,7.276,7.276,0,0,1-.956-1.145c-.947-1.645-1.851-3.315-2.732-5a1.108,1.108,0,0,0-1.161-.7c-1.088.045-2.182-.021-3.271.022-.725.029-.993-.221-.987-.963.028-3.49.014-6.98.015-10.469,0-2.306.028-4.613-.014-6.918-.016-.867.307-1.126,1.15-1.122,6.137.026,12.274.014,18.412.014,2.957,0,5.914-.013,8.871.016a4.779,4.779,0,0,1,1.208.338v18.888a10.137,10.137,0,0,1-1.549.189c-.639-.015-.884.178-.86.85.071,1.961.083,3.924.12,5.886a8.776,8.776,0,0,1-1.778,5.676,2.39,2.39,0,0,0-.641,1.671c.014.268-.321.555-.5.833-.2-.284-.522-.546-.58-.856a2.469,2.469,0,0,1,.648-2.207,6.921,6.921,0,0,0,1.67-4.739q-.057-7.339-.136-14.678c0-.343-.017-.686-.051-1.027a1.517,1.517,0,1,0-3.033.054c-.016,1.464.043,2.928.064,4.393.022,1.5.038,2.991.056,4.487,0,.125.047.285-.013.367-.187.259-.413.49-.625.731-.167-.242-.472-.48-.479-.727-.08-2.647-.12-5.3-.155-7.944-.021-1.558-.008-3.116-.021-4.675-.01-1.159-.673-1.932-1.6-1.894-.913.037-1.438.756-1.427,1.931.04,4.113.087,8.227.09,12.34,0,.343-.271.955-.478.983-.759.1-.654-.55-.661-1.035q-.093-7.009-.172-14.018a1.506,1.506,0,0,0-1.224-1.637,1.342,1.342,0,0,0-1.566.726,2.461,2.461,0,0,0-.23,1.162c.04,4.55.1,9.1.158,13.648,0,.125.044.271-.006.37-.161.319-.356.62-.539.929-.194-.29-.54-.571-.559-.872-.086-1.4-.092-2.8-.107-4.2-.032-2.8-.045-5.609-.081-8.414-.015-1.164-.71-1.88-1.68-1.78-.874.091-1.367.729-1.355,1.8q.078,6.918.167,13.835.031,2.571.049,5.142a6.919,6.919,0,0,0,1.461,4.439,3.866,3.866,0,0,1,.56,3.6h17.065m-1.208-16.314c.024-.25.057-.431.057-.613,0-5.2-.015-10.407.016-15.61,0-.78-.288-.907-.985-.906q-12.665.031-25.33.012c-.3,0-.607.032-.961.052v17.077h8c.022-.247.053-.427.051-.607-.036-3.333-.063-6.667-.119-10a2.834,2.834,0,0,1,1.159-2.6,2.929,2.929,0,0,1,3-.1c1.442-2.882,4.288-2.394,5.395-.071a2.813,2.813,0,0,1,3.293.255c1.074.875.848,2.152.949,3.329,2.739-.842,4.191.243,4.219,3.031.008.81.016,1.62.017,2.43,0,1.425,0,2.849,0,4.322Zm-19.168,6.51V1212h-2.865Z" transform="translate(-4829.026 -1183.855)" fill="#1d272b"/>
            <path id="Trazado_163328" data-name="Trazado 163328" d="M4964.054,1146.429c.422.5.311.9-.146,1.347-2.025,1.981-4.02,3.992-6.03,5.989-.325.323-.708.821-1.135.3-.143-.173.1-.862.354-1.13,2.106-2.194,4.258-4.344,6.4-6.508Z" transform="translate(-4932.826 -1146.429)" fill="#1d272b"/>
            <path id="Trazado_163329" data-name="Trazado 163329" d="M4829.026,1296.7q3.25-3.2,6.5-6.4c.154-.152.3-.384.481-.419a1,1,0,0,1,.746.134c.113.094.1.5-.009.666a5.048,5.048,0,0,1-.758.816c-1.871,1.87-3.756,3.726-5.608,5.614-.449.457-.847.579-1.352.153Z" transform="translate(-4829.026 -1263.037)" fill="#1d272b"/>
            <path id="Trazado_163330" data-name="Trazado 163330" d="M4863.271,1313.138c-.174.218-.294.4-.444.552-.873.888-1.728,1.8-2.649,2.632-.223.2-.674.152-1.021.218.053-.323-.008-.75.177-.952.884-.962,1.817-1.88,2.775-2.77a1.181,1.181,0,0,1,.829-.176C4863.061,1312.653,4863.158,1312.958,4863.271,1313.138Z" transform="translate(-4853.523 -1281.555)" fill="#1d272b"/>
            <path id="Trazado_163331" data-name="Trazado 163331" d="M4989.79,1170.243a5.006,5.006,0,0,1-.446.632c-.868.882-1.723,1.781-2.644,2.6-.223.2-.677.14-1.024.2.059-.326.007-.753.2-.959.878-.956,1.811-1.863,2.756-2.754a1.069,1.069,0,0,1,.743-.207C4989.508,1169.77,4989.625,1170.042,4989.79,1170.243Z" transform="translate(-4956.383 -1165.395)" fill="#1d272b"/>
          </g>
        </g>
      </g>
    </g>
  </g>
</svg>
