<svg xmlns="http://www.w3.org/2000/svg" xmlns:xlink="http://www.w3.org/1999/xlink" width="479.409" height="318.678" viewBox="0 0 479.409 318.678">
  <defs>
    <clipPath id="clip-path">
      <rect id="Rectángulo_34354" data-name="Rectángulo 34354" width="15.017" height="5.785" fill="none"/>
    </clipPath>
    <linearGradient id="linear-gradient" x1="0.5" x2="0.5" y2="1" gradientUnits="objectBoundingBox">
      <stop offset="0" stop-color="#f5f5f5"/>
      <stop offset="0.25" stop-color="#f5f5f5"/>
      <stop offset="1" stop-color="#a7b3cf"/>
    </linearGradient>
  </defs>
  <g id="img25" transform="translate(-934.473 -7051.61)">
    <g id="Grupo_127417" data-name="Grupo 127417" transform="translate(934.473 7058.534)">
      <path id="Trazado_151846" data-name="Trazado 151846" d="M493.7,399.63c17.995-19.608,23.114-45.055,13.586-67.527C501.258,317.9,489.7,304.7,488.22,289.883c-2.956-29.62,34.309-53.567,42.039-82.739,3.4-12.821-.309-27.757-14.874-35.545-14.386-7.692-34.919-6.122-51.206-.735s-30.068,14.01-45.705,20.315-34.892,10.2-51.405,5.184c-16.727-5.082-26.215-17.893-31.529-30.379s-7.923-25.784-16.993-37.1c-14.949-18.643-46.822-28.808-76.524-26.177s-56.24,17.039-70.475,35.968-16.723,41.825-9.637,62.733c3.594,10.6,9.516,20.759,12.744,31.424s3.524,22.338-3.684,31.944C155.9,284.868,116.13,287.669,95.306,304.9c-17.187,14.218-17.726,35.915-7.973,53.4s28.085,31.671,46.361,45.168c85.248,2.061,172.023,2.2,257.27,4.258C424.1,408.522,460.6,401.031,493.7,399.63Z" transform="translate(-80.961 -96.028)" fill="#a4a4b4" opacity="0.354" style="mix-blend-mode: multiply;isolation: isolate"/>
      <path id="Trazado_151847" data-name="Trazado 151847" d="M359.21,191.928c-.225,24.112,22.7,45.1,18.707,68.878-2.133,12.724-11.828,25.622-6.193,37.228,4.985,10.269,19.262,12.05,30.179,8.711,25.553-7.817,41.085-33.937,48.513-59.608,6.987-24.145,8.721-51.115-2.468-73.624-9.017-18.135-29.819-34.145-50.943-32.664C377.656,142.207,359.38,173.766,359.21,191.928Z" transform="translate(23.408 -90.545)" fill="#a4a4b4" opacity="0.31" style="mix-blend-mode: multiply;isolation: isolate"/>
      <path id="Trazado_151848" data-name="Trazado 151848" d="M119.912,158.042c-17.069,28.478-17.839,66.013-1.951,95.166,5.02,9.212,11.8,17.8,20.956,22.919s20.966,6.265,30.079,1.067c13.82-7.883,16.876-26.477,15.776-42.35s-4.7-32.513,1.416-47.2c3.985-9.575,11.636-17.04,18.424-24.881s13.123-16.993,13.473-27.359c.909-26.869-27.617-24.862-44.809-19.282C151.329,123.247,131.812,138.189,119.912,158.042Z" transform="translate(-71.361 -92.142)" fill="#a4a4b4" opacity="0.31" style="mix-blend-mode: multiply;isolation: isolate"/>
      <g id="Grupo_107069" data-name="Grupo 107069" transform="translate(9.55)" style="mix-blend-mode: multiply;isolation: isolate">
        <path id="Trazado_151849" data-name="Trazado 151849" d="M486.836,403.67l-1.833-1.2c5.044-3.966,13.1-13.056,10.37-29.4-1.213-7.276-4.22-14.463-7.129-21.413-1.3-3.105-2.642-6.316-3.814-9.5-12.508-34.02-7.036-71.548,15.011-102.961,1.958-2.788,4.077-5.585,6.127-8.289,6.077-8.018,12.359-16.311,15.061-25.268,4.739-15.718-4.629-27.5-15.336-31.794-10.273-4.122-24.775-3.492-39.784,1.729-5.491,1.909-10.828,4.245-15.988,6.5a173.217,173.217,0,0,1-21.445,8.257c-29.791,8.6-67.039,1.291-86.638-16.994-9.419-8.787-14.738-19.407-19.881-29.678-1.993-3.98-4.054-8.1-6.32-12.034-7.049-12.243-19.95-27.612-41.381-31.288-18.831-3.232-37.9,3.871-50.584,10.4-24.262,12.488-41.364,29.4-48.159,47.62-4.58,12.287-4.765,25.66-4.943,38.593-.265,19.26-.54,39.175-15.66,55.214-6.878,7.3-16.339,13.118-25.486,18.748-8.568,5.272-17.428,10.725-24.033,17.334C90.026,303.211,86.358,324.412,94.927,346.4c7.7,19.758,23.4,37.29,38.577,54.245l-2.086.965c-15.279-17.065-31.079-34.711-38.879-54.729-8.774-22.516-4.97-44.273,10.438-59.689,6.779-6.784,15.754-12.307,24.433-17.648,9.025-5.553,18.356-11.3,25.046-18.393,14.7-15.594,14.958-34.361,15.232-54.23.18-13.045.366-26.532,5.03-39.039,6.941-18.618,24.383-35.88,49.11-48.609,13.1-6.742,32.861-14.069,52.6-10.681,22.45,3.851,35.828,19.713,43.1,32.341,2.29,3.977,4.36,8.112,6.363,12.112,5.078,10.14,10.328,20.627,19.511,29.192,18.946,17.676,54.951,24.739,83.75,16.428a171.25,171.25,0,0,0,21.079-8.124c5.21-2.281,10.6-4.639,16.2-6.586,15.746-5.476,31.081-6.091,42.074-1.682,11.482,4.606,21.56,17.126,16.553,33.732-2.778,9.208-9.147,17.615-15.309,25.745-2.041,2.693-4.151,5.476-6.09,8.239-21.777,31.028-27.182,68.1-14.826,101.7,1.161,3.16,2.5,6.356,3.791,9.447,2.939,7.023,5.978,14.285,7.218,21.715C500.68,389.9,492.164,399.48,486.836,403.67Z" transform="translate(-87.906 -97.739)" fill="#a4a4b4"/>
      </g>
    </g>
    <g id="Grupo_127418" data-name="Grupo 127418" transform="translate(1144.638 6524.019)">
      <g id="Grupo_121123" data-name="Grupo 121123" transform="translate(-180.221 658.363)">
        <path id="Trazado_159087" data-name="Trazado 159087" d="M-133.779,513.039c-7.329,0-11.044-4.369-11.044-12.991V446.564h1.733v53.485c0,7.682,2.957,11.259,9.31,11.259,7.34,0,8.445-1.614,8.445-12.343,0-1.329-.03-2.813-.064-4.39-.188-9.122-.422-20.478,4.245-25.242a7.212,7.212,0,0,1,5.347-2.2h12.125v1.731h-12.125a5.472,5.472,0,0,0-4.11,1.676c-4.16,4.248-3.924,15.663-3.749,24,.032,1.589.064,3.084.064,4.424C-123.6,509.871-124.938,513.039-133.779,513.039Z" transform="translate(226.094 -409.393)" fill="#51799e"/>
        <rect id="Rectángulo_34341" data-name="Rectángulo 34341" width="60.052" height="12.126" rx="2.332" transform="translate(2.093 0)" fill="#63bab6"/>
        <rect id="Rectángulo_34342" data-name="Rectángulo 34342" width="303.154" height="12.126" rx="2.332" transform="translate(63.011 0)" fill="#63bab6"/>
        <rect id="Rectángulo_34343" data-name="Rectángulo 34343" width="54.386" height="64.671" transform="translate(114.69 76.219)" fill="#acc1d1"/>
        <rect id="Rectángulo_34344" data-name="Rectángulo 34344" width="54.386" height="29.593" transform="translate(114.69 40.42)" fill="#707b82"/>
        <path id="Trazado_159088" data-name="Trazado 159088" d="M-18.546,437.794H-146.3l36.81,25.118h54.566Z" transform="translate(224.18 -420.759)" fill="#c7d0d8"/>
        <path id="Trazado_159089" data-name="Trazado 159089" d="M12.116,504.842l-167.6.866,57.886-14.724h54.566Z" transform="translate(212.284 -351.826)" fill="#c7d0d8"/>
        <path id="Trazado_159090" data-name="Trazado 159090" d="M-129.862,449.053h94.946l16.307-11.26H-146.363Z" transform="translate(224.098 -420.759)" opacity="0.25"/>
        <rect id="Rectángulo_34345" data-name="Rectángulo 34345" width="369.271" height="11.548" transform="translate(0 8.95)" fill="#f2f3f4"/>
        <rect id="Rectángulo_34346" data-name="Rectángulo 34346" width="169.472" height="12.992" transform="translate(56.371 153.305)" fill="#f2f3f4"/>
        <rect id="Rectángulo_34347" data-name="Rectángulo 34347" width="66.114" height="8.084" rx="1.554" transform="translate(109.205 69.146)" fill="#f2f3f4"/>
        <g id="Grupo_121119" data-name="Grupo 121119" transform="translate(120.337 82.849)">
          <rect id="Rectángulo_34348" data-name="Rectángulo 34348" width="21.899" height="41.687" rx="0.667" transform="translate(0 21.899) rotate(-90)" fill="#fff"/>
          <g id="Grupo_121118" data-name="Grupo 121118" transform="translate(3.778 7.432)">
            <rect id="Rectángulo_34349" data-name="Rectángulo 34349" width="16.272" height="6.855" rx="0.263" fill="#7aa2cc"/>
            <rect id="Rectángulo_34350" data-name="Rectángulo 34350" width="15.017" height="5.785" transform="translate(0.541 0.515)" fill="#d93328"/>
            <g id="Grupo_121117" data-name="Grupo 121117" transform="translate(0.515 0.542)">
              <g id="Grupo_121116" data-name="Grupo 121116" clip-path="url(#clip-path)">
                <rect id="Rectángulo_34351" data-name="Rectángulo 34351" width="2.325" height="13.578" transform="translate(13.579 -1.509) rotate(49.414)" fill="#fff" opacity="0.26"/>
                <rect id="Rectángulo_34352" data-name="Rectángulo 34352" width="1.561" height="13.578" transform="translate(9.374 -1.51) rotate(49.415)" fill="#fff" opacity="0.26"/>
                <rect id="Rectángulo_34353" data-name="Rectángulo 34353" width="1.37" height="11.916" transform="translate(15.03 1.566) rotate(49.412)" fill="#fff" opacity="0.26"/>
              </g>
            </g>
          </g>
          <rect id="Rectángulo_34355" data-name="Rectángulo 34355" width="16.153" height="16.967" rx="0.531" transform="translate(22.126 2.534)" fill="#7aa2cc"/>
          <rect id="Rectángulo_34356" data-name="Rectángulo 34356" width="3.529" height="1.629" rx="0.156" transform="translate(23.687 4.095)" fill="#b5d6ff"/>
          <rect id="Rectángulo_34357" data-name="Rectángulo 34357" width="3.529" height="1.629" rx="0.156" transform="translate(28.098 4.095)" fill="#b5d6ff"/>
          <rect id="Rectángulo_34358" data-name="Rectángulo 34358" width="3.529" height="1.629" rx="0.156" transform="translate(32.476 4.095)" fill="#b5d6ff"/>
          <rect id="Rectángulo_34359" data-name="Rectángulo 34359" width="3.529" height="1.629" rx="0.156" transform="translate(23.687 6.504)" fill="#b5d6ff"/>
          <rect id="Rectángulo_34360" data-name="Rectángulo 34360" width="3.529" height="1.629" rx="0.156" transform="translate(28.098 6.504)" fill="#b5d6ff"/>
          <rect id="Rectángulo_34361" data-name="Rectángulo 34361" width="3.529" height="1.629" rx="0.156" transform="translate(32.476 6.504)" fill="#b5d6ff"/>
          <rect id="Rectángulo_34362" data-name="Rectángulo 34362" width="3.529" height="1.629" rx="0.156" transform="translate(23.687 9.015)" fill="#b5d6ff"/>
          <rect id="Rectángulo_34363" data-name="Rectángulo 34363" width="3.529" height="1.629" rx="0.156" transform="translate(28.098 9.015)" fill="#b5d6ff"/>
          <rect id="Rectángulo_34364" data-name="Rectángulo 34364" width="3.529" height="1.629" rx="0.156" transform="translate(32.476 9.015)" fill="#b5d6ff"/>
          <rect id="Rectángulo_34365" data-name="Rectángulo 34365" width="3.529" height="1.629" rx="0.156" transform="translate(23.687 11.493)" fill="#b5d6ff"/>
          <rect id="Rectángulo_34366" data-name="Rectángulo 34366" width="3.529" height="1.629" rx="0.156" transform="translate(28.098 11.493)" fill="#b5d6ff"/>
          <rect id="Rectángulo_34367" data-name="Rectángulo 34367" width="3.529" height="1.629" rx="0.156" transform="translate(32.476 11.493)" fill="#b5d6ff"/>
          <rect id="Rectángulo_34368" data-name="Rectángulo 34368" width="8.28" height="3.19" transform="translate(25.723 15.022)" fill="#f2f2f2"/>
          <rect id="Rectángulo_34369" data-name="Rectángulo 34369" width="6.176" height="0.272" rx="0.05" transform="translate(26.639 15.667)" opacity="0.41"/>
          <rect id="Rectángulo_34370" data-name="Rectángulo 34370" width="6.176" height="0.272" rx="0.05" transform="translate(26.639 16.176)" opacity="0.41"/>
          <rect id="Rectángulo_34371" data-name="Rectángulo 34371" width="5.124" height="0.272" rx="0.05" transform="translate(26.639 16.685)" opacity="0.41"/>
          <rect id="Rectángulo_34372" data-name="Rectángulo 34372" width="2.443" height="0.271" rx="0.05" transform="translate(26.639 17.33)" opacity="0.41"/>
        </g>
        <g id="Grupo_121120" data-name="Grupo 121120" transform="translate(119.056 113.929)">
          <rect id="Rectángulo_34373" data-name="Rectángulo 34373" width="21.031" height="13.537" fill="#d7e9f4"/>
          <rect id="Rectángulo_34374" data-name="Rectángulo 34374" width="14.947" height="2.901" rx="0.558" transform="translate(2.82 0.927)" fill="#d93328"/>
          <rect id="Rectángulo_34375" data-name="Rectángulo 34375" width="11.875" height="0.665" rx="0.128" transform="translate(4.321 1.994)" fill="#fff"/>
          <rect id="Rectángulo_34376" data-name="Rectángulo 34376" width="17.979" height="0.453" rx="0.087" transform="translate(1.39 5.409)" opacity="0.17"/>
          <rect id="Rectángulo_34377" data-name="Rectángulo 34377" width="17.979" height="0.453" rx="0.087" transform="translate(1.39 6.496)" opacity="0.17"/>
          <rect id="Rectángulo_34378" data-name="Rectángulo 34378" width="17.979" height="0.453" rx="0.087" transform="translate(1.39 7.675)" opacity="0.17"/>
          <rect id="Rectángulo_34379" data-name="Rectángulo 34379" width="17.979" height="0.453" rx="0.087" transform="translate(1.39 8.763)" opacity="0.17"/>
          <rect id="Rectángulo_34380" data-name="Rectángulo 34380" width="11.956" height="0.453" rx="0.087" transform="translate(4.754 9.971)" opacity="0.17"/>
        </g>
        <g id="Grupo_121122" data-name="Grupo 121122" transform="translate(73.725 21.285)">
          <g id="Grupo_121121" data-name="Grupo 121121">
            <rect id="Rectángulo_34381" data-name="Rectángulo 34381" width="16.153" height="16.968" rx="0.531" transform="translate(0.651 0.648)" fill="#7aa2cc"/>
            <path id="Trazado_159091" data-name="Trazado 159091" d="M-132.227,457.912H-146.54a1.573,1.573,0,0,1-1.57-1.57V441.213a1.571,1.571,0,0,1,1.57-1.568h14.313a1.571,1.571,0,0,1,1.57,1.568v15.128A1.573,1.573,0,0,1-132.227,457.912Zm-14.313-16.969a.273.273,0,0,0-.271.271v15.128a.271.271,0,0,0,.271.271h14.313a.271.271,0,0,0,.271-.271V441.213a.273.273,0,0,0-.271-.271Z" transform="translate(148.11 -439.645)" fill="#f2f2f2"/>
          </g>
          <rect id="Rectángulo_34382" data-name="Rectángulo 34382" width="3.529" height="1.629" rx="0.156" transform="translate(2.212 2.209)" fill="#b5d6ff"/>
          <rect id="Rectángulo_34383" data-name="Rectángulo 34383" width="3.529" height="1.629" rx="0.156" transform="translate(6.624 2.209)" fill="#b5d6ff"/>
          <rect id="Rectángulo_34384" data-name="Rectángulo 34384" width="3.529" height="1.629" rx="0.156" transform="translate(11.001 2.209)" fill="#b5d6ff"/>
          <rect id="Rectángulo_34385" data-name="Rectángulo 34385" width="3.529" height="1.629" rx="0.156" transform="translate(2.212 4.619)" fill="#b5d6ff"/>
          <rect id="Rectángulo_34386" data-name="Rectángulo 34386" width="3.529" height="1.629" rx="0.156" transform="translate(6.624 4.619)" fill="#b5d6ff"/>
          <rect id="Rectángulo_34387" data-name="Rectángulo 34387" width="3.529" height="1.629" rx="0.156" transform="translate(11.001 4.619)" fill="#b5d6ff"/>
          <rect id="Rectángulo_34388" data-name="Rectángulo 34388" width="3.529" height="1.629" rx="0.156" transform="translate(2.212 7.13)" fill="#b5d6ff"/>
          <rect id="Rectángulo_34389" data-name="Rectángulo 34389" width="3.529" height="1.629" rx="0.156" transform="translate(6.624 7.13)" fill="#b5d6ff"/>
          <rect id="Rectángulo_34390" data-name="Rectángulo 34390" width="3.529" height="1.629" rx="0.156" transform="translate(11.001 7.13)" fill="#b5d6ff"/>
          <rect id="Rectángulo_34391" data-name="Rectángulo 34391" width="3.529" height="1.629" rx="0.156" transform="translate(2.212 9.607)" fill="#b5d6ff"/>
          <rect id="Rectángulo_34392" data-name="Rectángulo 34392" width="3.529" height="1.629" rx="0.156" transform="translate(6.624 9.607)" fill="#b5d6ff"/>
          <rect id="Rectángulo_34393" data-name="Rectángulo 34393" width="3.529" height="1.629" rx="0.156" transform="translate(11.001 9.607)" fill="#b5d6ff"/>
          <rect id="Rectángulo_34394" data-name="Rectángulo 34394" width="8.28" height="3.19" transform="translate(4.248 13.136)" fill="#f2f2f2"/>
          <rect id="Rectángulo_34395" data-name="Rectángulo 34395" width="6.176" height="0.271" rx="0.05" transform="translate(5.164 13.781)" opacity="0.41"/>
          <rect id="Rectángulo_34396" data-name="Rectángulo 34396" width="6.176" height="0.271" rx="0.05" transform="translate(5.164 14.29)" opacity="0.41"/>
          <rect id="Rectángulo_34397" data-name="Rectángulo 34397" width="5.124" height="0.271" rx="0.05" transform="translate(5.164 14.799)" opacity="0.41"/>
          <rect id="Rectángulo_34398" data-name="Rectángulo 34398" width="2.443" height="0.272" rx="0.05" transform="translate(5.164 15.444)" opacity="0.41"/>
        </g>
      </g>
      <path id="Trazado_159092" data-name="Trazado 159092" d="M-176.977,452.208s56.015-1.837,74.382-1.263,79.785,3.444,97,1.722c13.443-1.345,172.2-1.148,172.2-1.148s5.166-36.735,1.148-37.883-10.332,6.888-15.5,16.646c0,0-55.1-13.776-92.413-13.2s-73.471,2.87-92.987,1.148S-157.227,403.536-176.977,452.208Z" transform="translate(4.203 206.154)" fill="#2d2d2d"/>
      <path id="Trazado_159093" data-name="Trazado 159093" d="M-127.41,422.5c-12.7-.094-23.488,10.743-36.191,10.883a95.424,95.424,0,0,1,44.092-16.8c9.466-1.075,19.031-.716,28.553-.358,7.1.266,14.24.537,21.2,1.963a222.973,222.973,0,0,1-30.027,5.338l7.283,2.19-45.024,12.883a127.935,127.935,0,0,1,28.307-12.9,29.862,29.862,0,0,0-19.6-.751A4.3,4.3,0,0,1-127.41,422.5Z" transform="translate(21.538 209.176)" fill="#fff" opacity="0.28"/>
      <path id="Trazado_159094" data-name="Trazado 159094" d="M-106.168,432.866a277.778,277.778,0,0,0,37.645-8.431c-14.931-.009-30.112-.055-44.415-4.344q29.873-1.388,59.746-2.78c-.843.749.751,1.775,1.876,1.768l52.727-.287a470.884,470.884,0,0,0-62.283,9.42C-75.8,431.507-91.12,435.55-106.168,432.866Z" transform="translate(87.194 211.06)" fill="#fff" opacity="0.28"/>
      <g id="Grupo_121133" data-name="Grupo 121133" transform="translate(69.723 527.591)">
        <path id="Trazado_159095" data-name="Trazado 159095" d="M-47.684,469.334c-10.342,0-24.468-9.215-29.033-12.4l5.638-8.093c8.5,5.915,20.43,11.622,24.313,10.559,3.172-2.809,8.325-40.735,13.258-47.056l4.617,6.3c-1.211,20.9-4.689,46.534-14.365,49.992A13.166,13.166,0,0,1-47.684,469.334Z" transform="translate(102.879 -337.436)" fill="#dfebf4"/>
        <path id="Trazado_159096" data-name="Trazado 159096" d="M-63.611,437.529s-8.445-10.261-9.072-11.558-2.664-1.556-2.188.064a15.032,15.032,0,0,0,2.277,3.863l-9.439-6.541s-1.251-1.061-1.924-.427,1.28,2,1.28,2l6,4.563-7.34-3.845s-1.561-.725-2,.012,1.482,1.712,1.482,1.712l7.025,4.3-7.5-3.285s-1.877-.821-2.269.069,2.3,1.973,2.3,1.973l7.01,3.554-4.329-.819s-.767-.109-.614.55,1.125.91,1.125.91,12.382,6.134,14.575,6.5,2.346.183,2.346.183l1.223-3.5Z" transform="translate(87.324 -322.209)" fill="#bc8364"/>
        <rect id="Rectángulo_34399" data-name="Rectángulo 34399" width="9.709" height="14.98" transform="matrix(-1, -0.017, 0.017, -1, 93.164, 75.097)" fill="#bc8364"/>
        <g id="Grupo_121124" data-name="Grupo 121124" transform="translate(81.536 283.608)">
          <path id="Trazado_159097" data-name="Trazado 159097" d="M-31.439,496.958a11.785,11.785,0,0,0,0,6.294c1.016,2.827,4.048,2.193,5.461,6.233v.451a3.847,3.847,0,0,1-3.6,3.853c-1.944.118-3.589.113-5.555,1.49-4.043,2.829-.723,12.167-6.206,11.99-3.256-.109-12.932,0-12.932,0s5.254-3.305,7.476-4.317,10.046-25.995,10.046-25.995Z" transform="translate(54.267 -496.958)" fill="#bc8364"/>
          <path id="Trazado_159098" data-name="Trazado 159098" d="M-30.228,499.908a9.2,9.2,0,0,1,4.25,5.251v.451a3.847,3.847,0,0,1-3.6,3.853c-1.944.118-2.928,1.241-4.894,2.617-4.04,2.829-1.384,11.04-6.867,10.86-3.256-.106-12.932,0-12.932,0s5.049-4.583,7.476-4.314C-36.816,519.727-33.654,505.033-30.228,499.908Z" transform="translate(54.267 -492.632)" fill="#333"/>
          <path id="Trazado_159099" data-name="Trazado 159099" d="M-44.885,504.234a73.163,73.163,0,0,1,.03,14.007h1.265s.848-11.348,2.171-13.85S-44.885,504.234-44.885,504.234Z" transform="translate(68.026 -487.75)" fill="#333"/>
        </g>
        <g id="Grupo_121125" data-name="Grupo 121125" transform="translate(54.636 279.739)">
          <path id="Trazado_159100" data-name="Trazado 159100" d="M-41.132,495.389s-2.227,7.335-1.211,10.165,4.045,2.193,5.461,6.233v.451a3.849,3.849,0,0,1-3.6,3.853c-1.941.118-3.589.113-5.555,1.49-4.04,2.829-.723,12.167-6.206,11.99-3.256-.109-12.932,0-12.932,0s5.254-3.305,7.478-4.316,10.535-25.783,10.535-25.783Z" transform="translate(65.173 -495.389)" fill="#bc8364"/>
          <path id="Trazado_159101" data-name="Trazado 159101" d="M-41.134,499.908a9.207,9.207,0,0,1,4.252,5.251v.451a3.849,3.849,0,0,1-3.6,3.853c-1.941.118-2.928,1.241-4.891,2.617-4.043,2.829-1.386,11.04-6.869,10.86-3.256-.106-12.932,0-12.932,0s5.051-4.583,7.478-4.314C-47.72,519.727-44.56,505.033-41.134,499.908Z" transform="translate(65.173 -488.762)" fill="#333"/>
          <path id="Trazado_159102" data-name="Trazado 159102" d="M-55.791,504.234a73.029,73.029,0,0,1,.032,14.007H-54.5s.848-11.348,2.171-13.85S-55.791,504.234-55.791,504.234Z" transform="translate(78.932 -483.88)" fill="#333"/>
        </g>
        <path id="Trazado_159103" data-name="Trazado 159103" d="M-50.005,435.965c8.073,2.22,16.393,2.378,24.747,2.763,5.757,5.5,15.628,12.019,17.194,19.118,2.166,9.819-3.1,19.685-3.1,19.685l-5.562,46.237s14.913,3.113-1.332,67.06l-7.829,8.714s3.372-56.715-.735-72.735c-10.305-40.19-5.636-54.308-8.391-56.513-5.007-4-5.594.617-5.594.617l-4.516,51.839s14.774,14.185.481,70.293L-51,598.361s-.057-56.372-4.094-72.41c-1.87-7.422-11.871-50.421-7.5-65.839C-60.411,452.444-52.521,439.862-50.005,435.965Z" transform="translate(121.993 -302.797)" fill="#bc8364"/>
        <path id="Trazado_159104" data-name="Trazado 159104" d="M-62.821,465.716l3.618,23.2h42.976l1.92-34.193Z" transform="translate(123.259 -275.296)" fill="#4c4c4c"/>
        <path id="Trazado_159105" data-name="Trazado 159105" d="M-29.3,466.664c.185,1.228,15.14,18.168,16.314,19.567-24.278,6.509-45.692,3.379-47.851,1.036,2.363-6.5,11.24-19.027,11.24-19.027l-6.99-22.455c-8.428-2.841-5.705-11.228-5.705-11.228,7.086-4.891,8.477-21.733,8.477-21.733l21.017-.6s16.555,1.828,18.738,3.406-1.406,17.717-1.406,17.717S-30.3,460.093-29.3,466.664Z" transform="translate(123.417 -337.615)" fill="#e6b89c"/>
        <path id="Trazado_159106" data-name="Trazado 159106" d="M-12.751,541.124c-.22.044-13,2.536-22.988,1.8-.2-.592-4.334-12.8-4.334-12.8l-2.018,12.552c-5.365-.281-13.332.057-18.363-1.771-2.945-15.653-4.681-36.618-1.99-46.094a51.6,51.6,0,0,1,3.406-8.275c1.547-3.858,5.01-9.447,7.641-13.455.614-.984,1.579-2.407,1.6-2.4a7.413,7.413,0,0,0,1.231-2.585l-6.719-21.858c-8.428-2.841-5.444-11.8-5.444-11.8,7.086-4.889,8.477-21.73,8.477-21.73l21.017-.6s16.555,1.828,18.738,3.409-1.068,18.321-1.068,18.321-15.167,26.143-14.173,32.714c.16,1.063,11.4,13.916,15.172,18.245,2.282,2.486,4.05,5.079,4.642,7.755,2.166,9.819-1.507,21.4-1.507,21.4Z" transform="translate(121.851 -337.791)" fill="#fff"/>
        <path id="Trazado_159107" data-name="Trazado 159107" d="M-54.72,423.8s7.866,6.09,16.928.836C-37.792,424.641-47.412,436.165-54.72,423.8Z" transform="translate(135.139 -320.63)" fill="#020202" opacity="0.23"/>
        <path id="Trazado_159108" data-name="Trazado 159108" d="M-36.715,412.56l5.611.74-11.028,14.079,3.643,1.477-14.767,14.276L-56.7,426.2l2.659-.592L-56.7,412.217S-39.473,412.118-36.715,412.56Z" transform="translate(132.229 -337.639)" fill="#dfebf4"/>
        <path id="Trazado_159109" data-name="Trazado 159109" d="M-38.765,412.822l-16.541,30.573,1.771-31.162S-44.527,411.5-38.765,412.822Z" transform="translate(134.279 -337.901)" fill="#1d272b"/>
        <path id="Trazado_159110" data-name="Trazado 159110" d="M-47.027,411.991c-.737-.02-8.428,1.961-8.428,1.961s2.8,2.624,7.772-.572c0,0,2.56,4.247,11.119,1.268C-36.564,414.648-46.287,412.008-47.027,411.991Z" transform="translate(134.061 -337.956)" fill="#4b4b4c" opacity="0.49"/>
        <path id="Trazado_159111" data-name="Trazado 159111" d="M-40.642,410.513s-5.567,2.523-6.307,2.506-3.288-2.363-3.288-2.363l-5.283,5.384s2.913,1.692,7.888-1.507c0,0,1.714,3.409,11.023,2.277C-36.609,416.81-38.538,415.081-40.642,410.513Z" transform="translate(133.965 -340.123)" fill="#868695"/>
        <path id="Trazado_159112" data-name="Trazado 159112" d="M-56.154,426.986a1.278,1.278,0,0,1,1.255-1.3,1.274,1.274,0,0,1,1.3,1.253,1.278,1.278,0,0,1-1.255,1.3A1.276,1.276,0,0,1-56.154,426.986Z" transform="translate(133.035 -317.872)" fill="#666"/>
        <path id="Trazado_159113" data-name="Trazado 159113" d="M-56.094,430.3a1.281,1.281,0,0,1,1.255-1.3,1.28,1.28,0,0,1,1.3,1.255,1.278,1.278,0,0,1-1.255,1.3A1.278,1.278,0,0,1-56.094,430.3Z" transform="translate(133.123 -313.013)" fill="#666"/>
        <path id="Trazado_159114" data-name="Trazado 159114" d="M-56.034,433.613a1.276,1.276,0,0,1,1.253-1.3,1.282,1.282,0,0,1,1.3,1.255,1.281,1.281,0,0,1-1.255,1.3A1.278,1.278,0,0,1-56.034,433.613Z" transform="translate(133.211 -308.153)" fill="#666"/>
        <path id="Trazado_159115" data-name="Trazado 159115" d="M-56.06,436.717a1.28,1.28,0,0,1,1.243-1.312,1.276,1.276,0,0,1,1.31,1.243,1.278,1.278,0,0,1-1.241,1.312A1.28,1.28,0,0,1-56.06,436.717Z" transform="translate(133.173 -303.62)" fill="#666"/>
        <path id="Trazado_159116" data-name="Trazado 159116" d="M-55.972,440.029a1.28,1.28,0,0,1,1.243-1.312,1.28,1.28,0,0,1,1.312,1.243,1.28,1.28,0,0,1-1.243,1.312A1.28,1.28,0,0,1-55.972,440.029Z" transform="translate(133.302 -298.761)" fill="#666"/>
        <path id="Trazado_159117" data-name="Trazado 159117" d="M-55.884,443.342a1.28,1.28,0,0,1,1.243-1.312,1.28,1.28,0,0,1,1.312,1.243,1.28,1.28,0,0,1-1.243,1.312A1.28,1.28,0,0,1-55.884,443.342Z" transform="translate(133.431 -293.903)" fill="#666"/>
        <path id="Trazado_159118" data-name="Trazado 159118" d="M-55.608,447.076a1.275,1.275,0,0,1,1.243-1.31,1.278,1.278,0,0,1,1.31,1.243,1.275,1.275,0,0,1-1.243,1.31A1.275,1.275,0,0,1-55.608,447.076Z" transform="translate(133.836 -288.424)" fill="#666"/>
        <path id="Trazado_159119" data-name="Trazado 159119" d="M-55.4,450.63a1.278,1.278,0,0,1,1.241-1.312,1.28,1.28,0,0,1,1.312,1.243,1.28,1.28,0,0,1-1.243,1.312A1.276,1.276,0,0,1-55.4,450.63Z" transform="translate(134.141 -283.215)" fill="#666"/>
        <path id="Trazado_159120" data-name="Trazado 159120" d="M-55.312,453.822a1.275,1.275,0,0,1,1.243-1.31,1.278,1.278,0,0,1,1.31,1.243A1.276,1.276,0,0,1-54,455.065,1.275,1.275,0,0,1-55.312,453.822Z" transform="translate(134.27 -278.531)" fill="#666"/>
        <path id="Trazado_159121" data-name="Trazado 159121" d="M-55.01,456.656a1.276,1.276,0,0,1,1.243-1.31,1.278,1.278,0,0,1,1.312,1.243A1.276,1.276,0,0,1-53.7,457.9,1.278,1.278,0,0,1-55.01,456.656Z" transform="translate(134.713 -274.375)" fill="#666"/>
        <path id="Trazado_159122" data-name="Trazado 159122" d="M-54.8,460.089a1.276,1.276,0,0,1,1.243-1.31,1.278,1.278,0,0,1,1.312,1.243,1.278,1.278,0,0,1-1.243,1.31A1.278,1.278,0,0,1-54.8,460.089Z" transform="translate(135.018 -269.34)" fill="#666"/>
        <path id="Rectángulo_34400" data-name="Rectángulo 34400" d="M3.129,0h9.888a3.13,3.13,0,0,1,3.13,3.13V21.07a0,0,0,0,1,0,0H0a0,0,0,0,1,0,0V3.129A3.129,3.129,0,0,1,3.129,0Z" transform="translate(102.485 174.157) rotate(-179.191)" fill="#dfebf4"/>
        <path id="Rectángulo_34401" data-name="Rectángulo 34401" d="M1.87,0h8.2a1.871,1.871,0,0,1,1.871,1.871V17.7a0,0,0,0,1,0,0H0a0,0,0,0,1,0,0V1.87A1.87,1.87,0,0,1,1.87,0Z" transform="matrix(-1, -0.014, 0.014, -1, 72.667, 171.454)" fill="#dfebf4"/>
        <path id="Trazado_159123" data-name="Trazado 159123" d="M-23.014,432.448a2.472,2.472,0,0,0,1.682-3.012c1.485.143,2.58-1.3,3.359-2.568q.44-.721.883-1.443a3.987,3.987,0,0,0,.848-2.7,3.992,3.992,0,0,1-.244-1.26c.126-.9,1.411-1.394,1.317-2.3-.037-.373-.318-.681-.382-1.051-.19-1.113,1.564-1.774,1.51-2.9-.03-.585-.553-1.043-.641-1.621-.18-1.189,1.5-2.232,1-3.327-.153-.338-.488-.562-.666-.89-.486-.891.382-1.956.276-2.967-.133-1.3-1.818-2.1-1.786-3.409.012-.518.306-1.048.109-1.527a1.634,1.634,0,0,0-.58-.624l-2.314-1.736A3.538,3.538,0,0,0-15.612,398a6.735,6.735,0,0,1,.858-.935,18.563,18.563,0,0,1,1.766-.772c1.218-.723,1.369-2.393,1.379-3.808a4.593,4.593,0,0,0-.631-2.913,3.645,3.645,0,0,1-.767-1.038,3.764,3.764,0,0,1-.02-1.093,2.3,2.3,0,0,0-3-2.025,2.791,2.791,0,0,0-1.616-2.718,8.218,8.218,0,0,0-3.28-.7,3.343,3.343,0,0,0-1.549.136,1.145,1.145,0,0,0-.742,1.238,2.45,2.45,0,0,1-1.576-.027,2.191,2.191,0,0,0-1.571.037c-.466.264-.617,1.061-.138,1.3a1.317,1.317,0,0,0-1.667.064,1.315,1.315,0,0,0-.17,1.657,3.345,3.345,0,0,0-2.269.158c-.666.4-.876,1.544-.187,1.9-.75.084-.839,1.159-.594,1.874s.565,1.613.015,2.131a7.447,7.447,0,0,0-3.017-.738A2.543,2.543,0,0,0-36.8,393.4a3.576,3.576,0,0,0-4.279-.155c-1.463-1.2-3.641-.432-5.35.382l-1.875.9a4.5,4.5,0,0,0-1.768,1.226,9.389,9.389,0,0,0-3.155.163,3.173,3.173,0,0,0-2.259,2.035,2.177,2.177,0,0,1-.3.831,1.3,1.3,0,0,1-.708.38c-.747.19-1.534.192-2.269.427a2.029,2.029,0,0,0-1.524,1.556c-.049.511.183,1.071-.079,1.51-.178.293-.528.437-.742.708-.7.888.533,2.22.126,3.276-.227.587-.94,1.006-.858,1.63.052.38.392.649.552,1,.429.935-.535,1.926-.587,2.955-.047.925.644,1.7,1.08,2.516a4.918,4.918,0,0,1,.471,3.261,1.981,1.981,0,0,0-.062,1.048c.192.538.851.718,1.288,1.088.9.76.74,2.161,1.033,3.3.409,1.6,1.769,2.753,3.051,3.794,4.033,3.266,8.127,6.571,12.868,8.685s10.283,2.938,15.132,1.093l-.575-.8a3.034,3.034,0,0,0,2.91-2.38,2.024,2.024,0,0,1,.237-.816C-24.138,432.576-23.522,432.576-23.014,432.448Z" transform="translate(124.644 -381.975)" fill="#35302c"/>
        <path id="Trazado_159124" data-name="Trazado 159124" d="M-23.168,421.7c.644.2-8.036,14.427-18.642,15.593-9.829,1.08-16.649-19.574-16.656-19.606-.15-.713-1.949-13.6-2.575-19.917-.646-6.5,30.057-17.145,37.9.244,1.231,2.728.36,18.011.36,18.011s4.035-3.007,4.492,2.656C-18.119,420.792-23.168,421.7-23.168,421.7Z" transform="translate(125.854 -372.335)" fill="#bc8364"/>
        <path id="Trazado_159125" data-name="Trazado 159125" d="M-50.262,397.835a1.3,1.3,0,0,0,1.406-.829,1.243,1.243,0,0,1-.375,1.048.865.865,0,0,0,1.024-.254.97.97,0,0,1-.533.829,2.862,2.862,0,0,1-.992.279.389.389,0,0,1-.254-.015.413.413,0,0,1-.165-.279l-.165-.639" transform="translate(141.597 -359.932)" fill="#1a1a1a"/>
        <path id="Trazado_159126" data-name="Trazado 159126" d="M-51.934,400a2.615,2.615,0,0,1,2.262-2.923,2.615,2.615,0,0,1,2.923,2.264,2.612,2.612,0,0,1-2.262,2.92A2.613,2.613,0,0,1-51.934,400Z" transform="translate(139.193 -359.856)" fill="#333"/>
        <path id="Trazado_159127" data-name="Trazado 159127" d="M-57.285,398.894a1.271,1.271,0,0,1-1.32-1,1.387,1.387,0,0,0,.269,1.154.818.818,0,0,1-1-.355,1.042,1.042,0,0,0,.446.932,2.692,2.692,0,0,0,.962.38.375.375,0,0,0,.254,0,.455.455,0,0,0,.192-.286l.232-.671" transform="translate(128.365 -358.635)" fill="#1a1a1a"/>
        <path id="Trazado_159128" data-name="Trazado 159128" d="M-58.705,400.493a2.34,2.34,0,0,1,2.1-2.558,2.34,2.34,0,0,1,2.558,2.1,2.339,2.339,0,0,1-2.1,2.558A2.339,2.339,0,0,1-58.705,400.493Z" transform="translate(129.277 -358.586)" fill="#333"/>
        <path id="Trazado_159129" data-name="Trazado 159129" d="M-51.388,398.267a.773.773,0,0,1,.668-.861.769.769,0,0,1,.861.666.771.771,0,0,1-.668.861A.769.769,0,0,1-51.388,398.267Z" transform="translate(140.017 -359.355)" fill="#fff" opacity="0.43"/>
        <path id="Trazado_159130" data-name="Trazado 159130" d="M-58.46,399.181a.635.635,0,0,1,.567-.7.635.635,0,0,1,.7.57.634.634,0,0,1-.57.693A.632.632,0,0,1-58.46,399.181Z" transform="translate(129.649 -357.767)" fill="#fff" opacity="0.43"/>
        <path id="Trazado_159131" data-name="Trazado 159131" d="M-51.553,397.771s-3.986-.718-6.053.3a15.3,15.3,0,0,0-2.607,1.894l1.9-2.9s1.724-1.137,5.865-1.181A1.338,1.338,0,0,1-51.553,397.771Z" transform="translate(127.083 -361.577)" fill="#35302c"/>
        <path id="Trazado_159132" data-name="Trazado 159132" d="M-52.671,397.278s3.769-1.487,5.994-.893a15.43,15.43,0,0,1,2.93,1.344l-2.437-2.469s-1.914-.777-5.984-.007A1.34,1.34,0,0,0-52.671,397.278Z" transform="translate(137.734 -363.001)" fill="#35302c"/>
        <path id="Trazado_159133" data-name="Trazado 159133" d="M-54.316,399.577l.577,5.37c.047.432-.545-.071-.979-.044-.575.037-.821,1.051-.772,1.556.084.826.752,1.172,4.045.53a.82.82,0,0,0,.641-.8C-50.878,404.138-51.273,398.085-54.316,399.577Z" transform="translate(134 -356.504)" fill="#1a1a1a" opacity="0.49"/>
        <path id="Trazado_159134" data-name="Trazado 159134" d="M-54.048,399.463l.434,4.99s-2.072-.113-1.736,1.833c.143.819.908,1.13,4.252.469a1.117,1.117,0,0,0,.881-.789c.116-.464.779-.533-.523-2.173C-52.274,401.863-51.1,398.44-54.048,399.463Z" transform="translate(134.161 -356.602)" fill="#ba6565"/>
        <path id="Trazado_159135" data-name="Trazado 159135" d="M-55.049,402.8a1.486,1.486,0,0,0,1.8-.244.483.483,0,0,0,.158-.259c.052-.294-.252-.5-.491-.557a1.5,1.5,0,0,0-1.137.042,1.037,1.037,0,0,0-.429,1.181" transform="translate(134.434 -353.125)" fill="#fff" opacity="0.43"/>
        <path id="Trazado_159136" data-name="Trazado 159136" d="M-51.987,402.046a1.809,1.809,0,0,0,.649,1.8,4.006,4.006,0,0,0,1.842.777,14.551,14.551,0,0,0,7.9-.95,5.052,5.052,0,0,0,1.84-1.048,2,2,0,0,0,.589-1.944,2.04,2.04,0,0,0-1.583-1.251,5.984,5.984,0,0,0-2.1.079l-6.568,1.036C-50.463,400.709-51.7,401.04-51.987,402.046Z" transform="translate(139.068 -356.472)" fill="#ba6565" opacity="0.52"/>
        <path id="Trazado_159137" data-name="Trazado 159137" d="M-52.63,401.2a3.285,3.285,0,0,0-1.253-.146,32.339,32.339,0,0,1-3.559-.18,1.959,1.959,0,0,0-1.586.276.962.962,0,0,0-.143,1.174,1.638,1.638,0,0,0,.614.513,6.129,6.129,0,0,0,3.021.824,4.906,4.906,0,0,0,2.955-.977,1.03,1.03,0,0,0,.506-.9A.842.842,0,0,0-52.63,401.2Z" transform="translate(128.409 -354.312)" fill="#ba6565" opacity="0.52"/>
        <g id="Grupo_121126" data-name="Grupo 121126" transform="translate(78.058 52.32)">
          <path id="Trazado_159138" data-name="Trazado 159138" d="M-43.665,404.28s-4.287-1.653-5.947-.893c-1.547.7-1.618,1.507-1.618,1.507a2.328,2.328,0,0,0-1.823-.742,8.511,8.511,0,0,0-2.624,1.889s1.648,6.006,6.018,5.291C-44.146,410.426-43.665,404.28-43.665,404.28Z" transform="translate(55.677 -403.187)" fill="#934c4c"/>
          <path id="Trazado_159139" data-name="Trazado 159139" d="M-53.672,406.517a2.273,2.273,0,0,0,2.2-.488c.076-.074.155-.175.116-.274-.052-.133-.242-.116-.377-.074a3.489,3.489,0,0,1-2.323.225.532.532,0,0,0,.375.659" transform="translate(58.013 -399.574)" fill="#fff" opacity="0.43"/>
          <path id="Trazado_159140" data-name="Trazado 159140" d="M-43.623,403.573s-6.6,2.541-12.054,1.9C-55.677,405.475-51.257,412.107-43.623,403.573Z" transform="translate(55.677 -402.621)" fill="#fff"/>
        </g>
        <path id="Trazado_159141" data-name="Trazado 159141" d="M-25.866,408.072c-.067-.5.249-1.014.1-1.492a2.177,2.177,0,0,0-.53-.73,3.043,3.043,0,0,1-.683-2.516c.02.878.042,1.759.062,2.639a1.347,1.347,0,0,0,.16.733c.131.187.35.3.479.486.375.545-.207,1.231-.313,1.884A3.3,3.3,0,0,0-25.962,411a1.679,1.679,0,0,1,.01,1.926c.385-.3.244-.927-.052-1.315a4.163,4.163,0,0,1-.868-1.162c-.227-.728.316-1.549.039-2.262-.289-.74-1.349-1.031-1.477-1.815-.089-.552.348-1.12.165-1.648-.15-.444-.654-.639-1.036-.91a2.29,2.29,0,0,1-.787-2.6,2.014,2.014,0,0,1-1.976-1.717,2.073,2.073,0,0,0-.131-.742,2.289,2.289,0,0,0-.513-.523,3.222,3.222,0,0,1-.59-2.565l-1.576.118a5.656,5.656,0,0,0,1.014,3.017c-.079-.483-.74-.535-1.177-.76-.851-.441-.844-1.643-.713-2.595a1.727,1.727,0,0,1-1.751-.631c-.027.74-.984,1.026-1.724.982s-1.608-.168-2.1.39a2.02,2.02,0,0,1-.392.449c-.449.284-1.009-.224-1.539-.175-.439.042-.742.456-.94.851a5.962,5.962,0,0,0-.594,2.04,1,1,0,0,1-.138.511c-.264.358-1.046.533-.789.9.434-.163.432-.787.254-1.214s-.456-.88-.308-1.32a2.535,2.535,0,0,1,.513-.686,1.913,1.913,0,0,0,.3-1.875c-.434,1.024-2.331.286-2.928,1.221-.143.222-.178.508-.358.7-.506.54-1.707-.022-2.013.651-.069.15-.062.328-.143.474-.17.3-.609.291-.927.168a2.194,2.194,0,0,0-.977-.291c-.572.062-.839.715-1.149,1.2s-1.12.829-1.386.318a1.462,1.462,0,0,1-1.152,1.443c-.567.106-1.325-.052-1.576.466-.237.486.279,1.117,0,1.579-.2.343-.733.375-.932.72-.153.264-.049.594-.054.9A3.4,3.4,0,0,1-59,406.661a9.653,9.653,0,0,0-.668,4.733l-1.334-9.97a8.3,8.3,0,0,1,.2-4.408,8.264,8.264,0,0,1,1.877-2.427,23.922,23.922,0,0,1,4.2-3.6,19.118,19.118,0,0,1,4.61-1.941c8.295-2.484,17.638-2.3,25.23,1.867a12.926,12.926,0,0,1,3.234,2.368,14.5,14.5,0,0,1,2.659,4.593,13.1,13.1,0,0,1,1.112,4.252c.116,2.553-1.046,4.96-2.03,7.318a57.984,57.984,0,0,0-2.881,8.862c.4-.718-.811-1.329-.925-2.141-.069-.486.276-.925.385-1.4.281-1.223-.992-2.319-.974-3.574a4.628,4.628,0,0,0,.03-.866C-24.428,409.4-25.745,409.006-25.866,408.072Z" transform="translate(125.634 -373.977)" fill="#35302c"/>
        <path id="Trazado_159142" data-name="Trazado 159142" d="M-59.3,406.225a58.84,58.84,0,0,0,12.488.18c5.661-.7,21.809-6.832,21.809-6.832l-.562.927-7.513,3s1.263,6.677,1.724,6.889l5.629-4.857s.224.493-.483,1.773-12.2,17.835-23.045,13C-49.258,420.314-57.027,414.071-59.3,406.225Z" transform="translate(128.416 -356.167)" fill="url(#linear-gradient)"/>
        <g id="Grupo_121132" data-name="Grupo 121132" transform="translate(2.546 82.555)">
          <path id="Trazado_159143" data-name="Trazado 159143" d="M-53.352,415.455l-32.721,8.6a.294.294,0,0,0-.21.355l11.43,43.5a.294.294,0,0,0,.358.21l32.721-8.6a.289.289,0,0,0,.207-.355L-53,415.662A.289.289,0,0,0-53.352,415.455Z" transform="translate(86.292 -415.445)" fill="#333"/>
          <rect id="Rectángulo_34402" data-name="Rectángulo 34402" width="29.268" height="41.916" transform="translate(2.829 9.563) rotate(-14.721)" fill="#fff"/>
          <g id="Grupo_121127" data-name="Grupo 121127" transform="translate(6.413 6.976)">
            <path id="Trazado_159144" data-name="Trazado 159144" d="M-60.08,418.278-83.6,424.456a.122.122,0,0,0-.086.148l.012.052a.124.124,0,0,0,.148.086L-60,418.561a.12.12,0,0,0,.084-.148l-.012-.052A.12.12,0,0,0-60.08,418.278Z" transform="translate(83.692 -418.273)" fill="#333" opacity="0.37"/>
            <path id="Trazado_159145" data-name="Trazado 159145" d="M-59.968,418.7l-23.523,6.181a.117.117,0,0,0-.084.146l.012.052a.122.122,0,0,0,.148.086l23.521-6.181a.119.119,0,0,0,.086-.146l-.012-.052A.122.122,0,0,0-59.968,418.7Z" transform="translate(83.856 -417.65)" fill="#333" opacity="0.37"/>
            <path id="Trazado_159146" data-name="Trazado 159146" d="M-59.849,419.156l-23.521,6.181a.119.119,0,0,0-.086.146l.012.052a.122.122,0,0,0,.148.086l23.523-6.181a.117.117,0,0,0,.084-.146l-.012-.052A.122.122,0,0,0-59.849,419.156Z" transform="translate(84.03 -416.984)" fill="#333" opacity="0.37"/>
            <path id="Trazado_159147" data-name="Trazado 159147" d="M-59.737,419.581l-23.523,6.181a.119.119,0,0,0-.084.146l.012.054a.12.12,0,0,0,.148.084l23.521-6.179a.122.122,0,0,0,.086-.148l-.012-.052A.124.124,0,0,0-59.737,419.581Z" transform="translate(84.195 -416.36)" fill="#333" opacity="0.37"/>
          </g>
          <g id="Grupo_121128" data-name="Grupo 121128" transform="translate(12.258 29.224)">
            <path id="Trazado_159148" data-name="Trazado 159148" d="M-57.71,427.3l-23.523,6.179a.12.12,0,0,0-.084.148l.012.052a.12.12,0,0,0,.148.084l23.523-6.179a.122.122,0,0,0,.084-.148l-.012-.052A.12.12,0,0,0-57.71,427.3Z" transform="translate(81.322 -427.293)" fill="#333" opacity="0.37"/>
            <path id="Trazado_159149" data-name="Trazado 159149" d="M-57.6,427.722-81.121,433.9a.124.124,0,0,0-.086.148l.015.052a.12.12,0,0,0,.146.086l23.523-6.181a.119.119,0,0,0,.086-.146l-.015-.052A.118.118,0,0,0-57.6,427.722Z" transform="translate(81.485 -426.67)" fill="#333" opacity="0.37"/>
            <path id="Trazado_159150" data-name="Trazado 159150" d="M-57.479,428.177-81,434.358a.118.118,0,0,0-.084.146l.012.052a.122.122,0,0,0,.148.086L-57.4,428.46a.118.118,0,0,0,.084-.146l-.012-.052A.122.122,0,0,0-57.479,428.177Z" transform="translate(81.661 -426.004)" fill="#333" opacity="0.37"/>
            <path id="Trazado_159151" data-name="Trazado 159151" d="M-57.367,428.6l-23.523,6.181a.122.122,0,0,0-.086.146l.015.054a.121.121,0,0,0,.146.084l23.523-6.179a.122.122,0,0,0,.086-.148l-.015-.052A.12.12,0,0,0-57.367,428.6Z" transform="translate(81.824 -425.38)" fill="#333" opacity="0.37"/>
          </g>
          <g id="Grupo_121129" data-name="Grupo 121129" transform="translate(7.711 11.919)">
            <path id="Trazado_159152" data-name="Trazado 159152" d="M-59.553,420.282l-23.523,6.179a.124.124,0,0,0-.086.148l.015.052a.121.121,0,0,0,.146.086l23.523-6.181a.12.12,0,0,0,.086-.146l-.015-.054A.117.117,0,0,0-59.553,420.282Z" transform="translate(83.165 -420.277)" fill="#333" opacity="0.37"/>
            <path id="Trazado_159153" data-name="Trazado 159153" d="M-59.44,420.706l-23.523,6.181a.118.118,0,0,0-.086.146l.015.052a.118.118,0,0,0,.146.086l23.523-6.181a.12.12,0,0,0,.086-.146l-.015-.052A.119.119,0,0,0-59.44,420.706Z" transform="translate(83.329 -419.654)" fill="#333" opacity="0.37"/>
            <path id="Trazado_159154" data-name="Trazado 159154" d="M-59.322,421.16l-23.523,6.181a.121.121,0,0,0-.086.146l.015.052a.12.12,0,0,0,.146.086l23.523-6.181a.118.118,0,0,0,.086-.146l-.015-.052A.118.118,0,0,0-59.322,421.16Z" transform="translate(83.504 -418.988)" fill="#333" opacity="0.37"/>
            <path id="Trazado_159155" data-name="Trazado 159155" d="M-59.209,421.585l-23.523,6.181a.122.122,0,0,0-.086.148l.015.052a.118.118,0,0,0,.146.084l23.523-6.179a.122.122,0,0,0,.086-.148l-.015-.052A.121.121,0,0,0-59.209,421.585Z" transform="translate(83.668 -418.364)" fill="#333" opacity="0.37"/>
          </g>
          <g id="Grupo_121130" data-name="Grupo 121130" transform="translate(8.818 16.132)">
            <path id="Trazado_159156" data-name="Trazado 159156" d="M-59.1,421.989l-23.523,6.181a.119.119,0,0,0-.086.146l.015.052a.119.119,0,0,0,.146.086l23.523-6.181a.118.118,0,0,0,.086-.146l-.015-.052A.119.119,0,0,0-59.1,421.989Z" transform="translate(82.717 -421.985)" fill="#333" opacity="0.37"/>
            <path id="Trazado_159157" data-name="Trazado 159157" d="M-58.991,422.414-82.514,428.6a.122.122,0,0,0-.086.148l.015.052a.117.117,0,0,0,.146.084l23.523-6.179a.124.124,0,0,0,.086-.148l-.015-.052A.122.122,0,0,0-58.991,422.414Z" transform="translate(82.881 -421.362)" fill="#333" opacity="0.37"/>
            <path id="Trazado_159158" data-name="Trazado 159158" d="M-58.872,422.87-82.4,429.048a.122.122,0,0,0-.086.148l.015.052a.121.121,0,0,0,.146.086l23.523-6.181a.12.12,0,0,0,.086-.146l-.015-.054A.118.118,0,0,0-58.872,422.87Z" transform="translate(83.055 -420.695)" fill="#333" opacity="0.37"/>
            <path id="Trazado_159159" data-name="Trazado 159159" d="M-58.76,423.294l-23.523,6.181a.118.118,0,0,0-.086.146l.015.052a.118.118,0,0,0,.146.086l23.523-6.181a.121.121,0,0,0,.086-.146l-.015-.052A.12.12,0,0,0-58.76,423.294Z" transform="translate(83.22 -420.072)" fill="#333" opacity="0.37"/>
          </g>
          <g id="Grupo_121131" data-name="Grupo 121131" transform="translate(9.93 20.365)">
            <path id="Trazado_159160" data-name="Trazado 159160" d="M-58.652,423.706l-23.523,6.179a.122.122,0,0,0-.086.148l.015.052a.118.118,0,0,0,.146.086l23.523-6.181a.121.121,0,0,0,.086-.146l-.015-.052A.12.12,0,0,0-58.652,423.706Z" transform="translate(82.266 -423.701)" fill="#333" opacity="0.37"/>
            <path id="Trazado_159161" data-name="Trazado 159161" d="M-58.542,424.13l-23.523,6.181a.12.12,0,0,0-.084.146l.012.052a.122.122,0,0,0,.148.086l23.523-6.179a.12.12,0,0,0,.084-.148l-.012-.052A.122.122,0,0,0-58.542,424.13Z" transform="translate(82.43 -423.078)" fill="#333" opacity="0.37"/>
            <path id="Trazado_159162" data-name="Trazado 159162" d="M-58.421,424.584l-23.523,6.181a.12.12,0,0,0-.086.146l.015.054a.119.119,0,0,0,.146.084l23.523-6.179a.124.124,0,0,0,.086-.148l-.015-.052A.121.121,0,0,0-58.421,424.584Z" transform="translate(82.604 -422.412)" fill="#333" opacity="0.37"/>
            <path id="Trazado_159163" data-name="Trazado 159163" d="M-58.311,425.01l-23.521,6.179a.122.122,0,0,0-.086.148l.012.052a.124.124,0,0,0,.148.086l23.523-6.181a.119.119,0,0,0,.084-.146l-.012-.054A.12.12,0,0,0-58.311,425.01Z" transform="translate(82.769 -421.788)" fill="#333" opacity="0.37"/>
          </g>
          <rect id="Rectángulo_34403" data-name="Rectángulo 34403" width="7.17" height="3.456" transform="matrix(0.967, -0.254, 0.254, 0.967, 12.488, 2.844)" fill="#b3b3b3"/>
          <rect id="Rectángulo_34404" data-name="Rectángulo 34404" width="11.803" height="2.456" transform="matrix(0.967, -0.254, 0.254, 0.967, 10.871, 5.807)" fill="#b3b3b3"/>
        </g>
        <path id="Trazado_159164" data-name="Trazado 159164" d="M-39.439,447.858s-6.2,12.056-7.249,13.176-.118,3.088,1.371,1.968a13.794,13.794,0,0,0,2.871-3.717l-1.542,11.383s-.414,1.588.678,1.934,1.426-2.018,1.426-2.018l1.426-7.4.158,8.324s.138,1.729,1.2,1.818.989-2.079.989-2.079l.525-8.228.871,8.233s.217,2.059,1.423,2.04.794-2.93.794-2.93l-.281-7.9,1.677,4.292s.34.745.969.326.326-1.411.326-1.411-.656-13.891-1.556-16.045-1.2-2.215-1.2-2.215l-4.556.372Z" transform="translate(146.262 -286.017)" fill="#bc8364"/>
        <path id="Trazado_159165" data-name="Trazado 159165" d="M-34.981,503.586l-9.7-1.776c.044-.249,4.558-25.057,4.854-38.073.291-12.838-4.013-30.5-5.244-36.063l5.14-14.183c1.951.516,10.285,36.5,9.967,50.473C-30.28,477.759-34.789,502.535-34.981,503.586Z" transform="translate(149.285 -335.756)" fill="#dfebf4"/>
      </g>
    </g>
  </g>
</svg>
