<svg xmlns="http://www.w3.org/2000/svg" width="212.719" height="128.479" viewBox="0 0 212.719 128.479">
  <g id="img26" transform="translate(494.017 474.061)">
    <g id="Grupo_127421" data-name="Grupo 127421" transform="translate(-494.017 -474.061)">
      <path id="Trazado_163215" data-name="Trazado 163215" d="M812.963-289.453c-.206.939-.466,1.869-.605,2.817a6.525,6.525,0,0,1-2.079,3.982c-5.09,4.6-10.226,9.154-15.348,13.72-2.43,2.166-4.853,4.34-7.311,6.474a1.012,1.012,0,0,0-.286,1.311q5.148,14.847,10.269,29.7a7.65,7.65,0,0,1-5.143,10.091,7.561,7.561,0,0,1-9.133-4.586c-1.649-4.552-3.189-9.143-4.768-13.72q-2.313-6.705-4.609-13.415c-1-2.9-2.048-5.786-2.992-8.7-1.094-3.381-.133-6.219,2.482-8.55l15.917-14.183c.826-.736,1.64-1.487,2.492-2.191a.63.63,0,0,0,.213-.838,68.883,68.883,0,0,0-5.907-12.086,14.094,14.094,0,0,0-1.01-1.637,1.251,1.251,0,0,1-.015-1.643c2.275-3.924,4.562-7.843,6.735-11.824a6.189,6.189,0,0,0-2.6-8.393,6.267,6.267,0,0,0-8.43,2.365q-4.109,7.131-8.175,14.288a.675.675,0,0,1-.781.407c-1.251-.161-2.506-.29-3.845-.44.3-.821.578-1.619.872-2.411q2.913-7.83,5.836-15.657a8.226,8.226,0,0,1,4.989-4.845,13.376,13.376,0,0,1,11.579.9,22.576,22.576,0,0,1,6.492,5.807,72.77,72.77,0,0,1,8.27,11.688,68.073,68.073,0,0,1,5.139,12.136c.582,1.805,1.043,3.65,1.544,5.481.1.378.141.775.209,1.163Z" transform="translate(-600.244 349.447)" fill="#1d272b"/>
      <path id="Trazado_163216" data-name="Trazado 163216" d="M-494.017,115.858a6.061,6.061,0,0,1,1.7-2.843,4.992,4.992,0,0,1,3.3-1.194c3.234.007,6.468.022,9.7,0a1.927,1.927,0,0,1,1.483.632c1.794,1.71,3.664,3.341,5.507,5,1.489,1.34,2.982,2.677,4.429,4.167h-.76q-10.034,0-20.069,0a4.845,4.845,0,0,1-5.192-3.987.846.846,0,0,0-.1-.174Z" transform="translate(494.017 -33.927)" fill="#1d272b"/>
      <path id="Trazado_163217" data-name="Trazado 163217" d="M-385.174-274.415c-1.72-.989-3.387-1.947-5.053-2.907-3.208-1.851-3.713-5.265-1.272-8.054,4.3-4.915,8.549-9.874,12.827-14.808a5.58,5.58,0,0,1,5.628-1.877c1.859.376,3.677.956,5.514,1.441,5.042,1.333,10.065,2.749,15.137,3.957a6.153,6.153,0,0,1,4.5,3.674c2.654,5.668,5.422,11.282,8.115,16.932a1.141,1.141,0,0,0,1.018.75c3.012.352,6.021.725,9.031,1.093,2.526.309,5.052.61,7.576.934a4.908,4.908,0,0,1,4.239,5.371,4.85,4.85,0,0,1-4.853,4.381c-1.9-.077-3.781-.416-5.67-.646q-5.8-.706-11.6-1.421c-1.229-.152-2.464-.282-3.681-.5a4.629,4.629,0,0,1-3.423-2.675c-1.017-2.063-2-4.142-3-6.212-.1-.208-.221-.407-.4-.729-.707,2.667-1.378,5.2-2.051,7.729q-1.455,5.477-2.917,10.951a.89.89,0,0,0,.283,1.038q7.322,6.507,14.611,13.052a36.976,36.976,0,0,1,2.953,2.854c1.128,1.267,1.381,2.933,1.78,4.518q3.225,12.814,6.446,25.63a33.646,33.646,0,0,1,1.126,5.237,7.421,7.421,0,0,1-6.632,8.061,7.556,7.556,0,0,1-8.37-5.706c-1.3-5.077-2.561-10.162-3.84-15.243-1.115-4.431-2.223-8.863-3.361-13.288a1.977,1.977,0,0,0-.594-.9q-8.53-7.645-17.083-15.266c-.994-.888-.986-.9-2.258-.138l3.3,2.958q6.089,5.447,12.166,10.907a.97.97,0,0,1,.225.783q-1.663,7.984-3.373,15.958c-1,4.692-1.964,9.391-3.008,14.073a7.559,7.559,0,0,1-7.707,5.927,7.7,7.7,0,0,1-7.279-6.244,12.018,12.018,0,0,1,.438-4.853q2.606-12.26,5.241-24.515a.9.9,0,0,0-.366-.963q-7.017-6.25-14.02-12.515c-1.007-.9-2.016-1.8-3.012-2.71a7.819,7.819,0,0,1-1.946-8.408c.557-1.549.812-3.205,1.231-4.806C-387.439-265.853-386.312-270.1-385.174-274.415Z" transform="translate(406.459 325.051)" fill="#1d272b"/>
      <path id="Trazado_163218" data-name="Trazado 163218" d="M33.821,121.7v38.568H14.93c.061-.153.109-.311.183-.455a10.955,10.955,0,0,0,.82-7.988c-1.415-5.5-2.772-11.014-4.154-16.523Q10.7,131,9.615,126.687c-.43-1.71-.913-3.409-1.291-5.131a11.816,11.816,0,0,0-4.272-6.764c-1.058-.866-2.052-1.811-3.2-2.827.345-.022.547-.047.75-.047q36.46,0,72.921,0,9.074,0,18.147,0a4.709,4.709,0,0,1,4.507,2.837,4.87,4.87,0,0,1-4.05,6.917c-.464.031-.93.028-1.4.028H33.821Z" transform="translate(64.936 -34.011)" fill="#1d272b"/>
      <path id="Trazado_163219" data-name="Trazado 163219" d="M-80.435-33.911l-.63-.151c.5-1.918.988-3.8,1.491-5.674a.8.8,0,0,1,1.239-.239c1.725,2.09,4.056,2.722,6.632,3,4.8.515,9.574,1.19,14.364,1.754a35.736,35.736,0,0,0,5.872.457,7.646,7.646,0,0,0,6.922-6.168c.1-.5.305-.583.74-.588,6.069-.076,12.138-.182,18.208-.242a61.656,61.656,0,0,1,6.616.131,11.391,11.391,0,0,1,7.189,3.352,7.657,7.657,0,0,1,1.943,6.886,13,13,0,0,1-4.1,7.7,1.718,1.718,0,0,1-1.3.5q-23.662-.018-47.325,0a1.018,1.018,0,0,1-.993-.5,5.447,5.447,0,0,1-.615-.941c-.267-.787-.793-.87-1.529-.824-2.675.167-5.353.283-8.031.384a1.476,1.476,0,0,1-.946-.3q-2.751-2.4-5.439-4.877a1.14,1.14,0,0,1-.3-.738C-80.455-31.953-80.435-32.926-80.435-33.911Z" transform="translate(135.967 99.258)" fill="#1d272b"/>
      <path id="Trazado_163220" data-name="Trazado 163220" d="M641.674-266.224a15.38,15.38,0,0,1-.894,2.456q-5.144,9.1-10.368,18.152a4.929,4.929,0,0,1-5.058,2.437c-4.944-.586-9.893-1.13-14.839-1.7-3.693-.424-7.393-.79-11.073-1.31a4.78,4.78,0,0,1-3.94-5.666,4.953,4.953,0,0,1,5.5-3.981c5.251.626,10.508,1.208,15.763,1.8,2.067.235,4.137.439,6.2.708a.642.642,0,0,0,.777-.379q4.268-7.5,8.554-14.98a4.894,4.894,0,0,1,5.411-2.418,4.839,4.839,0,0,1,3.794,4.815Z" transform="translate(-450.587 298.208)" fill="#1d272b"/>
      <path id="Trazado_163221" data-name="Trazado 163221" d="M490.763-75.673l-2.1,3.211,3.711,2.441,3.17-4.78a13.309,13.309,0,0,1,6.547,5.256,13.449,13.449,0,0,1,.771,13.941A19.078,19.078,0,0,1,501-52.87a.86.86,0,0,1-.617.266q-9.769.021-19.538,0a1.1,1.1,0,0,1-.7-.382,13.7,13.7,0,0,1-1.3-16.082,13.646,13.646,0,0,1,10.656-6.6C489.869-75.708,490.249-75.673,490.763-75.673Z" transform="translate(-347.758 128.65)" fill="#1d272b"/>
      <path id="Trazado_163222" data-name="Trazado 163222" d="M-192.573-422.413c-1.321-1.595-3.266-1.922-5.153-2.411-4.877-1.262-9.742-2.567-14.617-3.836a1.169,1.169,0,0,1-.939-.86,13.854,13.854,0,0,1,10.359-17.857,13.682,13.682,0,0,1,14.255,5.935,13.73,13.73,0,0,1-3.719,18.968A.958.958,0,0,1-192.573-422.413Z" transform="translate(251.195 451.172)" fill="#1d272b"/>
      <path id="Trazado_163223" data-name="Trazado 163223" d="M613.02-449.225c-4.328-3.581-6.239-8.093-5.207-13.537a13.04,13.04,0,0,1,10.165-10.821c5.329-1.368,9.891.252,13.752,4.22Z" transform="translate(-461.087 474.061)" fill="#1d272b"/>
      <path id="Trazado_163224" data-name="Trazado 163224" d="M725.59-430.935a13.654,13.654,0,0,1,1.817,12.629,13.508,13.508,0,0,1-8.183,8.357,13.625,13.625,0,0,0-4.328-9.5Z" transform="translate(-554.172 436.669)" fill="#1d272b"/>
      <path id="Trazado_163225" data-name="Trazado 163225" d="M-446.441,13.857c-2.357,0-4.682.014-7.006-.02a1.079,1.079,0,0,1-.718-.45,7.66,7.66,0,0,1,5.257-12c.979-.138,1.957-.283,3.033-.438-.147.582-.267,1.065-.391,1.547-.362,1.412-.783,2.811-1.074,4.237a10.5,10.5,0,0,0,.717,6.491c.063.141.125.283.181.427A.84.84,0,0,1-446.441,13.857Z" transform="translate(460.679 62.203)" fill="#1d272b"/>
      <path id="Trazado_163226" data-name="Trazado 163226" d="M674.129-64.814l-12.16,7.076a16.169,16.169,0,0,0-5.083-8.3,2.351,2.351,0,0,1,2.038-.676c3.775.467,7.558.873,11.337,1.3,1.27.145,2.54.3,3.809.448Z" transform="translate(-503.874 120.888)" fill="#1d272b"/>
      <path id="Trazado_163227" data-name="Trazado 163227" d="M652.8-215.393l5.157-7.838,1.369.891c-1.529,2.32-3.029,4.607-4.551,6.879a.724.724,0,0,1-.545.235C653.791-215.237,653.356-215.322,652.8-215.393Z" transform="translate(-500.329 256.579)" fill="#1d272b"/>
      <path id="Trazado_163228" data-name="Trazado 163228" d="M584.363-82.837a1.706,1.706,0,0,1-.11.252c-.779,1.2-1.56,2.4-2.367,3.632l-1.368-.907,2.572-3.892Z" transform="translate(-437.659 135.642)" fill="#1d272b"/>
    </g>
  </g>
</svg>
