<svg xmlns="http://www.w3.org/2000/svg" xmlns:xlink="http://www.w3.org/1999/xlink" width="236.672" height="236.312" viewBox="0 0 236.672 236.312">
  <defs>
    <linearGradient id="linear-gradient" x1="0.5" x2="0.5" y2="1" gradientUnits="objectBoundingBox">
      <stop offset="0" stop-color="#fff"/>
      <stop offset="1" stop-color="#f8f8f8"/>
    </linearGradient>
    <filter id="Rectángulo_29523" x="0" y="0" width="236.672" height="236.312" filterUnits="userSpaceOnUse">
      <feOffset dy="3" input="SourceAlpha"/>
      <feGaussianBlur stdDeviation="3" result="blur"/>
      <feFlood flood-opacity="0.161"/>
      <feComposite operator="in" in2="blur"/>
      <feComposite in="SourceGraphic"/>
    </filter>
    <radialGradient id="radial-gradient" cx="0.076" cy="0.019" r="1.465" gradientTransform="translate(0.001)" gradientUnits="objectBoundingBox">
      <stop offset="0" stop-color="#f6f6f7"/>
      <stop offset="0.477" stop-color="#f9f9fa"/>
      <stop offset="0.715" stop-color="#fff"/>
    </radialGradient>
  </defs>
  <g id="img31" transform="translate(-270.076 -2914.593)">
    <g id="Grupo_61744" data-name="Grupo 61744" transform="translate(272 2913.391)">
      <g id="Grupo_57070" data-name="Grupo 57070" transform="translate(0 0)">
        <g transform="matrix(1, 0, 0, 1, -1.92, 1.2)" filter="url(#Rectángulo_29523)">
          <rect id="Rectángulo_29523-2" data-name="Rectángulo 29523" width="218.672" height="218.312" rx="10" transform="translate(9 6)" fill="url(#linear-gradient)"/>
        </g>
        <path id="Trazado_123976" data-name="Trazado 123976" d="M185.015,982.253H403.687v8.985H306.651l-12.736,8.61-13.7-8.8-95.2.187Z" transform="translate(-177.939 -975.05)" fill="#d93328"/>
        <path id="Trazado_123977" data-name="Trazado 123977" d="M271.948,988.712l-7.319,6.865a1.845,1.845,0,0,1-2.586.019l-7.739-7.079" transform="translate(-147.512 -976.938)" fill="none" stroke="#12263f" stroke-linecap="round" stroke-miterlimit="10" stroke-width="0.806"/>
        <path id="Trazado_165456" data-name="Trazado 165456" d="M42.707,17h-1.5V5.625h1.5ZM46.59,8.547l.047,1.063a3.08,3.08,0,0,1,2.531-1.219q2.68,0,2.7,3.023V17H50.426V11.406a1.946,1.946,0,0,0-.418-1.352,1.675,1.675,0,0,0-1.277-.437,2.086,2.086,0,0,0-1.234.375,2.546,2.546,0,0,0-.828.984V17H45.223V8.547ZM59.27,17a3.036,3.036,0,0,1-.2-.891,3.225,3.225,0,0,1-2.406,1.047,2.984,2.984,0,0,1-2.051-.707,2.287,2.287,0,0,1-.8-1.793,2.39,2.39,0,0,1,1-2.051,4.733,4.733,0,0,1,2.824-.73h1.406v-.664A1.623,1.623,0,0,0,58.59,10a1.821,1.821,0,0,0-1.336-.449,2.107,2.107,0,0,0-1.3.391,1.151,1.151,0,0,0-.523.945H53.98a2,2,0,0,1,.449-1.223,3.066,3.066,0,0,1,1.219-.934,4.1,4.1,0,0,1,1.691-.344,3.342,3.342,0,0,1,2.289.73,2.635,2.635,0,0,1,.859,2.012v3.891a4.757,4.757,0,0,0,.3,1.852V17Zm-2.4-1.1a2.54,2.54,0,0,0,1.289-.352,2.127,2.127,0,0,0,.883-.914V12.9H57.91q-2.656,0-2.656,1.555a1.316,1.316,0,0,0,.453,1.063A1.742,1.742,0,0,0,56.871,15.9Zm9.273.078a2.082,2.082,0,0,0,1.352-.469,1.649,1.649,0,0,0,.641-1.172H69.5a2.621,2.621,0,0,1-.5,1.383,3.293,3.293,0,0,1-1.23,1.047,3.55,3.55,0,0,1-1.629.391A3.482,3.482,0,0,1,63.4,16a4.59,4.59,0,0,1-1.02-3.152v-.242a5.089,5.089,0,0,1,.453-2.2,3.451,3.451,0,0,1,1.3-1.492,3.7,3.7,0,0,1,2-.531,3.39,3.39,0,0,1,2.363.852,3.043,3.043,0,0,1,1,2.211H68.137a1.992,1.992,0,0,0-.621-1.348,1.932,1.932,0,0,0-1.379-.527,2.023,2.023,0,0,0-1.707.793,3.724,3.724,0,0,0-.605,2.293v.273a3.65,3.65,0,0,0,.6,2.25A2.033,2.033,0,0,0,66.145,15.977ZM73.09,6.5V8.547h1.578V9.664H73.09v5.249a1.173,1.173,0,0,0,.211.763.888.888,0,0,0,.719.254,3.5,3.5,0,0,0,.688-.094V17a4.215,4.215,0,0,1-1.109.155,1.8,1.8,0,0,1-1.461-.586,2.517,2.517,0,0,1-.492-1.664V9.664H70.105V8.547h1.539V6.5ZM77.926,17H76.48V8.547h1.445ZM76.363,6.3a.863.863,0,0,1,.215-.594.807.807,0,0,1,.637-.242.819.819,0,0,1,.641.242.854.854,0,0,1,.219.594.826.826,0,0,1-.219.586.834.834,0,0,1-.641.234.821.821,0,0,1-.637-.234A.834.834,0,0,1,76.363,6.3Zm6.664,8.734,2.094-6.492H86.6L83.566,17h-1.1L79.4,8.547h1.477ZM93.09,17a3.036,3.036,0,0,1-.2-.891,3.225,3.225,0,0,1-2.406,1.047,2.984,2.984,0,0,1-2.051-.707,2.288,2.288,0,0,1-.8-1.793,2.39,2.39,0,0,1,1-2.051,4.733,4.733,0,0,1,2.824-.73h1.406v-.664A1.623,1.623,0,0,0,92.41,10a1.821,1.821,0,0,0-1.336-.449,2.108,2.108,0,0,0-1.3.391,1.151,1.151,0,0,0-.523.945H87.8a2,2,0,0,1,.449-1.223,3.066,3.066,0,0,1,1.219-.934,4.1,4.1,0,0,1,1.691-.344,3.342,3.342,0,0,1,2.289.73,2.635,2.635,0,0,1,.859,2.012v3.891a4.757,4.757,0,0,0,.3,1.852V17Zm-2.4-1.1a2.54,2.54,0,0,0,1.289-.352,2.127,2.127,0,0,0,.883-.914V12.9H91.73q-2.656,0-2.656,1.555a1.316,1.316,0,0,0,.453,1.063A1.742,1.742,0,0,0,90.691,15.9Zm9.273.078a2.082,2.082,0,0,0,1.352-.469,1.649,1.649,0,0,0,.641-1.172h1.367a2.621,2.621,0,0,1-.5,1.383,3.293,3.293,0,0,1-1.23,1.047,3.55,3.55,0,0,1-1.629.391A3.482,3.482,0,0,1,97.219,16a4.59,4.59,0,0,1-1.02-3.152v-.242a5.089,5.089,0,0,1,.453-2.2,3.451,3.451,0,0,1,1.3-1.492,3.7,3.7,0,0,1,2-.531,3.39,3.39,0,0,1,2.363.852,3.043,3.043,0,0,1,1,2.211h-1.367a1.992,1.992,0,0,0-.621-1.348,1.932,1.932,0,0,0-1.379-.527,2.023,2.023,0,0,0-1.707.793,3.724,3.724,0,0,0-.605,2.293v.273a3.65,3.65,0,0,0,.6,2.25A2.033,2.033,0,0,0,99.965,15.977ZM106.52,17h-1.445V8.547h1.445ZM104.957,6.3a.863.863,0,0,1,.215-.594.807.807,0,0,1,.637-.242.819.819,0,0,1,.641.242.854.854,0,0,1,.219.594.826.826,0,0,1-.219.586.834.834,0,0,1-.641.234.821.821,0,0,1-.637-.234A.834.834,0,0,1,104.957,6.3Zm3.492,6.391a4.993,4.993,0,0,1,.488-2.234A3.643,3.643,0,0,1,110.3,8.93a3.7,3.7,0,0,1,1.988-.539,3.565,3.565,0,0,1,2.793,1.2,4.6,4.6,0,0,1,1.066,3.18v.1a5.036,5.036,0,0,1-.473,2.215,3.589,3.589,0,0,1-1.352,1.527,3.743,3.743,0,0,1-2.02.547,3.556,3.556,0,0,1-2.785-1.2,4.575,4.575,0,0,1-1.066-3.164Zm1.453.172a3.616,3.616,0,0,0,.652,2.258,2.211,2.211,0,0,0,3.5-.012A3.955,3.955,0,0,0,114.7,12.7a3.61,3.61,0,0,0-.66-2.254,2.1,2.1,0,0,0-1.754-.863,2.075,2.075,0,0,0-1.727.852A3.925,3.925,0,0,0,109.9,12.867ZM112.941,5h1.75L112.6,7.3l-1.164,0Zm6.383,3.547.047,1.063A3.08,3.08,0,0,1,121.9,8.391q2.68,0,2.7,3.023V17H123.16V11.406a1.946,1.946,0,0,0-.418-1.352,1.675,1.675,0,0,0-1.277-.437,2.086,2.086,0,0,0-1.234.375,2.546,2.546,0,0,0-.828.984V17h-1.445V8.547Zm14.188,6.336,1.969-6.336h1.547l-3.4,9.758q-.789,2.109-2.508,2.109l-.273-.023-.539-.1V19.117l.391.031a1.923,1.923,0,0,0,1.145-.3,2.148,2.148,0,0,0,.676-1.086l.32-.859-3.016-8.359H131.4ZM13.633,41.156a3.693,3.693,0,0,1-2.8-1.129,4.19,4.19,0,0,1-1.078-3.02v-.266a5.073,5.073,0,0,1,.48-2.246,3.748,3.748,0,0,1,1.344-1.547,3.378,3.378,0,0,1,1.871-.559,3.166,3.166,0,0,1,2.563,1.086,4.7,4.7,0,0,1,.914,3.109v.6H11.2a3,3,0,0,0,.73,2.02,2.3,2.3,0,0,0,1.777.77,2.517,2.517,0,0,0,1.3-.312,3.258,3.258,0,0,0,.93-.828l.883.688A3.55,3.55,0,0,1,13.633,41.156Zm-.18-7.578a1.928,1.928,0,0,0-1.469.637A3.1,3.1,0,0,0,11.25,36h4.234v-.109a2.753,2.753,0,0,0-.594-1.707A1.815,1.815,0,0,0,13.453,33.578Zm10.07,5.18a1.064,1.064,0,0,0-.441-.91,4.249,4.249,0,0,0-1.539-.559,7.277,7.277,0,0,1-1.742-.562,2.479,2.479,0,0,1-.953-.781,1.869,1.869,0,0,1-.309-1.078,2.193,2.193,0,0,1,.879-1.758,3.432,3.432,0,0,1,2.246-.719A3.532,3.532,0,0,1,24,33.133a2.357,2.357,0,0,1,.895,1.9H23.438a1.3,1.3,0,0,0-.5-1.023,1.888,1.888,0,0,0-1.27-.43,1.976,1.976,0,0,0-1.234.344,1.082,1.082,0,0,0-.445.9.877.877,0,0,0,.414.789,5.1,5.1,0,0,0,1.5.508,7.8,7.8,0,0,1,1.754.578,2.558,2.558,0,0,1,1,.809,1.988,1.988,0,0,1,.324,1.152,2.163,2.163,0,0,1-.906,1.816,3.8,3.8,0,0,1-2.352.684,4.257,4.257,0,0,1-1.8-.359,2.922,2.922,0,0,1-1.223-1A2.42,2.42,0,0,1,18.25,38.4H19.7a1.5,1.5,0,0,0,.582,1.152,2.258,2.258,0,0,0,1.434.426,2.331,2.331,0,0,0,1.316-.332A1.02,1.02,0,0,0,23.523,38.758ZM28.813,30.5v2.047h1.578v1.117H28.813v5.249a1.173,1.173,0,0,0,.211.763.888.888,0,0,0,.719.254,3.5,3.5,0,0,0,.688-.094V41a4.215,4.215,0,0,1-1.109.155,1.8,1.8,0,0,1-1.461-.586,2.517,2.517,0,0,1-.492-1.664V33.664H25.828V32.547h1.539V30.5ZM37.3,41a3.036,3.036,0,0,1-.2-.891,3.225,3.225,0,0,1-2.406,1.047,2.984,2.984,0,0,1-2.051-.707,2.287,2.287,0,0,1-.8-1.793,2.39,2.39,0,0,1,1-2.051,4.733,4.733,0,0,1,2.824-.73H37.07v-.664A1.623,1.623,0,0,0,36.617,34a1.821,1.821,0,0,0-1.336-.449,2.107,2.107,0,0,0-1.3.391,1.151,1.151,0,0,0-.523.945H32.008a2,2,0,0,1,.449-1.223,3.066,3.066,0,0,1,1.219-.934,4.1,4.1,0,0,1,1.691-.344,3.342,3.342,0,0,1,2.289.73,2.635,2.635,0,0,1,.859,2.012v3.891a4.757,4.757,0,0,0,.3,1.852V41Zm-2.4-1.1a2.54,2.54,0,0,0,1.289-.352,2.127,2.127,0,0,0,.883-.914V36.9H35.938q-2.656,0-2.656,1.555a1.316,1.316,0,0,0,.453,1.063A1.742,1.742,0,0,0,34.9,39.9Zm13.039-3.031a5.026,5.026,0,0,1-.891,3.113,2.846,2.846,0,0,1-2.391,1.176,2.947,2.947,0,0,1-2.477-1.133l-.07.977H40.781V29h1.445v4.477a2.93,2.93,0,0,1,2.414-1.086,2.863,2.863,0,0,1,2.418,1.164,5.177,5.177,0,0,1,.879,3.188ZM46.492,36.7a3.906,3.906,0,0,0-.57-2.281,1.888,1.888,0,0,0-1.641-.8,2.122,2.122,0,0,0-2.055,1.328V38.6A2.181,2.181,0,0,0,44.3,39.93a1.878,1.878,0,0,0,1.617-.8A4.153,4.153,0,0,0,46.492,36.7ZM51.328,41H49.883V32.547h1.445ZM49.766,30.3a.863.863,0,0,1,.215-.594.807.807,0,0,1,.637-.242.819.819,0,0,1,.641.242.854.854,0,0,1,.219.594.826.826,0,0,1-.219.586.834.834,0,0,1-.641.234.821.821,0,0,1-.637-.234A.834.834,0,0,1,49.766,30.3ZM55.211,41H53.766V29h1.445Zm3.883,0H57.648V32.547h1.445ZM57.531,30.3a.863.863,0,0,1,.215-.594.807.807,0,0,1,.637-.242.819.819,0,0,1,.641.242.854.854,0,0,1,.219.594.826.826,0,0,1-.219.586.834.834,0,0,1-.641.234.821.821,0,0,1-.637-.234A.834.834,0,0,1,57.531,30.3Zm5.234,9.516h4.945V41H61V39.938l4.664-6.2H61.07v-1.2h6.406V33.57ZM74.555,41a3.036,3.036,0,0,1-.2-.891,3.225,3.225,0,0,1-2.406,1.047,2.984,2.984,0,0,1-2.051-.707,2.288,2.288,0,0,1-.8-1.793,2.39,2.39,0,0,1,1-2.051,4.733,4.733,0,0,1,2.824-.73h1.406v-.664A1.623,1.623,0,0,0,73.875,34a1.821,1.821,0,0,0-1.336-.449,2.107,2.107,0,0,0-1.3.391,1.151,1.151,0,0,0-.523.945H69.266a2,2,0,0,1,.449-1.223,3.066,3.066,0,0,1,1.219-.934,4.1,4.1,0,0,1,1.691-.344,3.342,3.342,0,0,1,2.289.73,2.635,2.635,0,0,1,.859,2.012v3.891a4.757,4.757,0,0,0,.3,1.852V41Zm-2.4-1.1a2.54,2.54,0,0,0,1.289-.352,2.127,2.127,0,0,0,.883-.914V36.9H73.2q-2.656,0-2.656,1.555a1.316,1.316,0,0,0,.453,1.063A1.742,1.742,0,0,0,72.156,39.9Zm9.273.078a2.082,2.082,0,0,0,1.352-.469,1.649,1.649,0,0,0,.641-1.172h1.367a2.621,2.621,0,0,1-.5,1.383,3.293,3.293,0,0,1-1.23,1.047,3.55,3.55,0,0,1-1.629.391A3.482,3.482,0,0,1,78.684,40a4.59,4.59,0,0,1-1.02-3.152v-.242a5.089,5.089,0,0,1,.453-2.2,3.451,3.451,0,0,1,1.3-1.492,3.7,3.7,0,0,1,2-.531,3.39,3.39,0,0,1,2.363.852,3.043,3.043,0,0,1,1,2.211H83.422a1.992,1.992,0,0,0-.621-1.348,1.932,1.932,0,0,0-1.379-.527,2.023,2.023,0,0,0-1.707.793,3.724,3.724,0,0,0-.605,2.293v.273a3.65,3.65,0,0,0,.6,2.25A2.033,2.033,0,0,0,81.43,39.977ZM87.984,41H86.539V32.547h1.445ZM86.422,30.3a.863.863,0,0,1,.215-.594.807.807,0,0,1,.637-.242.819.819,0,0,1,.641.242.854.854,0,0,1,.219.594.826.826,0,0,1-.219.586.834.834,0,0,1-.641.234.821.821,0,0,1-.637-.234A.834.834,0,0,1,86.422,30.3ZM89.914,36.7a4.993,4.993,0,0,1,.488-2.234,3.643,3.643,0,0,1,1.359-1.531,3.7,3.7,0,0,1,1.988-.539,3.565,3.565,0,0,1,2.793,1.2,4.6,4.6,0,0,1,1.066,3.18v.1a5.036,5.036,0,0,1-.473,2.215,3.589,3.589,0,0,1-1.352,1.527,3.743,3.743,0,0,1-2.02.547,3.556,3.556,0,0,1-2.785-1.2A4.575,4.575,0,0,1,89.914,36.8Zm1.453.172a3.616,3.616,0,0,0,.652,2.258,2.211,2.211,0,0,0,3.5-.012,3.955,3.955,0,0,0,.648-2.418,3.61,3.61,0,0,0-.66-2.254,2.1,2.1,0,0,0-1.754-.863,2.075,2.075,0,0,0-1.727.852A3.925,3.925,0,0,0,91.367,36.867ZM94.406,29h1.75l-2.094,2.3-1.164,0Zm6.383,3.547.047,1.063a3.08,3.08,0,0,1,2.531-1.219q2.68,0,2.7,3.023V41h-1.445V35.406a1.946,1.946,0,0,0-.418-1.352,1.675,1.675,0,0,0-1.277-.437,2.086,2.086,0,0,0-1.234.375,2.546,2.546,0,0,0-.828.984V41H99.422V32.547Zm11.07,4.156a4.961,4.961,0,0,1,.914-3.152,3.226,3.226,0,0,1,4.82-.152l.063-.852h1.328v11.7h-1.445V40.219a3.033,3.033,0,0,1-2.328.938,2.915,2.915,0,0,1-2.441-1.191,5.072,5.072,0,0,1-.91-3.16Zm1.445.164a3.761,3.761,0,0,0,.613,2.281,1.951,1.951,0,0,0,1.652.828,2.164,2.164,0,0,0,1.969-1.141V34.7a2.171,2.171,0,0,0-1.953-1.117,1.965,1.965,0,0,0-1.664.832A4.094,4.094,0,0,0,113.3,36.867Zm13.219,3.3a3.07,3.07,0,0,1-2.477.992,2.628,2.628,0,0,1-2.059-.785,3.4,3.4,0,0,1-.715-2.324v-5.5h1.445v5.461q0,1.922,1.563,1.922a2.163,2.163,0,0,0,2.2-1.234V32.547h1.445V41h-1.375ZM131.7,41h-1.453V32.547H131.7Zm.016-11.992h1.75l-2.094,2.3-1.164,0Zm3.727,3.539.039.938a3.122,3.122,0,0,1,2.508-1.094A2.417,2.417,0,0,1,140.4,33.75a3.2,3.2,0,0,1,1.1-.984,3.242,3.242,0,0,1,1.6-.375q2.781,0,2.828,2.945V41h-1.445V35.422a1.941,1.941,0,0,0-.414-1.355,1.823,1.823,0,0,0-1.391-.449,1.917,1.917,0,0,0-1.336.48,1.949,1.949,0,0,0-.617,1.293V41h-1.453V35.461a1.613,1.613,0,0,0-1.8-1.844,1.934,1.934,0,0,0-1.945,1.211V41H134.07V32.547ZM149.672,41h-1.445V32.547h1.445Zm-1.562-10.7a.863.863,0,0,1,.215-.594.807.807,0,0,1,.637-.242.819.819,0,0,1,.641.242.854.854,0,0,1,.219.594.826.826,0,0,1-.219.586.834.834,0,0,1-.641.234.821.821,0,0,1-.637-.234A.834.834,0,0,1,148.109,30.3Zm7.266,9.672a2.082,2.082,0,0,0,1.352-.469,1.649,1.649,0,0,0,.641-1.172h1.367a2.621,2.621,0,0,1-.5,1.383A3.293,3.293,0,0,1,157,40.766a3.55,3.55,0,0,1-1.629.391A3.482,3.482,0,0,1,152.629,40a4.59,4.59,0,0,1-1.02-3.152v-.242a5.089,5.089,0,0,1,.453-2.2,3.451,3.451,0,0,1,1.3-1.492,3.7,3.7,0,0,1,2-.531,3.39,3.39,0,0,1,2.363.852,3.043,3.043,0,0,1,1,2.211h-1.367a1.992,1.992,0,0,0-.621-1.348,1.932,1.932,0,0,0-1.379-.527,2.023,2.023,0,0,0-1.707.793,3.724,3.724,0,0,0-.605,2.293v.273a3.65,3.65,0,0,0,.6,2.25A2.033,2.033,0,0,0,155.375,39.977ZM165.578,41a3.036,3.036,0,0,1-.2-.891,3.225,3.225,0,0,1-2.406,1.047,2.984,2.984,0,0,1-2.051-.707,2.287,2.287,0,0,1-.8-1.793,2.39,2.39,0,0,1,1-2.051,4.733,4.733,0,0,1,2.824-.73h1.406v-.664A1.623,1.623,0,0,0,164.9,34a1.821,1.821,0,0,0-1.336-.449,2.107,2.107,0,0,0-1.3.391,1.151,1.151,0,0,0-.523.945h-1.453a2,2,0,0,1,.449-1.223,3.066,3.066,0,0,1,1.219-.934,4.1,4.1,0,0,1,1.691-.344,3.342,3.342,0,0,1,2.289.73,2.635,2.635,0,0,1,.859,2.012v3.891a4.757,4.757,0,0,0,.3,1.852V41Zm-2.4-1.1a2.54,2.54,0,0,0,1.289-.352,2.127,2.127,0,0,0,.883-.914V36.9h-1.133q-2.656,0-2.656,1.555a1.316,1.316,0,0,0,.453,1.063A1.742,1.742,0,0,0,163.18,39.9ZM17.055,60.7a4.952,4.952,0,0,1,.922-3.129,3.137,3.137,0,0,1,4.766-.168V53h1.445V65H22.859l-.07-.906a2.943,2.943,0,0,1-2.414,1.063,2.887,2.887,0,0,1-2.395-1.2,5.008,5.008,0,0,1-.926-3.141Zm1.445.164a3.749,3.749,0,0,0,.594,2.25,1.92,1.92,0,0,0,1.641.813A2.108,2.108,0,0,0,22.742,62.7V58.813a2.125,2.125,0,0,0-1.992-1.2,1.929,1.929,0,0,0-1.656.82A4.128,4.128,0,0,0,18.5,60.867Zm11.438,4.289a3.693,3.693,0,0,1-2.8-1.129,4.19,4.19,0,0,1-1.078-3.02v-.266a5.073,5.073,0,0,1,.48-2.246,3.748,3.748,0,0,1,1.344-1.547,3.378,3.378,0,0,1,1.871-.559,3.166,3.166,0,0,1,2.563,1.086,4.7,4.7,0,0,1,.914,3.109v.6H27.508a3,3,0,0,0,.73,2.02,2.3,2.3,0,0,0,1.777.77,2.517,2.517,0,0,0,1.3-.312,3.259,3.259,0,0,0,.93-.828l.883.688A3.55,3.55,0,0,1,29.938,65.156Zm-.18-7.578a1.928,1.928,0,0,0-1.469.637A3.1,3.1,0,0,0,27.555,60h4.234v-.109a2.753,2.753,0,0,0-.594-1.707A1.815,1.815,0,0,0,29.758,57.578ZM40.828,54.5v2.047h1.578v1.117H40.828v5.249a1.173,1.173,0,0,0,.211.763.888.888,0,0,0,.719.254,3.5,3.5,0,0,0,.688-.094V65a4.215,4.215,0,0,1-1.109.155,1.8,1.8,0,0,1-1.461-.586,2.517,2.517,0,0,1-.492-1.664V57.664H37.844V56.547h1.539V54.5ZM47.6,65.156a3.693,3.693,0,0,1-2.8-1.129,4.19,4.19,0,0,1-1.078-3.02v-.266a5.073,5.073,0,0,1,.48-2.246,3.748,3.748,0,0,1,1.344-1.547,3.378,3.378,0,0,1,1.871-.559,3.166,3.166,0,0,1,2.563,1.086,4.7,4.7,0,0,1,.914,3.109v.6H45.172a3,3,0,0,0,.73,2.02,2.3,2.3,0,0,0,1.777.77,2.517,2.517,0,0,0,1.3-.312,3.258,3.258,0,0,0,.93-.828l.883.688A3.55,3.55,0,0,1,47.6,65.156Zm-.18-7.578a1.928,1.928,0,0,0-1.469.637A3.1,3.1,0,0,0,45.219,60h4.234v-.109a2.753,2.753,0,0,0-.594-1.707A1.815,1.815,0,0,0,47.422,57.578Zm6.641-1.031v9.43q0,2.438-2.211,2.438a2.7,2.7,0,0,1-.883-.14V67.125a2.794,2.794,0,0,0,.656.063.982.982,0,0,0,.738-.262,1.3,1.3,0,0,0,.254-.911V56.547ZM52.469,54.3a.867.867,0,0,1,.215-.59.79.79,0,0,1,.629-.246.819.819,0,0,1,.641.242.854.854,0,0,1,.219.594.826.826,0,0,1-.219.586.834.834,0,0,1-.641.234.808.808,0,0,1-.633-.234A.843.843,0,0,1,52.469,54.3ZM57.961,65H56.516V56.547h1.445ZM56.4,54.3a.863.863,0,0,1,.215-.594.807.807,0,0,1,.637-.242.819.819,0,0,1,.641.242.854.854,0,0,1,.219.594.826.826,0,0,1-.219.586.834.834,0,0,1-.641.234.821.821,0,0,1-.637-.234A.834.834,0,0,1,56.4,54.3Zm3.523,6.4a4.952,4.952,0,0,1,.922-3.129,3.137,3.137,0,0,1,4.766-.168V53h1.445V65H65.727l-.07-.906a2.943,2.943,0,0,1-2.414,1.063,2.887,2.887,0,0,1-2.395-1.2,5.008,5.008,0,0,1-.926-3.141Zm1.445.164a3.749,3.749,0,0,0,.594,2.25,1.919,1.919,0,0,0,1.641.813A2.108,2.108,0,0,0,65.609,62.7V58.813a2.125,2.125,0,0,0-1.992-1.2,1.929,1.929,0,0,0-1.656.82A4.128,4.128,0,0,0,61.367,60.867Zm7.547-.172a4.993,4.993,0,0,1,.488-2.234,3.643,3.643,0,0,1,1.359-1.531,3.7,3.7,0,0,1,1.988-.539,3.565,3.565,0,0,1,2.793,1.2,4.6,4.6,0,0,1,1.066,3.18v.1a5.036,5.036,0,0,1-.473,2.215,3.589,3.589,0,0,1-1.352,1.527,3.743,3.743,0,0,1-2.02.547,3.556,3.556,0,0,1-2.785-1.2A4.575,4.575,0,0,1,68.914,60.8Zm1.453.172a3.616,3.616,0,0,0,.652,2.258,2.211,2.211,0,0,0,3.5-.012,3.955,3.955,0,0,0,.648-2.418,3.61,3.61,0,0,0-.66-2.254,2.1,2.1,0,0,0-1.754-.863,2.075,2.075,0,0,0-1.727.852A3.925,3.925,0,0,0,70.367,60.867Zm12.977,1.891a1.064,1.064,0,0,0-.441-.91,4.249,4.249,0,0,0-1.539-.559,7.277,7.277,0,0,1-1.742-.562,2.479,2.479,0,0,1-.953-.781,1.869,1.869,0,0,1-.309-1.078,2.193,2.193,0,0,1,.879-1.758,3.432,3.432,0,0,1,2.246-.719,3.532,3.532,0,0,1,2.332.742,2.357,2.357,0,0,1,.895,1.9H83.258a1.3,1.3,0,0,0-.5-1.023,1.888,1.888,0,0,0-1.27-.43,1.976,1.976,0,0,0-1.234.344,1.082,1.082,0,0,0-.445.9.877.877,0,0,0,.414.789,5.1,5.1,0,0,0,1.5.508,7.8,7.8,0,0,1,1.754.578,2.558,2.558,0,0,1,1,.809,1.988,1.988,0,0,1,.324,1.152,2.163,2.163,0,0,1-.906,1.816,3.8,3.8,0,0,1-2.352.684,4.257,4.257,0,0,1-1.8-.359,2.922,2.922,0,0,1-1.223-1A2.42,2.42,0,0,1,78.07,62.4h1.445a1.5,1.5,0,0,0,.582,1.152,2.258,2.258,0,0,0,1.434.426,2.331,2.331,0,0,0,1.316-.332A1.02,1.02,0,0,0,83.344,62.758Zm10.078.281,2.094-6.492h1.477L93.961,65h-1.1L89.8,56.547h1.477ZM99.953,65H98.508V56.547h1.445ZM98.391,54.3a.863.863,0,0,1,.215-.594.807.807,0,0,1,.637-.242.819.819,0,0,1,.641.242.854.854,0,0,1,.219.594.826.826,0,0,1-.219.586.834.834,0,0,1-.641.234.821.821,0,0,1-.637-.234A.834.834,0,0,1,98.391,54.3Zm8.8,8.453a1.064,1.064,0,0,0-.441-.91,4.249,4.249,0,0,0-1.539-.559,7.277,7.277,0,0,1-1.742-.562,2.479,2.479,0,0,1-.953-.781,1.869,1.869,0,0,1-.309-1.078,2.193,2.193,0,0,1,.879-1.758,3.432,3.432,0,0,1,2.246-.719,3.532,3.532,0,0,1,2.332.742,2.357,2.357,0,0,1,.895,1.9H107.1a1.3,1.3,0,0,0-.5-1.023,1.888,1.888,0,0,0-1.27-.43,1.976,1.976,0,0,0-1.234.344,1.082,1.082,0,0,0-.445.9.877.877,0,0,0,.414.789,5.1,5.1,0,0,0,1.5.508,7.8,7.8,0,0,1,1.754.578,2.558,2.558,0,0,1,1,.809,1.988,1.988,0,0,1,.324,1.152,2.163,2.163,0,0,1-.906,1.816,3.8,3.8,0,0,1-2.352.684,4.257,4.257,0,0,1-1.8-.359,2.922,2.922,0,0,1-1.223-1,2.42,2.42,0,0,1-.441-1.395h1.445a1.5,1.5,0,0,0,.582,1.152,2.258,2.258,0,0,0,1.434.426,2.331,2.331,0,0,0,1.316-.332A1.02,1.02,0,0,0,107.188,62.758Zm6.719,1.219a2.082,2.082,0,0,0,1.352-.469,1.649,1.649,0,0,0,.641-1.172h1.367a2.621,2.621,0,0,1-.5,1.383,3.293,3.293,0,0,1-1.23,1.047,3.55,3.55,0,0,1-1.629.391A3.482,3.482,0,0,1,111.16,64a4.59,4.59,0,0,1-1.02-3.152v-.242a5.089,5.089,0,0,1,.453-2.2,3.451,3.451,0,0,1,1.3-1.492,3.7,3.7,0,0,1,2-.531,3.39,3.39,0,0,1,2.363.852,3.043,3.043,0,0,1,1,2.211H115.9a1.992,1.992,0,0,0-.621-1.348,1.932,1.932,0,0,0-1.379-.527,2.023,2.023,0,0,0-1.707.793,3.724,3.724,0,0,0-.605,2.293v.273a3.65,3.65,0,0,0,.6,2.25A2.033,2.033,0,0,0,113.906,63.977Zm8.492,1.18a3.693,3.693,0,0,1-2.8-1.129,4.19,4.19,0,0,1-1.078-3.02v-.266A5.073,5.073,0,0,1,119,58.5a3.748,3.748,0,0,1,1.344-1.547,3.378,3.378,0,0,1,1.871-.559,3.166,3.166,0,0,1,2.563,1.086,4.7,4.7,0,0,1,.914,3.109v.6h-5.727a3,3,0,0,0,.73,2.02,2.3,2.3,0,0,0,1.777.77,2.517,2.517,0,0,0,1.3-.312,3.259,3.259,0,0,0,.93-.828l.883.688A3.55,3.55,0,0,1,122.4,65.156Zm-.18-7.578a1.928,1.928,0,0,0-1.469.637A3.1,3.1,0,0,0,120.016,60h4.234v-.109a2.753,2.753,0,0,0-.594-1.707A1.815,1.815,0,0,0,122.219,57.578Zm9.234.266a4.331,4.331,0,0,0-.711-.055A1.9,1.9,0,0,0,128.813,59v6h-1.445V56.547h1.406l.023.977a2.251,2.251,0,0,1,2.016-1.133,1.477,1.477,0,0,1,.641.109ZM137.688,65a3.036,3.036,0,0,1-.2-.891,3.225,3.225,0,0,1-2.406,1.047,2.984,2.984,0,0,1-2.051-.707,2.287,2.287,0,0,1-.8-1.793,2.39,2.39,0,0,1,1-2.051,4.733,4.733,0,0,1,2.824-.73h1.406v-.664A1.623,1.623,0,0,0,137.008,58a1.821,1.821,0,0,0-1.336-.449,2.107,2.107,0,0,0-1.3.391,1.151,1.151,0,0,0-.523.945H132.4a2,2,0,0,1,.449-1.223,3.066,3.066,0,0,1,1.219-.934,4.1,4.1,0,0,1,1.691-.344,3.342,3.342,0,0,1,2.289.73,2.635,2.635,0,0,1,.859,2.012v3.891a4.757,4.757,0,0,0,.3,1.852V65Zm-2.4-1.1a2.54,2.54,0,0,0,1.289-.352,2.127,2.127,0,0,0,.883-.914V60.9h-1.133q-2.656,0-2.656,1.555a1.316,1.316,0,0,0,.453,1.063A1.742,1.742,0,0,0,135.289,63.9Zm7.453,1.1H141.3V53h1.445Zm5.82.156a3.693,3.693,0,0,1-2.8-1.129,4.19,4.19,0,0,1-1.078-3.02v-.266a5.073,5.073,0,0,1,.48-2.246,3.748,3.748,0,0,1,1.344-1.547,3.378,3.378,0,0,1,1.871-.559,3.166,3.166,0,0,1,2.563,1.086,4.7,4.7,0,0,1,.914,3.109v.6h-5.727a3,3,0,0,0,.73,2.02,2.3,2.3,0,0,0,1.777.77,2.517,2.517,0,0,0,1.3-.312,3.258,3.258,0,0,0,.93-.828l.883.688A3.55,3.55,0,0,1,148.563,65.156Zm-.18-7.578a1.928,1.928,0,0,0-1.469.637A3.1,3.1,0,0,0,146.18,60h4.234v-.109a2.753,2.753,0,0,0-.594-1.707A1.815,1.815,0,0,0,148.383,57.578Zm10.07,5.18a1.064,1.064,0,0,0-.441-.91,4.249,4.249,0,0,0-1.539-.559,7.277,7.277,0,0,1-1.742-.562,2.479,2.479,0,0,1-.953-.781,1.869,1.869,0,0,1-.309-1.078,2.193,2.193,0,0,1,.879-1.758,3.432,3.432,0,0,1,2.246-.719,3.532,3.532,0,0,1,2.332.742,2.357,2.357,0,0,1,.895,1.9h-1.453a1.3,1.3,0,0,0-.5-1.023,1.888,1.888,0,0,0-1.27-.43,1.976,1.976,0,0,0-1.234.344,1.082,1.082,0,0,0-.445.9.877.877,0,0,0,.414.789,5.1,5.1,0,0,0,1.5.508,7.8,7.8,0,0,1,1.754.578,2.558,2.558,0,0,1,1,.809,1.988,1.988,0,0,1,.324,1.152,2.163,2.163,0,0,1-.906,1.816,3.8,3.8,0,0,1-2.352.684,4.257,4.257,0,0,1-1.8-.359,2.922,2.922,0,0,1-1.223-1,2.42,2.42,0,0,1-.441-1.395h1.445a1.5,1.5,0,0,0,.582,1.152,2.258,2.258,0,0,0,1.434.426,2.331,2.331,0,0,0,1.316-.332A1.02,1.02,0,0,0,158.453,62.758Z" transform="translate(27.906 120.202)" fill="#12263f"/>
      </g>
      <line id="Línea_1692" data-name="Línea 1692" x2="37.16" transform="translate(99.663 211.419)" fill="none" stroke="#12263f" stroke-linecap="round" stroke-miterlimit="10" stroke-width="1"/>
      <g id="Grupo_127426" data-name="Grupo 127426" transform="translate(-155.629 -723.452)">
        <g id="Grupo_42274" data-name="Grupo 42274" transform="translate(233.65 755.984)">
          <g id="Grupo_18423" data-name="Grupo 18423" transform="translate(0 0)">
            <g id="Grupo_18421" data-name="Grupo 18421">
              <g id="Grupo_18420" data-name="Grupo 18420">
                <g id="Grupo_18419" data-name="Grupo 18419">
                  <path id="Trazado_40936" data-name="Trazado 40936" d="M271.406,2184.112a38.391,38.391,0,1,1-38.391-38.39A38.391,38.391,0,0,1,271.406,2184.112Z" transform="translate(-194.623 -2145.721)" fill="#fff"/>
                </g>
              </g>
            </g>
            <path id="Trazado_40937" data-name="Trazado 40937" d="M271.279,2183.973a38.391,38.391,0,1,0-38.391,38.392A38.239,38.239,0,0,0,271.279,2183.973Z" transform="translate(-194.496 -2145.583)" fill="url(#radial-gradient)"/>
            <path id="Trazado_40938" data-name="Trazado 40938" d="M261.148,2182.943a29.3,29.3,0,1,0-29.3,29.3A29.2,29.2,0,0,0,261.148,2182.943Z" transform="translate(-193.336 -2144.424)" fill="none" stroke="#1d272b" stroke-miterlimit="10" stroke-width="2"/>
            <g id="Grupo_18422" data-name="Grupo 18422" transform="translate(6.801 21.554)">
              <path id="Trazado_40939" data-name="Trazado 40939" d="M266.644,2164.488a38.4,38.4,0,0,1-66.1,38.232,38.274,38.274,0,0,0,66.1-38.232Z" transform="translate(-200.545 -2164.488)" fill="#eceef0"/>
            </g>
          </g>
          <g id="Grupo_127481" data-name="Grupo 127481" transform="translate(-5479.977 -1383.05)">
            <path id="Trazado_163342" data-name="Trazado 163342" d="M5568.268,1489.8a18.127,18.127,0,0,0,5.9-.021,44.775,44.775,0,0,1,6.344.217,7.846,7.846,0,0,1,4.22,4.974l-.446.011c-.872-1.456-1.442-3.127-3.137-3.965a3.235,3.235,0,0,0-1.84-.637c-2.538.37-5.118-.535-7.648.31a4.508,4.508,0,0,1-2.339-.321C5569.056,1490.012,5568.419,1490.35,5568.268,1489.8Z" transform="translate(-48.092 -64.059)" fill="#1d272b"/>
            <path id="Trazado_163343" data-name="Trazado 163343" d="M5524.24,1405.339a35.957,35.957,0,0,1,5.9-.155c1.9-.038,1.906.07,2.009-1.839a1.339,1.339,0,0,1,.07-.387c.027-.072.117-.12.179-.178.958,2.022.306,3.081-1.78,3.013-2.116-.069-4.234-.047-6.351-.064C5524.257,1405.6,5524.249,1405.469,5524.24,1405.339Z" transform="translate(-15.826 -0.356)" fill="#1d272b"/>
            <path id="Trazado_163344" data-name="Trazado 163344" d="M5507.5,1484.949c-.3.315-.638.21-.981.1-1.49-.488-3.55-3.112-3.47-4.682.069-1.355.376-2.7.332-4.071a1.549,1.549,0,0,1,.508-1.048l.286.316a15,15,0,0,0-.434,5.071,4.978,4.978,0,0,0,3,3.9c.265.127.636.045.791.393Z" transform="translate(-0.292 -53.46)" fill="#1d272b"/>
            <path id="Trazado_163345" data-name="Trazado 163345" d="M5560.3,1437.777l1.864-.274a9.964,9.964,0,0,0,4.242.32,8.786,8.786,0,0,1,4.04-.067l-.27.51a7.368,7.368,0,0,0-2.762.009,9.155,9.155,0,0,1-4.181.023c-.83-.509-1.735-.153-2.6-.227Z" transform="translate(-42.25 -25.801)" fill="#1d272b"/>
            <path id="Trazado_163346" data-name="Trazado 163346" d="M5592.562,1479.562a25.125,25.125,0,0,1-8.008.262l-.255-.459c2.234.475,4.475-.024,6.707-.043a5.319,5.319,0,0,0,3.851-2.254l.286.234a2.325,2.325,0,0,1-.953,1.271,3.128,3.128,0,0,0-1.628.992Z" transform="translate(-59.84 -54.795)" fill="#1d272b"/>
            <path id="Trazado_163347" data-name="Trazado 163347" d="M5610.871,1520.42c-.728,3.349-4.021,5.688-6.58,5.165l-.316-.091c.089-.136.186-.393.27-.389,3.367.141,5.016-1.976,6.213-4.694Z" transform="translate(-74.258 -86.559)" fill="#1d272b"/>
            <path id="Trazado_163348" data-name="Trazado 163348" d="M5568.359,1409.371c2.177-1.814,2.312-4.333,2.233-7.075,1.332,1.844.316,5.393-1.961,7.547A.447.447,0,0,1,5568.359,1409.371Z" transform="translate(-48.158 0)" fill="#1d272b"/>
            <path id="Trazado_163349" data-name="Trazado 163349" d="M5519.712,1510.963l.033-.022a18.68,18.68,0,0,0,5.375-.146c.732-.067,1.615-.2,2.177.584a.343.343,0,0,1,.007.132,17.122,17.122,0,0,0-4.593.135C5521.685,1511.821,5520.527,1511.98,5519.712,1510.963Z" transform="translate(-12.508 -79.473)" fill="#1d272b"/>
            <path id="Trazado_163350" data-name="Trazado 163350" d="M5509.021,1412.354c.009.13.017.261.025.391-1.271.554-2.693.725-3.665,1.974a6.537,6.537,0,0,0-1.447,2.478h-.461C5503.823,1414.7,5505.82,1412.955,5509.021,1412.354Z" transform="translate(-0.607 -7.371)" fill="#1d272b"/>
            <path id="Trazado_163351" data-name="Trazado 163351" d="M5510.221,1448.787c-.672.59-1.228-.221-1.855-.155-2.2-.6-4.169-2.582-4.336-4.457.726.447.881,1.237,1.308,1.807a7.05,7.05,0,0,0,4.486,2.539C5510,1448.559,5510.167,1448.581,5510.221,1448.787Z" transform="translate(-1.015 -30.69)" fill="#1d272b"/>
            <path id="Trazado_163352" data-name="Trazado 163352" d="M5552.9,1485.518a12.9,12.9,0,0,1-6.39.07c-.959-.277-1.906.26-2.875.232l-.352-.326,1.581-.342,2.894.179c1.724.551,3.422-.263,5.139-.093Z" transform="translate(-29.784 -60.72)" fill="#1d272b"/>
            <path id="Trazado_163353" data-name="Trazado 163353" d="M5540.6,1458.78a2.553,2.553,0,0,1-2.394.7c-1.952-.075-3.868-.583-5.834-.545a4.333,4.333,0,0,1,3.547-.245C5537.468,1459.275,5539.039,1458.782,5540.6,1458.78Z" transform="translate(-21.785 -41.131)" fill="#1d272b"/>
            <path id="Trazado_163354" data-name="Trazado 163354" d="M5606.259,1438.353c2.043-.289,3.447.839,4.771,2.149l-.266.316a7.8,7.8,0,0,0-4.27-2.074Z" transform="translate(-75.933 -26.39)" fill="#1d272b"/>
            <path id="Trazado_163355" data-name="Trazado 163355" d="M5623.119,1446.838l.267-.316c1.862,1.83,1.4,4.161,1.377,6.4-.228-.111-.253-.325-.275-.541A7.882,7.882,0,0,0,5623.119,1446.838Z" transform="translate(-88.288 -32.411)" fill="#1d272b"/>
            <path id="Trazado_163356" data-name="Trazado 163356" d="M5590.723,1459.777c-1.51-.364-2.969-1.091-4.595-.654-.382.1-.825.305-.8-.4l.505-.078a.571.571,0,0,0,.561-.159,5.532,5.532,0,0,1,2.573.274l.345.122c.534.147,1.146-.117,1.628.3C5590.867,1459.379,5590.795,1459.578,5590.723,1459.777Z" transform="translate(-60.593 -41.142)" fill="#1d272b"/>
            <path id="Trazado_163357" data-name="Trazado 163357" d="M5558.378,1511.284c.8-1.208,2-.849,3.111-.755a6.957,6.957,0,0,1,1.4.419l-.805.461.006.081c-1.206-.975-2.466-.32-3.711-.121Z" transform="translate(-40.844 -79.227)" fill="#1d272b"/>
            <path id="Trazado_163358" data-name="Trazado 163358" d="M5564.921,1516.266l.825.079.332.277a14.861,14.861,0,0,0-3.822,1.812l.017.018c.049-.877.707-1.23,1.368-1.571C5564.062,1516.664,5564.494,1516.47,5564.921,1516.266Z" transform="translate(-43.685 -83.522)" fill="#1d272b"/>
            <path id="Trazado_163359" data-name="Trazado 163359" d="M5575.651,1514.431l-.333-.277q3.313-.043,6.627-.088c.559-.009,1.171.178,1.594-.391l.054-.4c.79.594.4.887-.282,1.1l-1.888.011-.979.016L5579,1514.4l-.979,0-1.15-.006Z" transform="translate(-53.259 -81.331)" fill="#1d272b"/>
            <path id="Trazado_163360" data-name="Trazado 163360" d="M5517.4,1464.024c1.377-.216,2.714-.887,4.162-.3.306.123.589.178.635.557l-1.053-.02a1.218,1.218,0,0,0-1.089-.174c-.95-.2-1.721.551-2.644.5l-.344-.339Z" transform="translate(-10.573 -44.843)" fill="#1d272b"/>
            <path id="Trazado_163361" data-name="Trazado 163361" d="M5554.58,1532.579q-.177,1.38-.354,2.76c-.026.207.03.487-.276.51-.387.03-.422-.283-.383-.542a7.417,7.417,0,0,1,.678-3.076Z" transform="translate(-37.309 -95.222)" fill="#1d272b"/>
            <path id="Trazado_163362" data-name="Trazado 163362" d="M5558.771,1489.74c.152.554.789.217,1.049.571a26.3,26.3,0,0,0-4.512.115A3.989,3.989,0,0,1,5558.771,1489.74Z" transform="translate(-38.594 -64.003)" fill="#1d272b"/>
            <path id="Trazado_163363" data-name="Trazado 163363" d="M5526.027,1486.334c.009.4-.692.4-.531.77.172.393.666.334,1.052.334.346,0,.691-.039,1.037-.061l.265-.061.569-.088c0,.145.01.291.014.436l-.489.022-.548.118a2.321,2.321,0,0,1-1.551.069c-.455-.132-1.039-.338-1-.891C5524.88,1486.313,5525.444,1486.216,5526.027,1486.334Z" transform="translate(-16.265 -61.555)" fill="#1d272b"/>
            <path id="Trazado_163364" data-name="Trazado 163364" d="M5546.372,1438.041l.329.293a.356.356,0,0,0-.088.183l-1.038.122-.363.119-1.443.03-.335-.12-1.267-.149-.872-.248c0-.137,0-.273.007-.41C5542.986,1438.063,5544.663,1438.5,5546.372,1438.041Z" transform="translate(-28.324 -26.065)" fill="#1d272b"/>
            <path id="Trazado_163365" data-name="Trazado 163365" d="M5544.274,1464.255c.107-.866.889-.613,1.34-.683,1.206-.187,2.463-.324,3.465.674l-1.055-.015a1.2,1.2,0,0,0-1.088-.174l-1.066.022a.531.531,0,0,0-.565.143Z" transform="translate(-30.508 -44.808)" fill="#1d272b"/>
            <path id="Trazado_163366" data-name="Trazado 163366" d="M5568.4,1464.431l-.33-.169c.771-.772,3.991-.875,4.831-.145.048.042.022.17.03.258l-.8.016c-.205-.327-.512-.246-.81-.2l-1.066.017a.558.558,0,0,0-.578.143Z" transform="translate(-47.945 -44.942)" fill="#1d272b"/>
            <path id="Trazado_163367" data-name="Trazado 163367" d="M5590.167,1538.663l.318.091a22.761,22.761,0,0,1-5.35.053A9.147,9.147,0,0,1,5590.167,1538.663Z" transform="translate(-60.452 -99.728)" fill="#1d272b"/>
            <path id="Trazado_163368" data-name="Trazado 163368" d="M5509.1,1466.316l.344.339c-1.337.349-1.906,1.663-2.963,2.363l-.286-.316c.278-.671,1.121-.847,1.364-1.55l.253-.271.008-.009.3-.24Z" transform="translate(-2.604 -46.916)" fill="#1d272b"/>
            <path id="Trazado_163369" data-name="Trazado 163369" d="M5502.866,1430.474h.46c-.014.878-.011,1.757-.053,2.635-.011.249.171.722-.365.642-.343-.051-.26-.41-.244-.658C5502.722,1432.22,5502.8,1431.347,5502.866,1430.474Z" transform="translate(0 -20.65)" fill="#1d272b"/>
            <path id="Trazado_163370" data-name="Trazado 163370" d="M5538.258,1490.1q-.007-.218-.014-.436c1.044-.031,2.14-.279,2.943.7Z" transform="translate(-26.089 -63.987)" fill="#1d272b"/>
            <path id="Trazado_163371" data-name="Trazado 163371" d="M5561.123,1428.778a.447.447,0,0,0,.272.472l-.585.471c-.459.211-.911.441-1.379.63-.372.15-.835.48-.947-.285C5559.556,1430.03,5560.156,1429.028,5561.123,1428.778Z" transform="translate(-40.921 -19.407)" fill="#1d272b"/>
            <path id="Trazado_163372" data-name="Trazado 163372" d="M5596.106,1511.784c-.019.132-.036.265-.055.4a13.553,13.553,0,0,1-3.66-.819l1.316-.123C5594.463,1511.616,5595.37,1511.325,5596.106,1511.784Z" transform="translate(-65.77 -79.838)" fill="#1d272b"/>
            <path id="Trazado_163373" data-name="Trazado 163373" d="M5528.715,1434.261c-.571.81-1.455.354-2.157.422a2.76,2.76,0,0,0-1.58.628l-.006-.01-.1-.562c.035-.091.07-.182.1-.274l.286-.237,2.134-.1.787.007Z" transform="translate(-16.29 -23.331)" fill="#1d272b"/>
            <path id="Trazado_163374" data-name="Trazado 163374" d="M5628.632,1512.344l-.414-.009-.008-2.933.446-.011A8.486,8.486,0,0,1,5628.632,1512.344Z" transform="translate(-92.02 -78.483)" fill="#1d272b"/>
            <path id="Trazado_163375" data-name="Trazado 163375" d="M5556.473,1526.825l-.336-.347c.144-1.016.481-1.878,1.651-2.079l-.016-.018c-.107.778-.993,1.1-1.1,1.876a.536.536,0,0,0-.2.556Z" transform="translate(-39.201 -89.468)" fill="#1d272b"/>
            <path id="Trazado_163376" data-name="Trazado 163376" d="M5552.1,1485.331l-2.893-.179" transform="translate(-34.121 -60.72)" fill="#1d272b"/>
            <path id="Trazado_163377" data-name="Trazado 163377" d="M5535.431,1486.176l.353.326a4.465,4.465,0,0,1-3.216-.11c.2-.338.5-.232.742-.309Z" transform="translate(-21.929 -61.402)" fill="#1d272b"/>
            <path id="Trazado_163378" data-name="Trazado 163378" d="M5597.648,1461.819c.072-.2.145-.4.216-.6a1.487,1.487,0,0,1,.261.057l-.01.809v0l-.292.253a.666.666,0,0,0-.247.077c-.542.033-1.1-.144-1.619.152l-.5.134-.677-.154C5595.633,1461.719,5596.769,1462.269,5597.648,1461.819Z" transform="translate(-67.518 -43.184)" fill="#1d272b"/>
            <path id="Trazado_163379" data-name="Trazado 163379" d="M5575.658,1460.061c.092.141.284.383.258.409-.479.486-2.27.133-2.671-.51A10.987,10.987,0,0,0,5575.658,1460.061Z" transform="translate(-51.739 -42.258)" fill="#1d272b"/>
            <path id="Trazado_163380" data-name="Trazado 163380" d="M5550.847,1512.551l0,.085a4.464,4.464,0,0,1-2.741-.1.36.36,0,0,0-.007-.134A2.946,2.946,0,0,1,5550.847,1512.551Z" transform="translate(-33.313 -80.495)" fill="#1d272b"/>
            <path id="Trazado_163381" data-name="Trazado 163381" d="M5599.666,1438.458l.235.391a7.1,7.1,0,0,1-2.638.112l.27-.51Z" transform="translate(-69.34 -26.495)" fill="#1d272b"/>
            <path id="Trazado_163382" data-name="Trazado 163382" d="M5572.259,1512.894l.805-.461,1.6.011c.168.119.462.225.475.359.025.244-.263.138-.4.138C5573.913,1512.94,5573.086,1512.913,5572.259,1512.894Z" transform="translate(-51.016 -80.713)" fill="#1d272b"/>
            <path id="Trazado_163383" data-name="Trazado 163383" d="M5626.671,1468.445c.021.216.047.429.275.541a2.619,2.619,0,0,1-.77,1.417q-.04-.258-.079-.514Z" transform="translate(-90.471 -48.477)" fill="#1d272b"/>
            <path id="Trazado_163384" data-name="Trazado 163384" d="M5615.223,1483.69a3.132,3.132,0,0,1,1.628-.992C5616.758,1483.766,5615.876,1483.54,5615.223,1483.69Z" transform="translate(-82.502 -58.922)" fill="#1d272b"/>
            <path id="Trazado_163385" data-name="Trazado 163385" d="M5529.524,1438.666l-.3.225-.51.1-.526,0-.535-.091c-.053-.193-.572-.618.107-.485a7.01,7.01,0,0,0,1.753-.082Q5529.518,1438.5,5529.524,1438.666Z" transform="translate(-18.151 -26.409)" fill="#1d272b"/>
            <path id="Trazado_163386" data-name="Trazado 163386" d="M5599.19,1465.8c.516-.3,1.077-.118,1.618-.152A1,1,0,0,1,5599.19,1465.8Z" transform="translate(-70.752 -46.408)" fill="#1d272b"/>
            <path id="Trazado_163387" data-name="Trazado 163387" d="M5528.254,1465.592a1.22,1.22,0,0,1,1.089.174C5528.91,1466.152,5528.521,1466.25,5528.254,1465.592Z" transform="translate(-18.768 -46.352)" fill="#1d272b"/>
            <path id="Trazado_163388" data-name="Trazado 163388" d="M5554.238,1465.615a1.2,1.2,0,0,1,1.087.174C5554.894,1466.168,5554.507,1466.26,5554.238,1465.615Z" transform="translate(-37.81 -46.366)" fill="#1d272b"/>
            <path id="Trazado_163389" data-name="Trazado 163389" d="M5598.174,1517.419l1.888-.01A2.416,2.416,0,0,1,5598.174,1517.419Z" transform="translate(-70.008 -84.359)" fill="#1d272b"/>
            <path id="Trazado_163390" data-name="Trazado 163390" d="M5607.272,1462.245q0-.4.01-.809c.272.042.512.127.464.473C5607.71,1462.177,5607.487,1462.212,5607.272,1462.245Z" transform="translate(-76.675 -43.339)" fill="#1d272b"/>
            <path id="Trazado_163391" data-name="Trazado 163391" d="M5580.226,1465.625c.3-.044.6-.125.81.2Q5580.463,1466.4,5580.226,1465.625Z" transform="translate(-56.855 -46.379)" fill="#1d272b"/>
            <path id="Trazado_163392" data-name="Trazado 163392" d="M5589.114,1517.473l1.441.01A1.481,1.481,0,0,1,5589.114,1517.473Z" transform="translate(-63.368 -84.406)" fill="#1d272b"/>
            <path id="Trazado_163393" data-name="Trazado 163393" d="M5624.427,1473.848q.039.257.079.514l-.4.579-.284-.234A1.528,1.528,0,0,1,5624.427,1473.848Z" transform="translate(-88.8 -52.436)" fill="#1d272b"/>
            <path id="Trazado_163394" data-name="Trazado 163394" d="M5587.783,1457.96a.568.568,0,0,1-.56.158C5587.32,1457.75,5587.462,1457.536,5587.783,1457.96Z" transform="translate(-61.983 -40.622)" fill="#1d272b"/>
            <path id="Trazado_163395" data-name="Trazado 163395" d="M5582.813,1485.542l.255.459-.783-.184c0-.107-.009-.213-.014-.321Z" transform="translate(-58.354 -60.972)" fill="#1d272b"/>
            <path id="Trazado_163396" data-name="Trazado 163396" d="M5580.073,1485.479q.007.16.013.32l-.812-.046,0-.281Z" transform="translate(-56.155 -60.955)" fill="#1d272b"/>
            <path id="Trazado_163397" data-name="Trazado 163397" d="M5554.961,1433.667c.006.181.008.383-.25.329-.063-.013-.087-.212-.129-.325Z" transform="translate(-38.062 -22.99)" fill="#1d272b"/>
            <path id="Trazado_163398" data-name="Trazado 163398" d="M5524.029,1436.406l.1.562c-.136-.078-.347-.128-.39-.241C5523.665,1436.533,5523.859,1436.452,5524.029,1436.406Z" transform="translate(-15.446 -24.997)" fill="#1d272b"/>
            <path id="Trazado_163399" data-name="Trazado 163399" d="M5581.145,1517.463l1.15.006A1.073,1.073,0,0,1,5581.145,1517.463Z" transform="translate(-57.528 -84.399)" fill="#1d272b"/>
            <path id="Trazado_163400" data-name="Trazado 163400" d="M5535.108,1433.646l-.787-.007A.514.514,0,0,1,5535.108,1433.646Z" transform="translate(-23.214 -22.838)" fill="#1d272b"/>
            <path id="Trazado_163401" data-name="Trazado 163401" d="M5542.483,1466.621l.494-.182Z" transform="translate(-29.195 -47.006)" fill="#1d272b"/>
            <path id="Trazado_163402" data-name="Trazado 163402" d="M5574.073,1465.886a.558.558,0,0,1,.578-.143A.583.583,0,0,1,5574.073,1465.886Z" transform="translate(-52.346 -46.479)" fill="#1d272b"/>
            <path id="Trazado_163403" data-name="Trazado 163403" d="M5548.132,1465.906a.531.531,0,0,1,.565-.143Z" transform="translate(-33.335 -46.493)" fill="#1d272b"/>
            <path id="Trazado_163404" data-name="Trazado 163404" d="M5530.312,1440.785l.526,0A.3.3,0,0,1,5530.312,1440.785Z" transform="translate(-20.276 -28.203)" fill="#1d272b"/>
            <path id="Trazado_163405" data-name="Trazado 163405" d="M5557.36,1531.957a.536.536,0,0,1,.2-.556Z" transform="translate(-40.091 -94.613)" fill="#1d272b"/>
            <path id="Trazado_163406" data-name="Trazado 163406" d="M5534.412,1491.632l.548-.118Z" transform="translate(-23.28 -65.382)" fill="#1d272b"/>
            <path id="Trazado_163407" data-name="Trazado 163407" d="M5549.3,1440.88l.334.12Z" transform="translate(-34.192 -28.276)" fill="#1d272b"/>
            <path id="Trazado_163408" data-name="Trazado 163408" d="M5525.553,1434.493l-.286.237Z" transform="translate(-16.579 -23.595)" fill="#1d272b"/>
            <path id="Trazado_163409" data-name="Trazado 163409" d="M5511.555,1468.428l-.252.271Z" transform="translate(-6.345 -48.464)" fill="#1d272b"/>
            <path id="Trazado_163410" data-name="Trazado 163410" d="M5606.17,1464.724l.293-.253Z" transform="translate(-75.868 -45.564)" fill="#1d272b"/>
            <path id="Trazado_163411" data-name="Trazado 163411" d="M5555.957,1440.889l.363-.119Z" transform="translate(-39.069 -28.195)" fill="#1d272b"/>
            <path id="Trazado_163412" data-name="Trazado 163412" d="M5512.583,1467.5l-.3.24Z" transform="translate(-7.062 -47.782)" fill="#1d272b"/>
            <path id="Trazado_163413" data-name="Trazado 163413" d="M5599.3,1459.748l-.346-.122Z" transform="translate(-70.576 -42.014)" fill="#1d272b"/>
            <path id="Trazado_163414" data-name="Trazado 163414" d="M5535.385,1490.128l-.265.061Z" transform="translate(-23.8 -64.367)" fill="#1d272b"/>
            <path id="Trazado_163415" data-name="Trazado 163415" d="M5535.284,1438.048c0-.111-.009-.222-.012-.333a2.1,2.1,0,0,1,1.615-.126c0,.137,0,.273-.007.41Z" transform="translate(-23.911 -25.791)" fill="#1d272b"/>
          </g>
        </g>
      </g>
    </g>
  </g>
</svg>
