<svg xmlns="http://www.w3.org/2000/svg" xmlns:xlink="http://www.w3.org/1999/xlink" width="279.309" height="182.624" viewBox="0 0 279.309 182.624">
  <defs>
    <linearGradient id="linear-gradient" x1="2.863" y1="-1.338" x2="0.5" y2="1" gradientUnits="objectBoundingBox">
      <stop offset="0" stop-color="#fff"/>
      <stop offset="1" stop-color="#f8f8f8"/>
    </linearGradient>
    <linearGradient id="linear-gradient-5" x1="0.5" x2="0.5" y2="1" gradientUnits="objectBoundingBox">
      <stop offset="0" stop-color="#f5f5f5"/>
      <stop offset="0.25" stop-color="#f5f5f5"/>
      <stop offset="1" stop-color="#a7b3cf"/>
    </linearGradient>
    <linearGradient id="linear-gradient-9" x1="0.5" y1="0" xlink:href="#linear-gradient"/>
  </defs>
  <g id="img5" transform="translate(-953.168 -1378.463)">
    <g id="Grupo_122147" data-name="Grupo 122147" transform="translate(965.748 1378.463)">
      <g id="Grupo_106414" data-name="Grupo 106414" transform="translate(0 0)" opacity="0.27">
        <g id="Grupo_106366" data-name="Grupo 106366" transform="translate(0 0)">
          <path id="Trazado_149847" data-name="Trazado 149847" d="M386.558,105.412c0,50.427-58.778,91.31-131.282,91.31s-131.281-40.883-131.281-91.31S182.771,14.1,255.276,14.1,386.558,54.98,386.558,105.412Z" transform="translate(-123.995 -14.099)" fill="#afafaf" opacity="0.103"/>
        </g>
      </g>
    </g>
    <g id="Grupo_122148" data-name="Grupo 122148" transform="translate(953.168 1388.347)">
      <g id="Grupo_106414-2" data-name="Grupo 106414" transform="translate(0 0)">
        <g id="coronavirus" transform="translate(0 0)">
          <g id="Grupo_106376" data-name="Grupo 106376" transform="translate(141.66 1.505)">
            <g id="Grupo_106372" data-name="Grupo 106372" transform="translate(39.534 2.801)">
              <g id="haed" transform="translate(2.941 2.409)">
                <g id="Grupo_106370" data-name="Grupo 106370">
                  <g id="Grupo_106367" data-name="Grupo 106367">
                    <path id="Trazado_149848" data-name="Trazado 149848" d="M211.91,35.2c-.62-2.49-.693-5.538.9-7.7,2.5-3.415,8.921-4.1,11.922-1.106,1.988,1.982,2.541,4.331,2.465,7.1a5.284,5.284,0,0,0,1.389,4.267c.147.139.325.33.24.517s-.309.183-.5.229c-.582.149-.848.817-.939,1.408a24.386,24.386,0,0,1-.769,4.238,1.324,1.324,0,0,1-.543.764,1.6,1.6,0,0,1-.964.1c-1.1-.124-2.188-.306-3.272-.535a.617.617,0,0,0-.19.118,1.59,1.59,0,0,0-.333.791c-.5,2.209-1,4.413-1.493,6.624a38.829,38.829,0,0,0-7.775-4.77,10.228,10.228,0,0,0,1.55-7.656A19.2,19.2,0,0,1,211.91,35.2Z" transform="translate(-211.5 -24.496)" fill="#ff8f67"/>
                    <path id="Trazado_149849" data-name="Trazado 149849" d="M220.729,39.305a.136.136,0,0,1-.054-.011c-.155-.054-3.828-1.382-4.732-4.385a.162.162,0,0,1,.107-.2.159.159,0,0,1,.2.107c.857,2.849,4.5,4.165,4.533,4.179a.16.16,0,0,1-.053.309Z" transform="translate(-209.072 -18.909)" fill="#894c4c"/>
                  </g>
                  <g id="Grupo_106369" data-name="Grupo 106369" transform="translate(13.205 9.352)">
                    <g id="Grupo_106368" data-name="Grupo 106368">
                      <path id="Trazado_149850" data-name="Trazado 149850" d="M222,31.462a.429.429,0,0,1-.2.009,1.875,1.875,0,0,0-1.1.169.454.454,0,0,1-.436-.8,2.8,2.8,0,0,1,1.7-.266.451.451,0,0,1,.362.528A.444.444,0,0,1,222,31.462Z" transform="translate(-220.034 -30.54)" fill="#1d272b"/>
                      <path id="Trazado_149851" data-name="Trazado 149851" d="M221.4,32c.012.371-.121.682-.3.689s-.328-.292-.342-.667.122-.684.3-.692S221.385,31.632,221.4,32Z" transform="translate(-219.639 -30.105)" fill="#a86060"/>
                    </g>
                  </g>
                </g>
                <path id="Trazado_149852" data-name="Trazado 149852" d="M220.756,35.152a.129.129,0,0,1-.1-.21,1.385,1.385,0,0,1,1.408-.359.128.128,0,1,1-.063.248,1.147,1.147,0,0,0-1.15.275A.128.128,0,0,1,220.756,35.152Z" transform="translate(-206.504 -19.006)" fill="#894c4c"/>
                <g id="Grupo_106371" data-name="Grupo 106371" transform="translate(6.451 10.73)">
                  <path id="Trazado_149853" data-name="Trazado 149853" d="M216.614,32.488a.223.223,0,0,1-.045-.006l-.784-.227a.16.16,0,0,1-.11-.2.157.157,0,0,1,.2-.108l.786.226a.16.16,0,0,1-.043.313Z" transform="translate(-215.669 -31.151)" fill="#894c4c"/>
                  <path id="Trazado_149854" data-name="Trazado 149854" d="M216.608,33.647h0a.159.159,0,0,1-.155-.162c.009-.408-.07-1.519-.545-1.752a.159.159,0,0,1-.073-.214.161.161,0,0,1,.214-.073c.74.365.726,1.874.721,2.045A.158.158,0,0,1,216.608,33.647Z" transform="translate(-215.589 -31.431)" fill="#894c4c"/>
                </g>
              </g>
              <path id="Trazado_149855" data-name="Trazado 149855" d="M228.005,26.875a9.231,9.231,0,0,0-4.283-3.342c-3.775-1.434-7.965-.142-10.945,2.508A9.98,9.98,0,0,0,210,36.064c.735,2.318,2.352,4.1,2.423,6.587-.011.373.012.75.039,1.126a4.582,4.582,0,0,0,.888-2.584c.356.961.1,2.541.17,3.687a5.425,5.425,0,0,0,2.462-1.21,10.8,10.8,0,0,0,1.53-2.188,8.611,8.611,0,0,0,1.074-4c.054-.651,1.032-2.661,1.683-1.406.334.644-.314,2.5,1.088,2.278a2.775,2.775,0,0,1,.325-2.615c.331-.521,1.592-1.775,1.515-2.406.034.279.054,2.106-.337,2.179,2.613-.486,6.294-3.712,5.9-6.667A4.77,4.77,0,0,0,228.005,26.875Z" transform="translate(-209.599 -22.939)" fill="#1d272b"/>
            </g>
            <path id="Trazado_149856" data-name="Trazado 149856" d="M197.172,117.568c-2.476-1.335-5-4.048-8.075-3.412-2.284.47-5.231,2.771-5.039,5.289.159,2.033,2.917,3.449,4.43,4.606,3.672,2.81,6.6,5.364,11.007,6.647,4.287,1.247,11.332,1.236,6.7-4.478-1.457-1.795-3.181-3.293-4.5-5.233-.767-1.13-.376-1.224-1.518-2.093A22.725,22.725,0,0,0,197.172,117.568Z" transform="translate(-184.048 29.729)" fill="#f7b242"/>
            <g id="Grupo_106373" data-name="Grupo 106373" transform="translate(26.719 29.735)">
              <path id="Trazado_149857" data-name="Trazado 149857" d="M229.5,84.213H210.941c-1.976-.084-3.692-.206-3.692-.206-7.693-.5-6.29-9.582-4.625-14.92,1.058-3.395-.22-5.686.2-8.9.419-3.17,1.615-4.7,1.307-8.049-.46-5.053,4.56-11.795,10.164-11.795h5.4c3.268,0,7.009,1.075,9.191,3.655,2.372,2.8,1.535,6.489,3.274,9.452,1.988,3.384.616,7.741,1.318,11.431.764,4.007,1,7.814,1.428,11.9,0,0,.012.108.023.288C235.018,78.393,235.056,83.89,229.5,84.213Z" transform="translate(-201.317 -40.347)" fill="url(#linear-gradient)"/>
            </g>
            <g id="Grupo_106374" data-name="Grupo 106374" transform="translate(37.583 67.523)">
              <path id="Trazado_149858" data-name="Trazado 149858" d="M234.656,118.2c-2.757.552-6.43.071-8.4,2.525-1.456,1.82-2.257,5.47-.5,7.285,1.417,1.468,4.444.8,6.347.724,4.622-.179,8.5-.08,12.719-1.906,4.1-1.776,9.514-6.279,2.3-7.721-2.267-.453-4.552-.506-6.806-1.157-1.311-.378-1.069-.7-2.507-.642A22.989,22.989,0,0,0,234.656,118.2Z" transform="translate(-199.354 -36.023)" fill="#f7b242"/>
              <path id="Trazado_149859" data-name="Trazado 149859" d="M244.408,107.922c1.55,4.47,1.379,9.28,2.7,13.769,1.159,3.956,2.915,8.135,3.342,12.222.365,3.5,2.872,6.406,3.628,9.791.853,3.816-2.118,3.441-4.7,4.229-1.221.37-1.9,1.411-3.071,1.755-2.338.681-4.523-1.4-6.9-.61-1.8.6-2.8,2.415-4.982,2.316-3.508-.159-4.393-8.114-4.824-11.377-.608-4.588-3.071-9.25-3.037-13.846.036-4.987-2.333-8.346-3.758-13.094s-3.2-8.72-4.1-13.729c-.885-4.9-5-7.329-6-12.38-.5-2.522-.56-3.959-2.049-6.209-3.772-5.68-3.211-12.186,3.825-15.123a11.154,11.154,0,0,1,14.572,5.911q2.787,6.6,5.579,13.2,3.957,9.36,7.91,18.722c.607,1.436,1.318,2.869,1.835,4.342C244.381,107.851,244.4,107.885,244.408,107.922Z" transform="translate(-208.338 -64.769)" fill="url(#linear-gradient)"/>
            </g>
            <path id="Trazado_149860" data-name="Trazado 149860" d="M220.3,116.5c-.15.467-.3.933-.455,1.4-2.663,8.108-7.1,15.949-10.661,23.716-.972,2.121-3.354,10.094-5.1,10.43-3.217.622-7.026-4.569-10.02-5.553-2.595-.856-9-2.708-8.867-6.5.166-4.583,4.018-9.231,6.183-13.025,1.244-2.185,1.345-4.36,2.2-6.554,1.5-3.825,4.205-6.833,5.606-10.766.551-1.549,1.134-3,1.575-4.6q1.71-6.225,3.419-12.449,2.739-9.978,5.48-19.952a11.116,11.116,0,1,1,21.439,5.887q-2.2,8-4.4,15.994C224.68,101.935,222.641,109.245,220.3,116.5Z" transform="translate(-183.416 2.593)" fill="url(#linear-gradient)"/>
            <path id="Trazado_149861" data-name="Trazado 149861" d="M220.72,38.013a8.081,8.081,0,0,1,3.658-4.883c.716-.463,6.984-2.937,7.178-1.691-.254-1.642,1.131-2.12.894-3.676-.193-1.281-2.265-3.1-3.207-3.812-8.412-6.338-18.835-1.207-22.935,7.572-1.651,3.535-1.818,7.637-1.648,11.471.269,6.1,2.121,14.775,9.794,12.935a16.7,16.7,0,0,1,5.955-.562c4.317.288,2.415-1.536,1.669-4.184-1.1-3.918-2.448-8.648-1.453-12.808C220.655,38.253,220.688,38.132,220.72,38.013Z" transform="translate(-172.797 -21.129)" fill="url(#linear-gradient)"/>
            <path id="Trazado_149862" data-name="Trazado 149862" d="M224.968,32.328a1.243,1.243,0,0,0-.3-.057,20.414,20.414,0,0,0-2.319.107c-1.43.07-2.858.135-4.289.2l-1.112,4.184a3.955,3.955,0,0,0,.871,2.429,3.857,3.857,0,0,0,1.9,1.4,5.1,5.1,0,0,0,1.546.26,4.66,4.66,0,0,0,1.572-.014c.477-.162.658-.624.921-1.015a12.691,12.691,0,0,0,1.258-2.386,18.338,18.338,0,0,0,.84-2.879C226.029,33.742,225.8,32.6,224.968,32.328Z" transform="translate(-166.061 -15.039)" fill="url(#linear-gradient-5)"/>
            <path id="Trazado_149863" data-name="Trazado 149863" d="M219.5,33.69s-1.919-4.315-4.314-1.96l-.262.611s2.135-2.833,4.184,1.611S219.5,33.69,219.5,33.69Z" transform="translate(-167.152 -15.712)" fill="url(#linear-gradient-5)"/>
            <path id="Trazado_149864" data-name="Trazado 149864" d="M219.273,34.588s-3.487,0-4.359-3.051l-.217.7s.478,2.4,4.62,2.661S219.273,34.588,219.273,34.588Z" transform="translate(-167.275 -15.433)" fill="url(#linear-gradient-5)"/>
            <g id="Grupo_106375" data-name="Grupo 106375" transform="translate(6.163 28.949)">
              <path id="Trazado_149865" data-name="Trazado 149865" d="M218.016,40.09c-4.165,1.753-6.754,4.185-10.091,7.374a50.279,50.279,0,0,0-4.49,4.628c-1.778,2.177-4.266,3.189-6.064,5.285-1.816,2.121-2.534,4.92-4.1,7.237a17.01,17.01,0,0,0-2.675,5.278c-.664,2.349-1.623,4.761-1.765,7.223-.231,4,1.577,4.648,5.3,5.34,3.249.6,3.237.347,4.438-2.753.976-2.52,1.68-5.038,2.822-7.524,1.383-3.022,3.285-4.038,5.678-6.537,2.647-2.762,3.961-4.321,7.552-5.521,2.954-.989,3.294-2.361,4.414-5.135,1.2-2.983,4.566-11.751,1.527-14.493-.846-.764-2.038-1.009-2.672.113Z" transform="translate(-187.603 -39.839)" fill="url(#linear-gradient)"/>
              <path id="Trazado_149866" data-name="Trazado 149866" d="M188.116,71.2c.371-2.145.887-7.24,4.137-7.139A7.52,7.52,0,0,1,196.27,65.9c2.245,1.863,1.812,5.214,1.326,7.752a3.827,3.827,0,0,0-.128,1.309c.084.374.585.682.634.983a1.03,1.03,0,0,1-1.246,1.131c-.735-.088-1.038-.947-1.809-.675-.727.258-.464,1.106-.7,1.708a1.378,1.378,0,0,1-1.657.874c-.337-.051-.754-.481-.962-.5-.484-.045-.326.328-.76.436s-.443.1-.817-.193c-.093-.07.017-.466-.135-.565s-.376,0-.408-.017c-.336-.181-.586.15-.93-.469a8.785,8.785,0,0,1-.436-2.955A12.46,12.46,0,0,1,188.116,71.2Z" transform="translate(-188.031 -26.584)" fill="#b1e5d2"/>
            </g>
            <path id="Trazado_149867" data-name="Trazado 149867" d="M202.677,57.677l-.227-.111-.184-.173a11.626,11.626,0,0,1,2.63-3.028c.4-.28.9-.7,1.423-1.139,1.837-1.543,4.12-3.466,6.008-2.966a.249.249,0,0,1,.178.3.244.244,0,0,1-.3.178c-1.64-.427-3.9,1.476-5.559,2.867-.534.449-1.04.873-1.458,1.165A11.292,11.292,0,0,0,202.677,57.677Z" transform="translate(-174.079 -5.231)" fill="#fff"/>
            <path id="Trazado_149868" data-name="Trazado 149868" d="M230.722,64.59c1.177,1.481,2.4,2.926,3.565,4.427,2.109,2.736,3.511,5.7,5.937,8.2,1.1,1.134,6.413,5.519,2.03,6,1.117,1.767,1.861,4.052-.953,4.645-1.068.223-1.051,1.046-2.539.783-1.182-.209-2.347-1.394-3.249-2.114-2.23-1.776-2.828-3.933-4.456-6.234-1.82-2.575-4.793-4.778-7.569-6.563-3.384-2.177-6.885-5.655-6.457-9.946.241-2.442.634-9.848,2.994-11.247,2.944-1.745,6.369,5.542,7.359,7.271A38.17,38.17,0,0,0,230.722,64.59Z" transform="translate(-166.018 -4.083)" fill="url(#linear-gradient-9)"/>
            <path id="Trazado_149869" data-name="Trazado 149869" d="M221.586,75.1a2.158,2.158,0,0,1-.531-.07.25.25,0,1,1,.122-.484,1.356,1.356,0,0,0,1.38-.384c1.453-1.468,1.541-6.246,1.126-7.821A12.3,12.3,0,0,0,222.719,64a10.419,10.419,0,0,1-1.1-2.941,26.936,26.936,0,0,1-.232-3.949c0-.46-.009-.91-.023-1.34a.249.249,0,0,1,.243-.257.257.257,0,0,1,.258.241c.012.433.017.887.022,1.351a26.6,26.6,0,0,0,.227,3.873,9.879,9.879,0,0,0,1.051,2.8,12.689,12.689,0,0,1,1,2.432c.435,1.649.41,6.621-1.253,8.3A1.826,1.826,0,0,1,221.586,75.1Z" transform="translate(-163.899 -2.31)" fill="#fff"/>
            <path id="Trazado_149870" data-name="Trazado 149870" d="M198.2,144.407a.307.307,0,0,1-.144-.037.3.3,0,0,1-.121-.407,28.432,28.432,0,0,0,1.937-4.939,37.878,37.878,0,0,1,1.419-3.911c.625-1.4,1.355-2.773,2.062-4.1.726-1.362,1.476-2.77,2.107-4.2.721-1.635,1.431-3.161,2.118-4.637a92.667,92.667,0,0,0,6.416-16.969c.7-2.646,1.524-5.306,2.316-7.877.4-1.292.8-2.584,1.184-3.881L222.186,77.7a.3.3,0,0,1,.374-.2.3.3,0,0,1,.2.374L218.07,93.622c-.387,1.3-.786,2.59-1.185,3.885-.791,2.565-1.611,5.217-2.31,7.852a93.035,93.035,0,0,1-6.454,17.068c-.685,1.475-1.394,3-2.114,4.628-.639,1.451-1.4,2.87-2.126,4.241-.7,1.317-1.428,2.68-2.046,4.06a38.18,38.18,0,0,0-1.394,3.851,28.868,28.868,0,0,1-1.981,5.041A.3.3,0,0,1,198.2,144.407Z" transform="translate(-176.47 9.71)" fill="#fff"/>
          </g>
          <g id="Grupo_106388" data-name="Grupo 106388" transform="translate(45.862 3.838)">
            <g id="Grupo_106386" data-name="Grupo 106386">
              <g id="Grupo_106384" data-name="Grupo 106384" transform="translate(0.431)">
                <g id="Grupo_106382" data-name="Grupo 106382" transform="translate(25.575 2.802)">
                  <g id="haed-2" data-name="haed" transform="translate(2.942 2.408)">
                    <g id="Grupo_106380" data-name="Grupo 106380">
                      <g id="Grupo_106377" data-name="Grupo 106377">
                        <path id="Trazado_149871" data-name="Trazado 149871" d="M141.253,36.708c-.619-2.49-.692-5.536.894-7.7,2.5-3.413,8.925-4.1,11.925-1.1,1.988,1.979,2.541,4.329,2.463,7.1a5.3,5.3,0,0,0,1.389,4.267c.149.139.326.331.24.515s-.309.186-.494.231c-.583.149-.851.815-.939,1.408a24.443,24.443,0,0,1-.769,4.238,1.338,1.338,0,0,1-.543.764,1.591,1.591,0,0,1-.964.1c-1.1-.124-2.191-.3-3.272-.535a.594.594,0,0,0-.19.119,1.584,1.584,0,0,0-.333.791q-.747,3.312-1.495,6.622a38.78,38.78,0,0,0-7.775-4.769,10.228,10.228,0,0,0,1.552-7.656A19.123,19.123,0,0,1,141.253,36.708Z" transform="translate(-140.843 -26.003)" fill="#ff8f67"/>
                        <path id="Trazado_149872" data-name="Trazado 149872" d="M150.072,40.812a.133.133,0,0,1-.053-.011c-.155-.054-3.831-1.38-4.733-4.383a.161.161,0,0,1,.105-.2.159.159,0,0,1,.2.107c.856,2.849,4.5,4.164,4.535,4.178a.16.16,0,0,1-.054.309Z" transform="translate(-138.416 -20.417)" fill="#894c4c"/>
                      </g>
                      <g id="Grupo_106379" data-name="Grupo 106379" transform="translate(13.204 9.353)">
                        <g id="Grupo_106378" data-name="Grupo 106378">
                          <path id="Trazado_149873" data-name="Trazado 149873" d="M151.345,32.972a.408.408,0,0,1-.2.006,1.872,1.872,0,0,0-1.1.169.453.453,0,1,1-.438-.794,2.813,2.813,0,0,1,1.7-.266.454.454,0,0,1,.034.885Z" transform="translate(-149.377 -32.048)" fill="#1d272b"/>
                          <path id="Trazado_149874" data-name="Trazado 149874" d="M150.741,33.513c.012.371-.121.682-.3.689s-.328-.292-.342-.668.124-.684.3-.69S150.728,33.139,150.741,33.513Z" transform="translate(-148.981 -31.613)" fill="#a86060"/>
                        </g>
                      </g>
                    </g>
                    <path id="Trazado_149875" data-name="Trazado 149875" d="M150.1,36.66a.129.129,0,0,1-.1-.21,1.389,1.389,0,0,1,1.408-.361.126.126,0,0,1,.091.155.128.128,0,0,1-.155.093,1.125,1.125,0,0,0-1.15.277A.128.128,0,0,1,150.1,36.66Z" transform="translate(-135.847 -20.514)" fill="#894c4c"/>
                    <g id="Grupo_106381" data-name="Grupo 106381" transform="translate(6.45 10.73)">
                      <path id="Trazado_149876" data-name="Trazado 149876" d="M145.957,34a.151.151,0,0,1-.043-.008l-.788-.224a.159.159,0,0,1,.088-.3l.788.224a.157.157,0,0,1,.108.2A.16.16,0,0,1,145.957,34Z" transform="translate(-145.012 -32.657)" fill="#894c4c"/>
                      <path id="Trazado_149877" data-name="Trazado 149877" d="M145.95,35.155h0a.159.159,0,0,1-.155-.162c.009-.408-.07-1.519-.545-1.752a.16.16,0,1,1,.141-.286c.741.364.726,1.874.721,2.044A.158.158,0,0,1,145.95,35.155Z" transform="translate(-144.932 -32.938)" fill="#894c4c"/>
                    </g>
                  </g>
                  <path id="Trazado_149878" data-name="Trazado 149878" d="M157.347,28.382a9.219,9.219,0,0,0-4.281-3.341c-3.777-1.434-7.965-.142-10.944,2.508a9.976,9.976,0,0,0-2.782,10.023c.735,2.318,2.352,4.1,2.425,6.585a11.041,11.041,0,0,0,.037,1.128,4.571,4.571,0,0,0,.888-2.584c.356.961.1,2.541.172,3.686a5.433,5.433,0,0,0,2.46-1.208,10.791,10.791,0,0,0,1.532-2.188,8.628,8.628,0,0,0,1.072-4c.056-.651,1.032-2.663,1.683-1.408.336.647-.314,2.5,1.089,2.279a2.77,2.77,0,0,1,.323-2.616c.331-.52,1.592-1.775,1.516-2.4.034.278.054,2.1-.337,2.177,2.613-.484,6.294-3.712,5.9-6.664A4.8,4.8,0,0,0,157.347,28.382Z" transform="translate(-138.942 -24.447)" fill="#1d272b"/>
                </g>
                <path id="Trazado_149879" data-name="Trazado 149879" d="M135.028,120.723c-2.688-.828-5.686-3-8.584-1.782-2.149.905-4.594,3.732-3.916,6.166.546,1.963,3.528,2.818,5.236,3.659,4.147,2.047,7.51,3.984,12.087,4.388,4.45.393,11.357-.983,5.7-5.688-1.778-1.481-3.76-2.616-5.431-4.263-.973-.956-.607-1.129-1.9-1.761A23.52,23.52,0,0,0,135.028,120.723Z" transform="translate(-122.413 29.868)" fill="#f7b242"/>
                <path id="Trazado_149880" data-name="Trazado 149880" d="M157.085,119.416c-2.81.062-6.341-1.058-8.708,1.012-1.753,1.536-3.183,4.99-1.775,7.085,1.137,1.691,4.236,1.564,6.123,1.826,4.581.636,8.383,1.416,12.855.356,4.346-1.027,10.469-4.509,3.617-7.193-2.152-.846-4.39-1.3-6.5-2.336-1.224-.6-.93-.88-2.353-1.072A23.15,23.15,0,0,0,157.085,119.416Z" transform="translate(-109.486 30.136)" fill="#f7b242"/>
                <g id="Grupo_106383" data-name="Grupo 106383" transform="translate(12.761 29.737)">
                  <path id="Trazado_149881" data-name="Trazado 149881" d="M158.845,85.721H140.282c-1.973-.085-3.692-.206-3.692-.206-7.691-.5-6.288-9.582-4.623-14.92,1.06-3.4-.218-5.688.2-8.9.419-3.172,1.615-4.7,1.307-8.049-.46-5.053,4.56-11.792,10.162-11.792h5.4c3.269,0,7.011,1.072,9.192,3.653,2.372,2.805,1.535,6.489,3.272,9.454,1.987,3.382.617,7.738,1.318,11.428.766,4.007,1,7.815,1.428,11.9,0,0,.011.107.025.286C164.362,79.9,164.4,85.4,158.845,85.721Z" transform="translate(-130.66 -41.856)" fill="url(#linear-gradient)"/>
                </g>
                <path id="Trazado_149882" data-name="Trazado 149882" d="M153.919,116.254c-.767,4.667-3.211,8.815-4.2,13.388-.866,4.032-1.314,8.541-2.886,12.338-1.351,3.248-.532,7-1.479,10.334-1.069,3.76-3.5,2.016-6.152,1.476-1.249-.255-2.341.337-3.532.079-2.381-.517-3.313-3.385-5.773-3.823-1.872-.328-3.616.786-5.487-.339-3.006-1.813.006-9.228,1.182-12.3,1.654-4.323,1.713-9.6,3.933-13.619,2.409-4.366,1.928-8.45,2.94-13.3s1.341-9.192,2.937-14.024c1.561-4.732-.9-8.824.627-13.741.764-2.455,1.4-3.747,1.157-6.437-.6-6.791,2.991-12.242,10.576-11.47a11.152,11.152,0,0,1,9.991,12.141q-.694,7.137-1.391,14.269-.984,10.114-1.97,20.227c-.153,1.553-.209,3.152-.456,4.693C153.931,116.178,153.925,116.216,153.919,116.254Z" transform="translate(-122.026 0.404)" fill="url(#linear-gradient)"/>
                <path id="Trazado_149883" data-name="Trazado 149883" d="M168.591,112.4c.1.481.2.961.3,1.442,1.682,8.368,1.682,17.38,2.412,25.892.2,2.324,2.058,10.435.709,11.586-2.491,2.126-8.363-.512-11.454.1-2.681.537-9.169,2.086-10.919-1.28-2.115-4.068-1.052-10.011-1.04-14.382.008-2.513-.979-4.455-1.311-6.785-.583-4.068.291-8.021-.433-12.131-.283-1.622-.489-3.169-.9-4.783q-1.581-6.259-3.161-12.519l-5.064-20.06a11.117,11.117,0,1,1,21.556-5.446l4.057,16.084C165.219,97.565,167.047,104.93,168.591,112.4Z" transform="translate(-114.216 0.903)" fill="url(#linear-gradient)"/>
                <path id="Trazado_149884" data-name="Trazado 149884" d="M137.895,138.849a.347.347,0,0,1-.08-.009.3.3,0,0,1-.21-.371l8.111-29.367,2.811-31.165a.3.3,0,0,1,.6.056L146.3,109.209l-8.12,29.421A.3.3,0,0,1,137.895,138.849Z" transform="translate(-114.105 7.477)" fill="#fff"/>
                <path id="Trazado_149885" data-name="Trazado 149885" d="M150.065,39.518a8.073,8.073,0,0,1,3.658-4.88c.715-.463,6.984-2.937,7.178-1.691-.254-1.642,1.13-2.12.894-3.678-.195-1.278-2.267-3.1-3.209-3.812-8.411-6.336-18.833-1.205-22.935,7.572C134,36.564,133.831,40.667,134,44.5c.269,6.1,2.123,14.775,9.8,12.934a16.753,16.753,0,0,1,5.954-.562c4.318.288,2.415-1.535,1.671-4.182-1.1-3.918-2.451-8.648-1.454-12.81C150,39.761,150.032,39.637,150.065,39.518Z" transform="translate(-116.099 -22.637)" fill="url(#linear-gradient)"/>
                <path id="Trazado_149886" data-name="Trazado 149886" d="M154.309,33.834a1.205,1.205,0,0,0-.3-.056,20.047,20.047,0,0,0-2.319.108q-2.147.1-4.291.2s-1.108,4.176-1.111,4.185a3.951,3.951,0,0,0,.87,2.426,3.87,3.87,0,0,0,1.9,1.4,5.157,5.157,0,0,0,1.547.258,4.742,4.742,0,0,0,1.572-.012c.477-.164.654-.625.921-1.018a12.756,12.756,0,0,0,1.256-2.384,18.19,18.19,0,0,0,.84-2.881C155.372,35.249,155.139,34.111,154.309,33.834Z" transform="translate(-109.362 -16.546)" fill="url(#linear-gradient-5)"/>
                <path id="Trazado_149887" data-name="Trazado 149887" d="M148.841,35.2s-1.919-4.315-4.315-1.96l-.26.61s2.134-2.833,4.182,1.611S148.841,35.2,148.841,35.2Z" transform="translate(-110.453 -17.22)" fill="url(#linear-gradient-5)"/>
                <path id="Trazado_149888" data-name="Trazado 149888" d="M148.616,36.1s-3.486,0-4.359-3.051l-.217.7s.478,2.4,4.619,2.658S148.616,36.1,148.616,36.1Z" transform="translate(-110.576 -16.941)" fill="url(#linear-gradient-5)"/>
              </g>
              <g id="Grupo_106385" data-name="Grupo 106385" transform="translate(0 32.174)">
                <path id="Trazado_149889" data-name="Trazado 149889" d="M142.19,43.968c-3.647,2.666-5.606,5.63-8.118,9.5a49.847,49.847,0,0,0-3.3,5.538c-1.23,2.528-3.416,4.086-4.68,6.543-1.278,2.483-1.334,5.372-2.318,7.985a16.9,16.9,0,0,0-1.386,5.75c-.107,2.443-.483,5.008-.053,7.436.7,3.942,2.607,4.161,6.389,3.976,3.3-.161,3.231-.412,3.684-3.706.367-2.675.473-5.289,1.009-7.97.651-3.259,2.267-4.685,4.02-7.671,1.937-3.3,2.858-5.12,6.075-7.114,2.644-1.64,2.661-3.057,3.108-6.013.481-3.183,1.734-12.493-1.855-14.456-1-.549-2.214-.512-2.575.724Z" transform="translate(-122.134 -43.431)" fill="url(#linear-gradient-9)"/>
                <path id="Trazado_149890" data-name="Trazado 149890" d="M122.693,79.022c-.136-2.175-.809-7.254,2.378-7.9a7.536,7.536,0,0,1,4.331.859c2.618,1.3,2.966,4.657,3.082,7.24a3.645,3.645,0,0,0,.175,1.3c.167.345.726.531.842.811a1.028,1.028,0,0,1-.95,1.388c-.733.082-1.23-.681-1.915-.24-.65.419-.195,1.182-.285,1.824a1.375,1.375,0,0,1-1.408,1.232c-.342.028-.846-.3-1.052-.266-.483.07-.241.4-.641.6s-.407.2-.839,0c-.105-.048-.091-.455-.261-.515s-.368.084-.4.074c-.368-.1-.538.282-1.015-.24a8.794,8.794,0,0,1-1.1-2.774A12.458,12.458,0,0,1,122.693,79.022Z" transform="translate(-121.911 -28.319)" fill="#b1e5d2"/>
              </g>
              <path id="Trazado_149891" data-name="Trazado 149891" d="M131.211,68.54a.25.25,0,0,1-.15-.449c1.128-.854,1.614-2.4,2.131-4.04a11.651,11.651,0,0,1,1.625-3.667c.3-.385.654-.93,1.027-1.509,1.3-2.013,2.923-4.52,4.868-4.6a.238.238,0,0,1,.261.24.252.252,0,0,1-.24.261c-1.687.071-3.294,2.556-4.468,4.371-.381.588-.74,1.143-1.054,1.546a11.323,11.323,0,0,0-1.543,3.509c-.517,1.642-1.051,3.339-2.305,4.287A.249.249,0,0,1,131.211,68.54Z" transform="translate(-117.303 -5.323)" fill="#fff"/>
            </g>
            <path id="Trazado_149892" data-name="Trazado 149892" d="M160.064,66.1c1.179,1.479,2.408,2.923,3.566,4.425,2.109,2.734,3.512,5.7,5.938,8.2,1.1,1.134,6.412,5.522,2.028,6,1.117,1.764,1.863,4.051-.953,4.643-1.066.223-1.051,1.043-2.537.783-1.182-.209-2.349-1.394-3.249-2.112-2.231-1.778-2.828-3.935-4.458-6.235-1.821-2.573-4.792-4.778-7.569-6.565-3.384-2.177-6.885-5.657-6.457-9.944.243-2.443.633-9.848,2.992-11.247,2.948-1.744,6.372,5.542,7.362,7.271A38.8,38.8,0,0,0,160.064,66.1Z" transform="translate(-108.888 -5.59)" fill="url(#linear-gradient-9)"/>
            <path id="Trazado_149893" data-name="Trazado 149893" d="M150.93,76.608a2.148,2.148,0,0,1-.531-.07.25.25,0,0,1-.181-.3.254.254,0,0,1,.3-.183,1.349,1.349,0,0,0,1.379-.381c1.453-1.467,1.541-6.246,1.128-7.823a12.569,12.569,0,0,0-.965-2.338,10.424,10.424,0,0,1-1.1-2.941,27.131,27.131,0,0,1-.232-3.964c0-.455-.009-.9-.022-1.323a.252.252,0,0,1,.243-.258h.008a.25.25,0,0,1,.249.243c.014.429.019.876.023,1.334a26.626,26.626,0,0,0,.226,3.89,9.871,9.871,0,0,0,1.052,2.8,12.789,12.789,0,0,1,1,2.432c.433,1.651.407,6.624-1.255,8.3A1.823,1.823,0,0,1,150.93,76.608Z" transform="translate(-106.768 -3.818)" fill="#fff"/>
            <g id="Grupo_106387" data-name="Grupo 106387" transform="translate(8.068 111.522)">
              <path id="Trazado_149894" data-name="Trazado 149894" d="M148.493,133.048a.225.225,0,0,1-.054-.006.25.25,0,0,1-.19-.3c.195-.876-.566-4.462-.876-5.77l-.874-3.246a.22.22,0,0,1-.008-.065c0-2.268-3.416-13.163-3.45-13.272l-3.177-15.375a.25.25,0,0,1,.193-.3.247.247,0,0,1,.3.195l3.17,15.35c.136.424,3.435,10.952,3.467,13.364l.868,3.223c.118.5,1.133,4.852.879,6A.251.251,0,0,1,148.493,133.048Z" transform="translate(-120.502 -94.714)" fill="#fff"/>
              <path id="Trazado_149895" data-name="Trazado 149895" d="M134.273,132.572a.246.246,0,0,1-.19-.088c-1.024-1.195-1.809-9.387-1.9-10.317l-4.832-19.485a.25.25,0,1,1,.486-.121l4.838,19.522c.339,3.627,1.086,9.263,1.782,10.076a.249.249,0,0,1-.026.353A.252.252,0,0,1,134.273,132.572Z" transform="translate(-127.348 -90.523)" fill="#fff"/>
            </g>
          </g>
          <g id="Grupo_106403" data-name="Grupo 106403" transform="translate(32.132)">
            <g id="Grupo_106389" data-name="Grupo 106389" transform="translate(0 59.38)">
              <path id="Trazado_149896" data-name="Trazado 149896" d="M309.885,65.04c0,3.577-4.506,6.506-10.011,6.506h-171.2c-5.505,0-10.011-2.929-10.011-6.506s4.506-6.506,10.011-6.506h171.2C305.379,58.534,309.885,61.461,309.885,65.04Z" transform="translate(-110.301 -58.534)" fill="#443b2c"/>
              <g id="cascet" transform="translate(0 4.291)">
                <rect id="Rectángulo_33884" data-name="Rectángulo 33884" width="204.211" height="40.285" transform="translate(4.054 12.161)" fill="#443b2c"/>
                <rect id="Rectángulo_33885" data-name="Rectángulo 33885" width="203.957" height="12.922" transform="translate(4.054 0.505)" fill="#443b2c"/>
                <rect id="Rectángulo_33886" data-name="Rectángulo 33886" width="204.211" height="2.199" transform="translate(4.054 12.161)" fill="#332c21"/>
                <rect id="Rectángulo_33887" data-name="Rectángulo 33887" width="204.211" height="2.197" transform="translate(4.054)" fill="#332c21"/>
                <path id="Rectángulo_33888" data-name="Rectángulo 33888" d="M1.965,0H30.72a1.965,1.965,0,0,1,1.965,1.965V5.889A1.965,1.965,0,0,1,30.72,7.854H1.966A1.966,1.966,0,0,1,0,5.888V1.965A1.965,1.965,0,0,1,1.965,0Z" transform="translate(0 5.573)" fill="#b57878"/>
                <rect id="Rectángulo_33889" data-name="Rectángulo 33889" width="32.683" height="7.854" rx="1.965" transform="translate(179.383 5.573)" fill="#0b0904"/>
                <rect id="Rectángulo_33890" data-name="Rectángulo 33890" width="200.413" height="3.548" transform="translate(7.092 48.898)" fill="#332c21"/>
                <path id="Rectángulo_33891" data-name="Rectángulo 33891" d="M1.965,0H30.72a1.965,1.965,0,0,1,1.965,1.965V5.889A1.964,1.964,0,0,1,30.72,7.853H1.964A1.964,1.964,0,0,1,0,5.889V1.965A1.965,1.965,0,0,1,1.965,0Z" transform="translate(1.266 47.379)" fill="#0b0904"/>
                <path id="Rectángulo_33892" data-name="Rectángulo 33892" d="M1.965,0H30.72a1.963,1.963,0,0,1,1.963,1.963V5.889a1.964,1.964,0,0,1-1.964,1.964H1.965A1.965,1.965,0,0,1,0,5.888V1.965A1.965,1.965,0,0,1,1.965,0Z" transform="translate(177.273 47.379)" fill="#0b0904"/>
              </g>
            </g>
            <g id="Grupo_106390" data-name="Grupo 106390" transform="translate(174.054 83.778)">
              <path id="Trazado_149897" data-name="Trazado 149897" d="M240.619,76.877a2.846,2.846,0,0,1-3.04,2.576h-6.166a2.611,2.611,0,1,1,0-5.151h6.166A2.845,2.845,0,0,1,240.619,76.877Z" transform="translate(-224.318 -74.302)" fill="#0b0904"/>
              <path id="Trazado_149898" data-name="Trazado 149898" d="M228.216,81.215h-2.027V78.6a3.043,3.043,0,0,1,3.04-3.04h13.091a3.042,3.042,0,0,1,3.037,3.04v2.448h-2.025V78.6a1.016,1.016,0,0,0-1.012-1.015H229.229a1.016,1.016,0,0,0-1.013,1.015Z" transform="translate(-225.513 -73.615)" fill="#0b0904"/>
              <path id="Trazado_149899" data-name="Trazado 149899" d="M225.752,80.279a1.773,1.773,0,1,1,1.775,1.773A1.776,1.776,0,0,1,225.752,80.279Z" transform="translate(-225.752 -72.002)" fill="#0b0904"/>
              <path id="Trazado_149900" data-name="Trazado 149900" d="M236.779,80.279a1.773,1.773,0,1,1,1.773,1.773A1.773,1.773,0,0,1,236.779,80.279Z" transform="translate(-219.717 -72.002)" fill="#0b0904"/>
            </g>
            <g id="Grupo_106391" data-name="Grupo 106391" transform="translate(31.606 83.778)">
              <path id="Trazado_149901" data-name="Trazado 149901" d="M148.552,76.877a2.846,2.846,0,0,1-3.04,2.576h-6.164a2.611,2.611,0,1,1,0-5.151h6.164A2.845,2.845,0,0,1,148.552,76.877Z" transform="translate(-132.254 -74.302)" fill="#0b0904"/>
              <path id="Trazado_149902" data-name="Trazado 149902" d="M136.152,81.215h-2.027V78.6a3.042,3.042,0,0,1,3.037-3.04h13.091a3.043,3.043,0,0,1,3.039,3.04v2.448h-2.027V78.6a1.015,1.015,0,0,0-1.012-1.015H137.162a1.015,1.015,0,0,0-1.01,1.015Z" transform="translate(-133.448 -73.615)" fill="#0b0904"/>
              <ellipse id="Elipse_4245" data-name="Elipse 4245" cx="1.773" cy="1.773" rx="1.773" ry="1.773" transform="translate(0 6.503)" fill="#0b0904"/>
              <path id="Trazado_149903" data-name="Trazado 149903" d="M144.713,80.279a1.774,1.774,0,1,1,1.775,1.773A1.776,1.776,0,0,1,144.713,80.279Z" transform="translate(-127.654 -72.002)" fill="#0b0904"/>
            </g>
            <g id="Grupo_106402" data-name="Grupo 106402" transform="translate(178.416)">
              <g id="Grupo_106401" data-name="Grupo 106401">
                <g id="Grupo_106399" data-name="Grupo 106399" transform="translate(0.431)">
                  <g id="Grupo_106397" data-name="Grupo 106397" transform="translate(25.576 2.801)">
                    <g id="haed-3" data-name="haed" transform="translate(2.941 2.408)">
                      <g id="Grupo_106395" data-name="Grupo 106395">
                        <g id="Grupo_106392" data-name="Grupo 106392">
                          <path id="Trazado_149904" data-name="Trazado 149904" d="M247.691,34.229c-.622-2.49-.693-5.535.894-7.7,2.5-3.415,8.923-4.1,11.925-1.106,1.988,1.98,2.539,4.329,2.463,7.1a5.288,5.288,0,0,0,1.389,4.267c.147.138.325.33.238.515s-.308.186-.49.235c-.585.144-.853.812-.941,1.406a24.555,24.555,0,0,1-.771,4.235,1.323,1.323,0,0,1-.54.764,1.6,1.6,0,0,1-.964.1q-1.65-.19-3.276-.538a.582.582,0,0,0-.189.118,1.591,1.591,0,0,0-.334.794q-.747,3.31-1.493,6.619a38.722,38.722,0,0,0-7.777-4.769,10.212,10.212,0,0,0,1.552-7.654A19.17,19.17,0,0,1,247.691,34.229Z" transform="translate(-247.28 -23.523)" fill="#ff8f67"/>
                          <path id="Trazado_149905" data-name="Trazado 149905" d="M256.51,38.331a.157.157,0,0,1-.053-.009c-.156-.054-3.829-1.379-4.735-4.385a.16.16,0,0,1,.107-.2.158.158,0,0,1,.2.107c.859,2.852,4.5,4.164,4.535,4.176a.159.159,0,0,1,.1.2A.161.161,0,0,1,256.51,38.331Z" transform="translate(-244.852 -17.936)" fill="#894c4c"/>
                        </g>
                        <g id="Grupo_106394" data-name="Grupo 106394" transform="translate(13.206 9.353)">
                          <g id="Grupo_106393" data-name="Grupo 106393">
                            <path id="Trazado_149906" data-name="Trazado 149906" d="M257.783,30.492a.415.415,0,0,1-.2,0,1.847,1.847,0,0,0-1.1.172.454.454,0,0,1-.436-.8,2.826,2.826,0,0,1,1.7-.266.455.455,0,0,1,.036.887Z" transform="translate(-255.815 -29.568)" fill="#1d272b"/>
                            <path id="Trazado_149907" data-name="Trazado 149907" d="M257.178,31.031c.011.374-.122.684-.3.689s-.326-.294-.339-.668.122-.682.3-.689S257.166,30.659,257.178,31.031Z" transform="translate(-255.419 -29.132)" fill="#a86060"/>
                          </g>
                        </g>
                      </g>
                      <path id="Trazado_149908" data-name="Trazado 149908" d="M256.537,34.18a.133.133,0,0,1-.084-.031.127.127,0,0,1-.014-.179,1.394,1.394,0,0,1,1.408-.362.128.128,0,1,1-.063.248,1.126,1.126,0,0,0-1.15.28A.131.131,0,0,1,256.537,34.18Z" transform="translate(-242.284 -18.033)" fill="#894c4c"/>
                      <g id="Grupo_106396" data-name="Grupo 106396" transform="translate(6.451 10.731)">
                        <path id="Trazado_149909" data-name="Trazado 149909" d="M252.4,31.515a.14.14,0,0,1-.043-.006l-.788-.227a.157.157,0,0,1-.108-.2.161.161,0,0,1,.2-.108l.786.227a.159.159,0,0,1,.11.2A.161.161,0,0,1,252.4,31.515Z" transform="translate(-251.45 -30.179)" fill="#894c4c"/>
                        <path id="Trazado_149910" data-name="Trazado 149910" d="M252.39,32.673h0a.159.159,0,0,1-.155-.162c.011-.408-.07-1.516-.546-1.751a.158.158,0,0,1-.073-.212.16.16,0,0,1,.214-.073c.744.365.727,1.874.723,2.044A.157.157,0,0,1,252.39,32.673Z" transform="translate(-251.37 -30.458)" fill="#894c4c"/>
                      </g>
                    </g>
                    <path id="Trazado_149911" data-name="Trazado 149911" d="M263.785,25.9A9.24,9.24,0,0,0,259.5,22.56c-3.775-1.433-7.964-.144-10.945,2.508a9.99,9.99,0,0,0-2.78,10.025c.736,2.319,2.355,4.1,2.426,6.585a10.975,10.975,0,0,0,.036,1.126,4.568,4.568,0,0,0,.89-2.584c.356.961.1,2.542.172,3.687a5.433,5.433,0,0,0,2.46-1.208,10.711,10.711,0,0,0,1.53-2.186,8.6,8.6,0,0,0,1.072-4.006c.056-.65,1.034-2.663,1.687-1.406.336.645-.316,2.5,1.086,2.276a2.78,2.78,0,0,1,.325-2.616c.331-.517,1.591-1.773,1.516-2.4.033.279.056,2.1-.337,2.179,2.613-.486,6.294-3.715,5.9-6.666A4.774,4.774,0,0,0,263.785,25.9Z" transform="translate(-245.38 -21.967)" fill="#1d272b"/>
                  </g>
                  <path id="Trazado_149912" data-name="Trazado 149912" d="M241.465,118.243c-2.686-.828-5.685-3-8.583-1.781-2.151.9-4.594,3.732-3.918,6.164.548,1.963,3.531,2.818,5.236,3.659,4.15,2.045,7.512,3.984,12.089,4.388,4.448.391,11.357-.984,5.7-5.689-1.776-1.479-3.76-2.615-5.431-4.263-.972-.956-.6-1.126-1.9-1.759A23.034,23.034,0,0,0,241.465,118.243Z" transform="translate(-228.85 32.349)" fill="#f7b242"/>
                  <path id="Trazado_149913" data-name="Trazado 149913" d="M263.524,116.936c-2.811.06-6.342-1.058-8.706,1.012-1.756,1.535-3.186,4.988-1.778,7.083,1.14,1.693,4.238,1.564,6.121,1.826,4.581.636,8.385,1.416,12.858.357,4.345-1.027,10.469-4.509,3.619-7.195-2.155-.845-4.393-1.3-6.5-2.336-1.222-.6-.931-.876-2.353-1.071A23.126,23.126,0,0,0,263.524,116.936Z" transform="translate(-215.924 32.617)" fill="#f7b242"/>
                  <g id="Grupo_106398" data-name="Grupo 106398" transform="translate(12.763 29.733)">
                    <path id="Trazado_149914" data-name="Trazado 149914" d="M265.28,83.243H246.722c-1.976-.085-3.693-.206-3.693-.206-7.691-.5-6.287-9.582-4.623-14.92,1.058-3.4-.221-5.688.2-8.9.418-3.17,1.615-4.7,1.307-8.049-.461-5.055,4.56-11.8,10.164-11.8h5.4c3.268,0,7.009,1.077,9.191,3.658,2.374,2.8,1.536,6.488,3.276,9.451,1.985,3.387.614,7.741,1.317,11.433.764,4.007,1,7.814,1.428,11.9,0,0,.011.105.023.288C270.8,77.42,270.839,82.918,265.28,83.243Z" transform="translate(-237.098 -39.373)" fill="url(#linear-gradient)"/>
                  </g>
                  <path id="Trazado_149915" data-name="Trazado 149915" d="M260.355,113.773c-.766,4.67-3.211,8.818-4.195,13.39-.867,4.029-1.314,8.541-2.889,12.336-1.348,3.249-.531,7-1.478,10.336-1.068,3.76-3.5,2.018-6.15,1.476-1.249-.255-2.339.337-3.534.079-2.381-.517-3.311-3.387-5.773-3.825-1.871-.328-3.616.788-5.485-.34-3.006-1.81.006-9.226,1.182-12.3,1.652-4.32,1.711-9.593,3.933-13.617,2.408-4.366,1.926-8.45,2.938-13.3s1.341-9.192,2.938-14.024c1.56-4.73-.9-8.824.627-13.741.766-2.454,1.4-3.746,1.159-6.437-.608-6.789,2.988-12.242,10.574-11.468a11.154,11.154,0,0,1,9.991,12.143L262.8,88.741q-.982,10.114-1.97,20.229c-.153,1.552-.209,3.15-.456,4.69C260.367,113.7,260.361,113.736,260.355,113.773Z" transform="translate(-228.463 2.884)" fill="url(#linear-gradient)"/>
                  <path id="Trazado_149916" data-name="Trazado 149916" d="M275.031,109.92q.149.719.292,1.442c1.683,8.368,1.682,17.379,2.415,25.892.2,2.324,2.056,10.433.707,11.586-2.493,2.127-8.364-.512-11.456.105-2.68.537-9.166,2.084-10.916-1.281-2.117-4.068-1.054-10.011-1.041-14.38.008-2.514-.979-4.455-1.312-6.788-.585-4.069.292-8.018-.43-12.132-.285-1.618-.492-3.167-.9-4.781q-1.581-6.257-3.16-12.516Q246.7,87.033,244.163,77a11.118,11.118,0,1,1,21.558-5.446l4.057,16.084C271.656,95.085,273.487,102.451,275.031,109.92Z" transform="translate(-220.654 3.384)" fill="url(#linear-gradient-9)"/>
                  <path id="Trazado_149917" data-name="Trazado 149917" d="M244.331,136.369a.287.287,0,0,1-.08-.011.3.3,0,0,1-.209-.37l8.111-29.365,2.81-31.166a.3.3,0,1,1,.6.054l-2.819,31.219-8.12,29.418A.3.3,0,0,1,244.331,136.369Z" transform="translate(-220.542 9.957)" fill="#fff"/>
                  <path id="Trazado_149918" data-name="Trazado 149918" d="M256.5,37.038a8.087,8.087,0,0,1,3.656-4.879c.716-.464,6.986-2.94,7.179-1.691-.254-1.643,1.133-2.118.9-3.678-.195-1.281-2.267-3.1-3.209-3.814-8.412-6.338-18.835-1.205-22.935,7.572-1.651,3.537-1.818,7.637-1.651,11.471.272,6.1,2.124,14.775,9.8,12.935a16.774,16.774,0,0,1,5.955-.56c4.318.286,2.417-1.535,1.671-4.184-1.1-3.919-2.449-8.648-1.451-12.808C256.437,37.279,256.469,37.159,256.5,37.038Z" transform="translate(-222.536 -20.156)" fill="url(#linear-gradient)"/>
                  <path id="Trazado_149919" data-name="Trazado 149919" d="M260.747,31.356a1.124,1.124,0,0,0-.3-.059,19.726,19.726,0,0,0-2.319.11q-2.145.1-4.289.2s-1.109,4.176-1.113,4.184a3.943,3.943,0,0,0,.871,2.426,3.876,3.876,0,0,0,1.894,1.406,5.161,5.161,0,0,0,1.546.257,4.709,4.709,0,0,0,1.574-.012c.478-.162.658-.625.922-1.018a12.7,12.7,0,0,0,1.255-2.384,17.781,17.781,0,0,0,.84-2.881C261.809,32.769,261.578,31.63,260.747,31.356Z" transform="translate(-215.799 -14.066)" fill="url(#linear-gradient-5)"/>
                  <path id="Trazado_149920" data-name="Trazado 149920" d="M255.279,32.718s-1.919-4.315-4.314-1.962l-.262.611s2.134-2.835,4.184,1.614S255.279,32.718,255.279,32.718Z" transform="translate(-216.89 -14.739)" fill="url(#linear-gradient-5)"/>
                  <path id="Trazado_149921" data-name="Trazado 149921" d="M255.055,33.616s-3.488,0-4.357-3.051l-.22.7s.481,2.4,4.62,2.658S255.055,33.616,255.055,33.616Z" transform="translate(-217.014 -14.46)" fill="url(#linear-gradient-5)"/>
                </g>
                <g id="Grupo_106400" data-name="Grupo 106400" transform="translate(0 32.174)">
                  <path id="Trazado_149922" data-name="Trazado 149922" d="M248.63,41.487c-3.65,2.667-5.607,5.63-8.12,9.5a49.87,49.87,0,0,0-3.3,5.539c-1.232,2.527-3.415,4.086-4.68,6.54-1.28,2.483-1.335,5.372-2.319,7.987a16.88,16.88,0,0,0-1.385,5.751c-.108,2.442-.483,5.007-.054,7.436.7,3.939,2.609,4.159,6.39,3.975,3.3-.161,3.231-.412,3.682-3.7.368-2.677.473-5.289,1.01-7.97.651-3.263,2.267-4.688,4.02-7.671,1.937-3.3,2.858-5.121,6.073-7.116,2.646-1.642,2.663-3.056,3.11-6.014.48-3.181,1.733-12.49-1.855-14.456-1-.548-2.216-.512-2.573.727Z" transform="translate(-228.571 -40.951)" fill="url(#linear-gradient-9)"/>
                  <path id="Trazado_149923" data-name="Trazado 149923" d="M229.132,76.54c-.136-2.172-.811-7.249,2.377-7.9a7.544,7.544,0,0,1,4.332.859c2.615,1.3,2.965,4.654,3.079,7.24a3.707,3.707,0,0,0,.175,1.3c.167.347.727.532.845.811a1.033,1.033,0,0,1-.952,1.389c-.735.082-1.228-.682-1.917-.238-.648.416-.195,1.181-.283,1.823a1.372,1.372,0,0,1-1.408,1.23c-.343.031-.845-.292-1.054-.265-.483.07-.24.4-.637.6s-.41.2-.84,0c-.105-.05-.091-.456-.261-.517s-.367.082-.4.074c-.368-.1-.537.283-1.013-.24a8.744,8.744,0,0,1-1.1-2.774A12.257,12.257,0,0,1,229.132,76.54Z" transform="translate(-228.348 -25.839)" fill="#f7b242"/>
                </g>
                <path id="Trazado_149924" data-name="Trazado 149924" d="M237.649,66.06a.251.251,0,0,1-.152-.45c1.129-.854,1.617-2.4,2.134-4.038a11.6,11.6,0,0,1,1.626-3.667c.3-.385.651-.93,1.026-1.507,1.3-2.015,2.923-4.521,4.868-4.6a.25.25,0,1,1,.02.5c-1.685.073-3.294,2.559-4.467,4.376-.381.586-.738,1.142-1.054,1.544a11.307,11.307,0,0,0-1.543,3.509c-.517,1.64-1.051,3.337-2.307,4.287A.256.256,0,0,1,237.649,66.06Z" transform="translate(-223.741 -2.843)" fill="#fff"/>
              </g>
              <path id="Trazado_149925" data-name="Trazado 149925" d="M266.5,63.619c1.179,1.479,2.406,2.924,3.565,4.427,2.109,2.732,3.511,5.7,5.938,8.2,1.1,1.136,6.41,5.521,2.027,6,1.119,1.767,1.863,4.052-.952,4.643-1.068.226-1.051,1.046-2.539.783-1.181-.207-2.347-1.394-3.248-2.11-2.231-1.778-2.83-3.935-4.456-6.235-1.821-2.576-4.795-4.776-7.571-6.565-3.382-2.179-6.885-5.657-6.458-9.943.245-2.445.634-9.853,2.994-11.25,2.946-1.744,6.372,5.542,7.362,7.272A38.321,38.321,0,0,0,266.5,63.619Z" transform="translate(-215.325 -3.11)" fill="url(#linear-gradient)"/>
              <path id="Trazado_149926" data-name="Trazado 149926" d="M257.367,74.127a2.167,2.167,0,0,1-.531-.07.251.251,0,0,1-.181-.3.254.254,0,0,1,.3-.181,1.344,1.344,0,0,0,1.379-.382c1.453-1.468,1.541-6.246,1.126-7.821a12.517,12.517,0,0,0-.964-2.338,10.359,10.359,0,0,1-1.1-2.941,27.094,27.094,0,0,1-.232-3.978c0-.45-.009-.891-.02-1.312a.248.248,0,0,1,.243-.257h.006a.25.25,0,0,1,.251.243c.012.424.017.866.022,1.321a26.768,26.768,0,0,0,.224,3.9,9.862,9.862,0,0,0,1.052,2.8,12.755,12.755,0,0,1,1,2.432c.433,1.649.407,6.622-1.255,8.3A1.822,1.822,0,0,1,257.367,74.127Z" transform="translate(-213.206 -1.338)" fill="#fff"/>
              <path id="Trazado_149927" data-name="Trazado 149927" d="M229.768,125.43h-.028a.377.377,0,0,1-.348-.4c.5-6.975,5.613-22.785,5.832-23.455a.382.382,0,0,1,.473-.241.376.376,0,0,1,.241.473c-.054.162-5.3,16.393-5.8,23.275A.374.374,0,0,1,229.768,125.43Z" transform="translate(-228.122 24.26)" fill="#fff"/>
            </g>
          </g>
          <g id="Grupo_106413" data-name="Grupo 106413" transform="translate(0 5.509)">
            <g id="Grupo_106409" data-name="Grupo 106409" transform="translate(39.532 2.802)">
              <g id="haed-4" data-name="haed" transform="translate(2.941 2.408)">
                <g id="Grupo_106407" data-name="Grupo 106407">
                  <g id="Grupo_106404" data-name="Grupo 106404">
                    <path id="Trazado_149928" data-name="Trazado 149928" d="M120.354,37.788c-.622-2.486-.693-5.536.9-7.7,2.5-3.415,8.92-4.1,11.923-1.106,1.99,1.98,2.539,4.331,2.463,7.1a5.289,5.289,0,0,0,1.389,4.267c.149.139.325.33.24.517s-.308.183-.492.231c-.585.145-.853.815-.941,1.406a24.536,24.536,0,0,1-.771,4.238,1.323,1.323,0,0,1-.54.764,1.583,1.583,0,0,1-.964.1c-1.1-.124-2.191-.306-3.274-.537a.653.653,0,0,0-.19.119,1.589,1.589,0,0,0-.333.792q-.75,3.312-1.495,6.621a38.933,38.933,0,0,0-7.777-4.769,10.213,10.213,0,0,0,1.552-7.654A19.152,19.152,0,0,1,120.354,37.788Z" transform="translate(-119.943 -27.084)" fill="#ff8f67"/>
                    <path id="Trazado_149929" data-name="Trazado 149929" d="M129.175,41.893a.128.128,0,0,1-.053-.011c-.156-.054-3.831-1.382-4.736-4.385a.16.16,0,1,1,.306-.093c.856,2.849,4.5,4.165,4.535,4.179a.157.157,0,0,1,.1.2A.161.161,0,0,1,129.175,41.893Z" transform="translate(-117.515 -21.497)" fill="#894c4c"/>
                  </g>
                  <g id="Grupo_106406" data-name="Grupo 106406" transform="translate(13.206 9.353)">
                    <g id="Grupo_106405" data-name="Grupo 106405">
                      <path id="Trazado_149930" data-name="Trazado 149930" d="M130.447,34.05a.416.416,0,0,1-.2.009,1.877,1.877,0,0,0-1.094.167.454.454,0,1,1-.439-.794,2.79,2.79,0,0,1,1.7-.265.448.448,0,0,1,.364.525A.443.443,0,0,1,130.447,34.05Z" transform="translate(-128.478 -33.129)" fill="#1d272b"/>
                      <path id="Trazado_149931" data-name="Trazado 149931" d="M129.841,34.592c.012.371-.121.682-.3.689s-.33-.292-.34-.667.122-.685.3-.69S129.829,34.221,129.841,34.592Z" transform="translate(-128.082 -32.694)" fill="#a86060"/>
                    </g>
                  </g>
                </g>
                <path id="Trazado_149932" data-name="Trazado 149932" d="M129.2,37.74a.126.126,0,0,1-.082-.031.128.128,0,0,1-.015-.179,1.388,1.388,0,0,1,1.408-.359.129.129,0,0,1,.093.156.132.132,0,0,1-.156.091,1.137,1.137,0,0,0-1.15.275A.125.125,0,0,1,129.2,37.74Z" transform="translate(-114.947 -21.594)" fill="#894c4c"/>
                <g id="Grupo_106408" data-name="Grupo 106408" transform="translate(6.451 10.731)">
                  <path id="Trazado_149933" data-name="Trazado 149933" d="M125.058,35.077a.142.142,0,0,1-.043-.008l-.788-.226a.159.159,0,1,1,.088-.3l.786.226a.159.159,0,0,1-.043.313Z" transform="translate(-124.113 -33.739)" fill="#894c4c"/>
                  <path id="Trazado_149934" data-name="Trazado 149934" d="M125.052,36.235a.169.169,0,0,1-.159-.162c.009-.408-.07-1.518-.545-1.75a.159.159,0,0,1,.139-.286c.743.362.727,1.872.723,2.044A.157.157,0,0,1,125.052,36.235Z" transform="translate(-124.033 -34.019)" fill="#894c4c"/>
                </g>
              </g>
              <path id="Trazado_149935" data-name="Trazado 149935" d="M136.448,29.463a9.226,9.226,0,0,0-4.283-3.342c-3.774-1.433-7.962-.142-10.945,2.508a9.987,9.987,0,0,0-2.78,10.023c.736,2.318,2.355,4.1,2.428,6.587a10.985,10.985,0,0,0,.036,1.126,4.582,4.582,0,0,0,.888-2.584c.357.961.1,2.541.17,3.687a5.408,5.408,0,0,0,2.463-1.21,10.674,10.674,0,0,0,1.529-2.188,8.553,8.553,0,0,0,1.072-4c.056-.653,1.032-2.663,1.687-1.406.336.644-.316,2.5,1.086,2.276a2.779,2.779,0,0,1,.325-2.616c.331-.52,1.592-1.772,1.518-2.4.031.277.054,2.106-.339,2.177,2.613-.486,6.293-3.712,5.9-6.666A4.791,4.791,0,0,0,136.448,29.463Z" transform="translate(-118.043 -25.528)" fill="#1d272b"/>
            </g>
            <path id="Trazado_149936" data-name="Trazado 149936" d="M105.614,120.157c-2.473-1.334-4.995-4.048-8.074-3.413-2.282.472-5.231,2.773-5.038,5.289.156,2.035,2.915,3.45,4.427,4.608,3.675,2.81,6.6,5.364,11.009,6.647,4.289,1.247,11.332,1.236,6.7-4.476-1.458-1.8-3.181-3.3-4.506-5.233-.764-1.129-.374-1.227-1.516-2.095A22.743,22.743,0,0,0,105.614,120.157Z" transform="translate(-92.493 27.141)" fill="#f7b242"/>
            <g id="Grupo_106410" data-name="Grupo 106410" transform="translate(26.718 29.735)">
              <path id="Trazado_149937" data-name="Trazado 149937" d="M137.944,86.8H119.385c-1.974-.082-3.693-.2-3.693-.2-7.69-.5-6.288-9.584-4.623-14.92,1.06-3.395-.22-5.689.2-8.9.418-3.172,1.615-4.7,1.309-8.047-.463-5.055,4.558-11.8,10.162-11.8h5.4c3.268,0,7.008,1.074,9.192,3.655,2.372,2.805,1.535,6.489,3.274,9.454,1.985,3.384.613,7.739,1.317,11.428.764,4.01,1,7.815,1.428,11.9,0,0,.011.107.023.286C143.462,80.981,143.5,86.478,137.944,86.8Z" transform="translate(-109.761 -42.935)" fill="url(#linear-gradient)"/>
            </g>
            <g id="Grupo_106411" data-name="Grupo 106411" transform="translate(37.582 67.522)">
              <path id="Trazado_149938" data-name="Trazado 149938" d="M143.1,120.784c-2.757.552-6.43.071-8.4,2.525-1.458,1.821-2.259,5.47-.5,7.286,1.417,1.465,4.445.8,6.347.724,4.622-.181,8.5-.082,12.717-1.908,4.1-1.776,9.516-6.277,2.3-7.721-2.268-.452-4.552-.506-6.808-1.157-1.307-.376-1.068-.7-2.5-.641A22.893,22.893,0,0,0,143.1,120.784Z" transform="translate(-107.798 -38.61)" fill="#f7b242"/>
              <path id="Trazado_149939" data-name="Trazado 149939" d="M152.852,110.512c1.55,4.469,1.38,9.281,2.7,13.769,1.159,3.955,2.917,8.132,3.344,12.22.362,3.5,2.87,6.406,3.625,9.791.856,3.812-2.115,3.443-4.7,4.229-1.219.371-1.894,1.413-3.07,1.756-2.338.679-4.524-1.4-6.9-.611-1.8.6-2.805,2.415-4.984,2.318-3.506-.161-4.394-8.114-4.826-11.377-.608-4.589-3.07-9.25-3.036-13.846.039-4.987-2.335-8.347-3.758-13.1s-3.2-8.72-4.1-13.729c-.882-4.9-5-7.329-6-12.378-.5-2.522-.56-3.959-2.052-6.211-3.771-5.68-3.207-12.186,3.828-15.124a11.155,11.155,0,0,1,14.571,5.912q2.787,6.605,5.578,13.2,3.959,9.362,7.911,18.723c.608,1.436,1.32,2.867,1.835,4.34C152.825,110.439,152.838,110.473,152.852,110.512Z" transform="translate(-116.782 -67.357)" fill="url(#linear-gradient)"/>
            </g>
            <path id="Trazado_149940" data-name="Trazado 149940" d="M128.748,119.092c-.15.467-.3.931-.456,1.4-2.66,8.108-7.105,15.949-10.661,23.718-.972,2.12-3.353,10.093-5.1,10.429-3.217.624-7.026-4.569-10.02-5.553-2.595-.857-9.005-2.706-8.867-6.5.164-4.583,4.018-9.232,6.184-13.026,1.244-2.186,1.341-4.36,2.2-6.553,1.5-3.829,4.207-6.834,5.6-10.767.552-1.549,1.136-3,1.577-4.6q1.71-6.227,3.419-12.449,2.739-9.98,5.48-19.953a11.117,11.117,0,1,1,21.44,5.887q-2.2,8-4.4,15.994C133.126,104.523,131.086,111.833,128.748,119.092Z" transform="translate(-91.862 0.005)" fill="url(#linear-gradient)"/>
            <path id="Trazado_149941" data-name="Trazado 149941" d="M129.164,40.6a8.094,8.094,0,0,1,3.658-4.882c.716-.463,6.984-2.937,7.176-1.69-.252-1.643,1.134-2.121.9-3.679-.195-1.278-2.264-3.1-3.207-3.811-8.411-6.338-18.833-1.207-22.934,7.572-1.651,3.535-1.82,7.637-1.651,11.471.269,6.1,2.123,14.775,9.8,12.935a16.662,16.662,0,0,1,5.955-.56c4.317.288,2.415-1.536,1.668-4.185-1.1-3.919-2.448-8.649-1.45-12.807C129.1,40.841,129.132,40.72,129.164,40.6Z" transform="translate(-81.243 -23.717)" fill="url(#linear-gradient)"/>
            <path id="Trazado_149942" data-name="Trazado 149942" d="M133.41,34.916a1.124,1.124,0,0,0-.3-.057,20.039,20.039,0,0,0-2.318.108l-4.292.2s-1.108,4.178-1.109,4.185a3.935,3.935,0,0,0,.871,2.428,3.866,3.866,0,0,0,1.894,1.4,5.1,5.1,0,0,0,1.546.258,4.7,4.7,0,0,0,1.572-.012c.478-.162.658-.625.924-1.017a12.664,12.664,0,0,0,1.253-2.386,17.936,17.936,0,0,0,.84-2.881C134.474,36.33,134.241,35.191,133.41,34.916Z" transform="translate(-74.506 -17.627)" fill="url(#linear-gradient-5)"/>
            <path id="Trazado_149943" data-name="Trazado 149943" d="M127.944,36.278s-1.92-4.315-4.315-1.96l-.263.611s2.137-2.833,4.185,1.609S127.944,36.278,127.944,36.278Z" transform="translate(-75.598 -18.3)" fill="url(#linear-gradient-5)"/>
            <path id="Trazado_149944" data-name="Trazado 149944" d="M127.716,37.177s-3.486,0-4.357-3.051l-.218.7s.481,2.4,4.62,2.658S127.716,37.177,127.716,37.177Z" transform="translate(-75.721 -18.021)" fill="url(#linear-gradient-5)"/>
            <g id="Grupo_106412" data-name="Grupo 106412" transform="translate(6.161 28.949)">
              <path id="Trazado_149945" data-name="Trazado 149945" d="M126.46,42.676c-4.165,1.756-6.754,4.187-10.093,7.377a50.43,50.43,0,0,0-4.487,4.626c-1.781,2.175-4.266,3.19-6.062,5.285-1.816,2.121-2.539,4.92-4.1,7.237a16.929,16.929,0,0,0-2.672,5.276c-.668,2.352-1.626,4.761-1.769,7.224-.229,4,1.578,4.648,5.3,5.34,3.249.607,3.238.348,4.438-2.753.976-2.52,1.68-5.036,2.821-7.524,1.388-3.023,3.285-4.037,5.682-6.536,2.646-2.763,3.961-4.323,7.549-5.522,2.954-.989,3.3-2.361,4.416-5.135,1.2-2.982,4.568-11.751,1.529-14.493-.848-.763-2.041-1.009-2.674.111Z" transform="translate(-96.047 -42.427)" fill="url(#linear-gradient)"/>
              <path id="Trazado_149946" data-name="Trazado 149946" d="M96.561,73.787c.37-2.145.885-7.24,4.136-7.138a7.512,7.512,0,0,1,4.017,1.833c2.245,1.863,1.812,5.216,1.329,7.753a3.669,3.669,0,0,0-.13,1.307c.08.373.583.684.633.984a1.029,1.029,0,0,1-1.247,1.13c-.73-.088-1.037-.947-1.807-.675-.727.258-.463,1.106-.7,1.708a1.375,1.375,0,0,1-1.654.876c-.34-.053-.755-.481-.962-.5-.486-.045-.326.328-.763.436s-.441.1-.815-.193c-.09-.07.015-.464-.136-.565s-.376,0-.4-.017c-.337-.179-.59.15-.935-.469A8.814,8.814,0,0,1,96.69,77.3,12.416,12.416,0,0,1,96.561,73.787Z" transform="translate(-96.475 -29.172)" fill="#f7b242"/>
            </g>
            <path id="Trazado_149947" data-name="Trazado 149947" d="M111.117,60.274l-.22-.121-.192-.164a11.639,11.639,0,0,1,2.638-3.036c.4-.28.9-.7,1.423-1.14,1.837-1.543,4.12-3.464,6.006-2.966a.249.249,0,0,1,.179.3.246.246,0,0,1-.306.178c-1.635-.429-3.9,1.476-5.558,2.867-.535.449-1.04.873-1.459,1.167A11.332,11.332,0,0,0,111.117,60.274Z" transform="translate(-82.526 -7.819)" fill="#fff"/>
            <path id="Trazado_149948" data-name="Trazado 149948" d="M139.167,67.178c1.179,1.482,2.406,2.924,3.566,4.427,2.106,2.736,3.509,5.7,5.937,8.2,1.1,1.136,6.41,5.521,2.028,6,1.119,1.765,1.861,4.052-.953,4.645-1.068.223-1.051,1.044-2.539.783-1.181-.21-2.346-1.4-3.248-2.114-2.233-1.776-2.828-3.936-4.456-6.234-1.823-2.575-4.795-4.779-7.571-6.565-3.384-2.177-6.885-5.655-6.458-9.946.246-2.442.636-9.848,2.994-11.247,2.946-1.744,6.372,5.542,7.362,7.271A38.388,38.388,0,0,0,139.167,67.178Z" transform="translate(-74.464 -6.671)" fill="url(#linear-gradient-9)"/>
            <path id="Trazado_149949" data-name="Trazado 149949" d="M130.03,77.687a2.145,2.145,0,0,1-.529-.07.25.25,0,1,1,.122-.486A1.342,1.342,0,0,0,131,76.749c1.453-1.468,1.541-6.245,1.126-7.82a12.374,12.374,0,0,0-.964-2.338,10.373,10.373,0,0,1-1.1-2.941,26.881,26.881,0,0,1-.234-3.961c0-.456-.008-.9-.02-1.328a.248.248,0,0,1,.241-.257h.008a.249.249,0,0,1,.251.241c.012.429.017.879.022,1.338a26.331,26.331,0,0,0,.226,3.885,9.836,9.836,0,0,0,1.052,2.8,12.907,12.907,0,0,1,1,2.434c.435,1.648.407,6.619-1.255,8.3A1.824,1.824,0,0,1,130.03,77.687Z" transform="translate(-72.344 -4.898)" fill="#fff"/>
            <path id="Trazado_149950" data-name="Trazado 149950" d="M106.643,147a.3.3,0,0,1-.265-.444,28.518,28.518,0,0,0,1.939-4.947,38.184,38.184,0,0,1,1.414-3.9c.627-1.4,1.358-2.776,2.066-4.1.726-1.362,1.476-2.768,2.106-4.2.723-1.637,1.433-3.167,2.121-4.645a92.667,92.667,0,0,0,6.413-16.961c.7-2.644,1.521-5.3,2.315-7.868.4-1.3.8-2.592,1.188-3.891l4.693-15.754a.3.3,0,0,1,.374-.2.3.3,0,0,1,.2.374L126.516,96.21q-.583,1.952-1.19,3.9c-.791,2.562-1.608,5.211-2.307,7.843a93.213,93.213,0,0,1-6.451,17.062c-.687,1.475-1.4,3-2.117,4.634-.639,1.45-1.394,2.867-2.124,4.236-.7,1.318-1.43,2.683-2.047,4.065a37.637,37.637,0,0,0-1.391,3.842,28.953,28.953,0,0,1-1.982,5.049A.3.3,0,0,1,106.643,147Z" transform="translate(-84.915 7.121)" fill="#fff"/>
          </g>
        </g>
      </g>
      <path id="Trazado_151844" data-name="Trazado 151844" d="M.159,7.976C.017,5.8-.684.727,2.63.074a8.108,8.108,0,0,1,4.5.859c2.719,1.3,3.082,4.654,3.2,7.24a3.575,3.575,0,0,0,.182,1.3c.174.347.756.532.878.811a1.038,1.038,0,0,1-.989,1.389c-.764.082-1.277-.682-1.993-.238-.674.416-.2,1.181-.294,1.823a1.409,1.409,0,0,1-1.464,1.23c-.357.031-.878-.292-1.1-.265-.5.07-.249.4-.663.6s-.426.2-.874,0c-.109-.05-.095-.456-.272-.517s-.381.082-.417.074c-.383-.1-.558.283-1.054-.24a8.553,8.553,0,0,1-1.149-2.774A11.894,11.894,0,0,1,.159,7.976Z" transform="matrix(0.875, -0.485, 0.485, 0.875, 262.01, 75.261)" fill="#f7b242"/>
      <path id="Trazado_151845" data-name="Trazado 151845" d="M.159,7.976C.017,5.8-.684.727,2.63.074a8.108,8.108,0,0,1,4.5.859c2.719,1.3,3.082,4.654,3.2,7.24a3.575,3.575,0,0,0,.182,1.3c.174.347.756.532.878.811a1.038,1.038,0,0,1-.989,1.389c-.764.082-1.277-.682-1.993-.238-.674.416-.2,1.181-.294,1.823a1.409,1.409,0,0,1-1.464,1.23c-.357.031-.878-.292-1.1-.265-.5.07-.249.4-.663.6s-.426.2-.874,0c-.109-.05-.095-.456-.272-.517s-.381.082-.417.074c-.383-.1-.558.283-1.054-.24a8.553,8.553,0,0,1-1.149-2.774A11.894,11.894,0,0,1,.159,7.976Z" transform="matrix(0.875, -0.485, 0.485, 0.875, 63.966, 79.09)" fill="#f7b242"/>
    </g>
  </g>
</svg>
