<svg xmlns="http://www.w3.org/2000/svg" width="130.249" height="130.184" viewBox="0 0 130.249 130.184">
  <g id="img9" transform="translate(-3624.594 -700.033)">
    <g id="Grupo_127476" data-name="Grupo 127476" transform="translate(3624.594 700.033)">
      <path id="Trazado_163321" data-name="Trazado 163321" d="M3626.4,830.218a3.411,3.411,0,0,1-1.808-3.459c.087-3.6.02-7.205.031-10.808.006-2.091.939-3.01,3.036-3.027,1.138-.009,2.276,0,3.573,0,0-2.61,0-5.136,0-7.663,0-4.2.352-4.546,4.563-4.545h2.559v-1.43q0-9.855,0-19.71a2.579,2.579,0,0,1,2.116-2.88c1.627-.3,2.954.914,2.96,2.787.018,5.256.007,10.512.007,15.768,0,1.772,0,3.544,0,5.389H3693.3c-.228-3.57-.453-7.11-.692-10.861h-36.163a8.823,8.823,0,0,1-1.016-.021,2.531,2.531,0,0,1,0-5.043,11.66,11.66,0,0,1,1.271-.022l34.715-.007h1.373v-7.33c0-2.5-.008-5,0-7.5a2.642,2.642,0,0,1,2.189-2.975c4.153-1.3,8.307-2.6,12.559-3.929v-1.406q0-11.953,0-23.906a32.048,32.048,0,0,0-27.347-32.208c-16.767-2.75-33.538,9.317-36.221,26.114a42.347,42.347,0,0,0-.5,6.195c-.066,5.891-.023,11.783-.024,17.675,0,.339.017.68-.014,1.017a2.488,2.488,0,0,1-2.51,2.366,2.371,2.371,0,0,1-2.524-2.328c.142-8.425-.7-16.889.486-25.271,2.183-15.4,15.033-28.257,30.4-30.677a37.063,37.063,0,0,1,42.7,29.9,40.383,40.383,0,0,1,.621,7.2c.078,7.375.028,14.75.028,22.125v1.577c.519-.144.942-.248,1.358-.377,2.909-.906,5.8-1.858,8.732-2.7a4.1,4.1,0,0,1,2.211,0q13.828,4.25,27.613,8.638c.87.279,1.542,1.173,2.306,1.781v27.468c-.079.363-.185.721-.232,1.088-1.738,13.4-8.587,23.321-20.543,29.551-2.958,1.541-6.316,2.315-9.491,3.442Zm71.468-58.911c0,7.345-.018,14.586,0,21.827a32.447,32.447,0,0,0,24.489,31.559,6.114,6.114,0,0,0,2.951-.008,32.46,32.46,0,0,0,24.436-31.48c.024-4.575,0-9.15,0-13.725v-8.065a1.622,1.622,0,0,0-.286-.191q-12.528-3.931-25.063-7.84a2.21,2.21,0,0,0-1.236.026C3714.77,766.017,3706.376,768.647,3697.872,771.307Zm-68.109,53.713h80.065c-2.236-1.984-4.585-3.984-6.822-6.1a2.886,2.886,0,0,0-2.191-.925q-34.823.035-69.646.018h-1.406Zm68.423-12.14c-.968-2.048-1.952-3.92-2.734-5.873a1.627,1.627,0,0,0-1.82-1.225q-27.951.048-55.9.018h-1.3v7.079Z" transform="translate(-3624.594 -700.033)" fill="#1d272b"/>
      <path id="Trazado_163322" data-name="Trazado 163322" d="M3771.682,818.01c0,.586,0,1.041,0,1.5q0,8.708.006,17.416c0,2.492-.888,3.407-3.334,3.413q-4.894.012-9.789-.011c-2.269-.013-3.156-.912-3.158-3.172-.006-6.311,0-12.622,0-19.141h-1.387c-2.881,0-5.763.017-8.645,0a2.586,2.586,0,0,1-2.911-2.894q-.026-5.275,0-10.551a2.555,2.555,0,0,1,2.844-2.828c3.3-.02,6.6-.006,10.1-.006v-1.406c0-3.009-.012-6.017.005-9.026.011-1.9.91-2.837,2.786-2.85q5.339-.036,10.678,0a2.539,2.539,0,0,1,2.808,2.857c.023,3.424.006,6.848.006,10.423h4.37c1.822,0,3.645-.025,5.466.01a2.489,2.489,0,0,1,2.631,2.642q.045,5.466,0,10.933a2.514,2.514,0,0,1-2.729,2.684c-2.8.029-5.594.009-8.39.009Zm-24.108-5.087c3.291,0,6.461,0,9.632,0,2.424,0,3.282.864,3.284,3.306q.007,8.774,0,17.548v1.39h6.1v-1.43q0-8.9,0-17.8c0-2.1.919-2.993,3.037-3.011,1.06-.009,2.119-.007,3.179-.008h6.162v-6.1c-3.111,0-6.118,0-9.126,0-2.421,0-3.25-.848-3.256-3.307q-.007-3.115-.008-6.231c0-1.214,0-2.429,0-3.685h-6.035c-.022.471-.058.884-.058,1.3,0,2.967.016,5.934,0,8.9-.011,2.058-.99,3.021-3.059,3.029-2.882.01-5.765,0-8.647,0h-1.213Z" transform="translate(-3712.416 -765.906)" fill="#1d272b"/>
      <path id="Trazado_163323" data-name="Trazado 163323" d="M3681.1,960.78a2.5,2.5,0,0,1-2.46-2.521,2.538,2.538,0,1,1,5.076.016A2.527,2.527,0,0,1,3681.1,960.78Z" transform="translate(-3664.865 -890.567)" fill="#1d272b"/>
      <path id="Trazado_163324" data-name="Trazado 163324" d="M3932.091,986.9q0-4.257,0-8.513c0-1.8.539-2.581,2.2-3.1,5.852-1.828,11.7-3.66,17.571-5.429a4.044,4.044,0,0,1,2.209.01c5.829,1.76,11.639,3.58,17.449,5.4,1.757.551,2.287,1.312,2.288,3.172,0,5.379.036,10.759-.018,16.137a27.41,27.41,0,0,1-19.274,25.766,5.728,5.728,0,0,1-3.181-.028,27.378,27.378,0,0,1-19.241-26.172c-.01-2.414,0-4.829,0-7.243Zm36.854,1.274-.226-.015c0-2.415-.048-4.831.024-7.244a1.354,1.354,0,0,0-1.166-1.583c-4.615-1.391-9.206-2.861-13.819-4.261a2.893,2.893,0,0,0-1.594,0c-4.69,1.433-9.361,2.929-14.051,4.362-.673.206-.956.456-.949,1.2.045,4.872-.058,9.746.073,14.615A22.245,22.245,0,0,0,3952.1,1015.2a2.731,2.731,0,0,0,1.688.02c7.716-2.907,12.671-8.378,14.348-16.438C3968.85,995.34,3968.7,991.718,3968.945,988.179Z" transform="translate(-3853.73 -900.989)" fill="#1d272b"/>
      <path id="Trazado_163325" data-name="Trazado 163325" d="M3980.394,1046.253c2.757-2.759,5.355-5.361,7.955-7.961a11.066,11.066,0,0,1,.918-.874,2.547,2.547,0,0,1,3.358.134,2.456,2.456,0,0,1,.246,3.341,12.287,12.287,0,0,1-1.132,1.2q-4.575,4.582-9.159,9.155c-1.473,1.463-2.795,1.448-4.28-.023q-2.616-2.591-5.207-5.207c-1.3-1.318-1.39-2.812-.263-3.9,1.087-1.054,2.557-.96,3.819.295C3977.879,1043.627,3979.068,1044.887,3980.394,1046.253Z" transform="translate(-3883.505 -951.02)" fill="#1d272b"/>
    </g>
  </g>
</svg>
