<svg id="icon3" xmlns="http://www.w3.org/2000/svg" xmlns:xlink="http://www.w3.org/1999/xlink" width="114.636" height="114.636" viewBox="0 0 114.636 114.636">
  <defs>
    <radialGradient id="radial-gradient" cx="0.076" cy="0.019" r="1.465" gradientTransform="translate(0.001)" gradientUnits="objectBoundingBox">
      <stop offset="0" stop-color="#f6f6f7"/>
      <stop offset="0.477" stop-color="#f9f9fa"/>
      <stop offset="0.715" stop-color="#fff"/>
    </radialGradient>
  </defs>
  <g id="Grupo_18423" data-name="Grupo 18423" transform="translate(0 0)">
    <g id="Grupo_18421" data-name="Grupo 18421">
      <g id="Grupo_18420" data-name="Grupo 18420">
        <g id="Grupo_18419" data-name="Grupo 18419">
          <path id="Trazado_40936" data-name="Trazado 40936" d="M309.259,2203.037a57.318,57.318,0,1,1-57.317-57.316A57.317,57.317,0,0,1,309.259,2203.037Z" transform="translate(-194.623 -2145.721)" fill="#fff"/>
        </g>
      </g>
    </g>
    <path id="Trazado_40937" data-name="Trazado 40937" d="M308.648,2202.372a57.316,57.316,0,1,0-57.317,57.319A57.091,57.091,0,0,0,308.648,2202.372Z" transform="translate(-194.013 -2145.056)" fill="url(#radial-gradient)"/>
    <path id="Trazado_40938" data-name="Trazado 40938" d="M289.672,2196.986a43.75,43.75,0,1,0-43.75,43.75A43.587,43.587,0,0,0,289.672,2196.986Z" transform="translate(-188.43 -2139.479)" fill="none" stroke="#1d272b" stroke-miterlimit="10" stroke-width="4"/>
    <g id="Grupo_18422" data-name="Grupo 18422" transform="translate(10.154 32.18)">
      <path id="Trazado_40939" data-name="Trazado 40939" d="M299.231,2164.488a57.325,57.325,0,0,1-98.686,57.081,57.143,57.143,0,0,0,98.686-57.081Z" transform="translate(-200.545 -2164.488)" fill="#eceef0"/>
    </g>
  </g>
  <g id="D5OvO7" transform="translate(-1829.318 1078.849)">
    <g id="Grupo_127732" data-name="Grupo 127732" transform="translate(1858.722 -1047.712)">
      <path id="Trazado_163929" data-name="Trazado 163929" d="M1871.408-1039.616c-.361,0-.707.006-1.052,0a1.139,1.139,0,0,1-1.215-1.224,28.627,28.627,0,0,1,.082-3.016,4.178,4.178,0,0,1,1.681-2.838,4.884,4.884,0,0,1,3.317-1c1.217.032,2.435-.007,3.653-.009,1.723,0,3.446-.01,5.169,0a4.61,4.61,0,0,1,4.584,4.579c.008.761.005,1.523,0,2.284a1.144,1.144,0,0,1-1.215,1.224c-.345.007-.691,0-1.089,0v5.889c0,1.107.008,2.214-.006,3.321a.455.455,0,0,0,.338.512,19.476,19.476,0,0,1,9.828,8.425,2.328,2.328,0,0,1,.314.9,1,1,0,0,1-.7,1.1,1.271,1.271,0,0,1-1.421-.492c-.24-.389-.457-.793-.708-1.175a17.211,17.211,0,0,0-8.793-6.839,1.506,1.506,0,0,0-.493-.073c-.974-.007-1.948,0-2.922-.006a1.157,1.157,0,0,1-1.213-1.02,1.147,1.147,0,0,1,1.174-1.293c.727-.012,1.455-.009,2.182-.013a.57.57,0,0,0,.08-.023v-9.193h-9.2v9.2c.1.007.193.019.289.02.661,0,1.321-.006,1.982,0a1.145,1.145,0,0,1,1.165,1.141,1.125,1.125,0,0,1-1.135,1.166c-1,.021-1.993,0-2.989.012a1.57,1.57,0,0,0-.525.08,16.83,16.83,0,0,0-10.761,11.012,15.9,15.9,0,0,0-.412,8.49,17.135,17.135,0,0,0,11.93,13.165,15.5,15.5,0,0,0,4.688.767,17.366,17.366,0,0,0,17.313-13.738,30.436,30.436,0,0,0,.391-3.4,1.164,1.164,0,0,1,1.462-1.106,1.158,1.158,0,0,1,.849,1.186,17.747,17.747,0,0,1-.811,5.325,19.457,19.457,0,0,1-13.844,13.4,16.772,16.772,0,0,1-3.738.586,21.584,21.584,0,0,1-4.772-.265,17.578,17.578,0,0,1-4.529-1.412,19.255,19.255,0,0,1-10.477-11.388,19.251,19.251,0,0,1,9.86-23.953c.493-.239,1.007-.433,1.5-.667a.4.4,0,0,0,.21-.273q.015-4.618.005-9.236A.976.976,0,0,0,1871.408-1039.616Zm.01-2.335h13.906c0-.305,0-.593,0-.881a2.341,2.341,0,0,0-2.56-2.565c-2.944,0-5.887,0-8.831-.016a2.314,2.314,0,0,0-2.413,1.811A13.407,13.407,0,0,0,1871.418-1041.951Z" transform="translate(-1858.722 1047.712)"/>
      <path id="Trazado_163930" data-name="Trazado 163930" d="M2487.4-1040.375c.208.2.4.378.594.562a16.763,16.763,0,0,1,2.867,3.535,8.763,8.763,0,0,1-.135,9.781,17.721,17.721,0,0,1-3.047,3.6c-.088.081-.188.151-.3.243.5.376.949.7,1.38,1.052a10.819,10.819,0,0,1,3.017,3.555,7.427,7.427,0,0,1,.479,1.285,1.117,1.117,0,0,1-.691,1.362,1.118,1.118,0,0,1-1.428-.539.373.373,0,0,0-.385-.234q-4.382.008-8.765,0a.367.367,0,0,0-.386.229,1.123,1.123,0,0,1-1.4.558,1.123,1.123,0,0,1-.738-1.341,5.868,5.868,0,0,1,1.194-2.446,20.927,20.927,0,0,1,1.674-1.865c.6-.575,1.292-1.063,1.941-1.586-.444-.458-.908-.921-1.355-1.4a14.219,14.219,0,0,1-2.762-4.1,8.4,8.4,0,0,1,.364-7.537,16.471,16.471,0,0,1,3.5-4.428c.1-.09.2-.175.322-.285-.278-.2-.521-.376-.76-.554a12,12,0,0,1-3.314-3.475,8.681,8.681,0,0,1-.756-1.742,1.4,1.4,0,0,1,.075-.936,1.1,1.1,0,0,1,1.9-.093.66.66,0,0,0,.69.344c1.712-.021,3.425-.01,5.138-.01,1.131,0,2.261,0,3.392,0a.394.394,0,0,0,.423-.232,1.119,1.119,0,0,1,1.426-.543,1.142,1.142,0,0,1,.7,1.364,7.456,7.456,0,0,1-1.544,2.912,14.948,14.948,0,0,1-3.083,2.777C2487.562-1040.5,2487.495-1040.448,2487.4-1040.375Zm-2.055,10.567c1.365,0,2.731-.005,4.1.005a.311.311,0,0,0,.363-.281,6.023,6.023,0,0,0,.01-2.888c-.047-.207-.163-.26-.357-.258-.581.008-1.161,0-1.742,0-.949.008-1.9.026-2.848.03q-1.809.008-3.617,0a.279.279,0,0,0-.321.251,5.758,5.758,0,0,0-.02,2.824.344.344,0,0,0,.405.32C2482.659-1029.815,2484-1029.808,2485.346-1029.808Zm.021-9.244a16.263,16.263,0,0,0-3.248,3.534h6.49A16.456,16.456,0,0,0,2485.366-1039.052Zm-3.245,11.579a16.353,16.353,0,0,0,3.221,3.5,13.108,13.108,0,0,0,3.182-3.5Zm-.061,8.971h6.569a.628.628,0,0,0-.062-.118,14.01,14.01,0,0,0-3.056-2.444.381.381,0,0,0-.323.017c-.3.173-.59.365-.872.566A12.751,12.751,0,0,0,2482.061-1018.5Zm-.013-26.007a13.942,13.942,0,0,0,3.2,2.59.356.356,0,0,0,.294-.041,14.07,14.07,0,0,0,2.908-2.3c.063-.066.113-.145.191-.247Z" transform="translate(-2436.8 1047.69)"/>
      <path id="Trazado_163931" data-name="Trazado 163931" d="M1935.593-701.024c1.108,0,2.216-.006,3.324.005a.426.426,0,0,0,.452-.288,3.317,3.317,0,0,1,3.179-2.022,3.3,3.3,0,0,1,3.122,2.056.4.4,0,0,0,.44.251c2.149,0,4.3.008,6.447-.01a1.608,1.608,0,0,1,1.338.612,14.993,14.993,0,0,1,2.1,16.436,14.994,14.994,0,0,1-15.407,8.257,14.567,14.567,0,0,1-10.933-7.151,14.894,14.894,0,0,1,1.566-17.644,1.369,1.369,0,0,1,1.115-.507c1.086.013,2.171,0,3.257,0Zm.4,2.31c-.961,0-1.923.013-2.884-.008a.708.708,0,0,0-.641.317,12.624,12.624,0,0,0,.137,15.729A12.094,12.094,0,0,0,1943.821-678a12.142,12.142,0,0,0,10.768-8.729,12.2,12.2,0,0,0-2.081-11.733.588.588,0,0,0-.536-.254q-2.905.012-5.81,0a.482.482,0,0,0-.526.327,3.439,3.439,0,0,1-4.5,1.694,3.649,3.649,0,0,1-1.813-1.8c-.046-.09-.161-.207-.246-.208C1938.05-698.719,1937.023-698.713,1936-698.714Zm7.677-1.116a1.159,1.159,0,0,0-1.181-1.19,1.188,1.188,0,0,0-1.147,1.268,1.243,1.243,0,0,0,1.272,1.051A1.135,1.135,0,0,0,1943.672-699.83Z" transform="translate(-1922.851 726.464)"/>
      <path id="Trazado_163932" data-name="Trazado 163932" d="M2404.094-595.252a1.164,1.164,0,0,1-1.169,1.142,1.163,1.163,0,0,1-1.138-1.173,1.146,1.146,0,0,1,1.165-1.139A1.167,1.167,0,0,1,2404.094-595.252Z" transform="translate(-2365.305 626.738)"/>
      <path id="Trazado_163933" data-name="Trazado 163933" d="M2151.469-578.358a4.617,4.617,0,0,1,4.61-4.614,4.612,4.612,0,0,1,4.63,4.627,4.546,4.546,0,0,1-4.443,4.6A4.558,4.558,0,0,1,2151.469-578.358Zm4.645-2.3a2.318,2.318,0,0,0-2.335,2.279,2.316,2.316,0,0,0,2.269,2.345,2.323,2.323,0,0,0,2.355-2.3A2.323,2.323,0,0,0,2156.115-580.663Z" transform="translate(-2131.803 614.192)"/>
      <path id="Trazado_163934" data-name="Trazado 163934" d="M2013.789-596.832a3.476,3.476,0,0,1,3.423-3.465,3.473,3.473,0,0,1,3.507,3.48,3.473,3.473,0,0,1-3.49,3.464A3.472,3.472,0,0,1,2013.789-596.832Zm3.482,1.157a1.154,1.154,0,0,0,1.14-1.166,1.158,1.158,0,0,0-1.173-1.135,1.161,1.161,0,0,0-1.141,1.169A1.153,1.153,0,0,0,2017.271-595.675Z" transform="translate(-2003.372 630.353)"/>
    </g>
  </g>
</svg>
