<svg id="icon1" xmlns="http://www.w3.org/2000/svg" xmlns:xlink="http://www.w3.org/1999/xlink" width="114.636" height="114.636" viewBox="0 0 114.636 114.636">
  <defs>
    <radialGradient id="radial-gradient" cx="0.076" cy="0.019" r="1.465" gradientTransform="translate(0.001)" gradientUnits="objectBoundingBox">
      <stop offset="0" stop-color="#f6f6f7"/>
      <stop offset="0.477" stop-color="#f9f9fa"/>
      <stop offset="0.715" stop-color="#fff"/>
    </radialGradient>
  </defs>
  <g id="Grupo_18423" data-name="Grupo 18423" transform="translate(0 0)">
    <g id="Grupo_18421" data-name="Grupo 18421">
      <g id="Grupo_18420" data-name="Grupo 18420">
        <g id="Grupo_18419" data-name="Grupo 18419">
          <path id="Trazado_40936" data-name="Trazado 40936" d="M309.259,2203.037a57.318,57.318,0,1,1-57.317-57.316A57.317,57.317,0,0,1,309.259,2203.037Z" transform="translate(-194.623 -2145.721)" fill="#fff"/>
        </g>
      </g>
    </g>
    <path id="Trazado_40937" data-name="Trazado 40937" d="M308.648,2202.372a57.316,57.316,0,1,0-57.317,57.319A57.091,57.091,0,0,0,308.648,2202.372Z" transform="translate(-194.013 -2145.056)" fill="url(#radial-gradient)"/>
    <path id="Trazado_40938" data-name="Trazado 40938" d="M289.672,2196.986a43.75,43.75,0,1,0-43.75,43.75A43.587,43.587,0,0,0,289.672,2196.986Z" transform="translate(-188.43 -2139.479)" fill="none" stroke="#1d272b" stroke-miterlimit="10" stroke-width="4"/>
    <g id="Grupo_18422" data-name="Grupo 18422" transform="translate(10.154 32.18)">
      <path id="Trazado_40939" data-name="Trazado 40939" d="M299.231,2164.488a57.325,57.325,0,0,1-98.686,57.081,57.143,57.143,0,0,0,98.686-57.081Z" transform="translate(-200.545 -2164.488)" fill="#eceef0"/>
    </g>
  </g>
  <g id="ZTgz18.tif" transform="translate(-2486.348 -71.884)">
    <g id="Grupo_121012" data-name="Grupo 121012" transform="translate(2516.444 114.581)">
      <path id="Trazado_158634" data-name="Trazado 158634" d="M2516.444,418.629a2.463,2.463,0,0,0,1.528,1.526h-1.528Z" transform="translate(-2516.444 -379.843)" fill="#1d272b"/>
      <g id="jKIucX.tif" transform="translate(-57.995 11.243)">
        <g id="Grupo_127730" data-name="Grupo 127730" transform="translate(56.544 -23.538)">
          <path id="Trazado_163903" data-name="Trazado 163903" d="M69.4,11.918c0-.615,0-1.174,0-1.733,0-.674.19-.864.849-.864q1.786,0,3.571,0c.585,0,.809.223.813.809s0,1.162,0,1.788c.2,0,.353-.007.509,0a.642.642,0,0,1,.663.645c.01.114,0,.229,0,.343q0,7.605-.006,15.21a.4.4,0,0,0,.341.47A15.128,15.128,0,0,1,86.979,40.126a13.357,13.357,0,0,1-.048,6.4c-1.542,6.172-5.371,10.169-11.558,11.719a15.217,15.217,0,0,1-17.331-8.489,14.8,14.8,0,0,1,2.143-16.239,14.582,14.582,0,0,1,7.5-4.89.5.5,0,0,0,.433-.581q-.02-7.571-.009-15.141a2.991,2.991,0,0,1,.015-.445.572.572,0,0,1,.573-.534C68.91,11.907,69.127,11.918,69.4,11.918ZM58.13,45.688c.61-.337,1.184-.691,1.789-.981a3.6,3.6,0,0,1,3.72.255c.5.323.966.694,1.435,1.058a2.245,2.245,0,0,0,3.276.069c.363-.26.71-.541,1.071-.8a9.131,9.131,0,0,1,.768-.517,3.08,3.08,0,0,1,3.289,0c.276.16.536.35.8.537.5.361.971.774,1.5,1.084a2.487,2.487,0,0,0,2.9-.093c.418-.3.811-.634,1.215-.953a4.22,4.22,0,0,1,1.931-.991,4.535,4.535,0,0,1,3.544,1.055c.132.1.258.207.412.331a13.38,13.38,0,0,0,.094-4.49A14.036,14.036,0,0,0,75.213,29.588c-.575-.139-.7-.3-.7-.911q0-5.58,0-11.16v-.4H69.4v.463q0,5.563,0,11.126c0,.585-.134.741-.691.887-.442.116-.881.243-1.314.388A14,14,0,0,0,58.13,45.688ZM71.954,57.343a13.373,13.373,0,0,0,5-.911,13.908,13.908,0,0,0,8.424-8.952.361.361,0,0,0-.127-.47,14.943,14.943,0,0,0-1.348-1,2.456,2.456,0,0,0-3.026.206c-.4.336-.817.665-1.243.973a3.973,3.973,0,0,1-4.908.049c-.414-.286-.806-.6-1.208-.906-1.3-.979-2.033-.983-3.335-.022-.5.367-.981.752-1.493,1.1a3.277,3.277,0,0,1-2.6.586,4.356,4.356,0,0,1-1.669-.843c-.559-.416-1.109-.847-1.691-1.229a2.044,2.044,0,0,0-1.841-.207A7.517,7.517,0,0,0,58.731,46.9a.434.434,0,0,0-.183.566A14.009,14.009,0,0,0,71.954,57.343Zm2.539-44.1H69.42V15.77h5.073Zm-1.177-1.394v-1.2h-2.6v1.2Z" transform="translate(-56.544 -7.061)" fill="#1d272b"/>
          <path id="Trazado_163904" data-name="Trazado 163904" d="M508.653,176.139c-3.778,0-7.556-.042-11.332.019a3.022,3.022,0,0,1-2.891-3.887,1.926,1.926,0,0,1,.2-.432q4.582-8.284,9.16-16.569a1.322,1.322,0,0,0,.157-.611q.013-7.451.011-14.9a.715.715,0,0,0-.232-.569c-.633-.613-1.248-1.245-1.876-1.864a.677.677,0,0,1-.22-.8.654.654,0,0,1,.7-.38q5.529.01,11.058.005c.5,0,.809.287.735.719a.951.951,0,0,1-.258.463c-.613.633-1.249,1.244-1.858,1.88a.8.8,0,0,0-.215.5q0,7.451.03,14.9a1.138,1.138,0,0,0,.176.569q3.741,5.936,7.5,11.862c1.017,1.61,2.136,3.169,3.005,4.856.892,1.731.467,4.141-2.209,4.218-2.711.078-5.425.022-8.138.024ZM503.9,137.466l-.1.132c.359.317.714.639,1.078.951a1.135,1.135,0,0,1,.39.94c-.009,5.116,0,10.232-.016,15.348a1.834,1.834,0,0,1-.218.84q-2.84,5.19-5.707,10.365c-.058.1-.11.213-.195.378.178-.068.293-.108.4-.155a3.425,3.425,0,0,1,3.427.328c.474.319.917.683,1.37,1.032,1.4,1.082,2.113,1.085,3.525.027.531-.4,1.056-.808,1.618-1.156a3.073,3.073,0,0,1,3.493.019c.605.388,1.161.853,1.747,1.272a2.72,2.72,0,0,0,3.571-.178c-.068-.112-.137-.229-.209-.343q-3.658-5.806-7.308-11.616a1.594,1.594,0,0,1-.232-.8c-.027-5.15-.035-10.3-.055-15.451a.994.994,0,0,1,.325-.791c.38-.355.741-.729,1.163-1.146Zm15.122,31.343c-.5.225-.946.459-1.415.633a3.5,3.5,0,0,1-3.422-.44c-.476-.337-.933-.7-1.4-1.049a2.177,2.177,0,0,0-3.135-.027c-.093.067-.183.137-.275.205-.394.294-.779.6-1.185.879a3.322,3.322,0,0,1-4.2-.022c-.291-.2-.563-.431-.849-.641-.35-.257-.695-.523-1.061-.755a2.03,2.03,0,0,0-1.776-.209,7.381,7.381,0,0,0-2.3,1.268,1.306,1.306,0,0,0-.329.383q-.949,1.69-1.878,3.39a1.331,1.331,0,0,0-.146.381,1.643,1.643,0,0,0,1.706,2.038q11.281,0,22.562,0a4.521,4.521,0,0,0,.617-.03,1,1,0,0,0,.895-.545,1.882,1.882,0,0,0-.026-1.665C520.656,171.31,519.821,170.065,519.024,168.809Z" transform="translate(-464.208 -125.163)" fill="#1d272b"/>
          <path id="Trazado_163905" data-name="Trazado 163905" d="M645.285-21.587a1.968,1.968,0,0,1,1.97-1.951,1.956,1.956,0,0,1,1.956,1.929,1.963,1.963,0,0,1-1.933,1.955A1.977,1.977,0,0,1,645.285-21.587Zm1.973-.651a.657.657,0,0,0-.678.632.672.672,0,0,0,.693.658.652.652,0,0,0,.636-.639A.636.636,0,0,0,647.258-22.237Z" transform="translate(-604.796 23.538)" fill="#1d272b"/>
          <path id="Trazado_163906" data-name="Trazado 163906" d="M721.417,51.331a1.939,1.939,0,1,1-1.949,1.931A1.95,1.95,0,0,1,721.417,51.331Zm.643,1.955a.635.635,0,0,0-.644-.654.622.622,0,0,0-.647.608.633.633,0,0,0,.618.678A.65.65,0,0,0,722.061,53.286Z" transform="translate(-673.878 -46.182)" fill="#1d272b"/>
          <path id="Trazado_163907" data-name="Trazado 163907" d="M245.526,329.966a1.941,1.941,0,1,1,.009,3.883,1.942,1.942,0,1,1-.009-3.883Zm.65,1.942a.637.637,0,0,0-.662-.639.666.666,0,0,0-.675.638.676.676,0,0,0,.673.646A.651.651,0,0,0,246.175,331.908Z" transform="translate(-230.684 -305.655)" fill="#1d272b"/>
          <path id="Trazado_163908" data-name="Trazado 163908" d="M300.049,444.938a1.948,1.948,0,1,1,1.933,1.962A1.971,1.971,0,0,1,300.049,444.938Zm2.6.006a.652.652,0,0,0-.665-.64.648.648,0,0,0,.015,1.3A.655.655,0,0,0,302.645,444.944Z" transform="translate(-283.303 -410.918)" fill="#1d272b"/>
          <path id="Trazado_163909" data-name="Trazado 163909" d="M191.383,444.968A1.944,1.944,0,1,1,189.456,443,1.964,1.964,0,0,1,191.383,444.968Zm-1.93-.663a.648.648,0,0,0-.045,1.295.648.648,0,1,0,.045-1.295Z" transform="translate(-178.488 -410.919)" fill="#1d272b"/>
          <path id="Trazado_163910" data-name="Trazado 163910" d="M691.267,455.782a1.963,1.963,0,1,1,1.959,1.98A2,2,0,0,1,691.267,455.782Zm1.98-.641a.656.656,0,0,0-.683.62.683.683,0,0,0,.685.7.662.662,0,0,0,.642-.667A.635.635,0,0,0,693.247,455.141Z" transform="translate(-647.616 -421.011)" fill="#1d272b"/>
          <path id="Trazado_163911" data-name="Trazado 163911" d="M638.5,531.173a1.99,1.99,0,0,1-1.954,1.984,2.032,2.032,0,0,1-1.969-1.985,1.987,1.987,0,0,1,1.988-1.949A1.943,1.943,0,0,1,638.5,531.173Zm-1.941.684a.668.668,0,0,0,.641-.7.632.632,0,0,0-.664-.633.671.671,0,0,0-.657.656" transform="translate(-594.824 -491.209)" fill="#1d272b"/>
        </g>
      </g>
    </g>
  </g>
</svg>
