<svg xmlns="http://www.w3.org/2000/svg" xmlns:xlink="http://www.w3.org/1999/xlink" width="427.508" height="367.434" viewBox="0 0 427.508 367.434">
  <defs>
    <clipPath id="clip-path">
      <rect id="Rectángulo_35357" data-name="Rectángulo 35357" width="340" height="313" transform="translate(-0.299 -0.438)" fill="#fff" stroke="#707070" stroke-width="1"/>
    </clipPath>
    <linearGradient id="linear-gradient" x1="0.5" x2="0.5" y2="1" gradientUnits="objectBoundingBox">
      <stop offset="0" stop-color="#f5f5f5"/>
      <stop offset="0.25" stop-color="#f5f5f5"/>
      <stop offset="1" stop-color="#a7b3cf"/>
    </linearGradient>
    <clipPath id="clip-path-2">
      <rect id="Rectángulo_35309" data-name="Rectángulo 35309" width="8.138" height="3.135" fill="none"/>
    </clipPath>
  </defs>
  <g id="img13" transform="translate(-1011.82 -6498.566)">
    <g id="Grupo_128372" data-name="Grupo 128372">
      <g id="Grupo_127835" data-name="Grupo 127835" transform="translate(1011.82 6498.566)">
        <path id="Trazado_151846" data-name="Trazado 151846" d="M443.844,445.758a89.577,89.577,0,0,0,11.945-78c-5.3-16.411-15.461-31.657-16.76-48.771-2.6-34.216,30.165-61.877,36.961-95.575,2.988-14.81-.272-32.064-13.078-41.06-12.649-8.885-30.7-7.071-45.021-.849s-26.436,16.184-40.185,23.466-30.677,11.784-45.2,5.988c-14.706-5.871-23.048-20.669-27.721-35.092s-6.966-29.784-14.941-42.851c-13.143-21.535-41.167-33.277-67.281-30.238s-49.447,19.682-61.963,41.548-14.7,48.314-8.473,72.465c3.16,12.249,8.366,23.979,11.205,36.3s3.1,25.8-3.239,36.9c-13.253,23.2-48.216,26.44-66.525,46.339-15.111,16.424-15.585,41.487-7.01,61.684s24.693,36.585,40.761,52.175c74.951,2.38,151.245,2.538,226.2,4.918C382.65,456.029,414.748,447.376,443.844,445.758Z" transform="translate(-80.961 -95.483)" fill="#a4a4b4" opacity="0.354" style="mix-blend-mode: multiply;isolation: isolate"/>
        <path id="Trazado_151847" data-name="Trazado 151847" d="M359.211,196.366c-.245,26.2,24.664,49.008,20.329,74.852-2.318,13.827-12.854,27.844-6.731,40.456,5.417,11.16,20.933,13.095,32.8,9.467,27.769-8.5,44.648-36.88,52.72-64.777,7.593-26.239,9.477-55.548-2.682-80.008-9.8-19.707-32.4-37.106-55.361-35.5C379.256,142.333,359.395,176.628,359.211,196.366Z" transform="translate(-36.887 -78.915)" fill="#a4a4b4" opacity="0.31" style="mix-blend-mode: multiply;isolation: isolate"/>
        <path id="Trazado_151848" data-name="Trazado 151848" d="M121.07,161.978c-18.549,30.948-19.386,71.737-2.12,103.419,5.456,10.011,12.824,19.34,22.774,24.906s22.784,6.808,32.687,1.16c15.018-8.567,18.34-28.773,17.145-46.023s-5.1-35.332,1.539-51.295c4.331-10.405,12.645-18.518,20.021-27.039s14.261-18.467,14.642-29.731c.988-29.2-30.012-27.018-48.695-20.954C155.211,124.165,134,140.4,121.07,161.978Z" transform="translate(-68.308 -90.362)" fill="#a4a4b4" opacity="0.31" style="mix-blend-mode: multiply;isolation: isolate"/>
        <g id="Grupo_107069" data-name="Grupo 107069" transform="translate(10.378 0)" style="mix-blend-mode: multiply;isolation: isolate">
          <path id="Trazado_151849" data-name="Trazado 151849" d="M435.995,451.1l-1.6-1.391c4.4-4.581,11.426-15.081,9.048-33.959-1.058-8.4-3.682-16.705-6.22-24.733-1.133-3.587-2.3-7.3-3.328-10.978a163.16,163.16,0,0,1,13.1-118.924c1.709-3.22,3.557-6.451,5.346-9.575,5.3-9.262,10.784-18.84,13.142-29.186,4.135-18.155-4.039-31.763-13.382-36.723-8.964-4.761-21.618-4.033-34.714,2-4.791,2.205-9.448,4.9-13.951,7.511-5.951,3.448-12.1,7.013-18.712,9.537-25.995,9.931-58.495,1.491-75.6-19.629-8.219-10.15-12.86-22.416-17.347-34.279-1.739-4.6-3.537-9.351-5.514-13.9-6.15-14.142-17.407-31.892-36.107-36.138C233.727,97,217.085,105.2,206.02,112.741c-21.17,14.424-36.093,33.958-42.021,55-4,14.192-4.157,29.638-4.313,44.576-.232,22.246-.472,45.249-13.664,63.775-6,8.428-14.257,15.152-22.238,21.655-7.476,6.09-15.207,12.388-20.97,20.021-13.058,17.3-16.259,41.784-8.782,67.184,6.719,22.822,20.415,43.071,33.66,62.655l-1.82,1.115c-13.331-19.71-27.118-40.093-33.924-63.214-7.656-26.007-4.336-51.137,9.108-68.944,5.915-7.836,13.747-14.215,21.319-20.385,7.875-6.414,16.017-13.048,21.854-21.245,12.826-18.011,13.052-39.688,13.291-62.638.157-15.067.319-30.646,4.389-45.091,6.057-21.5,21.276-41.443,42.851-56.146,11.431-7.788,28.673-16.251,45.9-12.337,19.589,4.448,31.262,22.769,37.6,37.355,2,4.593,3.8,9.37,5.552,13.99,4.431,11.713,9.012,23.825,17.025,33.718,16.531,20.417,47.948,28.574,73.077,18.975,6.44-2.46,12.516-5.98,18.392-9.384,4.546-2.635,9.247-5.359,14.132-7.607,13.739-6.325,27.12-7.036,36.712-1.942,10.019,5.32,18.812,19.781,14.444,38.962-2.424,10.636-7.981,20.346-13.358,29.736-1.781,3.11-3.622,6.325-5.314,9.516a161.155,161.155,0,0,0-12.937,117.467c1.013,3.649,2.18,7.341,3.308,10.912,2.564,8.112,5.216,16.5,6.3,25.082C448.075,435.2,440.644,446.262,435.995,451.1Z" transform="translate(-87.906 -97.739)" fill="#a4a4b4"/>
        </g>
      </g>
      <g id="Enmascarar_grupo_160" data-name="Enmascarar grupo 160" transform="translate(1048.299 6553.438)" clip-path="url(#clip-path)">
        <g id="Grupo_127833" data-name="Grupo 127833" transform="translate(6.649 -74.319)">
          <g id="Grupo_127821" data-name="Grupo 127821" transform="translate(0 153.567)">
            <rect id="Rectángulo_35279" data-name="Rectángulo 35279" width="298.599" height="216.485" transform="translate(6.428 3.11)" fill="#e8f3fc"/>
            <rect id="Rectángulo_35280" data-name="Rectángulo 35280" width="298.599" height="8.294" transform="translate(6.428 188.906)" fill="#050505" opacity="0.16"/>
            <g id="Grupo_127812" data-name="Grupo 127812" transform="translate(205.105 18.663)">
              <rect id="Rectángulo_35281" data-name="Rectángulo 35281" width="87.714" height="46.656" transform="translate(0.622 0.622)" fill="#a7c1ce"/>
              <path id="Trazado_163997" data-name="Trazado 163997" d="M311.69,371.067H223.976a.622.622,0,0,1-.622-.622V323.789a.622.622,0,0,1,.622-.622H311.69a.621.621,0,0,1,.622.622v46.656A.622.622,0,0,1,311.69,371.067ZM224.6,369.823h86.469V324.411H224.6Z" transform="translate(-223.354 -323.167)" fill="#7d888c"/>
            </g>
            <g id="Grupo_127813" data-name="Grupo 127813" transform="translate(205.105 72.991)">
              <rect id="Rectángulo_35282" data-name="Rectángulo 35282" width="87.714" height="46.656" transform="translate(0.622 0.622)" fill="#a7c1ce"/>
              <path id="Trazado_163998" data-name="Trazado 163998" d="M311.69,414.733H223.976a.622.622,0,0,1-.622-.622V367.455a.622.622,0,0,1,.622-.622H311.69a.622.622,0,0,1,.622.622v46.656A.622.622,0,0,1,311.69,414.733ZM224.6,413.489h86.469V368.077H224.6Z" transform="translate(-223.354 -366.833)" fill="#7d888c"/>
            </g>
            <g id="Grupo_127814" data-name="Grupo 127814" transform="translate(205.105 128.564)">
              <rect id="Rectángulo_35283" data-name="Rectángulo 35283" width="87.714" height="46.656" transform="translate(0.622 0.622)" fill="#a7c1ce"/>
              <path id="Trazado_163999" data-name="Trazado 163999" d="M311.69,459.4H223.976a.622.622,0,0,1-.622-.622V412.122a.622.622,0,0,1,.622-.622H311.69a.622.622,0,0,1,.622.622v46.656A.622.622,0,0,1,311.69,459.4ZM224.6,458.156h86.469V412.744H224.6Z" transform="translate(-223.354 -411.5)" fill="#7d888c"/>
            </g>
            <g id="Grupo_127815" data-name="Grupo 127815" transform="translate(111.353 18.663)">
              <rect id="Rectángulo_35284" data-name="Rectángulo 35284" width="87.714" height="46.656" transform="translate(0.622 0.622)" fill="#a7c1ce"/>
              <path id="Trazado_164000" data-name="Trazado 164000" d="M236.336,371.067H148.622a.622.622,0,0,1-.622-.622V323.789a.622.622,0,0,1,.622-.622h87.714a.622.622,0,0,1,.622.622v46.656A.622.622,0,0,1,236.336,371.067Zm-87.092-1.244h86.469V324.411H149.244Z" transform="translate(-148 -323.167)" fill="#7d888c"/>
            </g>
            <g id="Grupo_127816" data-name="Grupo 127816" transform="translate(111.353 72.991)">
              <rect id="Rectángulo_35285" data-name="Rectángulo 35285" width="87.714" height="46.656" transform="translate(0.622 0.622)" fill="#a7c1ce"/>
              <path id="Trazado_164001" data-name="Trazado 164001" d="M236.336,414.733H148.622a.622.622,0,0,1-.622-.622V367.455a.622.622,0,0,1,.622-.622h87.714a.622.622,0,0,1,.622.622v46.656A.622.622,0,0,1,236.336,414.733Zm-87.092-1.244h86.469V368.077H149.244Z" transform="translate(-148 -366.833)" fill="#7d888c"/>
            </g>
            <rect id="Rectángulo_35286" data-name="Rectángulo 35286" width="87.714" height="46.656" transform="translate(111.975 129.186)" fill="#475054"/>
            <g id="Grupo_127817" data-name="Grupo 127817" transform="translate(15.967 18.663)">
              <rect id="Rectángulo_35287" data-name="Rectángulo 35287" width="87.714" height="46.656" transform="translate(0.621 0.622)" fill="#a7c1ce"/>
              <path id="Trazado_164002" data-name="Trazado 164002" d="M159.67,371.067H71.956a.622.622,0,0,1-.622-.622V323.789a.621.621,0,0,1,.622-.622H159.67a.622.622,0,0,1,.622.622v46.656A.622.622,0,0,1,159.67,371.067Zm-87.091-1.244h86.469V324.411H72.578Z" transform="translate(-71.334 -323.167)" fill="#7d888c"/>
            </g>
            <g id="Grupo_127818" data-name="Grupo 127818" transform="translate(15.967 72.991)">
              <rect id="Rectángulo_35288" data-name="Rectángulo 35288" width="87.714" height="46.656" transform="translate(0.621 0.622)" fill="#a7c1ce"/>
              <path id="Trazado_164003" data-name="Trazado 164003" d="M159.67,414.733H71.956a.622.622,0,0,1-.622-.622V367.455a.622.622,0,0,1,.622-.622H159.67a.622.622,0,0,1,.622.622v46.656A.622.622,0,0,1,159.67,414.733Zm-87.091-1.244h86.469V368.077H72.578Z" transform="translate(-71.334 -366.833)" fill="#7d888c"/>
            </g>
            <g id="Grupo_127819" data-name="Grupo 127819" transform="translate(15.967 128.564)">
              <rect id="Rectángulo_35289" data-name="Rectángulo 35289" width="87.714" height="46.656" transform="translate(0.621 0.622)" fill="#a7c1ce"/>
              <path id="Trazado_164004" data-name="Trazado 164004" d="M159.67,459.4H71.956a.621.621,0,0,1-.622-.622V412.122a.622.622,0,0,1,.622-.622H159.67a.622.622,0,0,1,.622.622v46.656A.622.622,0,0,1,159.67,459.4Zm-87.091-1.244h86.469V412.744H72.578Z" transform="translate(-71.334 -411.5)" fill="#7d888c"/>
            </g>
            <path id="Trazado_164005" data-name="Trazado 164005" d="M277.455,329.667H247.284a1.56,1.56,0,0,0-1.555,1.555h0a1.561,1.561,0,0,0,1.555,1.555h30.171a1.56,1.56,0,0,0,1.555-1.555h0A1.559,1.559,0,0,0,277.455,329.667Z" transform="translate(-12.786 -302.917)" fill="#e8f3fc"/>
            <path id="Trazado_164006" data-name="Trazado 164006" d="M277.455,373.167H247.284a1.56,1.56,0,0,0-1.555,1.555h0a1.561,1.561,0,0,0,1.555,1.555h30.171a1.56,1.56,0,0,0,1.555-1.555h0A1.559,1.559,0,0,0,277.455,373.167Z" transform="translate(-12.786 -292.296)" fill="#e8f3fc"/>
            <path id="Trazado_164007" data-name="Trazado 164007" d="M277.455,416.417H247.284a1.56,1.56,0,0,0-1.555,1.555h0a1.561,1.561,0,0,0,1.555,1.555h30.171a1.56,1.56,0,0,0,1.555-1.555h0A1.559,1.559,0,0,0,277.455,416.417Z" transform="translate(-12.786 -281.736)" fill="#e8f3fc"/>
            <path id="Trazado_164008" data-name="Trazado 164008" d="M123.455,329.667H93.284a1.56,1.56,0,0,0-1.555,1.555h0a1.561,1.561,0,0,0,1.555,1.555h30.171a1.56,1.56,0,0,0,1.555-1.555h0A1.559,1.559,0,0,0,123.455,329.667Z" transform="translate(-50.387 -302.917)" fill="#e8f3fc"/>
            <path id="Trazado_164009" data-name="Trazado 164009" d="M123.455,373.167H93.284a1.56,1.56,0,0,0-1.555,1.555h0a1.561,1.561,0,0,0,1.555,1.555h30.171a1.56,1.56,0,0,0,1.555-1.555h0A1.559,1.559,0,0,0,123.455,373.167Z" transform="translate(-50.387 -292.296)" fill="#e8f3fc"/>
            <path id="Trazado_164010" data-name="Trazado 164010" d="M201.455,329.667H171.284a1.56,1.56,0,0,0-1.555,1.555h0a1.561,1.561,0,0,0,1.555,1.555h30.171a1.56,1.56,0,0,0,1.555-1.555h0A1.559,1.559,0,0,0,201.455,329.667Z" transform="translate(-31.342 -302.917)" fill="#e8f3fc"/>
            <path id="Trazado_164011" data-name="Trazado 164011" d="M201.455,373.167H171.284a1.56,1.56,0,0,0-1.555,1.555h0a1.561,1.561,0,0,0,1.555,1.555h30.171a1.56,1.56,0,0,0,1.555-1.555h0A1.559,1.559,0,0,0,201.455,373.167Z" transform="translate(-31.342 -292.296)" fill="#e8f3fc"/>
            <path id="Trazado_164012" data-name="Trazado 164012" d="M123.455,416.417H93.284a1.56,1.56,0,0,0-1.555,1.555h0a1.561,1.561,0,0,0,1.555,1.555h30.171a1.56,1.56,0,0,0,1.555-1.555h0A1.559,1.559,0,0,0,123.455,416.417Z" transform="translate(-50.387 -281.736)" fill="#e8f3fc"/>
            <rect id="Rectángulo_35290" data-name="Rectángulo 35290" width="90.513" height="6.532" transform="translate(110.731 169.621)" fill="#a7c1ce"/>
            <path id="Trazado_164013" data-name="Trazado 164013" d="M150,447.6h83.773s-5.805-6.221-17-9.953-11.2-7.049-22.811-6.635S164.93,437.642,150,447.6Z" transform="translate(-36.159 -278.182)" fill="#fff"/>
            <path id="Trazado_164014" data-name="Trazado 164014" d="M166.625,446.045s7.854-.856,13.686-4.2,4.821-4.9,12.676-4.588,15.552,8.788,15.552,8.788Z" transform="translate(-32.1 -276.657)" fill="#6d6d6d"/>
            <path id="Trazado_164015" data-name="Trazado 164015" d="M196.122,431.637a.612.612,0,0,0-.654.03,1.48,1.48,0,0,0-.444.525c-.066.116-.119.238-.177.358a3.5,3.5,0,0,0-.249-.321,6.226,6.226,0,0,0,.663-1.186,1.186,1.186,0,0,0,.049-1.051.831.831,0,0,0-.48-.337.805.805,0,0,0-.876.246,1.218,1.218,0,0,0-.152.384l-.295,1.1c-.083-.045-.169-.086-.255-.126a8.458,8.458,0,0,0,.317-1.32,1.349,1.349,0,0,0-.022-.679.738.738,0,0,0-1.371-.031,1.473,1.473,0,0,0-.088.434c-.04.388-.078.776-.118,1.165-.138-.031-.277-.056-.417-.078a.685.685,0,0,0,.021-.066,8.1,8.1,0,0,0,.083-1.216,1.562,1.562,0,0,0-.042-.411.786.786,0,0,0-.373-.485.653.653,0,0,0-.6-.01.794.794,0,0,0-.37.552,2.406,2.406,0,0,0,0,.682q.041.429.08.858c-.169,0-.337.017-.5.037a5.4,5.4,0,0,1-.137-1.094,3.69,3.69,0,0,0-.088-1.069,1.369,1.369,0,0,0-2.3-.515,1.863,1.863,0,0,0-.362,1.651,5.486,5.486,0,0,0,.722,1.593c.075.128.151.256.226.384a3.4,3.4,0,0,0-.562,2.655c.133.928.472,1.815.651,2.736a8.106,8.106,0,0,1-.317,4.231c-.489,1.375-1.359,2.659-1.407,4.116a3.542,3.542,0,0,0,1.609,3.1,3.066,3.066,0,0,0,3.43-.162,5.352,5.352,0,0,0,1.456-2.373,51.631,51.631,0,0,0,2.522-8.994,8.988,8.988,0,0,0,.177-2.789,2.035,2.035,0,0,1,.236-.5c.132-.2.3-.368.423-.569a1.723,1.723,0,0,0,.255-.789A.738.738,0,0,0,196.122,431.637Z" transform="translate(-27.306 -279.008)" fill="#e6b89c"/>
            <path id="Trazado_164016" data-name="Trazado 164016" d="M176.807,431.637a.612.612,0,0,1,.654.03,1.48,1.48,0,0,1,.444.525c.066.116.119.238.177.358a3.5,3.5,0,0,1,.249-.321,6.226,6.226,0,0,1-.663-1.186,1.186,1.186,0,0,1-.049-1.051.831.831,0,0,1,.48-.337.805.805,0,0,1,.876.246,1.218,1.218,0,0,1,.152.384l.295,1.1c.083-.045.169-.086.255-.126a8.456,8.456,0,0,1-.317-1.32,1.348,1.348,0,0,1,.022-.679.738.738,0,0,1,1.371-.031,1.515,1.515,0,0,1,.088.434c.04.388.078.776.118,1.165.138-.031.277-.056.417-.078a.685.685,0,0,1-.021-.066,8.1,8.1,0,0,1-.083-1.216,1.563,1.563,0,0,1,.042-.411.786.786,0,0,1,.373-.485.653.653,0,0,1,.6-.01.793.793,0,0,1,.368.552,2.318,2.318,0,0,1,0,.682l-.078.858c.169,0,.337.017.5.037a5.4,5.4,0,0,0,.137-1.094,3.69,3.69,0,0,1,.088-1.069,1.368,1.368,0,0,1,2.3-.515,1.86,1.86,0,0,1,.363,1.651,5.486,5.486,0,0,1-.722,1.593l-.226.384a3.4,3.4,0,0,1,.562,2.655c-.133.928-.473,1.815-.651,2.736a8.106,8.106,0,0,0,.317,4.231c.488,1.375,1.359,2.659,1.407,4.116a3.542,3.542,0,0,1-1.609,3.1,3.066,3.066,0,0,1-3.43-.162,5.341,5.341,0,0,1-1.456-2.373,51.63,51.63,0,0,1-2.522-8.994,8.988,8.988,0,0,1-.177-2.789,2.036,2.036,0,0,0-.236-.5c-.132-.2-.3-.368-.423-.569a1.724,1.724,0,0,1-.256-.789A.741.741,0,0,1,176.807,431.637Z" transform="translate(-29.675 -279.008)" fill="#e6b89c"/>
            <path id="Trazado_164017" data-name="Trazado 164017" d="M189.235,433.829a.115.115,0,0,1-.087-.04,12.483,12.483,0,0,1-1.746-2.6.116.116,0,0,1,.214-.091,11.567,11.567,0,0,0,1.566,2.374,10.752,10.752,0,0,0,.4-3.448.115.115,0,0,1,.1-.127.109.109,0,0,1,.127.1,10.844,10.844,0,0,1-.468,3.747.115.115,0,0,1-.087.081Z" transform="translate(-27.029 -278.446)" fill="#050505"/>
            <path id="Trazado_164018" data-name="Trazado 164018" d="M190.151,434.169l-1.16-1.548L188,434.169V437.9h2.147Z" transform="translate(-26.88 -277.779)" fill="#d93328"/>
            <path id="Trazado_164019" data-name="Trazado 164019" d="M188.371,433.9h0a.087.087,0,0,0-.087.087V437.1a.087.087,0,0,0,.087.087h0a.087.087,0,0,0,.087-.087v-3.114A.088.088,0,0,0,188.371,433.9Z" transform="translate(-26.812 -277.468)" opacity="0.24" fill="url(#linear-gradient)"/>
            <path id="Trazado_164020" data-name="Trazado 164020" d="M188.728,433.9h0a.088.088,0,0,0-.087.087V437.1a.087.087,0,0,0,.087.087h0a.087.087,0,0,0,.087-.087v-3.114A.087.087,0,0,0,188.728,433.9Z" transform="translate(-26.724 -277.468)" opacity="0.24" fill="url(#linear-gradient)"/>
            <path id="Trazado_164021" data-name="Trazado 164021" d="M189.07,433.9h0a.088.088,0,0,0-.087.087V437.1a.087.087,0,0,0,.087.087h0a.087.087,0,0,0,.087-.087v-3.114A.087.087,0,0,0,189.07,433.9Z" transform="translate(-26.641 -277.468)" opacity="0.24" fill="url(#linear-gradient)"/>
            <g id="Grupo_127820" data-name="Grupo 127820" transform="translate(296.466 71.147)">
              <path id="Trazado_164022" data-name="Trazado 164022" d="M296.785,407.908a3.35,3.35,0,0,0,4.163,3.247,3.3,3.3,0,0,0,2.416-2.375,3.339,3.339,0,0,0-2.085-4V365.351h-2.3v39.428A3.336,3.336,0,0,0,296.785,407.908Z" transform="translate(-296.785 -365.351)" fill="#bacff4"/>
              <path id="Trazado_164023" data-name="Trazado 164023" d="M297.915,399.912a1.932,1.932,0,1,0,1.932-1.932A1.931,1.931,0,0,0,297.915,399.912Z" transform="translate(-296.509 -357.384)" fill="#d93328"/>
              <rect id="Rectángulo_35291" data-name="Rectángulo 35291" width="0.865" height="40.121" rx="0.216" transform="translate(3.77 40.999) rotate(180)" fill="#d93328"/>
              <circle id="Elipse_4376" data-name="Elipse 4376" cx="1.326" cy="1.326" r="1.326" transform="translate(3.28 42.008)" fill="#fff" opacity="0.47"/>
            </g>
            <rect id="Rectángulo_35292" data-name="Rectángulo 35292" width="311.974" height="4.977" transform="translate(0 187.039)" fill="#fff"/>
            <rect id="Rectángulo_35293" data-name="Rectángulo 35293" width="298.599" height="8.294" transform="translate(6.428 1.866)" fill="#050505" opacity="0.16"/>
            <rect id="Rectángulo_35294" data-name="Rectángulo 35294" width="311.974" height="4.977" fill="#fff"/>
            <path id="Trazado_164024" data-name="Trazado 164024" d="M290.589,465.167h0a1.091,1.091,0,0,0-1.089,1.089v18.766a1.092,1.092,0,0,0,1.089,1.089h0a1.092,1.092,0,0,0,1.089-1.089V466.256A1.091,1.091,0,0,0,290.589,465.167Z" transform="translate(-2.098 -269.833)" fill="#050505" opacity="0.53"/>
            <path id="Trazado_164025" data-name="Trazado 164025" d="M287.672,465.167h0a1.091,1.091,0,0,0-1.089,1.089v18.766a1.092,1.092,0,0,0,1.089,1.089h0a1.091,1.091,0,0,0,1.089-1.089V466.256A1.091,1.091,0,0,0,287.672,465.167Z" transform="translate(-2.81 -269.833)" fill="#050505" opacity="0.53"/>
            <path id="Trazado_164026" data-name="Trazado 164026" d="M284.839,465.167h0a1.091,1.091,0,0,0-1.089,1.089v18.766a1.092,1.092,0,0,0,1.089,1.089h0a1.092,1.092,0,0,0,1.089-1.089V466.256A1.091,1.091,0,0,0,284.839,465.167Z" transform="translate(-3.502 -269.833)" fill="#050505" opacity="0.53"/>
            <path id="Trazado_164027" data-name="Trazado 164027" d="M230.589,465.167h0a1.091,1.091,0,0,0-1.089,1.089v18.766a1.092,1.092,0,0,0,1.089,1.089h0a1.092,1.092,0,0,0,1.089-1.089V466.256A1.091,1.091,0,0,0,230.589,465.167Z" transform="translate(-16.748 -269.833)" fill="#050505" opacity="0.53"/>
            <path id="Trazado_164028" data-name="Trazado 164028" d="M227.672,465.167h0a1.091,1.091,0,0,0-1.089,1.089v18.766a1.092,1.092,0,0,0,1.089,1.089h0a1.091,1.091,0,0,0,1.089-1.089V466.256A1.091,1.091,0,0,0,227.672,465.167Z" transform="translate(-17.46 -269.833)" fill="#050505" opacity="0.53"/>
            <path id="Trazado_164029" data-name="Trazado 164029" d="M224.839,465.167h0a1.091,1.091,0,0,0-1.089,1.089v18.766a1.092,1.092,0,0,0,1.089,1.089h0a1.092,1.092,0,0,0,1.089-1.089V466.256A1.091,1.091,0,0,0,224.839,465.167Z" transform="translate(-18.152 -269.833)" fill="#050505" opacity="0.53"/>
            <path id="Trazado_164030" data-name="Trazado 164030" d="M141.922,465.167h0a1.091,1.091,0,0,0-1.089,1.089v18.766a1.092,1.092,0,0,0,1.089,1.089h0a1.091,1.091,0,0,0,1.089-1.089V466.256A1.091,1.091,0,0,0,141.922,465.167Z" transform="translate(-38.397 -269.833)" fill="#050505" opacity="0.53"/>
            <path id="Trazado_164031" data-name="Trazado 164031" d="M139.006,465.167h0a1.091,1.091,0,0,0-1.089,1.089v18.766a1.092,1.092,0,0,0,1.089,1.089h0a1.092,1.092,0,0,0,1.089-1.089V466.256A1.091,1.091,0,0,0,139.006,465.167Z" transform="translate(-39.109 -269.833)" fill="#050505" opacity="0.53"/>
            <path id="Trazado_164032" data-name="Trazado 164032" d="M136.172,465.167h0a1.091,1.091,0,0,0-1.089,1.089v18.766a1.092,1.092,0,0,0,1.089,1.089h0a1.091,1.091,0,0,0,1.089-1.089V466.256A1.091,1.091,0,0,0,136.172,465.167Z" transform="translate(-39.801 -269.833)" fill="#050505" opacity="0.53"/>
            <rect id="Rectángulo_35295" data-name="Rectángulo 35295" width="2.177" height="20.943" rx="0.875" transform="translate(24.469 195.334)" fill="#050505" opacity="0.53"/>
            <path id="Trazado_164033" data-name="Trazado 164033" d="M76.339,465.167h0a1.091,1.091,0,0,0-1.089,1.089v18.766a1.092,1.092,0,0,0,1.089,1.089h0a1.092,1.092,0,0,0,1.089-1.089V466.256A1.091,1.091,0,0,0,76.339,465.167Z" transform="translate(-54.41 -269.833)" fill="#050505" opacity="0.53"/>
            <path id="Trazado_164034" data-name="Trazado 164034" d="M73.506,465.167h0a1.091,1.091,0,0,0-1.089,1.089v18.766a1.091,1.091,0,0,0,1.089,1.089h0a1.092,1.092,0,0,0,1.089-1.089V466.256A1.091,1.091,0,0,0,73.506,465.167Z" transform="translate(-55.102 -269.833)" fill="#050505" opacity="0.53"/>
          </g>
          <g id="Grupo_127829" data-name="Grupo 127829" transform="translate(3.248 284.327)">
            <path id="Trazado_164035" data-name="Trazado 164035" d="M362.741,464.013c-3.971,0-5.984-2.369-5.984-7.041V427.991h.939v28.982c0,4.163,1.6,6.1,5.045,6.1,3.978,0,4.576-.875,4.576-6.687,0-.722-.016-1.524-.035-2.379-.1-4.944-.229-11.1,2.3-13.68a3.905,3.905,0,0,1,2.9-1.191h6.57v.938h-6.57a2.961,2.961,0,0,0-2.227.909c-2.253,2.3-2.125,8.486-2.032,13,.019.861.035,1.672.035,2.4C368.257,462.3,367.533,464.013,362.741,464.013Z" transform="translate(-312.717 -407.848)" fill="#51799e"/>
            <rect id="Rectángulo_35296" data-name="Rectángulo 35296" width="32.541" height="6.571" rx="2.332" transform="translate(1.134)" fill="#008f85"/>
            <rect id="Rectángulo_35297" data-name="Rectángulo 35297" width="164.277" height="6.571" rx="2.332" transform="translate(34.145)" fill="#008f85"/>
            <rect id="Rectángulo_35298" data-name="Rectángulo 35298" width="29.471" height="35.045" transform="translate(62.149 41.303)" fill="#acc1d1"/>
            <rect id="Rectángulo_35299" data-name="Rectángulo 35299" width="29.471" height="16.036" transform="translate(62.149 21.903)" fill="#707b82"/>
            <path id="Trazado_164036" data-name="Trazado 164036" d="M424.509,419.22H355.28l19.947,13.611H404.8Z" transform="translate(-313.078 -409.989)" fill="#c7d0d8"/>
            <path id="Trazado_164037" data-name="Trazado 164037" d="M436.919,479.92l-90.819.469,31.368-7.979h29.569Z" transform="translate(-315.319 -397.002)" fill="#c7d0d8"/>
            <path id="Trazado_164038" data-name="Trazado 164038" d="M364.159,425.321h51.45l8.837-6.1H355.217Z" transform="translate(-313.093 -409.989)" opacity="0.25"/>
            <rect id="Rectángulo_35300" data-name="Rectángulo 35300" width="200.105" height="6.258" transform="translate(0 4.85)" fill="url(#linear-gradient)"/>
            <rect id="Rectángulo_35301" data-name="Rectángulo 35301" width="91.836" height="7.04" transform="translate(30.547 83.075)" fill="#f2f3f4"/>
            <rect id="Rectángulo_35302" data-name="Rectángulo 35302" width="35.827" height="4.381" rx="1.554" transform="translate(59.177 37.47)" fill="#f2f3f4"/>
            <g id="Grupo_127825" data-name="Grupo 127825" transform="translate(65.209 44.895)">
              <rect id="Rectángulo_35303" data-name="Rectángulo 35303" width="11.867" height="22.59" rx="0.667" transform="translate(0 11.867) rotate(-90)" fill="#fff"/>
              <g id="Grupo_127824" data-name="Grupo 127824" transform="translate(2.047 4.027)">
                <rect id="Rectángulo_35304" data-name="Rectángulo 35304" width="8.818" height="3.715" rx="0.263" fill="#7aa2cc"/>
                <rect id="Rectángulo_35305" data-name="Rectángulo 35305" width="8.138" height="3.135" transform="translate(0.293 0.279)" fill="#d93328"/>
                <g id="Grupo_127823" data-name="Grupo 127823" transform="translate(0.279 0.293)">
                  <g id="Grupo_127822" data-name="Grupo 127822" clip-path="url(#clip-path-2)">
                    <rect id="Rectángulo_35306" data-name="Rectángulo 35306" width="1.26" height="7.358" transform="translate(7.358 -0.818) rotate(49.414)" fill="#fff" opacity="0.26"/>
                    <rect id="Rectángulo_35307" data-name="Rectángulo 35307" width="0.846" height="7.358" transform="translate(5.08 -0.818) rotate(49.415)" fill="#fff" opacity="0.26"/>
                    <rect id="Rectángulo_35308" data-name="Rectángulo 35308" width="0.742" height="6.457" transform="translate(8.145 0.849) rotate(49.412)" fill="#fff" opacity="0.26"/>
                  </g>
                </g>
              </g>
              <rect id="Rectángulo_35310" data-name="Rectángulo 35310" width="8.753" height="9.194" rx="0.531" transform="translate(11.99 1.373)" fill="#7aa2cc"/>
              <rect id="Rectángulo_35311" data-name="Rectángulo 35311" width="1.913" height="0.883" rx="0.156" transform="translate(12.836 2.219)" fill="#b5d6ff"/>
              <rect id="Rectángulo_35312" data-name="Rectángulo 35312" width="1.912" height="0.883" rx="0.156" transform="translate(15.226 2.219)" fill="#b5d6ff"/>
              <rect id="Rectángulo_35313" data-name="Rectángulo 35313" width="1.912" height="0.883" rx="0.156" transform="translate(17.598 2.219)" fill="#b5d6ff"/>
              <rect id="Rectángulo_35314" data-name="Rectángulo 35314" width="1.913" height="0.883" rx="0.156" transform="translate(12.836 3.525)" fill="#b5d6ff"/>
              <rect id="Rectángulo_35315" data-name="Rectángulo 35315" width="1.912" height="0.883" rx="0.156" transform="translate(15.226 3.525)" fill="#b5d6ff"/>
              <rect id="Rectángulo_35316" data-name="Rectángulo 35316" width="1.912" height="0.883" rx="0.156" transform="translate(17.598 3.525)" fill="#b5d6ff"/>
              <rect id="Rectángulo_35317" data-name="Rectángulo 35317" width="1.913" height="0.883" rx="0.156" transform="translate(12.836 4.885)" fill="#b5d6ff"/>
              <rect id="Rectángulo_35318" data-name="Rectángulo 35318" width="1.912" height="0.883" rx="0.156" transform="translate(15.226 4.885)" fill="#b5d6ff"/>
              <rect id="Rectángulo_35319" data-name="Rectángulo 35319" width="1.912" height="0.883" rx="0.156" transform="translate(17.598 4.885)" fill="#b5d6ff"/>
              <rect id="Rectángulo_35320" data-name="Rectángulo 35320" width="1.913" height="0.883" rx="0.156" transform="translate(12.836 6.228)" fill="#b5d6ff"/>
              <rect id="Rectángulo_35321" data-name="Rectángulo 35321" width="1.912" height="0.883" rx="0.156" transform="translate(15.226 6.228)" fill="#b5d6ff"/>
              <rect id="Rectángulo_35322" data-name="Rectángulo 35322" width="1.912" height="0.883" rx="0.156" transform="translate(17.598 6.228)" fill="#b5d6ff"/>
              <rect id="Rectángulo_35323" data-name="Rectángulo 35323" width="4.487" height="1.729" transform="translate(13.939 8.14)" fill="#f2f2f2"/>
              <rect id="Rectángulo_35324" data-name="Rectángulo 35324" width="3.347" height="0.147" rx="0.05" transform="translate(14.435 8.49)" opacity="0.41"/>
              <rect id="Rectángulo_35325" data-name="Rectángulo 35325" width="3.347" height="0.147" rx="0.05" transform="translate(14.435 8.765)" opacity="0.41"/>
              <rect id="Rectángulo_35326" data-name="Rectángulo 35326" width="2.777" height="0.147" rx="0.05" transform="translate(14.435 9.041)" opacity="0.41"/>
              <rect id="Rectángulo_35327" data-name="Rectángulo 35327" width="1.324" height="0.147" rx="0.05" transform="translate(14.435 9.391)" opacity="0.41"/>
            </g>
            <g id="Grupo_127826" data-name="Grupo 127826" transform="translate(64.515 61.737)">
              <rect id="Rectángulo_35328" data-name="Rectángulo 35328" width="11.396" height="7.335" fill="#d7e9f4"/>
              <rect id="Rectángulo_35329" data-name="Rectángulo 35329" width="8.1" height="1.572" rx="0.558" transform="translate(1.528 0.502)" fill="#175a8b"/>
              <rect id="Rectángulo_35330" data-name="Rectángulo 35330" width="6.435" height="0.36" rx="0.128" transform="translate(2.342 1.081)" fill="#fff"/>
              <rect id="Rectángulo_35331" data-name="Rectángulo 35331" width="9.743" height="0.246" rx="0.087" transform="translate(0.753 2.931)" opacity="0.17"/>
              <rect id="Rectángulo_35332" data-name="Rectángulo 35332" width="9.743" height="0.246" rx="0.087" transform="translate(0.753 3.52)" opacity="0.17"/>
              <rect id="Rectángulo_35333" data-name="Rectángulo 35333" width="9.743" height="0.246" rx="0.087" transform="translate(0.753 4.159)" opacity="0.17"/>
              <rect id="Rectángulo_35334" data-name="Rectángulo 35334" width="9.743" height="0.246" rx="0.087" transform="translate(0.753 4.748)" opacity="0.17"/>
              <rect id="Rectángulo_35335" data-name="Rectángulo 35335" width="6.479" height="0.246" rx="0.087" transform="translate(2.576 5.403)" opacity="0.17"/>
            </g>
            <g id="Grupo_127828" data-name="Grupo 127828" transform="translate(39.952 11.534)">
              <g id="Grupo_127827" data-name="Grupo 127827">
                <rect id="Rectángulo_35336" data-name="Rectángulo 35336" width="8.753" height="9.195" rx="0.531" transform="translate(0.352 0.352)" fill="#7aa2cc"/>
                <path id="Trazado_164039" data-name="Trazado 164039" d="M362.077,430.97h-7.756a.851.851,0,0,1-.85-.851v-8.2a.851.851,0,0,1,.85-.851h7.756a.851.851,0,0,1,.851.851v8.2A.851.851,0,0,1,362.077,430.97Zm-7.756-9.194a.147.147,0,0,0-.146.147v8.2a.147.147,0,0,0,.146.147h7.756a.147.147,0,0,0,.147-.147v-8.2a.147.147,0,0,0-.147-.147Z" transform="translate(-353.471 -421.071)" fill="#f2f2f2"/>
              </g>
              <rect id="Rectángulo_35337" data-name="Rectángulo 35337" width="1.912" height="0.883" rx="0.156" transform="translate(1.198 1.198)" fill="#b5d6ff"/>
              <rect id="Rectángulo_35338" data-name="Rectángulo 35338" width="1.913" height="0.883" rx="0.156" transform="translate(3.588 1.198)" fill="#b5d6ff"/>
              <rect id="Rectángulo_35339" data-name="Rectángulo 35339" width="1.912" height="0.883" rx="0.156" transform="translate(5.961 1.198)" fill="#b5d6ff"/>
              <rect id="Rectángulo_35340" data-name="Rectángulo 35340" width="1.912" height="0.883" rx="0.156" transform="translate(1.198 2.503)" fill="#b5d6ff"/>
              <rect id="Rectángulo_35341" data-name="Rectángulo 35341" width="1.913" height="0.883" rx="0.156" transform="translate(3.588 2.503)" fill="#b5d6ff"/>
              <rect id="Rectángulo_35342" data-name="Rectángulo 35342" width="1.912" height="0.883" rx="0.156" transform="translate(5.961 2.503)" fill="#b5d6ff"/>
              <rect id="Rectángulo_35343" data-name="Rectángulo 35343" width="1.912" height="0.883" rx="0.156" transform="translate(1.198 3.864)" fill="#b5d6ff"/>
              <rect id="Rectángulo_35344" data-name="Rectángulo 35344" width="1.913" height="0.883" rx="0.156" transform="translate(3.588 3.864)" fill="#b5d6ff"/>
              <rect id="Rectángulo_35345" data-name="Rectángulo 35345" width="1.912" height="0.883" rx="0.156" transform="translate(5.961 3.864)" fill="#b5d6ff"/>
              <rect id="Rectángulo_35346" data-name="Rectángulo 35346" width="1.912" height="0.883" rx="0.156" transform="translate(1.198 5.206)" fill="#b5d6ff"/>
              <rect id="Rectángulo_35347" data-name="Rectángulo 35347" width="1.913" height="0.883" rx="0.156" transform="translate(3.588 5.206)" fill="#b5d6ff"/>
              <rect id="Rectángulo_35348" data-name="Rectángulo 35348" width="1.912" height="0.883" rx="0.156" transform="translate(5.961 5.206)" fill="#b5d6ff"/>
              <rect id="Rectángulo_35349" data-name="Rectángulo 35349" width="4.487" height="1.729" transform="translate(2.301 7.119)" fill="#f2f2f2"/>
              <rect id="Rectángulo_35350" data-name="Rectángulo 35350" width="3.347" height="0.147" rx="0.05" transform="translate(2.798 7.468)" opacity="0.41"/>
              <rect id="Rectángulo_35351" data-name="Rectángulo 35351" width="3.347" height="0.147" rx="0.05" transform="translate(2.798 7.744)" opacity="0.41"/>
              <rect id="Rectángulo_35352" data-name="Rectángulo 35352" width="2.777" height="0.147" rx="0.05" transform="translate(2.798 8.02)" opacity="0.41"/>
              <rect id="Rectángulo_35353" data-name="Rectángulo 35353" width="1.324" height="0.147" rx="0.05" transform="translate(2.798 8.369)" opacity="0.41"/>
            </g>
          </g>
          <path id="Trazado_164040" data-name="Trazado 164040" d="M324.6,415.915s30.354-1,40.307-.686,43.235,1.866,52.566.933c7.285-.729,93.312-.622,93.312-.622s2.8-19.907.622-20.529-5.6,3.733-8.4,9.02c0,0-29.86-7.465-50.078-7.154s-39.813,1.555-50.389.622S335.307,389.539,324.6,415.915Z" transform="translate(-317.32 -131.588)" fill="#1d272b"/>
          <path id="Trazado_164041" data-name="Trazado 164041" d="M357.591,400.881c-6.884-.05-12.728,5.821-19.612,5.9a51.715,51.715,0,0,1,23.893-9.106,103.073,103.073,0,0,1,15.474-.194,70.254,70.254,0,0,1,11.487,1.064,120.8,120.8,0,0,1-16.271,2.894l3.948,1.186-24.4,6.982a69.259,69.259,0,0,1,15.338-6.99,16.179,16.179,0,0,0-10.621-.408A2.327,2.327,0,0,1,357.591,400.881Z" transform="translate(-314.054 -131.018)" fill="#fff" opacity="0.28"/>
          <path id="Trazado_164042" data-name="Trazado 164042" d="M392.31,407.166a150.466,150.466,0,0,0,20.4-4.569c-8.091,0-16.317-.03-24.067-2.353l32.374-1.507c-.457.4.407.96,1.018.957l28.571-.156a254.951,254.951,0,0,0-33.749,5.106C408.766,406.429,400.465,408.62,392.31,407.166Z" transform="translate(-301.684 -130.663)" fill="#fff" opacity="0.28"/>
          <path id="Trazado_164043" data-name="Trazado 164043" d="M480.259,400.033c-.281-.469-1.023-.22-1.41.167-1.459,1.456-1.691,4.107-3.6,4.888a4.936,4.936,0,0,1-2.73.035c-8.423-1.532-16.977-3.945-25.407-2.457a90.6,90.6,0,0,1,19.561,3.884,46,46,0,0,0-10.239,2.379l18.369.549a1.532,1.532,0,0,0,1.823-1.2Q478.442,404.157,480.259,400.033Z" transform="translate(-287.407 -130.41)" fill="#fff" opacity="0.28"/>
          <g id="Grupo_127832" data-name="Grupo 127832" transform="translate(35.407 0)">
            <rect id="Rectángulo_35354" data-name="Rectángulo 35354" width="14.723" height="48.73" transform="matrix(1, -0.02, 0.02, 1, 90.897, 119.825)" fill="#868695"/>
            <rect id="Rectángulo_35355" data-name="Rectángulo 35355" width="14.723" height="147.926" transform="translate(0 9.315) rotate(-39.248)" fill="#868695"/>
            <g id="Grupo_127831" data-name="Grupo 127831" transform="translate(55.836 159.058)">
              <g id="Grupo_127830" data-name="Grupo 127830">
                <path id="Trazado_164044" data-name="Trazado 164044" d="M401.325,353.24c22.432-.323,40.822-5.04,43.028-10.783l-.051-19.744c-.243-5.936-19.683-10.46-43.563-10.115s-43.182,5.427-43.253,11.368L358,343.7C360.375,349.38,378.894,353.565,401.325,353.24Z" transform="translate(-357.486 -312.58)" fill="#d7e9f4"/>
                <path id="Trazado_164045" data-name="Trazado 164045" d="M444.273,338.378l-.022-8.784c-1.34-4.051-20.154-8.827-43.042-8.5s-41.938,4.127-43.515,9.747l.231,8.781c2.37,5.676,20.888,9.861,43.321,9.537S442.068,344.121,444.273,338.378Z" transform="translate(-357.435 -310.505)" fill="#515151" opacity="0.15"/>
                <path id="Trazado_164046" data-name="Trazado 164046" d="M444.3,340.342l-.022-8.784c-1.738-5.571-20.535-9.713-43.423-9.384s-41.558,5.013-43.134,10.633l.231,8.781c2.369,5.676,20.888,9.861,43.321,9.537S442.094,346.085,444.3,340.342Z" transform="translate(-357.429 -310.242)" fill="#fff"/>
              </g>
              <path id="Trazado_164047" data-name="Trazado 164047" d="M395.175,333.229c-10.262.482-18.669-1.013-18.778-3.337s8.122-4.6,18.384-5.082,18.669,1.013,18.778,3.338S405.437,332.747,395.175,333.229Z" transform="translate(-352.869 -309.616)" fill="#f7b242"/>
              <path id="Trazado_164048" data-name="Trazado 164048" d="M392.8,340.306c-5.132.24-9.359-.961-9.44-2.682s4.015-3.313,9.147-3.555,9.359.961,9.439,2.682S397.929,340.065,392.8,340.306Z" transform="translate(-351.169 -307.341)" fill="#f7b242"/>
              <path id="Trazado_164049" data-name="Trazado 164049" d="M416.121,340.82c-8.361.393-15.227-1.173-15.337-3.5s6.58-4.528,14.941-4.919,15.229,1.173,15.337,3.5S424.482,340.428,416.121,340.82Z" transform="translate(-346.914 -307.755)" fill="#f7b242"/>
              <path id="Trazado_164050" data-name="Trazado 164050" d="M373.035,342.057c-7.826-.175-14.127-2.206-14.075-4.533s6.44-4.07,14.266-3.893,14.128,2.206,14.075,4.533S380.861,342.234,373.035,342.057Z" transform="translate(-357.126 -307.443)" fill="#f7b242"/>
              <path id="Trazado_164051" data-name="Trazado 164051" d="M393.012,344.917c-7.224.338-13.126-.393-13.184-1.636s5.749-2.524,12.973-2.864,13.126.393,13.184,1.636S400.235,344.578,393.012,344.917Z" transform="translate(-352.031 -305.804)" fill="#f7b242"/>
            </g>
            <circle id="Elipse_4377" data-name="Elipse 4377" cx="8.32" cy="8.32" r="8.32" transform="translate(87.567 123.899) rotate(-68.813)" fill="#d7e9f4"/>
            <path id="Trazado_164052" data-name="Trazado 164052" d="M397.683,277.451a6.376,6.376,0,1,0-.57,9A6.376,6.376,0,0,0,397.683,277.451Z" transform="translate(-294.56 -162.627)" fill="#fff"/>
          </g>
        </g>
        <path id="Rectángulo_35356" data-name="Rectángulo 35356" d="M.613,0H322.269a.613.613,0,0,1,.613.613v0a.613.613,0,0,1-.613.613H.612A.612.612,0,0,1,0,.613v0A.613.613,0,0,1,.613,0Z" transform="translate(0.936 297.803)" fill="#1d272b"/>
      </g>
    </g>
    <g id="Grupo_127834" data-name="Grupo 127834" transform="translate(1264.825 6668.1)">
      <path id="Trazado_150797" data-name="Trazado 150797" d="M232.328,421.868c-6.09,0-14.408-5.426-17.1-7.3l3.32-4.767c5.006,3.483,12.03,6.844,14.316,6.219,1.868-1.656,4.9-23.987,7.807-27.708l2.719,3.708c-.715,12.3-2.761,27.4-8.459,29.437A7.753,7.753,0,0,1,232.328,421.868Z" transform="translate(-199.827 -344.203)" fill="#dfebf4"/>
      <path id="Trazado_150798" data-name="Trazado 150798" d="M218.588,407.412s-4.973-6.043-5.342-6.807-1.569-.916-1.288.038a8.851,8.851,0,0,0,1.341,2.274l-5.558-3.852s-.736-.623-1.133-.251.754,1.178.754,1.178l3.532,2.688-4.322-2.266s-.919-.427-1.178.007.873,1.008.873,1.008l4.136,2.531-4.418-1.935s-1.105-.484-1.336.041S206,403.229,206,403.229l4.129,2.093-2.549-.482s-.452-.064-.363.324.664.536.664.536,7.291,3.612,8.582,3.828,1.381.107,1.381.107l.72-2.061Z" transform="translate(-204.625 -339.506)" fill="#bc8364"/>
      <rect id="Rectángulo_34018" data-name="Rectángulo 34018" width="5.717" height="8.821" transform="matrix(-1, -0.017, 0.017, -1, 54.857, 44.219)" fill="#bc8364"/>
      <g id="Grupo_91805" data-name="Grupo 91805" transform="translate(48.011 166.998)">
        <path id="Trazado_150799" data-name="Trazado 150799" d="M251.124,472.925a6.94,6.94,0,0,0,0,3.706c.6,1.666,2.383,1.291,3.216,3.672v.264a2.265,2.265,0,0,1-2.118,2.269,5.492,5.492,0,0,0-3.271.877c-2.38,1.666-.426,7.166-3.654,7.06-1.917-.064-7.615,0-7.615,0s3.094-1.946,4.4-2.542S248,472.925,248,472.925Z" transform="translate(-237.682 -472.925)" fill="#bc8364"/>
        <path id="Trazado_150800" data-name="Trazado 150800" d="M251.837,475.875a5.416,5.416,0,0,1,2.5,3.094v.264a2.265,2.265,0,0,1-2.118,2.269c-1.144.07-1.724.731-2.882,1.541-2.379,1.666-.815,6.5-4.043,6.4-1.917-.064-7.615,0-7.615,0s2.973-2.7,4.4-2.542C247.958,487.545,249.819,478.893,251.837,475.875Z" transform="translate(-237.682 -471.591)" fill="#d93328"/>
        <path id="Trazado_150801" data-name="Trazado 150801" d="M247.064,479.791a43.085,43.085,0,0,1,.017,8.248h.745s.5-6.682,1.278-8.155S247.064,479.791,247.064,479.791Z" transform="translate(-233.438 -470.085)" fill="#d93328"/>
      </g>
      <g id="Grupo_91806" data-name="Grupo 91806" transform="translate(32.171 164.719)">
        <path id="Trazado_150802" data-name="Trazado 150802" d="M240.932,471.356s-1.311,4.319-.713,5.985,2.382,1.291,3.214,3.672v.264a2.265,2.265,0,0,1-2.118,2.269,5.5,5.5,0,0,0-3.271.877c-2.379,1.666-.426,7.166-3.654,7.06-1.917-.064-7.615,0-7.615,0s3.094-1.946,4.4-2.542,6.2-15.182,6.2-15.182Z" transform="translate(-226.776 -471.356)" fill="#bc8364"/>
        <path id="Trazado_150803" data-name="Trazado 150803" d="M240.931,475.875a5.416,5.416,0,0,1,2.5,3.094v.264a2.265,2.265,0,0,1-2.118,2.269c-1.143.07-1.724.731-2.882,1.541-2.379,1.666-.815,6.5-4.043,6.4-1.917-.064-7.615,0-7.615,0s2.974-2.7,4.4-2.542C237.052,487.545,238.913,478.893,240.931,475.875Z" transform="translate(-226.776 -469.312)" fill="#d93328"/>
        <path id="Trazado_150804" data-name="Trazado 150804" d="M236.158,479.791a43.086,43.086,0,0,1,.017,8.248h.745s.5-6.682,1.278-8.155S236.158,479.791,236.158,479.791Z" transform="translate(-222.532 -467.806)" fill="#d93328"/>
      </g>
      <path id="Trazado_150805" data-name="Trazado 150805" d="M236.32,411.932c4.754,1.309,9.652,1.4,14.572,1.627,3.39,3.236,9.2,7.077,10.124,11.259,1.275,5.782-1.827,11.591-1.827,11.591l-3.275,27.225s8.781,1.833-.786,39.487l-4.608,5.131s1.985-33.4-.433-42.829c-6.068-23.665-3.319-31.978-4.941-33.277-2.948-2.357-3.294.363-3.294.363l-2.659,30.524s8.7,8.353.283,41.391l-3.74,3.131s-.033-33.194-2.412-42.637c-1.1-4.37-6.989-29.689-4.412-38.768C230.192,421.635,234.838,414.227,236.32,411.932Z" transform="translate(-193.931 -333.519)" fill="#bc8364"/>
      <path id="Trazado_150806" data-name="Trazado 150806" d="M229.128,437.161l2.13,13.658h25.306l1.131-20.134Z" transform="translate(-193.541 -325.035)" fill="#1d272b"/>
      <path id="Trazado_150807" data-name="Trazado 150807" d="M248.908,420.247c.11.723,8.916,10.7,9.607,11.523-14.3,3.831-26.905,1.988-28.176.608,1.391-3.827,6.618-11.2,6.618-11.2l-4.116-13.222c-4.963-1.673-3.359-6.611-3.359-6.611,4.173-2.88,4.992-12.8,4.992-12.8l12.376-.356s9.747,1.076,11.034,2.007-.828,10.431-.828,10.431S248.325,416.379,248.908,420.247Z" transform="translate(-193.492 -344.259)" fill="#e6b89c"/>
      <path id="Trazado_150808" data-name="Trazado 150808" d="M258.216,464.043a61.349,61.349,0,0,1-13.538,1.057c-.115-.347-2.55-7.536-2.55-7.536l-1.188,7.391c-3.159-.164-7.85.034-10.813-1.043-1.736-9.217-2.757-21.56-1.172-27.142a30.242,30.242,0,0,1,2.006-4.873,54.161,54.161,0,0,1,4.5-7.923c.362-.578.93-1.417.941-1.413a4.356,4.356,0,0,0,.726-1.522l-3.956-12.871c-4.963-1.673-3.205-6.947-3.205-6.947,4.173-2.88,4.992-12.8,4.992-12.8l12.376-.354s9.747,1.076,11.034,2.006-.629,10.788-.629,10.788-8.931,15.394-8.347,19.263c.1.626,6.716,8.194,8.935,10.743a10.5,10.5,0,0,1,2.733,4.566c1.275,5.782-.887,12.6-.887,12.6Z" transform="translate(-193.975 -344.313)" fill="#fff"/>
      <path id="Trazado_150809" data-name="Trazado 150809" d="M237.229,399.772a9.237,9.237,0,0,0,9.968.492S241.532,407.05,237.229,399.772Z" transform="translate(-189.876 -339.019)" fill="#020202" opacity="0.23"/>
      <path id="Trazado_150810" data-name="Trazado 150810" d="M247.015,388.383l3.3.434-6.494,8.29,2.145.87-8.7,8.406-2.029-9.972,1.566-.347-1.566-7.885S245.391,388.122,247.015,388.383Z" transform="translate(-190.774 -344.266)" fill="#dfebf4"/>
      <path id="Trazado_150811" data-name="Trazado 150811" d="M246.383,388.464l-9.741,18,1.044-18.349A35.816,35.816,0,0,1,246.383,388.464Z" transform="translate(-190.142 -344.347)" fill="#d93328"/>
      <path id="Trazado_150812" data-name="Trazado 150812" d="M241.457,387.958c-.434-.012-4.963,1.155-4.963,1.155s1.647,1.547,4.576-.337c0,0,1.508,2.5,6.546.747C247.616,389.522,241.892,387.968,241.457,387.958Z" transform="translate(-190.208 -344.364)" fill="#4b4b4c" opacity="0.49"/>
      <path id="Trazado_150813" data-name="Trazado 150813" d="M245.19,386.48a31.209,31.209,0,0,1-3.714,1.476c-.434-.012-1.936-1.39-1.936-1.39l-3.111,3.169s1.715,1,4.645-.887c0,0,1.009,2.007,6.491,1.341A12.031,12.031,0,0,1,245.19,386.48Z" transform="translate(-190.238 -345.032)" fill="#d93328"/>
      <path id="Trazado_150814" data-name="Trazado 150814" d="M235.8,402.418a.752.752,0,1,1,.765.738A.753.753,0,0,1,235.8,402.418Z" transform="translate(-190.525 -338.168)" fill="#666"/>
      <path id="Trazado_150815" data-name="Trazado 150815" d="M235.855,405.732a.752.752,0,1,1,.765.738A.751.751,0,0,1,235.855,405.732Z" transform="translate(-190.498 -336.669)" fill="#666"/>
      <path id="Trazado_150816" data-name="Trazado 150816" d="M235.915,409.046a.752.752,0,1,1,.765.739A.751.751,0,0,1,235.915,409.046Z" transform="translate(-190.47 -335.171)" fill="#666"/>
      <path id="Trazado_150817" data-name="Trazado 150817" d="M235.889,412.144a.752.752,0,1,1,.773.732A.753.753,0,0,1,235.889,412.144Z" transform="translate(-190.482 -333.772)" fill="#666"/>
      <path id="Trazado_150818" data-name="Trazado 150818" d="M235.977,415.456a.753.753,0,1,1,.773.732A.752.752,0,0,1,235.977,415.456Z" transform="translate(-190.442 -332.273)" fill="#666"/>
      <path id="Trazado_150819" data-name="Trazado 150819" d="M236.065,418.769a.753.753,0,1,1,.773.732A.752.752,0,0,1,236.065,418.769Z" transform="translate(-190.403 -330.775)" fill="#666"/>
      <path id="Trazado_150820" data-name="Trazado 150820" d="M236.341,422.5a.752.752,0,1,1,.771.732A.751.751,0,0,1,236.341,422.5Z" transform="translate(-190.278 -329.085)" fill="#666"/>
      <path id="Trazado_150821" data-name="Trazado 150821" d="M236.548,426.058a.753.753,0,1,1,.773.732A.754.754,0,0,1,236.548,426.058Z" transform="translate(-190.184 -327.478)" fill="#666"/>
      <path id="Trazado_150822" data-name="Trazado 150822" d="M236.637,429.25a.752.752,0,1,1,.771.732A.751.751,0,0,1,236.637,429.25Z" transform="translate(-190.144 -326.033)" fill="#666"/>
      <path id="Trazado_150823" data-name="Trazado 150823" d="M236.939,432.086a.753.753,0,1,1,.773.73A.754.754,0,0,1,236.939,432.086Z" transform="translate(-190.007 -324.751)" fill="#666"/>
      <path id="Trazado_150824" data-name="Trazado 150824" d="M237.147,435.517a.753.753,0,1,1,.773.732A.751.751,0,0,1,237.147,435.517Z" transform="translate(-189.913 -323.198)" fill="#666"/>
      <path id="Rectángulo_34019" data-name="Rectángulo 34019" d="M3.129,0H6.378a3.13,3.13,0,0,1,3.13,3.13v9.276a0,0,0,0,1,0,0H0a0,0,0,0,1,0,0V3.129A3.129,3.129,0,0,1,3.129,0Z" transform="translate(60.346 102.55) rotate(-179.191)" fill="#dfebf4"/>
      <path id="Rectángulo_34020" data-name="Rectángulo 34020" d="M1.87,0H5.162A1.871,1.871,0,0,1,7.033,1.871v8.553a0,0,0,0,1,0,0H0a0,0,0,0,1,0,0V1.87A1.87,1.87,0,0,1,1.87,0Z" transform="matrix(-1, -0.014, 0.014, -1, 42.788, 100.958)" fill="#dfebf4"/>
      <path id="Trazado_150825" data-name="Trazado 150825" d="M252.956,387.662a1.456,1.456,0,0,0,.991-1.773c.873.084,1.519-.764,1.978-1.512q.259-.425.52-.85a2.353,2.353,0,0,0,.5-1.592,2.345,2.345,0,0,1-.144-.742c.074-.529.831-.821.776-1.352-.022-.219-.187-.4-.225-.619-.112-.655.921-1.044.889-1.708-.017-.344-.325-.613-.378-.954-.106-.7.882-1.314.59-1.959-.09-.2-.288-.331-.392-.524-.288-.524.225-1.152.163-1.747-.078-.767-1.07-1.236-1.052-2.007.007-.3.18-.617.064-.9a.963.963,0,0,0-.341-.367l-1.362-1.021a2.09,2.09,0,0,0,1.783-.656,3.962,3.962,0,0,1,.505-.55,10.929,10.929,0,0,1,1.04-.455c.718-.426.806-1.409.812-2.242a2.7,2.7,0,0,0-.372-1.715,1.154,1.154,0,0,1-.463-1.255,1.357,1.357,0,0,0-1.769-1.192,1.645,1.645,0,0,0-.951-1.6,4.839,4.839,0,0,0-1.932-.41,1.975,1.975,0,0,0-.914.08.675.675,0,0,0-.436.729,1.447,1.447,0,0,1-.93-.016,1.3,1.3,0,0,0-.924.022c-.274.155-.363.625-.081.768a.749.749,0,0,0-1.082,1.015,1.966,1.966,0,0,0-1.338.091c-.391.235-.514.909-.109,1.121-.442.048-.494.681-.35,1.1s.333.95.009,1.255a4.383,4.383,0,0,0-1.776-.433,1.5,1.5,0,0,0-1.418.977,2.106,2.106,0,0,0-2.52-.092c-.863-.709-2.144-.254-3.15.225l-1.1.527a2.642,2.642,0,0,0-1.041.723,5.492,5.492,0,0,0-1.858.094,1.869,1.869,0,0,0-1.33,1.2,1.274,1.274,0,0,1-.174.489.758.758,0,0,1-.417.224c-.44.112-.9.113-1.336.251a1.2,1.2,0,0,0-.9.916c-.029.3.107.63-.046.889-.1.173-.312.257-.437.417-.412.523.314,1.307.074,1.929-.134.346-.553.594-.505.96.031.224.231.382.325.587.253.55-.315,1.134-.346,1.74-.028.545.379,1,.636,1.481a2.9,2.9,0,0,1,.277,1.92,1.166,1.166,0,0,0-.036.617c.113.318.5.423.758.641.532.447.436,1.272.609,1.945a4.623,4.623,0,0,0,1.8,2.234,35.252,35.252,0,0,0,7.576,5.115,11.851,11.851,0,0,0,8.912.642l-.338-.472a1.786,1.786,0,0,0,1.714-1.4,1.2,1.2,0,0,1,.139-.481C252.294,387.737,252.657,387.737,252.956,387.662Z" transform="translate(-193.113 -357.942)" fill="#35302c"/>
      <path id="Trazado_150826" data-name="Trazado 150826" d="M253.2,384.04c.379.115-4.732,8.493-10.977,9.18-5.788.636-9.8-11.526-9.808-11.545-.089-.42-1.147-8.007-1.516-11.726-.38-3.828,17.7-10.1,22.317.142.725,1.606.212,10.605.212,10.605s2.376-1.77,2.645,1.564C256.178,383.5,253.2,384.04,253.2,384.04Z" transform="translate(-192.74 -354.968)" fill="#bc8364"/>
      <path id="Trazado_150827" data-name="Trazado 150827" d="M241.665,373.461a.762.762,0,0,0,.828-.488.732.732,0,0,1-.221.617.51.51,0,0,0,.6-.15.572.572,0,0,1-.314.488,1.653,1.653,0,0,1-.584.164.228.228,0,0,1-.15-.009.243.243,0,0,1-.1-.164l-.1-.376" transform="translate(-187.884 -351.142)" fill="#1a1a1a"/>
      <path id="Trazado_150828" data-name="Trazado 150828" d="M240.006,374.758a1.539,1.539,0,1,1,1.721,1.332A1.537,1.537,0,0,1,240.006,374.758Z" transform="translate(-188.625 -351.119)" fill="#333"/>
      <path id="Trazado_150829" data-name="Trazado 150829" d="M233.82,374.448a.748.748,0,0,1-.777-.591.817.817,0,0,0,.158.68.482.482,0,0,1-.587-.209.613.613,0,0,0,.263.549,1.585,1.585,0,0,0,.566.224.23.23,0,0,0,.15,0,.276.276,0,0,0,.113-.168l.137-.4" transform="translate(-191.965 -350.742)" fill="#1a1a1a"/>
      <path id="Trazado_150830" data-name="Trazado 150830" d="M233.239,375.4a1.377,1.377,0,1,1,1.506,1.235A1.376,1.376,0,0,1,233.239,375.4Z" transform="translate(-191.684 -350.727)" fill="#333"/>
      <path id="Trazado_150831" data-name="Trazado 150831" d="M240.559,373.877a.454.454,0,1,1,.507.394A.455.455,0,0,1,240.559,373.877Z" transform="translate(-188.371 -350.964)" fill="#fff" opacity="0.43"/>
      <path id="Trazado_150832" data-name="Trazado 150832" d="M233.487,374.86a.374.374,0,1,1,.41.336A.375.375,0,0,1,233.487,374.86Z" transform="translate(-191.57 -350.475)" fill="#fff" opacity="0.43"/>
      <path id="Trazado_150833" data-name="Trazado 150833" d="M236.836,372.962a7.444,7.444,0,0,0-3.564.179,8.989,8.989,0,0,0-1.537,1.114l1.123-1.708a6.86,6.86,0,0,1,3.454-.7A.788.788,0,0,1,236.836,372.962Z" transform="translate(-192.361 -351.65)" fill="#35302c"/>
      <path id="Trazado_150834" data-name="Trazado 150834" d="M239.163,372.274a7.443,7.443,0,0,1,3.529-.527,9.092,9.092,0,0,1,1.725.792l-1.435-1.454a6.858,6.858,0,0,0-3.523,0A.79.79,0,0,0,239.163,372.274Z" transform="translate(-189.076 -352.089)" fill="#35302c"/>
      <path id="Trazado_150835" data-name="Trazado 150835" d="M237.147,375.448l.34,3.162c.026.254-.321-.042-.577-.026-.338.022-.484.619-.455.917.049.487.443.69,2.382.312a.482.482,0,0,0,.378-.468C239.172,378.133,238.94,374.569,237.147,375.448Z" transform="translate(-190.227 -350.085)" fill="#1a1a1a" opacity="0.49"/>
      <path id="Trazado_150836" data-name="Trazado 150836" d="M237.351,375.353l.256,2.938s-1.22-.065-1.022,1.081c.083.481.534.664,2.5.274a.658.658,0,0,0,.519-.463c.068-.274.459-.315-.308-1.281C238.395,376.766,239.088,374.751,237.351,375.353Z" transform="translate(-190.178 -350.115)" fill="#ba6565"/>
      <path id="Trazado_150837" data-name="Trazado 150837" d="M236.838,378.292a.876.876,0,0,0,1.059-.142.284.284,0,0,0,.092-.152c.032-.174-.147-.293-.288-.33a.881.881,0,0,0-.67.025.613.613,0,0,0-.254.7" transform="translate(-190.094 -349.043)" fill="#fff" opacity="0.43"/>
      <path id="Trazado_150838" data-name="Trazado 150838" d="M239.94,376.911a1.065,1.065,0,0,0,.382,1.06,2.343,2.343,0,0,0,1.085.457,8.556,8.556,0,0,0,4.649-.559,2.975,2.975,0,0,0,1.083-.617,1.173,1.173,0,0,0,.346-1.143,1.2,1.2,0,0,0-.931-.738,3.522,3.522,0,0,0-1.239.046l-3.868.61C240.837,376.124,240.11,376.318,239.94,376.911Z" transform="translate(-188.664 -350.075)" fill="#ba6565" opacity="0.52"/>
      <path id="Trazado_150839" data-name="Trazado 150839" d="M236.571,377.02a1.928,1.928,0,0,0-.736-.086,19.07,19.07,0,0,1-2.1-.106,1.154,1.154,0,0,0-.934.163.567.567,0,0,0-.084.691.967.967,0,0,0,.362.3,3.621,3.621,0,0,0,1.779.484,2.888,2.888,0,0,0,1.74-.575.606.606,0,0,0,.3-.526A.494.494,0,0,0,236.571,377.02Z" transform="translate(-191.952 -349.409)" fill="#ba6565" opacity="0.52"/>
      <g id="Grupo_91807" data-name="Grupo 91807" transform="translate(45.963 30.808)">
        <path id="Trazado_150840" data-name="Trazado 150840" d="M243.345,379.8s-2.524-.972-3.5-.526c-.911.414-.953.887-.953.887a1.37,1.37,0,0,0-1.073-.437,5.012,5.012,0,0,0-1.545,1.112s.97,3.538,3.544,3.115C243.062,383.417,243.345,379.8,243.345,379.8Z" transform="translate(-236.272 -379.154)" fill="#934c4c"/>
        <path id="Trazado_150841" data-name="Trazado 150841" d="M238.108,382.128a1.335,1.335,0,0,0,1.293-.288c.045-.042.091-.1.068-.161-.031-.078-.142-.068-.222-.042a2.063,2.063,0,0,1-1.368.131.313.313,0,0,0,.221.388" transform="translate(-235.551 -378.04)" fill="#fff" opacity="0.43"/>
        <path id="Trazado_150842" data-name="Trazado 150842" d="M243.37,379.54a17.847,17.847,0,0,1-7.1,1.12S238.875,384.565,243.37,379.54Z" transform="translate(-236.272 -378.98)" fill="#fff"/>
      </g>
      <path id="Trazado_150843" data-name="Trazado 150843" d="M251.553,375.551c-.038-.293.147-.6.058-.879a1.317,1.317,0,0,0-.312-.43,1.792,1.792,0,0,1-.4-1.481c.012.517.025,1.036.036,1.554a.78.78,0,0,0,.094.431c.077.11.206.176.282.286.221.322-.123.725-.184,1.11a1.94,1.94,0,0,0,.373,1.134.988.988,0,0,1,.006,1.134c.227-.176.144-.546-.032-.773a2.5,2.5,0,0,1-.51-.685c-.134-.428.186-.912.022-1.33-.168-.437-.793-.609-.868-1.07-.052-.325.2-.658.1-.97-.089-.261-.385-.376-.61-.536a1.348,1.348,0,0,1-.463-1.529,1.186,1.186,0,0,1-1.163-1.011,1.221,1.221,0,0,0-.077-.437,1.38,1.38,0,0,0-.3-.308,1.9,1.9,0,0,1-.347-1.51l-.928.071a3.33,3.33,0,0,0,.6,1.775c-.046-.285-.436-.314-.693-.447-.5-.26-.5-.967-.42-1.528a1.017,1.017,0,0,1-1.031-.372c-.016.436-.579.6-1.015.578s-.948-.1-1.234.229a1.189,1.189,0,0,1-.231.264c-.264.167-.594-.132-.906-.1-.259.025-.437.267-.553.5a3.518,3.518,0,0,0-.35,1.2.589.589,0,0,1-.081.3c-.155.211-.616.314-.465.529.256-.1.254-.463.15-.715s-.269-.518-.182-.777a1.463,1.463,0,0,1,.3-.4,1.131,1.131,0,0,0,.174-1.1c-.256.6-1.372.167-1.724.717-.084.131-.1.3-.211.412-.3.318-1.005-.013-1.185.383-.041.089-.036.193-.086.279-.1.176-.357.171-.546.1a1.3,1.3,0,0,0-.574-.171c-.337.036-.494.421-.677.706s-.661.488-.816.187a.862.862,0,0,1-.678.851c-.334.062-.78-.032-.928.273-.139.286.164.658,0,.93-.121.2-.431.222-.549.424-.09.155-.031.35-.032.529a2.018,2.018,0,0,1-.337.85,5.684,5.684,0,0,0-.394,2.787l-.787-5.87a3.665,3.665,0,0,1,1.227-4.025,14.146,14.146,0,0,1,2.475-2.119,11.2,11.2,0,0,1,2.714-1.142c4.884-1.463,10.386-1.355,14.855,1.1a7.593,7.593,0,0,1,1.906,1.394,8.541,8.541,0,0,1,1.566,2.7,7.722,7.722,0,0,1,.655,2.5,10.323,10.323,0,0,1-1.2,4.309,34.139,34.139,0,0,0-1.7,5.218c.234-.421-.478-.783-.546-1.261-.039-.286.164-.545.228-.825.166-.72-.584-1.365-.574-2.1a2.741,2.741,0,0,0,.017-.511C252.4,376.333,251.626,376.1,251.553,375.551Z" transform="translate(-192.808 -355.474)" fill="#35302c"/>
      <path id="Trazado_150844" data-name="Trazado 150844" d="M232.645,379.457a34.538,34.538,0,0,0,7.353.106c3.332-.414,12.842-4.023,12.842-4.023l-.331.546-4.424,1.769s.744,3.932,1.015,4.056l3.314-2.858s.132.289-.285,1.043-7.183,10.5-13.569,7.658C238.561,387.754,233.986,384.078,232.645,379.457Z" transform="translate(-191.95 -349.981)" fill="#eeebf5"/>
      <g id="Grupo_91813" data-name="Grupo 91813" transform="translate(1.499 48.611)">
        <path id="Trazado_150845" data-name="Trazado 150845" d="M225.053,391.418l-19.269,5.061a.174.174,0,0,0-.122.211l6.73,25.617a.174.174,0,0,0,.211.122l19.267-5.063a.17.17,0,0,0,.122-.209l-6.73-25.617A.17.17,0,0,0,225.053,391.418Z" transform="translate(-205.657 -391.412)" fill="#333"/>
        <rect id="Rectángulo_34021" data-name="Rectángulo 34021" width="17.234" height="24.681" transform="translate(1.666 5.631) rotate(-14.721)" fill="#fff"/>
        <g id="Grupo_91808" data-name="Grupo 91808" transform="translate(3.776 4.108)">
          <path id="Trazado_150846" data-name="Trazado 150846" d="M222.16,394.243l-13.851,3.638a.072.072,0,0,0-.049.087l.007.031a.073.073,0,0,0,.087.051l13.851-3.64a.071.071,0,0,0,.049-.086l-.007-.032A.072.072,0,0,0,222.16,394.243Z" transform="translate(-208.257 -394.24)" fill="#333" opacity="0.37"/>
          <path id="Trazado_150847" data-name="Trazado 150847" d="M222.273,394.668l-13.851,3.64a.071.071,0,0,0-.051.086l.009.03a.071.071,0,0,0,.086.051l13.851-3.64a.07.07,0,0,0,.051-.086l-.009-.03A.07.07,0,0,0,222.273,394.668Z" transform="translate(-208.207 -394.048)" fill="#333" opacity="0.37"/>
          <path id="Trazado_150848" data-name="Trazado 150848" d="M222.391,395.122l-13.851,3.64a.07.07,0,0,0-.049.086l.007.032a.072.072,0,0,0,.087.049l13.851-3.638a.071.071,0,0,0,.049-.087l-.007-.031A.072.072,0,0,0,222.391,395.122Z" transform="translate(-208.153 -393.843)" fill="#333" opacity="0.37"/>
          <path id="Trazado_150849" data-name="Trazado 150849" d="M222.5,395.548l-13.851,3.638a.071.071,0,0,0-.049.087l.007.031a.071.071,0,0,0,.087.049l13.85-3.638a.072.072,0,0,0,.051-.087l-.007-.03A.071.071,0,0,0,222.5,395.548Z" transform="translate(-208.102 -393.65)" fill="#333" opacity="0.37"/>
        </g>
        <g id="Grupo_91809" data-name="Grupo 91809" transform="translate(7.218 17.208)">
          <path id="Trazado_150850" data-name="Trazado 150850" d="M224.53,403.263,210.679,406.9a.071.071,0,0,0-.049.087l.007.03a.073.073,0,0,0,.087.051l13.85-3.64a.071.071,0,0,0,.051-.086l-.007-.032A.071.071,0,0,0,224.53,403.263Z" transform="translate(-210.627 -403.26)" fill="#333" opacity="0.37"/>
          <path id="Trazado_150851" data-name="Trazado 150851" d="M224.643,403.688l-13.851,3.64a.07.07,0,0,0-.051.086l.009.03a.07.07,0,0,0,.086.051l13.851-3.64a.07.07,0,0,0,.051-.086l-.009-.031A.07.07,0,0,0,224.643,403.688Z" transform="translate(-210.577 -403.068)" fill="#333" opacity="0.37"/>
          <path id="Trazado_150852" data-name="Trazado 150852" d="M224.761,404.142l-13.851,3.64a.069.069,0,0,0-.049.086l.007.03a.072.072,0,0,0,.087.051l13.85-3.638a.072.072,0,0,0,.051-.087l-.007-.03A.072.072,0,0,0,224.761,404.142Z" transform="translate(-210.523 -402.863)" fill="#333" opacity="0.37"/>
          <path id="Trazado_150853" data-name="Trazado 150853" d="M224.874,404.567l-13.851,3.64a.073.073,0,0,0-.051.087l.009.031a.069.069,0,0,0,.086.049l13.851-3.638a.072.072,0,0,0,.051-.087l-.009-.03A.071.071,0,0,0,224.874,404.567Z" transform="translate(-210.472 -402.67)" fill="#333" opacity="0.37"/>
        </g>
        <g id="Grupo_91810" data-name="Grupo 91810" transform="translate(4.54 7.018)">
          <path id="Trazado_150854" data-name="Trazado 150854" d="M222.688,396.247l-13.851,3.638a.072.072,0,0,0-.051.087l.009.031a.07.07,0,0,0,.086.051l13.851-3.64a.07.07,0,0,0,.051-.086l-.009-.032A.07.07,0,0,0,222.688,396.247Z" transform="translate(-208.783 -396.244)" fill="#333" opacity="0.37"/>
          <path id="Trazado_150855" data-name="Trazado 150855" d="M222.8,396.672l-13.851,3.64a.07.07,0,0,0-.051.086l.009.03a.07.07,0,0,0,.086.051l13.851-3.638a.073.073,0,0,0,.051-.087l-.009-.03A.071.071,0,0,0,222.8,396.672Z" transform="translate(-208.733 -396.052)" fill="#333" opacity="0.37"/>
          <path id="Trazado_150856" data-name="Trazado 150856" d="M222.919,397.126l-13.851,3.64a.071.071,0,0,0-.051.086l.009.032a.069.069,0,0,0,.086.049l13.851-3.638a.072.072,0,0,0,.051-.087l-.009-.031A.07.07,0,0,0,222.919,397.126Z" transform="translate(-208.679 -395.847)" fill="#333" opacity="0.37"/>
          <path id="Trazado_150857" data-name="Trazado 150857" d="M223.031,397.552,209.18,401.19a.072.072,0,0,0-.051.087l.009.031a.071.071,0,0,0,.086.051l13.851-3.64a.073.073,0,0,0,.051-.087l-.009-.03A.069.069,0,0,0,223.031,397.552Z" transform="translate(-208.628 -395.654)" fill="#333" opacity="0.37"/>
        </g>
        <g id="Grupo_91811" data-name="Grupo 91811" transform="translate(5.192 9.5)">
          <path id="Trazado_150858" data-name="Trazado 150858" d="M223.137,397.955l-13.851,3.64a.07.07,0,0,0-.051.086l.009.032a.07.07,0,0,0,.086.049l13.851-3.638a.073.073,0,0,0,.051-.087l-.009-.031A.071.071,0,0,0,223.137,397.955Z" transform="translate(-209.232 -397.953)" fill="#333" opacity="0.37"/>
          <path id="Trazado_150859" data-name="Trazado 150859" d="M223.247,398.381l-13.85,3.638a.072.072,0,0,0-.051.087l.007.031a.073.073,0,0,0,.087.051l13.851-3.64a.071.071,0,0,0,.049-.087l-.007-.03A.071.071,0,0,0,223.247,398.381Z" transform="translate(-209.182 -397.76)" fill="#333" opacity="0.37"/>
          <path id="Trazado_150860" data-name="Trazado 150860" d="M223.368,398.835l-13.851,3.638a.072.072,0,0,0-.051.087l.009.031a.07.07,0,0,0,.086.051L223.411,399a.07.07,0,0,0,.051-.086l-.009-.032A.07.07,0,0,0,223.368,398.835Z" transform="translate(-209.128 -397.555)" fill="#333" opacity="0.37"/>
          <path id="Trazado_150861" data-name="Trazado 150861" d="M223.48,399.26l-13.851,3.64a.07.07,0,0,0-.051.086l.009.03a.07.07,0,0,0,.086.051l13.851-3.64a.071.071,0,0,0,.051-.086l-.009-.03A.071.071,0,0,0,223.48,399.26Z" transform="translate(-209.077 -397.363)" fill="#333" opacity="0.37"/>
        </g>
        <g id="Grupo_91812" data-name="Grupo 91812" transform="translate(5.847 11.991)">
          <path id="Trazado_150862" data-name="Trazado 150862" d="M223.586,399.671l-13.85,3.64a.07.07,0,0,0-.051.086l.007.031a.072.072,0,0,0,.087.051l13.851-3.64a.069.069,0,0,0,.049-.086l-.007-.031A.072.072,0,0,0,223.586,399.671Z" transform="translate(-209.683 -399.668)" fill="#333" opacity="0.37"/>
          <path id="Trazado_150863" data-name="Trazado 150863" d="M223.7,400.1l-13.851,3.64a.07.07,0,0,0-.049.086l.007.032a.071.071,0,0,0,.087.049l13.851-3.638a.072.072,0,0,0,.049-.087l-.007-.031A.072.072,0,0,0,223.7,400.1Z" transform="translate(-209.633 -399.476)" fill="#333" opacity="0.37"/>
          <path id="Trazado_150864" data-name="Trazado 150864" d="M223.819,400.551l-13.851,3.638a.072.072,0,0,0-.051.087l.009.03a.071.071,0,0,0,.086.051l13.851-3.64a.073.073,0,0,0,.051-.087l-.009-.03A.07.07,0,0,0,223.819,400.551Z" transform="translate(-209.579 -399.27)" fill="#333" opacity="0.37"/>
          <path id="Trazado_150865" data-name="Trazado 150865" d="M223.929,400.976l-13.851,3.638a.072.072,0,0,0-.049.087l.007.03a.072.072,0,0,0,.087.051l13.851-3.64a.07.07,0,0,0,.049-.086l-.007-.03A.072.072,0,0,0,223.929,400.976Z" transform="translate(-209.528 -399.078)" fill="#333" opacity="0.37"/>
        </g>
        <rect id="Rectángulo_34022" data-name="Rectángulo 34022" width="4.222" height="2.035" transform="matrix(0.967, -0.254, 0.254, 0.967, 7.353, 1.675)" fill="#b3b3b3"/>
        <rect id="Rectángulo_34023" data-name="Rectángulo 34023" width="6.95" height="1.446" transform="matrix(0.967, -0.254, 0.254, 0.967, 6.401, 3.42)" fill="#b3b3b3"/>
      </g>
      <path id="Trazado_150866" data-name="Trazado 150866" d="M249.344,423.64s-3.651,7.1-4.267,7.758-.07,1.818.808,1.159a8.124,8.124,0,0,0,1.691-2.187l-.908,6.7s-.244.935.4,1.139.839-1.188.839-1.188l.839-4.36.093,4.9s.08,1.02.709,1.07.582-1.224.582-1.224l.309-4.845.513,4.849s.128,1.211.838,1.2.468-1.725.468-1.725l-.166-4.651.988,2.527s.2.439.571.193.192-.832.192-.832-.386-8.178-.918-9.448-.7-1.3-.7-1.3l-2.683.219Z" transform="translate(-186.445 -328.343)" fill="#bc8364"/>
      <path id="Trazado_150867" data-name="Trazado 150867" d="M252.818,442.509l-5.714-1.044c.026-.148,2.683-14.756,2.858-22.42.171-7.56-2.363-17.959-3.088-21.235l3.025-8.351c1.15.3,6.058,21.491,5.87,29.72C255.586,427.3,252.931,441.891,252.818,442.509Z" transform="translate(-185.513 -343.685)" fill="#dfebf4"/>
    </g>
    <g id="Grupo_128373" data-name="Grupo 128373">
      <path id="Trazado_165504" data-name="Trazado 165504" d="M3.989-2.236H9.9V0H1.206V-13.508H3.989ZM19.3-2.783h-4.88L13.489,0H10.53l5.028-13.508h2.579L23.193,0H20.234ZM15.168-5.038h3.377l-1.7-5.056ZM24.455,0V-13.508h4.731a6.213,6.213,0,0,1,3.729.942,3.22,3.22,0,0,1,1.271,2.76,3.052,3.052,0,0,1-.51,1.749,2.947,2.947,0,0,1-1.419,1.109A2.852,2.852,0,0,1,33.895-5.9a3.1,3.1,0,0,1,.6,1.93,3.565,3.565,0,0,1-1.243,2.95A5.6,5.6,0,0,1,29.706,0Zm2.783-5.882v3.646h2.384A2.3,2.3,0,0,0,31.158-2.7,1.607,1.607,0,0,0,31.71-4a1.7,1.7,0,0,0-1.92-1.883Zm0-1.967H29.3Q31.4-7.886,31.4-9.528a1.552,1.552,0,0,0-.533-1.322,2.806,2.806,0,0,0-1.684-.4H27.238Zm20.438,1.4a8.154,8.154,0,0,1-.705,3.5A5.31,5.31,0,0,1,44.953-.631a5.582,5.582,0,0,1-3.01.816,5.62,5.62,0,0,1-3-.807,5.362,5.362,0,0,1-2.041-2.305,7.921,7.921,0,0,1-.733-3.447v-.668a8.111,8.111,0,0,1,.719-3.511,5.353,5.353,0,0,1,2.032-2.329,5.589,5.589,0,0,1,3-.812,5.589,5.589,0,0,1,3,.812,5.353,5.353,0,0,1,2.032,2.329,8.088,8.088,0,0,1,.719,3.5Zm-2.82-.612a5.684,5.684,0,0,0-.761-3.229,2.479,2.479,0,0,0-2.171-1.1,2.48,2.48,0,0,0-2.162,1.09,5.619,5.619,0,0,0-.77,3.2v.659a5.755,5.755,0,0,0,.761,3.21A2.473,2.473,0,0,0,41.943-2.1,2.45,2.45,0,0,0,44.1-3.2,5.722,5.722,0,0,0,44.856-6.4ZM54.7-4.945H52.482V0H49.7V-13.508h5.019a5.674,5.674,0,0,1,3.692,1.067,3.682,3.682,0,0,1,1.3,3.015,4.156,4.156,0,0,1-.6,2.305A4.081,4.081,0,0,1,57.3-5.65L60.219-.13V0H57.232ZM52.482-7.2h2.245a2.3,2.3,0,0,0,1.624-.533,1.907,1.907,0,0,0,.575-1.47,2.041,2.041,0,0,0-.543-1.5,2.255,2.255,0,0,0-1.665-.547H52.482ZM69.45-2.783H64.57L63.643,0H60.683l5.028-13.508h2.579L73.347,0H70.387ZM65.322-5.038H68.7L67-10.094Zm18.341-6.216H79.525V0H76.742V-11.253H72.66v-2.254h11ZM96.085-6.448a8.154,8.154,0,0,1-.705,3.5A5.31,5.31,0,0,1,93.363-.631a5.582,5.582,0,0,1-3.01.816,5.62,5.62,0,0,1-3-.807,5.362,5.362,0,0,1-2.041-2.305,7.921,7.921,0,0,1-.733-3.447v-.668a8.111,8.111,0,0,1,.719-3.511,5.353,5.353,0,0,1,2.032-2.329,5.589,5.589,0,0,1,3-.812,5.589,5.589,0,0,1,3,.812,5.353,5.353,0,0,1,2.032,2.329,8.088,8.088,0,0,1,.719,3.5Zm-2.82-.612a5.684,5.684,0,0,0-.761-3.229,2.479,2.479,0,0,0-2.171-1.1,2.48,2.48,0,0,0-2.162,1.09,5.619,5.619,0,0,0-.77,3.2v.659a5.755,5.755,0,0,0,.761,3.21A2.473,2.473,0,0,0,90.352-2.1,2.45,2.45,0,0,0,92.5-3.2,5.722,5.722,0,0,0,93.265-6.4Zm9.843,2.115h-2.217V0H98.108V-13.508h5.019a5.674,5.674,0,0,1,3.692,1.067,3.682,3.682,0,0,1,1.3,3.015,4.156,4.156,0,0,1-.6,2.305,4.081,4.081,0,0,1-1.814,1.47l2.922,5.52V0h-2.987ZM100.891-7.2h2.245a2.3,2.3,0,0,0,1.624-.533,1.907,1.907,0,0,0,.575-1.47,2.041,2.041,0,0,0-.543-1.5,2.255,2.255,0,0,0-1.665-.547h-2.236Zm12.3,7.2H110.41V-13.508h2.783Zm13.675-6.448a8.154,8.154,0,0,1-.705,3.5,5.31,5.31,0,0,1-2.018,2.319,5.582,5.582,0,0,1-3.01.816,5.62,5.62,0,0,1-3-.807A5.362,5.362,0,0,1,116.1-2.927a7.921,7.921,0,0,1-.733-3.447v-.668a8.111,8.111,0,0,1,.719-3.511,5.353,5.353,0,0,1,2.032-2.329,5.589,5.589,0,0,1,3-.812,5.589,5.589,0,0,1,3,.812,5.353,5.353,0,0,1,2.032,2.329,8.088,8.088,0,0,1,.719,3.5Zm-2.82-.612a5.684,5.684,0,0,0-.761-3.229,2.479,2.479,0,0,0-2.171-1.1,2.48,2.48,0,0,0-2.162,1.09,5.619,5.619,0,0,0-.77,3.2v.659a5.755,5.755,0,0,0,.761,3.21A2.473,2.473,0,0,0,121.134-2.1a2.45,2.45,0,0,0,2.152-1.1,5.722,5.722,0,0,0,.761-3.205ZM133.622,0V-13.508h4.156a6.312,6.312,0,0,1,3.187.8,5.6,5.6,0,0,1,2.194,2.282,7.039,7.039,0,0,1,.789,3.363v.622a7.059,7.059,0,0,1-.775,3.349,5.548,5.548,0,0,1-2.185,2.273A6.359,6.359,0,0,1,137.806,0ZM136.4-11.253v9.018h1.345a3.022,3.022,0,0,0,2.5-1.067,4.821,4.821,0,0,0,.881-3.052v-.714a4.9,4.9,0,0,0-.854-3.122,3.012,3.012,0,0,0-2.5-1.062Zm17.692,5.4h-5.344v3.618h6.271V0H145.97V-13.508h9.036v2.254h-6.253v3.219H154.1Z" transform="translate(1219 6559)" fill="#008f85"/>
      <path id="Trazado_165503" data-name="Trazado 165503" d="M16.163-15.992h-5.88V0H6.328V-15.992H.527v-3.2H16.163ZM27.672-3.955H20.738L19.419,0H15.214l7.146-19.2h3.665L33.209,0H29Zm-5.867-3.2h4.8l-2.413-7.185ZM50.612,0H46.657l-7.7-12.63V0H35V-19.2h3.955L46.67-6.539V-19.2h3.942ZM64.9-3.955H57.968L56.65,0H52.444L59.59-19.2h3.665L70.44,0H66.234Zm-5.867-3.2h4.8l-2.413-7.185ZM85.1-15.992H79.22V0H75.265V-15.992h-5.8v-3.2H85.1Zm17.653,6.829a11.588,11.588,0,0,1-1,4.97A7.546,7.546,0,0,1,98.884-.9,7.932,7.932,0,0,1,94.605.264,7.986,7.986,0,0,1,90.347-.883a7.62,7.62,0,0,1-2.9-3.276,11.256,11.256,0,0,1-1.042-4.9v-.949A11.527,11.527,0,0,1,87.427-15a7.607,7.607,0,0,1,2.887-3.309,7.942,7.942,0,0,1,4.265-1.154,7.942,7.942,0,0,1,4.265,1.154A7.607,7.607,0,0,1,101.731-15a11.494,11.494,0,0,1,1.022,4.977Zm-4.008-.87a8.078,8.078,0,0,0-1.081-4.588,3.523,3.523,0,0,0-3.085-1.569,3.524,3.524,0,0,0-3.072,1.549A7.985,7.985,0,0,0,90.413-10.1v.936A8.179,8.179,0,0,0,91.494-4.6a3.514,3.514,0,0,0,3.111,1.622,3.482,3.482,0,0,0,3.059-1.562A8.131,8.131,0,0,0,98.745-9.1Zm10.837,3.27V0h-3.955V-19.2h7.488a8.664,8.664,0,0,1,3.8.791,5.829,5.829,0,0,1,2.525,2.248,6.268,6.268,0,0,1,.883,3.316A5.512,5.512,0,0,1,118.4-8.391a8.044,8.044,0,0,1-5.346,1.628Zm0-3.2h3.533a3.474,3.474,0,0,0,2.393-.738,2.685,2.685,0,0,0,.824-2.109A3.166,3.166,0,0,0,115.5-15.1a3.1,3.1,0,0,0-2.294-.9h-3.625Zm20.566,2.94H127V0h-3.955V-19.2h7.132a8.063,8.063,0,0,1,5.247,1.516,5.233,5.233,0,0,1,1.846,4.285,5.906,5.906,0,0,1-.85,3.276,5.8,5.8,0,0,1-2.577,2.09l4.153,7.844V0h-4.245ZM127-10.23h3.19a3.267,3.267,0,0,0,2.307-.758,2.709,2.709,0,0,0,.817-2.09,2.9,2.9,0,0,0-.771-2.136,3.205,3.205,0,0,0-2.366-.778H127ZM151.11-3.955h-6.935L142.857,0h-4.206L145.8-19.2h3.665L156.647,0h-4.206Zm-5.867-3.2h4.8l-2.413-7.185Zm20.065-5.418,3.6-6.618h4.548l-5.59,9.519L173.6,0H169l-3.691-6.724L161.618,0h-4.6l5.735-9.677-5.59-9.519h4.548ZM179.8,0h-3.955V-19.2H179.8Zm14.5-3.955h-6.935L186.047,0h-4.206l7.146-19.2h3.665L199.837,0h-4.206Zm-5.867-3.2h4.8l-2.413-7.185Z" transform="translate(1219 6583)" fill="#1d272b"/>
      <rect id="Rectángulo_35358" data-name="Rectángulo 35358" width="4" height="54" transform="translate(1209 6538)" fill="#d93328"/>
    </g>
  </g>
</svg>
