<svg xmlns="http://www.w3.org/2000/svg" xmlns:xlink="http://www.w3.org/1999/xlink" width="458.814" height="585.531" viewBox="0 0 458.814 585.531">
  <defs>
    <linearGradient id="linear-gradient" x1="0.5" x2="0.5" y2="1" gradientUnits="objectBoundingBox">
      <stop offset="0" stop-color="#f5f5f5"/>
      <stop offset="0.25" stop-color="#f5f5f5"/>
      <stop offset="1" stop-color="#eeeef2"/>
    </linearGradient>
    <linearGradient id="linear-gradient-2" x1="0.5" x2="0.5" y2="1" gradientUnits="objectBoundingBox">
      <stop offset="0" stop-color="#fff"/>
      <stop offset="1" stop-color="#f8f8f8"/>
    </linearGradient>
  </defs>
  <g id="img16" transform="translate(-191.069 -8125.969)">
    <path id="Trazado_164055" data-name="Trazado 164055" d="M462.741,668.682c16.645-37.351,21.38-85.826,12.567-128.631-5.572-27.063-16.266-52.2-17.633-80.426-2.735-56.424,31.735-102.039,38.886-157.61,3.143-24.422-.286-52.875-13.759-67.71-13.307-14.652-32.3-11.661-47.365-1.4s-27.813,26.688-42.277,38.7-32.275,19.433-47.55,9.875c-15.472-9.681-24.249-34.085-29.165-57.868s-7.329-49.115-15.719-70.663c-13.828-35.512-43.31-54.875-70.785-49.865S177.92,135.54,164.753,171.6s-15.468,79.672-8.914,119.5c3.325,20.2,8.8,39.543,11.789,59.859s3.26,42.551-3.408,60.85c-13.943,38.264-50.727,43.6-69.99,76.416-15.9,27.083-16.4,68.414-7.375,101.721s25.978,60.33,42.884,86.041c78.854,3.925,159.121,4.185,237.975,8.111C398.361,685.621,432.13,671.351,462.741,668.682Z" transform="translate(110.107 8027.291)" fill="#a4a4b4" opacity="0.354" style="mix-blend-mode: multiply;isolation: isolate"/>
    <path id="Trazado_164056" data-name="Trazado 164056" d="M359.21,184.954c-.195,20.826,19.6,38.952,16.158,59.492-1.842,10.99-10.217,22.13-5.349,32.154,4.305,8.87,16.637,10.408,26.066,7.524,22.071-6.752,35.486-29.312,41.9-51.484,6.035-20.855,7.532-44.149-2.132-63.59-7.788-15.663-25.755-29.492-44-28.212C375.142,142.009,359.356,169.267,359.21,184.954Z" transform="translate(190.043 8094.385)" fill="#a4a4b4" opacity="0.31" style="mix-blend-mode: multiply;isolation: isolate"/>
    <path id="Trazado_164057" data-name="Trazado 164057" d="M117.326,149.255c-13.764,22.964-14.385,53.231-1.573,76.739,4.048,7.428,9.516,14.351,16.9,18.481s16.906,5.052,24.255.86c11.144-6.357,13.609-21.351,12.722-34.15s-3.787-26.217,1.142-38.062c3.213-7.721,9.383-13.741,14.856-20.063s10.582-13.7,10.864-22.061c.733-21.667-22.27-20.048-36.132-15.548A78.786,78.786,0,0,0,117.326,149.255Z" transform="translate(127.595 8025.16)" fill="#a4a4b4" opacity="0.31" style="mix-blend-mode: multiply;isolation: isolate"/>
    <g id="Grupo_127879" data-name="Grupo 127879" transform="translate(196.585 8125.969)" style="mix-blend-mode: multiply;isolation: isolate">
      <path id="Trazado_151849" data-name="Trazado 151849" d="M461.362,679.907l-1.716-2.291c4.722-7.546,12.259-24.846,9.707-55.948-1.135-13.845-3.951-27.522-6.673-40.748-1.215-5.909-2.473-12.019-3.571-18.086C447.4,498.1,452.522,426.682,473.161,366.9c1.833-5.3,3.817-10.628,5.736-15.774,5.689-15.259,11.57-31.039,14.1-48.084,4.436-29.911-4.333-52.331-14.357-60.5-9.617-7.844-23.193-6.645-37.244,3.29a177.449,177.449,0,0,0-14.967,12.375c-6.385,5.681-12.986,11.554-20.075,15.712-27.889,16.362-62.758,2.457-81.105-32.34-8.818-16.721-13.8-36.931-18.612-56.476-1.865-7.573-3.795-15.405-5.916-22.9-6.6-23.3-18.676-52.543-38.738-59.538-17.628-6.15-35.483,7.366-47.354,19.786-22.713,23.763-38.723,55.947-45.083,90.618-4.288,23.381-4.46,48.829-4.628,73.44-.248,36.65-.506,74.548-14.66,105.07-6.439,13.885-15.3,24.962-23.859,35.677-8.021,10.033-16.315,20.409-22.5,32.985-14.01,28.5-17.444,68.839-9.422,110.687,7.209,37.6,21.9,70.961,36.114,103.225l-1.953,1.837c-14.3-32.473-29.094-66.053-36.4-104.145C84.029,529,87.591,487.6,102.015,458.263c6.346-12.909,14.748-23.419,22.872-33.584,8.448-10.568,17.184-21.5,23.447-35,13.761-29.674,14-65.387,14.259-103.2.169-24.823.342-50.49,4.709-74.289,6.5-35.429,22.826-68.278,45.974-92.5,12.264-12.83,30.762-26.773,49.245-20.326,21.016,7.328,33.54,37.512,40.345,61.543,2.143,7.567,4.082,15.438,5.956,23.048,4.754,19.3,9.669,39.252,18.265,55.551,17.736,33.636,51.443,47.077,78.4,31.261,6.909-4.053,13.428-9.852,19.733-15.46a178.846,178.846,0,0,1,15.162-12.533c14.741-10.421,29.1-11.592,39.387-3.2,10.749,8.764,20.183,32.59,15.5,64.19-2.6,17.523-8.563,33.52-14.331,48.991-1.91,5.124-3.886,10.421-5.7,15.678-20.387,59.045-25.446,129.584-13.88,193.529,1.086,6.012,2.339,12.094,3.549,17.977,2.751,13.365,5.6,27.184,6.757,41.322C474.322,653.712,466.35,671.935,461.362,679.907Z" transform="translate(-87.906 -97.739)" fill="#a4a4b4"/>
    </g>
    <g id="Grupo_127880" data-name="Grupo 127880" transform="translate(227.532 8147.838)">
      <g id="Grupo_121036" data-name="Grupo 121036" transform="translate(0 82.755)">
        <path id="Trazado_158690" data-name="Trazado 158690" d="M614.85,236.3c-1.376-2.891-10.394,26.259-10.394,26.259l-1.368-9.574-10.121-7.932s-4.924,6.018-6.018,10.121S574.915,308.239,577.1,315.9s1.094,24.344,12.035,30.909,22.429-12.856,27.626-18.874S620.32,247.789,614.85,236.3Z" transform="translate(-576.814 -236.099)" fill="url(#linear-gradient)"/>
        <path id="Trazado_158691" data-name="Trazado 158691" d="M590.015,249.41s-1.915,24.618.547,27.353-4.376,34.738-1.641,36.653,7.385-15.318,5.471-21.062,4.65,5.471,4.65-.274,3.009-28.994-9.3-43.765" transform="translate(-563.21 -221.582)" fill="#868695"/>
      </g>
      <g id="Grupo_121037" data-name="Grupo 121037" transform="translate(7.21 81.326)">
        <path id="Trazado_158692" data-name="Trazado 158692" d="M605.077,267.613c-.788-.175-3.676.656-6.893,1.028a16.116,16.116,0,0,1-6.412-.284c-9.125-2.735-11.663-9.5-11.663-9.5,2.8-2.932,10.416-23.414,10.416-23.414l8.4,1.707,3.676.744c-.306,1.882-.5,3.654-.635,5.339v.022a81.949,81.949,0,0,0,.153,12.67C602.363,259.692,607.156,268.029,605.077,267.613Z" transform="translate(-580.109 -235.446)" fill="#db8804"/>
        <path id="Trazado_158693" data-name="Trazado 158693" d="M596.006,236.97c-.306,1.882-.5,3.654-.635,5.339v.022a2.581,2.581,0,0,1-.416.241c-4.661,2.32-9.3-3.829-9.3-3.829l6.674-2.517Z" transform="translate(-573.518 -234.519)" fill="#f7b242"/>
        <path id="Trazado_158694" data-name="Trazado 158694" d="M598.412,259.009c-.788-.175-3.676.656-6.893,1.029-1.269-2.013-1.685-4.048-.766-5.952-1.641-2.626-5.033-10.7-5.033-10.7-.131-2.473,5.186,2.32,7.112,3.545a3.474,3.474,0,0,0,2.626.394C595.7,251.088,600.491,259.425,598.412,259.009Z" transform="translate(-573.444 -226.842)" fill="#f7b242"/>
      </g>
      <g id="Grupo_121038" data-name="Grupo 121038" transform="translate(3.829 43.262)">
        <path id="Trazado_158695" data-name="Trazado 158695" d="M613.094,238.476l-3.744,11.556c-3.722,11.574-5.4,10.3-11.6,12.434-5.794,2-10.619-8.18-11.451-12.911-.733-3.994-8.022-11.293-7.731-14.757.116-1.4,1.092-.689,3.083,1.895a23.793,23.793,0,0,0,5.527,5c1.72-3.9-7.849-14.018-5.381-17.913,1.208-1.888,6.8,13.847,9.394,14.055,0,0,.757-1.359-1.363-9.3-1.21-4.558-2.5-9.241-1.355-10.265,2.092-1.851,2.978,8.134,8.127,18.281,0,0-.436-5.125-1.155-9.845-.678-4.309-1.759-8.265.186-8.383,1.6-.1,2.466,6.648,3.186,10.928a48.527,48.527,0,0,0,5.691,16.274,17.086,17.086,0,0,0,1.291,2C610.593,236.058,613.094,238.476,613.094,238.476Z" transform="translate(-578.564 -218.051)" fill="#db8804"/>
        <path id="Trazado_158696" data-name="Trazado 158696" d="M594.314,232.606s-4.9,2.171-5.86,6.147a6.611,6.611,0,0,1,4.569-8.145A17.065,17.065,0,0,0,594.314,232.606Z" transform="translate(-567.073 -203.13)" fill="#f7b242"/>
      </g>
      <g id="Grupo_121039" data-name="Grupo 121039" transform="translate(14.89 74.81)">
        <path id="Trazado_158697" data-name="Trazado 158697" d="M722.638,283.428A111.321,111.321,0,0,1,721,297.542q-1.116,6.5-2.626,12.933v.022a310.283,310.283,0,0,1-9.453,32.3c-2.188,6.324-4.333,13.086-7.549,18.972-1.444,2.648-3.961,4.967-4.333,8.053-.634,5.164,1.466,5.361-2.166,9.825-2.363,2.91-.9,7.177.569,10.635.7,1.663,1.379,3.326,2.013,5.011,10.547,27.134,13.414,55.34,10.81,84.357-1.269,14.092-3.063,28.141-4.748,42.189-.875,7.156-3.02,15.843-1.576,23.042,1.576,7.943-1.926,84.181-12.473,125.8a107.911,107.911,0,0,1-5.121,15.821l-16.7-.481s-7.287-92.65-7.659-129.106c-.241-24.968-5.274-58.295-8.425-76.829-1.466-8.556-2.517-13.983-2.517-13.983s4.026,57.244,4.026,70.023c0,12.758-3.654,27.353-3.654,27.353s8.031,88.252,5.471,127.64l-16.215,1.028-.919.066s-.328-.9-.9-2.582c-1.554-4.486-4.967-14.6-8.972-27.834-.153-.481-.284-.963-.416-1.4-.044-.131-.066-.241-.109-.372q-.985-3.25-1.9-6.5c-.875-2.954-1.729-5.93-2.56-8.906q-.558-2-1.116-4.07c-.416-1.422-.788-2.845-1.16-4.267-.744-2.845-1.51-5.755-2.254-8.687-1.86-7.353-3.654-14.968-5.274-22.626-.635-3.064-1.269-6.127-1.838-9.191-.306-1.532-.569-3.064-.853-4.6-5.8-32.474-7.44-48.841-7.9-56.172a49.366,49.366,0,0,1-.131-5.1s-16.412-41.576-18.6-91.162C582.547,411,588.849,391,594.67,378.791c4.552-9.628,8.8-14.442,8.8-14.442a.238.238,0,0,1-.044-.087c-.284-.81-2.385-6.915-.678-7.943a13.779,13.779,0,0,0,1.379-.941,19.218,19.218,0,0,0,1.9-1.619s-1.794-11.423-3.458-27.156c-3.085-28.994-5.733-72.584,4.2-86,7.353-9.956,21.489-8.293,25.865-7.549,1.269.219,4.53,1.9,8.534,4.18C650.952,242.814,665.11,252,665.11,252s19.628-3.567,30.679-2.363a21.193,21.193,0,0,1,3.239.547c9.847,2.56,18.6,7.659,22.976,24.443A31.689,31.689,0,0,1,722.638,283.428Z" transform="translate(-583.619 -232.468)" fill="url(#linear-gradient-2)"/>
        <path id="Trazado_158698" data-name="Trazado 158698" d="M664.538,247.053c-17.418,4.2-41.183,18.666-46.631,17.79-6.849-1.094-10.941-11.226-5.208-7.134,5.733,4.114,25.165-2.451,25.165-2.451s-19.432,1.357-23.808-6.3c-2.735-4.77-3.764-10.591-4.136-14.311,9.781,5.58,23.939,14.771,23.939,14.771S653.487,245.85,664.538,247.053Z" transform="translate(-552.367 -229.88)" fill="url(#linear-gradient)"/>
        <path id="Trazado_158699" data-name="Trazado 158699" d="M611.142,308.229c1.707.744-12.32,1.51-22.473-1.05,4.552-9.628,8.8-14.442,8.8-14.442S608.67,307.135,611.142,308.229Z" transform="translate(-577.617 -160.855)" fill="#868695"/>
        <path id="Trazado_158700" data-name="Trazado 158700" d="M664.513,311.811c-1.663,1.182-44.6,31.445-70.68-7.549a19.213,19.213,0,0,0,1.9-1.619s-1.794-11.423-3.458-27.156c3.261,10.219,9.825,24.749,23.611,34.355C636.175,324,663.244,312.358,664.513,311.811Z" transform="translate(-573.328 -181.353)" fill="#868695"/>
        <path id="Trazado_158701" data-name="Trazado 158701" d="M679.21,562.854a107.916,107.916,0,0,1-5.121,15.821l-16.7-.481s-7.287-92.65-7.659-129.106c-.241-24.968-5.274-58.295-8.425-76.829-1.466-8.556-2.517-13.983-2.517-13.983s4.026,57.244,4.026,70.024c0,12.757-3.654,27.353-3.654,27.353s8.031,88.252,5.471,127.64l-16.215,1.029A19.43,19.43,0,0,1,626.6,581.8c-4.9-7.856-6.893-20.176-8.972-27.834-.153-.481-.284-.963-.416-1.4-.044-.131-.066-.241-.109-.372q-.985-3.25-1.9-6.5c-.875-2.954-1.729-5.93-2.56-8.906q-.558-2-1.116-4.07c-.416-1.422-.788-2.845-1.16-4.267-.788-2.888-1.532-5.777-2.254-8.687q-2.888-11.259-5.274-22.626c-.635-3.064-1.269-6.127-1.838-9.191-.306-1.532-.569-3.064-.853-4.6-5.8-32.473-7.44-48.841-7.9-56.172,1.729,1.772,3.195,3.348,4.245,4.573,6.018,7.112,3.829,21.335,15.318,25.165s15.865-20.788,15.865-27.9-19.147-28.994-15.318-32.276,12.582-21.335,12.582-21.335-22.429,10.941-26.806,3.282,13.129-3.829,16.959-3.829,16.412-4.376,9.847-7.112-20.788-2.735-22.976-6.018,12.035-10.394,16.959-8.206c1.707.766-.722-.941-1.029-1.225-2.21-1.97-4.9-3.5-7.243-5.3-3.414-2.626-7.156-5.23-9.65-8.8-1.182-1.707-4.508-8.972.853-7.046,1.335.46,2.407,1.554,3.786,1.816.657.131,1.335.088,1.991.219,2.495.569,3.436,3.72,5.6,5.033,1.619.985,3.654.81,5.514.613a7.466,7.466,0,0,0-2.954-2.932c-3.37-2.3-6.74-4.573-10.088-6.871-.022-.022-6.783-5.449-2.888-5.8,4.355-.394,8.053,3.26,12.364,3.961,3.545.591,7.243-.875,10.766-.153a27.791,27.791,0,0,1,4.858,1.86c7.856,3.217,16.828,1.9,25.033-.306q-5.679,4.989-11.313,10.022c5.121-.832,12.035-4.136,16.937-3.7-.372,7.068-14.245,14.88-19.563,18.6,4.945,1.707,10.678,2.954,15.121,5.558-3.589,4.245-5.1,8.665-5.668,14.333-1.707,16.937-3.37,34.443,1.816,50.636,1.4,4.442,3.326,8.753,4.026,13.348.722,4.9.022,9.935.919,14.814s4.114,9.935,9.037,10.569a4.445,4.445,0,0,1,2.144.525c1.9,1.357-.153,4.136-1.532,6.018-2.867,3.851-2.32,9.322-.241,13.633,2.079,4.289,5.449,7.812,8.272,11.663a6.985,6.985,0,0,1,1.619,3.479c.153,1.794-.963,3.392-1.882,4.923-3.37,5.668-4.464,12.342-5.514,18.819-.394,2.516-.81,5.121-.2,7.593.394,1.532,1.138,2.954,1.6,4.464,1.466,4.814-.175,10.066.81,15.011C673.258,554.036,676.934,558.149,679.21,562.854Z" transform="translate(-573.363 -124.642)" fill="url(#linear-gradient)"/>
        <path id="Trazado_158702" data-name="Trazado 158702" d="M674.738,257.17a111.323,111.323,0,0,1-1.641,14.114q-1.116,6.5-2.626,12.932v.022a310.266,310.266,0,0,1-9.453,32.3c-2.188,6.324-4.333,13.086-7.549,18.972-1.444,2.648-3.961,4.967-4.333,8.053-.634,5.164,1.466,5.361-2.166,9.825-2.363,2.91-.9,7.177.569,10.635.7,1.663,1.379,3.326,2.013,5.011-1.575,2.538-3.195,4.048-4.814,4.245-13.677,1.641-14.771-7.112-7.659-10.941s8.206-13.129,8.206-13.129-12.035,8.753-17.506,8.753-7.4-9.3,10.11-21.335c12.889-8.84,24.6-70.417,36.106-82.059C674.278,255.419,674.519,256.295,674.738,257.17Z" transform="translate(-535.718 -206.211)" fill="#868695"/>
      </g>
      <g id="Grupo_121040" data-name="Grupo 121040" transform="translate(57.714 502.965)">
        <path id="Trazado_158703" data-name="Trazado 158703" d="M639.074,472.963c-2.6-2.755-3.241-36.635-4.429-42.784,0,0-5.541-3.144-16.959-1.641-10.394,1.368-14.5,6.018-14.5,6.018,1.385,3.722,11.829,31.206,10.714,36.585-.943,4.552-5.836,10.394-1.915,17.688H642.73S646.293,480.622,639.074,472.963Z" transform="translate(-603.189 -428.13)" fill="#db8804"/>
        <path id="Trazado_158704" data-name="Trazado 158704" d="M607.763,453.721s8.388-10.891,25.53-2.188c0,0,.729,7.659-7.3,6.2S613.234,462.109,607.763,453.721Z" transform="translate(-597.754 -404.328)" fill="#f7b242"/>
      </g>
      <g id="Grupo_121041" data-name="Grupo 121041" transform="translate(95.188 501.59)">
        <path id="Trazado_158705" data-name="Trazado 158705" d="M643.844,469.7c-2.131-2.794,4.742-33.708,5.19-37.677,0,0-3.558-2.989-12.035-4.1-10.394-1.368-16.685,1.094-16.685,1.094.764,4.755,3.615,38.576,2.74,44.7-1.823,12.736,2.91,15.865,2.91,15.865h30.743C665.492,474.956,647.439,474.409,643.844,469.7Z" transform="translate(-620.314 -427.502)" fill="#db8804"/>
        <path id="Trazado_158706" data-name="Trazado 158706" d="M624.718,453.206s10.21-10.059,26.333-.46c0,0-.074,5.93-8.1,4.471S630.189,461.593,624.718,453.206Z" transform="translate(-615.081 -402.438)" fill="#f7b242"/>
      </g>
      <g id="Grupo_121047" data-name="Grupo 121047" transform="translate(61.925 0)">
        <path id="Trazado_158707" data-name="Trazado 158707" d="M637.834,209.483c15.733.177,32.1,16.777,32.824,27.353s-9.482,40.119-30.635,39.025-33.7-33.007-32.624-42.671S621.606,209.3,637.834,209.483Z" transform="translate(-602.475 -184.972)" fill="#a7c6ce"/>
        <path id="Trazado_158708" data-name="Trazado 158708" d="M633.265,222.455s6.39-7.427,7.856.575c1.7,9.269-6.506,13.679-8.39,10.834S633.265,222.455,633.265,222.455Z" transform="translate(-573.15 -173.283)" fill="#ff8b66"/>
        <path id="Trazado_158709" data-name="Trazado 158709" d="M614.648,223.949s-7.44-6.372-7.676,1.757c-.276,9.42,8.5,12.539,9.932,9.44S614.648,223.949,614.648,223.949Z" transform="translate(-602.913 -170.603)" fill="#ff8b66"/>
        <path id="Trazado_158710" data-name="Trazado 158710" d="M638.606,272.4c15.342-1.169,23.237-11.847,20.948-41.9-1.18-15.5-9.792-24.412-26.977-23.1s-23.7,11.368-22.515,26.872C612.52,266.567,622.756,273.613,638.606,272.4Z" transform="translate(-599.393 -187.597)" fill="#ff8b66"/>
        <path id="Trazado_158711" data-name="Trazado 158711" d="M612.69,225.693c-.153,1.562,1.308,2.983,3.263,3.173s3.661-.923,3.812-2.486-1.309-2.983-3.263-3.173S612.841,224.131,612.69,225.693Z" transform="translate(-596.124 -168.687)" fill="#db614d"/>
        <path id="Trazado_158712" data-name="Trazado 158712" d="M627.146,225.442c.221,1.554,1.976,2.589,3.919,2.313s3.341-1.759,3.12-3.313-1.976-2.591-3.919-2.315S626.924,223.887,627.146,225.442Z" transform="translate(-578.961 -169.998)" fill="#db614d"/>
        <g id="Grupo_121042" data-name="Grupo 121042" transform="translate(21.568 36.476)">
          <path id="Trazado_158713" data-name="Trazado 158713" d="M615.412,219.281a.766.766,0,0,0,.921-.21c1.954-2.387,5.7-2.582,5.74-2.582a.77.77,0,0,0-.068-1.538c-.182.009-4.477.232-6.862,3.149a.768.768,0,0,0,.109,1.081A.778.778,0,0,0,615.412,219.281Z" transform="translate(-614.97 -214.95)" fill="#0c476b"/>
        </g>
        <g id="Grupo_121043" data-name="Grupo 121043" transform="translate(43.792 35.228)">
          <path id="Trazado_158714" data-name="Trazado 158714" d="M625.57,215.882a.765.765,0,0,0,.4.068c.037,0,3.777-.376,6.068,1.685a.769.769,0,0,0,1.029-1.142c-2.8-2.527-7.079-2.092-7.261-2.072a.769.769,0,0,0-.241,1.462Z" transform="translate(-625.126 -214.38)" fill="#0c476b"/>
        </g>
        <path id="Trazado_158715" data-name="Trazado 158715" d="M616.246,222.589c.147,1.906,1.12,3.385,2.179,3.3s1.8-1.689,1.654-3.593-1.12-3.385-2.18-3.3S616.1,220.683,616.246,222.589Z" transform="translate(-591.907 -173.673)" fill="#1a4850"/>
        <path id="Trazado_158716" data-name="Trazado 158716" d="M626.134,221.876c.144,1.906,1.12,3.385,2.177,3.3s1.8-1.692,1.654-3.6-1.121-3.385-2.18-3.3S625.987,219.97,626.134,221.876Z" transform="translate(-580.158 -174.52)" fill="#1a4850"/>
        <path id="Trazado_158717" data-name="Trazado 158717" d="M633.269,228.5s-9.453,2.064-14.565-.127c0,0,3.32,6.864,8.49,5.832A7.666,7.666,0,0,0,633.269,228.5Z" transform="translate(-588.964 -162.523)" fill="#1a4850"/>
        <path id="Trazado_158718" data-name="Trazado 158718" d="M623.618,222.763s-1.755-4.587-3.571-4.109-2.91,4.6-2.91,4.6l-2.834-1.236,2.751.149s1.1-4.3,2.921-4.447C622.568,217.513,623.618,222.763,623.618,222.763Z" transform="translate(-594.194 -175.186)" fill="#1a4850"/>
        <path id="Trazado_158719" data-name="Trazado 158719" d="M625.388,222.774s1.039-4.8,2.908-4.6,3.571,4.109,3.571,4.109l2.615-1.652-2.7.565s-1.74-4.085-3.56-3.954C625.629,217.426,625.388,222.774,625.388,222.774Z" transform="translate(-581.022 -175.757)" fill="#1a4850"/>
        <g id="Grupo_121044" data-name="Grupo 121044" transform="translate(33.949 52.055)">
          <path id="Trazado_158720" data-name="Trazado 158720" d="M622.677,228.739a4.8,4.8,0,0,0,1.116.357l.311-1.63c-1.387-.265-1.748-1.083-1.807-1.722a2.05,2.05,0,0,1,.891-1.98q.43-.164.952.519l1.32-1.007a2.384,2.384,0,0,0-2.875-1.057,3.643,3.643,0,0,0-1.939,3.676A3.4,3.4,0,0,0,622.677,228.739Z" transform="translate(-620.628 -222.069)" fill="#db614d"/>
        </g>
        <path id="Trazado_158721" data-name="Trazado 158721" d="M614.8,223.322l-1.921,7.733s-5.74-1.534-3.215-10.694S614.8,223.322,614.8,223.322Z" transform="translate(-600.474 -176.112)" fill="#0c476b"/>
        <path id="Trazado_158722" data-name="Trazado 158722" d="M636.856,212.112s-18.646,33.53-28.482,28.95c0,0-2.615-35.874,25.858-35.874s34.112,16.029,34.027,31.9c0,0-3.978,5.871-7.5,5.037C660.758,242.128,665.179,212.786,636.856,212.112Z" transform="translate(-601.313 -190.073)" fill="#0c476b"/>
        <path id="Trazado_158723" data-name="Trazado 158723" d="M622.326,237.415s-12.766-7.84-15.046-20.287" transform="translate(-602.54 -175.886)" fill="none" stroke="#ffd5a2" stroke-linecap="round" stroke-miterlimit="10" stroke-width="0.5"/>
        <path id="Trazado_158724" data-name="Trazado 158724" d="M629.9,242.465s13.311-12.217,14.221-29.587" transform="translate(-575.655 -180.936)" fill="none" stroke="#ffd5a2" stroke-linecap="round" stroke-miterlimit="10" stroke-width="0.5"/>
        <path id="Trazado_158725" data-name="Trazado 158725" d="M611.216,230.456c5.061,17.917,39.935,27.171,47.047-3.328" transform="translate(-597.862 -164.003)" fill="none" stroke="#ffd5a2" stroke-linecap="round" stroke-miterlimit="10" stroke-width="0.5"/>
        <path id="Trazado_158726" data-name="Trazado 158726" d="M632.3,221.165c9.468-.6,19.51,8.387,20.788,14.405s-6.2,20.425-18.419,21.335c-11.3.845-21.517-12.582-21.517-18.963S623.731,221.712,632.3,221.165Z" transform="translate(-595.558 -171.124)" fill="#fff"/>
        <path id="Trazado_158727" data-name="Trazado 158727" d="M620.363,223.062s3.556-2.554,7.02-.274" transform="translate(-586.993 -170.285)" fill="none" stroke="#ffd5a2" stroke-linecap="round" stroke-linejoin="round" stroke-width="0.5"/>
        <path id="Trazado_158728" data-name="Trazado 158728" d="M612.331,222.246a4.576,4.576,0,0,0,.656.306.068.068,0,0,1-.044.022S612.7,222.443,612.331,222.246Z" transform="translate(-596.537 -169.804)" fill="#4ba6c6"/>
        <g id="Grupo_121045" data-name="Grupo 121045" transform="translate(4.504 37.831)">
          <path id="Trazado_158729" data-name="Trazado 158729" d="M632.155,218.689l.363,7.2a27.164,27.164,0,0,0,7.659-3.1c.853-.56,2.554-5.105,2.1-6.018C642.276,216.774,639.083,218.6,632.155,218.689Z" transform="translate(-577.486 -214.137)" fill="#23687a"/>
          <path id="Trazado_158730" data-name="Trazado 158730" d="M614.976,218.7a49.326,49.326,0,0,1-7.567-1.094s-.639,4.195.182,5.928,7.2,2.643,7.2,2.643Z" transform="translate(-607.172 -213.148)" fill="#23687a"/>
          <path id="Trazado_158731" data-name="Trazado 158731" d="M656.721,227.406c-.066,1.641-4.989,4.311-6.937,4.464-1.948.175-8.381-5.974-15.077-6.105s-12.167,6.018-13.742,6.565a3.607,3.607,0,0,1-1.685-.109c-2.692-.635-7.243-2.779-7.812-3.589-.766-1.007-.5-10.219.613-10.394a183.558,183.558,0,0,1,19.825-1.838l1.86-.066c2.3-.066,4.464-.088,6.5-.088a114.106,114.106,0,0,1,15.646.832C657.553,217.493,656.787,225.765,656.721,227.406Z" transform="translate(-602.586 -214.765)" fill="#008f85" opacity="0.25"/>
          <path id="Trazado_158732" data-name="Trazado 158732" d="M631.907,216.316,619.28,232.137c-2.692-.635-7.243-2.779-7.812-3.589-.766-1.007-.5-10.219.613-10.394A183.553,183.553,0,0,1,631.907,216.316Z" transform="translate(-602.586 -214.682)" fill="#fff" opacity="0.25"/>
          <path id="Trazado_158733" data-name="Trazado 158733" d="M631.449,216.246l-13,9.628s3.654-5.011,6.5-9.541C627.248,216.268,629.414,216.246,631.449,216.246Z" transform="translate(-593.769 -214.765)" fill="#fff" opacity="0.25"/>
          <path id="Trazado_158734" data-name="Trazado 158734" d="M657.938,217.575c-1.466-2.188-9.563-2.1-21.882-1.926-10.941.175-22.976,1.926-24.618,3.195-1.488,1.16-1.313,7.724-.613,10.569.022,0,.022,0,0,.022a6.935,6.935,0,0,0,.241.722c.919,2.188,9.3,5.1,11.313,4.924,2.013-.2,6.39-6.871,13.3-7.309,7.4-.438,11.773,5.3,13.786,6.215,1.991.9,7.549-2.013,8.928-4.2.066-.109.131-.241.2-.372v-.022C659.71,226.788,659.316,219.654,657.938,217.575ZM613.079,220.2c.81-.9,6.652-1.816,21.795-2.451,15.121-.635,20.963.372,21.6,1.007.569.547.722,6.455.372,8.381a1.436,1.436,0,0,1-.175.547c-.547.744-5.208,4.026-6.3,3.654s-7.024-5.755-14.6-5.558c-7.549.175-12.932,6.28-14.027,6.74-.722.306-4.048-.919-6.346-2.035a4.58,4.58,0,0,1-.656-.306.021.021,0,0,0-.022-.022,4.927,4.927,0,0,1-1.554-1.007C612.707,228.32,612.313,221.055,613.079,220.2Z" transform="translate(-603.452 -215.569)" fill="#1d272b"/>
          <path id="Trazado_158735" data-name="Trazado 158735" d="M656.629,225.573a3.394,3.394,0,0,1-.547.919c.35-1.926.2-7.834-.372-8.381-.634-.635-6.477-1.641-21.6-1.007-15.143.635-20.985,1.554-21.795,2.451-.766.853-.372,8.118.088,8.95a4.219,4.219,0,0,1-1.007-.919c-.635-.919-.547-6.652-.088-8.206.372-1.247,7.659-2.823,22.714-3.195,15.033-.35,21.335.656,22.057,1.379S657.175,224.041,656.629,225.573Z" transform="translate(-602.69 -214.923)" fill="#4ba6c6"/>
          <path id="Trazado_158736" data-name="Trazado 158736" d="M658.31,223.134c-.066.131-.131.263-.2.372-1.379,2.188-6.937,5.1-8.928,4.2-2.013-.919-6.39-6.652-13.786-6.215-6.915.438-11.291,7.112-13.3,7.309-2.013.175-10.394-2.735-11.313-4.924a6.921,6.921,0,0,1-.241-.722,6.107,6.107,0,0,0,2.254,2.166c2.1,1.007,8.206,3.107,9.125,2.648.9-.46,7-7.287,14.136-7.112,7.09.2,12.385,5.755,13.567,6.193C650.586,227.423,655.772,225.191,658.31,223.134Z" transform="translate(-603.168 -209.289)" fill="#4ba6c6"/>
        </g>
        <path id="Trazado_158737" data-name="Trazado 158737" d="M676.33,226c-2.735-3.567-1.926-7.943-6.018-13.129-4.092-5.208-18.622-15.58-32.276-14.508-13.961,1.094-10.11,6.849-17.769,9.563-7.659,2.757-12.867,18.337-11.773,20.526s-3.829,4.639-3.282,19.694a29.507,29.507,0,0,0,2.21,10.679c2.56,5.974,6.455,8.14,7.024,8.425a.272.272,0,0,1,.066.044c-.284,1.9,4.659,8.2,4.661,8.206-.171-.219-3.144,2.632-3.23,3.02-.466,2.149,2.562,4,3.919,5.486,1.737,1.9,2.9,4.252,4.4,6.344s3.547,4.02,6.092,4.425c2.048.326,4.1-.379,6.107-.893,6.554-1.672,13.359-1.346,20.055-1.7,2.182-.116,8.922.225,10.506-1.435,1.838-1.923-1.593-4.145-3.278-5.4,1.641,0,2.188-10.679,4.661-12.035,2.451-1.357,7.659-13.392,8.753-17.769s0-9.585,1.619-12.035C680.444,241.029,679.065,229.54,676.33,226Zm-32.08,57.091a23.623,23.623,0,0,1-4.114.066,20.356,20.356,0,0,1-4.048-.744c-16.39-4.6-24.465-27.922-21.861-38.1,3.02-11.751,15.318-11.751,26.828-12.582,12.014-.853,22.408,1.926,26.522,11.2C671.691,252.254,666.067,280.833,644.25,283.086Z" transform="translate(-605.047 -198.281)" fill="url(#linear-gradient-2)"/>
        <path id="Trazado_158738" data-name="Trazado 158738" d="M664.688,224.186c-5.3-14.771-13.136-10.031-28.447-11.116-25.219-1.79-29.185,12.377-27.543,23.515,1.641,11.118,11.679,22.438,11.679,22.438l-4.567-3.838s11.845,17.547,19.141,17.318A29.673,29.673,0,0,0,661.762,255l-4.383,4.37S669.961,238.957,664.688,224.186ZM640.442,265.7c-21.795,2.254-33.02-27.025-30.022-38.776,3.02-11.751,15.318-11.751,26.828-12.582,12.014-.853,22.408,1.926,26.521,11.2C667.882,234.865,662.259,263.443,640.442,265.7Z" transform="translate(-601.238 -180.891)" fill="#868695"/>
        <path id="Trazado_158739" data-name="Trazado 158739" d="M612.606,216.384s5.652-3.464,8.753-3.464,10.21.182,13.858-.184,9.3-.91,12.948.547,6.018,2.372,6.018,2.372-9.484-6.2-16.412-5.654-10.213.547-13.129.547S614.794,212.554,612.606,216.384Z" transform="translate(-596.21 -184.395)" fill="#1d272b"/>
        <path id="Trazado_158740" data-name="Trazado 158740" d="M636.965,218.732s1.278,8.206-1.276,15.318A13.112,13.112,0,0,0,636.965,218.732Z" transform="translate(-568.782 -173.98)" fill="#1d272b"/>
        <path id="Trazado_158741" data-name="Trazado 158741" d="M613.271,239.67c-.569-.284-4.464-2.451-7.024-8.425a18.4,18.4,0,0,1,1.619-9.76s0,7.287,2.735,11.116A13.77,13.77,0,0,1,613.271,239.67Z" transform="translate(-603.871 -170.707)" fill="#1d272b"/>
        <g id="Grupo_121046" data-name="Grupo 121046" transform="translate(0 84.127)">
          <path id="Trazado_158742" data-name="Trazado 158742" d="M639.087,241.715a.931.931,0,0,0-.175,1.007,2.016,2.016,0,0,0,.678.81,5.141,5.141,0,0,1-2.407.963c-1.116.306-1.05.044-1.882,1.094-1.094,1.357-2.123,2.757-3.173,4.136-1.641,2.166-3.261,4.355-4.836,6.543-.5.656-.963,1.335-1.444,1.991-10.635,15.011-19.979,32.342-18.381,51.336,2.495,16.28,2.144,32.845,1.794,48.885-.263,11.948-.547,24.333.394,36.456,1.357,5.361.241,11.62-.854,17.681a65.45,65.45,0,0,0-1.335,10.854c0,4.289,2.166,10.613,4.2,13.83l-1.838,1.16c-2.188-3.457-4.551-10.175-4.551-14.989a66.744,66.744,0,0,1,1.378-11.248c1.029-5.821,2.123-11.838.832-16.937-.963-12.429-.678-24.858-.416-36.872.35-15.93.7-32.408-1.772-48.557-1.6-18.972,7.243-36.347,17.79-51.489.9-1.291,1.816-2.582,2.757-3.851,1.247-1.729,2.517-3.414,3.786-5.1,1.094-1.466,2.145-2.932,3.3-4.355,1.094-1.335,2.3-1.4,3.829-2.166a.661.661,0,0,0,.394-.372c.066-.306-.328-.5-.569-.7a1.244,1.244,0,0,1,.044-1.9c.328-.2.81-.394.744-.766a.7.7,0,0,0-.263-.394,3.157,3.157,0,0,1-.963-2.035,20.357,20.357,0,0,0,4.048.744c.066.7.044,1.466.153,2.21.066.569.109,1.247-.35,1.6C639.722,241.474,639.35,241.5,639.087,241.715Z" transform="translate(-605.113 -236.726)" fill="#1d272b"/>
        </g>
      </g>
      <g id="Grupo_121048" data-name="Grupo 121048" transform="translate(40.357 108.91)">
        <path id="Trazado_158743" data-name="Trazado 158743" d="M708.634,265.852c-.263,17.243-23.786,87.529-45.953,90.812-8.1,1.2-17.615-4.442-26.587-12.3-.022-.022-.044-.044-.066-.044-15.558-13.655-29.432-33.94-31.336-36.894-3-4.639-10.854-16.674-9.212-24.333s7.309-7.921,7.309-7.921,2.341,1.9,3.983,3,14.07,13.414,17.068,15.033c3.02,1.663,23.261,16.149,23.261,16.149s2.735-8.206,6.018-7.921c3.282.263,4.924-1.379,6.018-3.567a195.656,195.656,0,0,1,10.022-22.145c8.162-15.033,20.81-31.4,36.062-26.915.066,0,.81.044,1.619,1.6v.022C707.737,252.2,708.787,256.4,708.634,265.852Z" transform="translate(-595.257 -248.052)" fill="url(#linear-gradient)"/>
        <path id="Trazado_158744" data-name="Trazado 158744" d="M641.357,288.859c-2.451-.263-10.679-2.188-13.129-2.188s-6.3,4.376-6.565,6.565,9.584,7.921,13.129,13.129-1.926,9.847-5.208,3.282-10.635-15.318-10.635-15.318,2.735-8.206,6.018-7.921c3.282.263,4.923-1.379,6.018-3.567A195.655,195.655,0,0,1,641.007,260.7C636.827,272.71,643.786,289.121,641.357,288.859Z" transform="translate(-567.106 -233.027)" fill="#868695"/>
        <path id="Trazado_158745" data-name="Trazado 158745" d="M686.459,264.563c-.263,17.243-23.786,87.53-45.953,90.812-8.1,1.2-17.615-4.442-26.587-12.3,4.267,2.429,14.924,8.228,21.379,9.3,8.206,1.379,17.768-6.018,18.337-10.941.525-4.924-1.925-11.488,1.094-11.488,3,0,9.278-1.641,9.278-5.208,0-3.479,26.587-53.809,20.657-75.6C685.562,250.909,686.612,255.11,686.459,264.563Z" transform="translate(-573.082 -246.763)" fill="#1d272b"/>
      </g>
      <g id="Grupo_121049" data-name="Grupo 121049" transform="translate(22.818 102.061)">
        <path id="Trazado_158746" data-name="Trazado 158746" d="M590.418,247.214c.09-.928,1.724-1.656,1.724-1.656s.827,3.011,2.442,4.123a20.157,20.157,0,0,1,5.394,6.832c1.6,3.107,3.416,13.567,3.416,13.567s-9.613-10.059-9.9-11.882S590.418,247.214,590.418,247.214Z" transform="translate(-583.468 -244.167)" fill="#f7b242"/>
        <path id="Trazado_158747" data-name="Trazado 158747" d="M625.968,289.549s-2.554,16.046-14.405,19.694c0,0-10.51-24.136-10.928-26.217-.09-.584-.19-.969-.19-.969-11.138-6.821-10.418-12.937-10.418-12.937s-3.652-1.656-.733-5.84a4.99,4.99,0,0,1-1.442-3.039c-.057-.807,2.565-2.956,2.565-2.956s-1.46-2.6-.685-3.094a7.016,7.016,0,0,1,4.541-.691s-2.6-3.374-3.821-4.048c-3.5-1.888-5-5.786.026-4.127,2.512.8,9.451,7.6,11.5,10.847,2.094,3.215,5.718,15.554,6.8,17.613C609.827,275.869,625.968,289.549,625.968,289.549Z" transform="translate(-587.242 -244.922)" fill="#db8804"/>
        <path id="Trazado_158748" data-name="Trazado 158748" d="M588.687,250.621a5.537,5.537,0,0,1,3.729.656C594.335,252.369,588.687,250.621,588.687,250.621Z" transform="translate(-585.525 -238.252)" fill="#4ba6c6"/>
        <path id="Trazado_158749" data-name="Trazado 158749" d="M588.179,253.314s2.755-.118,3.267.613S590.083,254.176,588.179,253.314Z" transform="translate(-586.128 -234.958)" fill="#4ba6c6"/>
        <path id="Trazado_158750" data-name="Trazado 158750" d="M600.563,270.031c-.186.136-.7.1-1.435-.144-.09-.584-.19-.969-.19-.969C587.8,262.1,588.519,255.98,588.519,255.98l1.4.368a75.723,75.723,0,0,0,5.164,8.079c1.849,2.177,3.685,4.184,5.913,3.411C603.25,267.066,601.559,269.2,600.563,270.031Z" transform="translate(-585.735 -231.782)" fill="#f7b242"/>
      </g>
    </g>
    <g id="Grupo_127878" data-name="Grupo 127878" transform="translate(380 8346.297)">
      <path id="Trazado_163809" data-name="Trazado 163809" d="M310.622,240.3H267.049l11.992,63.754h19.591Z" transform="translate(-122.411 -240.305)" fill="#868695"/>
      <rect id="Rectángulo_35043" data-name="Rectángulo 35043" width="22.955" height="15.113" rx="1.111" transform="translate(154.976 63.754)" fill="#1d272b"/>
      <rect id="Rectángulo_35044" data-name="Rectángulo 35044" width="41.87" height="55.907" rx="4.786" transform="translate(114.465 22.96)" fill="#1d272b"/>
      <rect id="Rectángulo_35045" data-name="Rectángulo 35045" width="10.873" height="16.047" transform="translate(129.964 9.1)" fill="#868695"/>
      <rect id="Rectángulo_35046" data-name="Rectángulo 35046" width="18.866" height="11.732" rx="1.306" transform="translate(125.968 7.777)" fill="#868695"/>
      <g id="Grupo_127674" data-name="Grupo 127674" transform="translate(34.58 78.881)">
        <path id="Trazado_163810" data-name="Trazado 163810" d="M383.76,530.833h-3.388V276.844H224.183V530.833H220.8V273.456H383.76Z" transform="translate(-220.795 -273.456)" fill="#868695"/>
      </g>
      <rect id="Rectángulo_35047" data-name="Rectángulo 35047" width="5.035" height="31.102" transform="translate(13.405 363.203) rotate(180)" fill="#64546f"/>
      <g id="Grupo_127675" data-name="Grupo 127675" transform="translate(0 332.101)">
        <path id="Trazado_163811" data-name="Trazado 163811" d="M206.262,395.429c0,8.59,3.747,15.55,8.371,15.55s8.371-6.96,8.371-15.55-3.748-15.552-8.371-15.552S206.262,386.841,206.262,395.429Z" transform="translate(-206.262 -379.877)" fill="#1d272b"/>
      </g>
      <g id="Grupo_127676" data-name="Grupo 127676" transform="translate(5.156 332.101)">
        <path id="Trazado_163812" data-name="Trazado 163812" d="M208.429,395.429c0,8.59,3.748,15.55,8.373,15.55s8.368-6.96,8.368-15.55-3.748-15.552-8.368-15.552S208.429,386.841,208.429,395.429Z" transform="translate(-208.429 -379.877)" fill="#868695"/>
      </g>
      <rect id="Rectángulo_35048" data-name="Rectángulo 35048" width="5.033" height="31.102" transform="translate(38.728 363.203) rotate(180)" fill="#64546f"/>
      <g id="Grupo_127677" data-name="Grupo 127677" transform="translate(25.327 332.101)">
        <path id="Trazado_163813" data-name="Trazado 163813" d="M216.906,395.429c0,8.59,3.748,15.55,8.368,15.55s8.371-6.96,8.371-15.55-3.748-15.552-8.371-15.552S216.906,386.841,216.906,395.429Z" transform="translate(-216.906 -379.877)" fill="#1d272b"/>
      </g>
      <g id="Grupo_127678" data-name="Grupo 127678" transform="translate(30.483 332.101)">
        <path id="Trazado_163814" data-name="Trazado 163814" d="M219.073,395.429c0,8.59,3.748,15.55,8.368,15.55s8.373-6.96,8.373-15.55-3.75-15.552-8.373-15.552S219.073,386.841,219.073,395.429Z" transform="translate(-219.073 -379.877)" fill="#868695"/>
      </g>
      <rect id="Rectángulo_35049" data-name="Rectángulo 35049" width="5.035" height="31.102" transform="translate(173.182 363.203) rotate(180)" fill="#64546f"/>
      <g id="Grupo_127679" data-name="Grupo 127679" transform="translate(159.776 332.101)">
        <path id="Trazado_163815" data-name="Trazado 163815" d="M273.411,395.429c0,8.59,3.75,15.55,8.371,15.55s8.373-6.96,8.373-15.55-3.75-15.552-8.373-15.552S273.411,386.841,273.411,395.429Z" transform="translate(-273.411 -379.877)" fill="#1d272b"/>
      </g>
      <g id="Grupo_127680" data-name="Grupo 127680" transform="translate(164.934 332.101)">
        <path id="Trazado_163816" data-name="Trazado 163816" d="M275.579,395.429c0,8.59,3.747,15.55,8.371,15.55s8.371-6.96,8.371-15.55-3.75-15.552-8.371-15.552S275.579,386.841,275.579,395.429Z" transform="translate(-275.579 -379.877)" fill="#868695"/>
      </g>
      <rect id="Rectángulo_35050" data-name="Rectángulo 35050" width="5.035" height="31.102" transform="translate(198.507 363.203) rotate(180)" fill="#64546f"/>
      <g id="Grupo_127681" data-name="Grupo 127681" transform="translate(185.102 332.101)">
        <path id="Trazado_163817" data-name="Trazado 163817" d="M284.055,395.429c0,8.59,3.748,15.55,8.371,15.55s8.369-6.96,8.369-15.55-3.745-15.552-8.369-15.552S284.055,386.841,284.055,395.429Z" transform="translate(-284.055 -379.877)" fill="#1d272b"/>
      </g>
      <g id="Grupo_127682" data-name="Grupo 127682" transform="translate(190.258 332.101)">
        <path id="Trazado_163818" data-name="Trazado 163818" d="M286.222,395.429c0,8.59,3.747,15.55,8.371,15.55s8.371-6.96,8.371-15.55-3.748-15.552-8.371-15.552S286.222,386.841,286.222,395.429Z" transform="translate(-286.222 -379.877)" fill="#868695"/>
      </g>
      <rect id="Rectángulo_35051" data-name="Rectángulo 35051" width="159.577" height="43.036" transform="translate(170.526 316.207) rotate(180)" fill="#1d272b"/>
      <rect id="Rectángulo_35052" data-name="Rectángulo 35052" width="25.725" height="43.036" transform="translate(196.251 316.207) rotate(180)" fill="#a4a4b4"/>
      <path id="Trazado_163819" data-name="Trazado 163819" d="M241.589,371.254h35.03a8.437,8.437,0,0,0,8.438-8.437h-51.9A8.433,8.433,0,0,0,241.589,371.254Z" transform="translate(-169.164 -71.309)" fill="#a4a4b4"/>
      <rect id="Rectángulo_35053" data-name="Rectángulo 35053" width="159.577" height="43.036" transform="translate(170.526 268.059) rotate(180)" fill="#1d272b"/>
      <rect id="Rectángulo_35054" data-name="Rectángulo 35054" width="25.725" height="43.036" transform="translate(196.251 268.059) rotate(180)" fill="#a4a4b4"/>
      <path id="Trazado_163820" data-name="Trazado 163820" d="M241.589,351.019h35.03a8.439,8.439,0,0,0,8.438-8.437h-51.9A8.435,8.435,0,0,0,241.589,351.019Z" transform="translate(-169.164 -99.221)" fill="#a4a4b4"/>
      <rect id="Rectángulo_35055" data-name="Rectángulo 35055" width="159.577" height="43.036" transform="translate(170.526 219.908) rotate(180)" fill="#1d272b"/>
      <rect id="Rectángulo_35056" data-name="Rectángulo 35056" width="25.725" height="43.036" transform="translate(196.251 219.908) rotate(180)" fill="#a4a4b4"/>
      <path id="Trazado_163821" data-name="Trazado 163821" d="M241.589,330.782h35.03a8.437,8.437,0,0,0,8.438-8.435h-51.9A8.433,8.433,0,0,0,241.589,330.782Z" transform="translate(-169.164 -127.134)" fill="#a4a4b4"/>
      <rect id="Rectángulo_35057" data-name="Rectángulo 35057" width="159.577" height="43.036" transform="translate(170.526 171.76) rotate(180)" fill="#1d272b"/>
      <rect id="Rectángulo_35058" data-name="Rectángulo 35058" width="25.725" height="43.036" transform="translate(196.251 171.76) rotate(180)" fill="#a4a4b4"/>
      <path id="Trazado_163822" data-name="Trazado 163822" d="M241.589,310.546h35.03a8.437,8.437,0,0,0,8.438-8.435h-51.9A8.433,8.433,0,0,0,241.589,310.546Z" transform="translate(-169.164 -155.048)" fill="#a4a4b4"/>
      <rect id="Rectángulo_35059" data-name="Rectángulo 35059" width="159.577" height="43.036" transform="translate(170.526 123.611) rotate(180)" fill="#1d272b"/>
      <rect id="Rectángulo_35060" data-name="Rectángulo 35060" width="25.725" height="43.036" transform="translate(196.251 123.611) rotate(180)" fill="#a4a4b4"/>
      <path id="Trazado_163823" data-name="Trazado 163823" d="M241.589,290.312h35.03a8.439,8.439,0,0,0,8.438-8.437h-51.9A8.435,8.435,0,0,0,241.589,290.312Z" transform="translate(-169.164 -182.962)" fill="#a4a4b4"/>
      <g id="Grupo_127683" data-name="Grupo 127683" transform="translate(9.255 78.881)">
        <path id="Trazado_163824" data-name="Trazado 163824" d="M373.116,530.833h-3.388V276.844H213.539V530.833h-3.388V273.456H373.116Z" transform="translate(-210.152 -273.456)" fill="#868695"/>
      </g>
      <path id="Trazado_163825" data-name="Trazado 163825" d="M352.1,279.4H220.494a5.132,5.132,0,0,1-5.132-5.132h0a5.132,5.132,0,0,1,5.132-5.132H352.1a5.134,5.134,0,0,1,5.135,5.132h0A5.134,5.134,0,0,1,352.1,279.4Z" transform="translate(-193.709 -200.534)" fill="#a4a4b4"/>
      <g id="Grupo_127684" data-name="Grupo 127684" transform="translate(22.219 51.791)">
        <path id="Trazado_163826" data-name="Trazado 163826" d="M355.883,285.358H215.6v-1.345a21.968,21.968,0,0,1,21.943-21.943h96.4a21.968,21.968,0,0,1,21.943,21.943Zm-137.552-2.686H353.149a19.277,19.277,0,0,0-19.209-17.915h-96.4A19.28,19.28,0,0,0,218.332,282.672Z" transform="translate(-215.6 -262.071)" fill="#a4a4b4"/>
      </g>
    </g>
    <text id="EQUIPOS_DE_" data-name="EQUIPOS DE " transform="translate(404.882 8197)" fill="#008f85" font-size="23" font-family="Roboto-Bold, Roboto" font-weight="700"><tspan x="0" y="0">EQUIPOS DE </tspan></text>
    <text id="TANATOPRAXIA" transform="translate(404.882 8228)" fill="#1d272b" font-size="33" font-family="Roboto-Bold, Roboto" font-weight="700"><tspan x="0" y="0">TANATOPRAXIA</tspan></text>
    <rect id="Rectángulo_35419" data-name="Rectángulo 35419" width="5" height="67" transform="translate(392.882 8172)" fill="#d93328"/>
    <g id="Grupo_127886" data-name="Grupo 127886" transform="translate(516.446 -657.084)">
      <g id="Grupo_127882" data-name="Grupo 127882" transform="translate(-123.563 8961.795)">
        <g id="Grupo_127710" data-name="Grupo 127710" transform="translate(0.046)">
          <path id="Trazado_163858" data-name="Trazado 163858" d="M198.718,369.949a23.83,23.83,0,0,1-3.715.764,79.714,79.714,0,0,1-.682-11.381c.226-4.531.566-5.8,1.622-8.009l.541-.787a9.809,9.809,0,0,1,1.848,3.124c1.433,3.7,1.207,8.26.9,11.657S198.718,369.949,198.718,369.949Z" transform="translate(-193.502 -349.719)" fill="#1d272b"/>
          <path id="Trazado_163859" data-name="Trazado 163859" d="M194.595,359.717l3.514-.634s-.066.545-.292.71a6.409,6.409,0,0,1-2.044.577,1.689,1.689,0,0,1-1.022-.217C194.609,360.08,194.595,359.717,194.595,359.717Z" transform="translate(-193.105 -338.764)" fill="#fff"/>
          <path id="Trazado_163860" data-name="Trazado 163860" d="M194.583,366.584a3.278,3.278,0,0,0,.349-2.357c-.128-1.415-.3-3.874-.3-3.874a2.585,2.585,0,0,0,1.62.205c.977-.121,1.558-.224,2.279-1.825a40.355,40.355,0,0,0-.484,7.174,4.615,4.615,0,0,1,.167.9Z" transform="translate(-193.12 -339.213)" fill="#1d272b"/>
          <path id="Trazado_163861" data-name="Trazado 163861" d="M195.228,351.05l.637-.872a18.605,18.605,0,0,1,2.581,9.807,86.244,86.244,0,0,1-.643,10.243c-.068.687-.422,5.766-.429,6.206s.119,1.132.433,1.26a.626.626,0,0,1-.691-.069s-.036-3.639.237-6.211.753-10.774.584-12.721a17.336,17.336,0,0,0-1.629-6.241A9.029,9.029,0,0,0,195.228,351.05Z" transform="translate(-192.294 -350.178)" fill="#cde3e8"/>
          <g id="Grupo_127709" data-name="Grupo 127709" transform="translate(0 26.697)">
            <g id="Grupo_127708" data-name="Grupo 127708">
              <path id="Trazado_163862" data-name="Trazado 163862" d="M194.741,362.817c.1-.141.226-.116.614-.23a1.09,1.09,0,0,0,.666-.628,7.663,7.663,0,0,1,1.358-.08,16,16,0,0,0,2.35.867c.281.055.628-.073.673.21a110.181,110.181,0,0,1,.39,12.093c-.23,5.191-.821,19.958-.853,23.782s.39,10.2.518,11.993.032,2.031-.493,2.453-5.148.429-5.944-.379a19.722,19.722,0,0,1,.078-3.733,174.491,174.491,0,0,0,.349-25.576,54.157,54.157,0,0,1-.349-9.277C194.2,368.332,194.741,362.817,194.741,362.817Z" transform="translate(-193.94 -361.878)" fill="#1d272b"/>
              <path id="Trazado_163863" data-name="Trazado 163863" d="M200.363,383.506c-.13,1.294-.3,1.506-.678,1.761-.52.354-4.57.429-5.743-.233a1.261,1.261,0,0,0,.078.612c.8.812,5.392.762,5.942.379s.621-.657.493-2.448Z" transform="translate(-193.942 -334.158)" fill="#cde3e8"/>
            </g>
          </g>
        </g>
        <g id="Grupo_127711" data-name="Grupo 127711" transform="translate(0 0.867)">
          <path id="Trazado_163864" data-name="Trazado 163864" d="M195.923,351.343c-1.056,2.206-1.4,3.48-1.622,8.007a79.872,79.872,0,0,0,.68,11.383,2.5,2.5,0,0,0,1.7.331l-.212-20.506Z" transform="translate(-193.483 -350.558)" fill="#cde3e8"/>
          <path id="Trazado_163865" data-name="Trazado 163865" d="M195.335,362.606c-.388.116-.518.089-.614.228,0,0-.543,5.517-.646,11.5a54.161,54.161,0,0,0,.349,9.277,174.152,174.152,0,0,1-.349,25.578A19.641,19.641,0,0,0,194,412.92c.422.427,1.928.621,3.324.653V361.9a6.933,6.933,0,0,0-1.326.078A1.078,1.078,0,0,1,195.335,362.606Z" transform="translate(-193.922 -336.02)" fill="#1d272b"/>
        </g>
      </g>
      <g id="Grupo_127883" data-name="Grupo 127883" transform="translate(-60.215 8964.248)">
        <path id="Trazado_163866" data-name="Trazado 163866" d="M224.278,389.365c-3.95,0-7.153,3.792-7.153,8.47s3.2,8.472,7.153,8.472,7.153-3.792,7.153-8.472S228.23,389.365,224.278,389.365Zm0,14.712c-2.909,0-5.268-2.793-5.268-6.243s2.359-6.24,5.268-6.24,5.273,2.793,5.273,6.24S227.192,404.077,224.278,404.077Z" transform="translate(-217.125 -332.551)" fill="#1d272b"/>
        <path id="Trazado_163867" data-name="Trazado 163867" d="M227.4,428.1,228.9,399.86s1.586-12.433,2.195-14.872c1-4.014,5.239-18.918,4.862-19.86s-1.506-.187-2.072,1.885-5.424,17.85-5.424,17.85L225.7,397.6l-2.259,19.951-3.386,4.894,4.518,2.261Z" transform="translate(-213.37 -364.129)" fill="#1d272b"/>
        <path id="Trazado_163868" data-name="Trazado 163868" d="M231.955,389.117c-3.954,0-7.158,3.792-7.158,8.47s3.2,8.472,7.158,8.472,7.151-3.79,7.151-8.472S235.9,389.117,231.955,389.117Zm0,14.713c-2.911,0-5.273-2.793-5.273-6.243s2.362-6.238,5.273-6.238,5.266,2.793,5.266,6.238S234.864,403.829,231.955,403.829Z" transform="translate(-207.292 -332.869)" fill="#1d272b"/>
        <path id="Trazado_163869" data-name="Trazado 163869" d="M227.915,429.183l-2.539-23.527-3.012-1.885L224.057,384s4.671-18.429,5.711-19.26c.94-.753,1.882-.128,1,3.639-.486,2.09-3.512,15.938-3.512,15.938l3.386,35.264,4.427,1.127s-3.486,1.693-4.8,3.767A32.127,32.127,0,0,0,227.915,429.183Z" transform="translate(-210.41 -364.465)" fill="#1d272b"/>
        <path id="Trazado_163870" data-name="Trazado 163870" d="M226.091,381.439a1.506,1.506,0,1,1-1.5-1.506A1.507,1.507,0,0,1,226.091,381.439Z" transform="translate(-209.494 -344.64)" fill="#cde3e8"/>
      </g>
      <g id="Grupo_127884" data-name="Grupo 127884" transform="translate(-88.019 8961.798)">
        <path id="Trazado_163871" data-name="Trazado 163871" d="M224.952,359.326c0-5.054-3.459-9.147-7.728-9.147s-7.724,4.093-7.724,9.147,3.459,9.145,7.724,9.145S224.952,364.378,224.952,359.326Zm-2.033,0c0,3.722-2.549,6.74-5.7,6.74s-5.688-3.019-5.688-6.74,2.546-6.74,5.688-6.74S222.919,355.6,222.919,359.326Z" transform="translate(-209.5 -350.179)" fill="#1d272b"/>
        <path id="Trazado_163872" data-name="Trazado 163872" d="M220.592,354.81l1.627,30.5s1.061,11.609.963,14.32c-.285,7.765-.155,21.384-.376,22.461-.283,1.364-.94,1.045-1.036-1.273-.142-3.391-.94-19.965-.94-19.965l-2.067-13.1L216.325,366.2l-3.662-5.289,4.883-2.439Z" transform="translate(-205.446 -344.243)" fill="#1d272b"/>
        <path id="Trazado_163873" data-name="Trazado 163873" d="M233.239,359.595c0-5.054-3.459-9.15-7.728-9.15s-7.724,4.1-7.724,9.15,3.459,9.147,7.724,9.147S233.239,364.644,233.239,359.595Zm-2.035,0c0,3.721-2.546,6.74-5.693,6.74s-5.691-3.019-5.691-6.74,2.551-6.742,5.691-6.742S231.2,355.871,231.2,359.595Z" transform="translate(-198.878 -349.838)" fill="#1d272b"/>
        <path id="Trazado_163874" data-name="Trazado 163874" d="M221.093,354.362l-2.745,25.414-3.251,2.033,1.83,21.345s.844,17.083.922,18.518c.144,2.617.824,2.686,1.342-2.754.219-2.3,1.193-16.1,1.193-16.1l3.658-38.091,4.778-1.214s-3.763-1.83-5.184-4.066A34.793,34.793,0,0,1,221.093,354.362Z" transform="translate(-202.326 -344.818)" fill="#1d272b"/>
        <path id="Trazado_163875" data-name="Trazado 163875" d="M219.182,368.588a1.626,1.626,0,1,0-1.625,1.622A1.625,1.625,0,0,0,219.182,368.588Z" transform="translate(-201.257 -328.672)" fill="url(#linear-gradient)"/>
      </g>
      <g id="Grupo_127885" data-name="Grupo 127885" transform="translate(-104.091 8958.08)">
        <g id="Grupo_127724" data-name="Grupo 127724">
          <g id="Grupo_127723" data-name="Grupo 127723">
            <path id="Trazado_163876" data-name="Trazado 163876" d="M215.264,384.19c0,.769-2.66,1.257-5.946,1.278s-5.946-.443-5.951-1.212,2.663-1.168,5.948-1.191S215.264,383.426,215.264,384.19Z" transform="translate(-201.288 -304.311)" fill="#fff"/>
            <path id="Trazado_163877" data-name="Trazado 163877" d="M215.288,383.552c-.388.7-2.955,1.168-5.967,1.186-3.286.018-5.978-.4-5.978-1.207,0-.009.025,1.036.025,1.036h0c.027.806,2.688,1.282,5.951,1.266s5.919-.525,5.937-1.33l0,0v-.009l0,0,0,0A8.358,8.358,0,0,0,215.288,383.552Z" transform="translate(-201.319 -303.714)" fill="#1d272b"/>
            <g id="Grupo_127715" data-name="Grupo 127715" transform="translate(4.741 45.833)">
              <path id="Trazado_163878" data-name="Trazado 163878" d="M208.036,402.872l-2.17.018-.011-6.587a17.523,17.523,0,0,1-1.171-4.641c-.1-1.942-.11-1.942-.151-23.025,0,0,1.759.094,3.308.087C207.881,389.2,208.036,402.872,208.036,402.872Z" transform="translate(-204.534 -368.637)" fill="#1d272b"/>
              <path id="Trazado_163879" data-name="Trazado 163879" d="M205.91,368.89l3.117-.064s.246,22.142.173,23.429a27.752,27.752,0,0,1-.753,3.662c0,.977.071,6.722.071,6.722l-2.389.24Z" transform="translate(-202.77 -368.395)" fill="#1d272b"/>
            </g>
            <path id="Trazado_163880" data-name="Trazado 163880" d="M212.3,368.559l-8.027.043c-.059,0-.114.094-.114.21s.055.208.114.208l.344,0-.016.643-.345,0a.124.124,0,0,0-.112.137c0,.084.055.208.119.208h.342l.011.516h-.338a.144.144,0,0,0-.119.153c0,.082.055.155.119.153l8.027-.043c.059,0,.11-.071.11-.151s-.053-.155-.11-.155h-.347l0-.543.349,0c.059,0,.11-.064.11-.148s-.053-.155-.114-.155l-.345,0,0-.662.345,0c.059,0,.116-.093.116-.208S212.355,368.559,212.3,368.559Z" transform="translate(-200.296 -322.904)" fill="#fff"/>
            <path id="Trazado_163881" data-name="Trazado 163881" d="M203.75,400.41l-.059-39.232a.278.278,0,0,1,.278-.283h0l9.56-.052a.281.281,0,0,1,.2.08h0a.277.277,0,0,1,.08.2h0l.1,39.136a.287.287,0,0,1-.123.228h0a4.086,4.086,0,0,1-1.832.468h0a30.763,30.763,0,0,1-3.1.167h0a23.532,23.532,0,0,1-3.249-.141h0a10.59,10.59,0,0,1-1.65-.3h0a.355.355,0,0,1-.114-.066h0a.279.279,0,0,1-.084-.2Zm.559-.217a12.494,12.494,0,0,0,1.358.231h0a22.4,22.4,0,0,0,3.169.137h0a30.024,30.024,0,0,0,3.048-.162h0a5.674,5.674,0,0,0,1.264-.24h0c.084-.032.144-.05.192-.073h0l-.089-38.686-9,.055.062,38.739Z" transform="translate(-200.873 -332.793)" fill="#1d272b"/>
            <path id="Trazado_163882" data-name="Trazado 163882" d="M203.712,363.442l-.021-.055.018-.078a.53.53,0,0,1,.132-.242h0a1.527,1.527,0,0,1,.623-.324h0c.682-.176,1.793-.331,2.38-.5h0a1.321,1.321,0,0,0,.256-.087h0c.018-.5.059-2.788.059-2.793h0v-.269l3.338-.021v.281s.009,2.124.03,2.743h0l.009,0h0c.068.027.171.059.292.1h0c.244.071.573.151.917.224h0a5.553,5.553,0,0,1,1.962.566h0a.388.388,0,0,1,.132.253h0l.011.1v17.416l-.283,0,.283,0v.281l-10.069.062-.071-17.656Zm.625,17.1,8.956-.059.007-17.1-.007-.018a9.792,9.792,0,0,0-1.661-.4h0a4.8,4.8,0,0,1-1.558-.5h0l-.021-.027h0a.241.241,0,0,1-.075-.167h0c-.025-.246-.03-1.962-.034-2.642h0l-2.234.009c-.014.7-.048,2.5-.05,2.626h0a.366.366,0,0,1-.109.244h0a3.088,3.088,0,0,1-1.323.44h0c-.566.112-1.207.221-1.613.326h0a1.359,1.359,0,0,0-.347.153h0l.071,17.106Z" transform="translate(-200.873 -335.066)" fill="#1d272b"/>
            <path id="Trazado_163883" data-name="Trazado 163883" d="M206.447,365.52l-.619.009-.022-16.979.625,1.52Z" transform="translate(-198.163 -348.55)" fill="#fff"/>
            <path id="Trazado_163884" data-name="Trazado 163884" d="M207.842,356.609s-.112-.454-.137-.525l-.146.025-.185.335.007,3a.325.325,0,0,1-.632,0l-.009-2.955-.212-.367s-.132-.05-.151-.034a2.5,2.5,0,0,0-.146.575,1.1,1.1,0,0,0-.274.062,16.868,16.868,0,0,0,.1,2.542c.05.347-.322.721-.484,1.061s-.5,3.87-.5,3.959c0,0,.333.009,2.006.043,1.46-.011,1.914-.059,1.914-.059-.009-.1-.262-3.6-.424-3.947s-.577-.751-.529-1.1a16.065,16.065,0,0,0,.073-2.558A.906.906,0,0,0,207.842,356.609Z" transform="translate(-199.097 -338.893)" fill="#fff"/>
            <path id="Trazado_163885" data-name="Trazado 163885" d="M205.691,356.326c0-.217.251-.406.559-.406s.57.18.57.395c0,0-.29.023-.6.021S205.691,356.326,205.691,356.326Z" transform="translate(-198.31 -339.103)" fill="#fff"/>
            <path id="Trazado_163886" data-name="Trazado 163886" d="M209.567,359.763c0,.087-.089.155-.205.16l-4.26.025a.188.188,0,0,1-.205-.162h0c0-.087.094-.16.205-.16l4.26-.025a.189.189,0,0,1,.205.162Z" transform="translate(-199.329 -334.385)" fill="#fff"/>
            <g id="Grupo_127716" data-name="Grupo 127716" transform="translate(4.605 30.324)">
              <path id="Trazado_163887" data-name="Trazado 163887" d="M204.558,361.993c-.046,0-.084-.025-.084-.062h0c0-.039.039-.064.082-.064h0l5.054-.027c.046,0,.082.027.082.059h0a.078.078,0,0,1-.084.069h0l-5.049.025Z" transform="translate(-204.474 -361.84)" fill="#fff" opacity="0.92"/>
              <path id="Trazado_163888" data-name="Trazado 163888" d="M204.565,364.946c-.048,0-.087-.03-.084-.064h0a.077.077,0,0,1,.082-.066h0l5.054-.027a.072.072,0,0,1,.078.064h0c0,.039-.034.064-.078.064h0l-5.052.03Z" transform="translate(-204.465 -358.06)" fill="#fff" opacity="0.92"/>
              <path id="Trazado_163889" data-name="Trazado 163889" d="M204.569,367.962a.071.071,0,0,1-.082-.062h0a.071.071,0,0,1,.082-.064h0l5.054-.032a.074.074,0,0,1,.078.064h0c0,.039-.034.064-.078.066h0l-5.054.027Z" transform="translate(-204.457 -354.195)" fill="#fff" opacity="0.92"/>
              <path id="Trazado_163890" data-name="Trazado 163890" d="M204.561,362.542a.082.082,0,0,1-.087-.062h0a.084.084,0,0,1,.089-.066h0l2.282-.014a.075.075,0,0,1,.08.064h0a.076.076,0,0,1-.08.064h0l-2.284.014Z" transform="translate(-204.474 -361.122)" fill="#fff" opacity="0.92"/>
              <path id="Trazado_163891" data-name="Trazado 163891" d="M204.559,363.145c-.048,0-.082-.03-.082-.064h0a.075.075,0,0,1,.082-.066h0l2.282-.014c.043,0,.082.03.08.069h0c0,.034-.034.059-.08.064h0l-2.282.011Z" transform="translate(-204.47 -360.352)" fill="#fff" opacity="0.92"/>
              <path id="Trazado_163892" data-name="Trazado 163892" d="M204.56,363.747c-.048,0-.08-.03-.08-.062h0c0-.039.032-.069.08-.069h0l2.279-.016c.043,0,.082.032.082.071h0c0,.034-.039.062-.082.062h0l-2.279.014Z" transform="translate(-204.466 -359.583)" fill="#fff" opacity="0.92"/>
              <path id="Trazado_163893" data-name="Trazado 163893" d="M204.562,364.345c-.05,0-.082-.025-.082-.064h0a.075.075,0,0,1,.082-.064h0l2.282-.014a.075.075,0,0,1,.078.064h0c0,.034-.03.064-.082.066h0l-2.277.011Z" transform="translate(-204.466 -358.81)" fill="#fff" opacity="0.92"/>
              <path id="Trazado_163894" data-name="Trazado 163894" d="M204.564,365.552a.075.075,0,0,1-.082-.068h0c0-.032.037-.062.082-.062h0l2.282-.016a.075.075,0,0,1,.08.066h0a.071.071,0,0,1-.08.064h0l-2.282.016Z" transform="translate(-204.464 -357.269)" fill="#fff" opacity="0.92"/>
              <path id="Trazado_163895" data-name="Trazado 163895" d="M204.565,366.148c-.046,0-.08-.025-.082-.064h0c0-.034.036-.062.082-.062h0l2.279-.014c.048,0,.084.03.08.066h0c0,.032-.03.062-.078.062h0l-2.282.011Z" transform="translate(-204.462 -356.497)" fill="#fff" opacity="0.92"/>
              <path id="Trazado_163896" data-name="Trazado 163896" d="M204.563,366.749c-.043,0-.078-.025-.078-.059h0a.074.074,0,0,1,.078-.07h0l2.286-.009a.069.069,0,0,1,.078.066h0c0,.034-.034.062-.08.062h0l-2.284.011Z" transform="translate(-204.46 -355.726)" fill="#fff" opacity="0.92"/>
              <path id="Trazado_163897" data-name="Trazado 163897" d="M204.567,367.354a.074.074,0,0,1-.082-.064h0a.077.077,0,0,1,.082-.064h0l2.282-.016a.072.072,0,0,1,.08.066h0a.07.07,0,0,1-.075.064h0l-2.286.014Z" transform="translate(-204.46 -354.957)" fill="#fff" opacity="0.92"/>
            </g>
            <g id="Grupo_127718" data-name="Grupo 127718" transform="translate(10.777 29.925)">
              <g id="Grupo_127717" data-name="Grupo 127717">
                <path id="Trazado_163898" data-name="Trazado 163898" d="M207.455,362.569l0-.653-.151.167-.123-.071.308-.347h.125l0,.9Z" transform="translate(-207.179 -361.665)" fill="#fff"/>
              </g>
            </g>
            <g id="Grupo_127720" data-name="Grupo 127720" transform="translate(10.617 36.681)">
              <g id="Grupo_127719" data-name="Grupo 127719">
                <path id="Trazado_163899" data-name="Trazado 163899" d="M207.118,364.92a.362.362,0,0,1,.4-.294c.431,0,.548.365.242.538-.162.107-.205.13-.365.24l.518,0v.123l-.8,0,0-.1.536-.365v0c.18-.1.135-.312-.13-.312a.211.211,0,0,0-.233.173Z" transform="translate(-207.109 -364.626)" fill="#fff"/>
              </g>
            </g>
            <g id="Grupo_127722" data-name="Grupo 127722" transform="translate(10.633 43.435)">
              <g id="Grupo_127721" data-name="Grupo 127721">
                <path id="Trazado_163900" data-name="Trazado 163900" d="M207.383,367.976l.169,0a.141.141,0,0,0,.157-.135c0-.091-.11-.13-.217-.128a.194.194,0,0,0-.2.11l-.148-.03a.336.336,0,0,1,.345-.205c.183,0,.379.078.381.253a.2.2,0,0,1-.1.187.214.214,0,0,1,.144.21c0,.132-.135.26-.406.262-.244,0-.358-.11-.39-.23l.155-.025c.014.071.087.137.233.135.18,0,.267-.08.253-.157-.007-.05-.055-.123-.2-.123l-.171,0Z" transform="translate(-207.116 -367.586)" fill="#fff"/>
              </g>
            </g>
            <path id="Trazado_163901" data-name="Trazado 163901" d="M202.456,378.672c0,.486,3.555.86,7.938.84s7.927-.445,7.927-.931-3.553-.865-7.938-.842S202.456,378.181,202.456,378.672Zm3.808-.114c0-.226,1.848-.42,4.125-.429s4.123.16,4.123.383-1.846.418-4.123.431S206.264,378.784,206.264,378.558Z" transform="translate(-202.456 -311.139)" fill="#fff"/>
            <path id="Trazado_163902" data-name="Trazado 163902" d="M210.394,379.031c-4.376.023-7.931-.354-7.936-.842l0,.826h0v0h0c.034.491,3.571.862,7.931.837s7.893-.436,7.927-.926h0l-.009-.8C218.175,378.609,214.693,379.008,210.394,379.031Zm-7.936-.6,0,.009.007-.009Zm0,.009Z" transform="translate(-202.456 -310.636)" fill="#cde3e8"/>
          </g>
        </g>
        <rect id="Rectángulo_35061" data-name="Rectángulo 35061" width="3.22" height="2.246" transform="translate(4.785 65.343)" fill="#cde3e8"/>
      </g>
    </g>
  </g>
</svg>
