<svg xmlns="http://www.w3.org/2000/svg" xmlns:xlink="http://www.w3.org/1999/xlink" width="336.193" height="267.646" viewBox="0 0 336.193 267.646">
  <defs>
    <radialGradient id="radial-gradient" cx="0.5" cy="0.5" r="0.5" gradientUnits="objectBoundingBox">
      <stop offset="0" stop-color="#f6f6f7"/>
      <stop offset="0.477" stop-color="#f9f9fa"/>
      <stop offset="0.715" stop-color="#fff"/>
    </radialGradient>
  </defs>
  <g id="img2" transform="translate(-233.397 -931.021)">
    <g id="Grupo_127746" data-name="Grupo 127746" transform="translate(233.397 931.021)">
      <path id="Trazado_163418" data-name="Trazado 163418" d="M375.1,356.255c12.824-16.747,16.472-38.483,9.682-57.676-4.293-12.134-12.532-23.407-13.585-36.061-2.107-25.3,24.45-45.752,29.96-70.669,2.421-10.95-.22-23.708-10.6-30.36-10.252-6.57-24.885-5.229-36.492-.627s-21.428,11.966-32.572,17.351-24.866,8.713-36.634,4.428c-11.92-4.341-18.682-15.283-22.47-25.947s-5.647-22.022-12.11-31.684c-10.653-15.923-33.368-24.6-54.535-22.358s-40.08,14.553-50.224,30.721S133.6,169.1,138.65,186.954c2.562,9.057,6.781,17.73,9.082,26.84s2.512,19.079-2.625,27.284c-10.742,17.157-39.082,19.55-53.923,34.263-12.249,12.144-12.633,30.676-5.682,45.61s20.015,27.051,33.04,38.579c60.752,1.76,122.593,1.877,183.345,3.637C325.5,363.85,351.515,357.451,375.1,356.255Z" transform="translate(-80.961 -100.049)" fill="#a4a4b4" opacity="0.354" style="mix-blend-mode: multiply;isolation: isolate"/>
      <path id="Trazado_163419" data-name="Trazado 163419" d="M359.209,161.77c-.089,9.9,8.988,18.52,7.409,28.286-.845,5.225-4.684,10.522-2.453,15.288,1.974,4.217,7.628,4.949,11.952,3.577,10.12-3.21,16.271-13.937,19.213-24.479,2.767-9.916,3.454-20.991-.977-30.235-3.571-7.447-11.809-14.022-20.175-13.414C366.514,141.351,359.276,154.311,359.209,161.77Z" transform="translate(-61.348 -79.012)" fill="#a4a4b4" opacity="0.31" style="mix-blend-mode: multiply;isolation: isolate"/>
      <path id="Trazado_163420" data-name="Trazado 163420" d="M115.079,132.809c-10.892,12.644-11.384,29.309-1.245,42.253a31.445,31.445,0,0,0,13.373,10.176c5.841,2.274,13.379,2.782,19.194.474,8.819-3.5,10.769-11.756,10.067-18.8s-3-14.435.9-20.957c2.543-4.251,7.425-7.566,11.757-11.047s8.374-7.545,8.6-12.147c.58-11.93-17.623-11.038-28.594-8.561C135.127,117.36,122.673,123.994,115.079,132.809Z" transform="translate(-63.492 -100.496)" fill="#a4a4b4" opacity="0.31" style="mix-blend-mode: multiply;isolation: isolate"/>
      <g id="Grupo_127514" data-name="Grupo 127514" transform="translate(4.927 0)" style="mix-blend-mode: multiply;isolation: isolate">
        <path id="Trazado_151849" data-name="Trazado 151849" d="M374.723,358.816l-1.318-1.027c3.626-3.384,9.415-11.142,7.455-25.09-.872-6.209-3.034-12.343-5.125-18.274-.933-2.65-1.9-5.39-2.742-8.111-8.993-29.032-5.059-61.058,10.792-87.866,1.408-2.379,2.931-4.766,4.405-7.074,4.369-6.843,8.886-13.92,10.829-21.564,3.407-13.414-3.328-23.468-11.026-27.133-7.386-3.518-17.812-2.98-28.6,1.476-3.948,1.629-7.785,3.622-11.495,5.55a113.376,113.376,0,0,1-15.418,7.046c-21.419,7.338-48.2,1.1-62.29-14.5-6.772-7.5-10.6-16.562-14.294-25.327-1.433-3.4-2.915-6.909-4.544-10.269-5.068-10.448-14.343-23.563-29.751-26.7-13.538-2.758-27.251,3.3-36.368,8.873-17.444,10.657-29.739,25.09-34.624,40.638-3.293,10.485-3.426,21.9-3.554,32.935-.191,16.436-.389,33.432-11.259,47.119-4.945,6.227-11.747,11.195-18.324,16-6.16,4.5-12.53,9.152-17.279,14.792-10.759,12.779-13.4,30.871-7.236,49.638,5.536,16.862,16.822,31.823,27.735,46.292l-1.5.824c-10.985-14.563-22.344-29.622-27.953-46.7-6.309-19.215-3.573-37.782,7.5-50.938,4.874-5.789,11.327-10.5,17.566-15.061,6.488-4.739,13.2-9.64,18.007-15.7,10.569-13.308,10.755-29.323,10.951-46.279.13-11.132.263-22.642,3.616-33.315,4.991-15.888,17.531-30.62,35.309-41.483,9.419-5.754,23.626-12.007,37.821-9.115,16.141,3.286,25.759,16.823,30.985,27.6,1.646,3.394,3.135,6.923,4.574,10.336,3.651,8.654,7.426,17.6,14.028,24.912,13.622,15.085,39.508,21.112,60.214,14.019a112.106,112.106,0,0,0,15.155-6.933c3.746-1.947,7.62-3.959,11.644-5.62,11.321-4.673,22.346-5.2,30.25-1.435,8.255,3.93,15.5,14.615,11.9,28.786-2,7.858-6.576,15.032-11.007,21.97-1.467,2.3-2.985,4.673-4.379,7.031-15.657,26.479-19.543,58.113-10.66,86.789.834,2.7,1.8,5.424,2.726,8.062,2.113,5.994,4.3,12.191,5.189,18.531C384.677,347.069,378.554,355.241,374.723,358.816Z" transform="translate(-87.906 -97.739)" fill="#a4a4b4"/>
      </g>
    </g>
    <g id="Grupo_127747" data-name="Grupo 127747" transform="translate(243.778 954.789)">
      <g id="Grupo_127628" data-name="Grupo 127628" transform="translate(206.296 0)">
        <path id="Trazado_163694" data-name="Trazado 163694" d="M477.451,369.314c-.1,1.478-.174,2.782-.239,3.868-.152,2.618-2.868,4.683-5.541,4.791a5.16,5.16,0,0,1-5.357-4.954c-.043-1.119-.1-2.358-.174-3.705-1.032-19.438-4.792-61.008-5.606-66.94-1.2,7.117-8.909,59.965-10.539,72.709-.1.685-.163,1.25-.217,1.684-.293,2.553-3.194,4.455-5.835,4.466a5.161,5.161,0,0,1-5.183-5.15c0-.272,0-.608-.011-1-.141-12.3-2.064-82.651-2.119-85.085-.13-6.258,17.417-34.279,17.417-34.279l17.96-3.129s11.7,25.729,11.876,29.608C484.024,285.381,478.884,347.312,477.451,369.314Z" transform="translate(-406.535 -156.361)" fill="#1d272b"/>
        <path id="Trazado_163695" data-name="Trazado 163695" d="M439.727,245.223l-1.9-29.883a9.889,9.889,0,0,0-.266-1.694,9.256,9.256,0,0,0-17.941,4.566l6.075,23.872-14.543,4.891a3.255,3.255,0,0,0,1.146,6.339l22.217-.749c.047,0,.117,0,.164-.008a5.506,5.506,0,0,0,5.146-5.846Z" transform="translate(-408.931 -160.333)" fill="url(#radial-gradient)"/>
        <path id="Trazado_163696" data-name="Trazado 163696" d="M485.156,290.282a183.206,183.206,0,0,1-47.228,5.665c.6-7.846.938-14.446,1.147-19.351.692-16.286.193-20.709-.313-23.786a66.41,66.41,0,0,0-5.071-16.671c-.139-.093-.352-.239-.6-.426a17.093,17.093,0,0,1-3.607-3.618,11.7,11.7,0,0,1-1.377-2.334,43.018,43.018,0,0,1-2.427-8.278c-1.578-6.168-4.577-6.317-4.018-9.1.6-3.036,4.156-2.716,9.11-7.971,2.494-2.635,3.93-4.16,4.479-6.44.036-.149.072-.3.1-.453.215-1.176-.225-3.868-.785-6.452a36.751,36.751,0,0,0-.179-4.527c-.045-.5-.095-1.028-.166-1.57,1.833.536,13.023-.463,14.39-1.117-.028.883-.016,1.692.028,2.427a.408.408,0,0,0,0,.1,18.852,18.852,0,0,0,.756,5.515c.075.277.161.514.166.541a20.043,20.043,0,0,0,.88,2.208c.03.06.05.113.083.173a9.619,9.619,0,0,0,2.4,3.182c3.136,2.591,8.083.2,12.317,2.9,4.212,2.695,4.788,9.179,5.138,13.2.592,6.78-1.3,9-1.333,17.055a50.88,50.88,0,0,0,1.23,11.293,67.672,67.672,0,0,1,14.889,47.825Z" transform="translate(-407.836 -162.307)" fill="url(#radial-gradient)"/>
        <g id="Grupo_127619" data-name="Grupo 127619" transform="translate(18.46 63.081)">
          <path id="Trazado_163697" data-name="Trazado 163697" d="M437.46,245.3a.408.408,0,0,1-.4-.34,38.314,38.314,0,0,0-2.7-9.085c-.407-.928-.859-1.858-1.349-2.762-.139-.095-.324-.223-.536-.379a17.407,17.407,0,0,1-3.693-3.705,12.269,12.269,0,0,1-1.423-2.413c-.2-.464-.353-.819-.515-1.244-.34-.887-.643-1.82-.9-2.774a.406.406,0,0,1,.286-.5.4.4,0,0,1,.5.285c.254.929.55,1.836.88,2.7.158.414.306.758.5,1.21a11.265,11.265,0,0,0,1.331,2.253,16.568,16.568,0,0,0,3.52,3.532c.247.183.453.324.589.414a.406.406,0,0,1,.133.146c.517.952,1,1.931,1.428,2.912a39.175,39.175,0,0,1,2.758,9.278.407.407,0,0,1-.336.468A.447.447,0,0,1,437.46,245.3Z" transform="translate(-425.922 -222.081)" fill="#a4a4b4"/>
        </g>
        <path id="Trazado_163698" data-name="Trazado 163698" d="M449.433,194.65c.029.06.05.113.081.173a41.706,41.706,0,0,1-12,2.98c-1.139.108-2.23.167-3.276.172.036-.149.072-.3.1-.453.215-1.176-.225-3.868-.786-6.452a36.745,36.745,0,0,0-.179-4.527c-.045-.5-.095-1.028-.166-1.57,1.833.536,13.023-.463,14.39-1.117-.028.883-.016,1.692.028,2.427a.422.422,0,0,0,0,.1,18.79,18.79,0,0,0,.757,5.513c.074.278.16.515.165.542A20.052,20.052,0,0,0,449.433,194.65Z" transform="translate(-406.831 -162.307)" fill="#f8d1b9"/>
        <g id="Grupo_127624" data-name="Grupo 127624" transform="translate(18.05)">
          <path id="Trazado_163699" data-name="Trazado 163699" d="M445.539,178.34c3.756,4.409,4.081,6.49,3.53,7.561a2.582,2.582,0,0,0-.558,1.739c.221,1.1,1.618,1.259,1.693,2.2.068.845-1.026,1.063-1.022,2,0,.967,1.17,1.241,1.4,2.413a2.7,2.7,0,0,1-.453,1.888l-1.27-.09a35.679,35.679,0,0,1-1.769-4.546A36.436,36.436,0,0,1,445.539,178.34Z" transform="translate(-423.821 -162.784)" fill="#64546f"/>
          <g id="Grupo_127620" data-name="Grupo 127620" transform="translate(0.34 2.705)">
            <path id="Trazado_163700" data-name="Trazado 163700" d="M448.711,181.293c0,7.822-4.932,14.242-11.055,14.4-6.266.159-11.589-6.3-11.793-14.3s4.785-14.719,11.05-14.879,11.588,6.3,11.792,14.3Z" transform="translate(-425.857 -166.512)" fill="#f8d1b9"/>
          </g>
          <g id="Grupo_127623" data-name="Grupo 127623" transform="translate(0.658 15.925)">
            <path id="Trazado_163701" data-name="Trazado 163701" d="M434.992,181.482a.725.725,0,1,0,.975-.321A.725.725,0,0,0,434.992,181.482Z" transform="translate(-425.391 -178.472)" fill="#64546f"/>
            <path id="Trazado_163702" data-name="Trazado 163702" d="M428.005,182.275a.725.725,0,1,0,.974-.321A.725.725,0,0,0,428.005,182.275Z" transform="translate(-425.996 -178.403)" fill="#64546f"/>
            <g id="Grupo_127621" data-name="Grupo 127621" transform="translate(8.997)">
              <path id="Trazado_163703" data-name="Trazado 163703" d="M437.695,179.669a.263.263,0,0,1-.127-.031,3.55,3.55,0,0,0-1.784-.412,3.423,3.423,0,0,0-.991.192.271.271,0,1,1-.18-.512,3.973,3.973,0,0,1,1.147-.224,4.086,4.086,0,0,1,2.061.475.272.272,0,0,1-.126.512Z" transform="translate(-434.431 -178.679)" fill="#64546f"/>
            </g>
            <g id="Grupo_127622" data-name="Grupo 127622" transform="translate(0 1.049)">
              <path id="Trazado_163704" data-name="Trazado 163704" d="M426.422,180.788a.271.271,0,0,1-.148-.5,3.915,3.915,0,0,1,1.063-.489,4.027,4.027,0,0,1,2.113-.028.272.272,0,0,1-.132.527,3.5,3.5,0,0,0-1.831.023,3.443,3.443,0,0,0-.917.422A.268.268,0,0,1,426.422,180.788Z" transform="translate(-426.15 -179.645)" fill="#64546f"/>
            </g>
            <path id="Trazado_163705" data-name="Trazado 163705" d="M426.962,186.341a7.2,7.2,0,0,0,5.167-2.775,1.068,1.068,0,0,1,.651-.64,1.046,1.046,0,0,1,1.133.422,7.588,7.588,0,0,0,3.412.9c4.9.068,7.865-5.025,8.04-5.336a6.306,6.306,0,0,0-.305,2.909c.315,2.221,1.743,2.762,2.1,4.306.612,2.652-2.424,6.146-5.587,7.618a10.71,10.71,0,0,1-8.576-.015A11.251,11.251,0,0,1,426.962,186.341Z" transform="translate(-426.079 -178.66)" fill="#1d272b"/>
          </g>
          <path id="Trazado_163706" data-name="Trazado 163706" d="M425.941,179.689a16.162,16.162,0,0,1,6.959-2.919,17.453,17.453,0,0,1,9.609,1.433,21.59,21.59,0,0,1,5.979,3.659,21.741,21.741,0,0,0-3.146-15.423,14.194,14.194,0,0,0-19.8,3.99Q425.743,175.059,425.941,179.689Z" transform="translate(-425.544 -164.023)" fill="url(#radial-gradient)"/>
          <path id="Trazado_163707" data-name="Trazado 163707" d="M443.41,180.491c-.134,2.09,1.026,3.867,2.591,3.967s2.94-1.514,3.074-3.605-1.025-3.867-2.59-3.967S443.544,178.4,443.41,180.491Z" transform="translate(-423.999 -162.911)" fill="#f8d1b9"/>
        </g>
        <path id="Trazado_163708" data-name="Trazado 163708" d="M473.356,244.561l-.139-1.119-1.1-8.847-1.182-8.812q-1.219-8.811-2.631-17.63a10.088,10.088,0,0,0-.342-1.417,9.245,9.245,0,0,0-17.573,5.75q2.705,8.274,5.252,16.653l2.51,8.385.857,2.973q-.138.042-.277.088c-2.286.718-4.575,1.424-6.869,2.1-4.583,1.352-9.194,2.646-13.762,3.649l-.062.012a3.238,3.238,0,0,0,.678,6.4c5.022.03,9.93-.229,14.834-.546,2.451-.16,4.9-.349,7.34-.551s4.869-.419,7.358-.676c.03,0,.09-.009.121-.013A5.736,5.736,0,0,0,473.356,244.561Z" transform="translate(-406.633 -160.879)" fill="url(#radial-gradient)"/>
        <g id="Grupo_127625" data-name="Grupo 127625" transform="translate(31.366 71.783)">
          <path id="Trazado_163709" data-name="Trazado 163709" d="M438.207,233.447a.407.407,0,0,1-.187-.769,23.208,23.208,0,0,1,14.5-2.266.408.408,0,0,1-.136.8,22.4,22.4,0,0,0-13.994,2.186A.413.413,0,0,1,438.207,233.447Z" transform="translate(-437.8 -230.09)" fill="#a4a4b4"/>
        </g>
        <g id="Grupo_127626" data-name="Grupo 127626" transform="translate(31.855 86.022)">
          <path id="Trazado_163710" data-name="Trazado 163710" d="M438.657,251.511a.408.408,0,0,1-.053-.812l8.331-1.1c8.6-1.139,16.035-2.121,18.492-2.391a9.372,9.372,0,0,0,6.823-3.85.408.408,0,0,1,.653.488,10.182,10.182,0,0,1-7.363,4.169c-2.472.273-9.9,1.254-18.5,2.391l-8.331,1.1A.433.433,0,0,1,438.657,251.511Z" transform="translate(-438.25 -243.196)" fill="#a4a4b4"/>
        </g>
        <g id="Grupo_127627" data-name="Grupo 127627" transform="translate(30.324 61.371)">
          <path id="Trazado_163711" data-name="Trazado 163711" d="M437.249,245.326a.407.407,0,0,1-.132-.793l22.909-7.826-5.371-15.659a.407.407,0,1,1,.77-.265l5.5,16.045a.408.408,0,0,1-.254.518L437.38,245.3A.4.4,0,0,1,437.249,245.326Z" transform="translate(-436.841 -220.508)" fill="#a4a4b4"/>
        </g>
        <path id="Trazado_163712" data-name="Trazado 163712" d="M449.826,365.33c-.1.684-.163,1.25-.217,1.684-.293,2.553-3.194,4.455-5.835,4.465a5.161,5.161,0,0,1-5.183-5.15c0-.272,0-.608-.011-1Z" transform="translate(-406.366 -146.607)" fill="#f9afb6"/>
        <path id="Trazado_163713" data-name="Trazado 163713" d="M475.1,360.02c-.1,1.478-.174,2.781-.239,3.868-.152,2.618-2.868,4.683-5.541,4.792a5.16,5.16,0,0,1-5.357-4.954c-.043-1.119-.1-2.358-.174-3.705Z" transform="translate(-404.185 -147.066)" fill="#f9afb6"/>
        <path id="Trazado_163714" data-name="Trazado 163714" d="M453.73,378.06a1.684,1.684,0,0,1-.573,1.455h-30.2a2.384,2.384,0,0,1-.518-1.217c-.083-.563,0-3.126.508-3.64.582-.585,1.858-.8,3.226-1.3a60.146,60.146,0,0,0,9.492-5.035c1.22-1.613,2.616-4.581,4.021-5.946a1.333,1.333,0,0,1,1.026-.475c.629.089.97.959,1.026,1.1a3.565,3.565,0,0,1-.517,2.967,9.675,9.675,0,0,0,3.956,2.275,5.153,5.153,0,0,0,3.068.228c2.015-.613,2.412-2.681,3.291-2.5.665.139,1.044,1.474,1.607,5.48C453.407,373.342,453.592,376.7,453.73,378.06Z" transform="translate(-407.765 -146.904)" fill="#db8804"/>
        <path id="Trazado_163715" data-name="Trazado 163715" d="M475.423,361.493a21.7,21.7,0,0,1-11.316,1.082,14.8,14.8,0,0,1-.83,3.334c-1,2.66-2.13,3.351-3.09,6.212-.715,2.135-1.708,5.094-.072,6.579.854.775,2,.761,6.9.792,3.526.021,6.207.048,7.4.06a16.587,16.587,0,0,0,2.3-7.795C476.773,369.416,476.241,367.917,475.423,361.493Z" transform="translate(-404.58 -146.939)" fill="#db8804"/>
        <path id="Trazado_163716" data-name="Trazado 163716" d="M472.643,363.116c0-1.453-1.995-2.631-4.456-2.631s-4.469.725-4.469,2.177,2.007,3.083,4.469,3.083S472.643,364.568,472.643,363.116Z" transform="translate(-404.192 -147.026)" fill="#db8804"/>
      </g>
      <g id="Grupo_127635" data-name="Grupo 127635" transform="translate(110.81 0.964)">
        <path id="Trazado_163717" data-name="Trazado 163717" d="M386.047,361.079l.628,5.261h12.444l2.36-12.715Z" transform="translate(-315.425 -148.584)" fill="#f9afb6"/>
        <path id="Trazado_163718" data-name="Trazado 163718" d="M344,362.983c.046-.226,1.022-5.025,1.022-5.025l15.488,2.076-3.654,11.1L344,368.235Z" transform="translate(-319.062 -148.209)" fill="#f9afb6"/>
        <path id="Trazado_163719" data-name="Trazado 163719" d="M360.431,367.517c-.805-.815.53,1.066-5.443.666-2.843-.19-6.082-1.852-6.314-2.591.246-1.8.452-3.193-.859-4.434-.9-.852-3.34-1.4-4.049-.824-.843.692-.607,1.411-.815,2.357-.339,1.556-2.759,3.513-3.891,4.28-.807.546-7.59,4.854-9.325,5.051-1,.115-4.06.385-4.75,1.354a5.892,5.892,0,0,0-.844,1.843l0,.016a2.914,2.914,0,0,0,1.091,3.085,6.6,6.6,0,0,0,3.988.783c1.167-.036,7.527.11,23.691-.288,2.974-.073,4.272-.2,9.163-.434a5.38,5.38,0,0,0,.181-3.845C361.763,373.143,360.681,367.769,360.431,367.517Z" transform="translate(-320.788 -148.024)" fill="#64546f"/>
        <path id="Trazado_163720" data-name="Trazado 163720" d="M406.324,250.207l6.465,32.2L404.4,369.45l-14.8.986-5.761-68.512-21.582,68.087-17.319-2.322,9.691-83.824,6.352-32.162,23.954-6.239Z" transform="translate(-318.981 -157.941)" fill="#1d272b"/>
        <path id="Trazado_163721" data-name="Trazado 163721" d="M394.552,188.737c3.053,10.135,9.485,21.336,11.533,34.513,1.988,12.789,6.224,53.837,6.338,64.066l-8.677,1.638a130.866,130.866,0,0,1-49.481-.18c.336-6.283,6.686-38.622,4.993-46.384-1.188-5.446-2.784-6.774-6.349-14.853-2.367-5.37-3.473-25.412-3.735-26.333l22.7-11Z" transform="translate(-318.615 -162.849)" fill="url(#radial-gradient)"/>
        <path id="Trazado_163722" data-name="Trazado 163722" d="M361.994,201.717a11.651,11.651,0,0,0-16.208,2.963l-22.3,32.277-1.06,1.535a7.87,7.87,0,0,0,8.135,12.147l27.1-5.788a4.56,4.56,0,0,0-.634-9.008l-8.612-.6,15.33-15.836a12.626,12.626,0,0,0,1.215-1.481A11.651,11.651,0,0,0,361.994,201.717Z" transform="translate(-321.048 -161.904)" fill="url(#radial-gradient)"/>
        <g id="Grupo_127632" data-name="Grupo 127632" transform="translate(36.365)">
          <path id="Trazado_163723" data-name="Trazado 163723" d="M358.945,176.892a64.4,64.4,0,0,1,5.2,15.392,61.913,61.913,0,0,1,1.058,7.369c0,.047.011.092.011.139.009.009.009.018,0,.037.543,6.412,6.537,11.154,12.8,9.661.353-.075.716-.188,1.089-.3l.166-.056a10.614,10.614,0,0,0,4.151-17.4c-.392-.41-.784-.837-1.176-1.3a23.432,23.432,0,0,1-3.194-5.057c-.14-.315-.28-.623-.392-.939a23.157,23.157,0,0,1-1.74-8.009,21.134,21.134,0,0,1,.023-2.346l-1.191.179Z" transform="translate(-354.134 -164.117)" fill="#f8d1b9"/>
          <path id="Trazado_163724" data-name="Trazado 163724" d="M364.7,198.35c0,.047.011.092.011.139.009.009.009.018,0,.037.543,6.412,6.538,11.154,12.8,9.661.353-.075.716-.188,1.089-.3l.166-.056a10.614,10.614,0,0,0,4.151-17.4c-.392-.41-.784-.837-1.176-1.3a18.948,18.948,0,0,1-5.609,5.968A19.5,19.5,0,0,1,364.7,198.35Z" transform="translate(-353.636 -162.815)" fill="url(#radial-gradient)"/>
          <path id="Trazado_163725" data-name="Trazado 163725" d="M355.7,182.781c.252,7.724,6.634,16.05,13.086,15.369,6.289-.664,10.633-9.675,9.736-17-.8-6.531-6.077-14.213-12.451-13.762C359.72,167.841,355.487,176.149,355.7,182.781Z" transform="translate(-354.416 -164.697)" fill="#f8d1b9"/>
          <g id="Grupo_127631" data-name="Grupo 127631" transform="translate(6.396 17.781)">
            <path id="Trazado_163726" data-name="Trazado 163726" d="M368.9,183.843a.726.726,0,1,0,.924-.445A.724.724,0,0,0,368.9,183.843Z" transform="translate(-359.673 -181.095)" fill="#64546f"/>
            <path id="Trazado_163727" data-name="Trazado 163727" d="M362.579,185.178a.726.726,0,1,0,.922-.449A.727.727,0,0,0,362.579,185.178Z" transform="translate(-360.22 -180.98)" fill="#64546f"/>
            <g id="Grupo_127629" data-name="Grupo 127629" transform="translate(8.275)">
              <path id="Trazado_163728" data-name="Trazado 163728" d="M368.292,182.221a.272.272,0,0,1-.123-.514,3.981,3.981,0,0,1,3.219-.172.272.272,0,1,1-.189.51,3.521,3.521,0,0,0-1.824-.175,3.455,3.455,0,0,0-.959.322A.277.277,0,0,1,368.292,182.221Z" transform="translate(-368.021 -181.275)" fill="#64546f"/>
            </g>
            <g id="Grupo_127630" data-name="Grupo 127630" transform="translate(0 1.309)">
              <path id="Trazado_163729" data-name="Trazado 163729" d="M360.676,184.195a.272.272,0,0,1-.2-.457,3.964,3.964,0,0,1,.916-.728,4.072,4.072,0,0,1,2.024-.529.282.282,0,0,1,.3.273.272.272,0,0,1-.272.271h-.026a3.539,3.539,0,0,0-1.754.456,3.408,3.408,0,0,0-.79.629A.275.275,0,0,1,360.676,184.195Z" transform="translate(-360.405 -182.48)" fill="#64546f"/>
            </g>
          </g>
          <path id="Trazado_163730" data-name="Trazado 163730" d="M379.427,179.925c.331,2.195-.478,4.135-1.807,4.336s-2.673-1.417-3-3.612.479-4.135,1.807-4.335S379.1,177.73,379.427,179.925Z" transform="translate(-352.785 -163.925)" fill="#f8d1b9"/>
          <path id="Trazado_163731" data-name="Trazado 163731" d="M360.259,185.025c.707,2.1.247,4.156-1.027,4.583s-2.879-.931-3.584-3.035-.247-4.156,1.027-4.584S359.552,182.92,360.259,185.025Z" transform="translate(-354.448 -163.439)" fill="#f8d1b9"/>
          <path id="Trazado_163732" data-name="Trazado 163732" d="M377.949,177.335a107.174,107.174,0,0,1-12.014,3.865c-4.047,1.04-10.273,2.376-10.273,2.376h0a20.668,20.668,0,0,1-.718-10.884,19.438,19.438,0,0,1,1.232-3.8l11.7-3.98a12.4,12.4,0,0,1,10.071,12.425Z" transform="translate(-354.517 -164.91)" fill="url(#radial-gradient)"/>
        </g>
        <path id="Trazado_163733" data-name="Trazado 163733" d="M375.673,177.84c.3.054-.5,2.839.913,5.029a5.091,5.091,0,0,0,1.485,1.48,12.009,12.009,0,0,1-1.775,8.428c-.5.756-2.856,4.285-6.892,4.746s-8.337-2.333-10.369-7a9.635,9.635,0,0,0-.123-3.064,22.891,22.891,0,0,0-1.559-3.991c.19-.129,1.631,3.027,4.732,4.219.827.318,2.632,1.012,3.915.232a4.189,4.189,0,0,1,1.61-.865,4.454,4.454,0,0,1,1.542.084,4.528,4.528,0,0,0,2.935-.985c.526-.384,1.1-1.014,2.708-6.134C375.124,178.972,375.473,177.8,375.673,177.84Z" transform="translate(-317.908 -163.791)" fill="#1d272b"/>
        <path id="Trazado_163734" data-name="Trazado 163734" d="M425.779,231.226l-1.386-2.193L402.3,194.1a12.517,12.517,0,0,0-1.089-1.456,11.646,11.646,0,1,0-17.509,15.361l21.672,24.7-3.387,2.353a4.662,4.662,0,0,0,3.144,8.465l15.462-1.615a7.117,7.117,0,0,0,3.01-1.044A6.992,6.992,0,0,0,425.779,231.226Z" transform="translate(-315.877 -162.854)" fill="url(#radial-gradient)"/>
        <path id="Trazado_163735" data-name="Trazado 163735" d="M386.094,363.275c-1.471,1.131.419,3.424.546,7.1.148,4.3-2.284,5.6-.934,7.357,1.158,1.509,3.8,1.656,7.716,1.871,3.305.183,7.015.387,8.5-1.42.752-.917.636-1.993.467-3.548-.278-2.577-1.317-2.735-1.793-5.1-.631-3.133.728-5.166-.78-6.129-.516-.331-.689-.1-1.481-.517-1.642-.865-1.341-2.092-2.65-2.839a4.605,4.605,0,0,0-3.43-.259c-1.657.536-1.466,1.779-3.43,2.711C387.369,363.191,386.812,362.723,386.094,363.275Z" transform="translate(-315.49 -148.068)" fill="#db8804"/>
        <g id="Grupo_127633" data-name="Grupo 127633" transform="translate(77.982 46.809)">
          <path id="Trazado_163736" data-name="Trazado 163736" d="M403.293,229.126a.405.405,0,0,1-.365-.227L392.862,208.58a.407.407,0,1,1,.73-.361l10.065,20.319a.407.407,0,0,1-.185.545A.393.393,0,0,1,403.293,229.126Z" transform="translate(-392.821 -207.992)" fill="#a4a4b4"/>
        </g>
        <g id="Grupo_127634" data-name="Grupo 127634" transform="translate(11.696 72.963)">
          <path id="Trazado_163737" data-name="Trazado 163737" d="M332.219,235.594a.408.408,0,0,1-.139-.791,45.353,45.353,0,0,1,14.869-2.74.4.4,0,0,1,.414.4.408.408,0,0,1-.4.414,44.562,44.562,0,0,0-14.6,2.691A.4.4,0,0,1,332.219,235.594Z" transform="translate(-331.813 -232.063)" fill="#a4a4b4"/>
        </g>
      </g>
      <g id="Grupo_127651" data-name="Grupo 127651" transform="translate(0 95.2)">
        <path id="Trazado_163738" data-name="Trazado 163738" d="M301.584,325.967l-71.533-28.11h90.472Z" transform="translate(-196.432 -247.645)" fill="#af9caa"/>
        <rect id="Rectángulo_35034" data-name="Rectángulo 35034" width="39.741" height="49.625" transform="translate(123.909 75.374)" fill="#1d272b"/>
        <rect id="Rectángulo_35035" data-name="Rectángulo 35035" width="26.966" height="12.318" transform="translate(75.202 124.999)" fill="#1d272b"/>
        <rect id="Rectángulo_35036" data-name="Rectángulo 35036" width="39.742" height="49.625" transform="translate(141.489 75.374)" fill="#a4a4b4"/>
        <path id="Trazado_163739" data-name="Trazado 163739" d="M295.888,325.967l120.151-2.687L507.1,297.857H314.827Z" transform="translate(-212.415 -247.644)" fill="#868695"/>
        <g id="Grupo_127636" data-name="Grupo 127636" transform="translate(0 28.323)">
          <path id="Trazado_163740" data-name="Trazado 163740" d="M232.727,299.6l-33.618-10.946V277.71l33.618,10.945Z" transform="translate(-199.109 -277.71)" fill="#868695"/>
          <rect id="Rectángulo_35037" data-name="Rectángulo 35037" width="261.063" height="10.946" transform="translate(33.618 10.945)" fill="#1d272b"/>
          <path id="Trazado_163741" data-name="Trazado 163741" d="M493.791,288.655H230.424L199.109,277.71H472.641Z" transform="translate(-199.109 -277.71)" fill="#1d272b"/>
        </g>
        <g id="Grupo_127650" data-name="Grupo 127650" transform="translate(14.457)">
          <path id="Trazado_163742" data-name="Trazado 163742" d="M373.8,280.86c-5.119.174-10.032-.062-14.951-.317q-7.363-.458-14.629-1.219c-4.857-.46-9.688-1.113-14.518-1.718-4.836-.64-9.627-1.358-14.482-2.136l2.257-.018L302.223,276.6c-5.095.305-10.181.687-15.284.911-5.1.28-10.2.475-15.312.653-5.113.132-10.226.275-15.358.229-2.54-.023-4.584-2.4-4.564-5.316a5.2,5.2,0,0,1,3.43-5.062c4.964-1.5,9.949-2.8,14.933-4.123,4.988-1.273,9.979-2.53,14.979-3.7,4.994-1.226,10-2.295,15.008-3.442l15.033-3.2a4.929,4.929,0,0,1,1.437-.093l.82.075,14.313,1.278,14.31,1.34L360.2,257.5c4.709.47,9.431.889,13.962,1.287l.093.009c5.307.467,9.278,5.78,8.871,11.866C382.746,276.331,378.65,280.674,373.8,280.86Z" transform="translate(-230.695 -251.488)" fill="#f8d1b9"/>
          <path id="Trazado_163743" data-name="Trazado 163743" d="M247.272,277.641c-1.931-2.3-3.231-2.495-5.35-4.167a21.574,21.574,0,0,1-5.6-7.126c-1.231-2.321-1.759-4.277-2.816-8.187-1-3.68-1.524-5.707-.82-6.331,1.016-.9,3.963,1.683,4.724,2.37a60.245,60.245,0,0,0,7.195,5.426c3.8,2.441,7.65,4.912,13.011,5.877a26.034,26.034,0,0,0,9.09,0q.733,6.327,1.468,12.653a60.836,60.836,0,0,0-10.7,2.093c-3.207.937-5.817,2-7.9.442C248.57,279.946,248.711,279.358,247.272,277.641Z" transform="translate(-232.367 -251.643)" fill="#f8d1b9"/>
          <path id="Trazado_163744" data-name="Trazado 163744" d="M379.588,285.043c-4.209.191-8.414.191-12.62.2-4.206-.035-8.411-.086-12.614-.223-4.2-.081-8.405-.321-12.608-.481-4.2-.2-8.4-.453-12.6-.721l1.415-.084L315.3,284.886c-5.095.3-10.181.686-15.284.912-5.1.28-10.2.474-15.312.653-5.113.132-10.226.275-15.359.228-2.54-.022-4.583-2.4-4.563-5.315a5.2,5.2,0,0,1,3.43-5.061c4.964-1.5,9.949-2.805,14.932-4.124,4.989-1.273,9.98-2.529,14.98-3.7,4.994-1.226,10-2.3,15.008-3.442l15.033-3.205a3.265,3.265,0,0,1,.6-.072l.814-.012c4.2-.065,8.4-.118,12.6-.111,4.2.041,8.4.007,12.594.127,4.2.067,8.394.219,12.591.388,4.195.217,8.39.419,12.583.815l.05.005c5.307.5,9.255,5.841,8.818,11.929C388.409,280.532,384.39,284.829,379.588,285.043Z" transform="translate(-229.563 -250.778)" fill="#f8d1b9"/>
          <path id="Trazado_163745" data-name="Trazado 163745" d="M433,262.189c-1.114-.844-33.915-7.476-43.382-7.462-9.387.014-8.963-.448-66.778,7.577,6.581-.914-.95,22.085-.95,22.085,8.075.947,14.636,2.09,19.2,2.975,12.862,2.491,19.238,4.747,27.627,1.871,3.329-1.142,13.615,3.913,25.743,5.056a50.665,50.665,0,0,0,11.818-.443c5.8-.751,10.416-1.35,15.339-4.154,2.721-1.549,8.053-5.208,12.58-13.351q-.378-4.35-.744-8.72Q433.219,264.9,433,262.189Z" transform="translate(-224.623 -251.376)" fill="#f8d1b9"/>
          <path id="Trazado_163746" data-name="Trazado 163746" d="M443.472,280.816c-.554-1-1.073-2.081-1.576-3.207-2.068-4.617-3.852-10.069-6.1-14.171a20.51,20.51,0,0,1-4.8.682c-.209.01-.415.009-.622.008-1.437-.021-3.213-1.415-5.877-2.5-2.917-1.192-4.958.556-4.2,2.9.916,2.813,2.221,4.613,3,7.494.664,2.445.619,8.9-.394,13.121a26.259,26.259,0,0,1,3.24-3.467c2.982-2.825,7.1-2.5,8.831-2.295C437.835,279.723,439.038,279.473,443.472,280.816Z" transform="translate(-216.123 -250.812)" fill="#f8d1b9"/>
          <path id="Trazado_163747" data-name="Trazado 163747" d="M441.032,277.433c-2.068-4.617-3.852-10.069-6.1-14.171a20.511,20.511,0,0,1-4.8.682,17.725,17.725,0,0,0,5.2,10.376A14.089,14.089,0,0,0,441.032,277.433Z" transform="translate(-215.258 -250.637)" fill="#f8d1b9"/>
          <g id="Grupo_127644" data-name="Grupo 127644" transform="translate(217.874 7.816)">
            <path id="Trazado_163748" data-name="Trazado 163748" d="M449.57,261.707c-4.958-4.016-13.2-3.955-15.826,1.05-2.564,4.88,1.021,12.9,6.032,16.23,4.47,2.974,11.781,3.36,14.519-1.466C457.025,272.711,453.827,265.155,449.57,261.707Z" transform="translate(-432.893 -258.836)" fill="#f8d1b9"/>
            <g id="Grupo_127643" data-name="Grupo 127643" transform="translate(3.441 0.31)">
              <g id="Grupo_127637" data-name="Grupo 127637" transform="translate(5.694 5.996)">
                <path id="Trazado_163749" data-name="Trazado 163749" d="M441.537,267.456a.23.23,0,0,1-.2-.121.3.3,0,0,1,.065-.377,3.055,3.055,0,0,0,.945-1.228,3.46,3.46,0,0,0,.234-.862.242.242,0,0,1,.271-.226.268.268,0,0,1,.2.311,3.965,3.965,0,0,1-.277,1.013,3.566,3.566,0,0,1-1.107,1.444A.21.21,0,0,1,441.537,267.456Z" transform="translate(-441.3 -264.64)" fill="#64546f"/>
              </g>
              <g id="Grupo_127638" data-name="Grupo 127638" transform="translate(8.332 0.001)">
                <path id="Trazado_163750" data-name="Trazado 163750" d="M443.965,262.225a.222.222,0,0,1-.161-.072.3.3,0,0,1-.014-.384,3.347,3.347,0,0,0,.663-1.451,3.515,3.515,0,0,0,.05-.9.263.263,0,0,1,.216-.293.246.246,0,0,1,.255.249,4.158,4.158,0,0,1-.059,1.06,3.924,3.924,0,0,1-.776,1.7A.23.23,0,0,1,443.965,262.225Z" transform="translate(-443.728 -259.123)" fill="#64546f"/>
              </g>
              <g id="Grupo_127639" data-name="Grupo 127639" transform="translate(2.538 1.258)">
                <path id="Trazado_163751" data-name="Trazado 163751" d="M442.451,262.731h-.02a3.094,3.094,0,0,1-1.467-.51,11.386,11.386,0,0,1-1.17-.969l-.109-.1c-.252-.238-.367-.327-.475-.327-.121.016-.253.156-.373.4a.22.22,0,0,1-.323.1.291.291,0,0,1-.088-.369c.251-.505.536-.641.73-.666.308-.036.528.164.828.445l.108.1a11.475,11.475,0,0,0,1.111.926,2.688,2.688,0,0,0,1.266.435.263.263,0,0,1,.216.293A.252.252,0,0,1,442.451,262.731Z" transform="translate(-438.396 -260.279)" fill="#64546f"/>
              </g>
              <g id="Grupo_127640" data-name="Grupo 127640" transform="translate(0 1.457)">
                <path id="Trazado_163752" data-name="Trazado 163752" d="M436.54,264.636a.239.239,0,0,1-.218-.168,4.4,4.4,0,0,1-.247-1.864,4.185,4.185,0,0,1,.726-2.039.218.218,0,0,1,.334-.042.3.3,0,0,1,.037.381,3.594,3.594,0,0,0-.625,1.752,3.8,3.8,0,0,0,.212,1.6.285.285,0,0,1-.127.354A.2.2,0,0,1,436.54,264.636Z" transform="translate(-436.06 -260.462)" fill="#64546f"/>
              </g>
              <g id="Grupo_127641" data-name="Grupo 127641" transform="translate(6.08)">
                <path id="Trazado_163753" data-name="Trazado 163753" d="M441.892,261.121a.207.207,0,0,1-.115-.035.3.3,0,0,1-.091-.369l.711-1.455a.22.22,0,0,1,.323-.1.3.3,0,0,1,.09.369l-.711,1.455A.233.233,0,0,1,441.892,261.121Z" transform="translate(-441.656 -259.122)" fill="#64546f"/>
              </g>
              <g id="Grupo_127642" data-name="Grupo 127642" transform="translate(3.815 4.874)">
                <path id="Trazado_163754" data-name="Trazado 163754" d="M439.808,265.548a.213.213,0,0,1-.148-.061.3.3,0,0,1-.037-.381l.98-1.4a.216.216,0,0,1,.333-.041.3.3,0,0,1,.036.381l-.98,1.4A.224.224,0,0,1,439.808,265.548Z" transform="translate(-439.571 -263.607)" fill="#64546f"/>
              </g>
            </g>
            <path id="Trazado_163755" data-name="Trazado 163755" d="M449.724,262.239c-1.446-.087-1.857,3.709-1.727,5.913a9.228,9.228,0,0,1,.008.965,3.733,3.733,0,0,1-3.745,3.793c-1.533-.1-3.113-.122-3.078.441.079,1.339,2.5,1.519,2.615,3.156a2.848,2.848,0,0,1-.359,1.847c-.586.821-1.5.294-3.053,1.026-.811.378-1.729,1.056-1.643,1.461.062.3.606.227,1.379.582a5.787,5.787,0,0,1,1.759,1.48c1.172,1.115,2.676,1.139,4.575,1.168a10.872,10.872,0,0,0,3.914-.705,11.913,11.913,0,0,0,1.331-.638c1.876-1.074,4.233-3.8,4.475-10.233C456.328,268.465,452.382,262.4,449.724,262.239Z" transform="translate(-432.387 -258.542)" fill="#12263f"/>
            <path id="Trazado_163756" data-name="Trazado 163756" d="M441.6,272.65c-1.146-1.32-2.695-1.684-3.455-.813s-.45,2.646.7,3.966,2.693,1.684,3.455.813S442.748,273.971,441.6,272.65Z" transform="translate(-432.475 -257.752)" fill="#f8d1b9"/>
          </g>
          <path id="Trazado_163757" data-name="Trazado 163757" d="M260.348,285.922c-1.932-2.306-3.232-2.495-5.35-4.167a21.576,21.576,0,0,1-5.6-7.129c-1.231-2.32-1.759-4.274-2.817-8.187-.994-3.68-1.523-5.706-.819-6.33,1.016-.9,3.962,1.684,4.723,2.369a60.375,60.375,0,0,0,7.2,5.428c3.8,2.441,7.649,4.911,13.011,5.876a26.055,26.055,0,0,0,9.09,0q.735,6.327,1.468,12.652a61.079,61.079,0,0,0-10.7,2.092c-3.207.936-5.816,2-7.9.443C261.646,288.227,261.787,287.639,260.348,285.922Z" transform="translate(-231.236 -250.926)" fill="#f8d1b9"/>
          <path id="Trazado_163758" data-name="Trazado 163758" d="M345.225,256.6c1.808.046,15.824-2.011,19.305-1.2,4.083.949,9.054,5.068,19.164,5.068,7.728,0,9.251.427,20.956-3.962-.951,2.836-1.439,9.333-2.231,14.8a75.121,75.121,0,0,0-.737,12.665c.167,9.18.115,25.059,0,46.226l-58.707,1.9c.552-15.62,1.466-23.629,2.018-39.249.993-2.95,1.712-14.737,2.031-19.853A48.35,48.35,0,0,0,345.225,256.6Z" transform="translate(-222.798 -251.334)" fill="url(#radial-gradient)"/>
          <g id="Grupo_127645" data-name="Grupo 127645" transform="translate(87.954 50.212)">
            <path id="Trazado_163759" data-name="Trazado 163759" d="M327.388,307.019l-14.07-4.582v-4.581l14.07,4.581Z" transform="translate(-313.319 -297.856)" fill="#af9caa"/>
            <rect id="Rectángulo_35038" data-name="Rectángulo 35038" width="118.332" height="4.582" transform="translate(14.07 4.581)" fill="#1d272b"/>
            <path id="Trazado_163760" data-name="Trazado 163760" d="M445.721,302.437H327.388l-14.07-4.581h122.9Z" transform="translate(-313.319 -297.856)" fill="#1d272b"/>
          </g>
          <g id="Grupo_127649" data-name="Grupo 127649" transform="translate(104.942 15.2)">
            <path id="Trazado_163761" data-name="Trazado 163761" d="M426.806,290.071l-29.753,7.543-1.3.364-20.762,1.682q-10.385.813-20.786,1.507c-2.308.154-4.29-1.867-4.424-4.513a4.77,4.77,0,0,1,3.156-4.937q10.1-2.922,20.218-5.734l20.243-5.557-1.3.364c4.7-2.445,9.368-4.887,14.087-7.263l7.1-3.531,7.2-3.419c5.492-2.609,11.791.384,14.066,6.683s-.335,13.524-5.827,16.134a9.909,9.909,0,0,1-1.737.635Z" transform="translate(-327.152 -265.633)" fill="#f8d1b9"/>
            <path id="Trazado_163762" data-name="Trazado 163762" d="M360.777,288.871c.107.8.773,6.317-2.373,9.862-3.025,3.407-7.773,2.973-8.1,2.937-2.108-.227-3.258-1.152-5.705-.712-1.4.251-1.946.907-3.36,1.354a22.6,22.6,0,0,1-11.17.5,1.566,1.566,0,0,1-.439-2.788A30.453,30.453,0,0,0,336,294.834a13.875,13.875,0,0,1,5.191-4.071c.416-.165,1.254-.5,5.015-.828,4.252-.367,6.06-.2,9.762-.5C358.038,289.271,359.714,289.036,360.777,288.871Z" transform="translate(-328.954 -263.622)" fill="#f8d1b9"/>
            <g id="Grupo_127646" data-name="Grupo 127646" transform="translate(2.299 31.705)">
              <path id="Trazado_163763" data-name="Trazado 163763" d="M331.226,301.413a.157.157,0,0,1-.142-.1.192.192,0,0,1,.077-.239,21.4,21.4,0,0,0,3.582-2.383,23.327,23.327,0,0,0,3.687-3.813.143.143,0,0,1,.221-.016.2.2,0,0,1,.014.254,23.691,23.691,0,0,1-3.741,3.867,21.687,21.687,0,0,1-3.631,2.418A.146.146,0,0,1,331.226,301.413Z" transform="translate(-331.07 -294.813)" fill="#e59ca9"/>
            </g>
            <g id="Grupo_127647" data-name="Grupo 127647" transform="translate(5.772 32.121)">
              <path id="Trazado_163764" data-name="Trazado 163764" d="M334.422,301.8a.159.159,0,0,1-.142-.1.193.193,0,0,1,.077-.239,21.532,21.532,0,0,0,3.582-2.383,23.33,23.33,0,0,0,3.687-3.813.143.143,0,0,1,.221-.016.2.2,0,0,1,.014.254,23.733,23.733,0,0,1-3.74,3.867,21.9,21.9,0,0,1-3.632,2.417A.145.145,0,0,1,334.422,301.8Z" transform="translate(-334.266 -295.196)" fill="#e59ca9"/>
            </g>
            <g id="Grupo_127648" data-name="Grupo 127648" transform="translate(10.824 33.666)">
              <path id="Trazado_163765" data-name="Trazado 163765" d="M339.072,301.657a.153.153,0,0,1-.131-.084.194.194,0,0,1,.049-.248,22.758,22.758,0,0,0,3.285-2.895c.521-.557,1.022-1.147,1.489-1.752a.144.144,0,0,1,.222-.016.2.2,0,0,1,.014.254c-.474.614-.981,1.213-1.511,1.777a23.008,23.008,0,0,1-3.331,2.935A.136.136,0,0,1,339.072,301.657Z" transform="translate(-338.915 -296.618)" fill="#e59ca9"/>
            </g>
          </g>
        </g>
        <rect id="Rectángulo_35039" data-name="Rectángulo 35039" width="118.74" height="12.318" transform="translate(102.168 124.999)" fill="#a4a4b4"/>
      </g>
      <g id="Grupo_127665" data-name="Grupo 127665" transform="translate(27.627 17.943)">
        <path id="Trazado_163766" data-name="Trazado 163766" d="M337.035,249.247l-23.981-6.218-.565-21.239a12.675,12.675,0,0,0-.456-2.988,12.083,12.083,0,0,0-23.244,6.616l7.292,25.617.591,2.082a7.167,7.167,0,0,0,6.848,5.192l32.311.185a4.7,4.7,0,0,0,1.2-9.246Z" transform="translate(-240.697 -177.986)" fill="url(#radial-gradient)"/>
        <path id="Trazado_163767" data-name="Trazado 163767" d="M285.732,275.2c-.326,4.781-.858,9.529-1.369,14.277-.565,4.748-1.152,9.485-1.836,14.212-.63,4.737-1.369,9.464-2.108,14.179s-1.554,9.431-2.379,14.146l-.174,1.01c-.022.065-.033.141-.054.206l-4.281,12.864c-1.51,4.27-2.934,8.551-4.531,12.8-1.532,4.259-3.162,8.5-4.8,12.734-1.163,2.912-2.6,7.508-3.988,11.452-.619,1.782-1.239,3.433-1.825,4.737a5.812,5.812,0,0,1-11.1-2.695c.033-.685.076-1.369.119-2.043.239-3.879.608-7.725.967-11.582.467-4.52,1.51-12.593,2.1-17.091.521-4.5,1.206-8.964,1.814-13.451l2.075-13.4-.228,1.217c.456-4.759.934-9.518,1.467-14.266s1.086-9.5,1.738-14.233c.608-4.737,1.3-9.463,2.01-14.19.771-4.715,1.521-9.431,2.477-14.125a12.094,12.094,0,0,1,23.914,3.238Z" transform="translate(-244.248 -173.464)" fill="#1d272b"/>
        <path id="Trazado_163768" data-name="Trazado 163768" d="M313.551,329.495l-9.2,52.163-1.119,6.313a5.751,5.751,0,0,1-11.408-.771l-.217-5.541-2.01-50.795-14.527-51.121a12.063,12.063,0,0,1,23.208-6.6l14.842,52.229.272.956A7.28,7.28,0,0,1,313.551,329.495Z" transform="translate(-241.884 -173.284)" fill="#1d272b"/>
        <g id="Grupo_127657" data-name="Grupo 127657" transform="translate(3.15)">
          <path id="Trazado_163769" data-name="Trazado 163769" d="M304.935,290.22c-2.83-11.829-4.245-17.743-4-24.5.191-5.362,2.275-11.519,6.444-23.834,5.024-14.845,7.235-17.344,6.394-23.524-.141-1.04-2.074-14.082-10.181-16.407-1.271-.365-4.774-1.063-13.237,4.053A65.4,65.4,0,0,0,271.8,222.97s-.229.315-.484.675c-2.6,3.67-7.433,12.106-16.012,34.1a115.473,115.473,0,0,0-7.839,39.12l-.078,3.184a257.54,257.54,0,0,0,61.551,4.747C307.864,301.338,306.4,296.332,304.935,290.22Z" transform="translate(-247.388 -178.707)" fill="url(#radial-gradient)"/>
          <path id="Trazado_163770" data-name="Trazado 163770" d="M300.021,225.732c1.792,2.633,4.568,5.163,5.589,4.6,1.117-.624-.837-4.489.482-10.562.172-.781.36-1.4.478-1.791q2.7-2.919,5.405-5.839,2.529-2.73,5.059-5.463-2.656-5.518-5.336-11.023c-.862-1.8-1.737-3.606-2.612-5.4a27.085,27.085,0,0,1-11.941,13.182,10.872,10.872,0,0,0-2.764,1.738c-.412.381-2.617,2.377-2.715,4.706C291.573,212.246,297.368,221.864,300.021,225.732Z" transform="translate(-243.557 -179.697)" fill="#f8d1b9"/>
          <path id="Trazado_163771" data-name="Trazado 163771" d="M327.825,193.85a15.211,15.211,0,0,1,.651,1.74c2.065,6.794-.151,15.5-5.673,17.486-5.86,2.1-13.567-4.026-15.905-10.9-2.086-6.131-.7-15.2,5.146-17.529C317.871,182.325,325.178,187.877,327.825,193.85Z" transform="translate(-242.319 -180.229)" fill="#f8d1b9"/>
          <g id="Grupo_127656" data-name="Grupo 127656" transform="translate(64.975 16.725)">
            <path id="Trazado_163772" data-name="Trazado 163772" d="M320.657,201.188a.715.715,0,1,1-1.01-.022A.714.714,0,0,1,320.657,201.188Z" transform="translate(-306.13 -195.495)" fill="#64546f"/>
            <path id="Trazado_163773" data-name="Trazado 163773" d="M326.569,200.1a.715.715,0,1,1-1.01-.021A.714.714,0,0,1,326.569,200.1Z" transform="translate(-305.619 -195.588)" fill="#64546f"/>
            <g id="Grupo_127652" data-name="Grupo 127652" transform="translate(12.053 3.228)">
              <path id="Trazado_163774" data-name="Trazado 163774" d="M318.554,200.535a.273.273,0,0,1-.192-.465,4.025,4.025,0,0,1,1.808-1.042,3.878,3.878,0,0,1,1.148-.123.272.272,0,0,1-.012.543h-.011a3.374,3.374,0,0,0-2.549,1.007A.275.275,0,0,1,318.554,200.535Z" transform="translate(-318.282 -198.902)" fill="#64546f"/>
            </g>
            <g id="Grupo_127653" data-name="Grupo 127653" transform="translate(18.821 1.757)">
              <path id="Trazado_163775" data-name="Trazado 163775" d="M324.783,198.638a.272.272,0,0,1-.14-.5,4,4,0,0,1,2-.586,3.935,3.935,0,0,1,1.143.154.273.273,0,0,1,.186.337.268.268,0,0,1-.336.186,2.986,2.986,0,0,0-.986-.134,3.469,3.469,0,0,0-1.731.507A.274.274,0,0,1,324.783,198.638Z" transform="translate(-324.511 -197.548)" fill="#64546f"/>
            </g>
            <path id="Trazado_163776" data-name="Trazado 163776" d="M315.215,200.628a6.7,6.7,0,0,1-5.465,4.323,11.217,11.217,0,0,0,6.546,6.786c.809.288,5.026,1.793,8.708-.84,4-2.861,3.653-7.948,3.631-8.212-.929,1.057-1.562,1.2-1.97,1.126-.762-.134-1-1.041-1.782-1.081-.548-.029-.9.39-1.321.72a6.028,6.028,0,0,1-4.384.88C316.6,203.83,315.363,200.982,315.215,200.628Z" transform="translate(-306.967 -195.524)" fill="#1d272b"/>
            <g id="Grupo_127654" data-name="Grupo 127654" transform="translate(0 0.498)">
              <path id="Trazado_163777" data-name="Trazado 163777" d="M310.811,206.56a.235.235,0,0,1-.189-.093,16.437,16.437,0,0,1-1.747-2.8,16.685,16.685,0,0,1-1.686-7.028.24.24,0,0,1,.48-.011,16.225,16.225,0,0,0,1.637,6.827A15.98,15.98,0,0,0,311,206.174a.24.24,0,0,1-.19.386Z" transform="translate(-307.189 -196.389)" fill="#1d272b"/>
            </g>
            <g id="Grupo_127655" data-name="Grupo 127655" transform="translate(3.774)">
              <path id="Trazado_163778" data-name="Trazado 163778" d="M315.316,202.626a.239.239,0,0,1-.239-.219,7.29,7.29,0,0,0-.957-3.053,7.448,7.448,0,0,0-3.317-2.965.24.24,0,0,1,.2-.437,7.919,7.919,0,0,1,3.531,3.16,7.787,7.787,0,0,1,1.022,3.254.242.242,0,0,1-.22.261Z" transform="translate(-310.662 -195.93)" fill="#1d272b"/>
            </g>
          </g>
          <path id="Trazado_163779" data-name="Trazado 163779" d="M327.626,194.608c-.972.713-2.168.8-4.082,1.009-3.877.423-6-.646-8.265-1.632a5.507,5.507,0,0,0-.613,2.963c.121,1.275.687,1.769.733,2.843.033.761-.706,3.416-1.532,3.364-.846-.1.01-1.077-.04-2.2a4.435,4.435,0,0,0-3.039-3.715,2.89,2.89,0,0,0-2.069.045c-1.085.532-.777,1.573-1.856,2.4-.783.6-1.067.146-3.5.806-1.349.366-2.119.74-2.348.447-.133-.17.013-.441.276-1.117.274-.706.465-1.444.765-2.139a31.2,31.2,0,0,0,1.276-5.335,16.874,16.874,0,0,1,2.732-6.156c3.405-4.359,12.365-5.3,17.934-1.414C327.455,187.184,329.665,193.114,327.626,194.608Z" transform="translate(-242.752 -180.383)" fill="#64546f"/>
          <path id="Trazado_163780" data-name="Trazado 163780" d="M312.541,197.64c.8,1.872.446,3.82-.794,4.35s-2.892-.559-3.694-2.432-.444-3.82.8-4.349S311.741,195.767,312.541,197.64Z" transform="translate(-242.177 -179.28)" fill="#f8d1b9"/>
          <path id="Trazado_163781" data-name="Trazado 163781" d="M303.034,193.1a50.934,50.934,0,0,0,8.559,3.02c4.274,1.091,8.89,2.189,14.233.781a20.751,20.751,0,0,0,2.905-1,25.545,25.545,0,0,0-4.708-14.192,42.228,42.228,0,0,0-16.394-.661,27.955,27.955,0,0,0-4.595,12.054Z" transform="translate(-242.574 -180.537)" fill="url(#radial-gradient)"/>
        </g>
        <path id="Trazado_163782" data-name="Trazado 163782" d="M287.419,299.91c.06-.441.96-27.646.96-27.646l8.528,27.145Z" transform="translate(-240.775 -172.602)" fill="url(#radial-gradient)"/>
        <path id="Trazado_163783" data-name="Trazado 163783" d="M329.74,269.008,304.61,262.4l-6.252-39.811a13.07,13.07,0,0,0-.4-1.722,12.021,12.021,0,0,0-22.946,7.175l13.506,43.2.491,1.574a7.2,7.2,0,0,0,6.777,5.037l32.7.4a4.7,4.7,0,0,0,1.253-9.24Z" transform="translate(-241.896 -177.779)" fill="url(#radial-gradient)"/>
        <g id="Grupo_127658" data-name="Grupo 127658" transform="translate(30.596 44.295)">
          <path id="Trazado_163784" data-name="Trazado 163784" d="M290.774,277.567a7.62,7.62,0,0,1-6.568-5.37c-1.731-5.689-3.714-13.241-5.633-20.545s-3.9-14.841-5.625-20.513a13.492,13.492,0,0,1,1.534-9.632.407.407,0,1,1,.7.41,12.693,12.693,0,0,0-1.449,9.02c1.721,5.653,3.705,13.205,5.624,20.509s3.9,14.841,5.625,20.513a6.8,6.8,0,0,0,5.827,4.795l8.224-.036h0a.407.407,0,0,1,0,.815Z" transform="translate(-272.649 -221.305)" fill="#a4a4b4"/>
        </g>
        <g id="Grupo_127659" data-name="Grupo 127659" transform="translate(53.985 61.274)">
          <path id="Trazado_163785" data-name="Trazado 163785" d="M302.27,260.473a.392.392,0,0,1-.086-.01l-2.452-.528a.407.407,0,0,1-.312-.3l-5.234-22.2a.407.407,0,1,1,.793-.187l5.175,21.948,2.2.473a.408.408,0,0,1-.086.806Z" transform="translate(-294.175 -236.933)" fill="#a4a4b4"/>
        </g>
        <path id="Trazado_163786" data-name="Trazado 163786" d="M340.037,265.966c0,.031-.009.062-.012.093C340.029,266.028,340.034,266,340.037,265.966Z" transform="translate(-236.224 -173.147)" fill="#fff"/>
        <g id="Grupo_127661" data-name="Grupo 127661" transform="translate(88.739 66.393)">
          <path id="Trazado_163787" data-name="Trazado 163787" d="M326.162,244.536c.188.04.476.1.827.168,0,0,1.8.35,3.408.515,1.774.184,3.468-.749,8.256-2.387,3.641-1.245,4.737-1.416,5.906-.954a6.824,6.824,0,0,1,2.434,1.888,10.441,10.441,0,0,1,2.173,3.642,38.64,38.64,0,0,1-22.529,5.521Q326.4,248.733,326.162,244.536Z" transform="translate(-326.162 -241.644)" fill="#db8804"/>
          <path id="Trazado_163788" data-name="Trazado 163788" d="M353.412,249.488h0a2.588,2.588,0,0,1-3.369,1.43l-9.286-3.756a2.587,2.587,0,0,1-1.43-3.37h0a2.588,2.588,0,0,1,3.37-1.43l9.286,3.756A2.588,2.588,0,0,1,353.412,249.488Z" transform="translate(-325.04 -241.598)" fill="#c0aeba"/>
          <path id="Trazado_163789" data-name="Trazado 163789" d="M372.311,257.106s-4.557-.015-5.484-.39l-.757-.328a1.811,1.811,0,0,1-1-2.358h0a1.809,1.809,0,0,1,2.358-1l.757.327C369.112,253.732,372.311,257.106,372.311,257.106Z" transform="translate(-322.807 -240.67)" fill="#c0aeba"/>
          <g id="Grupo_127660" data-name="Grupo 127660" transform="translate(26.332 6.808)">
            <rect id="Rectángulo_35040" data-name="Rectángulo 35040" width="0.871" height="19.861" transform="matrix(0.365, -0.931, 0.931, 0.365, 0, 0.811)" fill="#c0aeba"/>
          </g>
          <path id="Trazado_163790" data-name="Trazado 163790" d="M341.432,253.426a25.246,25.246,0,0,0,4.246-1.017,6.236,6.236,0,0,0,.731-.336,11.386,11.386,0,0,0,4.117-3.833,1.571,1.571,0,0,0-2.549-1.745,11.287,11.287,0,0,1-2.757,1.532c-1.379.529-3.225,1.236-4.876.577-1.976-.79-1.855-2.814-3.226-2.922-1.316-.1-2.05,1.772-3.924,3.557a13.608,13.608,0,0,1-6.587,3.341l-.083,2.861a20.714,20.714,0,0,1,3.113,0c1.982.148,2.617.481,4.3.464a12.578,12.578,0,0,0,3.161-.436C339.571,254.78,339.258,253.954,341.432,253.426Z" transform="translate(-326.131 -241.295)" fill="#db8804"/>
        </g>
        <g id="Grupo_127664" data-name="Grupo 127664" transform="translate(83.656 87.541)">
          <path id="Trazado_163791" data-name="Trazado 163791" d="M346.235,266.928c-.688-.592-2.15-.712-2.656-.12-.214.251-.167.526-.138.9a1.827,1.827,0,0,1,.025.424l0,.036c0,.056-.017.11-.026.166,0,.032,0,.06-.007.092s-.014.051-.018.077-.014.061-.022.09a4.155,4.155,0,0,1-2.356,2.737,5.259,5.259,0,0,1-4.559-.589,5.708,5.708,0,0,1-1.1-.838l.476.073-4.409-5.8c-.157-.018-.318-.034-.484-.04-.072,0-.27-.012-.517-.005-.668.016-3.551.192-4.949.135a10.82,10.82,0,0,1-3.324-.68l-.681,10.27c7.26,1.3,10.959,2.892,13,4.207a4.65,4.65,0,0,0,2.766.94c1.553-.066,2.441-1.138,5.392-3.365,1.129-.853,2.081-1.512,2.712-1.939C346.972,270.611,347.357,267.9,346.235,266.928Z" transform="translate(-321.484 -260.894)" fill="#db8804"/>
          <g id="Grupo_127662" data-name="Grupo 127662" transform="translate(7.828 3.762)">
            <path id="Trazado_163792" data-name="Trazado 163792" d="M329.125,272.459a.436.436,0,0,1-.106-.858l27.81-7.016a.435.435,0,1,1,.212.844l-27.81,7.016A.389.389,0,0,1,329.125,272.459Z" transform="translate(-328.688 -264.571)" fill="#c0aeba"/>
          </g>
          <path id="Trazado_163793" data-name="Trazado 163793" d="M338.066,270.356c2.018.26,2.543.277,3.133-.039a2.848,2.848,0,0,0,1.4-1.768c.006-.029.016-.059.022-.09.012-.054.017-.113.025-.169a3.276,3.276,0,0,0,0-.626,2.039,2.039,0,0,0-1.976-1.637,24.844,24.844,0,0,1-6.215-.872,26.161,26.161,0,0,0-3.81-1.019l4.409,5.8C336.2,270.108,337.223,270.249,338.066,270.356Z" transform="translate(-320.691 -260.847)" fill="#db8804"/>
          <path id="Rectángulo_35041" data-name="Rectángulo 35041" d="M1.494,0H3.877A1.494,1.494,0,0,1,5.371,1.494V3.877A1.494,1.494,0,0,1,3.877,5.371H1.493A1.493,1.493,0,0,1,0,3.878V1.494A1.494,1.494,0,0,1,1.494,0Z" transform="translate(34.013)" fill="#fff"/>
          <g id="Grupo_127663" data-name="Grupo 127663" transform="translate(22.143 1.92)">
            <path id="Trazado_163794" data-name="Trazado 163794" d="M342.3,269a.436.436,0,0,1-.165-.84L355,262.909a.435.435,0,1,1,.329.806l-12.865,5.248A.442.442,0,0,1,342.3,269Z" transform="translate(-341.864 -262.876)" fill="#c0aeba"/>
          </g>
        </g>
        <path id="Trazado_163795" data-name="Trazado 163795" d="M302.995,372.32l-1.119,6.313a5.751,5.751,0,0,1-11.408-.771l-.217-5.541Z" transform="translate(-240.53 -163.946)" fill="#f9afb6"/>
        <path id="Trazado_163796" data-name="Trazado 163796" d="M260.21,373.46c-.619,1.782-1.239,3.433-1.825,4.737a5.812,5.812,0,0,1-11.1-2.695c.033-.685.076-1.369.119-2.043Z" transform="translate(-244.248 -163.847)" fill="#f9afb6"/>
        <path id="Trazado_163797" data-name="Trazado 163797" d="M247.636,373.684c.455-.038.878.358,1.284.741.974.914.992,1.789,1.523,2.434.961,1.163,3.156.714,4.141.529a9.832,9.832,0,0,0,5.862-3.93,26.155,26.155,0,0,0,7.513,5.517s4.385,3.03,8.412,2.023h0c1.259-.062,2.762-.314,3.76.742a4.3,4.3,0,0,1,.88,2.989,5.742,5.742,0,0,1-2.2,4.142c-1.238.925-2.375.833-5.14.793-5.74-.086-4.219.255-7.568.052-5.937-.36-5.02-1.088-8.281-.952-1.591.065-6.03.414-8.853.264a7.3,7.3,0,0,1-2-.37,7.928,7.928,0,0,1-2.474-1.376,36.98,36.98,0,0,1,.9-8.943C246.414,373.914,247.386,373.7,247.636,373.684Z" transform="translate(-244.489 -163.847)" fill="#db8804"/>
        <path id="Trazado_163798" data-name="Trazado 163798" d="M290.448,372.542c.456-.038.879.359,1.285.741.972.914.991,1.79,1.522,2.434.96,1.165,3.157.714,4.142.53a9.829,9.829,0,0,0,5.861-3.931,26.187,26.187,0,0,0,7.513,5.518s4.386,3.03,8.412,2.023h0c1.26-.063,2.762-.314,3.76.742a4.294,4.294,0,0,1,.881,2.988,5.739,5.739,0,0,1-2.2,4.141c-1.239.926-2.376.836-5.141.793-5.739-.085-4.218.257-7.568.053-5.937-.36-5.02-1.088-8.281-.952-1.59.066-6.03.414-8.853.264a7.333,7.333,0,0,1-2-.369,7.919,7.919,0,0,1-2.474-1.377,37.021,37.021,0,0,1,.9-8.942C289.226,372.772,290.2,372.563,290.448,372.542Z" transform="translate(-240.785 -163.946)" fill="#db8804"/>
      </g>
      <g id="Grupo_127669" data-name="Grupo 127669" transform="translate(182.105 85.34)">
        <g id="Grupo_127666" data-name="Grupo 127666" transform="translate(3.256 7.292)">
          <path id="Trazado_163799" data-name="Trazado 163799" d="M390.086,257a.422.422,0,0,1-.159-.814l17.027-6.872a.422.422,0,1,1,.316.782l-17.027,6.872A.4.4,0,0,1,390.086,257Z" transform="translate(-389.663 -249.28)" fill="#c0aeba"/>
        </g>
        <path id="Rectángulo_35042" data-name="Rectángulo 35042" d="M.781,0H3.264a.78.78,0,0,1,.78.78V2.824a.781.781,0,0,1-.781.781H.78A.78.78,0,0,1,0,2.825V.781A.781.781,0,0,1,.781,0Z" transform="translate(0 13.209)" fill="#fff"/>
        <g id="Grupo_127667" data-name="Grupo 127667" transform="translate(2.127 7.914)">
          <path id="Trazado_163800" data-name="Trazado 163800" d="M389.046,257.284a.422.422,0,0,1-.067-.839l41.368-6.588a.414.414,0,0,1,.485.351.423.423,0,0,1-.351.483l-41.368,6.588C389.089,257.282,389.066,257.284,389.046,257.284Z" transform="translate(-388.623 -249.852)" fill="#c0aeba"/>
        </g>
        <g id="Grupo_127668" data-name="Grupo 127668" transform="translate(8.161 0.442)">
          <path id="Trazado_163801" data-name="Trazado 163801" d="M416.719,250.108c-1.426.3-3.051.011-4.616.8-1.868.937-1.88,2.243-3.679,2.959-1.97.783-2.371-.617-4.99.04a49.34,49.34,0,0,1-4.873,1.283,1.31,1.31,0,0,1-1.13-.178c-.452-.464-.047-1.483.016-1.64-.393.865-1.089,1.384-1.695,1.3-.581-.084-.915-.7-1.146-1.134a4.478,4.478,0,0,1-.428-2.313,7.89,7.89,0,0,1,.356-2.261c1.122-1.316,3.018-3.834,4.055-5.226a1.875,1.875,0,0,1,1.91-.709,28.836,28.836,0,0,0,4.9.737,57.414,57.414,0,0,0,8.626-.483,6.732,6.732,0,0,1,2.046,2.984A7.255,7.255,0,0,1,416.719,250.108Z" transform="translate(-394.177 -242.975)" fill="#db8804"/>
          <path id="Trazado_163802" data-name="Trazado 163802" d="M397.187,252.893a8.62,8.62,0,0,1,6.837-3.374,3.307,3.307,0,0,0-2.011-1.045C400.161,248.283,398.06,250.019,397.187,252.893Z" transform="translate(-393.916 -242.5)" fill="#b4c7ff"/>
        </g>
        <path id="Trazado_163803" data-name="Trazado 163803" d="M438.571,242.568a26.832,26.832,0,0,0-8.7,1.476c-2.572.893-4.11,1.431-5.471,2.978-1.959,2.23-2,4.766-2.079,9.065-.025,1.507.09,2.836.88,3.264.62.336,1.065-.2,2.544.05.993.169,1.488.531,1.911.231.246-.172.311-.465.434-1.046a7.217,7.217,0,0,0,.138-1.95c.6.329,1.216.8,1.256,1.412.046.693-.68,1.143-.5,1.467s1.058.251,1.7-.075a3.109,3.109,0,0,0,1.439-1.858c.392-1.272-.262-1.682.213-2.534.384-.692.928-.626,1.665-1.6.525-.7.335-.857.655-1.179,1.066-1.069,3.2.535,4.969-.286a3.741,3.741,0,0,0,1.849-2.58,4.811,4.811,0,0,0,.507-3.248A5.306,5.306,0,0,0,438.571,242.568Z" transform="translate(-383.581 -242.568)" fill="#db8804"/>
      </g>
      <g id="Grupo_127671" data-name="Grupo 127671" transform="translate(144.018 68.499)">
        <g id="Grupo_127670" data-name="Grupo 127670" transform="translate(31.428 8.112)">
          <path id="Trazado_163804" data-name="Trazado 163804" d="M382.078,259.072a1.529,1.529,0,0,1-.428-.06,1.54,1.54,0,0,1-1.019-2.006l8.191-22.472.794.289-8.192,22.471a.7.7,0,1,0,1.31.469l.238-.676.8.28-.239.677A1.54,1.54,0,0,1,382.078,259.072Z" transform="translate(-380.538 -234.534)" fill="#c0aeba"/>
        </g>
        <path id="Trazado_163805" data-name="Trazado 163805" d="M371.793,249.444h0a.662.662,0,0,1-.91-.218l-9.513-15.507a.662.662,0,0,1,.218-.911h0a.661.661,0,0,1,.91.217l9.514,15.508A.662.662,0,0,1,371.793,249.444Z" transform="translate(-350.777 -226.58)" fill="#c0aeba"/>
        <path id="Trazado_163806" data-name="Trazado 163806" d="M378.508,258.722l-.24.149a1.992,1.992,0,0,1-2.741-.656l-4.944-8.06a1.994,1.994,0,0,1,.656-2.741l.242-.147Z" transform="translate(-349.997 -225.32)" fill="#c0aeba"/>
        <path id="Trazado_163807" data-name="Trazado 163807" d="M353.058,233.578A13.765,13.765,0,0,1,358.3,231.3c1.349-.271,4.595-.941,7.349.756a8.815,8.815,0,0,1,3.053,3.457c1.616,2.833,3.822,6.87,6.351,12.039a1.569,1.569,0,0,1-.436,1.8,1.608,1.608,0,0,1-1.511-.129c-.722-.43-.741-1.116-1.472-2.316a8.75,8.75,0,0,0-1.065-1.412,2.737,2.737,0,0,1-.44,1.673,2.82,2.82,0,0,1-1.878,1.178,3.546,3.546,0,0,0-1.444-.755c-1.035-.254-1.676.137-2.736-.213a3.451,3.451,0,0,1-1-.528,2.509,2.509,0,0,1-1.8-.306,3.241,3.241,0,0,1-1.02-1.83,9.644,9.644,0,0,0-1.956-3.243l-3.837.821a5.882,5.882,0,0,1-2.72-3.7A6,6,0,0,1,353.058,233.578Z" transform="translate(-351.612 -226.733)" fill="#db8804"/>
        <path id="Trazado_163808" data-name="Trazado 163808" d="M407.517,236.595c.214-3.815-2.828-6.382-3.249-6.727q-2.432,1.17-4.863,2.34a9.26,9.26,0,0,0-3.76-4,9.115,9.115,0,0,0-4-1.136,11.652,11.652,0,0,0-6.535,13.041,1.124,1.124,0,0,0,1.814,1.094l.793,1.646c.294,1.27.684,1.643,1.018,1.712.41.085.752-.282,1.185-.074.293.141.283.382.613.612a1.781,1.781,0,0,0,.972.229c.783-.01,2.948-2.675,5.359-6.66a7,7,0,0,0,3.524,2.34,7.481,7.481,0,0,0,6.2-1.269A7.258,7.258,0,0,0,407.517,236.595Z" transform="translate(-348.736 -227.068)" fill="#db8804"/>
      </g>
      <g id="Grupo_127685" data-name="Grupo 127685" transform="translate(9.174 85.422)">
        <path id="Trazado_163809" data-name="Trazado 163809" d="M286.059,240.3h-19.01l5.232,27.814h8.547Z" transform="translate(-203.947 -240.305)" fill="#868695"/>
        <rect id="Rectángulo_35043" data-name="Rectángulo 35043" width="10.015" height="6.593" rx="1.111" transform="translate(67.612 27.814)" fill="#1d272b"/>
        <rect id="Rectángulo_35044" data-name="Rectángulo 35044" width="18.267" height="24.391" rx="4.786" transform="translate(49.938 10.017)" fill="#1d272b"/>
        <rect id="Rectángulo_35045" data-name="Rectángulo 35045" width="4.743" height="7.001" transform="translate(56.7 3.97)" fill="#868695"/>
        <rect id="Rectángulo_35046" data-name="Rectángulo 35046" width="8.231" height="5.118" rx="1.306" transform="translate(54.956 3.393)" fill="#868695"/>
        <g id="Grupo_127674" data-name="Grupo 127674" transform="translate(15.087 34.414)">
          <path id="Trazado_163810" data-name="Trazado 163810" d="M291.893,385.743h-1.478V274.934H222.273V385.743H220.8V273.456h71.1Z" transform="translate(-220.795 -273.456)" fill="#868695"/>
        </g>
        <rect id="Rectángulo_35047" data-name="Rectángulo 35047" width="2.197" height="13.569" transform="translate(5.848 158.456) rotate(180)" fill="#64546f"/>
        <g id="Grupo_127675" data-name="Grupo 127675" transform="translate(0 144.887)">
          <path id="Trazado_163811" data-name="Trazado 163811" d="M206.262,386.662c0,3.748,1.635,6.784,3.652,6.784s3.652-3.036,3.652-6.784-1.635-6.785-3.652-6.785S206.262,382.915,206.262,386.662Z" transform="translate(-206.262 -379.877)" fill="#1d272b"/>
        </g>
        <g id="Grupo_127676" data-name="Grupo 127676" transform="translate(2.25 144.887)">
          <path id="Trazado_163812" data-name="Trazado 163812" d="M208.429,386.662c0,3.748,1.635,6.784,3.653,6.784s3.651-3.036,3.651-6.784-1.635-6.785-3.651-6.785S208.429,382.915,208.429,386.662Z" transform="translate(-208.429 -379.877)" fill="#868695"/>
        </g>
        <rect id="Rectángulo_35048" data-name="Rectángulo 35048" width="2.196" height="13.569" transform="translate(16.896 158.456) rotate(180)" fill="#64546f"/>
        <g id="Grupo_127677" data-name="Grupo 127677" transform="translate(11.049 144.887)">
          <path id="Trazado_163813" data-name="Trazado 163813" d="M216.906,386.662c0,3.748,1.635,6.784,3.651,6.784s3.652-3.036,3.652-6.784-1.635-6.785-3.652-6.785S216.906,382.915,216.906,386.662Z" transform="translate(-216.906 -379.877)" fill="#1d272b"/>
        </g>
        <g id="Grupo_127678" data-name="Grupo 127678" transform="translate(13.299 144.887)">
          <path id="Trazado_163814" data-name="Trazado 163814" d="M219.073,386.662c0,3.748,1.635,6.784,3.651,6.784s3.653-3.036,3.653-6.784-1.636-6.785-3.653-6.785S219.073,382.915,219.073,386.662Z" transform="translate(-219.073 -379.877)" fill="#868695"/>
        </g>
        <rect id="Rectángulo_35049" data-name="Rectángulo 35049" width="2.197" height="13.569" transform="translate(75.555 158.456) rotate(180)" fill="#64546f"/>
        <g id="Grupo_127679" data-name="Grupo 127679" transform="translate(69.706 144.887)">
          <path id="Trazado_163815" data-name="Trazado 163815" d="M273.411,386.662c0,3.748,1.636,6.784,3.652,6.784s3.653-3.036,3.653-6.784-1.636-6.785-3.653-6.785S273.411,382.915,273.411,386.662Z" transform="translate(-273.411 -379.877)" fill="#1d272b"/>
        </g>
        <g id="Grupo_127680" data-name="Grupo 127680" transform="translate(71.957 144.887)">
          <path id="Trazado_163816" data-name="Trazado 163816" d="M275.579,386.662c0,3.748,1.635,6.784,3.652,6.784s3.652-3.036,3.652-6.784-1.636-6.785-3.652-6.785S275.579,382.915,275.579,386.662Z" transform="translate(-275.579 -379.877)" fill="#868695"/>
        </g>
        <rect id="Rectángulo_35050" data-name="Rectángulo 35050" width="2.197" height="13.569" transform="translate(86.604 158.456) rotate(180)" fill="#64546f"/>
        <g id="Grupo_127681" data-name="Grupo 127681" transform="translate(80.755 144.887)">
          <path id="Trazado_163817" data-name="Trazado 163817" d="M284.055,386.662c0,3.748,1.635,6.784,3.652,6.784s3.651-3.036,3.651-6.784-1.634-6.785-3.651-6.785S284.055,382.915,284.055,386.662Z" transform="translate(-284.055 -379.877)" fill="#1d272b"/>
        </g>
        <g id="Grupo_127682" data-name="Grupo 127682" transform="translate(83.005 144.887)">
          <path id="Trazado_163818" data-name="Trazado 163818" d="M286.222,386.662c0,3.748,1.635,6.784,3.652,6.784s3.652-3.036,3.652-6.784-1.635-6.785-3.652-6.785S286.222,382.915,286.222,386.662Z" transform="translate(-286.222 -379.877)" fill="#868695"/>
        </g>
        <rect id="Rectángulo_35051" data-name="Rectángulo 35051" width="69.619" height="18.776" transform="translate(74.396 137.953) rotate(180)" fill="#1d272b"/>
        <rect id="Rectángulo_35052" data-name="Rectángulo 35052" width="11.223" height="18.776" transform="translate(85.619 137.953) rotate(180)" fill="#a4a4b4"/>
        <path id="Trazado_163819" data-name="Trazado 163819" d="M236.835,366.5h15.283a3.681,3.681,0,0,0,3.681-3.681H233.156A3.679,3.679,0,0,0,236.835,366.5Z" transform="translate(-205.238 -235.639)" fill="#a4a4b4"/>
        <rect id="Rectángulo_35053" data-name="Rectángulo 35053" width="69.619" height="18.776" transform="translate(74.396 116.947) rotate(180)" fill="#1d272b"/>
        <rect id="Rectángulo_35054" data-name="Rectángulo 35054" width="11.223" height="18.776" transform="translate(85.619 116.947) rotate(180)" fill="#a4a4b4"/>
        <path id="Trazado_163820" data-name="Trazado 163820" d="M236.835,346.263h15.283a3.682,3.682,0,0,0,3.681-3.681H233.156A3.68,3.68,0,0,0,236.835,346.263Z" transform="translate(-205.238 -236.41)" fill="#a4a4b4"/>
        <rect id="Rectángulo_35055" data-name="Rectángulo 35055" width="69.619" height="18.776" transform="translate(74.396 95.94) rotate(180)" fill="#1d272b"/>
        <rect id="Rectángulo_35056" data-name="Rectángulo 35056" width="11.223" height="18.776" transform="translate(85.619 95.94) rotate(180)" fill="#a4a4b4"/>
        <path id="Trazado_163821" data-name="Trazado 163821" d="M236.835,326.027h15.283a3.681,3.681,0,0,0,3.681-3.68H233.156A3.679,3.679,0,0,0,236.835,326.027Z" transform="translate(-205.238 -237.181)" fill="#a4a4b4"/>
        <rect id="Rectángulo_35057" data-name="Rectángulo 35057" width="69.619" height="18.776" transform="translate(74.396 74.934) rotate(180)" fill="#1d272b"/>
        <rect id="Rectángulo_35058" data-name="Rectángulo 35058" width="11.223" height="18.776" transform="translate(85.619 74.934) rotate(180)" fill="#a4a4b4"/>
        <path id="Trazado_163822" data-name="Trazado 163822" d="M236.835,305.791h15.283a3.681,3.681,0,0,0,3.681-3.68H233.156A3.679,3.679,0,0,0,236.835,305.791Z" transform="translate(-205.238 -237.951)" fill="#a4a4b4"/>
        <rect id="Rectángulo_35059" data-name="Rectángulo 35059" width="69.619" height="18.776" transform="translate(74.396 53.928) rotate(180)" fill="#1d272b"/>
        <rect id="Rectángulo_35060" data-name="Rectángulo 35060" width="11.223" height="18.776" transform="translate(85.619 53.928) rotate(180)" fill="#a4a4b4"/>
        <path id="Trazado_163823" data-name="Trazado 163823" d="M236.835,285.556h15.283a3.682,3.682,0,0,0,3.681-3.681H233.156A3.68,3.68,0,0,0,236.835,285.556Z" transform="translate(-205.238 -238.722)" fill="#a4a4b4"/>
        <g id="Grupo_127683" data-name="Grupo 127683" transform="translate(4.038 34.414)">
          <path id="Trazado_163824" data-name="Trazado 163824" d="M281.249,385.743h-1.478V274.934H211.63V385.743h-1.478V273.456h71.1Z" transform="translate(-210.152 -273.456)" fill="#868695"/>
        </g>
        <path id="Trazado_163825" data-name="Trazado 163825" d="M275.017,273.614H217.6a2.239,2.239,0,0,1-2.239-2.239h0a2.239,2.239,0,0,1,2.239-2.239h57.416a2.24,2.24,0,0,1,2.24,2.239h0A2.24,2.24,0,0,1,275.017,273.614Z" transform="translate(-205.915 -239.207)" fill="#a4a4b4"/>
        <g id="Grupo_127684" data-name="Grupo 127684" transform="translate(9.694 22.595)">
          <path id="Trazado_163826" data-name="Trazado 163826" d="M276.8,272.231H215.6v-.587a9.584,9.584,0,0,1,9.573-9.573h42.056a9.584,9.584,0,0,1,9.573,9.573Zm-60.01-1.172h58.818a8.41,8.41,0,0,0-8.38-7.816H225.173A8.411,8.411,0,0,0,216.792,271.059Z" transform="translate(-215.6 -262.071)" fill="#a4a4b4"/>
        </g>
      </g>
    </g>
  </g>
</svg>
