<svg xmlns="http://www.w3.org/2000/svg" xmlns:xlink="http://www.w3.org/1999/xlink" width="114.636" height="114.637" viewBox="0 0 114.636 114.637">
  <defs>
    <radialGradient id="radial-gradient" cx="0.076" cy="0.019" r="1.465" gradientTransform="translate(0.001)" gradientUnits="objectBoundingBox">
      <stop offset="0" stop-color="#f6f6f7"/>
      <stop offset="0.477" stop-color="#f9f9fa"/>
      <stop offset="0.715" stop-color="#fff"/>
    </radialGradient>
  </defs>
  <g id="number3" transform="translate(-233.65 -755.983)">
    <g id="Grupo_42274" data-name="Grupo 42274" transform="translate(233.65 755.984)">
      <g id="Grupo_18423" data-name="Grupo 18423" transform="translate(0 0)">
        <g id="Grupo_18421" data-name="Grupo 18421">
          <g id="Grupo_18420" data-name="Grupo 18420">
            <g id="Grupo_18419" data-name="Grupo 18419">
              <path id="Trazado_40936" data-name="Trazado 40936" d="M309.259,2203.038a57.318,57.318,0,1,1-57.317-57.316A57.317,57.317,0,0,1,309.259,2203.038Z" transform="translate(-194.623 -2145.721)" fill="#fff"/>
            </g>
          </g>
        </g>
        <path id="Trazado_40937" data-name="Trazado 40937" d="M308.649,2202.372a57.317,57.317,0,1,0-57.317,57.319A57.09,57.09,0,0,0,308.649,2202.372Z" transform="translate(-194.013 -2145.056)" fill="url(#radial-gradient)"/>
        <path id="Trazado_40938" data-name="Trazado 40938" d="M289.673,2196.987a43.751,43.751,0,1,0-43.751,43.75A43.589,43.589,0,0,0,289.673,2196.987Z" transform="translate(-188.43 -2139.479)" fill="none" stroke="#1d272b" stroke-miterlimit="10" stroke-width="4"/>
        <g id="Grupo_18422" data-name="Grupo 18422" transform="translate(10.154 32.18)">
          <path id="Trazado_40939" data-name="Trazado 40939" d="M299.231,2164.488a57.325,57.325,0,0,1-98.686,57.081,57.143,57.143,0,0,0,98.686-57.081Z" transform="translate(-200.545 -2164.488)" fill="#eceef0"/>
        </g>
      </g>
    </g>
    <path id="Trazado_165511" data-name="Trazado 165511" d="M9.692,30.784h3.882q4.614,0,4.614-4.517a3.905,3.905,0,0,0-1.1-2.869,4.166,4.166,0,0,0-3.1-1.111,4.46,4.46,0,0,0-2.844.952,2.9,2.9,0,0,0-1.208,2.368H1.709a8.422,8.422,0,0,1,1.563-5A10.318,10.318,0,0,1,7.6,17.173,14.816,14.816,0,0,1,13.7,15.94q5.933,0,9.326,2.71A9.009,9.009,0,0,1,26.416,26.1a7.509,7.509,0,0,1-1.4,4.333,10.005,10.005,0,0,1-4.089,3.308,9.557,9.557,0,0,1,4.443,3.113,8.2,8.2,0,0,1,1.611,5.164,9.172,9.172,0,0,1-3.662,7.617q-3.662,2.856-9.619,2.856a15.764,15.764,0,0,1-6.482-1.331,10.156,10.156,0,0,1-4.529-3.687,9.584,9.584,0,0,1-1.538-5.359H9.424a3.7,3.7,0,0,0,1.318,2.832,4.654,4.654,0,0,0,3.247,1.2,4.875,4.875,0,0,0,3.467-1.208,4.039,4.039,0,0,0,1.294-3.088,4.722,4.722,0,0,0-1.343-3.809A5.613,5.613,0,0,0,13.7,36.912h-4Z" transform="translate(276.579 786.183)" fill="#1d272b"/>
  </g>
</svg>
