<svg xmlns="http://www.w3.org/2000/svg" xmlns:xlink="http://www.w3.org/1999/xlink" width="1326" height="1370" viewBox="0 0 1326 1370">
  <defs>
    <clipPath id="clip-path">
      <rect id="Rectángulo_34981" data-name="Rectángulo 34981" width="1326" height="1370" transform="translate(116 3314)" fill="#b0c0d2" stroke="#707070" stroke-width="1"/>
    </clipPath>
  </defs>
  <g id="fondo1" transform="translate(-116 -3314)" opacity="0.554" clip-path="url(#clip-path)">
    <path id="Trazado_163416" data-name="Trazado 163416" d="M-56.166,349.371c41.251,82.769,118.053,137.15,203.96,162.846,101.849,30.465,199.856,14.216,302.045-1.954C544.06,495.353,648.852,491.2,728.351,554.37c123.4,98.054,135.182,288.019,248.168,397.939,55.9,54.379,132.014,86.067,208.84,86.937,84.938.966,192.423-37.173,235.861-118.024,42.182-78.507-.565-156.682,14.412-237.05,29.3-157.186,239.7-147.845,341.355-225.866,48.573-37.281,81.261-92.9,103.656-150.932,24.854-64.406,38.391-136.154,21.564-203.266C1874.341-7.064,1769.66-48.676,1667.714-52.672c-75.754-2.969-151.067,17.146-220.635,48.221-61.53,27.484-119.4,63.542-182.332,87.414-155.408,58.948-308.5-16.276-442.582-97.157-172.127-103.829-349.9-203.921-555.693-168.2C109.216-155.1-53.982-55.3-84.847,118.187c-13.057,73.391-7,151.222,23.007,219.113Q-59.126,343.433-56.166,349.371Z" transform="translate(132.391 3534.751)" fill="#b0c0d2" opacity="0.118"/>
  </g>
</svg>
