<svg xmlns="http://www.w3.org/2000/svg" xmlns:xlink="http://www.w3.org/1999/xlink" width="1326" height="1370" viewBox="0 0 1326 1370">
  <defs>
    <clipPath id="clip-path">
      <rect id="Rectángulo_35378" data-name="Rectángulo 35378" width="1326" height="1370" transform="translate(116 3314)" fill="#b0c0d2" stroke="#707070" stroke-width="1"/>
    </clipPath>
  </defs>
  <g id="fondo3" transform="translate(-116 -3314)" opacity="0.554" clip-path="url(#clip-path)">
    <path id="Trazado_164054" data-name="Trazado 164054" d="M1874.481,349.371c-41.251,82.769-118.053,137.15-203.96,162.846-101.849,30.465-199.856,14.216-302.045-1.954-94.221-14.911-199.013-19.064-278.511,44.107C966.569,652.424,954.783,842.389,841.8,952.309c-55.9,54.379-132.014,86.067-208.84,86.937-84.938.966-192.423-37.173-235.861-118.024-42.182-78.507.565-156.682-14.412-237.05-29.3-157.186-239.7-147.845-341.355-225.866C-7.245,421.025-39.933,365.4-62.328,307.375c-24.854-64.406-38.391-136.154-21.564-203.266C-56.025-7.064,48.656-48.676,150.6-52.672c75.754-2.969,151.067,17.146,220.635,48.221,61.53,27.484,119.4,63.542,182.332,87.414,155.408,58.948,308.5-16.276,442.582-97.157,172.127-103.829,349.9-203.921,555.693-168.2C1709.1-155.1,1872.3-55.3,1903.162,118.187c13.057,73.391,7,151.222-23.007,219.113Q1877.441,343.433,1874.481,349.371Z" transform="translate(-392.706 3534.751)" fill="#b0c0d2" opacity="0.118"/>
  </g>
</svg>
