<svg id="icon1" xmlns="http://www.w3.org/2000/svg" xmlns:xlink="http://www.w3.org/1999/xlink" width="114.636" height="114.636" viewBox="0 0 114.636 114.636">
  <defs>
    <radialGradient id="radial-gradient" cx="0.076" cy="0.019" r="1.465" gradientTransform="translate(0.001)" gradientUnits="objectBoundingBox">
      <stop offset="0" stop-color="#f6f6f7"/>
      <stop offset="0.477" stop-color="#f9f9fa"/>
      <stop offset="0.715" stop-color="#fff"/>
    </radialGradient>
  </defs>
  <g id="Grupo_18423" data-name="Grupo 18423" transform="translate(0 0)">
    <g id="Grupo_18421" data-name="Grupo 18421">
      <g id="Grupo_18420" data-name="Grupo 18420">
        <g id="Grupo_18419" data-name="Grupo 18419">
          <path id="Trazado_40936" data-name="Trazado 40936" d="M309.259,2203.037a57.318,57.318,0,1,1-57.317-57.316A57.317,57.317,0,0,1,309.259,2203.037Z" transform="translate(-194.623 -2145.721)" fill="#fff"/>
        </g>
      </g>
    </g>
    <path id="Trazado_40937" data-name="Trazado 40937" d="M308.648,2202.372a57.316,57.316,0,1,0-57.317,57.319A57.091,57.091,0,0,0,308.648,2202.372Z" transform="translate(-194.013 -2145.056)" fill="url(#radial-gradient)"/>
    <path id="Trazado_40938" data-name="Trazado 40938" d="M289.672,2196.986a43.75,43.75,0,1,0-43.75,43.75A43.587,43.587,0,0,0,289.672,2196.986Z" transform="translate(-188.43 -2139.479)" fill="none" stroke="#1d272b" stroke-miterlimit="10" stroke-width="4"/>
    <g id="Grupo_18422" data-name="Grupo 18422" transform="translate(10.154 32.18)">
      <path id="Trazado_40939" data-name="Trazado 40939" d="M299.231,2164.488a57.325,57.325,0,0,1-98.686,57.081,57.143,57.143,0,0,0,98.686-57.081Z" transform="translate(-200.545 -2164.488)" fill="#eceef0"/>
    </g>
  </g>
  <g id="n90Zds" transform="translate(-557.458 -80.714)">
    <g id="Grupo_127937" data-name="Grupo 127937" transform="translate(590.19 109.366)">
      <path id="Trazado_164082" data-name="Trazado 164082" d="M618.5,109.366c.364.1.731.188,1.09.3a2.356,2.356,0,0,1,1.748,2.064c.064.57.335.653.784.736,1.989.368,3.973.766,5.96,1.147a1.7,1.7,0,0,1,1.19.882q6.842,11.32,13.713,22.622c.643,1.06.461,1.552-.684,1.986a11.952,11.952,0,0,0-7.893,9.432,13.028,13.028,0,0,0-.154,2.4c-.02,2.108,0,4.216-.008,6.323a10.5,10.5,0,0,1-5.879,9.839,9.494,9.494,0,0,1-4.4,1.125c-.887.014-1.221-.307-1.221-1.195q-.007-10.434,0-20.867,0-2.644,0-5.289c0-.146-.014-.292-.023-.479-.756.391-1.473.735-2.154,1.139-.135.08-.185.39-.187.6q-.088,6.006-.153,12.013c-.009.766-.024,1.533-.027,2.3a1.189,1.189,0,0,1-.76,1.17,6.121,6.121,0,0,1-5.005.144,1.528,1.528,0,0,1-1.089-1.6c-.025-4.349-.117-8.7-.121-13.048,0-1.019-.078-1.814-1.252-2.1a4.967,4.967,0,0,1-1.157-.68c0,.369,0,.63,0,.89,0,8.469-.015,16.939.019,25.408.007,1.689-.685,1.679-1.761,1.579a10.584,10.584,0,0,1-9.444-8.1,11.529,11.529,0,0,1-.307-2.555c-.041-2.375,0-4.752-.02-7.128a12.073,12.073,0,0,0-8.049-11.317c-1.152-.409-1.326-.928-.683-1.986q6.819-11.234,13.624-22.476a1.968,1.968,0,0,1,1.392-1.059c1.952-.358,3.9-.759,5.849-1.115.456-.083.722-.175.78-.74a2.618,2.618,0,0,1,2.411-2.251,4.078,4.078,0,0,0,.429-.114ZM613.13,139.5c.634-.659,1.151-.784,1.555-.313a1.659,1.659,0,0,1,.343.984q.143,7.643.226,15.288c0,.491.167.737.609.757.624.029,1.252.011,1.876-.02.412-.02.54-.257.545-.686.045-3.966.12-7.931.182-11.9.019-1.207.018-2.414.039-3.621a.988.988,0,0,1,.687-1.019.909.909,0,0,1,1.057.371,1.264,1.264,0,0,0,.165.142,8.083,8.083,0,0,0,3.508-3.312,10.248,10.248,0,0,0,1.17-3.571c.258-1.6.524-3.19.8-4.856l-4.756.815c.175.3.335.533.461.787a.935.935,0,0,1-1.58,1c-.448-.643-.882-1.3-1.279-1.975a.923.923,0,0,1,.622-1.423c.185-.047.374-.078.562-.11q2.825-.484,5.65-.963c.316-.053.579-.118.607-.525.043-.643.124-1.283.192-1.957H607.163c.061.527.127,1.015.171,1.506.08.895.078.878.928,1.021,1.959.33,3.918.664,5.871,1.026a.912.912,0,0,1,.668,1.433c-.4.676-.833,1.329-1.281,1.973a.933.933,0,0,1-1.224.28.913.913,0,0,1-.366-1.237c.127-.273.295-.527.471-.837l-4.665-.8a.82.82,0,0,0-.033.205c.271,1.7.518,3.4.824,5.094A8.528,8.528,0,0,0,613.13,139.5ZM627.2,115.413a.692.692,0,0,0-.167-.091c-2.008-.369-4.015-.742-6.026-1.087-.117-.02-.35.158-.4.29-.27.768-.535,1.541-.732,2.329-.148.59-.171,1.21-.287,1.81a.944.944,0,0,1-1.141.851.975.975,0,0,1-.744-1.176,13.142,13.142,0,0,1,1.57-5.452c.639-1.01-.077-1.53-.919-1.555-1.052-.031-2.107-.043-3.158,0-1.1.046-1.474.642-.917,1.578a13.812,13.812,0,0,1,1.547,5.462.979.979,0,0,1-.779,1.157.954.954,0,0,1-1.1-.835c-.081-.372-.118-.755-.171-1.133a7.862,7.862,0,0,0-.821-3.016c-.145-.246-.259-.363-.572-.311-.96.162-1.933.257-2.891.431-1.062.193-2.113.444-3.171.671l.606,6.076h19.676Zm-31.884,23.6c.691.615,1.324,1.113,1.876,1.689a19.127,19.127,0,0,1,1.527,1.862.814.814,0,0,0,.747.385c2.932-.015,5.864-.008,8.8-.008h.629v-3.929c-.922,0-1.8.009-2.68,0-.749-.01-1.179-.375-1.179-.967s.433-.949,1.183-.959c.548-.007,1.1,0,1.6,0l-1.334-3.9a.583.583,0,0,0-.141-.019c-3.6,0-7.205-.007-10.807.011a.745.745,0,0,0-.523.313c-.608.95-1.183,1.922-1.767,2.887-.13.214-.253.433-.413.708,3.007,0,5.9,0,8.793,0a3.017,3.017,0,0,1,.847.1.906.906,0,0,1-.055,1.736,3.847,3.847,0,0,1-.851.088C599.519,139.016,597.471,139.012,595.321,139.012Zm29.31,15.635h.6c.747,0,1.5-.012,2.241.016a.911.911,0,0,1,.887,1.188.934.934,0,0,1-1.013.675c-.894-.008-1.787,0-2.739,0,0,1.28-.009,2.482.017,3.683,0,.1.243.279.374.28q3.247.027,6.495,0a.552.552,0,0,0,.429-.258,9.124,9.124,0,0,0,.359-3.716c-.376,0-.7.016-1.021,0a.926.926,0,0,1-.006-1.853c.337-.02.676,0,1.037,0v-3.934H624.63Zm1.108-17.61h14.956c-.727-1.2-1.428-2.341-2.1-3.5a.725.725,0,0,0-.735-.391c-3.467.013-6.935.008-10.4.01-.168,0-.335.019-.4.022Zm-1.1,2v3.864c.128.014.22.032.313.032,3.084,0,6.168.008,9.252-.013a.973.973,0,0,0,.573-.346c.9-.959,1.779-1.941,2.679-2.9a8.037,8.037,0,0,1,.774-.636Zm12.521-7.84c-.737-1.215-1.446-2.363-2.131-3.525a.683.683,0,0,0-.68-.383c-2.029.015-4.057.005-6.086.007-.145,0-.291.027-.431.041l-.543,3.859ZM605.7,127.3c-2.277,0-4.513,0-6.748.006a.383.383,0,0,0-.284.137c-.759,1.228-1.505,2.463-2.291,3.756h9.872Zm-5.514,17.574c.3,1.246.568,2.447.885,3.636.035.131.329.274.5.275,2.314.017,4.627.011,6.941.007a3.363,3.363,0,0,0,.379-.043v-3.875Zm33.207.013h-8.758v3.88h7.7Zm-24.49,5.827h-7.637v3.9H608.9Zm-7.67,5.83a9.329,9.329,0,0,0,.354,3.569.647.647,0,0,0,.452.369c2.165.024,4.33.012,6.5.02.348,0,.406-.171.4-.466-.011-.977,0-1.954-.006-2.932,0-.183-.022-.365-.034-.56Zm3.415-38.752-.127-.023-4.584,7.569h5.52Zm23.431,7.546H633.6l-4.587-7.568-.125.028Zm-3.45,40.882c2.344-.03,5.48-2.109,6.144-3.809h-6.144Zm-15.725-3.8h-6.271a8.764,8.764,0,0,0,6.271,3.855Z" transform="translate(-590.19 -109.366)" fill="#1d272b"/>
    </g>
  </g>
</svg>
