<svg id="icon3" xmlns="http://www.w3.org/2000/svg" xmlns:xlink="http://www.w3.org/1999/xlink" width="114.636" height="114.636" viewBox="0 0 114.636 114.636">
  <defs>
    <radialGradient id="radial-gradient" cx="0.076" cy="0.019" r="1.465" gradientTransform="translate(0.001)" gradientUnits="objectBoundingBox">
      <stop offset="0" stop-color="#f6f6f7"/>
      <stop offset="0.477" stop-color="#f9f9fa"/>
      <stop offset="0.715" stop-color="#fff"/>
    </radialGradient>
  </defs>
  <g id="Grupo_18423" data-name="Grupo 18423" transform="translate(0 0)">
    <g id="Grupo_18421" data-name="Grupo 18421">
      <g id="Grupo_18420" data-name="Grupo 18420">
        <g id="Grupo_18419" data-name="Grupo 18419">
          <path id="Trazado_40936" data-name="Trazado 40936" d="M309.259,2203.037a57.318,57.318,0,1,1-57.317-57.316A57.317,57.317,0,0,1,309.259,2203.037Z" transform="translate(-194.623 -2145.721)" fill="#fff"/>
        </g>
      </g>
    </g>
    <path id="Trazado_40937" data-name="Trazado 40937" d="M308.648,2202.372a57.316,57.316,0,1,0-57.317,57.319A57.091,57.091,0,0,0,308.648,2202.372Z" transform="translate(-194.013 -2145.056)" fill="url(#radial-gradient)"/>
    <path id="Trazado_40938" data-name="Trazado 40938" d="M289.672,2196.986a43.75,43.75,0,1,0-43.75,43.75A43.587,43.587,0,0,0,289.672,2196.986Z" transform="translate(-188.43 -2139.479)" fill="none" stroke="#1d272b" stroke-miterlimit="10" stroke-width="4"/>
    <g id="Grupo_18422" data-name="Grupo 18422" transform="translate(10.154 32.18)">
      <path id="Trazado_40939" data-name="Trazado 40939" d="M299.231,2164.488a57.325,57.325,0,0,1-98.686,57.081,57.143,57.143,0,0,0,98.686-57.081Z" transform="translate(-200.545 -2164.488)" fill="#eceef0"/>
    </g>
  </g>
  <g id="p8ix17" transform="translate(-1554.4 -94.926)">
    <g id="Grupo_121019" data-name="Grupo 121019" transform="translate(1584.512 128.425)">
      <path id="Trazado_158644" data-name="Trazado 158644" d="M1614.52,135.256c0-1.4-.013-2.615,0-3.835.025-1.972.979-2.979,2.912-2.984q9.891-.026,19.783,0c1.924,0,2.911,1.023,2.917,2.982q.022,8.117,0,16.235c-.006,1.985-.947,2.921-2.931,2.946-2.092.026-4.193.128-6.273-.03a2.437,2.437,0,0,0-2.806,2.73c.115,6.273.048,12.551.043,18.826,0,1.885-.524,2.4-2.444,2.4-8.049,0-16.1-.018-24.148.037a3.3,3.3,0,0,0-1.992.81c-1.52,1.366-2.913,2.872-4.371,4.308-2.124,2.091-4.775,2.225-6.658.353s-1.768-4.567.311-6.658c3.175-3.192,6.386-6.349,9.521-9.579a2.982,2.982,0,0,0,.767-1.875c.051-7.958.033-15.917.034-23.875,0-2.4.381-2.789,2.734-2.79C1606.055,135.256,1610.188,135.256,1614.52,135.256Zm-13.583,25.493c2.312-1.025,4.624-2.121,6.993-3.079,1.77-.716,3.7.76,3.072,2.439-1.034,2.768-1.723,5.752-4.073,7.888-1.591,1.446-3.057,3.032-4.745,4.721h24.255V154.136c-1-.248-2.119-.205-2.659-.743-.616-.614-.718-1.744-1.092-2.786-1.5,0-3.136,0-4.768,0-2.6-.008-3.4-.812-3.4-3.441,0-1.046,0-2.093,0-3.139v-6.963h-13.582Zm23.916-8.59.372.2c.843-.838,1.726-1.641,2.515-2.526a2.658,2.658,0,0,1,2.256-.951c2.271.066,4.548-.037,6.818.044,1.289.046,1.651-.485,1.642-1.688-.039-5.137-.049-10.275.005-15.411.014-1.33-.488-1.73-1.768-1.721-6.228.045-12.456.017-18.685.022-1.648,0-1.786.14-1.787,1.791q-.008,7.5,0,15c0,1.955.03,1.981,1.988,1.982,2.16,0,4.32,0,6.645,0ZM1594.681,172.2l9.011-9.012-.892-.973-9.1,9.112Zm10.7-7.364-9.044,9.045.98.935,8.963-8.877Zm-15.671,10.234a2.675,2.675,0,0,0,3.734,3.829Zm6.386,1.285-3.923-3.919-1.034,1.037,3.913,3.934Zm11.293-12c.97-1.879,1.024-1.949-.947-3.463-.458-.352-1.416-.052-2.144-.052l.008.412Z" transform="translate(-1586.481 -128.425)" fill="#1d272b"/>
      <path id="Trazado_158645" data-name="Trazado 158645" d="M1745.708,224.229h-4.2v1.55q0,7.772,0,15.544c0,2-.49,2.488-2.495,2.5-2.535.009-5.069,0-7.637,0v-1.713h8.325V224.227h-4.065l5.04-7.552Zm-5.031-4.487-1.72,2.6h3.441Z" transform="translate(-1691.295 -192.59)" fill="#1d272b"/>
      <path id="Trazado_158646" data-name="Trazado 158646" d="M1584.512,154.283h4.179v-1.6q0-7.709,0-15.417c0-2.184.428-2.6,2.659-2.6,1.9,0,3.8,0,5.783,0v1.695H1590.5v17.9h4.052l-5.028,7.549Zm3.249,1.8,1.768,2.65,1.756-2.65Z" transform="translate(-1584.512 -132.957)" fill="#1d272b"/>
      <path id="Trazado_158647" data-name="Trazado 158647" d="M1667.392,131a2.566,2.566,0,1,1-2.527-2.534A2.639,2.639,0,0,1,1667.392,131Zm-1.389.116c-.536-.429-.863-.889-1.147-.864a1.253,1.253,0,0,0-.817.8c-.054.18.431.729.7.746C1665.062,131.821,1665.412,131.46,1666,131.118Z" transform="translate(-1641.043 -128.456)" fill="#1d272b"/>
      <path id="Trazado_158648" data-name="Trazado 158648" d="M1637.249,131.035a2.566,2.566,0,1,1,2.5,2.564A2.622,2.622,0,0,1,1637.249,131.035Zm2.581-1.184c-.392.558-.781.875-.795,1.208-.011.256.5.779.694.743a1.213,1.213,0,0,0,.857-.736C1640.63,130.777,1640.205,130.416,1639.83,129.85Z" transform="translate(-1622.856 -128.458)" fill="#1d272b"/>
      <path id="Trazado_158649" data-name="Trazado 158649" d="M1711.228,306.1a2.658,2.658,0,0,1-2.5,2.572,2.565,2.565,0,0,1-.146-5.128A2.624,2.624,0,0,1,1711.228,306.1Zm-2.6-1.147c-.363.546-.753.88-.756,1.217,0,.251.5.5.775.758.27-.3.693-.562.758-.9C1709.453,305.795,1709.017,305.463,1708.629,304.955Z" transform="translate(-1672.931 -255.753)" fill="#1d272b"/>
      <path id="Trazado_158650" data-name="Trazado 158650" d="M1686.217,306.1a2.656,2.656,0,0,1-2.489,2.579,2.565,2.565,0,0,1-.16-5.127A2.622,2.622,0,0,1,1686.217,306.1Zm-1.418.175c-.507-.46-.78-.9-1.1-.939-.262-.032-.583.414-.878.649.254.315.454.769.782.9C1683.817,306.962,1684.218,306.583,1684.8,306.27Z" transform="translate(-1654.747 -255.753)" fill="#1d272b"/>
      <path id="Trazado_158651" data-name="Trazado 158651" d="M1661.207,306.106a2.659,2.659,0,0,1-2.5,2.569,2.565,2.565,0,0,1-.14-5.128A2.625,2.625,0,0,1,1661.207,306.106Zm-2.521-1.142c-.4.512-.812.817-.842,1.157-.022.245.519.79.714.749a1.282,1.282,0,0,0,.835-.782C1659.455,305.851,1659.037,305.489,1658.686,304.963Z" transform="translate(-1636.562 -255.753)" fill="#1d272b"/>
      <path id="Trazado_158652" data-name="Trazado 158652" d="M1689.35,311.021c-.581.313-.981.692-1.2.607-.328-.129-.528-.582-.782-.9.295-.234.616-.681.878-.649" transform="translate(-1659.299 -260.504)" fill="#1d272b"/>
      <path id="Trazado_158653" data-name="Trazado 158653" d="M1681.344,238.955V228.764h11.879c0,3.194.017,6.321-.031,9.446a1.024,1.024,0,0,1-.7.713C1688.817,238.97,1685.141,238.955,1681.344,238.955Zm10.083-8.474h-8.359V237.1h8.359Z" transform="translate(-1654.917 -201.38)" fill="#1d272b"/>
      <path id="Trazado_158654" data-name="Trazado 158654" d="M1667.672,272.716c1.476-1.046,1.8-.99,3.482.768a1.662,1.662,0,0,0,1.084.3c2.448.025,4.9.013,7.445.013v1.6h-10.069l-.245-1.781-2.576,2.346-1.537-2.452-.952,2.23-1.44-.469c.246-1.252.372-2.6,1.69-2.942C1665.375,272.115,1666.36,272.527,1667.672,272.716Z" transform="translate(-1641.48 -232.835)" fill="#1d272b"/>
      <path id="Trazado_158655" data-name="Trazado 158655" d="M1653.986,178.819V180.3H1643.86v-1.478Z" transform="translate(-1627.663 -165.066)" fill="#1d272b"/>
      <path id="Trazado_158656" data-name="Trazado 158656" d="M1643.8,216.415h10.108l.072,1.511H1643.8Z" transform="translate(-1627.622 -192.401)" fill="#1d272b"/>
      <path id="Trazado_158657" data-name="Trazado 158657" d="M1643.737,167.982v-1.468h4.982c.02.41.044.881.073,1.468Z" transform="translate(-1627.574 -156.119)" fill="#1d272b"/>
      <path id="Trazado_158658" data-name="Trazado 158658" d="M1662.54,203.748h4.988c.029.489.055.927.088,1.5h-5.077Z" transform="translate(-1641.245 -183.191)" fill="#1d272b"/>
      <path id="Trazado_158659" data-name="Trazado 158659" d="M1648.592,193.021h-5.054l-.074-1.533h5.059C1648.543,191.93,1648.564,192.4,1648.592,193.021Z" transform="translate(-1627.375 -174.277)" fill="#1d272b"/>
      <path id="Trazado_158660" data-name="Trazado 158660" d="M1668.739,168v-1.5h3.279V168Z" transform="translate(-1645.752 -156.111)" fill="#1d272b"/>
      <path id="Trazado_158661" data-name="Trazado 158661" d="M1668.874,191.374h3.26v1.507h-3.26Z" transform="translate(-1645.85 -174.194)" fill="#1d272b"/>
      <path id="Trazado_158662" data-name="Trazado 158662" d="M1647.139,203.847v1.516h-3.259v-1.516Z" transform="translate(-1627.678 -183.263)" fill="#1d272b"/>
      <path id="Trazado_158663" data-name="Trazado 158663" d="M1727.609,141.064c2.118.007,2.615.538,2.367,2.6-.162,1.346-.364,2.687-.565,4.028-.167,1.114-.751,1.9-1.944,1.859-1.113-.036-1.656-.8-1.8-1.862-.182-1.3-.381-2.594-.546-3.894C1724.835,141.574,1725.316,141.056,1727.609,141.064Zm-.919,1.75.7,4.642.312-.018.655-4.624Z" transform="translate(-1686.691 -137.614)" fill="#1d272b"/>
      <path id="Trazado_158664" data-name="Trazado 158664" d="M1727.434,178.485a2.563,2.563,0,1,1-2.516,2.645A2.557,2.557,0,0,1,1727.434,178.485Zm1.17,2.467c-.581-.328-.94-.689-1.273-.666-.252.017-.72.626-.652.791a1.348,1.348,0,0,0,.893.735C1727.808,181.846,1728.116,181.382,1728.6,180.952Z" transform="translate(-1686.599 -164.823)" fill="#1d272b"/>
    </g>
  </g>
</svg>
