<svg id="icon9" xmlns="http://www.w3.org/2000/svg" xmlns:xlink="http://www.w3.org/1999/xlink" width="114.636" height="114.636" viewBox="0 0 114.636 114.636">
  <defs>
    <radialGradient id="radial-gradient" cx="0.076" cy="0.019" r="1.465" gradientTransform="translate(0.001)" gradientUnits="objectBoundingBox">
      <stop offset="0" stop-color="#f6f6f7"/>
      <stop offset="0.477" stop-color="#f9f9fa"/>
      <stop offset="0.715" stop-color="#fff"/>
    </radialGradient>
  </defs>
  <g id="Grupo_18423" data-name="Grupo 18423" transform="translate(0 0)">
    <g id="Grupo_18421" data-name="Grupo 18421">
      <g id="Grupo_18420" data-name="Grupo 18420">
        <g id="Grupo_18419" data-name="Grupo 18419">
          <path id="Trazado_40936" data-name="Trazado 40936" d="M309.259,2203.037a57.318,57.318,0,1,1-57.317-57.316A57.317,57.317,0,0,1,309.259,2203.037Z" transform="translate(-194.623 -2145.721)" fill="#fff"/>
        </g>
      </g>
    </g>
    <path id="Trazado_40937" data-name="Trazado 40937" d="M308.648,2202.372a57.316,57.316,0,1,0-57.317,57.319A57.091,57.091,0,0,0,308.648,2202.372Z" transform="translate(-194.013 -2145.056)" fill="url(#radial-gradient)"/>
    <path id="Trazado_40938" data-name="Trazado 40938" d="M289.672,2196.986a43.75,43.75,0,1,0-43.75,43.75A43.587,43.587,0,0,0,289.672,2196.986Z" transform="translate(-188.43 -2139.479)" fill="none" stroke="#1d272b" stroke-miterlimit="10" stroke-width="4"/>
    <g id="Grupo_18422" data-name="Grupo 18422" transform="translate(10.154 32.18)">
      <path id="Trazado_40939" data-name="Trazado 40939" d="M299.231,2164.488a57.325,57.325,0,0,1-98.686,57.081,57.143,57.143,0,0,0,98.686-57.081Z" transform="translate(-200.545 -2164.488)" fill="#eceef0"/>
    </g>
  </g>
  <g id="EWR1MV.tif" transform="translate(-60.857 410.759)">
    <g id="Grupo_128133" data-name="Grupo 128133" transform="translate(93.3 -379.014)">
      <path id="Trazado_165075" data-name="Trazado 165075" d="M133.737-354.529c2.426,0,4.775,0,7.125,0,1.057,0,1.306.251,1.307,1.306q0,2.86,0,5.719a15.039,15.039,0,0,1-10.956,14.625c-.14.041-.278.089-.462.148.231,1.171.456,2.326.688,3.48.2.986-.122,1.382-1.141,1.382q-10.355,0-20.71,0c-1.007,0-1.319-.4-1.113-1.4.234-1.138.461-2.278.687-3.4-7.9-2.63-11.642-8.136-11.454-16.426-1.134-.3-2.277-.594-3.418-.9-.828-.221-.99-.436-.991-1.28q0-1,0-2c0-.99.263-1.257,1.241-1.257H114.03c2.239,0,4.479-.011,6.718.006a.791.791,0,0,0,.757-.407q4.4-6.571,8.827-13.122a.878.878,0,0,0,.116-.9,7.525,7.525,0,0,1,1.99-8.081,7.574,7.574,0,0,1,8.325-1.265,7.584,7.584,0,0,1,4.282,7.146,7.59,7.59,0,0,1-6.24,7.1.91.91,0,0,0-.586.395c-1.472,2.942-2.919,5.9-4.371,8.849C133.817-354.742,133.795-354.674,133.737-354.529Zm6.681,1.815H95.095v1.061c1.2.317,2.39.628,3.58.952a.949.949,0,0,1,.844,1.112c0,.814-.005,1.629,0,2.443A13.23,13.23,0,0,0,112.56-334.1q7.41.066,14.822,0a13.205,13.205,0,0,0,12.68-10.329C140.662-347.159,140.262-349.923,140.417-352.714Zm-17.047-1.813c2.689,0,5.259-.011,7.828.011a.739.739,0,0,0,.782-.507c1.608-3.326,3.242-6.64,4.854-9.964a1.205,1.205,0,0,1,1.105-.766,5.729,5.729,0,0,0,5.182-4.38,5.776,5.776,0,0,0-2.611-6.274,5.773,5.773,0,0,0-6.811.591,5.709,5.709,0,0,0-1.479,6.62,1.572,1.572,0,0,1-.163,1.733c-2.327,3.426-4.623,6.872-6.929,10.311C124.564-356.311,124-355.469,123.371-354.527Zm6.155,24.858c-.143-.716-.307-1.4-.406-2.087-.061-.426-.212-.567-.662-.564-3.107.022-6.214.01-9.322.009-2.571,0-5.142,0-7.713.009-.186,0-.507.094-.534.2-.2.795-.336,1.6-.5,2.432Z" transform="translate(-93.3 379.014)" fill="#1d272b"/>
      <path id="Trazado_165076" data-name="Trazado 165076" d="M119.806-299.693l-1.405,1.054c-.445-.52-.857-1.034-1.311-1.509a.593.593,0,0,0-.533-.128,9.285,9.285,0,0,1-7.794.046,12.823,12.823,0,0,1-7.47-7.672A21.333,21.333,0,0,1,99.8-313.51c-.078-.69.2-1.1.885-1.139a28.517,28.517,0,0,1,11.218,1.327c4.56,1.637,6.232,6.228,6.085,9.591a2.493,2.493,0,0,1-.047.662,1.734,1.734,0,0,0,.661,1.932A16.6,16.6,0,0,1,119.806-299.693Zm-18.136-13.229a14.643,14.643,0,0,0,.318,1.467c.377,1.158.727,2.331,1.207,3.447a10.817,10.817,0,0,0,8.076,6.676,6.7,6.7,0,0,0,4.273-.443,53.3,53.3,0,0,0-9.958-7.366c.166-.312.294-.557.426-.8s.279-.5.422-.753a55.413,55.413,0,0,1,9.717,7.046c.03-.179.049-.249.052-.319a7.843,7.843,0,0,0-5.087-7.751A27.237,27.237,0,0,0,101.671-312.922Z" transform="translate(-99.068 321.863)" fill="#1d272b"/>
      <path id="Trazado_165077" data-name="Trazado 165077" d="M277.732-329.962c.222-.594.462-1.135.617-1.7a1.339,1.339,0,0,0-.041-.864,8.608,8.608,0,0,1-.67-5.725,7.692,7.692,0,0,1,3.591-4.736,24.45,24.45,0,0,1,6.526-2.989c.714-.221,1.192,0,1.328.662a14.346,14.346,0,0,1-.446,8.568,9.078,9.078,0,0,1-6.392,5.655,14.688,14.688,0,0,1-2.267.2l-.557,1.445Zm1.838-4.249a42.11,42.11,0,0,1,5.074-7.3l1.273,1.124c-.932,1.253-1.877,2.438-2.725,3.689s-1.607,2.581-2.4,3.875l.128.127a7.364,7.364,0,0,0,1.082-.172,7.429,7.429,0,0,0,5.339-5.7,22.837,22.837,0,0,0,.334-3.962,10.025,10.025,0,0,0-.147-1.507,19.864,19.864,0,0,0-6.29,3.278A5.755,5.755,0,0,0,279.57-334.211Z" transform="translate(-256.939 349.724)" fill="#1d272b"/>
    </g>
  </g>
</svg>
