<svg id="icon10" xmlns="http://www.w3.org/2000/svg" xmlns:xlink="http://www.w3.org/1999/xlink" width="114.636" height="114.636" viewBox="0 0 114.636 114.636">
  <defs>
    <radialGradient id="radial-gradient" cx="0.076" cy="0.019" r="1.465" gradientTransform="translate(0.001)" gradientUnits="objectBoundingBox">
      <stop offset="0" stop-color="#f6f6f7"/>
      <stop offset="0.477" stop-color="#f9f9fa"/>
      <stop offset="0.715" stop-color="#fff"/>
    </radialGradient>
  </defs>
  <g id="Grupo_18423" data-name="Grupo 18423" transform="translate(0 0)">
    <g id="Grupo_18421" data-name="Grupo 18421">
      <g id="Grupo_18420" data-name="Grupo 18420">
        <g id="Grupo_18419" data-name="Grupo 18419">
          <path id="Trazado_40936" data-name="Trazado 40936" d="M309.259,2203.037a57.318,57.318,0,1,1-57.317-57.316A57.317,57.317,0,0,1,309.259,2203.037Z" transform="translate(-194.623 -2145.721)" fill="#fff"/>
        </g>
      </g>
    </g>
    <path id="Trazado_40937" data-name="Trazado 40937" d="M308.648,2202.372a57.316,57.316,0,1,0-57.317,57.319A57.091,57.091,0,0,0,308.648,2202.372Z" transform="translate(-194.013 -2145.056)" fill="url(#radial-gradient)"/>
    <path id="Trazado_40938" data-name="Trazado 40938" d="M289.672,2196.986a43.75,43.75,0,1,0-43.75,43.75A43.587,43.587,0,0,0,289.672,2196.986Z" transform="translate(-188.43 -2139.479)" fill="none" stroke="#1d272b" stroke-miterlimit="10" stroke-width="4"/>
    <g id="Grupo_18422" data-name="Grupo 18422" transform="translate(10.154 32.18)">
      <path id="Trazado_40939" data-name="Trazado 40939" d="M299.231,2164.488a57.325,57.325,0,0,1-98.686,57.081,57.143,57.143,0,0,0,98.686-57.081Z" transform="translate(-200.545 -2164.488)" fill="#eceef0"/>
    </g>
  </g>
  <g id="oIRQwa" transform="translate(-481.999 291.839)">
    <g id="Grupo_128134" data-name="Grupo 128134" transform="translate(522.443 -265.389)">
      <path id="Trazado_165078" data-name="Trazado 165078" d="M540.119-250.421c-.325-.382-.575-.9-.986-1.125-2.874-1.587-3.677-3.713-2.407-6.685.859-2.01,1.723-4.022,2.682-5.985.251-.513.9-1.21,1.31-1.171a2.286,2.286,0,0,1,1.487,1.177c1,2,1.883,4.065,2.749,6.131,1.155,2.756.273,5.062-2.331,6.492-.444.244-.719.8-1.072,1.206l.286.413c1.852,0,3.7,0,5.556,0,2.826.008,3.815,1.007,3.817,3.879q.006,15.274,0,30.549v2.03c1.563,0,3.018-.015,4.473,0,2.165.028,3.566,1.316,3.538,3.225-.028,1.871-1.364,3.121-3.463,3.124q-14.946.024-29.892,0a3.153,3.153,0,0,1-3.423-3.173,3.2,3.2,0,0,1,3.436-3.172c1.42-.025,2.841,0,4.543,0v-1.974q0-15.274,0-30.548c0-3,.928-3.929,3.908-3.935,1.8,0,3.6,0,5.4,0Zm-7.894,36.814H549.34c0-3.471.018-6.849-.03-10.227a1.241,1.241,0,0,0-.676-.9c-1.718-.645-2.206-1.937-2.18-3.63.042-2.735.024-5.471,0-8.206-.007-.947.261-2.206-1.214-2.235-1.637-.033-1.267,1.328-1.278,2.3-.031,2.626-.007,5.252-.012,7.878s-1.034,3.958-3.075,3.981-3.146-1.328-3.153-3.9c-.007-2.407,0-4.814-.006-7.221,0-.932.1-2.043-1.282-2-1.351.043-1.223,1.153-1.228,2.079-.012,2.134-.023,4.268,0,6.4A3.131,3.131,0,0,1,533.016-226c-.321.121-.754.532-.758.814C532.208-221.371,532.225-217.552,532.225-213.607Zm16.492-13.021.478-.078a3.913,3.913,0,0,0,.141-.735c.009-6.349-.006-12.7.019-19.046.006-1.358-.727-1.627-1.885-1.619-4.433.029-8.867.052-13.3-.01-1.537-.021-1.985.633-1.972,2.074.048,5.637.016,11.274.027,16.911a9.071,9.071,0,0,0,.156,1.192l.52.084a7.892,7.892,0,0,0,.477-1.793c.059-2.133.015-4.268.026-6.4.012-2.284,1.172-3.641,3.082-3.631,1.884.009,3.136,1.443,3.146,3.637.011,2.518-.006,5.035,0,7.552,0,.863-.164,1.9,1.157,1.927,1.437.027,1.248-1.084,1.252-2,.011-2.846-.017-5.692.012-8.538.023-2.258,1.24-3.648,3.121-3.655,1.919-.007,3.089,1.345,3.1,3.621.012,2.9-.021,5.8.023,8.7A8.581,8.581,0,0,0,548.717-226.628Zm-7.765,14.93h-6.41c-2.848,0-5.7-.073-8.541.067-.592.03-1.144.858-1.714,1.318.577.458,1.139.938,1.741,1.36.148.1.428.018.647.018q14.135,0,28.27,0c.437,0,.986.121,1.285-.093a2.423,2.423,0,0,0,1.074-1.392c.035-.37-.622-.936-1.091-1.182a3.387,3.387,0,0,0-1.456-.092Q547.854-211.7,540.952-211.7Zm-1.091-41.589a8.2,8.2,0,0,1,.088-1.312c.227-.9-.677-2.514.85-2.559,1.61-.047.695,1.593.929,2.475a9.2,9.2,0,0,1,.154,1.262c1.536-.966,2.093-2.012,1.59-3.317-.758-1.969-1.672-3.877-2.654-6.116-.981,2.2-1.924,4.055-2.63,5.994C537.663-255.424,538.163-254.182,539.86-253.287Z" transform="translate(-522.443 265.389)" fill="#1d272b"/>
    </g>
  </g>
</svg>
