<svg id="icon11" xmlns="http://www.w3.org/2000/svg" xmlns:xlink="http://www.w3.org/1999/xlink" width="114.636" height="114.636" viewBox="0 0 114.636 114.636">
  <defs>
    <radialGradient id="radial-gradient" cx="0.076" cy="0.019" r="1.465" gradientTransform="translate(0.001)" gradientUnits="objectBoundingBox">
      <stop offset="0" stop-color="#f6f6f7"/>
      <stop offset="0.477" stop-color="#f9f9fa"/>
      <stop offset="0.715" stop-color="#fff"/>
    </radialGradient>
  </defs>
  <g id="Grupo_18423" data-name="Grupo 18423" transform="translate(0 0)">
    <g id="Grupo_18421" data-name="Grupo 18421">
      <g id="Grupo_18420" data-name="Grupo 18420">
        <g id="Grupo_18419" data-name="Grupo 18419">
          <path id="Trazado_40936" data-name="Trazado 40936" d="M309.259,2203.037a57.318,57.318,0,1,1-57.317-57.316A57.317,57.317,0,0,1,309.259,2203.037Z" transform="translate(-194.623 -2145.721)" fill="#fff"/>
        </g>
      </g>
    </g>
    <path id="Trazado_40937" data-name="Trazado 40937" d="M308.648,2202.372a57.316,57.316,0,1,0-57.317,57.319A57.091,57.091,0,0,0,308.648,2202.372Z" transform="translate(-194.013 -2145.056)" fill="url(#radial-gradient)"/>
    <path id="Trazado_40938" data-name="Trazado 40938" d="M289.672,2196.986a43.75,43.75,0,1,0-43.75,43.75A43.587,43.587,0,0,0,289.672,2196.986Z" transform="translate(-188.43 -2139.479)" fill="none" stroke="#1d272b" stroke-miterlimit="10" stroke-width="4"/>
    <g id="Grupo_18422" data-name="Grupo 18422" transform="translate(10.154 32.18)">
      <path id="Trazado_40939" data-name="Trazado 40939" d="M299.231,2164.488a57.325,57.325,0,0,1-98.686,57.081,57.143,57.143,0,0,0,98.686-57.081Z" transform="translate(-200.545 -2164.488)" fill="#eceef0"/>
    </g>
  </g>
  <g id="ZonebP" transform="translate(-2880.979 -188.733)">
    <g id="Grupo_128286" data-name="Grupo 128286" transform="translate(2911.682 226.868)">
      <path id="Trazado_165271" data-name="Trazado 165271" d="M3110,250.159h25.567v28.352H3110Zm12.773,8.464h10.055c.152,0,.3,0,.456,0a.806.806,0,0,0,.753-.827.79.79,0,0,0-.766-.788c-.866-.011-1.733-.023-2.6-.023-.722,0-1.443.021-2.165.021q-6.035,0-12.07,0c-1.361,0-2.722,0-4.083.006a.973.973,0,0,0-.468.128.809.809,0,0,0,.442,1.482q1.758,0,3.517,0Zm8.224,13.072v-.017c.731,0,1.462.011,2.193-.008a1.051,1.051,0,0,0,.538-.175.766.766,0,0,0,.261-.893.753.753,0,0,0-.746-.52c-1.208,0-2.415,0-3.622,0q-6-.01-12-.02c-.83,0-1.66.016-2.49.02-.948,0-1.9,0-2.844.006a.716.716,0,0,0-.683.452.787.787,0,0,0,.1.837.94.94,0,0,0,.859.306q7.784,0,15.568.014Zm-8.229-10.338v-.005q-5.049,0-10.1,0a2.041,2.041,0,0,0-.621.054.791.791,0,0,0-.495.947.775.775,0,0,0,.785.615q2.812,0,5.625,0,7.58,0,15.16,0a1.245,1.245,0,0,0,.343-.032.794.794,0,0,0,.558-.892.771.771,0,0,0-.787-.689Zm.038,13.073v-.005h-7.015q-1.727,0-3.453.007a.764.764,0,0,0-.765.529.8.8,0,0,0,.8,1.071q5.984,0,11.967,0h8.84a.8.8,0,1,0-.04-1.6Zm-.087-7.107q2.953,0,5.907,0c1.512,0,3.023.012,4.535.013a.822.822,0,0,0,.676-.285.792.792,0,0,0,.116-.893.823.823,0,0,0-.83-.44q-2.725,0-5.451.005h-15.224a1.9,1.9,0,0,0-.238.013.774.774,0,0,0-.676.858.789.789,0,0,0,.868.726Zm.033-14.673h-7.405c-1.006,0-2.012,0-3.019,0a.765.765,0,0,0-.747.525.809.809,0,0,0,.226.889.944.944,0,0,0,.673.184q3.971,0,7.943,0h12.4c.152,0,.3,0,.456-.005a.736.736,0,0,0,.706-.514.805.805,0,0,0-.212-.871,1.016,1.016,0,0,0-.77-.21Q3127.875,252.653,3122.75,252.65Z" transform="translate(-3101.383 -249.147)" fill="#1d272b"/>
      <path id="Trazado_165272" data-name="Trazado 165272" d="M2981.755,1118.568v-1.753q0-.988,0-1.976a1.281,1.281,0,0,1,1.356-1.362c2.2,0,4.4,0,6.6,0q4.908,0,9.815-.006,4.821,0,9.641,0,3.92,0,7.839,0a1.384,1.384,0,0,1,1.036.355,1.192,1.192,0,0,1,.387.868c0,1.26,0,2.519,0,3.779a.645.645,0,0,1-.015.093Z" transform="translate(-2978.711 -1074.958)" fill="#1d272b"/>
      <path id="Trazado_165273" data-name="Trazado 165273" d="M3775.367,278V249.656a4.509,4.509,0,0,1,4.438,1.642,4.008,4.008,0,0,1,.834,2.462q.007,3.4,0,6.793v6.819q0,3.235,0,6.47a4.161,4.161,0,0,1-4.069,4.155C3776.174,278.005,3775.777,278,3775.367,278Z" transform="translate(-3737.848 -248.623)" fill="#1d272b"/>
      <path id="Trazado_165274" data-name="Trazado 165274" d="M2916.926,278.311a5.092,5.092,0,0,1-3.366-.66,4.065,4.065,0,0,1-1.869-3.483c-.009-4.778,0-9.555,0-14.333,0-1.9-.024-3.808,0-5.712a4.055,4.055,0,0,1,2.411-3.79,3.8,3.8,0,0,1,1.743-.379c.354,0,.708,0,1.078,0Z" transform="translate(-2911.682 -248.951)" fill="#1d272b"/>
      <path id="Trazado_165275" data-name="Trazado 165275" d="M3915.485,440.07V426.956a24.982,24.982,0,0,1,2.935.152,3.722,3.722,0,0,1,2.943,3.273c.039.4.037.809.038,1.213q.006,2.3,0,4.6a3.832,3.832,0,0,1-3.08,3.809,2.185,2.185,0,0,1-.429.061C3917.1,440.073,3916.3,440.07,3915.485,440.07Z" transform="translate(-3871.879 -418.264)" fill="#1d272b"/>
      <path id="Trazado_165276" data-name="Trazado 165276" d="M4082.458,523.027h-12.216v-5.813h12.216Z" transform="translate(-4019.913 -504.601)" fill="#1d272b"/>
      <path id="Trazado_165277" data-name="Trazado 165277" d="M3717.469,242.16V228.891c0-.34,0-.68,0-1.02a.853.853,0,1,1,1.7.015q0,5.961,0,11.922,0,8.3.006,16.591a.884.884,0,0,1-.381.8.8.8,0,0,1-.864.046.828.828,0,0,1-.462-.778q0-1.205,0-2.41Z" transform="translate(-3682.463 -226.97)" fill="#1d272b"/>
      <path id="Trazado_165278" data-name="Trazado 165278" d="M3051.765,242.06q0-7.133,0-14.265a.862.862,0,0,1,.517-.853.808.808,0,0,1,.9.165.909.909,0,0,1,.271.686q0,1.042,0,2.084,0,6.351,0,12.7,0,4.538,0,9.076c0,1.527,0,3.054-.005,4.581a1.4,1.4,0,0,1-.126.583.792.792,0,0,1-.9.408.872.872,0,0,1-.659-.772c0-.065,0-.13,0-.2q0-6.123,0-12.246Q3051.765,243.037,3051.765,242.06Z" transform="translate(-3045.678 -226.868)" fill="#1d272b"/>
      <path id="Trazado_165279" data-name="Trazado 165279" d="M3146.054,922.075h3.753v7.487h-3.753Z" transform="translate(-3135.873 -891.874)" fill="#1d272b"/>
      <path id="Trazado_165280" data-name="Trazado 165280" d="M3579.9,922.211V929.7h-3.752v-7.491Z" transform="translate(-3547.283 -892.004)" fill="#1d272b"/>
    </g>
  </g>
</svg>
