<svg id="icon1" xmlns="http://www.w3.org/2000/svg" xmlns:xlink="http://www.w3.org/1999/xlink" width="79.155" height="79.154" viewBox="0 0 79.155 79.154">
  <defs>
    <linearGradient id="linear-gradient" x1="0.5" x2="0.5" y2="1" gradientUnits="objectBoundingBox">
      <stop offset="0" stop-color="#fff"/>
      <stop offset="1" stop-color="#f8f8f8"/>
    </linearGradient>
  </defs>
  <g id="Group_18531" data-name="Group 18531">
    <g id="Group_18423" data-name="Group 18423">
      <g id="Group_18421" data-name="Group 18421">
        <g id="Group_18420" data-name="Group 18420">
          <g id="Group_18419" data-name="Group 18419">
            <path id="Path_40936" data-name="Path 40936" d="M201.954,554.407a39.577,39.577,0,1,1-39.578-39.575h0A39.576,39.576,0,0,1,201.954,554.407Z" transform="translate(-122.8 -514.832)" fill="#fff"/>
          </g>
        </g>
      </g>
      <path id="Path_40937" data-name="Path 40937" d="M201.953,554.407a39.42,39.42,0,1,0,0,.312Z" transform="translate(-122.799 -514.832)" fill="url(#linear-gradient)"/>
      <path id="Path_40938" data-name="Path 40938" d="M190.028,551.858a30.209,30.209,0,1,0-30.209,30.209h0a30.1,30.1,0,0,0,30.209-29.984Z" transform="translate(-120.122 -512.151)" fill="none" stroke="#008f85" stroke-miterlimit="10" stroke-width="3"/>
      <g id="Group_18422" data-name="Group 18422" transform="translate(7.012 22.22)">
        <path id="Path_40939" data-name="Path 40939" d="M195.973,530.78a39.581,39.581,0,0,1-68.14,39.411,39.456,39.456,0,0,0,68.14-39.411Z" transform="translate(-127.833 -530.78)" fill="#e7e9eb"/>
      </g>
    </g>
  </g>
  <g id="oZP0wF.tif" transform="translate(-2757.642 160.489)">
    <g id="Grupo_127450" data-name="Grupo 127450" transform="translate(2782.021 -141.145)">
      <path id="Trazado_163305" data-name="Trazado 163305" d="M2810.467-103.535h-21.88a4.14,4.14,0,0,1-.739-.023.7.7,0,0,1-.634-.867,1.768,1.768,0,0,1,.647-.8c.124-.1.39-.032.592-.032,7.541,0,15.081.022,22.622-.021,1.423-.008,1.49.9,1.216,1.81a3.806,3.806,0,0,1-3.967,2.791c-6.71-.039-13.42-.006-20.131-.028a5.971,5.971,0,0,1-4.461-1.8,5.851,5.851,0,0,1-1.64-3.642c-.042-.469-.055-.942-.055-1.413,0-8.89.017-17.78-.016-26.67a6.7,6.7,0,0,1,2.4-5.425,6.493,6.493,0,0,1,4.341-1.471q9.9-.021,19.794,0a3.684,3.684,0,0,1,3.847,3.888c0,7.072-.016,14.143.012,21.215a3.806,3.806,0,0,1-3.895,3.911c-6.687-.027-13.375-.009-20.063-.009a4.428,4.428,0,0,0-3.557,1.4,3.893,3.893,0,0,0-.96,1.7,6.911,6.911,0,0,0,.3,4.348,4,4,0,0,0,3.689,2.223c1.814.081,3.635.029,5.452.03,5.05,0,10.1-.006,15.148.007A2.084,2.084,0,0,0,2810.467-103.535Zm-21.018-23.021q0,5.923,0,11.847c0,.879,0,.881.9.881,5.966,0,11.933-.038,17.9.027a2.389,2.389,0,0,0,2.49-2.478c-.058-6.888-.026-13.776-.027-20.664,0-1.728-.744-2.472-2.49-2.473q-8.916-.005-17.831,0c-.921,0-.939.018-.939.947Q2789.447-132.513,2789.449-126.556Zm-5.582,7.065c.16-.093.265-.161.376-.219a30.635,30.635,0,0,1,2.886-1.477c.478-.19.613-.374.611-.838-.012-3.519,0-7.037-.009-10.556,0-.772-.16-.886-.873-.68a4.645,4.645,0,0,0-3.013,3.671c-.079,3.2-.071,6.407-.091,9.611A2.374,2.374,0,0,0,2783.867-119.492Zm.024,7.139a1.091,1.091,0,0,0,.361-.118,6.249,6.249,0,0,1,2.9-1.266.612.612,0,0,0,.59-.721c-.015-1.3,0-2.6,0-3.9,0-1.395-.068-1.352-1.295-.752A5.575,5.575,0,0,0,2783.891-112.352Zm-.006-21.157c.062-.006.145.011.185-.023a8.526,8.526,0,0,1,3.22-1.665.841.841,0,0,0,.421-.642c.046-.962.018-1.928.018-2.892,0-.507-.262-.667-.689-.445a10.656,10.656,0,0,0-1.647.982A4.617,4.617,0,0,0,2783.885-133.509Z" transform="translate(-2782.021 141.145)" fill="#1d272b"/>
      <path id="Trazado_163306" data-name="Trazado 163306" d="M2832.719,105.2q-5.718,0-11.436.005a.99.99,0,0,1-1.022-.47.847.847,0,0,1,.705-1.263c.134-.01.269,0,.4,0h22.738c.157,0,.315-.008.471.006.5.045.863.354.767.815-.07.336-.439.637-.733.886-.119.1-.39.026-.591.026Z" transform="translate(-2815.002 -70.429)" fill="#1d272b"/>
      <path id="Trazado_163307" data-name="Trazado 163307" d="M2833.2,84c-3.79,0-7.581.006-11.371-.012a1.35,1.35,0,0,1-.9-.279,1.049,1.049,0,0,1-.182-.891c.07-.221.428-.372.684-.5a1.114,1.114,0,0,1,.465-.016h22.676c.157,0,.314,0,.471.005a.775.775,0,0,1,.815.8.825.825,0,0,1-.751.876,3.29,3.29,0,0,1-.671.019Z" transform="translate(-2815.49 -52.099)" fill="#1d272b"/>
      <path id="Trazado_163308" data-name="Trazado 163308" d="M2871.734-85.542c-.96,0-1.763-.02-2.562.02a.569.569,0,0,0-.356.421c-.022,2.356-.012,4.712-.017,7.069,0,.407.238.5.57.462a.88.88,0,0,1,1.074.836c.071.486-.46.894-1.11.9-.92.009-1.84.011-2.759,0-.637-.008-1.066-.365-1.031-.882a.8.8,0,0,1,.972-.846c.5.053.6-.208.6-.641-.01-2.244-.014-4.488,0-6.732,0-.464-.143-.641-.617-.621-.735.031-1.472.008-2.355.008.29.871.573,1.627.79,2.4.165.591.565,1.109.219,1.837a2.4,2.4,0,0,1-2.893,1.414,2.352,2.352,0,0,1-1.4-2.951c.413-1.243.872-2.471,1.253-3.724a.822.822,0,0,1,.932-.649c1.234.005,2.467,0,3.7-.006a2.187,2.187,0,0,0,.357-.079,19.8,19.8,0,0,1,.029-2.324,1.483,1.483,0,0,1,.631-.906c.152-.1.587.085.8.256a.982.982,0,0,1,.215.662c.029.6.033,1.212,0,1.817-.021.441.144.595.58.588,1.189-.019,2.378.009,3.567-.011.572-.01.817.249.977.786.379,1.278.81,2.543,1.259,3.8a2.161,2.161,0,0,1-1.725,2.815,2.263,2.263,0,0,1-2.458-3.214A18.933,18.933,0,0,0,2871.734-85.542Zm1.319,2.131-.188.021a7.762,7.762,0,0,0-.32,1.314c-.011.139.325.307.5.461.16-.2.477-.419.451-.588A5.945,5.945,0,0,0,2873.053-83.41Zm-10.009-.035-.2-.021a6.3,6.3,0,0,0-.358,1.258c-.016.186.285.4.442.6.162-.2.471-.4.458-.585A6.23,6.23,0,0,0,2863.044-83.446Z" transform="translate(-2850.11 97.396)" fill="#1d272b"/>
    </g>
  </g>
</svg>
