<svg id="icon15" xmlns="http://www.w3.org/2000/svg" xmlns:xlink="http://www.w3.org/1999/xlink" width="79.155" height="79.153" viewBox="0 0 79.155 79.153">
  <defs>
    <linearGradient id="linear-gradient" x1="0.5" x2="0.5" y2="1" gradientUnits="objectBoundingBox">
      <stop offset="0" stop-color="#fff"/>
      <stop offset="1" stop-color="#f8f8f8"/>
    </linearGradient>
  </defs>
  <g id="Group_18531" data-name="Group 18531">
    <g id="Group_18423" data-name="Group 18423">
      <g id="Group_18421" data-name="Group 18421">
        <g id="Group_18420" data-name="Group 18420">
          <g id="Group_18419" data-name="Group 18419">
            <path id="Path_40936" data-name="Path 40936" d="M201.954,554.407a39.577,39.577,0,1,1-39.578-39.575h0A39.576,39.576,0,0,1,201.954,554.407Z" transform="translate(-122.8 -514.832)" fill="#fff"/>
          </g>
        </g>
      </g>
      <path id="Path_40937" data-name="Path 40937" d="M201.953,554.407a39.42,39.42,0,1,0,0,.312Z" transform="translate(-122.799 -514.832)" fill="url(#linear-gradient)"/>
      <path id="Path_40938" data-name="Path 40938" d="M190.028,551.858a30.209,30.209,0,1,0-30.209,30.209h0a30.1,30.1,0,0,0,30.209-29.984Z" transform="translate(-120.122 -512.151)" fill="none" stroke="#008f85" stroke-miterlimit="10" stroke-width="2"/>
      <g id="Group_18422" data-name="Group 18422" transform="translate(7.012 22.22)">
        <path id="Path_40939" data-name="Path 40939" d="M195.973,530.78a39.581,39.581,0,0,1-68.14,39.411,39.456,39.456,0,0,0,68.14-39.411Z" transform="translate(-127.833 -530.78)" fill="#e7e9eb"/>
      </g>
    </g>
  </g>
  <g id="niXK4R" transform="translate(-122.615 136.509)">
    <g id="Grupo_127420" data-name="Grupo 127420" transform="translate(142.49 -115.522)">
      <path id="Trazado_163213" data-name="Trazado 163213" d="M145.656-107.934h1.2c0,.581.017,1.135-.005,1.687-.02.494.115.765.678.816a1.571,1.571,0,0,1,1.4,1.4c.219,1.035.418,2.075.661,3.287.426-1.187,1.286-1.994,1.223-3.2a2.55,2.55,0,0,1,.283-1.269,33.43,33.43,0,0,0,1.461-4.381c-1.989.622-4.032.2-6.045.35a4.407,4.407,0,0,0-1.306.4,1.88,1.88,0,0,1-2.7-1.911c.027-.289,0-.583,0-.875a1.776,1.776,0,0,1,1.578-1.978.766.766,0,0,0,.448-.347,1.533,1.533,0,0,1,1.449-.906c1.521-.008,3.046-.07,4.561.023a5.933,5.933,0,0,1,1.914.643,4.7,4.7,0,0,1,1.146.752c1.381,1.193,3.114,1.521,4.783,2.019.569.17,1.116.411,1.828.677.127-.22.33-.537.493-.874a.371.371,0,0,0-.08-.342c-.848-.706-.5-1.66-.5-2.519a1.153,1.153,0,0,1,1.229-1.016c.812-.019,1.626-.018,2.438.012a1.192,1.192,0,0,1,1.269,1.309c-.005.792.178,1.617-.545,2.28a.547.547,0,0,0,.225.88,1.113,1.113,0,0,1,.3.249,11.37,11.37,0,0,1,1.54-.6,16.105,16.105,0,0,0,6.18-2.843,3.835,3.835,0,0,1,1.969-.634c1.432-.094,2.874-.025,4.312-.031a1.652,1.652,0,0,1,1.621.951.826.826,0,0,0,.516.329,1.706,1.706,0,0,1,1.465,1.628,12.649,12.649,0,0,1-.023,1.749,1.587,1.587,0,0,1-2.063,1.5c-1.8-.72-3.648-.471-5.486-.546-.818-.034-1.632-.151-2.525-.238a2.457,2.457,0,0,1,.367.792c.113,1.715,1.384,3.1,1.425,4.79.028,1.2.835,1.986,1.259,3.013q.3-1.486.608-2.972a1.731,1.731,0,0,1,1.583-1.585.833.833,0,0,0,.478-.575,6.545,6.545,0,0,0,.02-1.434c-.035-.537.315-.465.651-.483.372-.021.6.056.575.5-.027.52,0,1.042-.018,1.563a1.573,1.573,0,0,1-1.422,1.633c-.474.068-.619.285-.7.7-.316,1.656-.661,3.306-.984,4.961a1.327,1.327,0,0,0,.022.482c.177.958.344,1.919.553,2.87.129.586.363,1.15.485,1.737a34.553,34.553,0,0,0,.877,4.322c.868,2.5.6,5.042.482,7.548a9.513,9.513,0,0,1-2.034,5.3,1.9,1.9,0,0,1-3.192.242,13.991,13.991,0,0,1-1.647-2.259,14.294,14.294,0,0,1-.852-1.667c-.329-.695-.636-1.4-.977-2.155l.967-.714c.187.374.347.7.514,1.028.675,1.313,1.334,2.635,2.038,3.932a4.2,4.2,0,0,0,.824,1.013c.525.495.857.468,1.308-.09a10.12,10.12,0,0,0,1.55-3.363c-.493.371-.859.7-1.271.946a1.53,1.53,0,0,1-2.011-.158,7.221,7.221,0,0,1-1.95-3.08.709.709,0,0,1,.193-.639.917.917,0,0,1,.685-.047,6.372,6.372,0,0,1,.656.346,1.662,1.662,0,0,0,1.719-.17,8.647,8.647,0,0,0,2.286-2.931.484.484,0,0,0-.02-.339,5.871,5.871,0,0,1-3.358,2.093,4.3,4.3,0,0,1-3.878-.577l.828-.816.782.288v-1.2a7.742,7.742,0,0,1-3.655-1.191,16.368,16.368,0,0,1-1.675-1.392.609.609,0,0,1-.1-.937c.273-.308.564-.219.893-.031a3.42,3.42,0,0,0,2.653.509v-.655c-1.028-.254-2.062-.475-3.073-.772a10.428,10.428,0,0,1-1.847-.75c-.478-.248-.813-.238-1.111.313.623.841,1.264,1.709,1.908,2.574.386.518.763,1.043,1.174,1.541a1.578,1.578,0,0,1,.443,1.308c-.109.666.612.645.887,1.093l-.639.922a8.141,8.141,0,0,1-1.106-.729,1.033,1.033,0,0,1-.34-.734,2.157,2.157,0,0,0-.6-1.638c-.418-.516-.8-1.056-1.305-1.72.031.261.008.386.06.458a4.739,4.739,0,0,1,.456,3.744,4.955,4.955,0,0,0,.041,1.854,11.916,11.916,0,0,1,.027,2.556,1.737,1.737,0,0,1-1.295,1.194c-.77.027-1.542.036-2.312.014a1.678,1.678,0,0,1-1.355-1.409,11.859,11.859,0,0,1,.024-2.184,3.7,3.7,0,0,0,.027-2.176,4.8,4.8,0,0,1-.029-2.228c.073-.553.366-1.077.478-1.68-.389.509-.76,1.033-1.171,1.523a2.3,2.3,0,0,0-.642,1.749c.019.228-.207.507-.382.711a2.316,2.316,0,0,1-.569.378,8.375,8.375,0,0,0-3.708,4.223,15.1,15.1,0,0,1-1.991,3.518c-1.416,1.926-3.03,1.8-4.2-.291a11.174,11.174,0,0,1-1.654-5.938c.037-.936.03-1.876,0-2.813a7.781,7.781,0,0,1,.511-3.178,10.581,10.581,0,0,0,.241-1.468c.345-1.474.742-2.936,1.071-4.414.18-.809.179-1.665.413-2.455a4.361,4.361,0,0,0,.075-2.307c-.313-1.359-.573-2.729-.836-4.1a.621.621,0,0,0-.6-.58,1.623,1.623,0,0,1-1.5-1.824C145.651-106.682,145.656-107.281,145.656-107.934Zm2.357,27.676-.157.072c.339.794.633,1.612,1.027,2.377.814,1.581,1.5,1.64,2.457.125a30.736,30.736,0,0,0,2.079-3.9,6.756,6.756,0,0,1,2.123-2.718,11.831,11.831,0,0,1,1.261-.918,1.231,1.231,0,0,0,.8-1.362,1,1,0,0,1,.247-.612c.472-.66.969-1.3,1.454-1.952.607-.814,1.212-1.629,1.8-2.418-.286-.544-.606-.58-1.1-.331a10.624,10.624,0,0,1-1.857.7c-1.023.3-2.063.533-3.13.8l.041.72a3.744,3.744,0,0,0,2.67-.552.63.63,0,0,1,.929.136c.285.356.058.627-.178.869-.275.281-.572.542-.872.8a7.81,7.81,0,0,1-4.421,1.75v1.194l.831-.295.787.831a3.536,3.536,0,0,1-2.341.768,6.19,6.19,0,0,1-4.92-2.308.644.644,0,0,0,.024.431c.7.925,1.358,1.885,2.134,2.74a1.611,1.611,0,0,0,2.076.183c.166-.086.315-.243.487-.269a.9.9,0,0,1,.634.088.668.668,0,0,1,.188.591,6.977,6.977,0,0,1-2.078,3.205,1.5,1.5,0,0,1-1.859.1C148.757-79.667,148.392-79.975,148.012-80.258Zm13.293-17.236c0,1.29,0,2.58,0,3.869a1.466,1.466,0,0,0,1.289,1.338,1.51,1.51,0,0,0,1.256-1.37c0-2.455.005-4.909,0-7.364,0-.943-.187-1.448-1.319-1.357-.988.079-1.217.245-1.221,1.265C161.3-99.907,161.307-98.7,161.306-97.493Zm3.2-10.81a2.149,2.149,0,0,1-1.934.826,2.383,2.383,0,0,1-1.924-.825c-.328.273-.593.529-.893.734a.7.7,0,0,0,.061,1.257,1.282,1.282,0,0,1,.868,1.458c-.009.228,0,.457,0,.686-.007.418.2.6.614.6.728-.009,1.456.02,2.183-.008.7-.027,1.05-.367.986-1.033a1.441,1.441,0,0,1,.982-1.75c.379-.136.407-.907.092-1.149Zm8.86,8.862-.238-.161a10.693,10.693,0,0,1-4.2,2.077,2.938,2.938,0,0,1-1.376-.032c-.814-.2-1.6-.507-2.408-.771a.845.845,0,0,0,.336,1.094c.428.293.83.632,1.279.888,2.3,1.31,2.841,1.162,4.857-.28a3.172,3.172,0,0,0,.9-.941A19.869,19.869,0,0,0,173.367-99.441Zm-21.412-.207a2.917,2.917,0,0,0-.019.36,2.357,2.357,0,0,0,.066.366,5.009,5.009,0,0,0,3.248,3.281,2.242,2.242,0,0,0,1.256.1,7.375,7.375,0,0,0,3.336-1.859c.2-.173.207-.553.357-.995-1.069.355-1.926.661-2.8.915a1.818,1.818,0,0,1-.9.025A11.438,11.438,0,0,1,151.956-99.649Zm14.535-9.029c.72-.278,1.343-.566,1.994-.761a11.771,11.771,0,0,0,4.767-2.722c.076-.071.167-.126.24-.2a2.366,2.366,0,0,1,1.825-.639c1.227.025,2.456.02,3.683-.007.173,0,.342-.2.512-.314a3.427,3.427,0,0,0-.485-.351.908.908,0,0,0-.37-.012c-1.165,0-2.331.019-3.5-.009a3.031,3.031,0,0,0-1.981.609,12.626,12.626,0,0,1-5.441,2.629,9.117,9.117,0,0,0-1.195.35,4.473,4.473,0,0,0-.429.184Zm-7.432-1.192c-.056-.049-.095-.107-.147-.126-.234-.084-.47-.165-.71-.232-1.88-.526-3.808-.929-5.358-2.251a5.242,5.242,0,0,0-1.091-.724,3.573,3.573,0,0,0-1.329-.453c-1.415-.059-2.833-.037-4.249-.008-.182,0-.359.234-.538.359.177.1.351.29.532.3.728.035,1.458.007,2.187.017,3.055.04,2.123-.385,4.527,1.635,1.686,1.415,3.792,1.714,5.688,2.649Zm.286,8.58a27.077,27.077,0,0,1-6.209-2.922,3.437,3.437,0,0,0,.376,1.887,6.673,6.673,0,0,0,3.3,1.8.53.53,0,0,0,.306-.012C157.86-100.785,158.6-101.039,159.345-101.29Zm6.455,0c.765.252,1.527.514,2.3.748a.737.737,0,0,0,.479-.048,24.412,24.412,0,0,0,2.464-1.194c1.032-.624,1.2-1.244.833-2.488A21.649,21.649,0,0,1,165.8-101.289Zm-.171-3.4.213.208c.831-.406,1.689-.766,2.483-1.235a5.663,5.663,0,0,0,1.621-1.3c.209-.269.088-.9-.054-1.305-.157-.451-.588-.153-.864-.067-.548.171-1.06.456-1.608.628-.412.13-.572.319-.488.757a1.352,1.352,0,0,1-.926,1.764C165.839-105.18,165.754-104.876,165.629-104.686Zm-6.251.183c.221-.53-.056-.705-.413-.858-.382-.164-.85-.329-.745-.856.235-1.186-.375-1.678-1.415-1.888a4.623,4.623,0,0,1-.643-.233c-.826-.3-1.164-.093-1.1.793a1.616,1.616,0,0,0,.523.988A12.656,12.656,0,0,0,159.379-104.5Zm-8.628,9.47-.193.147c.159.385.215.89.5,1.131a20.6,20.6,0,0,0,2.5,1.8,2.2,2.2,0,0,0,1.245.315,12.641,12.641,0,0,0,4.962-1.493c.166-.087.258-.316.385-.479l-.1-.223C156.583-91.55,153.521-92.22,150.751-95.033Zm14.254,1.419c.162.182.286.452.482.523a33.971,33.971,0,0,0,3.834,1.278c2.05.474,3.56-.609,4.852-2.033a3.208,3.208,0,0,0,.4-1.076L174.408-95a1.6,1.6,0,0,0-.18.141,9.151,9.151,0,0,1-4.24,2.4,2.036,2.036,0,0,1-1.039.039C167.658-92.772,166.382-93.189,165.005-93.614Zm-.316-9.088.082.231a4.728,4.728,0,0,0,.513-.088,20.56,20.56,0,0,0,5.422-2.326c1.661-1.048,1.448-2.58.887-3.982-.051-.127-.272-.187-.415-.278a1.4,1.4,0,0,0-.046.462,2.574,2.574,0,0,1-.726,2.991,8.681,8.681,0,0,1-1.351.982c-1.151.573-2.341,1.068-3.514,1.6C165.256-102.982,164.974-102.839,164.69-102.7Zm-10.535-6.321-.114-.15c-.147.121-.357.212-.431.368-.638,1.342-.8,2.728.649,3.763a18.348,18.348,0,0,0,5.672,2.494.535.535,0,0,0,.2-.028,2.178,2.178,0,0,0-.89-.662,15.941,15.941,0,0,1-4.237-2.207,2.5,2.5,0,0,1-1.159-2.512A10.907,10.907,0,0,1,154.155-109.023Zm-2.367-1.615a2.936,2.936,0,0,0-2.464-1.171c-.937.089-1.889.019-2.842.019.132,1.309.132,1.31,1.276,1.311,1.018,0,2.036.008,3.054-.008A7.865,7.865,0,0,0,151.788-110.638Zm21.608,0a7.815,7.815,0,0,0,.993.154q1.495.026,2.99,0c1.227-.02.968.233,1.307-1.047a.935.935,0,0,0-.041-.261c-.986,0-1.982.066-2.965-.018A2.76,2.76,0,0,0,173.4-110.639Zm-25.148,21.05a3.492,3.492,0,0,0,3.634,4.059c.166-1.156.164-1.151-.875-1.554A4.485,4.485,0,0,1,148.248-89.589Zm28.665.028a4.645,4.645,0,0,1-2.9,2.524c-.876.315-1.016.648-.664,1.559C175.875-85.7,177.369-87.615,176.913-89.562Zm-1.137-1.24a9.772,9.772,0,0,1-5.641,2.372,4.439,4.439,0,0,0,4.649-.325A2.152,2.152,0,0,0,175.776-90.8Zm-20.794,2.454a24.868,24.868,0,0,1-2.989-.85,23.044,23.044,0,0,1-2.6-1.482,2.016,2.016,0,0,0,1.168,2.044A4.552,4.552,0,0,0,154.982-88.348Zm6.4,1.706c-.3,1.792-.225,1.887,1.465,1.883a1.416,1.416,0,0,0,.555-.024c.176-.082.407-.262.426-.422a11.954,11.954,0,0,0,.02-1.436Zm-7.471-3.452c-.147-.233-.244-.606-.447-.677a7.146,7.146,0,0,1-3.978-3.165C149.142-92.127,151.506-90.161,153.909-90.094Zm17.5.136c2.519-.429,4.592-2.145,4.285-3.857a16.649,16.649,0,0,1-1.758,1.858,9.91,9.91,0,0,1-2.126,1.162C171.412-90.614,171.232-90.426,171.406-89.958Zm-8.18,2.032c0-.838,0-1.6,0-2.359,0-.438-.131-.789-.653-.786s-.641.361-.64.8c0,.774,0,1.548,0,2.345ZM177.7-83.6l-.132-.021A11.055,11.055,0,0,1,176-82.214a10.592,10.592,0,0,1-1.959.739c.08.12.2.33.35.521.563.727.883.784,1.5.125a19.978,19.978,0,0,0,1.6-1.992A2.282,2.282,0,0,0,177.7-83.6Zm-30.206-.008c.023.214-.032.489.08.632.65.829,1.323,1.642,2.031,2.421a.675.675,0,0,0,.658.07,10.245,10.245,0,0,0,1.022-1.144C149.612-81.7,149.314-81.871,147.494-83.611Zm33.95-27.511a1.781,1.781,0,0,0-.011-.556c-.086-.248-.217-.638-.38-.665-.274-.046-.756.06-.854.253a8.051,8.051,0,0,0-.5,1.644.277.277,0,0,0,.142.232,3.391,3.391,0,0,0,1.292.233c.157-.026.214-.659.313-1.017A.443.443,0,0,0,181.443-111.122Zm-37.727-.065c-.106,1.6.419,1.424,1.456,1.028.019-.007.05-.007.057-.02.076-.141.228-.3.208-.423a3.583,3.583,0,0,0-.332-1.249,1.28,1.28,0,0,0-.847-.53c-.441-.053-.555.335-.542.728C143.721-111.488,143.716-111.322,143.716-111.187ZM170.149-93.84c2.755-.721,4.7-3.092,4.263-5a4.784,4.784,0,0,1-1.552,2.725,19.173,19.173,0,0,1-2.381,1.567C170.163-94.364,169.978-94.211,170.149-93.84Zm-6.344-19.187v-1.239H161.34v1.239ZM150.743-98.7c-.283,2.035,1.772,4.359,4.247,4.853.1-.5.1-.5-.372-.72A6.425,6.425,0,0,1,150.743-98.7ZM163.8-82.267c.124-.535-.06-1.086-.44-1.2a2.763,2.763,0,0,0-1.669.09.834.834,0,0,0-.292,1.108ZM168.9-98.822c2.4-.5,4.441-2.173,4.281-3.354a9.946,9.946,0,0,1-1.444,1.388,18.374,18.374,0,0,1-2.49,1.253C168.913-99.383,168.715-99.24,168.9-98.822Zm-16.923-3.549c-.312,1.445,2.288,3.15,4.273,3.531.239-.48-.094-.6-.443-.732C154.317-100.156,152.838-100.766,151.981-102.372Zm11.807-7.506c-.662-.035-1.332-.079-2-.1-.321-.011-.52.131-.458.493a1.547,1.547,0,0,0,1.429.909A1.24,1.24,0,0,0,163.788-109.878Zm4.987,16.226c.17-.438.025-.562-.316-.7-.994-.4-1.961-.873-2.938-1.317l-.351-.162C165.922-94.31,167.381-94.068,168.776-93.652Zm-8.7-2.072c-1.208.489-2.352.936-3.479,1.424-.156.067-.226.332-.336.506l.173.127C157.791-94.093,159.268-94.314,160.075-95.724Zm1.268,14.737c-.061.625.327.64.74.646,1.681.027,1.681.029,1.715-.646Zm3.829-19.221-.152.105c.1.179.156.462.3.519.72.282,1.464.5,2.2.747l.145-.151c-.11-.167-.185-.425-.337-.484C166.622-99.747,165.893-99.968,165.172-100.208Zm-5.01.181-.174-.184c-.725.243-1.459.465-2.168.748-.147.059-.2.347-.3.53a10.673,10.673,0,0,0,2.208-.615C159.908-99.618,160.019-99.862,160.162-100.027Zm2.973-11.786c-.4.193-.978-.313-1.173.319-.157.509.352.36.624.385C163-111.072,163.375-111.095,163.135-111.813Z" transform="translate(-142.49 115.522)" fill="#1d272b"/>
      <path id="Trazado_163214" data-name="Trazado 163214" d="M351.436,133.409l-.936-.765.711-.961,1.054.847Z" transform="translate(-324.488 -100.77)" fill="#1d272b"/>
    </g>
  </g>
</svg>
