<svg id="icon13" xmlns="http://www.w3.org/2000/svg" xmlns:xlink="http://www.w3.org/1999/xlink" width="114.636" height="114.636" viewBox="0 0 114.636 114.636">
  <defs>
    <radialGradient id="radial-gradient" cx="0.076" cy="0.019" r="1.465" gradientTransform="translate(0.001)" gradientUnits="objectBoundingBox">
      <stop offset="0" stop-color="#f6f6f7"/>
      <stop offset="0.477" stop-color="#f9f9fa"/>
      <stop offset="0.715" stop-color="#fff"/>
    </radialGradient>
  </defs>
  <g id="Grupo_18423" data-name="Grupo 18423" transform="translate(0 0)">
    <g id="Grupo_18421" data-name="Grupo 18421">
      <g id="Grupo_18420" data-name="Grupo 18420">
        <g id="Grupo_18419" data-name="Grupo 18419">
          <path id="Trazado_40936" data-name="Trazado 40936" d="M309.259,2203.037a57.318,57.318,0,1,1-57.317-57.316A57.317,57.317,0,0,1,309.259,2203.037Z" transform="translate(-194.623 -2145.721)" fill="#fff"/>
        </g>
      </g>
    </g>
    <path id="Trazado_40937" data-name="Trazado 40937" d="M308.648,2202.372a57.316,57.316,0,1,0-57.317,57.319A57.091,57.091,0,0,0,308.648,2202.372Z" transform="translate(-194.013 -2145.056)" fill="url(#radial-gradient)"/>
    <path id="Trazado_40938" data-name="Trazado 40938" d="M289.672,2196.986a43.75,43.75,0,1,0-43.75,43.75A43.587,43.587,0,0,0,289.672,2196.986Z" transform="translate(-188.43 -2139.479)" fill="none" stroke="#1d272b" stroke-miterlimit="10" stroke-width="4"/>
    <g id="Grupo_18422" data-name="Grupo 18422" transform="translate(10.154 32.18)">
      <path id="Trazado_40939" data-name="Trazado 40939" d="M299.231,2164.488a57.325,57.325,0,0,1-98.686,57.081,57.143,57.143,0,0,0,98.686-57.081Z" transform="translate(-200.545 -2164.488)" fill="#eceef0"/>
    </g>
  </g>
  <g id="kFYxoh.tif" transform="translate(-3558.434 -475.661)">
    <g id="Grupo_128288" data-name="Grupo 128288" transform="translate(3588.663 504.079)">
      <path id="Trazado_165286" data-name="Trazado 165286" d="M3600.718,541.3c-1.135.352-1.716-.417-2.323-1.169-.514-.637-1.043-1.265-1.6-1.866a2.2,2.2,0,0,1-.821-2.1c-.287-.013-.5-.031-.721-.031-1.823,0-3.646,0-5.469,0-.908,0-1.115-.216-1.118-1.132q-.006-2.274,0-4.548c0-.784.247-1.025,1.032-1.028,1.8-.006,3.605,0,5.408,0h.764c-.281-1.227.62-1.839,1.243-2.592.574-.695,1.192-1.354,1.747-2.063a1.34,1.34,0,0,1,1.216-.551c.648.027,1.3.006,1.976.006v-1.845c-.492,0-.957.011-1.421,0-.7-.021-.985-.287-.989-.969q-.018-2.612,0-5.224c0-.659.279-.909.949-.931.45-.015.9-.018,1.351-.028.018,0,.035-.019.112-.066.008-.177.026-.393.026-.61q0-4.671,0-9.342c0-.9.216-1.115,1.127-1.117q2.489-.005,4.978,0c.879,0,1.115.236,1.116,1.142q.007,4.7,0,9.4v.679c.5,0,.944-.008,1.389,0,.749.016,1.019.26,1.024.988q.02,2.581,0,5.163c-.005.742-.257.965-1.02.976-.389.006-.778.006-1.167.012a.928.928,0,0,0-.17.047v1.723c.81,0,1.6-.008,2.4,0,.832.01,1.045.229,1.049,1.073.006,1.348,0,2.7,0,4.084h1.939c0-.82-.006-1.633,0-2.445.007-.767.269-1.037,1.033-1.05s1.5,0,2.25,0a18.405,18.405,0,0,1,.214-1.951,5.552,5.552,0,0,1,5.549-4.411c4.854-.039,9.71-.052,14.564,0a5.545,5.545,0,0,1,5.662,5.825c.01,4.855-.079,9.713.029,14.566a5.726,5.726,0,0,1-5.9,6.118,1.739,1.739,0,0,0-.275.031v3.07h2.631c.86,0,1.721-.014,2.581.006.669.015.924.28.93.949.011,1.352.007,2.7,0,4.056,0,.907-.209,1.109-1.13,1.109h-52.912c-1.182,0-1.314-.129-1.316-1.294q0-1.813,0-3.626c0-.988.206-1.2,1.179-1.2,2.048,0,4.1.022,6.146-.01,2.414-.038,4.382-1.477,4.691-3.617A30.4,30.4,0,0,0,3600.718,541.3Zm10.436.155c0,.816.032,1.692-.006,2.565a4.978,4.978,0,0,0,5.162,5.126c2.436-.077,4.875-.014,7.313-.017.217,0,.435-.02.657-.031V546.02a5.7,5.7,0,0,1-4.6-1.721,5.949,5.949,0,0,1-1.579-4.654c-.827,0-1.561.006-2.294,0-.814-.008-1.053-.251-1.058-1.07,0-.794,0-1.588,0-2.4h-1.938c0,1.185,0,2.328,0,3.47,0,1.562,0,1.562-1.543,1.716C3611.251,541.359,3611.237,541.381,3611.153,541.453Zm-8.816-.1c0,1.41.071,2.761-.02,4.1a5.96,5.96,0,0,1-1.819,3.618h11.095a7.418,7.418,0,0,1-2.135-6.14c.031-.522,0-1.047,0-1.581Zm2.088-4.313a4.275,4.275,0,1,0-4.28-4.248A4.3,4.3,0,0,0,3604.425,537.044Zm-3.069-16.3h8.67v-3.705h-8.67Zm34.665,25.312h-9.985v3.015h9.985Zm-12.352-19.478h14.7v-1.657h-14.7Zm0,4.639h14.7v-1.665h-14.7Zm14.679,4.709v-1.683h-14.662v1.683Zm.044,3h-14.7V540.6h14.7Zm-42.483-4.5v-3.277h-5.529v3.277Zm22.146,3.517V527.606h-1.576v10.341Zm-14.184-13.774h3.792v-1.7h-3.792Zm9,6.958v3.277h1.841v-3.277Z" transform="translate(-3588.663 -504.079)" fill="#1d272b"/>
    </g>
  </g>
</svg>
