<svg xmlns="http://www.w3.org/2000/svg" xmlns:xlink="http://www.w3.org/1999/xlink" width="222.94" height="222.945" viewBox="0 0 222.94 222.945">
  <defs>
    <radialGradient id="radial-gradient" cx="0.076" cy="0.019" r="1.465" gradientTransform="translate(0)" gradientUnits="objectBoundingBox">
      <stop offset="0" stop-color="#f6f6f7"/>
      <stop offset="0.477" stop-color="#f9f9fa"/>
      <stop offset="0.715" stop-color="#fff"/>
    </radialGradient>
  </defs>
  <g id="icon16" transform="translate(-390.109 -2809.742)">
    <g id="Grupo_91843" data-name="Grupo 91843" transform="translate(-311.64 2047.947)">
      <g id="Grupo_91009" data-name="Grupo 91009" transform="translate(701.749 761.795)">
        <g id="Grupo_42274" data-name="Grupo 42274" transform="translate(0 0)">
          <g id="Grupo_18423" data-name="Grupo 18423" transform="translate(0 0)">
            <g id="Grupo_18421" data-name="Grupo 18421">
              <g id="Grupo_18420" data-name="Grupo 18420">
                <g id="Grupo_18419" data-name="Grupo 18419">
                  <path id="Trazado_40936" data-name="Trazado 40936" d="M417.562,2257.189a111.47,111.47,0,1,1-111.468-111.468A111.468,111.468,0,0,1,417.562,2257.189Z" transform="translate(-194.623 -2145.721)" fill="#fff"/>
                </g>
              </g>
            </g>
            <path id="Trazado_40937" data-name="Trazado 40937" d="M415.569,2255.017A111.467,111.467,0,1,0,304.1,2366.492,111.031,111.031,0,0,0,415.569,2255.017Z" transform="translate(-192.629 -2143.547)" fill="url(#radial-gradient)"/>
            <path id="Trazado_40938" data-name="Trazado 40938" d="M389.579,2246.181a94.349,94.349,0,1,0-94.349,94.35A94.011,94.011,0,0,0,389.579,2246.181Z" transform="translate(-183.54 -2134.468)" fill="none" stroke="#008f85" stroke-miterlimit="10" stroke-width="5"/>
            <g id="Grupo_18422" data-name="Grupo 18422" transform="translate(19.748 62.583)">
              <path id="Trazado_40939" data-name="Trazado 40939" d="M392.465,2164.488A111.483,111.483,0,0,1,200.545,2275.5a111.8,111.8,0,0,0,11.094,14.849,111.485,111.485,0,0,0,180.826-125.859Z" transform="translate(-200.545 -2164.488)" fill="#eceef0"/>
            </g>
          </g>
        </g>
      </g>
    </g>
    <g id="Grupo_127422" data-name="Grupo 127422" transform="translate(-853.198 3261.897)">
      <path id="Trazado_163229" data-name="Trazado 163229" d="M1326.385-345.91c0-4.516.04-8.687-.018-12.858-.027-1.934-1.245-3.015-3.238-3.111a6.32,6.32,0,0,1-5.708-4.289,5.468,5.468,0,0,1,1.733-6.428,7.023,7.023,0,0,1,3.793-1.387c12.98-.1,25.96-.053,38.941-.044a3.737,3.737,0,0,1,.553.1v11.985H1349c-.008,4.79,4.5,11.217,12.262,11.461v2.128c-6.775.459-12.646-4.665-14.717-12.894a5.665,5.665,0,0,0-3.518,4.962c-.18,3.358-.047,6.732-.047,10.292,1.985-.62,2.342.762,2.889,2.095q5.868,14.284,11.816,28.535c.014.035.08.048.121.071a23.631,23.631,0,0,0,.874-12.752c-.92-4.337-3.286-7.9-6.33-11.458h2q22.528,0,45.057-.019a2.871,2.871,0,0,1,2.493,1.173,25.777,25.777,0,0,1,6.228,13.753,29.506,29.506,0,0,1-1.3,12.8c-2.061,6.147-4.341,12.22-6.488,18.339a41.786,41.786,0,0,0-2.73,12.867c1.828-.374,1.828-.374,3.964-5.23.264,3.66,2.12,5.586,5.7,6-3.494.449-5.417,2.261-5.771,5.748-.758-2.064-1.08-4.41-3.861-5.074a18.523,18.523,0,0,0,2.3,9.183c1.576,2.769,3.521,5.329,5.357,8.058h-1.622c-11.687,0-23.374.01-35.062-.026a2.9,2.9,0,0,0-2.458,1.014c-1.07,1.227-2.257,2.353-3.49,3.62l-1.557-1.885,2.7-2.263-.231-.348h-3.7a20.538,20.538,0,0,1-.536,3.233c-.916,2.769-3.1,4.207-6.306,4.218-6.913.023-13.826,0-20.739,0q-7.907,0-15.813,0c-4.388,0-6.954-2.522-6.946-6.944.013-7.409.116-14.817.124-22.225.005-5.121.066-10.249-.17-15.361a49.351,49.351,0,0,1,4.694-22.9c3.312-7.352,6.232-14.88,9.316-22.334C1324-345.312,1324.374-346.652,1326.385-345.91Zm30.953,84.006c-1.657,0-3.339.047-5.015-.028a2.289,2.289,0,0,1-1.529-.605,23.6,23.6,0,0,1-5.543-12.911,33.324,33.324,0,0,1,2.828-16.1q3.514-8.514,7.453-16.848a6.913,6.913,0,0,0,.1-6.051q-5.9-14.19-11.746-28.406c-.36-.879-.9-.876-1.621-.875-5.073.011-10.145.031-15.218-.016a1.592,1.592,0,0,0-1.769,1.139c-3.538,8.605-7.129,17.189-10.691,25.785a32.036,32.036,0,0,0-2.752,12.244q-.038,21.785-.009,43.571a4.1,4.1,0,0,0,4.417,4.471q18.353.01,36.706,0C1356.122-256.534,1357.8-258.544,1357.338-261.9Zm-.285-75.344c.219.4.322.612.452.812a24.251,24.251,0,0,1,3.313,18.668c-1.076,5.394-3.331,10.342-5.489,15.343-2.272,5.266-4.691,10.493-6.559,15.905-2.581,7.477-1.956,14.739,2.776,21.378a2.221,2.221,0,0,0,2.066,1.088c3.829-.063,7.659,0,11.488-.044a2.349,2.349,0,0,0,1.574-.573c3.958-4.39,8.954-7.52,13.5-11.2,1.924-1.557,3.984-2.933,5.108-5.285,2.837-5.938,5.73-11.85,8.6-17.77.441-.908-.013-1.287-.834-1.458a3.551,3.551,0,0,0-3.978,1.65q-2.786,4.045-5.578,8.086a3.471,3.471,0,0,1-4.146,1.48,3.318,3.318,0,0,1-2.159-3.524c.205-3.22.584-6.431.745-9.653a13.328,13.328,0,0,1,2.134-6.244c2.687-4.522,5.293-9.094,7.883-13.672a2.766,2.766,0,0,0,.424-1.913c-.172-.531-.979-1.233-1.455-1.2a2.75,2.75,0,0,0-1.857,1.158c-2.286,3.719-4.46,7.506-6.672,11.27-1.066,1.813-2.136,3.623-3.242,5.5l-1.881-1.177c2.671-4.558,5.276-9.01,7.89-13.457.826-1.4.717-2.469-.349-3.079s-1.942-.254-2.765,1.142c-1.736,2.948-3.458,5.9-5.2,8.85-1.046,1.769-2.116,3.523-3.2,5.319l-1.84-1.175c2.2-3.746,4.354-7.422,6.509-11.1.769-1.312.656-2.421-.3-3.014-1.053-.652-2.038-.247-2.867,1.18-1.745,3-3.437,6.039-5.253,9a15.26,15.26,0,0,0-2.446,6.92c-.126,1.675-.424,3.338-.671,5q-1.594,10.728-3.216,21.452c-.139.909-.153,2.049-.7,2.648-2.744,3-5.645,5.853-8.283,8.546l-1.943-1.32c2.724-2.733,5.261-5.256,7.762-7.814a2.719,2.719,0,0,0,.771-1.353c1.343-8.864,2.615-17.739,3.977-26.6a20.565,20.565,0,0,1,1.445-6c1.9-3.813,4.213-7.415,6.327-11.121.807-1.413,1.666-2.722,3.452-2.969a4.231,4.231,0,0,1,4.09,1.675c2.481-2.371,4.46-2.37,6.77-.215a12.214,12.214,0,0,1,2.609-1.4,3.649,3.649,0,0,1,4.089,1.426,3.887,3.887,0,0,1,.239,4.476c-2.855,5-5.81,9.937-8.592,14.974a12.535,12.535,0,0,0-1.355,4.328c-.4,3-.523,6.032-.815,9.045-.083.853-.147,1.79.8,1.939.514.081,1.333-.51,1.706-1.023,1.807-2.485,3.522-5.038,5.245-7.584a5.89,5.89,0,0,1,4.357-2.795,4.44,4.44,0,0,1,4.259,1.59c.958,1.257.435,2.485-.189,3.752-2.1,4.266-4.1,8.584-6.2,12.85-1.375,2.789-2.322,5.886-4.852,7.936-3.315,2.686-6.75,5.223-10.082,7.889-1.709,1.367-3.3,2.876-5.183,4.523h31.61c-.252-.343-.4-.534-.537-.729a25.032,25.032,0,0,1-4.953-15.273c.061-6.223,2.111-11.939,4.173-17.672,1.757-4.883,3.648-9.728,5.165-14.686,2.588-8.458,1.764-16.451-3.9-23.616a2.642,2.642,0,0,0-2.381-1.131c-2.634.061-5.271.026-7.906.026Zm-3.717-34.342a1.226,1.226,0,0,0-.325-.115c-10.143-.011-20.285-.04-30.428-.007a3.449,3.449,0,0,0-3.156,4.527c.648,2.153,2.257,2.968,4.371,3.17a4.867,4.867,0,0,1,4.741,5.24c.018,1.924,0,3.848,0,5.782h12.225c0-.951-.007-1.791,0-2.63a8.238,8.238,0,0,1,8.062-8.4c1.474-.077,2.955-.012,4.506-.012Zm-12.66,25.515v-4.378h-12.013v4.378Zm15.27-25.594v7.521h4.239v-7.521Z" transform="translate(0 -24.48)" fill="#1d272b"/>
      <path id="Trazado_163230" data-name="Trazado 163230" d="M1513.273-297.537c-3.687.472-5.717,2.358-6.084,6.158-.511-3.613-2.33-5.781-6.156-6.1,3.48-.615,5.808-2.268,6.069-6.155C1507.6-299.924,1509.625-297.975,1513.273-297.537Z" transform="translate(-134.415 -73.878)" fill="#008f85"/>
      <path id="Trazado_163231" data-name="Trazado 163231" d="M1622.557-342.124c-.52.373-.848.791-1.163.782s-.6-.458-.9-.713c.292-.324.541-.824.892-.912C1621.637-343.028,1622.024-342.53,1622.557-342.124Z" transform="translate(-218.228 -46.28)" fill="#1d272b"/>
      <path id="Trazado_163232" data-name="Trazado 163232" d="M1607.607-338.264c-.525.41-.9.9-1.137.843-.369-.1-.64-.565-.953-.876.3-.268.589-.721.912-.749C1606.728-339.073,1607.068-338.645,1607.607-338.264Z" transform="translate(-207.718 -49.032)" fill="#1d272b"/>
      <path id="Trazado_163233" data-name="Trazado 163233" d="M1623.786-351.032c-.578.405-.907.818-1.213.8s-.853-.439-.863-.7c-.013-.311.431-.9.679-.9C1622.764-351.835,1623.14-351.432,1623.786-351.032Z" transform="translate(-219.08 -40.062)" fill="#1d272b"/>
      <path id="Trazado_163234" data-name="Trazado 163234" d="M1577.875-312.913c-.454-.592-.915-.934-.881-1.217.038-.326.513-.6.8-.9.279.284.734.539.786.859C1578.625-313.877,1578.234-313.514,1577.875-312.913Z" transform="translate(-187.707 -65.884)" fill="#1d272b"/>
      <path id="Trazado_163235" data-name="Trazado 163235" d="M1620.6-333.192c-.623.351-1,.724-1.382.719-.229,0-.65-.614-.616-.908a1.107,1.107,0,0,1,.86-.677C1619.771-334.054,1620.073-333.618,1620.6-333.192Z" transform="translate(-216.898 -52.533)" fill="#1d272b"/>
      <path id="Trazado_163236" data-name="Trazado 163236" d="M1584.813-321.032c-.532.36-.873.773-1.15.733-.333-.048-.61-.48-.911-.745.319-.313.594-.754.975-.884C1583.913-321.992,1584.3-321.476,1584.813-321.032Z" transform="translate(-191.747 -61.039)" fill="#1d272b"/>
      <path id="Trazado_163237" data-name="Trazado 163237" d="M1567.513-319.353c-.586.387-.96.825-1.263.78s-.534-.573-.8-.889c.3-.25.6-.686.91-.7S1566.988-319.744,1567.513-319.353Z" transform="translate(-179.612 -62.285)" fill="#1d272b"/>
      <path id="Trazado_163238" data-name="Trazado 163238" d="M1600.033-321.105c-.452-.553-.951-.913-.9-1.16.075-.365.541-.65.84-.969.26.291.693.562.731.88S1600.371-321.693,1600.033-321.105Z" transform="translate(-203.237 -60.127)" fill="#1d272b"/>
      <path id="Trazado_163239" data-name="Trazado 163239" d="M1601.858-408.115c-.542.4-.926.869-1.137.8-.365-.117-.624-.568-.927-.878.309-.266.6-.7.934-.743C1601-408.97,1601.324-408.525,1601.858-408.115Z" transform="translate(-203.704 0)" fill="#1d272b"/>
      <path id="Trazado_163240" data-name="Trazado 163240" d="M1554.917-327.274c.327.571.7.927.658,1.233s-.482.563-.747.841c-.3-.317-.761-.6-.827-.961C1553.955-326.406,1554.466-326.754,1554.917-327.274Z" transform="translate(-171.574 -57.293)" fill="#1d272b"/>
      <path id="Trazado_163241" data-name="Trazado 163241" d="M1606.761-403.434c.365.536.766.866.741,1.158-.029.327-.444.62-.691.929-.324-.3-.8-.558-.916-.925C1605.828-402.493,1606.333-402.888,1606.761-403.434Z" transform="translate(-207.98 -3.861)" fill="#1d272b"/>
      <path id="Trazado_163242" data-name="Trazado 163242" d="M1589.656-328.735c-.586.311-.954.671-1.253.621-.318-.053-.572-.495-.853-.767.335-.292.638-.739,1.017-.818C1588.793-329.746,1589.14-329.215,1589.656-328.735Z" transform="translate(-195.114 -55.589)" fill="#1d272b"/>
      <path id="Trazado_163243" data-name="Trazado 163243" d="M1604.786-330.092c-.544.387-.881.81-1.153.772-.339-.047-.625-.475-.934-.738.313-.312.582-.761.956-.882C1603.861-331.007,1604.245-330.518,1604.786-330.092Z" transform="translate(-205.743 -54.716)" fill="#1d272b"/>
      <path id="Trazado_163244" data-name="Trazado 163244" d="M1577.973-398.988c.3.571.644.929.617,1.256-.021.248-.577.69-.776.632-.341-.1-.818-.522-.814-.8C1577-398.2,1577.5-398.494,1577.973-398.988Z" transform="translate(-187.712 -6.98)" fill="#1d272b"/>
      <path id="Trazado_163245" data-name="Trazado 163245" d="M1555.774-385.823c-.582.362-.954.775-1.239.722-.315-.058-.551-.544-.822-.843.309-.272.6-.73.932-.76C1554.923-386.73,1555.247-386.258,1555.774-385.823Z" transform="translate(-171.375 -15.597)" fill="#1d272b"/>
      <path id="Trazado_163246" data-name="Trazado 163246" d="M1601.893-302.749c-.6.315-.983.688-1.268.623-.31-.071-.527-.549-.784-.85.314-.263.621-.719.944-.73C1601.069-303.714,1601.37-303.226,1601.893-302.749Z" transform="translate(-203.737 -73.828)" fill="#1d272b"/>
      <path id="Trazado_163247" data-name="Trazado 163247" d="M1577.573-334.081c-.528.369-.861.783-1.172.768s-.6-.461-.9-.718c.3-.324.558-.814.921-.912C1576.658-335.007,1577.047-334.5,1577.573-334.081Z" transform="translate(-186.661 -51.908)" fill="#1d272b"/>
      <path id="Trazado_163248" data-name="Trazado 163248" d="M1531.84-335.153c-.46-.492-1-.844-.957-1.077.075-.371.543-.663.845-.988.276.28.736.535.777.845S1532.162-335.7,1531.84-335.153Z" transform="translate(-155.356 -50.316)" fill="#1d272b"/>
      <path id="Trazado_163249" data-name="Trazado 163249" d="M1592.3-339.672c.406.635.825,1,.779,1.3-.05.322-.53.577-.822.862-.26-.3-.694-.586-.729-.912C1591.5-338.721,1591.9-339.064,1592.3-339.672Z" transform="translate(-197.907 -48.595)" fill="#1d272b"/>
      <path id="Trazado_163250" data-name="Trazado 163250" d="M1589.369-307.3c-.348-.506-.75-.836-.741-1.154.008-.288.466-.563.726-.843.314.3.8.554.882.906C1590.291-308.153,1589.776-307.783,1589.369-307.3Z" transform="translate(-195.87 -69.906)" fill="#1d272b"/>
      <path id="Trazado_163251" data-name="Trazado 163251" d="M1521.532-369.182c-.484.376-.8.812-1.111.809-.288,0-.842-.54-.8-.729a1.373,1.373,0,0,1,.81-.9C1520.672-370.064,1521.047-369.566,1521.532-369.182Z" transform="translate(-147.456 -27.31)" fill="#1d272b"/>
      <path id="Trazado_163252" data-name="Trazado 163252" d="M1565.384-339.087c-.5.366-.894.839-1.127.772a1.362,1.362,0,0,1-.784-.918c-.037-.192.538-.706.831-.7S1564.914-339.481,1565.384-339.087Z" transform="translate(-178.221 -48.409)" fill="#1d272b"/>
      <path id="Trazado_163253" data-name="Trazado 163253" d="M1621.346-367.9c-.336-.554-.731-.917-.679-1.2.062-.327.513-.58.8-.865.294.333.727.629.826,1.013C1622.34-368.747,1621.81-368.395,1621.346-367.9Z" transform="translate(-218.344 -27.344)" fill="#1d272b"/>
      <path id="Trazado_163254" data-name="Trazado 163254" d="M1526.481-360.327c-.532.373-.934.848-1.173.777-.343-.1-.568-.6-.843-.934.305-.235.615-.659.914-.652S1525.995-360.707,1526.481-360.327Z" transform="translate(-150.855 -33.536)" fill="#1d272b"/>
      <path id="Trazado_163255" data-name="Trazado 163255" d="M1579.546-344.417c.382.554.854.972.775,1.186-.135.367-.615.607-.95.9-.25-.326-.677-.643-.7-.982C1578.658-343.6,1579.12-343.907,1579.546-344.417Z" transform="translate(-188.886 -45.266)" fill="#1d272b"/>
      <path id="Trazado_163256" data-name="Trazado 163256" d="M1534.843-343.157c.5-.386.882-.887,1.119-.825a1.451,1.451,0,0,1,.81.929c.046.161-.528.7-.817.7C1535.638-342.355,1535.325-342.785,1534.843-343.157Z" transform="translate(-158.136 -45.567)" fill="#1d272b"/>
      <path id="Trazado_163257" data-name="Trazado 163257" d="M1595.591-346.313c-.48.413-.775.862-1.1.885-.278.02-.865-.5-.83-.69a1.345,1.345,0,0,1,.764-.933C1594.68-347.118,1595.076-346.659,1595.591-346.313Z" transform="translate(-199.401 -43.414)" fill="#1d272b"/>
      <path id="Trazado_163258" data-name="Trazado 163258" d="M1552.266-348.52c.489.576.954.888.99,1.244.026.253-.505.75-.829.788-.249.029-.731-.453-.8-.772C1551.573-347.545,1551.942-347.918,1552.266-348.52Z" transform="translate(-169.91 -42.387)" fill="#1d272b"/>
      <path id="Trazado_163259" data-name="Trazado 163259" d="M1608.492-345.718c-.449-.541-.9-.849-.885-1.129.019-.323.453-.62.707-.929.305.262.786.481.861.8C1609.24-346.705,1608.843-346.323,1608.492-345.718Z" transform="translate(-209.186 -42.91)" fill="#1d272b"/>
      <path id="Trazado_163260" data-name="Trazado 163260" d="M1622.58-358.964c-.443-.51-.91-.813-.9-1.092.016-.336.442-.651.69-.976.335.291.806.527.953.894C1623.409-359.936,1622.95-359.516,1622.58-358.964Z" transform="translate(-219.061 -33.609)" fill="#1d272b"/>
      <path id="Trazado_163261" data-name="Trazado 163261" d="M1497.468-357.486c.393.543.829.886.785,1.151-.055.339-.5.614-.773.917-.3-.319-.737-.6-.854-.975C1496.564-356.594,1497.049-356.966,1497.468-357.486Z" transform="translate(-131.321 -36.097)" fill="#1d272b"/>
      <path id="Trazado_163262" data-name="Trazado 163262" d="M1526.45-350.346c-.515.37-.9.847-1.154.782-.344-.089-.58-.588-.863-.91.3-.244.609-.677.914-.678S1525.964-350.725,1526.45-350.346Z" transform="translate(-150.833 -40.54)" fill="#1d272b"/>
      <path id="Trazado_163263" data-name="Trazado 163263" d="M1539.516-353.356c.385.559.859.97.783,1.2-.119.363-.609.6-.942.9-.247-.318-.677-.631-.687-.957C1538.662-352.516,1539.1-352.831,1539.516-353.356Z" transform="translate(-160.821 -38.994)" fill="#1d272b"/>
      <path id="Trazado_163264" data-name="Trazado 163264" d="M1612.9-317.008c-.522.341-.87.749-1.152.706-.323-.049-.585-.5-.874-.77.324-.3.607-.74.988-.857C1612.053-317.985,1612.421-317.453,1612.9-317.008Z" transform="translate(-211.479 -63.847)" fill="#1d272b"/>
      <path id="Trazado_163265" data-name="Trazado 163265" d="M1609.823-355.29c-.622.378-1.006.8-1.286.734-.328-.071-.566-.559-.842-.865.316-.253.617-.679.951-.706C1608.933-356.15,1609.256-355.717,1609.823-355.29Z" transform="translate(-209.247 -37.05)" fill="#1d272b"/>
      <path id="Trazado_163266" data-name="Trazado 163266" d="M1596.07-355.5c-.54.46-.845.919-1.121.9-.315-.02-.6-.463-.905-.723.263-.3.482-.768.8-.851C1595.1-356.24,1595.481-355.845,1596.07-355.5Z" transform="translate(-199.67 -37.013)" fill="#1d272b"/>
      <path id="Trazado_163267" data-name="Trazado 163267" d="M1565.432-371.97c-.442.371-.746.8-.958.763-.34-.066-.618-.446-.923-.694.28-.289.517-.707.855-.815C1564.6-372.779,1564.954-372.336,1565.432-371.97Z" transform="translate(-178.277 -25.407)" fill="#1d272b"/>
      <path id="Trazado_163268" data-name="Trazado 163268" d="M1553.835-357.127c.322.5.691.82.645,1.063-.054.283-.472.5-.732.741-.262-.286-.647-.54-.735-.873C1552.966-356.373,1553.429-356.687,1553.835-357.127Z" transform="translate(-170.881 -36.349)" fill="#1d272b"/>
      <path id="Trazado_163269" data-name="Trazado 163269" d="M1512.162-357.534c.471.529.954.838.938,1.118-.018.322-.479.618-.747.926-.3-.261-.775-.484-.841-.795C1511.452-356.569,1511.835-356.948,1512.162-357.534Z" transform="translate(-141.763 -36.063)" fill="#1d272b"/>
      <path id="Trazado_163270" data-name="Trazado 163270" d="M1509.792-347.2c-.548.369-.9.792-1.179.746-.327-.055-.585-.515-.873-.8.322-.293.608-.726.982-.823C1508.933-348.131,1509.287-347.633,1509.792-347.2Z" transform="translate(-139.121 -42.695)" fill="#1d272b"/>
      <path id="Trazado_163271" data-name="Trazado 163271" d="M1617.375-325.119c-.466.392-.762.835-1.056.833s-.882-.5-.844-.671a1.463,1.463,0,0,1,.771-.954C1616.452-325.986,1616.862-325.5,1617.375-325.119Z" transform="translate(-214.704 -58.244)" fill="#1d272b"/>
      <path id="Trazado_163272" data-name="Trazado 163272" d="M1543.315-332.669c.462.517.944.822.93,1.1a1.152,1.152,0,0,1-.767.833c-.263.034-.772-.412-.839-.718C1542.579-331.724,1542.976-332.1,1543.315-332.669Z" transform="translate(-163.602 -53.508)" fill="#1d272b"/>
      <path id="Trazado_163273" data-name="Trazado 163273" d="M1612.936-394.084c-.5.413-.864.9-1.079.845-.365-.1-.639-.541-.951-.839.295-.278.563-.729.892-.779C1612.07-394.9,1612.413-394.461,1612.936-394.084Z" transform="translate(-211.5 -9.877)" fill="#1d272b"/>
      <path id="Trazado_163274" data-name="Trazado 163274" d="M1617.383-385.964c-.549.353-.916.772-1.21.725a1.121,1.121,0,0,1-.7-.864,1.1,1.1,0,0,1,.809-.746C1616.584-386.846,1616.886-386.388,1617.383-385.964Z" transform="translate(-214.701 -15.497)" fill="#1d272b"/>
      <path id="Trazado_163275" data-name="Trazado 163275" d="M1508.628-362.268c-.372-.573-.792-.938-.748-1.233a1.125,1.125,0,0,1,.87-.694,1.088,1.088,0,0,1,.727.8C1509.484-363.092,1509.045-362.784,1508.628-362.268Z" transform="translate(-139.218 -31.39)" fill="#1d272b"/>
      <path id="Trazado_163276" data-name="Trazado 163276" d="M1608.63-366.246c.354.594.718.937.708,1.27-.007.271-.528.784-.7.739-.333-.087-.784-.478-.811-.777S1608.222-365.66,1608.63-366.246Z" transform="translate(-209.336 -29.951)" fill="#1d272b"/>
      <path id="Trazado_163277" data-name="Trazado 163277" d="M1573.115-384.263c-.579.315-.928.656-1.249.632-.267-.02-.5-.469-.751-.729a3.857,3.857,0,0,1,1.034-.776C1572.306-385.188,1572.64-384.709,1573.115-384.263Z" transform="translate(-183.583 -16.695)" fill="#1d272b"/>
      <path id="Trazado_163278" data-name="Trazado 163278" d="M1577.594-377c-.609.365-.948.723-1.29.725-.265,0-.533-.441-.8-.686.276-.3.526-.8.836-.842S1577-377.4,1577.594-377Z" transform="translate(-186.663 -21.841)" fill="#1d272b"/>
      <path id="Trazado_163279" data-name="Trazado 163279" d="M1537.9-367.746c-.625.36-.966.714-1.275.688-.277-.024-.776-.549-.724-.706a1.357,1.357,0,0,1,.8-.856C1536.959-368.667,1537.311-368.2,1537.9-367.746Z" transform="translate(-158.874 -28.283)" fill="#1d272b"/>
      <path id="Trazado_163280" data-name="Trazado 163280" d="M1619.44-379.532c.385.52.876.944.8,1.13-.152.363-.622.594-.96.88-.239-.312-.658-.619-.666-.937C1618.606-378.749,1619.045-379.049,1619.44-379.532Z" transform="translate(-216.907 -20.63)" fill="#1d272b"/>
      <path id="Trazado_163281" data-name="Trazado 163281" d="M1549.924-338.073c-.543.443-.861.9-1.14.877-.333-.027-.633-.464-.947-.724.275-.3.508-.784.837-.861C1548.944-338.844,1549.327-338.433,1549.924-338.073Z" transform="translate(-167.252 -49.215)" fill="#1d272b"/>
      <path id="Trazado_163282" data-name="Trazado 163282" d="M1568.654-355.347c-.707.338-1.07.652-1.412.63-.265-.017-.5-.455-.752-.706.294-.255.573-.689.885-.715S1568.014-355.767,1568.654-355.347Z" transform="translate(-180.339 -37.042)" fill="#1d272b"/>
      <path id="Trazado_163283" data-name="Trazado 163283" d="M1550.407-373.131c-.427.4-.741.879-.918.833-.343-.09-.812-.45-.847-.743a1.1,1.1,0,0,1,.666-.872C1549.572-373.959,1549.92-373.5,1550.407-373.131Z" transform="translate(-167.816 -24.569)" fill="#1d272b"/>
      <path id="Trazado_163284" data-name="Trazado 163284" d="M1531.711-373.489c-.392-.553-.831-.906-.788-1.185a1.147,1.147,0,0,1,.826-.772c.277,0,.732.5.771.816C1532.554-374.354,1532.112-374.021,1531.711-373.489Z" transform="translate(-155.384 -23.497)" fill="#1d272b"/>
      <path id="Trazado_163285" data-name="Trazado 163285" d="M1521.527-341.528c-.612.336-.987.711-1.278.655s-.523-.536-.779-.83c.306-.246.608-.68.918-.686S1520.993-341.957,1521.527-341.528Z" transform="translate(-147.351 -46.688)" fill="#1d272b"/>
      <path id="Trazado_163286" data-name="Trazado 163286" d="M1552.7-363.34c-.388-.509-.824-.833-.8-1.127a1.067,1.067,0,0,1,.811-.7c.288.03.666.491.739.822C1553.492-364.13,1553.066-363.809,1552.7-363.34Z" transform="translate(-170.098 -30.706)" fill="#1d272b"/>
      <path id="Trazado_163287" data-name="Trazado 163287" d="M1603.627-382.624c.425.453.9.768.853.952a1.371,1.371,0,0,1-.756.854c-.186.065-.776-.377-.783-.6C1602.93-381.743,1603.29-382.076,1603.627-382.624Z" transform="translate(-205.911 -18.461)" fill="#1d272b"/>
      <path id="Trazado_163288" data-name="Trazado 163288" d="M1589.735-381.694c-.561.29-.9.611-1.175.566s-.51-.449-.761-.7c.3-.254.584-.654.92-.71C1588.944-382.57,1589.25-382.116,1589.735-381.694Z" transform="translate(-195.288 -18.523)" fill="#1d272b"/>
      <path id="Trazado_163289" data-name="Trazado 163289" d="M1595.64-364.36c-.525.372-.832.757-1.071.718-.342-.055-.634-.419-.947-.651.234-.252.467-.707.7-.709C1594.672-365.005,1595.021-364.684,1595.64-364.36Z" transform="translate(-199.374 -30.824)" fill="#1d272b"/>
      <path id="Trazado_163290" data-name="Trazado 163290" d="M1606.74-311.576c.393.536.824.868.791,1.145-.037.3-.513.771-.782.76a1.134,1.134,0,0,1-.825-.752C1605.887-310.7,1606.335-311.039,1606.74-311.576Z" transform="translate(-208.002 -68.306)" fill="#1d272b"/>
      <path id="Trazado_163291" data-name="Trazado 163291" d="M1561.519-331.632c-.507.416-.808.854-1.119.861-.288.007-.813-.443-.819-.7a1.116,1.116,0,0,1,.713-.839C1560.585-332.363,1560.954-331.967,1561.519-331.632Z" transform="translate(-175.492 -53.755)" fill="#1d272b"/>
      <path id="Trazado_163292" data-name="Trazado 163292" d="M1566.631-345.818c-.322-.636-.66-1.005-.628-1.338.025-.259.511-.474.793-.708.236.324.614.628.661.977C1567.49-346.648,1567.062-346.348,1566.631-345.818Z" transform="translate(-179.996 -42.847)" fill="#1d272b"/>
      <path id="Trazado_163293" data-name="Trazado 163293" d="M1572.018-328.589c.451.569.9.883.881,1.175-.016.324-.451.627-.7.939-.294-.265-.766-.493-.831-.805C1571.3-327.57,1571.677-327.951,1572.018-328.589Z" transform="translate(-183.754 -56.37)" fill="#1d272b"/>
      <path id="Trazado_163294" data-name="Trazado 163294" d="M1595.233-313.932c-.415-.6-.829-.93-.8-1.225.028-.322.463-.608.721-.909.287.279.753.527.809.847C1596.011-314.931,1595.614-314.564,1595.233-313.932Z" transform="translate(-199.94 -65.156)" fill="#1d272b"/>
      <path id="Trazado_163295" data-name="Trazado 163295" d="M1543.548-382.071c.339.494.7.789.684,1.059-.019.286-.4.547-.624.819-.275-.269-.693-.5-.776-.82C1542.776-381.23,1543.189-381.569,1543.548-382.071Z" transform="translate(-163.738 -18.849)" fill="#1d272b"/>
      <path id="Trazado_163296" data-name="Trazado 163296" d="M1582.3-360.092c-.524.418-.833.854-1.133.848s-.8-.484-.784-.736a1.162,1.162,0,0,1,.728-.86C1581.378-360.893,1581.743-360.463,1582.3-360.092Z" transform="translate(-190.083 -33.741)" fill="#1d272b"/>
      <path id="Trazado_163297" data-name="Trazado 163297" d="M1539.474-358.515c-.393-.533-.828-.867-.8-1.154s.521-.529.81-.791c.262.309.645.587.74.941C1540.277-359.322,1539.851-359,1539.474-358.515Z" transform="translate(-160.823 -34.01)" fill="#1d272b"/>
      <path id="Trazado_163298" data-name="Trazado 163298" d="M1385.866-290.617h-12.013v-4.378h12.013Z" transform="translate(-45.19 -79.939)" fill="#008f85"/>
      <path id="Trazado_163299" data-name="Trazado 163299" d="M1465.276-366.088h4.239v7.521h-4.239Z" transform="translate(-109.33 -30.062)" fill="#008f85"/>
      <path id="Trazado_163300" data-name="Trazado 163300" d="M1422.676-153.439c2.081,1.553,4.014,1.425,6.027-.142-1.448,1.962-1.742,3.882-.14,6-2.05-1.364-3.984-1.445-5.968.165A4.606,4.606,0,0,0,1422.676-153.439Z" transform="translate(-79.385 -179.151)" fill="#008f85"/>
    </g>
  </g>
</svg>
