<svg id="icon7" xmlns="http://www.w3.org/2000/svg" xmlns:xlink="http://www.w3.org/1999/xlink" width="79.155" height="79.154" viewBox="0 0 79.155 79.154">
  <defs>
    <radialGradient id="radial-gradient" cx="0.077" cy="0.019" r="1.465" gradientTransform="matrix(1, 0, 0, -1, 0, 9.666)" gradientUnits="objectBoundingBox">
      <stop offset="0" stop-color="#f4f4f5"/>
      <stop offset="0.477" stop-color="#f7f8fa"/>
      <stop offset="0.715" stop-color="#fff"/>
    </radialGradient>
  </defs>
  <g id="Group_18531" data-name="Group 18531">
    <g id="Group_18423" data-name="Group 18423">
      <g id="Group_18421" data-name="Group 18421">
        <g id="Group_18420" data-name="Group 18420">
          <g id="Group_18419" data-name="Group 18419">
            <path id="Path_40936" data-name="Path 40936" d="M201.954,554.407a39.577,39.577,0,1,1-39.578-39.575h0A39.576,39.576,0,0,1,201.954,554.407Z" transform="translate(-122.8 -514.832)" fill="#fff"/>
          </g>
        </g>
      </g>
      <path id="Path_40937" data-name="Path 40937" d="M201.953,554.407a39.42,39.42,0,1,0,0,.312Z" transform="translate(-122.799 -514.832)" fill="url(#radial-gradient)"/>
      <path id="Path_40938" data-name="Path 40938" d="M190.028,551.858a30.209,30.209,0,1,0-30.209,30.209h0a30.1,30.1,0,0,0,30.209-29.984Z" transform="translate(-120.122 -512.151)" fill="none" stroke="#1d272b" stroke-miterlimit="10" stroke-width="2"/>
      <g id="Group_18422" data-name="Group 18422" transform="translate(7.012 22.22)">
        <path id="Path_40939" data-name="Path 40939" d="M195.973,530.78a39.581,39.581,0,0,1-68.14,39.411,39.456,39.456,0,0,0,68.14-39.411Z" transform="translate(-127.833 -530.78)" fill="#e7e9eb"/>
      </g>
    </g>
  </g>
  <g id="rcXBPn.tif" transform="translate(-1846.744 427.184)">
    <g id="Grupo_128171" data-name="Grupo 128171" transform="translate(1864.962 -408.894)">
      <path id="Trazado_165188" data-name="Trazado 165188" d="M1878.885-408.894l5.566,4.392c.272-.486.535-.952.8-1.42.328-.587.661-1.171.979-1.763a.752.752,0,0,1,.728-.428q6.1,0,12.2,0a.79.79,0,0,1,.756.455q3.34,6,6.679,12a1.2,1.2,0,0,1,.1.774q-3.151,14.159-6.329,28.312c-.123.551-.258.662-.819.662q-6.489,0-12.978,0c-.141,0-.341.021-.411-.058-.323-.364-.622-.12-.922,0-.755.306-1.5.624-2.256.936-.616.255-.72.226-1.1-.315l-11.939-16.909c-1.552-2.2-3.1-4.4-4.666-6.588a1.59,1.59,0,0,1-.288-1.2q.521-4.432,1.027-8.866c.172-1.492.35-2.983.512-4.477a.883.883,0,0,1,.649-.76q5.464-2.264,10.922-4.545c.127-.053.245-.129.368-.195Zm8.471,6.672c.815.645,1.584,1.288,2.393,1.876a1.572,1.572,0,0,1,.655,1.138c.134.9.306,1.8.464,2.7q.925,5.257,1.851,10.515t1.849,10.515c.268,1.52.542,3.039.806,4.56.1.581.016.714-.539.947-.307.128-.613.259-.919.389.849.091,1.676.077,2.5.1.33.009.462-.086.539-.425.979-4.3,1.978-8.6,2.969-12.905q1.382-5.993,2.752-11.988a.923.923,0,0,0-.057-.6q-2.476-4.417-4.991-8.812a.588.588,0,0,0-.426-.253q-4.148-.022-8.295,0a.551.551,0,0,0-.4.226C1888.119-403.594,1887.756-402.929,1887.356-402.222Zm6.953,31.284c-.023-.206-.028-.306-.046-.4q-1.161-6.609-2.325-13.218-1.274-7.221-2.562-14.439a.989.989,0,0,0-.315-.56q-5.067-4.017-10.149-8.015a.553.553,0,0,0-.649-.092c-3.254,1.367-6.5,2.747-9.779,4.059a1.459,1.459,0,0,0-1.078,1.41c-.426,4.083-.934,8.158-1.4,12.238a1,1,0,0,0,.184.622q8.1,11.5,16.213,22.991a.445.445,0,0,0,.659.179c1.154-.5,2.318-.975,3.479-1.458q3.72-1.549,7.439-3.1A1.859,1.859,0,0,0,1894.309-370.938Zm5.073,3.982c.022-.081.04-.134.052-.188q.79-3.534,1.58-7.068,2.3-10.266,4.611-20.531a1.047,1.047,0,0,0-.117-.8q-2.847-5.07-5.675-10.15c-.258-.461-.425-1.091-.822-1.322s-1.03-.068-1.559-.068q-5.007,0-10.014.005c-.151,0-.38.044-.439.146-.589,1.01-1.15,2.036-1.729,3.074l1.271,1c.417-.738.827-1.438,1.211-2.153a.845.845,0,0,1,.823-.5q4.491.01,8.982,0a.826.826,0,0,1,.8.463c1.762,3.128,3.539,6.248,5.294,9.381a1.13,1.13,0,0,1,.1.725c-.274,1.3-.583,2.592-.881,3.887q-2.524,10.962-5.05,21.925c-.141.61-.215.666-.845.667-1.7,0-3.41-.015-5.114.012a3.737,3.737,0,0,0-1.24.244c-.968.367-1.914.789-2.869,1.189l.017.06Z" transform="translate(-1864.962 408.894)" fill="#1d272b"/>
      <path id="Trazado_165189" data-name="Trazado 165189" d="M1921.065-339.777c-.153.165-.274.4-.463.482-2.526,1.071-5.06,2.123-7.594,3.174-.393.163-.637-.045-.859-.357q-2.389-3.361-4.793-6.71-5.219-7.3-10.443-14.6a1.587,1.587,0,0,1-.33-1.223c.447-3.49.866-6.984,1.284-10.478a.747.747,0,0,1,.514-.663q4.2-1.74,8.388-3.5a.755.755,0,0,1,.833.125c2.823,2.2,5.654,4.392,8.468,6.606a1.3,1.3,0,0,1,.437.738q1.569,9.085,3.1,18.176.682,4.016,1.361,8.033l.021.127Zm-8.159,2.591c2.285-.952,4.551-1.894,6.812-2.85a.383.383,0,0,0,.142-.328c-.457-2.734-.929-5.465-1.393-8.2q-.837-4.923-1.668-9.847-.628-3.7-1.271-7.392a.794.794,0,0,0-.255-.455q-3.99-3.124-8-6.219a.538.538,0,0,0-.447-.073q-3.866,1.585-7.715,3.207a.544.544,0,0,0-.272.369q-.615,4.895-1.2,9.793a1.148,1.148,0,0,0,.172.888q6.069,8.459,12.117,16.934Z" transform="translate(-1893.844 376.755)" fill="#1d272b"/>
    </g>
  </g>
</svg>
