<svg id="icon6" xmlns="http://www.w3.org/2000/svg" xmlns:xlink="http://www.w3.org/1999/xlink" width="79.155" height="79.154" viewBox="0 0 79.155 79.154">
  <defs>
    <radialGradient id="radial-gradient" cx="0.077" cy="0.019" r="1.465" gradientTransform="matrix(1, 0, 0, -1, 0, 9.666)" gradientUnits="objectBoundingBox">
      <stop offset="0" stop-color="#f4f4f5"/>
      <stop offset="0.477" stop-color="#f7f8fa"/>
      <stop offset="0.715" stop-color="#fff"/>
    </radialGradient>
  </defs>
  <g id="Group_18531" data-name="Group 18531">
    <g id="Group_18423" data-name="Group 18423">
      <g id="Group_18421" data-name="Group 18421">
        <g id="Group_18420" data-name="Group 18420">
          <g id="Group_18419" data-name="Group 18419">
            <path id="Path_40936" data-name="Path 40936" d="M201.954,554.407a39.577,39.577,0,1,1-39.578-39.575h0A39.576,39.576,0,0,1,201.954,554.407Z" transform="translate(-122.8 -514.832)" fill="#fff"/>
          </g>
        </g>
      </g>
      <path id="Path_40937" data-name="Path 40937" d="M201.953,554.407a39.42,39.42,0,1,0,0,.312Z" transform="translate(-122.799 -514.832)" fill="url(#radial-gradient)"/>
      <path id="Path_40938" data-name="Path 40938" d="M190.028,551.858a30.209,30.209,0,1,0-30.209,30.209h0a30.1,30.1,0,0,0,30.209-29.984Z" transform="translate(-120.122 -512.151)" fill="none" stroke="#1d272b" stroke-miterlimit="10" stroke-width="2"/>
      <g id="Group_18422" data-name="Group 18422" transform="translate(7.012 22.22)">
        <path id="Path_40939" data-name="Path 40939" d="M195.973,530.78a39.581,39.581,0,0,1-68.14,39.411,39.456,39.456,0,0,0,68.14-39.411Z" transform="translate(-127.833 -530.78)" fill="#e7e9eb"/>
      </g>
    </g>
  </g>
  <g id="lroP5t" transform="translate(26.579 16.379)">
    <g id="Grupo_128165" data-name="Grupo 128165">
      <path id="Trazado_165167" data-name="Trazado 165167" d="M1400.5-14.5a34.585,34.585,0,0,1-1.729,12.869c-1.819,5.932-3.386,11.943-5.03,17.928a1.053,1.053,0,0,1-1.215.945q-5.8-.058-11.6,0a1.057,1.057,0,0,1-1.236-.919c-1.715-6.249-3.465-12.488-5.205-18.73-.453-1.626-.922-3.249-1.358-4.88a5.374,5.374,0,0,1-.192-1.35c-.013-3.982-.021-7.964.016-11.946a2.808,2.808,0,0,1,.448-1.446c2.072-3.126,4.2-6.218,6.281-9.336a1.175,1.175,0,0,1,1.118-.589q5.938.033,11.877,0a1.121,1.121,0,0,1,1.061.564c2.139,3.192,4.308,6.364,6.441,9.559a2.1,2.1,0,0,1,.311,1.08C1400.51-18.663,1400.495-16.58,1400.5-14.5Zm-1.1-.057c0-1.939.015-3.93-.014-5.921a1.967,1.967,0,0,0-.309-1.01c-1.978-2.968-3.987-5.915-5.971-8.879a1,1,0,0,0-.954-.492q-5.423.028-10.846,0a1.057,1.057,0,0,0-1.013.512c-1.969,2.947-3.97,5.873-5.931,8.824a2.194,2.194,0,0,0-.331,1.141c-.024,3.867-.018,7.734-.009,11.6a4.127,4.127,0,0,0,.129,1.083q3.23,11.64,6.467,23.279a.636.636,0,0,0,.752.556q5.32-.023,10.64,0c.458,0,.665-.1.8-.586,1.555-5.652,3.048-11.324,4.751-16.932A34.618,34.618,0,0,0,1399.4-14.554Z" transform="translate(-1372.917 31.951)" fill="#1d272b"/>
      <path id="Trazado_165168" data-name="Trazado 165168" d="M1403.914,82.177A3.035,3.035,0,0,1,1401.3,84.3a2.991,2.991,0,0,1-3.342-3.141c-.013-4.554-.007-9.108-.008-13.661q0-4.462,0-8.924a.687.687,0,0,0-.006-.272,4.077,4.077,0,0,0-.278-.441c-.1.147-.277.293-.28.442-.024,1.258-.016,2.517-.017,3.775,0,1.556-.015,3.112.008,4.668.008.591-.223.827-.812.81-.869-.026-1.739-.017-2.608,0-.523.008-.741-.224-.74-.745.009-4.21-.011-8.421.018-12.632a3.374,3.374,0,0,1,3.4-3.258c3.135-.024,6.27-.008,9.405-.008,1.693,0,3.387-.015,5.08,0a3.42,3.42,0,0,1,3.564,3.6q.016,6.041,0,12.082c0,.9-.063.953-1,.955q-1.03,0-2.06,0c-1.068,0-1.1-.025-1.1-1.062q0-3.913,0-7.826a2.322,2.322,0,0,0-.018-.546c-.025-.1-.191-.255-.244-.237a.532.532,0,0,0-.29.272,1.137,1.137,0,0,0-.008.407q0,11.293-.008,22.585a2.972,2.972,0,0,1-1.857,2.936,2.927,2.927,0,0,1-3.293-.629A10.461,10.461,0,0,1,1403.914,82.177Zm-4.867-30.131v.811q0,13.632,0,27.264c0,.412-.009.825.012,1.236a1.9,1.9,0,0,0,1.972,1.862,1.835,1.835,0,0,0,1.862-1.875c.021-.823.019-1.648.019-2.472q0-5.6,0-11.194c0-1.034.067-1.1,1.069-1.1.137,0,.313-.052.4.013a1.738,1.738,0,0,1,.61.583,2.086,2.086,0,0,1,.032.814c0,4.418.008,8.836,0,13.254a1.837,1.837,0,0,0,.934,1.712,1.937,1.937,0,0,0,2.916-1.843q.008-14.215,0-28.431c0-.2-.022-.4-.036-.639Zm-4.67,5.85v8.5h1.854V57.9Zm17.31.01v8.5h1.869v-8.5Zm-1.714-5.875c0,1.519,0,2.955,0,4.392a1.914,1.914,0,0,0,.045.283h3.573c0-.65,0-1.241,0-1.831,0-.274.008-.55-.02-.821a2.318,2.318,0,0,0-1.948-2.012C1411.11,51.985,1410.584,52.03,1409.974,52.03ZM1397.9,56.717v-4.7c-.5,0-.953-.021-1.4,0a2.272,2.272,0,0,0-2.118,1.831,25.014,25.014,0,0,0-.023,2.865Z" transform="translate(-1390.432 -39.523)" fill="#1d272b"/>
      <path id="Trazado_165169" data-name="Trazado 165169" d="M1443-18.906a4.486,4.486,0,0,1,4.526,4.447,4.517,4.517,0,0,1-4.505,4.477,4.521,4.521,0,0,1-4.531-4.527A4.5,4.5,0,0,1,1443-18.906Zm3.429,4.46a3.385,3.385,0,0,0-3.362-3.364,3.391,3.391,0,0,0-3.477,3.32,3.417,3.417,0,0,0,3.4,3.413A3.413,3.413,0,0,0,1446.428-14.446Z" transform="translate(-1429.481 20.698)" fill="#1d272b"/>
    </g>
  </g>
</svg>
