<svg id="icon2" xmlns="http://www.w3.org/2000/svg" xmlns:xlink="http://www.w3.org/1999/xlink" width="114.636" height="114.636" viewBox="0 0 114.636 114.636">
  <defs>
    <radialGradient id="radial-gradient" cx="0.076" cy="0.019" r="1.465" gradientTransform="translate(0.001)" gradientUnits="objectBoundingBox">
      <stop offset="0" stop-color="#f6f6f7"/>
      <stop offset="0.477" stop-color="#f9f9fa"/>
      <stop offset="0.715" stop-color="#fff"/>
    </radialGradient>
  </defs>
  <g id="Grupo_18423" data-name="Grupo 18423" transform="translate(0 0)">
    <g id="Grupo_18421" data-name="Grupo 18421">
      <g id="Grupo_18420" data-name="Grupo 18420">
        <g id="Grupo_18419" data-name="Grupo 18419">
          <path id="Trazado_40936" data-name="Trazado 40936" d="M309.259,2203.037a57.318,57.318,0,1,1-57.317-57.316A57.317,57.317,0,0,1,309.259,2203.037Z" transform="translate(-194.623 -2145.721)" fill="#fff"/>
        </g>
      </g>
    </g>
    <path id="Trazado_40937" data-name="Trazado 40937" d="M308.648,2202.372a57.316,57.316,0,1,0-57.317,57.319A57.091,57.091,0,0,0,308.648,2202.372Z" transform="translate(-194.013 -2145.056)" fill="url(#radial-gradient)"/>
    <path id="Trazado_40938" data-name="Trazado 40938" d="M289.672,2196.986a43.75,43.75,0,1,0-43.75,43.75A43.587,43.587,0,0,0,289.672,2196.986Z" transform="translate(-188.43 -2139.479)" fill="none" stroke="#1d272b" stroke-miterlimit="10" stroke-width="4"/>
    <g id="Grupo_18422" data-name="Grupo 18422" transform="translate(10.154 32.18)">
      <path id="Trazado_40939" data-name="Trazado 40939" d="M299.231,2164.488a57.325,57.325,0,0,1-98.686,57.081,57.143,57.143,0,0,0,98.686-57.081Z" transform="translate(-200.545 -2164.488)" fill="#eceef0"/>
    </g>
  </g>
  <g id="v6Jpci" transform="translate(-267.711 762.509)">
    <g id="Grupo_127731" data-name="Grupo 127731" transform="translate(294.14 -732.288)">
      <path id="Trazado_163912" data-name="Trazado 163912" d="M999.744-371.778a1.818,1.818,0,0,1-.468.829,1.477,1.477,0,0,1-.965.4c-.046,0-.092,0-.138,0H966.666a1.481,1.481,0,0,1-1.559-1.566q0-1.148,0-2.3a1.474,1.474,0,0,1,1.525-1.54c.144,0,.287,0,.446,0v-28.9l-1.829-.645c-.664-.233-1.329-.464-1.993-.7a.5.5,0,0,1-.351-.635.507.507,0,0,1,.68-.289q3.457,1.21,6.912,2.423l1.415.5a.485.485,0,0,1,.34.636.485.485,0,0,1-.661.288q-1.669-.579-3.335-1.164c-.049-.017-.1-.031-.172-.055v28.523h12.879v-21.856h-.24q-2.088,0-4.176,0a.5.5,0,0,1-.5-.7.523.523,0,0,1,.524-.283c1.023,0,2.045,0,3.068,0h1.341v-.278q0-2.612,0-5.225a.509.509,0,0,1,.259-.5.493.493,0,0,1,.729.46c.007.508,0,1.016,0,1.524q0,1.88,0,3.76v.243h6.765c0-.37,0-.73,0-1.091a.9.9,0,0,1,0-.119.419.419,0,0,0-.248-.482,1.228,1.228,0,0,1-.612-1.1,1.554,1.554,0,0,1,.305-1.134,1.325,1.325,0,0,1,1.06-.482q1.613,0,3.226,0a1.322,1.322,0,0,1,1.35,1.353,1.487,1.487,0,0,1-.221.982,3.941,3.941,0,0,1-.519.47c-.041.037-.112.077-.113.116-.008.493-.005.986-.005,1.5h.256c1.966,0,3.932,0,5.9,0a.632.632,0,0,1,.641.361v.277a.642.642,0,0,1-.661.357c-1.953-.009-3.906,0-5.858,0h-.265c0,.076-.011.134-.012.192,0,.442.007.884,0,1.326,0,.144.057.187.177.23a9.514,9.514,0,0,1,1.158.449,7.791,7.791,0,0,1,4.46,6.9,7.653,7.653,0,0,1-2.313,6,7.58,7.58,0,0,1-6.667,2.276,7.593,7.593,0,0,1-5.4-3.345,7.777,7.777,0,0,1-1.241-6.364,7.72,7.72,0,0,1,4.483-5.553c.361-.168.742-.291,1.109-.433v-1.658h-6.74v21.862h.638q7.788,0,15.576,0a1.413,1.413,0,0,1,1.188.518,4.145,4.145,0,0,1,.368.731Zm-10.026-28.494v.161q0,2.117,0,4.234c0,.387-.112.53-.49.626a6.811,6.811,0,0,0-4.346,3.239,7.13,7.13,0,0,0,.875,8.385,6.712,6.712,0,0,0,3.923,2.158,6.514,6.514,0,0,0,5.688-1.625,6.809,6.809,0,0,0,2.11-7.273,6.688,6.688,0,0,0-5.034-4.885c-.374-.1-.485-.236-.485-.629q0-2.058,0-4.116v-.275Zm-13.725,25.3c0,.08,0,.15,0,.221,0,.567,0,1.135,0,1.7a.487.487,0,0,1-.494.525.49.49,0,0,1-.494-.525c0-.508,0-1.016,0-1.524v-.406h-.979c0,.063-.009.108-.009.153q0,.652,0,1.3a.47.47,0,0,1-.267.449.484.484,0,0,1-.712-.477c-.011-.4-.007-.8-.01-1.207,0-.069,0-.139,0-.214h-.993c0,.644,0,1.275,0,1.906a.5.5,0,0,1-.406.524c-.365.017-.576-.153-.582-.483-.007-.363,0-.726,0-1.089v-.857h-.99c0,.489,0,.963,0,1.437a.491.491,0,0,1-.484.518.5.5,0,0,1-.5-.52c0-.389,0-.778,0-1.168v-.271h-.99c0,.082,0,.153,0,.223,0,.561,0,1.122,0,1.682a.491.491,0,0,1-.5.541.5.5,0,0,1-.491-.548c0-.561,0-1.122,0-1.682,0-.07-.006-.141-.01-.225-.161,0-.3,0-.448,0a.5.5,0,0,0-.53.554q0,1.158,0,2.316a.5.5,0,0,0,.573.569h31.268c.106,0,.211,0,.317,0a.478.478,0,0,0,.5-.5q.005-1.217,0-2.434a.475.475,0,0,0-.439-.5,5.372,5.372,0,0,0-.55,0v.227c0,.554,0,1.108,0,1.663,0,.349-.19.563-.5.563s-.494-.216-.494-.566c0-.554,0-1.108,0-1.663,0-.07-.006-.14-.009-.218h-.981v.223c0,.416,0,.831,0,1.247a.49.49,0,0,1-.4.479.473.473,0,0,1-.529-.256.744.744,0,0,1-.061-.3c-.006-.459,0-.919,0-1.383h-.975a.338.338,0,0,0-.013.056c0,.613,0,1.227,0,1.841a.491.491,0,0,1-.494.545.491.491,0,0,1-.495-.545c0-.521,0-1.042,0-1.564v-.335h-.99c0,.49,0,.964,0,1.439a.492.492,0,0,1-.486.517.5.5,0,0,1-.5-.522c0-.409,0-.818,0-1.227,0-.07-.007-.14-.01-.209h-.979v.226q0,.821,0,1.643c0,.364-.189.58-.5.577s-.489-.22-.489-.571c0-.554,0-1.108,0-1.662,0-.069-.006-.139-.009-.211h-.98v.207c0,.4,0,.8,0,1.207a.5.5,0,0,1-.5.544.5.5,0,0,1-.488-.536c0-.3,0-.607,0-.91v-.513h-.99c0,.082,0,.153,0,.224q0,.821,0,1.643c0,.353-.182.574-.48.58-.316.006-.51-.209-.51-.569q0-.831,0-1.663v-.217h-.981c0,.073-.008.137-.009.2,0,.4,0,.8,0,1.207a.5.5,0,0,1-.491.552.5.5,0,0,1-.5-.545c0-.4,0-.8,0-1.207,0-.069-.007-.139-.011-.2h-.978c0,.487,0,.961,0,1.435a.491.491,0,0,1-.5.52.5.5,0,0,1-.487-.516c0-.389,0-.778,0-1.168v-.272h-.99v.225c0,.554,0,1.108,0,1.663a.494.494,0,0,1-.482.558.494.494,0,0,1-.508-.553c0-.574,0-1.148,0-1.722,0-.056-.008-.113-.012-.171h-.977c0,.085,0,.156,0,.227,0,.409,0,.818,0,1.227a.491.491,0,0,1-.479.5.5.5,0,0,1-.508-.5c-.006-.3,0-.594,0-.891,0-.189,0-.377,0-.574Zm14.844-26.3c.528,0,1.055,0,1.583,0,.275,0,.394-.124.4-.4,0-.073,0-.145,0-.218a.337.337,0,0,0-.354-.366q-1.623-.005-3.245,0a.343.343,0,0,0-.358.363c0,.053,0,.106,0,.158,0,.353.109.464.456.464Z" transform="translate(-936.409 420.028)" fill="#1d272b"/>
      <path id="Trazado_163913" data-name="Trazado 163913" d="M294.14-289.168a.6.6,0,0,1,.616-.36q13.239.007,26.478,0a.557.557,0,0,1,.6.706c-.169,1.253-.308,2.511-.459,3.767q-.254,2.12-.507,4.24-.288,2.425-.572,4.85c-.2,1.714-.413,3.427-.617,5.141-.191,1.6-.375,3.207-.566,4.81q-.326,2.738-.66,5.475-.146,1.217-.285,2.434a.508.508,0,0,1-.579.528H299.444c-.356,0-.712,0-1.069,0a.5.5,0,0,1-.553-.492q-.3-2.539-.6-5.078-.406-3.4-.816-6.791c-.181-1.518-.352-3.037-.531-4.555q-.294-2.493-.594-4.986c-.112-.935-.23-1.87-.342-2.806q-.327-2.746-.65-5.493c-.043-.358-.1-.714-.15-1.071Zm1.053.635,3.566,29.952H317.23l3.565-29.952Z" transform="translate(-294.14 307.056)" fill="#1d272b"/>
      <path id="Trazado_163914" data-name="Trazado 163914" d="M678.436-717.751a9.2,9.2,0,0,1-1.073-.236q-4.853-1.67-9.7-3.362l-6.9-2.394c-.657-.228-1.314-.461-1.973-.682a.255.255,0,0,0-.216.041,1.518,1.518,0,0,1-1.889.215,1.507,1.507,0,0,1-.649-1.8c.475-1.367.963-2.73,1.447-4.095.136-.384.28-.766.41-1.152a1.536,1.536,0,0,1,1.812-1.031,1.525,1.525,0,0,1,1.168,1.686c-.02.153.042.194.16.235q2.388.824,4.774,1.654,2.674.93,5.347,1.865c2.566.892,5.135,1.776,7.7,2.675a6.732,6.732,0,0,1,1.407.6,2.914,2.914,0,0,1,1.407,2.786,3.028,3.028,0,0,1-1.847,2.652A3.768,3.768,0,0,1,678.436-717.751Zm1.448-5.261c-.06-.025-.1-.044-.144-.059-1.367-.474-2.733-.95-4.1-1.418a4.38,4.38,0,0,0-1.077-.308c-2.336-.155-4.674-.271-7.011-.412a9.563,9.563,0,0,1-2.955-.664,7.824,7.824,0,0,1-1.655-.91,4.491,4.491,0,0,1-1.552-1.706.543.543,0,0,0-.515-.387.526.526,0,0,0-.486.421c-.322.912-.654,1.821-.981,2.731a.517.517,0,0,0,.367.779c.711.253,1.424.5,2.135.756l6.491,2.309,5.542,1.967q1.9.674,3.794,1.35a.527.527,0,0,0,.788-.39q.266-.806.535-1.61C679.329-721.373,679.6-722.183,679.883-723.012Zm-22.39-1.912a.478.478,0,0,0,.484-.357q.694-1.919,1.39-3.839c.17-.47.339-.94.5-1.412a.551.551,0,0,0-.578-.767.584.584,0,0,0-.478.442q-.448,1.285-.905,2.567t-.912,2.564A.557.557,0,0,0,657.493-724.924Z" transform="translate(-641.629 732.288)" fill="#1d272b"/>
      <path id="Trazado_163915" data-name="Trazado 163915" d="M579.924-552.378a1.785,1.785,0,0,1-1.837-1.649,1.258,1.258,0,0,1,.128-.587c.308-.633.645-1.252.966-1.879.093-.181.175-.368.253-.556a.5.5,0,0,1,.418-.319.417.417,0,0,1,.452.218c.464.893.939,1.782,1.368,2.692a1.285,1.285,0,0,1-.274,1.363A1.8,1.8,0,0,1,579.924-552.378Z" transform="translate(-566.847 564.298)" fill="#1d272b"/>
      <path id="Trazado_163916" data-name="Trazado 163916" d="M588.739-403.432a1.43,1.43,0,0,1-1.5-1.374,1.761,1.761,0,0,1,.2-.669c.166-.358.367-.7.548-1.05.087-.169.164-.343.24-.517a.5.5,0,0,1,.421-.315.423.423,0,0,1,.451.219c.347.664.708,1.323,1.02,2a1.243,1.243,0,0,1-.593,1.469A1.449,1.449,0,0,1,588.739-403.432Z" transform="translate(-575.64 420.224)" fill="#1d272b"/>
      <path id="Trazado_163917" data-name="Trazado 163917" d="M1647.121-517.763a1.487,1.487,0,0,1-1.477,1.468,1.488,1.488,0,0,1-1.492-1.474,1.493,1.493,0,0,1,1.487-1.482A1.5,1.5,0,0,1,1647.121-517.763Zm-.991-.006a.5.5,0,0,0-.485-.5.5.5,0,0,0-.5.5.5.5,0,0,0,.5.484A.494.494,0,0,0,1646.13-517.769Z" transform="translate(-1590.713 527.685)" fill="#1d272b"/>
      <path id="Trazado_163918" data-name="Trazado 163918" d="M1670.633-404.436a1.478,1.478,0,0,1-1.489-1.453,1.483,1.483,0,0,1,1.452-1.493,1.479,1.479,0,0,1,1.516,1.446A1.471,1.471,0,0,1,1670.633-404.436Zm-.01-1.958a.488.488,0,0,0-.489.487.5.5,0,0,0,.511.491.493.493,0,0,0,.477-.5A.491.491,0,0,0,1670.623-406.395Z" transform="translate(-1614.715 420.244)" fill="#1d272b"/>
      <path id="Trazado_163919" data-name="Trazado 163919" d="M1576.492-413.515a1.237,1.237,0,0,1,1.229,1.231,1.245,1.245,0,0,1-1.259,1.225,1.259,1.259,0,0,1-1.224-1.246A1.241,1.241,0,0,1,1576.492-413.515Zm-.025,1.471a.25.25,0,0,0,.262-.226.242.242,0,0,0-.237-.259.244.244,0,0,0-.258.241A.251.251,0,0,0,1576.467-412.044Z" transform="translate(-1524.527 426.133)" fill="#1d272b"/>
      <path id="Trazado_163920" data-name="Trazado 163920" d="M1526.3,18.818a6.228,6.228,0,0,1-4.333-1.7,5.843,5.843,0,0,1-1.47-2.1c-.16-.4-.056-.652.346-.784a13.507,13.507,0,0,0,3.352-1.524,4.329,4.329,0,0,0,1.644-1.773.493.493,0,0,1,.84-.089c.469.48.929.974,1.43,1.42a8.32,8.32,0,0,0,3.281,1.957c.594.163.729.452.467.991a6.12,6.12,0,0,1-4.367,3.472,4.08,4.08,0,0,1-.487.078C1526.743,18.791,1526.48,18.805,1526.3,18.818Z" transform="translate(-1471.885 18.754)" fill="#1d272b"/>
      <path id="Trazado_163921" data-name="Trazado 163921" d="M422.368-15.166h-7.521c-.391,0-.538-.139-.579-.53-.182-1.735-.37-3.469-.55-5.2-.155-1.5-.3-3-.453-4.506-.059-.584-.122-1.167-.183-1.75-.007-.066-.011-.132-.013-.2a.508.508,0,0,1,.6-.548,9.279,9.279,0,0,0,4.025-.509,5.235,5.235,0,0,0,3.246-3.557,8.99,8.99,0,0,0,.357-2.277c.013-.323.141-.514.388-.561.284-.054.477.065.6.38a25.891,25.891,0,0,0,2.728,5.183,21.782,21.782,0,0,0,1.516,1.923A7.485,7.485,0,0,0,429.28-25.3a4.139,4.139,0,0,0,1.5.332c.432.011.621.207.582.634-.077.84-.168,1.679-.254,2.519q-.148,1.456-.3,2.911c-.11,1.082-.215,2.165-.33,3.246-.038.355-.217.5-.588.5Zm-4.615-6.14a2.24,2.24,0,0,0,2.24-2.173,2.242,2.242,0,0,0-2.181-2.256,2.246,2.246,0,0,0-2.281,2.2A2.235,2.235,0,0,0,417.754-21.306Zm5.7,2.719a1.711,1.711,0,0,0-1.7-1.734,1.718,1.718,0,0,0-1.751,1.669,1.729,1.729,0,0,0,1.694,1.77A1.731,1.731,0,0,0,423.45-18.587Zm4.949-3.962a1.728,1.728,0,0,0-1.716-1.707,1.724,1.724,0,0,0-1.742,1.722,1.725,1.725,0,0,0,1.746,1.719A1.728,1.728,0,0,0,428.4-22.549Z" transform="translate(-408.362 62.429)" fill="#1d272b"/>
      <path id="Trazado_163922" data-name="Trazado 163922" d="M583.6-228.559a2,2,0,0,1-1.487-.709,1.344,1.344,0,0,1-.179-1.627c.343-.577.686-1.155,1.023-1.735.1-.17.18-.35.267-.527a.5.5,0,0,1,.422-.313.478.478,0,0,1,.478.252c.346.575.691,1.151,1.03,1.73.126.216.229.445.355.661a1.354,1.354,0,0,1-.3,1.671A2.177,2.177,0,0,1,583.6-228.559Z" transform="translate(-570.355 253.217)" fill="#1d272b"/>
      <path id="Trazado_163923" data-name="Trazado 163923" d="M501.509,222.075a1.228,1.228,0,1,0-1.228-1.256A1.236,1.236,0,0,0,501.509,222.075Z" transform="translate(-492.121 -181.937)" fill="#1d272b"/>
      <path id="Trazado_163924" data-name="Trazado 163924" d="M614.418,357.09a.726.726,0,0,0-.721-.735.734.734,0,0,0-.759.741.74.74,0,0,0,1.48-.006Z" transform="translate(-600.318 -313.261)" fill="#1d272b"/>
      <path id="Trazado_163925" data-name="Trazado 163925" d="M738.006,257.542a.738.738,0,1,0,.752-.749A.745.745,0,0,0,738.006,257.542Z" transform="translate(-720.435 -217.64)" fill="#1d272b"/>
      <path id="Trazado_163926" data-name="Trazado 163926" d="M501.509,222.075a1.228,1.228,0,1,1,1.253-1.23A1.243,1.243,0,0,1,501.509,222.075Z" transform="translate(-492.121 -181.937)" fill="#1d272b"/>
      <path id="Trazado_163927" data-name="Trazado 163927" d="M614.418,357.09a.74.74,0,0,1-1.48.006.734.734,0,0,1,.759-.741A.726.726,0,0,1,614.418,357.09Z" transform="translate(-600.318 -313.261)" fill="#1d272b"/>
      <path id="Trazado_163928" data-name="Trazado 163928" d="M738.006,257.542a.738.738,0,1,1,.733.73A.738.738,0,0,1,738.006,257.542Z" transform="translate(-720.435 -217.64)" fill="#1d272b"/>
    </g>
  </g>
</svg>
