<svg id="icon8" xmlns="http://www.w3.org/2000/svg" xmlns:xlink="http://www.w3.org/1999/xlink" width="114.636" height="114.636" viewBox="0 0 114.636 114.636">
  <defs>
    <radialGradient id="radial-gradient" cx="0.076" cy="0.019" r="1.465" gradientTransform="translate(0.001)" gradientUnits="objectBoundingBox">
      <stop offset="0" stop-color="#f6f6f7"/>
      <stop offset="0.477" stop-color="#f9f9fa"/>
      <stop offset="0.715" stop-color="#fff"/>
    </radialGradient>
  </defs>
  <g id="Grupo_18423" data-name="Grupo 18423" transform="translate(0 0)">
    <g id="Grupo_18421" data-name="Grupo 18421">
      <g id="Grupo_18420" data-name="Grupo 18420">
        <g id="Grupo_18419" data-name="Grupo 18419">
          <path id="Trazado_40936" data-name="Trazado 40936" d="M309.259,2203.037a57.318,57.318,0,1,1-57.317-57.316A57.317,57.317,0,0,1,309.259,2203.037Z" transform="translate(-194.623 -2145.721)" fill="#fff"/>
        </g>
      </g>
    </g>
    <path id="Trazado_40937" data-name="Trazado 40937" d="M308.648,2202.372a57.316,57.316,0,1,0-57.317,57.319A57.091,57.091,0,0,0,308.648,2202.372Z" transform="translate(-194.013 -2145.056)" fill="url(#radial-gradient)"/>
    <path id="Trazado_40938" data-name="Trazado 40938" d="M289.672,2196.986a43.75,43.75,0,1,0-43.75,43.75A43.587,43.587,0,0,0,289.672,2196.986Z" transform="translate(-188.43 -2139.479)" fill="none" stroke="#1d272b" stroke-miterlimit="10" stroke-width="4"/>
    <g id="Grupo_18422" data-name="Grupo 18422" transform="translate(10.154 32.18)">
      <path id="Trazado_40939" data-name="Trazado 40939" d="M299.231,2164.488a57.325,57.325,0,0,1-98.686,57.081,57.143,57.143,0,0,0,98.686-57.081Z" transform="translate(-200.545 -2164.488)" fill="#eceef0"/>
    </g>
  </g>
  <g id="LLKVWg.tif" transform="translate(53.007 293.601)">
    <g id="Grupo_128132" data-name="Grupo 128132" transform="translate(-22.151 -266.398)">
      <path id="Trazado_165068" data-name="Trazado 165068" d="M279.553-210.166c-.314-.234-.608-.486-.537-.936.074-.471.429-.638.832-.766.714-.227,1.427-.456,2.128-.721a.564.564,0,0,0,.31-.406c.019-2.4.014-4.793.014-7.277-.739,0-1.462,0-2.185,0-.846,0-1.109-.265-1.109-1.118q0-11.721,0-23.442c0-2.183,1.07-3.332,3.291-3.469-.1-.134-.166-.248-.25-.349a5.663,5.663,0,0,1-1.388-3.778c.01-1.425.051-2.851.1-4.275a5.536,5.536,0,0,1,.193-.912c-.856,0-1.69,0-2.525,0-.679,0-1.068-.31-1.063-.831s.389-.813,1.079-.815c1.024,0,2.048,0,3.137,0,.13-.95.261-1.884.386-2.818.085-.634.151-1.271.244-1.9a2.763,2.763,0,0,1,3.873-2.177.908.908,0,0,0,.636.018,2.767,2.767,0,0,1,3.931,2.278c.181,1.451.376,2.9.568,4.351a2.073,2.073,0,0,0,.072.253c1.062,0,2.12-.026,3.175.017a1.281,1.281,0,0,1,.843.367.85.85,0,0,1,.048.793,1.051,1.051,0,0,1-.732.449c-.892.054-1.79.021-2.74.021a18.308,18.308,0,0,1,.3,4.87,5.811,5.811,0,0,1-1.51,4.227c-.044.049-.079.107-.046.062a15.7,15.7,0,0,1,1.98.808,2.21,2.21,0,0,1,.843.979,1.259,1.259,0,0,0,.976.775,6.163,6.163,0,0,1,4.8,5.061,1.446,1.446,0,0,0,.1.244v1.647a2.368,2.368,0,0,0-.1.3,6.248,6.248,0,0,1-4.054,4.8c-.418.164-.867.249-1.333.379v.608q0,5.708,0,11.415c0,.921-.248,1.168-1.168,1.169-.7,0-1.408,0-2.126,0,0,2.468,0,4.846-.006,7.223a.434.434,0,0,0,.377.491c.7.21,1.384.466,2.08.688.4.129.758.3.832.766.071.45-.223.7-.536.936h-.549q-1.5-.522-2.991-1.043c-.731-.253-.853-.419-.853-1.2q0-3.622,0-7.244v-.583h-4.942c0,2.653-.009,5.268.007,7.882a1.026,1.026,0,0,1-.808,1.127c-1.023.325-2.03.7-3.043,1.057Zm11.064-45.284c-.157-.664-.269-1.25-.448-1.815a.606.606,0,0,0-.461-.318c-2.194-.024-4.388-.024-6.582-.017-.138,0-.351.066-.4.166a3.42,3.42,0,0,0-.389,1.983c2.049.146,3.053,1.1,3.266,3.044a.838.838,0,0,0,.8.821c.447.01.734-.338.845-.84a5.661,5.661,0,0,1,.551-1.686A2.956,2.956,0,0,1,290.617-255.45Zm3.233,20.233a4.623,4.623,0,0,0,3.818-4.823c-.107-2.123-1.952-4.186-3.818-4.247ZM284.008-246.6a7.157,7.157,0,0,0,1.56,3.836V-246.6Zm4.8.012h-1.525v3.812A7.234,7.234,0,0,0,288.811-246.592Z" transform="translate(-244.398 266.398)" fill="#1d272b"/>
      <path id="Trazado_165069" data-name="Trazado 165069" d="M48.482-156.885c-.315-.234-.608-.486-.537-.936.074-.471.429-.638.832-.766.679-.215,1.348-.461,2.031-.666.308-.092.455-.224.429-.571-.034-.454-.008-.913-.008-1.454H49.589c-.769,0-1.537.006-2.306,0-.722-.007-1.045-.345-.982-1.065.22-2.515.453-5.028.683-7.542.314-3.424.646-6.847.936-10.274a7.9,7.9,0,0,1,1.471-4.181.829.829,0,0,0,.181-.439c.016-1.041.008-2.083.008-3.183a2.6,2.6,0,0,1-2.552-.607,3.072,3.072,0,0,1-.747-2.555H42.991c0,.774.009,1.553,0,2.331-.009.623-.434,1.031-.958.918a.831.831,0,0,1-.687-.92c0-.765,0-1.53,0-2.352a2.773,2.773,0,0,1-2.732-.956,3.2,3.2,0,0,1-.533-1.617c-.029-1.473.923-2.148,3.233-2.421v-2.373c-.125-.028-.262-.066-.4-.087a2.194,2.194,0,0,1-1.777-1.15,11.711,11.711,0,0,1-.967-3.036,2.438,2.438,0,0,1,1.456-2.5,3.035,3.035,0,0,0,.609-.442,2.743,2.743,0,0,1,3.86-.011,3.1,3.1,0,0,0,.656.473,2.751,2.751,0,0,1,1.188,3.634,1.637,1.637,0,0,0-.2.444,2.808,2.808,0,0,1-2.7,2.655v5.706h3.227a2.532,2.532,0,0,1,4.323-1.391A3.928,3.928,0,0,1,53.594-195c1.317.022,2.636.028,3.953,0a3.522,3.522,0,0,1,2.564.781,2.537,2.537,0,0,1,2.44-.687A2.448,2.448,0,0,1,64.4-192.6c.021.75.017,1.5,0,2.251a2.463,2.463,0,0,1-3.012,2.423c-.071-.014-.143-.021-.278-.041,0,1.092,0,2.165.005,3.238a.522.522,0,0,0,.117.3,9.174,9.174,0,0,1,1.635,5.253c.368,4.319.778,8.635,1.171,12.952.118,1.293.243,2.586.35,3.88.059.721-.26,1.062-.981,1.066-1.3.007-2.59,0-3.945,0,0,.57-.02,1.1.014,1.618a.53.53,0,0,0,.307.352c.7.26,1.414.493,2.128.721.4.129.758.3.833.766.071.45-.223.7-.536.936h-.549c-1.031-.361-2.056-.736-3.094-1.075a.962.962,0,0,1-.755-1.051c.02-.743,0-1.486,0-2.228H52.876c0,.75-.02,1.462.006,2.172a1.01,1.01,0,0,1-.809,1.126c-1.023.325-2.029.7-3.042,1.056Zm13.651-11.671c-.018-.373-.02-.573-.038-.772-.306-3.387-.622-6.773-.916-10.16a6.818,6.818,0,0,0-1.057-3.631.882.882,0,0,0-.607-.327q-4.17-.034-8.341,0a.875.875,0,0,0-.607.327,5.712,5.712,0,0,0-.99,2.92c-.233,2.659-.485,5.316-.726,7.975-.107,1.178-.205,2.357-.319,3.672a9.449,9.449,0,0,0,1.32-.355,1.177,1.177,0,0,1,1.094,0,2.324,2.324,0,0,0,2.213,0,1.108,1.108,0,0,1,1.092,0,2.323,2.323,0,0,0,2.213-.009,1.111,1.111,0,0,1,1.092.015,2.544,2.544,0,0,0,2.222,0,2.022,2.022,0,0,1,1.03-.012A12.928,12.928,0,0,1,62.134-168.555Zm-2.682-16.562v-.5c0-2.047,0-4.094,0-6.141a1.409,1.409,0,0,0-1.591-1.581q-2.495-.01-4.989-.009a1.428,1.428,0,0,0-1.637,1.644q0,3.016,0,6.031c0,.175.016.35.026.552h8.192ZM62.3-166.862c-.677-.148-1.294-.288-1.913-.413a.675.675,0,0,0-.313.051,5.949,5.949,0,0,1-2.805.044,15.391,15.391,0,0,0-2.834.082c-.139,0-.279-.094-.422-.107a1.66,1.66,0,0,0-.621.005,4.244,4.244,0,0,1-2.694-.014.781.781,0,0,0-.365-.074c-.638.124-1.272.27-1.956.419l-.351,3.9H62.66ZM49.578-191.394c0-.384.018-.768,0-1.151a.816.816,0,0,0-.809-.8.8.8,0,0,0-.82.788c-.025.748-.024,1.5,0,2.247a.807.807,0,0,0,.807.8.816.816,0,0,0,.823-.789C49.6-190.662,49.577-191.029,49.578-191.394Zm11.543-.078c0,.384-.018.77,0,1.153a.815.815,0,0,0,.809.8.8.8,0,0,0,.812-.8c.025-.731.023-1.464,0-2.2a.81.81,0,0,0-.837-.83.818.818,0,0,0-.787.826C61.1-192.168,61.12-191.82,61.121-191.472Zm-19.8-2.977c-.533.043-1.122-.189-1.452.375a1.025,1.025,0,0,0-.028.852c.319.608.926.395,1.48.406Z" transform="translate(-31.45 213.117)" fill="#1d272b"/>
      <path id="Trazado_165071" data-name="Trazado 165071" d="M-21.593,82.911a1.2,1.2,0,0,1-.558-1.157c.016-4.046,0-8.091.01-12.137a6.6,6.6,0,0,1,6.616-6.7,6.605,6.605,0,0,1,6.561,6.7c.007,4.046-.005,8.091.01,12.137a1.2,1.2,0,0,1-.558,1.157Zm10.947-1.7v-.665q0-5.185,0-10.37a11.413,11.413,0,0,0-.1-1.529,4.907,4.907,0,0,0-5.437-3.993,4.9,4.9,0,0,0-4.277,5.027c-.008,3.676,0,7.353,0,11.029,0,.16.014.319.022.5Z" transform="translate(22.151 -26.679)" fill="#1d272b"/>
      <path id="Trazado_165074" data-name="Trazado 165074" d="M154.108-213.536c0,.86.007,1.72,0,2.579-.007.689-.359,1.087-1.027.945a14.309,14.309,0,0,0-2.937-.029,17.16,17.16,0,0,0-3.592.053.122.122,0,0,1-.055,0,5.817,5.817,0,0,0-2.883-.02.765.765,0,0,1-1.018-.721,56.756,56.756,0,0,1,.117-6.025,5.611,5.611,0,0,1,5.654-4.759,5.7,5.7,0,0,1,5.624,4.75c.153,1.061.116,2.15.165,3.226Zm-9.882,1.848c.634-.619,1.172-.275,1.738-.064a2.184,2.184,0,0,0,1.809-.137,1.137,1.137,0,0,1,1.141,0,2.145,2.145,0,0,0,1.756.141c.578-.208,1.13-.57,1.774.023,0-1.554.059-2.946-.014-4.331a4.093,4.093,0,0,0-4.191-3.81,4.115,4.115,0,0,0-4.009,4C144.205-214.544,144.226-213.227,144.226-211.688Z" transform="translate(-124.445 226.453)" fill="#1d272b"/>
    </g>
  </g>
</svg>
