<svg xmlns="http://www.w3.org/2000/svg" xmlns:xlink="http://www.w3.org/1999/xlink" width="250.773" height="245.22" viewBox="0 0 250.773 245.22">
  <defs>
    <clipPath id="clip-path">
      <rect id="Rectángulo_34993" data-name="Rectángulo 34993" width="157.708" height="210.66" transform="translate(0 0.217) rotate(-0.079)" fill="none"/>
    </clipPath>
    <linearGradient id="linear-gradient" x1="0.5" x2="0.5" y2="1" gradientUnits="objectBoundingBox">
      <stop offset="0" stop-color="#f5f5f5"/>
      <stop offset="0.25" stop-color="#f5f5f5"/>
      <stop offset="1" stop-color="#a7b3cf"/>
    </linearGradient>
  </defs>
  <g id="img1" transform="translate(-227 -1274.782)">
    <g id="Grupo_107070" data-name="Grupo 107070" transform="translate(235.473 1274.782)">
      <path id="Trazado_151846" data-name="Trazado 151846" d="M289.564,337.892c9.095-15.536,11.682-35.7,6.867-53.505-3.045-11.257-8.888-21.715-9.635-33.454-1.494-23.47,17.34-42.444,21.247-65.559,1.717-10.159-.156-21.994-7.518-28.164-7.271-6.095-17.649-4.851-25.88-.582s-15.2,11.1-23.1,16.1-17.635,8.083-25.981,4.108c-8.454-4.027-13.249-14.178-15.936-24.071s-4-20.43-8.589-29.393c-7.555-14.772-23.665-22.826-38.676-20.742s-28.425,13.5-35.619,28.5-8.452,33.14-4.871,49.707c1.817,8.4,4.809,16.448,6.441,24.9s1.781,17.7-1.862,25.311c-7.619,15.916-27.717,18.136-38.242,31.786-8.687,11.266-8.959,28.458-4.03,42.312s14.195,25.095,23.432,35.789c43.085,1.633,86.943,1.741,130.029,3.374C254.387,344.938,272.839,339,289.564,337.892Z" transform="translate(-80.961 -99.13)" fill="#a4a4b4" opacity="0.354" style="mix-blend-mode: multiply;isolation: isolate"/>
      <path id="Trazado_151847" data-name="Trazado 151847" d="M359.21,166.618c-.114,12.187,11.471,22.793,9.455,34.812-1.078,6.431-5.978,12.95-3.13,18.816,2.519,5.19,9.735,6.09,15.253,4.4,12.915-3.951,20.765-17.153,24.519-30.127,3.531-12.2,4.408-25.834-1.247-37.211-4.557-9.166-15.071-17.257-25.747-16.509C368.532,141.489,359.3,157.439,359.21,166.618Z" transform="translate(-165.828 -110.859)" fill="#a4a4b4" opacity="0.31" style="mix-blend-mode: multiply;isolation: isolate"/>
      <path id="Trazado_151848" data-name="Trazado 151848" d="M113.307,135.6a49.43,49.43,0,0,0-.986,48.1c2.537,4.656,5.964,8.995,10.592,11.583s10.6,3.166,15.2.539c6.985-3.984,8.53-13.382,7.974-21.4s-2.373-16.432.716-23.856c2.014-4.839,5.881-8.612,9.312-12.575s6.632-8.589,6.81-13.828c.459-13.58-13.958-12.566-22.647-9.745A49.381,49.381,0,0,0,113.307,135.6Z" transform="translate(-88.768 -102.29)" fill="#a4a4b4" opacity="0.31" style="mix-blend-mode: multiply;isolation: isolate"/>
      <g id="Grupo_107069" data-name="Grupo 107069" transform="translate(4.827)" style="mix-blend-mode: multiply;isolation: isolate">
        <path id="Trazado_151849" data-name="Trazado 151849" d="M289.531,340.016l-.926-.953c2.549-3.141,6.618-10.34,5.241-23.284a112.5,112.5,0,0,0-3.6-16.958c-.656-2.459-1.335-5-1.928-7.527-6.322-26.941-3.556-56.661,7.587-81.539.99-2.208,2.061-4.423,3.1-6.565,3.071-6.35,6.247-12.917,7.612-20.011,2.395-12.448-2.339-21.778-7.751-25.179-5.192-3.264-12.522-2.765-20.108,1.369a94.862,94.862,0,0,0-8.081,5.15,72.407,72.407,0,0,1-10.838,6.539c-15.057,6.809-33.882,1.022-43.788-13.459-4.761-6.959-7.449-15.369-10.048-23.5-1.007-3.152-2.049-6.411-3.194-9.53-3.563-9.7-10.083-21.867-20.914-24.778-9.517-2.559-19.157,3.065-25.566,8.234a69.809,69.809,0,0,0-24.34,37.712c-2.315,9.73-2.408,20.321-2.5,30.563-.134,15.252-.273,31.024-7.915,43.726-3.476,5.778-8.258,10.388-12.881,14.847-4.33,4.175-8.808,8.493-12.146,13.727-7.564,11.859-9.418,28.648-5.087,46.064,3.892,15.647,11.825,29.531,19.5,42.958l-1.054.765c-7.722-13.514-15.708-27.489-19.65-43.342-4.435-17.831-2.512-35.061,5.276-47.27,3.426-5.372,7.963-9.746,12.349-13.976,4.561-4.4,9.277-8.946,12.659-14.566,7.429-12.349,7.56-27.212,7.7-42.947.091-10.33.185-21.012,2.542-30.916a71.239,71.239,0,0,1,24.821-38.5c6.621-5.34,16.608-11.142,26.587-8.459,11.346,3.05,18.108,15.611,21.782,25.612,1.157,3.149,2.2,6.425,3.216,9.592,2.567,8.031,5.22,16.335,9.861,23.118,9.576,14,27.773,19.592,42.329,13.01a71.609,71.609,0,0,0,10.654-6.434,95.617,95.617,0,0,1,8.186-5.216c7.958-4.337,15.709-4.824,21.265-1.332,5.8,3.647,10.9,13.563,8.366,26.713-1.4,7.293-4.623,13.95-7.737,20.388-1.031,2.132-2.1,4.337-3.078,6.525-11.007,24.572-13.738,53.928-7.493,80.54.587,2.5,1.263,5.033,1.916,7.481a113.816,113.816,0,0,1,3.648,17.2C296.529,329.114,292.225,336.7,289.531,340.016Z" transform="translate(-87.906 -97.739)" fill="#a4a4b4"/>
      </g>
    </g>
    <g id="Grupo_127575" data-name="Grupo 127575" transform="translate(168.193 1224.75)">
      <g id="Grupo_127551" data-name="Grupo 127551" transform="translate(101.268 83.986)">
        <g id="Grupo_127550" data-name="Grupo 127550" clip-path="url(#clip-path)">
          <g id="Grupo_127549" data-name="Grupo 127549" transform="translate(4.166 9.515)">
            <g id="Grupo_127547" data-name="Grupo 127547">
              <path id="Trazado_163421" data-name="Trazado 163421" d="M399.988,672.523l27.378-.038a43.309,43.309,0,0,0-2.027-6.524l-27.89-3.12C398.552,671.052,399.988,672.523,399.988,672.523Z" transform="translate(-231.876 -314.121)" fill="#263238"/>
              <path id="Trazado_163422" data-name="Trazado 163422" d="M420.24,632.363c-.6,1.422-14.727,4.5-24.756-.98a19.1,19.1,0,0,1-3.138-2.137c-.2-1.494-.4-3.458-.667-5.882-.148-1.359-.306-2.874-.476-4.524-.117-1.066-.243-2.194-.37-3.375-.349-3.26-.77-4.764-1.266-8.859-.856-7.011-4.339-17.372-5.773-26.524l15.967-7.232c.272,15.4,1.063,20.928,3.383,28.23,1.239,3.906,3.836,8.6,6.7,13.334,2.545,4.218,5.31,8.478,7.5,12.237a.01.01,0,0,1,.011.011c.2.323.377.637.555.95A27.344,27.344,0,0,1,420.24,632.363Z" transform="translate(-226.777 -280.52)" fill="#ebebeb"/>
              <path id="Trazado_163423" data-name="Trazado 163423" d="M424.655,656.322c-.38,2.937-14.646,6.653-24.674,1.171-1.108-.6-2.236-3.465-3.22-4.289-.2-1.495-.4-3.458-.667-5.882-.148-1.359-.306-2.874-.476-4.524a14.743,14.743,0,0,0,3.586,1.516c1.122-5.272,2.875-6.9,9.28-7.249,2.57-.14,4.169-.048,5.77,1.308,1.936,1.638,3.874,5.115,7.5,12.237a.01.01,0,0,1,.011.011Q423.052,653.142,424.655,656.322Z" transform="translate(-231.192 -304.479)" fill="#263238"/>
              <path id="Trazado_163424" data-name="Trazado 163424" d="M255.719,668.533l.858,6.211-57.807.08,1.211-5Z" transform="translate(-157.693 -316.246)" fill="#263238"/>
              <path id="Trazado_163425" data-name="Trazado 163425" d="M256.943,638.62s-17.415,1.292-33.3,1.758c-9.223.262-17.1.372-21.6-.348a123.28,123.28,0,0,0,15.237-6.417c13.218-6.325,17.7-10.9,16.289-21.745-1.1-8.409-3.429-20.963-3.429-20.963l19.353-2.5s1.395,13.187,2.395,23.525C252.563,618.9,255.921,636.156,256.943,638.62Z" transform="translate(-158.916 -286.329)" fill="#ebebeb"/>
              <g id="Grupo_127529" data-name="Grupo 127529" transform="translate(64.662 136.924)">
                <g id="Grupo_127526" data-name="Grupo 127526">
                  <path id="Trazado_163426" data-name="Trazado 163426" d="M247.489,324.844c-2.585,11.937-4.611,18.265-7.763,39.449l65.15-.09c-.17-22.014-3.152-35.918-3.152-35.918Z" transform="translate(-237.647 -324.844)" fill="#263238"/>
                  <path id="Trazado_163427" data-name="Trazado 163427" d="M282.109,351.83c2.328,19.695,41.532,123.573,52.24,161.882,11.457,2.287,30.7-4.264,30.7-4.264-4.866-68.322-20.831-80.088-22.273-87.7s-12.389-63.931-25.145-92.871Z" transform="translate(-253.472 -326.35)" fill="#263238"/>
                  <path id="Trazado_163428" data-name="Trazado 163428" d="M246.251,324.844c-12.072,23.122-10.059,83.933-9.073,114.9s5.433,73.192,5.433,73.192,14.628,5.236,27.707.949c1.573-68.107,4.076-153.734,4.076-153.734Z" transform="translate(-236.409 -324.844)" fill="#263238"/>
                </g>
                <g id="Grupo_127528" data-name="Grupo 127528" transform="translate(1.328 5.229)">
                  <g id="Grupo_127527" data-name="Grupo 127527">
                    <path id="Trazado_163429" data-name="Trazado 163429" d="M286.628,361.567l-.007,0h0l.008,0Z" transform="translate(-256.484 -343.785)" fill="#38474f"/>
                    <path id="Trazado_163430" data-name="Trazado 163430" d="M240.916,349.444a19.02,19.02,0,0,0,6.187-6.232,18.679,18.679,0,0,0,2.465-6.21c1.19-.041,2.382-.122,3.539-.145,2.206-.044,4.411-.081,6.616-.134.879-.021,1.758-.05,2.637-.073a79.657,79.657,0,0,0,1.606,9.614.655.655,0,0,0,.3.414,1.565,1.565,0,0,0,.929,1.492,2.359,2.359,0,0,0,2.035-.088c1.257-.63,1.449-2.109,1.3-3.364-.33-2.746-.758-5.479-1.236-8.2,1.887-.05,3.773-.1,5.66-.155l4.089-.127a1.206,1.206,0,0,0-.214.774,34.505,34.505,0,0,0,1.54,6.366q.793,2.987,1.587,5.975,1.624,6.079,3.565,12.075c2.606,8.068,4.808,16.226,7.112,24.384a.444.444,0,0,0,.858-.226c-2-8.237-4.1-16.425-5.792-24.731q-1.259-6.166-2.831-12.269-.773-2.993-1.555-5.984a34.588,34.588,0,0,0-1.791-6.3,1.281,1.281,0,0,0-.081-.133q5.5-.171,11-.369a1.914,1.914,0,0,0,.148,1.182,23.144,23.144,0,0,0,5.644,7.522,23.4,23.4,0,0,0,8.287,4.6,1.119,1.119,0,0,0,1.352-.793,1.143,1.143,0,0,0-.793-1.352,21.8,21.8,0,0,1-11.651-11.268q3.1-.126,6.2-.275a1.061,1.061,0,0,0,0-2.12c-8.968-.14-17.935-.086-26.9-.06q-6.615.019-13.231.084c-2.206.024-4.411.06-6.616.09a53.965,53.965,0,0,0-7.043.216,1.665,1.665,0,0,0-1.226,1.844,1.714,1.714,0,0,0,1.658,1.467c.362.041.731.05,1.1.066a18.442,18.442,0,0,1-2.528,4.832,18.084,18.084,0,0,1-5.531,4.806A1.622,1.622,0,0,0,240.916,349.444ZM264.172,336.6c.543-.014,1.085-.03,1.628-.044.065,2.038.16,4.071.308,6.105q.061.841.123,1.683a4.438,4.438,0,0,1,.022,1.252c.005-.021-.058.187-.088.277h0v0h-.007l-.013,0-.011,0c-.1-.044-.188-.093-.284-.135a1.3,1.3,0,0,0-.487-.112A81.87,81.87,0,0,0,264.172,336.6Z" transform="translate(-238.527 -333.189)" fill="#38474f"/>
                  </g>
                  <path id="Trazado_163431" data-name="Trazado 163431" d="M262.032,365.078c.083-3.475.33-6.96.557-10.428q.173-2.634.345-5.268a15.015,15.015,0,0,1,.828-5.26,1.176,1.176,0,0,1,2.153.12,14.8,14.8,0,0,1,.04,5.252q-.233,2.622-.467,5.245c-.316,3.553-.561,7.155-1.079,10.686-.508,3.465-1,6.922-1.418,10.4-.436,3.619-1,7.234-1.31,10.866-.013.152-.242.106-.232-.043C261.945,379.48,261.86,372.255,262.032,365.078Z" transform="translate(-247.086 -337.03)" fill="#38474f"/>
                  <path id="Trazado_163432" data-name="Trazado 163432" d="M339.54,476.48c-2.062-6.842-3.886-13.752-5.965-20.589-.05-.164.2-.224.254-.067,2.2,5.98,4.569,11.892,6.828,17.849s4.3,11.961,6.371,17.969c4.12,11.932,8.233,23.867,12.178,35.858,2.1,6.386,4.3,12.749,6.324,19.16.226-.021.45-.048.676-.068,2.413-.219,4.82-.333,7.242-.415,2.49-.084,4.977.055,7.461-.029.694-.023.867,1.1.16,1.226-2.363.426-4.681,1.068-7.05,1.5-2.451.442-4.9.856-7.369,1.157-2.41.294-4.827.533-7.241.788-2.378.251-4.98.8-7.333.18a1.239,1.239,0,0,1-.3-2.252c2.109-1.071,4.653-1.117,6.968-1.366,1.372-.147,2.744-.3,4.116-.446-4.069-11.414-7.872-22.948-11.657-34.456C347.267,500.5,343.178,488.551,339.54,476.48Z" transform="translate(-274.014 -378.944)" fill="#38474f"/>
                  <path id="Trazado_163433" data-name="Trazado 163433" d="M248.758,544.83a6.8,6.8,0,0,1,2.9.167c.491.08.984.15,1.475.227q-.265-20.579-.466-41.158c-.133-13.983-.365-27.98-.2-41.963.047-3.976.085-7.952.175-11.927s.31-7.952.3-11.927a.4.4,0,0,1,.79,0c.153,7.066.7,14.135.954,21.2.248,6.918.385,13.839.51,20.761q.379,20.98.653,41.962c.113,7.824.181,15.648.267,23.471,1.335.17,2.671.331,4.013.457a71.958,71.958,0,0,0,11.5.4.667.667,0,0,1,.17,1.308,68.2,68.2,0,0,1-11.884,1.356,45.023,45.023,0,0,1-5.961-.372c-1.872-.244-4.346-.307-5.861-1.512A1.473,1.473,0,0,1,248.758,544.83Z" transform="translate(-241.934 -372.274)" fill="#38474f"/>
                </g>
              </g>
              <g id="Grupo_127530" data-name="Grupo 127530" transform="translate(64.173 51.013)">
                <path id="Trazado_163434" data-name="Trazado 163434" d="M296.66,188.242c-10.838-2.463-28.83,4.948-28.83,4.948s-22.276,5.93-29.578,10.741,2.958,51.307,3.022,67.877l60.589,1.768C306.1,236.373,314.977,192.4,296.66,188.242Z" transform="translate(-235.629 -187.741)" fill="#ebebeb"/>
              </g>
              <path id="Trazado_163435" data-name="Trazado 163435" d="M272.5,283.363s-.035-30.833.634-41.6c.862-13.893,2.288-29.185,2.288-29.185l13.033-1c-3.764,13.275-5.985,72.418-5.985,72.418Z" transform="translate(-185.222 -145.628)" fill="#1d272b"/>
              <path id="Trazado_163436" data-name="Trazado 163436" d="M255.2,294.071s-2.679,49.8-4.118,59.882-5.921,11.439-26.73,1.513c1.427-10.275,3.149-20.823,4.918-30.791.192-1.045.372-2.078.563-3.111,4.867-26.931,9.876-48.914,9.876-48.914Z" transform="translate(-167.246 -168.431)" fill="#ebebeb"/>
              <path id="Trazado_163437" data-name="Trazado 163437" d="M283.313,278.461s9.577,61.75,15.951,72.673,44.117-6.486,44.117-6.486c-6.563-30.332-27.141-96.653-27.141-96.653Z" transform="translate(-189.26 -159.226)" fill="#ebebeb"/>
              <g id="Grupo_127532" data-name="Grupo 127532" transform="translate(59.947 114.52)">
                <path id="Trazado_163438" data-name="Trazado 163438" d="M348.643,353.339q-1.144.469-2.289.926c-.938-4.317-2.16-8.589-3.257-12.849-1.5-5.825-3.027-11.646-4.681-17.429s-3.283-11.575-4.852-17.384-3.4-11.545-5.015-17.341a.24.24,0,0,0-.463.122c1.382,5.859,2.552,11.762,3.986,17.612s2.8,11.7,4.149,17.569,2.82,11.7,4.321,17.524c1.122,4.356,2.133,8.786,3.437,13.109a105.13,105.13,0,0,1-15.05,4.713c-6.041,1.341-12.653,2.838-18.649.738a.77.77,0,0,0-.855,1.115c1.76,2.751,5.13,3.031,8.1,2.842a66.789,66.789,0,0,0,10.839-1.748,80.135,80.135,0,0,0,16.283-5.551q.358,1.089.75,2.166a.958.958,0,0,0,1.852-.488c-.142-.916-.309-1.829-.486-2.741.909-.479,1.805-.976,2.683-1.5C350.36,354.191,349.576,352.957,348.643,353.339Z" transform="translate(-258.918 -289.09)" fill="#dbdbdb"/>
                <g id="Grupo_127531" data-name="Grupo 127531" transform="translate(0 64.171)">
                  <path id="Trazado_163439" data-name="Trazado 163439" d="M248.8,396.27a36.914,36.914,0,0,1-13.734-2.622c-.69-.287-1.369-.6-2.035-.944a13.5,13.5,0,0,0-2.355-1.152,1.457,1.457,0,0,0-1.385,2.423c1.187,1.165,3.149,1.793,4.676,2.387a27.357,27.357,0,0,0,4.918,1.447,28.938,28.938,0,0,0,10.137.153C250.008,397.8,249.757,396.274,248.8,396.27Z" transform="translate(-228.884 -391.498)" fill="#dbdbdb"/>
                </g>
              </g>
              <path id="Trazado_163440" data-name="Trazado 163440" d="M332.306,348.144c-1.539-.781-3.545.408-5.036.921-1.548.533-3.109,1.038-4.674,1.517s-3.144.9-4.723,1.318a45.837,45.837,0,0,1-5.08,1.228c-.882.129-.689,1.62.2,1.553,1.734-.132,3.473-.095,5.2-.274s3.47-.47,5.188-.821a47.742,47.742,0,0,0,5.085-1.332c1.6-.514,3.809-.921,4.455-2.641A1.31,1.31,0,0,0,332.306,348.144Z" transform="translate(-200.053 -196.523)" fill="#dbdbdb"/>
              <path id="Trazado_163441" data-name="Trazado 163441" d="M281.5,171.27l12.8,3.786,4.216,7.032-25.449,7.194-2.744-8.379Z" transform="translate(-184.41 -130.578)" fill="#1d272b"/>
              <g id="Grupo_127535" data-name="Grupo 127535" transform="translate(0 41.734)">
                <path id="Trazado_163442" data-name="Trazado 163442" d="M190.218,273.184c7.669-5.928,39.032-26.648,43.012-48.575,2.93-16.143-9.071-22.273-21.216-11.488s-40.653,37.749-40.653,37.749Z" transform="translate(-147.459 -185.921)" fill="#ebebeb"/>
                <path id="Trazado_163443" data-name="Trazado 163443" d="M138.059,230.793l8.449,31.373a18.544,18.544,0,0,0,26.034,11.844l2.115-1.031-28.781-42.2Z" transform="translate(-135.025 -194.53)" fill="#ac635b"/>
                <g id="Grupo_127534" data-name="Grupo 127534">
                  <path id="Trazado_163444" data-name="Trazado 163444" d="M150.479,204.644l4.51-9.3a1.834,1.834,0,0,0-.78-2.416h0a1.835,1.835,0,0,0-2.169.318l-6.763,6.773Z" transform="translate(-137.72 -180.318)" fill="#824645"/>
                  <path id="Trazado_163445" data-name="Trazado 163445" d="M147.132,211.774c3,12.109,2.024,19.829-8.026,20.385l-4.73-14.972Z" transform="translate(-133.65 -187.436)" fill="#ac635b"/>
                  <path id="Trazado_163446" data-name="Trazado 163446" d="M172.881,182.3l-10.37-.266-15.267,11.084a1.542,1.542,0,1,0,1.882,2.443l13.9-11.562,9.884-1.025a.338.338,0,0,0-.026-.674Z" transform="translate(-138.219 -176.33)" fill="#263238"/>
                  <g id="Grupo_127533" data-name="Grupo 127533" transform="translate(32.23)">
                    <path id="Trazado_163447" data-name="Trazado 163447" d="M185.659,182.305c-1.095-1.619-1.218-4.431-.751-6.289.449-1.793,2.365-3.971,4.062-2.705,1.275.951.261,2.95.382,4.238.138,1.483,1.7,3.021.94,4.53A2.737,2.737,0,0,1,185.659,182.305Z" transform="translate(-184.651 -172.934)" fill="#008f85"/>
                    <path id="Trazado_163448" data-name="Trazado 163448" d="M186.743,181.152a5.1,5.1,0,0,1-.6-1.106,3.415,3.415,0,0,1-.258-1.226,5.694,5.694,0,0,1,.158-1.334c.034-.144-.185-.248-.251-.1a3.97,3.97,0,0,0-.346,1.328c-.02.239,0,.477-.009.716a4.451,4.451,0,0,0,.029.759,4.686,4.686,0,0,0,.418,1.411,5.822,5.822,0,0,0,.347.623c.211.326.445.585.866.508a.491.491,0,0,0,.358-.358C187.579,181.836,187.009,181.539,186.743,181.152Z" transform="translate(-184.944 -174.569)" fill="#90b9d1"/>
                    <path id="Trazado_163449" data-name="Trazado 163449" d="M190.36,186.175a.43.43,0,0,0-.078-.149s0-.006,0-.009l-.005-.005c-.008-.01-.009-.024-.018-.034a.444.444,0,0,0-.084-.076c-.018-.016-.028-.039-.048-.052-.006-.006-.015-.006-.021-.011s-.009-.011-.015-.014l-.055-.023a.418.418,0,0,0-.107-.055l-.145-.019a.57.57,0,0,0-.282.075l-.122.093a.569.569,0,0,0-.149.259l-.019.1a.43.43,0,0,0-.009.218.426.426,0,0,0,.065.209l.093.122a.427.427,0,0,0,.19.12.28.28,0,0,0,.142.037.427.427,0,0,0,.217-.009l.137-.056a.582.582,0,0,0,.215-.216l.043-.074a.43.43,0,0,0,.065-.21A.437.437,0,0,0,190.36,186.175Z" transform="translate(-186.346 -177.711)" fill="#90b9d1"/>
                  </g>
                  <path id="Trazado_163450" data-name="Trazado 163450" d="M172.018,180.105l-10.373,0L146.664,191.57a1.543,1.543,0,1,0,1.944,2.394l13.6-11.911,9.854-1.276a.338.338,0,0,0-.043-.672Z" transform="translate(-138.014 -175.61)" fill="#38474f"/>
                  <path id="Trazado_163451" data-name="Trazado 163451" d="M147.908,188.809l-8.212,1.471a2.445,2.445,0,0,0-1.742,1.283L133.594,203.4a6.1,6.1,0,0,0-.026,4.149l5.636,15.9c.444-2.112,5.144-2.748,6.467-8.12,1.872-5.638-3.307-16.481-3.307-16.481l.279-4.606,6.177-2.532a1.528,1.528,0,0,0,.9-1.773A1.565,1.565,0,0,0,147.908,188.809Z" transform="translate(-133.217 -178.852)" fill="#ac635b"/>
                  <path id="Trazado_163452" data-name="Trazado 163452" d="M143.936,202.4c4.327-.071,6.242,2.341,5.06,4.6,1,2.312.472,3.84-1.271,5.086a2.437,2.437,0,0,1,2.784,3.533c-.683,1.257-5.45,3.99-5.45,3.99l-6.78-11.563Z" transform="translate(-135.108 -183.934)" fill="#ac635b"/>
                  <path id="Trazado_163453" data-name="Trazado 163453" d="M142.457,202.515a3.361,3.361,0,0,0-1.532.168,5.641,5.641,0,0,0-1.444.752,11.019,11.019,0,0,0-2.349,2.122c-.117.148.13.35.258.211a7.763,7.763,0,0,1,2.4-1.841c.44-.2.9-.378,1.345-.562a13.9,13.9,0,0,0,1.375-.637A.114.114,0,0,0,142.457,202.515Z" transform="translate(-134.667 -183.97)" fill="#824645"/>
                  <path id="Trazado_163454" data-name="Trazado 163454" d="M148.986,208.291a4.441,4.441,0,0,1-.57-.107,4.374,4.374,0,0,0-.513-.017,7.055,7.055,0,0,0-1.031.132,6.845,6.845,0,0,0-2.075.7,7.427,7.427,0,0,0-2.949,3.066.162.162,0,0,0,.276.17,7.5,7.5,0,0,1,2.99-2.644,8.964,8.964,0,0,1,1.833-.735,7.25,7.25,0,0,1,.956-.164c.168-.021.335-.044.5-.06a2.12,2.12,0,0,1,.538-.069C149.154,208.609,149.181,208.281,148.986,208.291Z" transform="translate(-136.432 -186.089)" fill="#824645"/>
                  <path id="Trazado_163455" data-name="Trazado 163455" d="M150.064,216.385a1.451,1.451,0,0,0-.506.082,4.721,4.721,0,0,0-.53.19,3.7,3.7,0,0,0-.9.563,14.951,14.951,0,0,0-1.577,1.456.169.169,0,0,0,.23.246,10.89,10.89,0,0,1,1.737-1.157,8.038,8.038,0,0,0,.912-.548,2.979,2.979,0,0,0,.753-.618A.143.143,0,0,0,150.064,216.385Z" transform="translate(-138.176 -189.156)" fill="#824645"/>
                  <path id="Trazado_163456" data-name="Trazado 163456" d="M150.443,227.926a1.866,1.866,0,0,0-1.037,1.777c0,.9.476,1.729.473,2.637a3.787,3.787,0,0,1-.647,2.1,3.477,3.477,0,0,1-.733.785c-.31.244-.788.395-.952.77a.434.434,0,0,0,.335.593c.4.081.791-.269,1.067-.523a4.84,4.84,0,0,0,.738-.85,5.355,5.355,0,0,0,.87-2.089,5.035,5.035,0,0,0-.215-2.343c-.211-.711-.592-1.972.273-2.429C150.868,228.217,150.722,227.809,150.443,227.926Z" transform="translate(-138.554 -193.459)" fill="#824645"/>
                </g>
              </g>
              <g id="Grupo_127536" data-name="Grupo 127536" transform="translate(84.052 50.326)">
                <path id="Trazado_163457" data-name="Trazado 163457" d="M269.125,186.645l-1.773,3.772,1.8,12.855,9.86-9.01Z" transform="translate(-267.352 -186.645)" fill="#1d272b"/>
              </g>
              <path id="Trazado_163458" data-name="Trazado 163458" d="M176.256,285.947c-9.4,7.079-23.936,4.943-42.289-29.093L149.183,241.9l26.353,35.4Z" transform="translate(-133.497 -156.949)" fill="#ebebeb"/>
              <g id="Grupo_127539" data-name="Grupo 127539" transform="translate(65.245)">
                <path id="Trazado_163459" data-name="Trazado 163459" d="M271.923,113.513c-6.476-5.9-12.667-10.322-20.2-4.331s-9.09,6.976-9.09,6.976-5.611,9.765.858,18.173Z" transform="translate(-238.474 -106.331)" fill="#263238"/>
                <path id="Trazado_163460" data-name="Trazado 163460" d="M278.21,116.982c16.845-7.506,27.9,11.592,15.654,29.291Z" transform="translate(-252.599 -109.682)" fill="#263238"/>
                <path id="Trazado_163461" data-name="Trazado 163461" d="M292.488,183.22c.006,4.45-12.03,12.159-12.03,12.159s-4.693-6.006-5.516-10.614l-3.749-18.985,19.648-8.144,1.624,25C292.476,182.834,292.488,183.027,292.488,183.22Z" transform="translate(-249.979 -125.488)" fill="#ac635b"/>
                <path id="Trazado_163462" data-name="Trazado 163462" d="M288.152,169.5c.011,8.259-5.208,16.159-13.685,16.171l-2.527-12.342-.152-1.536Z" transform="translate(-250.201 -129.916)" fill="#263238"/>
                <path id="Trazado_163463" data-name="Trazado 163463" d="M245.416,153.182c2.476,4.634,6.757,8.5,11.893,9.562,7.117,1.484,14.407-2.641,18.918-8.342a27.306,27.306,0,0,0,5.237-11.2c1.919-8.792-.524-18.28-8.808-23.356-5.667-3.475-15.629-4.051-22.5-.727a13.077,13.077,0,0,0-6.217,5.764C239.824,133.045,241.226,145.354,245.416,153.182Z" transform="translate(-238.882 -110.281)" fill="#ac635b"/>
                <g id="Grupo_127537" data-name="Grupo 127537" transform="translate(36.43 23.662)">
                  <path id="Trazado_163464" data-name="Trazado 163464" d="M302.138,145.047c2.145-1.174,5.073-1.389,7.028.058a6.707,6.707,0,0,1,2.347,5.195,11,11,0,0,1-2.006,7.111,9.137,9.137,0,0,1-6.664,3.684,7.308,7.308,0,0,1-6.7-3.351C293.749,153.494,298.284,147.157,302.138,145.047Z" transform="translate(-295.476 -144.092)" fill="#ac635b"/>
                </g>
                <path id="Trazado_163465" data-name="Trazado 163465" d="M251.311,119.509c4.43,3.807,14.678,5.5,20.459,4.668.887,2.875,3.975,6.214,5.765,6.818a68.464,68.464,0,0,0,2.746,11.9c2.167-2,5.635-8.763,5.635-8.763C284.533,118.022,263.649,110.109,251.311,119.509Z" transform="translate(-242.556 -109.746)" fill="#263238"/>
                <path id="Trazado_163466" data-name="Trazado 163466" d="M306.648,154.1c-1.8,1.375-2.568,3.9-1.078,4.337.823.244,1.134-.833,1.529-1.978.889-2.58,2.58-2.788,2.6-3.163C309.728,152.9,308.258,152.875,306.648,154.1Z" transform="translate(-262.52 -123.777)" fill="#263238"/>
                <g id="Grupo_127538" data-name="Grupo 127538" transform="translate(2.346 22.203)">
                  <path id="Trazado_163467" data-name="Trazado 163467" d="M248.3,157.712c-.1,1.107.464,2.092,1.257,2.2s1.515-.7,1.614-1.808-.464-2.092-1.257-2.2S248.394,156.605,248.3,157.712Z" transform="translate(-243.772 -147.04)" fill="#263238"/>
                  <path id="Trazado_163468" data-name="Trazado 163468" d="M256.215,161.2c.6-2.751,1.346-5.45,2.117-8.155.075-.263.481-.2.425.076-.447,2.248-.913,4.47-1.461,6.7a9.347,9.347,0,0,0-.536,3.384,2.771,2.771,0,0,0,1.639,1.956.279.279,0,0,1-.026.51,1.835,1.835,0,0,1-2.053-1.085A5.233,5.233,0,0,1,256.215,161.2Z" transform="translate(-246.647 -145.914)" fill="#263238"/>
                  <path id="Trazado_163469" data-name="Trazado 163469" d="M280.826,143.454c-.7-2.069-6.48-2.282-7.593-.39C271.3,146.349,282.026,147.012,280.826,143.454Z" transform="translate(-253 -141.764)" fill="#263238"/>
                  <path id="Trazado_163470" data-name="Trazado 163470" d="M247.837,143.684c-.722-1.75-5.739-1.6-6.593.1C239.76,146.739,249.08,146.695,247.837,143.684Z" transform="translate(-241.083 -142.016)" fill="#263238"/>
                  <path id="Trazado_163471" data-name="Trazado 163471" d="M275.669,158.108a14.031,14.031,0,0,0-3.1-.751c-.44-.068-.884-.093-1.325-.142a17.927,17.927,0,0,1,4.359-1.941.378.378,0,0,0-.135-.743c-2.081.371-5.019,1.137-6.5,2.755a.861.861,0,0,0-.076.106.478.478,0,0,0-.078.159.581.581,0,0,0-.029.1l0,.009a.189.189,0,0,1,0,.019.5.5,0,0,0,.082.331c.009.014.028.016.039.029a.514.514,0,0,0,.217.162.5.5,0,0,0,.138.035c.007,0,.012.005.019.005a61.017,61.017,0,0,1,6.258.474A.313.313,0,0,0,275.669,158.108Z" transform="translate(-251.427 -146.528)" fill="#263238"/>
                  <path id="Trazado_163472" data-name="Trazado 163472" d="M273.854,172.7a8.282,8.282,0,0,1-1.595,1.687,4.755,4.755,0,0,1-2.391.989c-.28,0-.277.386-.024.481a3.308,3.308,0,0,0,3.083-.481,3,3,0,0,0,1.341-2.54A.238.238,0,0,0,273.854,172.7Z" transform="translate(-251.752 -153.283)" fill="#263238"/>
                </g>
                <path id="Trazado_163473" data-name="Trazado 163473" d="M262.578,125.819a8.2,8.2,0,0,1,.008,3.018,7.98,7.98,0,0,0,.024,3.017,3.38,3.38,0,0,0,2.1,2.334,2.215,2.215,0,0,1,.644-1.62c.379-.448.866-.831,1.277-1.261a4.772,4.772,0,0,0,1.239-4.725Z" transform="translate(-246.716 -113.608)" fill="#263238"/>
                <path id="Trazado_163474" data-name="Trazado 163474" d="M249.236,119.429c-.794-1.221-2.558-1.43-3.941-.971A21.544,21.544,0,0,0,241.5,120.6a4.9,4.9,0,0,1-4.162.686,6.6,6.6,0,0,0,7,4.362c2.45-.459,4.507-2.423,7-2.491Z" transform="translate(-237.339 -110.775)" fill="#263238"/>
                <path id="Trazado_163584" data-name="Trazado 163584" d="M-59.3,407.939a74,74,0,0,0,15.706.226c7.119-.884,24.4-13.761,24.4-13.761l-.707,1.166-6.423,8.946s1.588,8.4,2.168,8.664l3.7-4.451s.282.621-.608,2.23-11.967,20.774-25.607,14.7C-46.669,425.659-56.441,417.807-59.3,407.939Z" transform="translate(62.323 -369.004)" fill="url(#linear-gradient)"/>
              </g>
              <path id="Trazado_163475" data-name="Trazado 163475" d="M300.163,183.931,291.782,194l7.7,8.494,7.048-15.673Z" transform="translate(-192.422 -135.306)" fill="#1d272b"/>
              <path id="Trazado_163476" data-name="Trazado 163476" d="M269.921,196.58l4.9,11.647,3.922,9.541,10.26-15.483-6.346-5.029.935,6.473-4.575,2.816-5.26-7.633Z" transform="translate(-183.301 -138.566)" fill="#1d272b"/>
              <g id="Grupo_127540" data-name="Grupo 127540" transform="translate(95.64 72.681)">
                <path id="Trazado_163477" data-name="Trazado 163477" d="M289.742,223.348a1.116,1.116,0,0,0-.276-.716l-.209-.168a.753.753,0,0,0-.365-.123.5.5,0,0,0-.254-.006.746.746,0,0,0-.371.1l-.217.157a1,1,0,0,0-.273.448c-.038.133-.078.265-.119.4a1.947,1.947,0,0,0-.048.2l-.021.1a1.123,1.123,0,0,0-.014.567l0,.015.007.06c.034.089.068.178.1.267a.835.835,0,0,0,.288.331.544.544,0,0,0,.246.149.822.822,0,0,0,.409.1l.28-.029.267-.1a.834.834,0,0,0,.331-.288.823.823,0,0,0,.207-.377A2.713,2.713,0,0,0,289.742,223.348Z" transform="translate(-286.48 -222.32)" fill="#868695"/>
                <path id="Trazado_163478" data-name="Trazado 163478" d="M287.988,249.119a.775.775,0,0,0-.074-.388.787.787,0,0,0-.21-.35,1.155,1.155,0,0,0-.723-.321l-.263.027a1.029,1.029,0,0,0-.475.257l-.174.216a1.026,1.026,0,0,0-.147.506l-.076.818a1.12,1.12,0,0,0,1.06,1.115l.277-.028a1.087,1.087,0,0,0,.5-.271l.182-.227a1.087,1.087,0,0,0,.155-.534Q288.005,249.53,287.988,249.119Z" transform="translate(-285.845 -231.931)" fill="#868695"/>
              </g>
              <path id="Trazado_163479" data-name="Trazado 163479" d="M283.086,219.9c-1.788,16.384-2.864,32.9-3.134,49.382-.076,4.644-.1,9.305.038,13.948a.936.936,0,0,0,1.871,0c.08-16.484-.024-32.951.832-49.422q.361-6.955.837-13.906C283.548,219.615,283.116,219.626,283.086,219.9Z" transform="translate(-187.982 -148.658)" fill="#868695"/>
              <g id="Grupo_127546" data-name="Grupo 127546" transform="translate(44.936 31.035)">
                <path id="Trazado_163480" data-name="Trazado 163480" d="M250.6,226.366c10.669,17.877,37.68,53.682,37.68,53.682l-.472.081c-17.025,2.916-29.411-7.981-34.634-24.445L238.357,230.8Z" transform="translate(-217.41 -182.185)" fill="#ac635b"/>
                <g id="Grupo_127544" data-name="Grupo 127544">
                  <path id="Trazado_163481" data-name="Trazado 163481" d="M240.6,208.2c-.008-.01-1.819-2.61-3.289-4.718a4.287,4.287,0,0,0-4.906-1.606l-6.807,2.328,2.716,4.96,4.7-.81Z" transform="translate(-212.645 -172.956)" fill="#ac635b"/>
                  <rect id="Rectángulo_34991" data-name="Rectángulo 34991" width="15.582" height="5.31" rx="2.339" transform="matrix(1, -0.004, 0.004, 1, 4.123, 30.253)" fill="#ac635b"/>
                  <rect id="Rectángulo_34992" data-name="Rectángulo 34992" width="3.165" height="23.058" transform="matrix(0.966, -0.258, 0.258, 0.966, 11.08, 24.988)" fill="#263238"/>
                  <path id="Trazado_163482" data-name="Trazado 163482" d="M231.822,204.414a76.147,76.147,0,0,1,8.526,13.651l-2.97,7.041-17.147-9.47-8.029-5.972a3.038,3.038,0,0,1-.872-4.047h0a3.038,3.038,0,0,1,3.959-1.166l5.271,2.451Z" transform="translate(-207.159 -173.884)" fill="#ac635b"/>
                  <path id="Trazado_163483" data-name="Trazado 163483" d="M214.452,213.254a2.665,2.665,0,0,0-1.475,2.587,2.537,2.537,0,0,0,2.553,2.385,2.49,2.49,0,0,0-1.107,2.4,2.971,2.971,0,0,0,1.849,2.095,2.209,2.209,0,0,0,.484,2.783,6.365,6.365,0,0,0,3.029,1.3,105.39,105.39,0,0,0,18.366,1.7Z" transform="translate(-207.929 -177.289)" fill="#ac635b"/>
                  <g id="Grupo_127542" data-name="Grupo 127542">
                    <path id="Trazado_163484" data-name="Trazado 163484" d="M222.169,167.795c1.731,6.4.394,12.458-2.956,14.395-3.868.022-8.072-4.535-9.8-10.946s-.4-12.465,2.956-14.395C216.234,156.835,220.439,161.391,222.169,167.795Z" transform="translate(-206.317 -156.229)" fill="url(#linear-gradient)"/>
                    <g id="Grupo_127541" data-name="Grupo 127541" transform="translate(8.906 4.236)">
                      <path id="Trazado_163485" data-name="Trazado 163485" d="M220.373,163a1.4,1.4,0,0,0-.6-.364.523.523,0,0,0-.6.262.761.761,0,0,0,0,.432,28.8,28.8,0,0,0,1.973,6.1c.293.649.741,1.646,1.529,1.808a1.2,1.2,0,0,0,1.308-1.04c.347-1.487-.838-3.636-1.607-4.841A11.158,11.158,0,0,0,220.373,163Z" transform="translate(-219.142 -162.62)" fill="#fff"/>
                      <path id="Trazado_163486" data-name="Trazado 163486" d="M224.329,179.318a1.734,1.734,0,0,0,.4,1.4,1.49,1.49,0,0,0,1.754.461,1.358,1.358,0,0,0,.593-.667,1.686,1.686,0,0,0-.178-1.63A1.4,1.4,0,0,0,224.329,179.318Z" transform="translate(-221.069 -168.445)" fill="#fff"/>
                    </g>
                    <path id="Trazado_163487" data-name="Trazado 163487" d="M212.094,156.023l-2.324.628c-4.171,1.127-6,7.776-4.083,14.853s6.839,11.9,11.009,10.775l2.324-.628c4.17-1.127,6-7.776,4.083-14.853S216.265,154.9,212.094,156.023Zm5.729,25.8c-3.868.022-8.072-4.535-9.8-10.946s-.4-12.465,2.956-14.395c3.87-.014,8.075,4.542,9.8,10.946S221.174,179.883,217.823,181.82Z" transform="translate(-204.928 -155.859)" fill="#263238"/>
                  </g>
                  <path id="Trazado_163488" data-name="Trazado 163488" d="M229.279,206.034a2.817,2.817,0,0,0-1.112.3c-.422.156-.851.289-1.282.418a22.179,22.179,0,0,1-2.753.644,26.216,26.216,0,0,1-5.531.41c-.107-.006-.152.156-.042.189a13.24,13.24,0,0,0,5.672.545,15.461,15.461,0,0,0,2.758-.638,12.924,12.924,0,0,0,1.421-.571,2.665,2.665,0,0,0,1.132-.73A.362.362,0,0,0,229.279,206.034Z" transform="translate(-209.994 -174.593)" fill="#263238"/>
                  <g id="Grupo_127543" data-name="Grupo 127543" transform="translate(7.157 37.003)">
                    <path id="Trazado_163489" data-name="Trazado 163489" d="M223.513,215.929a8.835,8.835,0,0,0-1.689-.075,12.737,12.737,0,0,1-1.807-.153c-.575-.09-1.141-.217-1.713-.318a9,9,0,0,1-1.731-.461c-.192-.075-.317.241-.136.335.545.283,1.088.573,1.653.815a7.6,7.6,0,0,0,1.83.49,14.074,14.074,0,0,0,1.843.165,4.167,4.167,0,0,0,1.822-.253A.3.3,0,0,0,223.513,215.929Z" transform="translate(-216.35 -214.911)" fill="#824645"/>
                    <path id="Trazado_163490" data-name="Trazado 163490" d="M222.207,222.221a2.355,2.355,0,0,0-.7-.246c-.219-.025-.438-.048-.657-.081-.472-.07-.944-.114-1.411-.223a.187.187,0,0,0-.094.361,13.085,13.085,0,0,0,1.385.424c.231.049.464.1.7.13a1.872,1.872,0,0,0,.745-.086A.152.152,0,0,0,222.207,222.221Z" transform="translate(-217.418 -217.433)" fill="#824645"/>
                    <path id="Trazado_163491" data-name="Trazado 163491" d="M220.786,228.331c-.1-.043-.189-.095-.284-.141a1.288,1.288,0,0,0-.409-.093c-.237-.03-.483-.024-.722-.034a.244.244,0,0,0-.061.48c.236.044.472.1.71.129a1.187,1.187,0,0,0,.407.006c.109-.024.215-.056.325-.078A.148.148,0,0,0,220.786,228.331Z" transform="translate(-217.387 -219.822)" fill="#824645"/>
                  </g>
                </g>
                <g id="Grupo_127545" data-name="Grupo 127545" transform="translate(20.969 23.338)">
                  <path id="Trazado_163492" data-name="Trazado 163492" d="M306.717,267.629c19.051-17.662,22.1-58.595,17.419-69.488-3.423-7.971-11.824-7.233-17.5,7.676s-8.117,25.767-18.894,46.728Z" transform="translate(-256.816 -193.104)" fill="#ebebeb"/>
                  <path id="Trazado_163493" data-name="Trazado 163493" d="M288.292,283.02c-20.157,21.422-36.307-2.54-49.9-33.635l15.316-15.06,23.235,27.051Z" transform="translate(-238.392 -208.495)" fill="#ebebeb"/>
                  <path id="Trazado_163494" data-name="Trazado 163494" d="M246.747,261.056c-1.1,1.839,1.713,6.025,3.478,5.508C253.136,265.71,248.521,258.083,246.747,261.056Z" transform="translate(-241.419 -218.221)" fill="#dbdbdb"/>
                </g>
                <path id="Trazado_163495" data-name="Trazado 163495" d="M306.921,220.73c-.34,5.705-.935,11.408-1.783,17.06a93.611,93.611,0,0,1-3.883,16.471c-3.1,9.035-8.256,17.552-15.612,23.748a38.5,38.5,0,0,1-6.326,4.337,34.681,34.681,0,0,1-3.4,1.634c-1.193.492-3.828,1.558-3.828,1.558a42.932,42.932,0,0,1-8.095-4.243,44.084,44.084,0,0,1-7.343-6.461c-4.875-5.288-8.585-11.552-11.933-17.882-1.963-3.711-3.8-7.515-5.556-11.327a.166.166,0,0,0-.1-.089.9.9,0,0,0,.157-.106c5.133-5.175,10.265-10.364,14.887-16.006a.262.262,0,0,0-.37-.37c-5.6,4.668-10.748,9.842-15.879,15.017a.97.97,0,0,0,.926,1.6.154.154,0,0,0-.007.11c2.824,7.157,5.484,14.392,9.442,21.026a52.34,52.34,0,0,0,13.877,15.575c1.746,1.275,7.85,5.343,10.406,5.047,1.957-.227,5.051-1.638,7.013-2.636a39,39,0,0,0,5.972-3.781,47.932,47.932,0,0,0,9.946-10.44c6.279-8.849,9.369-19.586,10.847-30.222a187.924,187.924,0,0,0,1.342-19.624C307.628,220.281,306.947,220.289,306.921,220.73Z" transform="translate(-217.116 -179.956)" fill="#dbdbdb"/>
                <path id="Trazado_163496" data-name="Trazado 163496" d="M288.284,240.066q1.486-3.973,2.813-8c1.74-5.283,3.237-10.653,4.574-16.051.767-3.1,1.407-6.216,2.07-9.337a.27.27,0,0,0-.53-.105c-2.882,10.788-6.545,21.4-10.441,31.854q-.8,2.149-1.636,4.284c-.483,1.231-1.1,2.5-1.483,3.79-3.054-3.651-6.1-7.3-9.21-10.912q-2.452-2.848-4.908-5.693c-1.679-1.943-3.465-3.782-5.153-5.711-.3-.34-.889.166-.607.522,1.567,1.975,3.027,4.029,4.608,6s3.165,3.938,4.755,5.9c3.168,3.911,6.384,7.783,9.6,11.654a.977.977,0,0,0,.549.83l.014.008c.879,1.747,1.761,3.492,2.631,5.242a40.948,40.948,0,0,1,2.489,5.651.244.244,0,0,0,.464-.152c-.519-2.059-.894-4.153-1.515-6.187-.28-.914-.61-1.82-.974-2.714a36.81,36.81,0,0,1,4.391,3.382,30.3,30.3,0,0,1,5.969,7.05c.192.33.662.009.491-.319a35.715,35.715,0,0,0-5.365-7.965,29.886,29.886,0,0,0-6.7-5.353,22.266,22.266,0,0,0,1.609-3.76Q287.552,242.025,288.284,240.066Z" transform="translate(-226.872 -174.717)" fill="#dbdbdb"/>
              </g>
              <path id="Trazado_163497" data-name="Trazado 163497" d="M190.359,286.952a28.47,28.47,0,0,0-1.669-4.443,44.289,44.289,0,0,0-2.134-4.246,37.947,37.947,0,0,0-2.528-3.89c-.964-1.288-2.077-2.419-3.159-3.6-.353-.385-.88.174-.564.565a42.312,42.312,0,0,1,2.6,3.819c.815,1.266,1.585,2.555,2.287,3.888a42.335,42.335,0,0,1,1.857,4.007c.574,1.439.971,2.928,1.489,4.383A.945.945,0,0,0,190.359,286.952Z" transform="translate(-150.762 -167.682)" fill="#dbdbdb"/>
              <path id="Trazado_163498" data-name="Trazado 163498" d="M181.4,280.821c-.23-.894-.46-1.778-.753-2.655q-.211-.631-.44-1.256a2.1,2.1,0,0,0-.818-1.29.721.721,0,0,0-1.043.441,2.012,2.012,0,0,0,.3,1.384q.292.65.563,1.308c.336.823.681,1.649.975,2.487a41.228,41.228,0,0,1,1.577,5.3c.088.427.7.244.643-.17A53.713,53.713,0,0,0,181.4,280.821Z" transform="translate(-150.055 -169.507)" fill="#dbdbdb"/>
              <path id="Trazado_163499" data-name="Trazado 163499" d="M148.823,242.538c-2.44,1.952-4.6,4.227-6.926,6.306-1.151,1.026-2.266,2.077-3.348,3.174-1.136,1.152-3.515,3.193-4.393,4.561-.642,1,.687,2.388,1.7,1.691a39.847,39.847,0,0,0,4.719-4.234c1.092-1.153,2.132-2.339,3.148-3.56,2.011-2.415,4.217-4.661,6.1-7.182C150.276,242.678,149.326,242.136,148.823,242.538Z" transform="translate(-133.505 -157.137)" fill="#dbdbdb"/>
              <path id="Trazado_163500" data-name="Trazado 163500" d="M142.336,267.948c-1.1,1.838,1.713,6.025,3.478,5.508C148.726,272.6,144.11,264.975,142.336,267.948Z" transform="translate(-136.53 -166.42)" fill="#dbdbdb"/>
              <path id="Trazado_163501" data-name="Trazado 163501" d="M256.442,658.975l-3.468-16.052c-4.557.3-5.729,6.8-10.9,7.1s-9.142-7.069-12.4-7.068c-4.728,7.83-26.656,10.8-28.973,17.31C208.425,664.395,252.045,663.079,256.442,658.975Z" transform="translate(-158.414 -306.684)" fill="#263238"/>
            </g>
            <path id="Trazado_163502" data-name="Trazado 163502" d="M245.475,355.789c-1.657-.066-3.292-.041-4.938-.232-1.589-.191-3.168-.473-4.734-.811-1.215-.271-2.407-.575-3.6-.926.192-1.045.372-2.078.563-3.111,1.238.475,2.488.9,3.748,1.3,1.533.474,3.089.87,4.656,1.242,1.5.35,2.964.779,4.5,1.016C246.541,354.4,246.327,355.811,245.475,355.789Z" transform="translate(-170.177 -197.578)" fill="#dbdbdb"/>
            <g id="Grupo_127548" data-name="Grupo 127548" transform="translate(65.277 25.737)">
              <path id="Trazado_163503" data-name="Trazado 163503" d="M248.487,157.888c.7,3.941-1.181,7.573-4.205,8.111s-6.044-2.22-6.746-6.162,1.181-7.573,4.2-8.111S247.786,153.946,248.487,157.888Z" transform="translate(-237.39 -148.993)" fill="none" stroke="#ebebeb" stroke-miterlimit="10" stroke-width="1"/>
              <ellipse id="Elipse_4372" data-name="Elipse 4372" cx="5.562" cy="7.249" rx="5.562" ry="7.249" transform="matrix(0.985, -0.175, 0.175, 0.985, 16.127, 1.95)" fill="none" stroke="#ebebeb" stroke-miterlimit="10" stroke-width="1"/>
              <path id="Trazado_163504" data-name="Trazado 163504" d="M254.278,158.492a11.06,11.06,0,0,1,6.669.356" transform="translate(-243.695 -151.404)" fill="none" stroke="#ebebeb" stroke-miterlimit="10" stroke-width="1"/>
              <line id="Línea_2008" data-name="Línea 2008" y1="3.582" x2="8.042" transform="translate(28.349 3.555)" fill="none" stroke="#ebebeb" stroke-miterlimit="10" stroke-width="1"/>
            </g>
          </g>
        </g>
      </g>
      <g id="Grupo_127555" data-name="Grupo 127555" transform="translate(243.937 210.455)">
        <path id="Trazado_163505" data-name="Trazado 163505" d="M412.164,409.054l.008,5.7.008,5.7-15.089.021-.006-3.729a2.247,2.247,0,0,0-2.448-1.966l-15.055.021a2.246,2.246,0,0,0-2.443,1.971l.005,3.73-15.089.021-.008-5.7-.008-5.7Z" transform="translate(-357.158 -336.317)" fill="#38474f"/>
        <path id="Trazado_163506" data-name="Trazado 163506" d="M362.824,412.624a23.644,23.644,0,0,1,4.549-.158l4.785-.042c3.142-.026,6.283-.023,9.425-.024l18.705,0c1.74,0,3.48.011,5.22.02a15.962,15.962,0,0,1,5.167.543.349.349,0,0,1,0,.674,14.116,14.116,0,0,1-4.44.552c-1.594.031-3.191.029-4.785.037-3.142.014-6.284.016-9.426.024-6.234.016-12.47.07-18.705.034l-5.22-.031-2.61-.016a13.469,13.469,0,0,1-2.664-.133A.763.763,0,0,1,362.824,412.624Z" transform="translate(-357.238 -337.564)" fill="#263238"/>
        <path id="Trazado_163507" data-name="Trazado 163507" d="M397.18,363.06l-.007-5.073a13.4,13.4,0,0,0-.3-2.783l-3.04-14.243a4.539,4.539,0,0,0-4.446-3.592l-5.574.008-.01-7.449,7.672-.011,5.382-.008a5.581,5.581,0,0,1,5.151,3.414l8.7,20.656a13.9,13.9,0,0,1,1.091,5.38l.016,12.024.008,5.548-14.632.02L363.313,377l0-3.186a2.362,2.362,0,0,1,2.359-2.365l23.18-.031A8.345,8.345,0,0,0,397.18,363.06Z" transform="translate(-357.632 -306.766)" fill="#dbdbdb"/>
        <rect id="Rectángulo_34994" data-name="Rectángulo 34994" width="59.879" height="5.698" rx="2.849" transform="translate(59.886 75.12) rotate(179.921)" fill="#38474f"/>
        <g id="Grupo_127554" data-name="Grupo 127554" transform="translate(11.787)">
          <rect id="Rectángulo_34995" data-name="Rectángulo 34995" width="5.729" height="9.756" transform="translate(14.433 9.756) rotate(179.921)" fill="#868695"/>
          <rect id="Rectángulo_34996" data-name="Rectángulo 34996" width="8.213" height="45.954" transform="translate(15.729 49.234) rotate(179.921)" fill="#263238"/>
          <rect id="Rectángulo_34997" data-name="Rectángulo 34997" width="15.192" height="36.629" transform="translate(19.215 46.378) rotate(179.921)" fill="#ebebeb"/>
          <g id="Grupo_127552" data-name="Grupo 127552" transform="translate(5.578 12.975)">
            <rect id="Rectángulo_34998" data-name="Rectángulo 34998" width="3.13" height="3.808" transform="matrix(-1, 0.001, -0.001, -1, 3.168, 27.669)" fill="#fff"/>
            <rect id="Rectángulo_34999" data-name="Rectángulo 34999" width="3.13" height="22.016" transform="translate(3.16 22.016) rotate(179.921)" fill="#fff"/>
          </g>
          <rect id="Rectángulo_35000" data-name="Rectángulo 35000" width="4.377" height="7.513" transform="translate(13.832 64.658) rotate(179.921)" fill="#263238"/>
          <g id="Grupo_127553" data-name="Grupo 127553" transform="translate(12.632 15.742)">
            <path id="Trazado_163508" data-name="Trazado 163508" d="M393.219,324.639a6.533,6.533,0,1,0,6.524-6.542A6.533,6.533,0,0,0,393.219,324.639Z" transform="translate(-393.219 -318.097)" fill="#868695"/>
            <path id="Trazado_163509" data-name="Trazado 163509" d="M397.222,326.129a4.025,4.025,0,1,0,4.019-4.03A4.025,4.025,0,0,0,397.222,326.129Z" transform="translate(-394.714 -319.591)" fill="#868695" stroke="#263238" stroke-miterlimit="10" stroke-width="1"/>
          </g>
          <rect id="Rectángulo_35001" data-name="Rectángulo 35001" width="23.265" height="3.424" rx="1.712" transform="matrix(-1, 0.001, -0.001, -1, 23.27, 59.642)" fill="#38474f"/>
        </g>
      </g>
      <g id="Grupo_127559" data-name="Grupo 127559" transform="translate(83.808 110.638)">
        <g id="Grupo_127557" data-name="Grupo 127557" transform="translate(152.977 7.141)">
          <path id="Trazado_163510" data-name="Trazado 163510" d="M369.884,171.418c-4.414-2.456-9.406-2.659-14.254-3.582-5.049-.961-11.278-3.525-11.779-9.448a.5.5,0,0,0-.994.042c-.353,4.78,3.492,8.832,7.613,10.641,4.767,2.093,10.065,2.182,14.961,3.831a13.732,13.732,0,0,1,5.684,3.436,9.422,9.422,0,0,1,2.312,6.722c-.068,5.364-3.031,10.156-4.467,15.2-1.471,5.17-1.336,11.992,3.856,15.027,1.14.667,2.141-.926,1.3-1.815-3.379-3.572-3.2-8.794-1.843-13.182,1.537-4.965,4.093-9.547,4.337-14.844A12.716,12.716,0,0,0,369.884,171.418Z" transform="translate(-342.835 -149.875)" fill="#1d272b"/>
          <path id="Trazado_163511" data-name="Trazado 163511" d="M360.253,148.4a6.011,6.011,0,0,0-2.135.87l-1.923.959-4.168,2.078c-2.784,1.388-5.544,2.812-8.279,4.3-.636.345-.271,1.389.425,1.077,2.885-1.293,5.735-2.647,8.572-4.039l4.178-2.05,2.089-1.026a5.321,5.321,0,0,0,1.823-1.114A.656.656,0,0,0,360.253,148.4Z" transform="translate(-343.053 -146.316)" fill="#dbdbdb"/>
          <path id="Trazado_163512" data-name="Trazado 163512" d="M361.872,155.359a3.444,3.444,0,0,0-1.86.665c-.582.311-1.164.617-1.747.926q-1.967,1.041-3.951,2.05c-2.6,1.318-5.244,2.563-7.8,3.97a.6.6,0,0,0,.439,1.112,77.728,77.728,0,0,0,8.124-3.6q1.919-.948,3.821-1.934c.682-.355,1.359-.72,2.035-1.086a3.182,3.182,0,0,0,1.473-1.154A.689.689,0,0,0,361.872,155.359Z" transform="translate(-344.08 -148.915)" fill="#dbdbdb"/>
          <path id="Trazado_163513" data-name="Trazado 163513" d="M365.179,165a.855.855,0,0,0-.851-.129c-2.929,1.555-5.881,3.065-8.808,4.624-.649.345-.292,1.364.43,1.088,1.547-.592,3.069-1.205,4.572-1.9s2.97-1.452,4.435-2.218a.855.855,0,0,0,.533-.676A.807.807,0,0,0,365.179,165Z" transform="translate(-347.445 -152.44)" fill="#dbdbdb"/>
          <path id="Trazado_163514" data-name="Trazado 163514" d="M370.646,177.567a10.977,10.977,0,0,0-3.067,1.677c-.964.584-1.924,1.175-2.874,1.782-1.974,1.261-3.911,2.581-5.823,3.936-.617.437.071,1.367.692.944q2.854-1.949,5.823-3.717c.97-.58,1.947-1.15,2.934-1.7a12.54,12.54,0,0,0,2.976-1.728A.743.743,0,0,0,370.646,177.567Z" transform="translate(-348.736 -157.203)" fill="#dbdbdb"/>
          <path id="Trazado_163515" data-name="Trazado 163515" d="M376.341,182.647a7.192,7.192,0,0,0-2.1,1.11c-.785.471-1.585.92-2.373,1.386q-2.281,1.349-4.534,2.746-4.592,2.848-9.008,5.947c-.7.488.071,1.508.774,1.055q4.461-2.872,9-5.633,2.183-1.325,4.395-2.606c.793-.46,1.584-.927,2.388-1.367a8.378,8.378,0,0,0,2.2-1.313A.825.825,0,0,0,376.341,182.647Z" transform="translate(-348.516 -159.098)" fill="#dbdbdb"/>
          <path id="Trazado_163516" data-name="Trazado 163516" d="M381.59,188.853a31.478,31.478,0,0,0-4.532,2.943c-1.518,1.047-3.055,2.072-4.553,3.149-3,2.154-6.024,4.261-9.046,6.38-.671.471.066,1.441.744,1.015,3.077-1.934,6.131-3.9,9.242-5.779,1.525-.921,3.012-1.911,4.512-2.871a32.738,32.738,0,0,0,4.6-3.089C383.329,189.888,382.718,188.338,381.59,188.853Z" transform="translate(-350.437 -161.383)" fill="#dbdbdb"/>
          <path id="Trazado_163517" data-name="Trazado 163517" d="M385.823,201.776a.952.952,0,0,0-1.119-.025,27.937,27.937,0,0,0-2.584,1.892q-1.292.944-2.62,1.837c-1.766,1.189-3.577,2.317-5.415,3.393-.649.38-.037,1.5.64,1.158q2.951-1.478,5.765-3.2,1.367-.838,2.7-1.726a18.446,18.446,0,0,0,2.772-2.035.9.9,0,0,0,.139-.914A.914.914,0,0,0,385.823,201.776Z" transform="translate(-354.4 -166.174)" fill="#dbdbdb"/>
          <path id="Trazado_163518" data-name="Trazado 163518" d="M396.082,215.366a5.138,5.138,0,0,0-1.452.906l-1.217.872-2.636,1.89q-2.636,1.89-5.244,3.818a.831.831,0,0,0,.983,1.34q2.672-1.84,5.321-3.713l2.646-1.875,1.222-.866a5.058,5.058,0,0,0,1.326-1.082A.835.835,0,0,0,396.082,215.366Z" transform="translate(-358.652 -171.306)" fill="#dbdbdb"/>
          <path id="Trazado_163519" data-name="Trazado 163519" d="M404.7,218.618a11,11,0,0,0-2.224,1.3q-1.18.743-2.349,1.5c-1.5.976-3.015,1.941-4.505,2.934-3.027,2.016-6.149,3.955-9.026,6.183-.79.612.068,1.683.894,1.218,3.175-1.79,6.178-3.915,9.218-5.922,1.494-.988,2.969-2,4.451-3.009q1.152-.782,2.295-1.577A10.865,10.865,0,0,0,405.5,219.7C405.98,219.148,405.322,218.41,404.7,218.618Z" transform="translate(-359.059 -172.521)" fill="#dbdbdb"/>
          <g id="Grupo_127556" data-name="Grupo 127556" transform="translate(8.193)">
            <path id="Trazado_163520" data-name="Trazado 163520" d="M388.5,187.3c-6-1.185-12.071.623-18.093.09-4.706-.417-10.336-2.628-11.228-7.873-.951-5.593,2.7-10.7,5.1-15.421a22.227,22.227,0,0,0,2.7-9.239,18.4,18.4,0,0,0-2.309-9.417c-.377-.712-1.538-.3-1.193.472a17.2,17.2,0,0,1,1.258,8.8,21.821,21.821,0,0,1-2.845,7.986c-2.7,4.961-6.1,9.743-5.973,15.651.123,5.632,4.31,9.72,9.468,11.3,5.766,1.765,11.631.6,17.52.447a19.094,19.094,0,0,1,8.775,1.565,12.028,12.028,0,0,1,5.618,5.809,1.245,1.245,0,0,0,2.383-.6C399.464,191.408,393.165,188.225,388.5,187.3Z" transform="translate(-355.91 -145.076)" fill="#008f85"/>
          </g>
        </g>
        <g id="Grupo_127558" data-name="Grupo 127558" transform="translate(0)">
          <path id="Trazado_163521" data-name="Trazado 163521" d="M118.629,158.737a10.6,10.6,0,0,0-2.364,2.729c-.743,1.014-1.478,2.037-2.187,3.075-1.4,2.053-2.792,4.113-4.225,6.145a.329.329,0,0,0,.528.392c1.528-1.963,3.094-3.891,4.651-5.83.769-.957,1.515-1.931,2.251-2.913a10.869,10.869,0,0,0,1.979-3.129A.411.411,0,0,0,118.629,158.737Z" transform="translate(-102.844 -143.006)" fill="#008f85"/>
          <path id="Trazado_163522" data-name="Trazado 163522" d="M136.571,159.863a10.572,10.572,0,0,0-3.6-.268c-1.258.009-2.516.029-3.773.08-2.485.1-4.966.214-7.452.277a.329.329,0,0,0,0,.657c2.487.055,4.968.16,7.454.253,1.226.046,2.454.063,3.681.068a10.882,10.882,0,0,0,3.691-.279A.411.411,0,0,0,136.571,159.863Z" transform="translate(-107.19 -143.347)" fill="#38474f"/>
          <path id="Trazado_163523" data-name="Trazado 163523" d="M104.19,143.129a3.747,3.747,0,1,0,.951,5.931c.1.056.2.115.3.17,1.055.566,2.126,1.093,3.2,1.619,2.122,1.036,4.213,2.134,6.337,3.166a.414.414,0,0,0,.383-.733c-2.06-1.155-4.155-2.245-6.216-3.4-1.018-.568-2.037-1.13-3.075-1.663-.085-.044-.172-.083-.257-.125A3.745,3.745,0,0,0,104.19,143.129Z" transform="translate(-98.705 -137.049)" fill="#38474f"/>
          <path id="Trazado_163524" data-name="Trazado 163524" d="M121.472,138.386a.606.606,0,0,0-1.2.148,64.357,64.357,0,0,0,.76,6.578c.3,2.187.685,4.363,1,6.548a.466.466,0,0,0,.924-.113c-.226-2.2-.385-4.4-.622-6.595A64.271,64.271,0,0,0,121.472,138.386Z" transform="translate(-106.757 -135.247)" fill="#008f85"/>
          <path id="Trazado_163525" data-name="Trazado 163525" d="M123.18,154.427a3.946,3.946,0,1,1-5.326,1.669A3.946,3.946,0,0,1,123.18,154.427Z" transform="translate(-105.687 -141.258)" fill="#008f85"/>
          <path id="Trazado_163526" data-name="Trazado 163526" d="M120.264,134.06a3.335,3.335,0,1,1-4.5,1.41A3.335,3.335,0,0,1,120.264,134.06Z" transform="translate(-104.932 -133.68)" fill="#008f85"/>
          <circle id="Elipse_4373" data-name="Elipse 4373" cx="3.912" cy="3.912" r="3.912" transform="translate(3.867 23.938)" fill="#008f85"/>
          <path id="Trazado_163527" data-name="Trazado 163527" d="M143.081,157.139a2.952,2.952,0,1,1-3.985,1.248A2.952,2.952,0,0,1,143.081,157.139Z" transform="translate(-113.661 -142.314)" fill="#38474f"/>
        </g>
      </g>
      <g id="Grupo_127563" data-name="Grupo 127563" transform="translate(58.807 77.568)">
        <g id="Grupo_127561" data-name="Grupo 127561" transform="translate(0 90.534)">
          <path id="Trazado_163528" data-name="Trazado 163528" d="M73.423,239.968c2.124-1.87,4.831-2.575,7.375-3.656,2.649-1.126,5.754-3.27,5.323-6.571a.279.279,0,0,1,.549-.1c.761,2.575-.861,5.25-2.9,6.73-2.36,1.713-5.25,2.392-7.733,3.877a7.69,7.69,0,0,0-2.7,2.557,5.277,5.277,0,0,0-.466,3.954c.675,2.928,2.867,5.2,4.253,7.788,1.42,2.655,2.157,6.4-.323,8.684-.545.5-1.281-.252-.927-.839,1.424-2.357.706-5.194-.56-7.434-1.432-2.535-3.376-4.738-4.139-7.609A7.121,7.121,0,0,1,73.423,239.968Z" transform="translate(-63.325 -226.894)" fill="#ebebeb"/>
          <path id="Trazado_163529" data-name="Trazado 163529" d="M79.634,227.374a3.368,3.368,0,0,1,1.272.222l1.167.3,2.528.641c1.689.429,3.369.88,5.042,1.367.39.113.314.728-.1.64-1.733-.365-3.453-.766-5.172-1.191l-2.531-.625-1.265-.313a2.984,2.984,0,0,1-1.13-.393A.367.367,0,0,1,79.634,227.374Z" transform="translate(-66.46 -226.123)" fill="#ebebeb"/>
          <path id="Trazado_163530" data-name="Trazado 163530" d="M79.99,231.282a1.924,1.924,0,0,1,1.1.143c.355.1.711.2,1.066.3.8.224,1.6.443,2.407.652,1.581.411,3.174.779,4.741,1.245a.335.335,0,0,1-.108.66,43.535,43.535,0,0,1-4.874-1q-1.164-.29-2.321-.6c-.415-.113-.83-.232-1.243-.352a1.784,1.784,0,0,1-.944-.457A.385.385,0,0,1,79.99,231.282Z" transform="translate(-66.621 -227.573)" fill="#ebebeb"/>
          <path id="Trazado_163531" data-name="Trazado 163531" d="M81.289,236.523a.479.479,0,0,1,.45-.172c1.788.5,3.584.978,5.371,1.483a.328.328,0,0,1-.106.647c-.917-.14-1.823-.295-2.729-.5s-1.8-.441-2.691-.686a.481.481,0,0,1-.372-.307A.451.451,0,0,1,81.289,236.523Z" transform="translate(-67.161 -229.475)" fill="#ebebeb"/>
          <path id="Trazado_163532" data-name="Trazado 163532" d="M78.966,244.245a6.139,6.139,0,0,1,1.878.553c.6.2,1.193.414,1.785.634,1.231.456,2.448.947,3.655,1.462a.328.328,0,0,1-.266.6q-1.793-.728-3.629-1.342c-.6-.2-1.2-.4-1.808-.582a7,7,0,0,1-1.835-.592A.416.416,0,0,1,78.966,244.245Z" transform="translate(-66.195 -232.427)" fill="#ebebeb"/>
          <path id="Trazado_163533" data-name="Trazado 163533" d="M74.379,248.149a4.033,4.033,0,0,1,1.283.358c.486.165.977.315,1.464.476q1.409.467,2.808.964,2.852,1.012,5.638,2.184c.439.184.14.833-.3.669q-2.783-1.04-5.594-2.013-1.353-.465-2.715-.9c-.489-.157-.977-.319-1.469-.464a4.7,4.7,0,0,1-1.36-.457A.463.463,0,0,1,74.379,248.149Z" transform="translate(-64.467 -233.885)" fill="#ebebeb"/>
          <path id="Trazado_163534" data-name="Trazado 163534" d="M72.091,252.2a17.638,17.638,0,0,1,2.83,1.072c.956.392,1.919.771,2.867,1.182,1.9.823,3.8,1.616,5.71,2.416.423.178.135.8-.287.644-1.914-.692-3.819-1.406-5.745-2.064-.944-.323-1.875-.687-2.811-1.035a18.3,18.3,0,0,1-2.884-1.144C71.262,252.97,71.412,252.049,72.091,252.2Z" transform="translate(-63.534 -235.39)" fill="#ebebeb"/>
          <path id="Trazado_163535" data-name="Trazado 163535" d="M73.7,259.252a.534.534,0,0,1,.61-.147,15.784,15.784,0,0,1,1.64.728q.82.363,1.652.694c1.108.441,2.234.843,3.367,1.213.4.131.2.815-.212.71q-1.792-.458-3.536-1.066-.848-.3-1.684-.623a10.291,10.291,0,0,1-1.759-.785.514.514,0,0,1-.078-.723Z" transform="translate(-64.325 -237.962)" fill="#ebebeb"/>
          <path id="Trazado_163536" data-name="Trazado 163536" d="M69.812,267.887a2.871,2.871,0,0,1,.9.323l.77.333,1.667.721q1.667.721,3.324,1.466a.466.466,0,0,1-.378.85q-1.682-.69-3.354-1.4l-1.672-.712-.771-.328a2.831,2.831,0,0,1-.855-.435A.468.468,0,0,1,69.812,267.887Z" transform="translate(-62.718 -241.254)" fill="#ebebeb"/>
          <path id="Trazado_163537" data-name="Trazado 163537" d="M63.068,271.225a6.187,6.187,0,0,1,1.372.446q.734.267,1.464.544c.939.355,1.88.7,2.815,1.07,1.9.744,3.836,1.434,5.676,2.311a.423.423,0,0,1-.344.773c-1.951-.6-3.847-1.407-5.75-2.145-.935-.362-1.863-.743-2.793-1.117q-.724-.29-1.444-.59a6.061,6.061,0,0,1-1.3-.607C62.433,271.667,62.706,271.184,63.068,271.225Z" transform="translate(-60.228 -242.5)" fill="#ebebeb"/>
          <g id="Grupo_127560" data-name="Grupo 127560">
            <path id="Trazado_163538" data-name="Trazado 163538" d="M63.847,251.415c3.142-1.362,6.682-1.095,9.914-2.1,2.526-.788,5.344-2.668,5.208-5.645-.145-3.174-2.748-5.535-4.624-7.833A12.445,12.445,0,0,1,71.77,231.1a10.3,10.3,0,0,1,.143-5.429c.122-.436.806-.347.709.116a9.632,9.632,0,0,0,.358,4.966,12.215,12.215,0,0,0,2.508,4.033c2.067,2.394,4.5,4.606,5.13,7.856.6,3.1-1.2,5.833-3.838,7.311-2.946,1.652-6.3,1.71-9.536,2.329a10.686,10.686,0,0,0-4.616,1.9,6.735,6.735,0,0,0-2.384,3.847.7.7,0,0,1-1.376-.048C58.335,254.965,61.4,252.474,63.847,251.415Z" transform="translate(-58.807 -225.385)" fill="#ebebeb"/>
          </g>
        </g>
        <g id="Grupo_127562" data-name="Grupo 127562" transform="translate(166.417)">
          <path id="Trazado_163539" data-name="Trazado 163539" d="M345.46,98.87a10.439,10.439,0,0,0,2.906-2.053c.951-.8,1.894-1.6,2.819-2.426,1.827-1.634,3.643-3.276,5.494-4.881a.324.324,0,0,0-.413-.5c-1.926,1.517-3.879,2.992-5.827,4.48-.961.734-1.906,1.489-2.842,2.255a10.706,10.706,0,0,0-2.632,2.526A.405.405,0,0,0,345.46,98.87Z" transform="translate(-332.045 -83.904)" fill="#dbdbdb"/>
          <path id="Trazado_163540" data-name="Trazado 163540" d="M334.9,84.31a10.427,10.427,0,0,0,1.755,3.095c.7,1.025,1.4,2.043,2.134,3.045,1.445,1.98,2.9,3.95,4.314,5.951a.324.324,0,0,0,.538-.362c-1.318-2.066-2.593-4.156-3.88-6.242-.635-1.03-1.294-2.044-1.963-3.051a10.719,10.719,0,0,0-2.253-2.87A.405.405,0,0,0,334.9,84.31Z" transform="translate(-328.306 -81.981)" fill="#dbdbdb"/>
          <path id="Trazado_163541" data-name="Trazado 163541" d="M352.864,115.623a3.693,3.693,0,1,0,.491-5.9c-.083-.078-.164-.157-.248-.234-.876-.791-1.776-1.549-2.681-2.305-1.786-1.492-3.527-3.037-5.316-4.525a.407.407,0,0,0-.539.61c1.7,1.592,3.445,3.129,5.145,4.718.84.785,1.682,1.563,2.548,2.318.071.061.145.12.217.18A3.691,3.691,0,0,0,352.864,115.623Z" transform="translate(-331.872 -88.99)" fill="#dbdbdb"/>
          <path id="Trazado_163542" data-name="Trazado 163542" d="M328.488,111.97a.6.6,0,0,0,.732.942,63.607,63.607,0,0,0,5.183-3.964c1.7-1.361,3.346-2.782,5.037-4.151a.459.459,0,0,0-.563-.725c-1.745,1.3-3.53,2.547-5.268,3.855A63.548,63.548,0,0,0,328.488,111.97Z" transform="translate(-325.837 -89.519)" fill="#dbdbdb"/>
          <path id="Trazado_163543" data-name="Trazado 163543" d="M341.439,104.005a3.889,3.889,0,1,1,5.489-.339A3.889,3.889,0,0,1,341.439,104.005Z" transform="translate(-330.262 -86.99)" fill="#dbdbdb"/>
          <path id="Trazado_163544" data-name="Trazado 163544" d="M324.391,116.056a3.286,3.286,0,1,1,3.465,3.1A3.286,3.286,0,0,1,324.391,116.056Z" transform="translate(-324.386 -92.734)" fill="#dbdbdb"/>
          <path id="Trazado_163545" data-name="Trazado 163545" d="M357.737,89.9a3.855,3.855,0,1,1,5.442-.336A3.856,3.856,0,0,1,357.737,89.9Z" transform="translate(-336.352 -81.744)" fill="#dbdbdb"/>
          <path id="Trazado_163546" data-name="Trazado 163546" d="M332.657,84.13a2.91,2.91,0,1,1,3.208,2.578A2.91,2.91,0,0,1,332.657,84.13Z" transform="translate(-327.467 -80.905)" fill="#dbdbdb"/>
        </g>
      </g>
      <g id="Grupo_127568" data-name="Grupo 127568" transform="translate(58.835 264.713)">
        <path id="Trazado_163547" data-name="Trazado 163547" d="M58.852,391.2l.032,23.055,48.453-.067-.032-23.055Zm33.99,18.824-29.1.04-.02-14.688,29.1-.04Z" transform="translate(-58.852 -383.884)" fill="#dbdbdb"/>
        <rect id="Rectángulo_35002" data-name="Rectángulo 35002" width="6.946" height="14.688" transform="translate(4.873 11.494) rotate(-0.079)" fill="#dbdbdb"/>
        <path id="Trazado_163548" data-name="Trazado 163548" d="M79.764,379.606l-5.049.007a1.449,1.449,0,1,0,0,2.9H74.9l.031,22.179a2.346,2.346,0,1,0,4.692-.007L79.589,382.5h.179a1.449,1.449,0,0,0,0-2.9Z" transform="translate(-64.235 -379.58)" fill="#fff"/>
        <path id="Trazado_163549" data-name="Trazado 163549" d="M95.058,379.585l-5.049.007a1.449,1.449,0,0,0,0,2.9h.179l.031,22.179a2.346,2.346,0,1,0,4.692-.007l-.03-22.179h.178a1.449,1.449,0,0,0,0-2.9Z" transform="translate(-69.945 -379.572)" fill="#fff"/>
        <path id="Trazado_163550" data-name="Trazado 163550" d="M110.352,379.564l-5.049.007a1.449,1.449,0,1,0,0,2.9h.179l.031,22.179a2.346,2.346,0,1,0,4.692-.007l-.03-22.179h.178a1.449,1.449,0,1,0,0-2.9Z" transform="translate(-75.656 -379.564)" fill="#fff"/>
        <g id="Grupo_127567" data-name="Grupo 127567" transform="translate(9.033)">
          <g id="Grupo_127564" data-name="Grupo 127564" transform="translate(0 0.026)">
            <path id="Trazado_163551" data-name="Trazado 163551" d="M80.566,387.8l.028,19.943a2.344,2.344,0,1,1-4.688.006l-.028-19.943Z" transform="translate(-74.243 -382.666)" fill="#008f85"/>
            <path id="Trazado_163552" data-name="Trazado 163552" d="M79.764,379.606l-5.049.007a1.449,1.449,0,1,0,0,2.9H74.9l.031,22.179a2.346,2.346,0,1,0,4.692-.007L79.589,382.5h.179a1.449,1.449,0,0,0,0-2.9Z" transform="translate(-73.268 -379.606)" fill="none" stroke="#ebebeb" stroke-linecap="round" stroke-linejoin="round" stroke-width="1"/>
          </g>
          <g id="Grupo_127565" data-name="Grupo 127565" transform="translate(9.584 0.013)">
            <path id="Trazado_163553" data-name="Trazado 163553" d="M95.885,406.186l.011,8.41a2.344,2.344,0,1,1-4.688.006l-.012-8.409Z" transform="translate(-89.546 -389.517)" fill="#263238"/>
            <path id="Trazado_163554" data-name="Trazado 163554" d="M95.058,379.585l-5.049.007a1.449,1.449,0,0,0,0,2.9h.179l.031,22.179a2.346,2.346,0,1,0,4.692-.007l-.03-22.179h.178a1.449,1.449,0,0,0,0-2.9Z" transform="translate(-88.562 -379.585)" fill="none" stroke="#ebebeb" stroke-linecap="round" stroke-linejoin="round" stroke-width="1"/>
          </g>
          <g id="Grupo_127566" data-name="Grupo 127566" transform="translate(19.167)">
            <path id="Trazado_163555" data-name="Trazado 163555" d="M111.165,395.462l.021,15.117a2.344,2.344,0,1,1-4.688.006l-.021-15.117Z" transform="translate(-104.835 -385.5)" fill="#38474f"/>
            <path id="Trazado_163556" data-name="Trazado 163556" d="M110.352,379.564l-5.049.007a1.449,1.449,0,1,0,0,2.9h.179l.031,22.179a2.346,2.346,0,1,0,4.692-.007l-.03-22.179h.178a1.449,1.449,0,1,0,0-2.9Z" transform="translate(-103.856 -379.564)" fill="none" stroke="#ebebeb" stroke-linecap="round" stroke-linejoin="round" stroke-width="1"/>
          </g>
        </g>
        <path id="Trazado_163557" data-name="Trazado 163557" d="M58.852,391.209l.032,23.055,38.832-.053-.032-23.055Zm33.99,18.824-29.1.04-.02-14.688,29.1-.04Z" transform="translate(-58.852 -383.892)" fill="#ebebeb"/>
      </g>
      <g id="Grupo_127571" data-name="Grupo 127571" transform="translate(100.635 266.714)">
        <g id="Grupo_127569" data-name="Grupo 127569" transform="translate(4.918 0)">
          <path id="Rectángulo_35003" data-name="Rectángulo 35003" d="M0,0H49.53a6.407,6.407,0,0,1,6.407,6.407v0a6.407,6.407,0,0,1-6.407,6.407H0a0,0,0,0,1,0,0V0A0,0,0,0,1,0,0Z" transform="translate(0.03 0.077) rotate(-0.079)" fill="#38474f"/>
          <path id="Rectángulo_35004" data-name="Rectángulo 35004" d="M0,0H20.017a6.407,6.407,0,0,1,6.407,6.407v0a6.407,6.407,0,0,1-6.407,6.407H0a0,0,0,0,1,0,0V0A0,0,0,0,1,0,0Z" transform="matrix(1, -0.001, 0.001, 1, 0.03, 0.077)" fill="#263238"/>
          <path id="Rectángulo_35005" data-name="Rectángulo 35005" d="M0,0H19.764a4.377,4.377,0,0,1,4.377,4.377v0a4.377,4.377,0,0,1-4.377,4.377H0a0,0,0,0,1,0,0V0A0,0,0,0,1,0,0Z" transform="translate(0 2.107) rotate(-0.079)" fill="#ebebeb"/>
          <path id="Trazado_163558" data-name="Trazado 163558" d="M155.712,389.645a13.852,13.852,0,0,0-2.48-.272c-.916-.031-1.832-.048-2.746-.14-1.879-.19-3.758-.177-5.643-.2-1.828-.021-3.663-.065-5.491,0a17.718,17.718,0,0,0-5.4.535.312.312,0,0,0,0,.563,17.354,17.354,0,0,0,5.249.514c1.879.068,3.764.018,5.643-.009,1.833-.026,3.664-.009,5.491-.2.914-.1,1.828-.122,2.745-.158.457-.018.914-.023,1.372-.034a6.716,6.716,0,0,0,1.259-.251C155.862,389.966,155.861,389.676,155.712,389.645Z" transform="translate(-133.545 -385.088)" fill="#dbdbdb"/>
          <path id="Trazado_163559" data-name="Trazado 163559" d="M157.009,394.941a5.367,5.367,0,0,0-2.483-.368q-1.457-.019-2.914-.022l-5.828-.01c-1.891,0-3.782.011-5.674.026a28.767,28.767,0,0,0-5.8.225c-.475.1-.474,1.023,0,1.125a27.988,27.988,0,0,0,5.645.208c1.943.01,3.885.02,5.828.011l5.674-.025q1.457-.007,2.914-.028a5.709,5.709,0,0,0,2.636-.378A.487.487,0,0,0,157.009,394.941Z" transform="translate(-133.612 -387.153)" fill="#dbdbdb"/>
          <path id="Trazado_163560" data-name="Trazado 163560" d="M205.291,389.175a7.11,7.11,0,0,1-1.567,4.542,5.033,5.033,0,0,1-3.819,1.874l-5.726.008A5.035,5.035,0,0,0,198,393.724a7.114,7.114,0,0,0,1.567-4.542c-.005-3.533-2.418-6.405-5.4-6.4l5.727-.008C202.874,382.769,205.287,385.642,205.291,389.175Z" transform="translate(-156.092 -382.762)" fill="#263238"/>
          <path id="Trazado_163561" data-name="Trazado 163561" d="M191.079,389.194a7.11,7.11,0,0,1-1.567,4.542,5.033,5.033,0,0,1-3.819,1.874l-5.727.008a5.034,5.034,0,0,0,3.819-1.874,7.11,7.11,0,0,0,1.567-4.542c0-3.533-2.417-6.405-5.4-6.4l5.727-.008C188.662,382.789,191.074,385.661,191.079,389.194Z" transform="translate(-150.785 -382.77)" fill="#263238"/>
        </g>
        <g id="Grupo_127570" data-name="Grupo 127570" transform="translate(0 12.811)">
          <path id="Rectángulo_35006" data-name="Rectángulo 35006" d="M0,0H55.609a7.667,7.667,0,0,1,7.667,7.667v0a7.667,7.667,0,0,1-7.667,7.667H0a0,0,0,0,1,0,0V0A0,0,0,0,1,0,0Z" transform="translate(0.013 0.087) rotate(-0.079)" fill="#263238"/>
          <path id="Rectángulo_35007" data-name="Rectángulo 35007" d="M0,0H26.1a7.667,7.667,0,0,1,7.667,7.667v0A7.667,7.667,0,0,1,26.1,15.334H0a0,0,0,0,1,0,0V0A0,0,0,0,1,0,0Z" transform="matrix(1, -0.001, 0.001, 1, 0.013, 0.087)" fill="#38474f"/>
          <path id="Rectángulo_35008" data-name="Rectángulo 35008" d="M0,0H26.226a5.238,5.238,0,0,1,5.238,5.238v0a5.238,5.238,0,0,1-5.238,5.238H0a0,0,0,0,1,0,0V0A0,0,0,0,1,0,0Z" transform="matrix(1, -0.001, 0.001, 1, 0, 2.516)" fill="#ebebeb"/>
          <path id="Trazado_163562" data-name="Trazado 163562" d="M155.178,411.431a11.7,11.7,0,0,0-2.48-.326c-.916-.038-1.832-.058-2.745-.169a52.739,52.739,0,0,0-5.644-.239c-1.828-.025-11-.068-12.83.009-1.761.075-3.705-.1-5.4.639a.408.408,0,0,0,0,.674c1.654.714,3.531.541,5.249.617,1.879.082,11.1.013,12.982-.018a51.508,51.508,0,0,0,5.49-.236c.914-.113,1.828-.146,2.745-.188.458-.021.915-.027,1.373-.04a5.732,5.732,0,0,0,1.258-.3C155.327,411.816,155.327,411.468,155.178,411.431Z" transform="translate(-125.687 -405.987)" fill="#dbdbdb"/>
          <path id="Trazado_163563" data-name="Trazado 163563" d="M156.476,417.77a4.574,4.574,0,0,0-2.483-.442q-1.458-.023-2.914-.027l-5.828-.014c-1.892,0-11.122.023-13.014.04a24.035,24.035,0,0,0-5.8.268c-.475.123-.474,1.224,0,1.347a23.414,23.414,0,0,0,5.645.25c1.943.013,11.224.016,13.167.006l5.674-.029q1.457-.008,2.914-.033a4.854,4.854,0,0,0,2.636-.452A.656.656,0,0,0,156.476,417.77Z" transform="translate(-125.755 -408.46)" fill="#dbdbdb"/>
          <path id="Trazado_163564" data-name="Trazado 163564" d="M211.234,416.322a4.8,4.8,0,0,1-3.819,2.239l2.667,0a4.8,4.8,0,0,0,3.819-2.239,9.634,9.634,0,0,0,1.565-5.432c-.006-4.233-2.419-7.675-5.405-7.671l-2.667,0c2.986,0,5.4,3.438,5.406,7.671A9.634,9.634,0,0,1,211.234,416.322Z" transform="translate(-156.114 -403.206)" fill="#38474f"/>
          <path id="Trazado_163565" data-name="Trazado 163565" d="M180.466,416.365a4.8,4.8,0,0,1-3.819,2.238l2.667,0a4.8,4.8,0,0,0,3.819-2.238,9.636,9.636,0,0,0,1.565-5.433c-.006-4.233-2.419-7.675-5.405-7.671l-2.667,0c2.986,0,5.4,3.438,5.406,7.671A9.641,9.641,0,0,1,180.466,416.365Z" transform="translate(-144.626 -403.222)" fill="#38474f"/>
        </g>
      </g>
      <g id="Grupo_127573" data-name="Grupo 127573" transform="translate(119.723 74.572)">
        <path id="Trazado_163566" data-name="Trazado 163566" d="M192.063,82.258a21.149,21.149,0,1,0-4.236,33.285l10.745,2.959-3.046-10.721A21.156,21.156,0,0,0,192.063,82.258Z" transform="translate(-156.02 -76.125)" fill="#fff" stroke="#dbdbdb" stroke-miterlimit="10" stroke-width="1"/>
        <g id="Grupo_127572" data-name="Grupo 127572" transform="translate(5.374 6.714)">
          <path id="Trazado_163567" data-name="Trazado 163567" d="M179.719,87.665a10.792,10.792,0,0,0-2.968-.825,2.756,2.756,0,0,1-5.328.647A10.787,10.787,0,0,0,168.738,89a2.762,2.762,0,0,1-3.316,4.232A10.767,10.767,0,0,0,164.6,96.2a2.756,2.756,0,0,1,.646,5.328,10.77,10.77,0,0,0,1.511,2.685,2.762,2.762,0,0,1,4.232,3.316,10.81,10.81,0,0,0,2.968.825,2.756,2.756,0,0,1,5.328-.646,10.8,10.8,0,0,0,2.685-1.511,2.762,2.762,0,0,1,3.316-4.232,10.767,10.767,0,0,0,.825-2.968,2.756,2.756,0,0,1-.646-5.328,10.784,10.784,0,0,0-1.51-2.684,2.762,2.762,0,0,1-4.232-3.316Zm-1.56,12.13a3.566,3.566,0,1,1-.607-5.007A3.566,3.566,0,0,1,178.159,99.8Z" transform="translate(-164.597 -86.84)" fill="#1d272b"/>
          <path id="Trazado_163568" data-name="Trazado 163568" d="M205.507,117.831a7.248,7.248,0,0,0-.055-2.075,1.857,1.857,0,0,1-1.468-3.305,7.271,7.271,0,0,0-1.5-1.432,1.861,1.861,0,0,1-3.381-1.3,7.274,7.274,0,0,0-2.075.055,1.857,1.857,0,0,1-3.3,1.468,7.256,7.256,0,0,0-1.432,1.5,1.861,1.861,0,0,1-1.3,3.381,7.274,7.274,0,0,0,.054,2.075,1.857,1.857,0,0,1,1.468,3.3,7.236,7.236,0,0,0,1.5,1.432,1.861,1.861,0,0,1,3.381,1.3,7.247,7.247,0,0,0,2.075-.054,1.857,1.857,0,0,1,3.305-1.468,7.268,7.268,0,0,0,1.432-1.5,1.861,1.861,0,0,1,1.3-3.381Zm-8.124,1.389a2.4,2.4,0,1,1,3.106-1.379A2.4,2.4,0,0,1,197.383,119.22Z" transform="translate(-174.432 -95.363)" fill="#868695"/>
        </g>
      </g>
      <g id="Grupo_127574" data-name="Grupo 127574" transform="translate(66.9 71.967)">
        <path id="Trazado_163569" data-name="Trazado 163569" d="M73.527,181.322a1.866,1.866,0,0,0,0,3.73A1.866,1.866,0,0,0,73.527,181.322Z" transform="translate(-71.723 -112.798)" fill="#f4f4f4"/>
        <path id="Trazado_163570" data-name="Trazado 163570" d="M251.312,71.967a1.866,1.866,0,0,0,0,3.73A1.866,1.866,0,0,0,251.312,71.967Z" transform="translate(-138.105 -71.967)" fill="#f4f4f4"/>
        <path id="Trazado_163571" data-name="Trazado 163571" d="M413.951,146.422a1.866,1.866,0,0,0,0,3.73A1.866,1.866,0,0,0,413.951,146.422Z" transform="translate(-198.831 -99.767)" fill="#f4f4f4"/>
        <path id="Trazado_163572" data-name="Trazado 163572" d="M420.074,295.817a1.866,1.866,0,0,0,0,3.73A1.866,1.866,0,0,0,420.074,295.817Z" transform="translate(-201.117 -155.548)" fill="#f4f4f4"/>
        <path id="Trazado_163573" data-name="Trazado 163573" d="M98.63,339.9a1.866,1.866,0,0,0,0,3.73A1.866,1.866,0,0,0,98.63,339.9Z" transform="translate(-81.096 -172.008)" fill="#f4f4f4"/>
        <path id="Trazado_163574" data-name="Trazado 163574" d="M306.8,102.951a1.866,1.866,0,0,0,0,3.73A1.866,1.866,0,0,0,306.8,102.951Z" transform="translate(-158.824 -83.536)" fill="#fff"/>
        <path id="Trazado_163575" data-name="Trazado 163575" d="M184.961,224.793a1.867,1.867,0,0,0,0,3.731A1.867,1.867,0,0,0,184.961,224.793Z" transform="translate(-113.331 -129.029)" fill="#fff"/>
        <path id="Trazado_163576" data-name="Trazado 163576" d="M184.348,151.321a1.866,1.866,0,0,0,0,3.73A1.866,1.866,0,0,0,184.348,151.321Z" transform="translate(-113.102 -101.596)" fill="#fff"/>
        <path id="Trazado_163577" data-name="Trazado 163577" d="M139.521,324.895a1.866,1.866,0,0,0,0,3.73A1.866,1.866,0,0,0,139.521,324.895Z" transform="translate(-96.364 -166.405)" fill="#fff"/>
        <path id="Trazado_163578" data-name="Trazado 163578" d="M123.485,240.155a1.866,1.866,0,0,0,0,3.73A1.866,1.866,0,0,0,123.485,240.155Z" transform="translate(-90.377 -134.765)" fill="#fff"/>
        <path id="Trazado_163579" data-name="Trazado 163579" d="M225.37,333.778a1.866,1.866,0,0,0,0,3.73A1.866,1.866,0,0,0,225.37,333.778Z" transform="translate(-128.419 -169.722)" fill="#fff"/>
        <path id="Trazado_163580" data-name="Trazado 163580" d="M366.806,271.326a1.866,1.866,0,0,0,0,3.73A1.866,1.866,0,0,0,366.806,271.326Z" transform="translate(-181.228 -146.404)" fill="#fff"/>
        <path id="Trazado_163581" data-name="Trazado 163581" d="M327.008,170.3a1.866,1.866,0,0,0,0,3.73A1.866,1.866,0,0,0,327.008,170.3Z" transform="translate(-166.368 -108.683)" fill="#fff"/>
        <path id="Trazado_163582" data-name="Trazado 163582" d="M385.174,161.117a1.866,1.866,0,0,0,0,3.73A1.866,1.866,0,0,0,385.174,161.117Z" transform="translate(-188.086 -105.254)" fill="#fff"/>
        <path id="Trazado_163583" data-name="Trazado 163583" d="M366.806,319.084a1.866,1.866,0,0,0,0,3.73A1.866,1.866,0,0,0,366.806,319.084Z" transform="translate(-181.228 -164.236)" fill="#fff"/>
      </g>
    </g>
  </g>
</svg>
