<svg xmlns="http://www.w3.org/2000/svg" width="453.877" height="299.15" viewBox="0 0 453.877 299.15">
  <g id="img10" transform="translate(-962.123 -2106.393)">
    <g id="Grupo_128326" data-name="Grupo 128326">
      <g id="Grupo_128124" data-name="Grupo 128124" transform="translate(0 2)">
        <path id="Trazado_151846" data-name="Trazado 151846" d="M471.716,383.8c17.036-18.563,21.883-42.656,12.862-63.93-5.7-13.45-16.648-25.946-18.048-39.972-2.8-28.043,32.481-50.714,39.8-78.333,3.217-12.138-.293-26.279-14.082-33.652-13.62-7.282-33.06-5.8-48.479-.7S415.3,180.477,400.5,186.445s-33.033,9.658-48.668,4.908c-15.836-4.812-24.819-16.94-29.85-28.761s-7.5-24.411-16.088-35.12c-14.153-17.65-44.328-27.273-72.449-24.783s-53.245,16.131-66.722,34.053-15.832,39.6-9.123,59.392c3.4,10.039,9.009,19.653,12.066,29.75s3.337,21.148-3.488,30.243c-14.271,19.018-51.92,21.67-71.635,37.979-16.272,13.461-16.782,34-7.548,50.556s26.589,29.984,43.892,42.763c80.708,1.951,162.862,2.08,243.569,4.031C405.823,392.214,440.386,385.122,471.716,383.8Z" transform="translate(881.161 2008.031)" fill="#a4a4b4" opacity="0.354" style="mix-blend-mode: multiply;isolation: isolate"/>
        <path id="Trazado_151847" data-name="Trazado 151847" d="M359.21,189.2c-.213,22.828,21.487,42.7,17.711,65.21-2.019,12.046-11.2,24.258-5.864,35.245,4.719,9.722,18.237,11.408,28.572,8.247,24.193-7.4,38.9-32.13,45.93-56.433,6.615-22.859,8.256-48.393-2.337-69.7-8.536-17.169-28.231-32.327-48.23-30.924C376.674,142.13,359.371,172.008,359.21,189.2Z" transform="translate(965.153 2011.174)" fill="#a4a4b4" opacity="0.31" style="mix-blend-mode: multiply;isolation: isolate"/>
        <path id="Trazado_151848" data-name="Trazado 151848" d="M119.2,155.625c-16.16,26.962-16.889,62.5-1.847,90.1,4.753,8.721,11.173,16.849,19.84,21.7s19.85,5.931,28.477,1.01c13.084-7.464,15.978-25.067,14.936-40.095s-4.446-30.781,1.341-44.688c3.773-9.065,11.016-16.133,17.442-23.556s12.424-16.088,12.756-25.9c.861-25.438-26.147-23.538-42.423-18.255C148.944,122.683,130.467,136.829,119.2,155.625Z" transform="translate(888.888 2011.158)" fill="#a4a4b4" opacity="0.31" style="mix-blend-mode: multiply;isolation: isolate"/>
        <g id="Grupo_107069" data-name="Grupo 107069" transform="translate(971.163 2104.393)" style="mix-blend-mode: multiply;isolation: isolate">
          <path id="Trazado_151849" data-name="Trazado 151849" d="M465.591,387.377l-1.735-1.14c4.775-3.754,12.4-12.361,9.817-27.835-1.148-6.888-4-13.693-6.749-20.273-1.229-2.94-2.5-5.98-3.611-9-11.842-32.208-6.662-67.738,14.211-97.478,1.854-2.639,3.86-5.288,5.8-7.848,5.753-7.591,11.7-15.442,14.259-23.923,4.486-14.881-4.382-26.035-14.52-30.1-9.726-3.9-23.456-3.306-37.665,1.637-5.2,1.807-10.251,4.019-15.137,6.157a163.993,163.993,0,0,1-20.3,7.817c-28.2,8.14-63.468,1.222-82.024-16.089-8.918-8.319-13.953-18.374-18.822-28.1-1.886-3.768-3.838-7.664-5.983-11.393-6.673-11.591-18.887-26.141-39.177-29.621-17.828-3.06-35.885,3.665-47.89,9.844-22.97,11.823-39.161,27.834-45.594,45.084-4.336,11.633-4.511,24.293-4.68,36.537-.251,18.234-.512,37.089-14.826,52.274-6.512,6.908-15.469,12.419-24.129,17.75-8.112,4.992-16.5,10.154-22.753,16.411C89.913,292.269,86.44,312.34,94.553,333.16c7.29,18.706,22.151,35.3,36.522,51.356l-1.975.914c-14.465-16.156-29.423-32.863-36.809-51.814-8.307-21.317-4.7-41.915,9.882-56.511,6.418-6.423,14.915-11.651,23.131-16.709,8.544-5.258,17.379-10.7,23.712-17.414,13.917-14.763,14.162-32.531,14.421-51.342.171-12.35.346-25.119,4.762-36.96,6.572-17.626,23.085-33.97,46.495-46.021,12.4-6.383,31.111-13.32,49.8-10.113,21.254,3.646,33.92,18.663,40.8,30.619,2.168,3.765,4.128,7.68,6.024,11.467,4.808,9.6,9.778,19.528,18.472,27.638,17.937,16.735,52.025,23.421,79.29,15.553a162.126,162.126,0,0,0,19.956-7.692c4.933-2.16,10.033-4.392,15.333-6.235,14.908-5.185,29.426-5.767,39.833-1.592,10.871,4.36,20.412,16.214,15.672,31.935-2.63,8.718-8.66,16.677-14.494,24.374-1.932,2.549-3.93,5.185-5.766,7.8C459,261.79,453.887,296.885,465.584,328.7c1.1,2.991,2.365,6.017,3.589,8.944,2.782,6.649,5.659,13.524,6.834,20.559C478.7,374.344,470.635,383.411,465.591,387.377Z" transform="translate(-87.906 -97.739)" fill="#a4a4b4"/>
        </g>
      </g>
      <g id="rZLulr" transform="translate(1480.057 2642.39)">
        <g id="Grupo_127421" data-name="Grupo 127421" transform="translate(-494.017 -474.061)">
          <path id="Trazado_163215" data-name="Trazado 163215" d="M849.953-255.792c-.375,1.711-.849,3.408-1.1,5.137a11.9,11.9,0,0,1-3.791,7.26c-9.28,8.391-18.644,16.69-27.983,25.016-4.43,3.95-8.848,7.913-13.331,11.8a1.846,1.846,0,0,0-.521,2.391q9.386,27.07,18.723,54.158a13.948,13.948,0,0,1-9.377,18.4,13.786,13.786,0,0,1-16.652-8.361c-3.006-8.3-5.815-16.67-8.693-25.014q-4.217-12.225-8.4-24.46c-1.82-5.29-3.733-10.549-5.456-15.87-2-6.165-.243-11.339,4.526-15.588q14.509-12.93,29.021-25.859c1.506-1.342,2.99-2.71,4.544-3.994a1.148,1.148,0,0,0,.388-1.527,125.6,125.6,0,0,0-10.77-22.035,25.705,25.705,0,0,0-1.841-2.984c-.854-1.064-.67-1.888-.027-3,4.149-7.154,8.318-14.3,12.279-21.558a11.284,11.284,0,0,0-4.74-15.3,11.426,11.426,0,0,0-15.37,4.311q-7.492,13-14.9,26.05a1.231,1.231,0,0,1-1.424.742c-2.28-.294-4.568-.528-7.01-.8.541-1.5,1.053-2.952,1.591-4.4q5.312-14.276,10.64-28.546a15,15,0,0,1,9.1-8.833c7.266-2.834,14.3-1.966,21.111,1.632,4.835,2.552,8.387,6.508,11.837,10.588a132.678,132.678,0,0,1,15.079,21.311A124.124,124.124,0,0,1,846.757-273c1.061,3.291,1.9,6.655,2.815,9.993.189.69.257,1.412.381,2.12Z" transform="translate(-462.108 365.178)" fill="#1d272b"/>
          <path id="Trazado_163216" data-name="Trazado 163216" d="M-494.017,119.182a11.052,11.052,0,0,1,3.1-5.183,9.1,9.1,0,0,1,6.011-2.176c5.9.013,11.793.04,17.689,0a3.514,3.514,0,0,1,2.7,1.152c3.272,3.117,6.68,6.092,10.041,9.115,2.716,2.443,5.437,4.88,8.076,7.6h-1.386q-18.3,0-36.591-.007c-5.107-.007-8.1-2.333-9.466-7.269a1.544,1.544,0,0,0-.175-.318Z" transform="translate(494.017 30.2)" fill="#008f85"/>
          <path id="Trazado_163217" data-name="Trazado 163217" d="M-378.7-251.538c-3.135-1.8-6.176-3.549-9.212-5.3-5.849-3.375-6.77-9.6-2.32-14.685,7.841-8.961,15.587-18,23.388-27a10.173,10.173,0,0,1,10.261-3.421c3.39.685,6.7,1.742,10.054,2.628,9.193,2.431,18.351,5.013,27.6,7.215a11.218,11.218,0,0,1,8.2,6.7c4.84,10.334,9.886,20.57,14.8,30.871a2.081,2.081,0,0,0,1.857,1.367c5.491.642,10.978,1.322,16.466,1.993,4.605.563,9.212,1.111,13.813,1.7a8.948,8.948,0,0,1,7.728,9.794,8.843,8.843,0,0,1-8.848,7.987c-3.456-.14-6.894-.759-10.338-1.178q-10.572-1.287-21.141-2.591c-2.241-.278-4.492-.513-6.711-.918a8.441,8.441,0,0,1-6.241-4.876c-1.854-3.761-3.648-7.551-5.473-11.327-.184-.38-.4-.743-.724-1.329-1.29,4.863-2.513,9.477-3.739,14.092q-2.654,9.985-5.318,19.968a1.623,1.623,0,0,0,.515,1.893q13.35,11.864,26.639,23.8a67.422,67.422,0,0,1,5.385,5.2c2.057,2.31,2.517,5.348,3.245,8.238q5.88,23.364,11.753,46.73a61.344,61.344,0,0,1,2.052,9.549c.629,7.469-4.5,13.654-12.092,14.7a13.777,13.777,0,0,1-15.262-10.4c-2.364-9.256-4.669-18.528-7-27.792-2.033-8.079-4.053-16.16-6.128-24.228a3.6,3.6,0,0,0-1.083-1.65q-15.553-13.94-31.146-27.834c-1.812-1.619-1.8-1.634-4.118-.251,2.029,1.817,4.026,3.605,6.023,5.392q11.1,9.931,22.183,19.887a1.768,1.768,0,0,1,.41,1.427q-3.032,14.557-6.15,29.1c-1.819,8.555-3.581,17.123-5.485,25.659a13.783,13.783,0,0,1-14.051,10.807,14.038,14.038,0,0,1-13.272-11.385c-.588-3.033.18-5.936.8-8.849q4.752-22.354,9.556-44.7a1.636,1.636,0,0,0-.667-1.757q-12.793-11.4-25.563-22.818c-1.837-1.641-3.675-3.279-5.492-4.942a14.257,14.257,0,0,1-3.549-15.33c1.016-2.824,1.481-5.844,2.244-8.763C-382.834-235.927-380.778-243.676-378.7-251.538Z" transform="translate(417.512 343.861)" fill="#1d272b"/>
          <path id="Trazado_163218" data-name="Trazado 163218" d="M60.959,129.761v70.32H26.516c.111-.278.2-.566.334-.83a19.973,19.973,0,0,0,1.494-14.564c-2.58-10.027-5.055-20.082-7.574-30.125Q18.8,146.7,16.825,138.847c-.785-3.118-1.665-6.215-2.353-9.354a21.545,21.545,0,0,0-7.788-12.333c-1.929-1.58-3.742-3.3-5.827-5.155.628-.041,1-.086,1.367-.086q66.477,0,132.954,0,16.544,0,33.087.009a8.586,8.586,0,0,1,8.217,5.172,8.879,8.879,0,0,1-7.385,12.611c-.845.057-1.7.05-2.544.05q-51.934,0-103.867,0Z" transform="translate(119.102 30.126)" fill="#008f85"/>
          <path id="Trazado_163219" data-name="Trazado 163219" d="M-79.916-27.426l-1.149-.275c.916-3.5,1.8-6.926,2.718-10.345a1.449,1.449,0,0,1,2.26-.435c3.145,3.81,7.395,4.963,12.093,5.468,8.743.939,17.455,2.17,26.19,3.2a65.157,65.157,0,0,0,10.705.834A13.941,13.941,0,0,0-14.478-40.228c.185-.905.557-1.062,1.35-1.072,11.066-.139,22.131-.332,33.2-.441a112.414,112.414,0,0,1,12.064.239,20.768,20.768,0,0,1,13.108,6.111c3.494,3.544,4.21,7.883,3.542,12.555A23.7,23.7,0,0,1,41.308-8.789a3.132,3.132,0,0,1-2.367.911q-43.143-.032-86.286,0a1.857,1.857,0,0,1-1.811-.91A9.93,9.93,0,0,1-50.276-10.5c-.487-1.436-1.446-1.587-2.788-1.5-4.877.3-9.76.516-14.643.7a2.69,2.69,0,0,1-1.726-.543q-5.016-4.38-9.916-8.892a2.079,2.079,0,0,1-.541-1.345C-79.953-23.856-79.916-25.631-79.916-27.426Z" transform="translate(181.166 146.572)" fill="#1d272b"/>
          <path id="Trazado_163220" data-name="Trazado 163220" d="M679.747-262.092a28.051,28.051,0,0,1-1.63,4.478q-9.378,16.59-18.9,33.1a8.986,8.986,0,0,1-9.223,4.443c-9.014-1.069-18.037-2.06-27.055-3.094-6.732-.773-13.48-1.441-20.188-2.389a8.716,8.716,0,0,1-7.183-10.33,9.031,9.031,0,0,1,10.036-7.259c9.575,1.141,19.159,2.2,28.74,3.291,3.768.428,7.543.8,11.3,1.291a1.171,1.171,0,0,0,1.417-.691q7.782-13.666,15.6-27.314a8.922,8.922,0,0,1,9.866-4.409,8.822,8.822,0,0,1,6.917,8.778Z" transform="translate(-331.344 320.407)" fill="#1d272b"/>
          <path id="Trazado_163221" data-name="Trazado 163221" d="M502.231-75.661l-3.836,5.854,6.766,4.451,5.781-8.715a24.266,24.266,0,0,1,11.937,9.582c5.225,8.174,5.665,16.716,1.405,25.419a34.773,34.773,0,0,1-3.392,4.985,1.568,1.568,0,0,1-1.126.485q-17.812.039-35.624-.007a2,2,0,0,1-1.27-.7A24.977,24.977,0,0,1,480.5-63.625c4.466-7.219,11.051-11.1,19.429-12.026C500.6-75.726,501.295-75.661,502.231-75.661Z" transform="translate(-241.495 172.254)" fill="#1d272b"/>
          <path id="Trazado_163222" data-name="Trazado 163222" d="M-174.964-401.626c-2.408-2.907-5.954-3.505-9.4-4.4-8.892-2.3-17.763-4.681-26.651-6.995a2.131,2.131,0,0,1-1.712-1.568,25.259,25.259,0,0,1,18.887-32.557,24.946,24.946,0,0,1,25.99,10.821,25.033,25.033,0,0,1-6.781,34.583A1.745,1.745,0,0,1-174.964-401.626Z" transform="translate(281.848 454.062)" fill="#1d272b"/>
          <path id="Trazado_163223" data-name="Trazado 163223" d="M617.533-428.779c-7.891-6.53-11.375-14.755-9.494-24.681,1.954-10.314,8.337-17.111,18.534-19.73,9.716-2.5,18.033.459,25.074,7.694Z" transform="translate(-340.518 474.061)" fill="#1d272b"/>
          <path id="Trazado_163224" data-name="Trazado 163224" d="M734.393-430.935c4.891,7.411,6.1,14.988,3.313,23.026-2.53,7.3-7.566,12.269-14.92,15.238a24.842,24.842,0,0,0-7.891-17.312Z" transform="translate(-421.852 441.389)" fill="#1d272b"/>
          <path id="Trazado_163225" data-name="Trazado 163225" d="M-438.928,24.483c-4.3,0-8.536.025-12.774-.037a1.966,1.966,0,0,1-1.31-.821,13.967,13.967,0,0,1,9.585-21.878c1.785-.251,3.568-.515,5.53-.8-.268,1.061-.488,1.942-.713,2.821-.66,2.574-1.428,5.125-1.959,7.725a19.153,19.153,0,0,0,1.307,11.834c.114.258.229.516.33.779A1.532,1.532,0,0,1-438.928,24.483Z" transform="translate(464.888 114.195)" fill="#1d272b"/>
          <path id="Trazado_163226" data-name="Trazado 163226" d="M688.324-63.234l-22.171,12.9a29.48,29.48,0,0,0-9.267-15.126,4.287,4.287,0,0,1,3.717-1.232c6.883.852,13.78,1.592,20.671,2.377,2.316.264,4.63.544,6.945.817Z" transform="translate(-377.904 165.471)" fill="#1d272b"/>
          <path id="Trazado_163227" data-name="Trazado 163227" d="M652.8-208.94l9.4-14.291,2.5,1.625c-2.788,4.23-5.523,8.4-8.3,12.542a1.32,1.32,0,0,1-.993.428C654.609-208.656,653.816-208.811,652.8-208.94Z" transform="translate(-374.806 284.033)" fill="#1d272b"/>
          <path id="Trazado_163228" data-name="Trazado 163228" d="M587.528-82.084a3.112,3.112,0,0,1-.2.46c-1.42,2.185-2.845,4.367-4.316,6.623l-2.494-1.654,4.69-7.1Z" transform="translate(-320.048 178.363)" fill="#1d272b"/>
        </g>
        <g id="Grupo_128125" data-name="Grupo 128125" transform="translate(-242.997 -331.601)">
          <g id="Grupo_91938" data-name="Grupo 91938" transform="translate(0 0)">
            <g id="Grupo_91937" data-name="Grupo 91937">
              <path id="Trazado_151023" data-name="Trazado 151023" d="M2027.155,2152.563a6.893,6.893,0,0,1-6.017-10.356l46.732-80.931a6.949,6.949,0,0,1,12.033.009l46.732,80.943a6.884,6.884,0,0,1-6.016,10.336Z" transform="translate(-2020.21 -2057.808)" fill="#1d272b"/>
              <path id="Trazado_151024" data-name="Trazado 151024" d="M2156.614,2180.494a4.02,4.02,0,0,1-3.407,2.054h-93.464a4.045,4.045,0,0,1-3.405-6.032l46.73-80.963a3.95,3.95,0,0,1,2.654-1.905,3.839,3.839,0,0,1,.754-.079,3.93,3.93,0,0,1,3.407,1.966l46.732,80.983A4.016,4.016,0,0,1,2156.614,2180.494Z" transform="translate(-2052.799 -2090.545)" fill="#db8804"/>
            </g>
          </g>
          <g id="Grupo_91939" data-name="Grupo 91939" transform="translate(47.872 28.932)">
            <path id="Trazado_151026" data-name="Trazado 151026" d="M2595.442,2432.882l-4.072-.1a2.255,2.255,0,0,1-2.133-2.14l-1.491-28.691a1.861,1.861,0,0,1,.588-1.479,1.95,1.95,0,0,1,1.555-.488l7.013.489a2.147,2.147,0,0,1,1.518.68,2.175,2.175,0,0,1,.571,1.565l-1.451,28.168A2.075,2.075,0,0,1,2595.442,2432.882Z" transform="translate(-2587.627 -2399.979)" fill="#fff"/>
            <path id="Trazado_151027" data-name="Trazado 151027" d="M2587.908,2856.688a5.818,5.818,0,0,1,4.287-1.412,6.057,6.057,0,0,1,4.318,1.5,5.675,5.675,0,0,1,1.471,4.232,5.553,5.553,0,0,1-1.5,4.159,5.867,5.867,0,0,1-4.285,1.479,5.8,5.8,0,0,1-4.271-1.53,5.655,5.655,0,0,1-1.547-4.2A5.574,5.574,0,0,1,2587.908,2856.688Z" transform="translate(-2586.378 -2816.778)" fill="#fff"/>
          </g>
        </g>
      </g>
    </g>
    <path id="Trazado_165444" data-name="Trazado 165444" d="M3.779-4.509V0H1.143V-12.8H6.135a5.776,5.776,0,0,1,2.536.527,3.886,3.886,0,0,1,1.683,1.5,4.178,4.178,0,0,1,.589,2.21A3.674,3.674,0,0,1,9.655-5.594,5.363,5.363,0,0,1,6.091-4.509Zm0-2.136H6.135a2.316,2.316,0,0,0,1.6-.492,1.79,1.79,0,0,0,.549-1.406,2.111,2.111,0,0,0-.554-1.521,2.068,2.068,0,0,0-1.529-.6H3.779ZM17.49-4.685h-2.1V0H12.753V-12.8h4.755a5.375,5.375,0,0,1,3.5,1.011,3.488,3.488,0,0,1,1.23,2.856,3.937,3.937,0,0,1-.567,2.184,3.866,3.866,0,0,1-1.718,1.393L22.72-.123V0H19.89ZM15.39-6.82h2.127a2.178,2.178,0,0,0,1.538-.505A1.806,1.806,0,0,0,19.6-8.719a1.933,1.933,0,0,0-.514-1.424,2.137,2.137,0,0,0-1.578-.519H15.39Zm19.362.712a7.725,7.725,0,0,1-.668,3.313A5.03,5.03,0,0,1,32.172-.6,5.288,5.288,0,0,1,29.32.176a5.324,5.324,0,0,1-2.839-.765,5.08,5.08,0,0,1-1.934-2.184,7.5,7.5,0,0,1-.694-3.265v-.633A7.685,7.685,0,0,1,24.535-10,5.072,5.072,0,0,1,26.459-12.2a5.3,5.3,0,0,1,2.843-.769,5.3,5.3,0,0,1,2.843.769A5.072,5.072,0,0,1,34.071-10a7.663,7.663,0,0,1,.681,3.318Zm-2.672-.58a5.385,5.385,0,0,0-.721-3.059A2.349,2.349,0,0,0,29.3-10.793,2.349,2.349,0,0,0,27.255-9.76a5.324,5.324,0,0,0-.729,3.028v.624a5.453,5.453,0,0,0,.721,3.041A2.342,2.342,0,0,0,29.32-1.986a2.321,2.321,0,0,0,2.039-1.042,5.421,5.421,0,0,0,.721-3.037ZM46.714-4.263a4.528,4.528,0,0,1-1.525,3.252A5.355,5.355,0,0,1,41.563.176a4.816,4.816,0,0,1-3.872-1.657,6.793,6.793,0,0,1-1.411-4.548v-.782a7.671,7.671,0,0,1,.65-3.252,4.874,4.874,0,0,1,1.859-2.158,5.207,5.207,0,0,1,2.808-.751,5.217,5.217,0,0,1,3.568,1.187,4.866,4.866,0,0,1,1.564,3.331H44.095a2.673,2.673,0,0,0-.69-1.8,2.555,2.555,0,0,0-1.806-.558,2.24,2.24,0,0,0-1.973.945,5.3,5.3,0,0,0-.672,2.931v.967a5.667,5.667,0,0,0,.628,3.032,2.2,2.2,0,0,0,1.982.958,2.6,2.6,0,0,0,1.824-.558,2.521,2.521,0,0,0,.69-1.727Zm9.431-1.283H51.082v3.428h5.941V0H48.445V-12.8h8.561v2.136H51.082v3.05h5.063Zm9.062,2.188A1.353,1.353,0,0,0,64.679-4.5a6.917,6.917,0,0,0-1.9-.844,13.458,13.458,0,0,1-2.171-.875A3.547,3.547,0,0,1,58.43-9.4a3.09,3.09,0,0,1,.584-1.85,3.812,3.812,0,0,1,1.679-1.27,6.318,6.318,0,0,1,2.457-.457,5.751,5.751,0,0,1,2.443.5,3.891,3.891,0,0,1,1.666,1.4,3.668,3.668,0,0,1,.593,2.057H65.215a1.726,1.726,0,0,0-.554-1.367,2.276,2.276,0,0,0-1.556-.488,2.432,2.432,0,0,0-1.5.409,1.289,1.289,0,0,0-.536,1.077,1.235,1.235,0,0,0,.628,1.046,7.1,7.1,0,0,0,1.85.791,7.994,7.994,0,0,1,3.278,1.679,3.343,3.343,0,0,1,1.028,2.5A3.08,3.08,0,0,1,66.595-.769a5.5,5.5,0,0,1-3.384.945,6.534,6.534,0,0,1-2.689-.541,4.256,4.256,0,0,1-1.85-1.481,3.793,3.793,0,0,1-.637-2.18H60.68q0,2.118,2.531,2.118a2.462,2.462,0,0,0,1.468-.382A1.244,1.244,0,0,0,65.206-3.357ZM80.147-6.108a7.725,7.725,0,0,1-.668,3.313A5.03,5.03,0,0,1,77.568-.6a5.288,5.288,0,0,1-2.852.773,5.324,5.324,0,0,1-2.839-.765,5.08,5.08,0,0,1-1.934-2.184,7.5,7.5,0,0,1-.694-3.265v-.633A7.685,7.685,0,0,1,69.93-10,5.072,5.072,0,0,1,71.855-12.2a5.3,5.3,0,0,1,2.843-.769,5.3,5.3,0,0,1,2.843.769A5.072,5.072,0,0,1,79.466-10a7.663,7.663,0,0,1,.681,3.318Zm-2.672-.58a5.385,5.385,0,0,0-.721-3.059A2.349,2.349,0,0,0,74.7-10.793,2.349,2.349,0,0,0,72.65-9.76a5.324,5.324,0,0,0-.729,3.028v.624a5.453,5.453,0,0,0,.721,3.041,2.342,2.342,0,0,0,2.074,1.081,2.321,2.321,0,0,0,2.039-1.042,5.421,5.421,0,0,0,.721-3.037ZM88.7-3.357A1.353,1.353,0,0,0,88.172-4.5a6.917,6.917,0,0,0-1.9-.844A13.458,13.458,0,0,1,84.1-6.223,3.547,3.547,0,0,1,81.923-9.4a3.09,3.09,0,0,1,.584-1.85,3.812,3.812,0,0,1,1.679-1.27,6.318,6.318,0,0,1,2.457-.457,5.751,5.751,0,0,1,2.443.5,3.891,3.891,0,0,1,1.666,1.4,3.668,3.668,0,0,1,.593,2.057H88.708a1.726,1.726,0,0,0-.554-1.367,2.276,2.276,0,0,0-1.556-.488,2.432,2.432,0,0,0-1.5.409,1.289,1.289,0,0,0-.536,1.077,1.235,1.235,0,0,0,.628,1.046,7.1,7.1,0,0,0,1.85.791,7.994,7.994,0,0,1,3.278,1.679,3.343,3.343,0,0,1,1.028,2.5A3.08,3.08,0,0,1,90.088-.769,5.5,5.5,0,0,1,86.7.176a6.534,6.534,0,0,1-2.689-.541,4.256,4.256,0,0,1-1.85-1.481,3.793,3.793,0,0,1-.637-2.18h2.646q0,2.118,2.531,2.118a2.462,2.462,0,0,0,1.468-.382A1.244,1.244,0,0,0,88.7-3.357ZM97.611,0V-12.8h3.938a5.98,5.98,0,0,1,3.019.76,5.3,5.3,0,0,1,2.079,2.162,6.669,6.669,0,0,1,.747,3.186V-6.1a6.688,6.688,0,0,1-.734,3.173,5.256,5.256,0,0,1-2.07,2.153A6.025,6.025,0,0,1,101.575,0Zm2.637-10.661v8.543h1.274a2.863,2.863,0,0,0,2.364-1.011,4.567,4.567,0,0,0,.835-2.892V-6.7a4.64,4.64,0,0,0-.809-2.958,2.854,2.854,0,0,0-2.364-1.006Zm16.761,5.115h-5.062v3.428h5.941V0H109.31V-12.8h8.561v2.136h-5.924v3.05h5.063Z" transform="translate(1119 2140)" fill="#008f85"/>
    <path id="Trazado_165443" data-name="Trazado 165443" d="M9.333-5.854H3.989v3.618h6.271V0H1.206V-13.508h9.036v2.254H3.989v3.219H9.333Zm6.2-7.654L19-3.711l3.451-9.8h3.655V0H23.314V-3.692l.278-6.374L19.946,0H18.035L14.4-10.057l.278,6.364V0H11.894V-13.508ZM28.537,0V-13.508h4.731A6.213,6.213,0,0,1,37-12.566a3.22,3.22,0,0,1,1.271,2.76,3.052,3.052,0,0,1-.51,1.749,2.947,2.947,0,0,1-1.419,1.109A2.852,2.852,0,0,1,37.977-5.9a3.1,3.1,0,0,1,.6,1.93,3.565,3.565,0,0,1-1.243,2.95A5.6,5.6,0,0,1,33.788,0ZM31.32-5.882v3.646H33.7A2.3,2.3,0,0,0,35.24-2.7,1.607,1.607,0,0,0,35.792-4a1.7,1.7,0,0,0-1.92-1.883Zm0-1.967h2.06q2.106-.037,2.106-1.679a1.552,1.552,0,0,0-.533-1.322,2.806,2.806,0,0,0-1.684-.4H31.32ZM48.289-2.783h-4.88L42.481,0H39.521L44.55-13.508h2.579L52.185,0H49.226ZM44.16-5.038h3.377l-1.7-5.056Zm12.07,2.8h5.91V0H53.447V-13.508H56.23ZM70.74-3.544a1.428,1.428,0,0,0-.557-1.211,7.3,7.3,0,0,0-2-.891,14.206,14.206,0,0,1-2.292-.923,3.744,3.744,0,0,1-2.3-3.349A3.262,3.262,0,0,1,64.2-11.87a4.024,4.024,0,0,1,1.772-1.341,6.669,6.669,0,0,1,2.593-.482,6.071,6.071,0,0,1,2.579.524,4.107,4.107,0,0,1,1.758,1.48,3.872,3.872,0,0,1,.626,2.171H70.749a1.821,1.821,0,0,0-.584-1.443,2.4,2.4,0,0,0-1.642-.515,2.567,2.567,0,0,0-1.586.431,1.361,1.361,0,0,0-.566,1.136,1.3,1.3,0,0,0,.663,1.1,7.494,7.494,0,0,0,1.953.835A8.438,8.438,0,0,1,72.447-6.2a3.529,3.529,0,0,1,1.085,2.635A3.251,3.251,0,0,1,72.206-.812a5.808,5.808,0,0,1-3.572,1,6.9,6.9,0,0,1-2.839-.571,4.492,4.492,0,0,1-1.953-1.563,4,4,0,0,1-.673-2.3h2.792q0,2.236,2.672,2.236a2.6,2.6,0,0,0,1.549-.4A1.313,1.313,0,0,0,70.74-3.544Zm12.3.761h-4.88L77.234,0H74.274L79.3-13.508h2.579L86.938,0H83.979ZM78.913-5.038H82.29l-1.7-5.056Zm12.923-8.47,3.47,9.8,3.451-9.8h3.655V0H99.62V-3.692l.278-6.374L96.252,0H94.341L90.7-10.057l.278,6.364V0H88.2V-13.508ZM112.469-2.783h-4.88L106.662,0H103.7l5.028-13.508h2.579L116.366,0h-2.959Zm-4.128-2.254h3.377l-1.7-5.056Zm12.923-8.47,3.47,9.8,3.451-9.8h3.655V0h-2.792V-3.692l.278-6.374L125.68,0h-1.911l-3.637-10.057.278,6.364V0h-2.783V-13.508ZM137.23,0h-2.783V-13.508h2.783Zm10.706-5.854h-5.344v3.618h6.271V0H139.81V-13.508h9.036v2.254h-6.253v3.219h5.344ZM161.481,0H158.7L153.28-8.888V0H150.5V-13.508h2.783L158.708-4.6v-8.906h2.774Zm12.6-11.253h-4.138V0h-2.783V-11.253h-4.082v-2.254h11ZM186.5-6.448a8.154,8.154,0,0,1-.705,3.5A5.31,5.31,0,0,1,183.78-.631a5.582,5.582,0,0,1-3.01.816,5.62,5.62,0,0,1-3-.807,5.362,5.362,0,0,1-2.041-2.305A7.921,7.921,0,0,1,175-6.374v-.668a8.112,8.112,0,0,1,.719-3.511,5.353,5.353,0,0,1,2.032-2.329,5.589,5.589,0,0,1,3-.812,5.589,5.589,0,0,1,3,.812,5.353,5.353,0,0,1,2.032,2.329,8.089,8.089,0,0,1,.719,3.5Zm-2.82-.612a5.684,5.684,0,0,0-.761-3.229,2.479,2.479,0,0,0-2.171-1.1,2.48,2.48,0,0,0-2.162,1.09,5.619,5.619,0,0,0-.77,3.2v.659a5.755,5.755,0,0,0,.761,3.21A2.473,2.473,0,0,0,180.769-2.1a2.45,2.45,0,0,0,2.152-1.1,5.722,5.722,0,0,0,.761-3.205Z" transform="translate(1119 2158)" fill="#1d272b"/>
    <rect id="Rectángulo_35428" data-name="Rectángulo 35428" width="4" height="53" transform="translate(1110 2115)" fill="#d93328"/>
  </g>
</svg>
