<svg xmlns="http://www.w3.org/2000/svg" width="137.165" height="147.978" viewBox="0 0 137.165 147.978">
  <g id="img10" transform="translate(0 0)">
    <path id="Trazado_114962" data-name="Trazado 114962" d="M-978.926,1466.634a33.226,33.226,0,0,1-3.521.4q-42.5.035-84.991.023c-.491,0-.984,0-1.473-.034a2.348,2.348,0,0,1-2.491-2.617c-.04-2.4-.073-4.806.012-7.2.047-1.319-.451-1.722-1.714-1.676-2.017.074-4.039.038-6.058,0-1.946-.041-2.781-.88-2.807-2.821-.032-2.4-.012-4.8-.012-7.2q0-54.7,0-109.391c0-3.409.6-4,3.981-4l84.828,0c3.239,0,3.878.65,3.879,3.944,0,2.074.028,4.149-.015,6.223-.02.96.278,1.368,1.309,1.333,1.962-.066,3.929-.018,5.894,0,2.529.019,3.338.826,3.338,3.323,0,8.133.017,16.266-.02,24.4a2.7,2.7,0,0,0,1.126,2.339c8.735,7.2,15.678,15.738,19.765,26.426,2.628,6.871,2.808,13.928,1.889,21.118-.58,4.535-1.23,9.083-1.406,13.643a28.486,28.486,0,0,0,3.041,13.771,46.039,46.039,0,0,0,3.07,4.814c1.863,2.822,3.758,5.622,5.612,8.45,1.384,2.111,1.135,3.249-.989,4.614q-9.773,6.283-19.558,12.547c-2.507,1.6-3.487,1.4-5.1-1.023-2.2-3.315-4.388-6.645-6.586-9.964C-978.277,1467.519-978.667,1467-978.926,1466.634Zm-18.666-40.3a8.582,8.582,0,0,0-1.124-1.374c-.981-.8-2-1.521-.961-2.688l-1.6-.4a7.011,7.011,0,0,1,1.3-1.141,8.535,8.535,0,0,1,1.79-.5l-.128-.562-3.9.851a5.074,5.074,0,0,1-.6-1.151c-.473-2.092-1.884-2.294-3.763-2.285-13.974.073-27.949.041-41.924.04-2.824,0-3.966-.725-3.959-2.5.007-1.684,1.164-2.4,3.873-2.395q21.29,0,42.579.022c1.225,0,1.973-.223,2.418-1.547a5.15,5.15,0,0,1,4.447-3.621,39.73,39.73,0,0,1,4.707-.035v-69.811h-82.6v2.394q0,54.453,0,108.905c0,2.115,0,2.112,2.159,2.112q38.813,0,77.626-.005c3.518,0,2.906.319,2.949-2.945.043-3.218-.312-6.49.151-9.645.634-4.324.446-8.184-3.047-11.284-.16-.142-.293-.316-.44-.475.79-.859,1.629-1.767.895-3a8.1,8.1,0,0,0-1.567-1.509l-.518.356C-996.507,1423.085-997.324,1424.775-997.592,1426.334Zm19.509-46.833-.574.323c-.03.412-.086.824-.087,1.235-.011,3.385-.094,6.772.035,10.151a4.956,4.956,0,0,0,1.1,2.878,19.46,19.46,0,0,1,4.5,8.6,51.047,51.047,0,0,1,1.362,8.369c.374,6.58-.441,12.963-4.257,18.617a3.761,3.761,0,0,1-3.416,1.827,5.376,5.376,0,0,1-4.34-2.565c-1.929-2.829-3.654-5.8-5.412-8.741-1.005-1.682-1.805-3.494-2.883-5.126a6.5,6.5,0,0,0-5.387-3.237c-1.172-.035-1.784.513-1.818,1.607-.1,3.277,1.875,5.649,3.721,8.016,1.826,2.342,3.839,4.538,5.693,6.86.172.215-.213.877-.365,1.423l1.6.26c0,3.492-.135,6.973.034,10.44.216,4.436.6,9.051,3.7,12.466,2.95,3.249,6.549,5.909,10.123,9.057,4.608-2.944,10.077-6.421,15.506-9.958a1.408,1.408,0,0,0,.254-1.312c-3.888-8.652-4.025-17.617-2.438-26.775.886-5.113,1.477-10.277.631-15.461-1.244-7.627-4.809-14.22-9.5-20.21C-972.69,1385.177-975.472,1382.406-978.083,1379.5Zm-11.612,75.659a36.522,36.522,0,0,1-3.658.368q-34.3.033-68.594.019c-4.641,0-4.574,0-4.619,4.65-.015,1.609.539,1.971,2.058,1.969q39.454-.063,78.908-.032h1.713l.271-.508Zm5.551-36.194.336-.109v-70.142h-5.479v2.187c0,18.6.036,37.2-.043,55.8a9.76,9.76,0,0,0,1.933,6.478A43.464,43.464,0,0,1-984.143,1418.966Zm33.371,44.253-4.842-7.278-17.255,10.726,5,7.522Zm-27.917-39.553c2.988-4.548,2.4-18.524,0-20.939Z" transform="translate(1081.987 -1332.103)" fill="#1d272b"/>
    <path id="Trazado_114969" data-name="Trazado 114969" d="M-826.945,1610.376l.051.042c.268-1.559,1.085-3.249-1.24-4.2l.517-.356a8.057,8.057,0,0,1,1.567,1.509C-825.316,1608.61-826.156,1609.517-826.945,1610.376Z" transform="translate(911.29 -1516.188)" fill="#1d272b"/>
    <path id="Trazado_114971" data-name="Trazado 114971" d="M-1003.232,1504.115q-14.65,0-29.3,0a9.649,9.649,0,0,1-1.63-.062,2.553,2.553,0,0,1-2.23-2.609,2.609,2.609,0,0,1,2.525-2.325c.38-.029.764-.011,1.146-.011q29.3,0,58.6,0c2.672,0,3.832.755,3.838,2.478.006,1.707-1.24,2.531-3.811,2.531Q-988.664,1504.113-1003.232,1504.115Z" transform="translate(1051.331 -1444.397)" fill="#1d272b"/>
    <path id="Trazado_114973" data-name="Trazado 114973" d="M-1003.374,1658.911h-28.815c-.219,0-.437,0-.655,0-2.378-.019-3.523-.821-3.507-2.456s1.171-2.464,3.57-2.461c10.524.015,21.048.071,31.572.075q13.9.005,27.8-.076c1.425-.006,2.643.277,3.051,1.839.48,1.837-.758,3.166-2.9,3.16q-11.459-.033-22.918-.079C-998.571,1658.9-1000.972,1658.911-1003.374,1658.911Z" transform="translate(1051.299 -1548.55)" fill="#1d272b"/>
    <path id="Trazado_114981" data-name="Trazado 114981" d="M-1003.374,1658.911h-28.815c-.219,0-.437,0-.655,0-2.378-.019-3.523-.821-3.507-2.456s1.171-2.464,3.57-2.461c10.524.015,21.048.071,31.572.075q13.9.005,27.8-.076c1.425-.006,2.643.277,3.051,1.839.48,1.837-.758,3.166-2.9,3.16q-11.459-.033-22.918-.079C-998.571,1658.9-1000.972,1658.911-1003.374,1658.911Z" transform="translate(1051.299 -1558.718)" fill="#1d272b"/>
    <path id="Trazado_114974" data-name="Trazado 114974" d="M-966.184,1542.815H-987.8c-.6,0-1.2.022-1.8-.03a2.387,2.387,0,0,1-2.327-2.461,2.368,2.368,0,0,1,2.26-2.375,12.907,12.907,0,0,1,1.8-.027q22.1,0,44.207-.006a9.732,9.732,0,0,1,.981.023,2.347,2.347,0,0,1,2.287,2.48,2.244,2.244,0,0,1-2.382,2.358c-3.219.059-6.439.036-9.659.039Q-959.308,1542.821-966.184,1542.815Z" transform="translate(1021.428 -1470.488)" fill="#1d272b"/>
    <path id="Trazado_114975" data-name="Trazado 114975" d="M-908.076,1383.074q5.643,0,11.285,0c2.042,0,3.208.9,3.209,2.445,0,1.577-1.086,2.531-3.167,2.535q-11.528.016-23.057-.072c-1.816-.013-2.8-.97-2.773-2.512.022-1.49,1.055-2.376,2.891-2.385C-915.816,1383.061-911.946,1383.076-908.076,1383.074Z" transform="translate(974.797 -1366.375)" fill="#1d272b"/>
    <path id="Trazado_114976" data-name="Trazado 114976" d="M-908.156,1465.45c-3.816,0-7.631.01-11.446,0-1.93-.007-2.949-.9-2.935-2.5.013-1.528.988-2.415,2.854-2.42q11.61-.037,23.219,0c1.745,0,2.912,1.028,2.917,2.417.006,1.5-1.157,2.5-3,2.511C-900.416,1465.465-904.286,1465.452-908.156,1465.45Z" transform="translate(974.768 -1418.442)" fill="#1d272b"/>
    <path id="Trazado_114977" data-name="Trazado 114977" d="M-908.138,1426.748c-3.814,0-7.628.007-11.442-.007-1.961-.007-3-.863-3.013-2.426-.012-1.537,1.064-2.445,3-2.448q11.443-.014,22.885.006c1.964,0,3.083.871,3.12,2.349.04,1.593-1.079,2.518-3.105,2.524C-900.509,1426.758-904.324,1426.75-908.138,1426.748Z" transform="translate(974.806 -1392.46)" fill="#1d272b"/>
    <path id="Trazado_114978" data-name="Trazado 114978" d="M-1024.445,1543.282a2.519,2.519,0,0,1-2.633-2.536,2.561,2.561,0,0,1,2.721-2.46,2.479,2.479,0,0,1,2.609,2.544A2.488,2.488,0,0,1-1024.445,1543.282Z" transform="translate(1045.065 -1470.746)" fill="#1d272b"/>
    <path id="Trazado_114979" data-name="Trazado 114979" d="M-1021.839,1578.764a2.455,2.455,0,0,1-2.579,2.555,2.612,2.612,0,0,1-2.781-2.423,2.7,2.7,0,0,1,2.647-2.591A2.531,2.531,0,0,1-1021.839,1578.764Z" transform="translate(1045.147 -1496.31)" fill="#1d272b"/>
    <path id="Trazado_114980" data-name="Trazado 114980" d="M-925.661,1628.562l3.025-.138.019.412c-1.617.478-2.527.379-3-.322Z" transform="translate(976.869 -1531.358)" fill="#1d272b"/>
    <g id="Grupo_91485" data-name="Grupo 91485" transform="translate(10.038 12.599)">
      <g id="Grupo_90944" data-name="Grupo 90944">
        <path id="Trazado_150122" data-name="Trazado 150122" d="M-2271.6,2432.415c3.865-5.827-2.217-12.846-2.217-12.846,5.124,9.126-4.266,14.868-7.8,16.634a2.217,2.217,0,0,1,1.72,2.158,2.2,2.2,0,0,1-.082.585c3.414-2.121,13.1-7.012,18.19,2.05C-2261.79,2441-2264.616,2432.148-2271.6,2432.415Z" transform="translate(2302.438 -2419.569)" fill="#1d272b"/>
        <path id="Trazado_150123" data-name="Trazado 150123" d="M-2354.555,2557.649a2.209,2.209,0,0,1-1.594.678,2.207,2.207,0,0,1-1.594-.678c.171,4.066-.357,14.792-10.693,14.792,0,0,9.1,1.866,12.287-4.355,3.188,6.221,12.287,4.355,12.287,4.355C-2354.2,2572.441-2354.727,2561.715-2354.555,2557.649Z" transform="translate(2376.474 -2537.317)" fill="#1d272b"/>
        <path id="Trazado_150124" data-name="Trazado 150124" d="M-2404.918,2438.361a2.217,2.217,0,0,1,1.72-2.158c-3.533-1.766-12.922-7.508-7.8-16.634,0,0-6.083,7.019-2.218,12.846-6.985-.266-9.811,8.582-9.811,8.582,5.086-9.062,14.775-4.171,18.188-2.05A2.258,2.258,0,0,1-2404.918,2438.361Z" transform="translate(2423.025 -2419.569)" fill="#1d272b"/>
      </g>
      <g id="Grupo_90945" data-name="Grupo 90945" transform="translate(9.36 7.828)">
        <path id="Trazado_150125" data-name="Trazado 150125" d="M-2356.891,2536.238a8.456,8.456,0,0,1,.121-1.415,14.451,14.451,0,0,0-2.523-.478,10.979,10.979,0,0,0-.163,1.893,10.967,10.967,0,0,0,7.265,10.323,14.211,14.211,0,0,0,.839-2.427A8.4,8.4,0,0,1-2356.891,2536.238Z" transform="translate(2359.457 -2525.273)" fill="#1d272b"/>
        <path id="Trazado_150126" data-name="Trazado 150126" d="M-2257.456,2536.238a11.028,11.028,0,0,0-.163-1.893,14.444,14.444,0,0,0-2.524.478,8.4,8.4,0,0,1,.121,1.415,8.4,8.4,0,0,1-5.537,7.9,14.059,14.059,0,0,0,.837,2.427A10.966,10.966,0,0,0-2257.456,2536.238Z" transform="translate(2279.385 -2525.273)" fill="#1d272b"/>
        <path id="Trazado_150127" data-name="Trazado 150127" d="M-2332.077,2477.321a8.364,8.364,0,0,1,5.463-2.022,8.362,8.362,0,0,1,5.461,2.022,14.571,14.571,0,0,0,1.725-1.9,10.92,10.92,0,0,0-7.187-2.684,10.916,10.916,0,0,0-7.187,2.684A14.5,14.5,0,0,0-2332.077,2477.321Z" transform="translate(2337.579 -2472.732)" fill="#1d272b"/>
      </g>
    </g>
  </g>
</svg>
