<svg xmlns="http://www.w3.org/2000/svg" width="89.418" height="71.606" viewBox="0 0 89.418 71.606">
  <g id="img16" transform="translate(-5373.479 828.703)">
    <g id="img16-2" data-name="img16" transform="translate(5373.479 -828.703)">
      <path id="Trazado_165236" data-name="Trazado 165236" d="M5437.96-757.1a3.605,3.605,0,0,1-1.481-3.463c.074-4.391.017-8.785-.025-13.178-.009-.931-.171-1.86-.277-2.927-1.5.1-2.84.285-4.179.259a6.785,6.785,0,0,1-3.115-.522c-1.647-.941-2.629-.387-3.727.845a53.132,53.132,0,0,1-3.944,3.859c-.919.838-1.968,1.835-3.227.641-1.23-1.167-.707-2.326.332-3.377,1.627-1.647,3.276-3.275,4.812-5a2.381,2.381,0,0,0,.354-1.769,11.189,11.189,0,0,0-.939-3.014,3.363,3.363,0,0,0-1.5-1.529c-1.455-.637-3.02-1.016-4.513-1.574-3.148-1.176-5.419-5.509-4.541-8.728a3.528,3.528,0,0,1,1.051-1.371,20.008,20.008,0,0,0,6.217-13.176c.537-6.578-4.652-12.913-11.113-13.3a12.243,12.243,0,0,0-13.3,11.973,18.421,18.421,0,0,0,5.3,13.52,6.7,6.7,0,0,1,.375,8.909,6.319,6.319,0,0,1-3.377,2.376c-4.37,1.251-8.7,2.673-12.992,4.163-4.45,1.544-6.261,4.1-6.383,8.764-.129,4.864-.251,9.73-.245,14.595a2.975,2.975,0,0,1-1.548,3.025h-2.494v-17.456a8.651,8.651,0,0,0,.3-1.348c.366-5.617,3.226-9.378,8.468-11.316,2.269-.839,4.586-1.547,6.89-2.292s4.633-1.4,6.91-2.208c1.748-.622,2.457-2.785,1.387-3.937a23.18,23.18,0,0,1-6.606-17.038,16,16,0,0,1,5.52-11.828c2.606-2.422,5.837-3.431,9.194-4.183h2.85c.737.177,1.475.345,2.209.532,9.521,2.422,14.554,11.084,12.239,21.015a24.687,24.687,0,0,1-5.747,11.058c-1.523,1.7-1.056,3.466,1.058,4.346a29.608,29.608,0,0,0,3.669,1.3,1.814,1.814,0,0,0,1.511-.309c2.537-2.654,4.943-5.435,7.5-8.068,3.634-3.738,7.364-7.382,11.044-11.057-1.46-1.755-1.647-3.073-.549-3.973,1.473-1.207,2.4.043,3.323.892,1.994,1.825,3.938,3.707,5.63,5.309l3.368-3.14c-.694-.615-1.448-1.2-2.1-1.879-1.3-1.354-1.529-2.757-.547-3.543,1.35-1.081,2.422-.243,3.429.673.438.4.878.8,1.292,1.223q3.593,3.668,7.174,7.349v1.425c-1.7,1.859-2.127,1.882-4,.2-.744-.669-1.477-1.35-2.259-2.066l-3.592,3.456c2.09,1.847,4.081,3.534,5.982,5.317,1.046.98,2.15,2.105.731,3.613-1.373,1.458-2.437.262-3.538-.485-.044-.03-.115-.02-.264-.041-.3.276-.655.579-.983.907-4.564,4.572-9.1,9.176-13.706,13.7a3.931,3.931,0,0,0-1.233,3.481c.314,6.086.347,12.189.344,18.285,0,.7-.877,1.39-1.348,2.084Zm-6.248-36.633c.9.984,1.631,1.844,2.43,2.631.939.924,1.255,1.828.212,2.883-1.119,1.131-2.061.71-3.032-.239-.831-.813-1.734-1.549-2.96-2.632a27.4,27.4,0,0,0-1.672,3.99,5.717,5.717,0,0,0,2.762,5.9c1.926,1.153,4.537,1.2,5.994-.186,5.972-5.667,11.873-11.408,17.647-16.976l-8.285-8.422-2.783,2.352c1.043.892,2,1.6,2.827,2.451.839.862,1.341,1.939.29,2.969-1.034,1.012-2.151.762-3.165-.136-.912-.807-1.809-1.629-2.74-2.468l-2.014,2.48c.888.984,1.782,1.85,2.524,2.831.714.945.849,2.213-.189,2.826a3.252,3.252,0,0,1-2.669-.216,18.084,18.084,0,0,1-2.944-2.449Z" transform="translate(-5373.479 828.703)"/>
      <path id="Trazado_165237" data-name="Trazado 165237" d="M5408.167-655.455c-1.466-.68-1.9-1.793-1.824-3.412.152-3.127.019-6.266.11-9.4.034-1.167.2-2.465,1.843-2.544,1.163-.056,1.991.38,2,1.687.028,3.961.1,7.924-.017,11.882-.018.607-.912,1.19-1.4,1.784Z" transform="translate(-5394.629 727.061)"/>
      <path id="Trazado_165238" data-name="Trazado 165238" d="M5519.155-655.257a2.977,2.977,0,0,1-1.832-3.241c.145-2.961.033-5.935.063-8.9a3.358,3.358,0,0,1,.3-1.886,2.986,2.986,0,0,1,1.975-1.218,2.2,2.2,0,0,1,1.547,1.513q.231,5.958.067,11.927c-.017.615-.917,1.206-1.407,1.807Z" transform="translate(-5466.074 726.863)"/>
    </g>
  </g>
</svg>
