<svg xmlns="http://www.w3.org/2000/svg" xmlns:xlink="http://www.w3.org/1999/xlink" width="457.759" height="563.662" viewBox="0 0 457.759 563.662">
  <defs>
    <linearGradient id="linear-gradient" x1="0.5" x2="0.5" y2="1" gradientUnits="objectBoundingBox">
      <stop offset="0" stop-color="#f5f5f5"/>
      <stop offset="0.25" stop-color="#f5f5f5"/>
      <stop offset="1" stop-color="#eeeef2"/>
    </linearGradient>
    <linearGradient id="linear-gradient-2" x1="0.5" x2="0.5" y2="1" gradientUnits="objectBoundingBox">
      <stop offset="0" stop-color="#fff"/>
      <stop offset="1" stop-color="#f8f8f8"/>
    </linearGradient>
    <radialGradient id="radial-gradient" cx="0.076" cy="0.019" r="1.465" gradientTransform="translate(0.001)" gradientUnits="objectBoundingBox">
      <stop offset="0" stop-color="#f6f6f7"/>
      <stop offset="0.477" stop-color="#f9f9fa"/>
      <stop offset="0.715" stop-color="#fff"/>
    </radialGradient>
  </defs>
  <g id="img10" transform="translate(-1009.531 -3318.398)">
    <path id="Trazado_163418" data-name="Trazado 163418" d="M462.741,639.483c16.645-35.425,21.38-81.4,12.567-122-5.572-25.668-16.266-49.513-17.633-76.279-2.735-53.515,31.735-96.779,38.886-149.484,3.143-23.163-.286-50.149-13.759-64.219-13.307-13.9-32.3-11.06-47.365-1.327s-27.813,25.312-42.277,36.7-32.275,18.431-47.55,9.366c-15.472-9.182-24.249-32.327-29.165-54.885s-7.329-46.583-15.719-67.02c-13.828-33.682-43.31-52.046-70.785-47.294s-52.022,30.784-65.189,64.984-15.468,75.565-8.914,113.339c3.325,19.158,8.8,37.5,11.789,56.773s3.26,40.358-3.408,57.713c-13.943,36.292-50.727,41.353-69.99,72.476-15.9,25.687-16.4,64.887-7.375,96.477s25.979,57.22,42.884,81.6c78.854,3.723,159.121,3.969,237.975,7.693C398.361,655.548,432.13,642.014,462.741,639.483Z" transform="translate(940.748 3227.851)" fill="#a4a4b4" opacity="0.354" style="mix-blend-mode: multiply;isolation: isolate"/>
    <path id="Trazado_163419" data-name="Trazado 163419" d="M359.21,184.954c-.195,20.826,19.6,38.952,16.158,59.492-1.842,10.99-10.217,22.13-5.349,32.154,4.305,8.87,16.637,10.408,26.066,7.524,22.071-6.752,35.486-29.312,41.9-51.484,6.035-20.855,7.532-44.149-2.132-63.59-7.788-15.663-25.755-29.492-44-28.212C375.142,142.009,359.356,169.267,359.21,184.954Z" transform="translate(1020.684 3287.516)" fill="#a4a4b4" opacity="0.31" style="mix-blend-mode: multiply;isolation: isolate"/>
    <path id="Trazado_163420" data-name="Trazado 163420" d="M117.326,149.255c-13.764,22.964-14.385,53.231-1.573,76.739,4.048,7.428,9.516,14.351,16.9,18.481s16.906,5.052,24.255.86c11.144-6.357,13.609-21.351,12.722-34.15s-3.787-26.217,1.142-38.062c3.213-7.721,9.383-13.741,14.856-20.063s10.582-13.7,10.864-22.061c.733-21.667-22.27-20.048-36.132-15.548A78.786,78.786,0,0,0,117.326,149.255Z" transform="translate(958.235 3225.72)" fill="#a4a4b4" opacity="0.31" style="mix-blend-mode: multiply;isolation: isolate"/>
    <g id="Grupo_127514" data-name="Grupo 127514" transform="translate(1027.226 3326.529)" style="mix-blend-mode: multiply;isolation: isolate">
      <path id="Trazado_151849" data-name="Trazado 151849" d="M461.362,649.907l-1.716-2.173c4.722-7.158,12.259-23.565,9.707-53.065-1.135-13.132-3.951-26.1-6.673-38.648-1.215-5.6-2.473-11.4-3.571-17.154-11.709-61.4-6.587-129.135,14.052-185.832,1.833-5.031,3.817-10.08,5.736-14.962,5.689-14.472,11.57-29.439,14.1-45.606,4.436-28.37-4.333-49.634-14.357-57.384-9.617-7.44-23.193-6.3-37.244,3.121a175.77,175.77,0,0,0-14.967,11.737c-6.385,5.388-12.986,10.959-20.075,14.9-27.889,15.519-62.758,2.33-81.105-30.673-8.818-15.86-13.8-35.028-18.612-53.565-1.865-7.183-3.795-14.612-5.916-21.719-6.6-22.1-18.676-49.836-38.738-56.47-17.628-5.833-35.483,6.986-47.354,18.766-22.713,22.539-38.723,53.064-45.083,85.949-4.288,22.176-4.46,46.313-4.628,69.655-.248,34.762-.506,70.707-14.66,99.655-6.439,13.169-15.3,23.676-23.859,33.839-8.021,9.516-16.315,19.357-22.5,31.285-14.01,27.027-17.444,65.292-9.422,104.983,7.209,35.661,21.9,67.3,36.114,97.906L128.64,646.2c-14.3-30.8-29.094-62.649-36.4-98.779-8.214-40.639-4.652-79.907,9.772-107.732,6.346-12.244,14.748-22.212,22.873-31.853,8.448-10.023,17.184-20.389,23.447-33.2,13.761-28.145,14-62.017,14.259-97.879.169-23.544.342-47.888,4.709-70.46,6.5-33.6,22.826-64.76,45.974-87.734,12.264-12.169,30.762-25.394,49.245-19.279,21.016,6.951,33.54,35.579,40.345,58.372,2.143,7.177,4.082,14.642,5.956,21.86,4.754,18.3,9.669,37.229,18.265,52.689,17.736,31.9,51.443,44.651,78.4,29.65,6.909-3.844,13.428-9.345,19.733-14.663A177.148,177.148,0,0,1,440.385,235.3c14.741-9.884,29.1-10.994,39.387-3.035,10.749,8.313,20.183,30.91,15.5,60.882-2.6,16.62-8.563,31.792-14.331,46.467-1.91,4.86-3.886,9.884-5.7,14.871-20.387,56-25.446,122.906-13.88,183.556,1.086,5.7,2.339,11.471,3.549,17.051,2.751,12.676,5.6,25.783,6.757,39.193C474.322,625.062,466.35,642.346,461.362,649.907Z" transform="translate(-87.906 -97.739)" fill="#a4a4b4"/>
    </g>
    <g id="Grupo_127519" data-name="Grupo 127519" transform="translate(1009.531 3719.957)">
      <path id="Trazado_158750" data-name="Trazado 158750" d="M1597.793,319.438l-442.6-1.011,84.714-32.841h276.036Z" transform="translate(-1147.613 -285.586)" fill="#443b2c"/>
      <rect id="Rectángulo_34300" data-name="Rectángulo 34300" width="425.76" height="98.356" transform="translate(16 42.947)" fill="#443b2c"/>
      <path id="Rectángulo_34301" data-name="Rectángulo 34301" d="M0,0H441.591a0,0,0,0,1,0,0V15.087a4.745,4.745,0,0,1-4.745,4.745H4.745A4.745,4.745,0,0,1,0,15.087V0A0,0,0,0,1,0,0Z" transform="translate(8.084 33.199)" fill="#272015"/>
      <path id="Rectángulo_34302" data-name="Rectángulo 34302" d="M4.745,0h432.1a4.745,4.745,0,0,1,4.745,4.745V19.831a0,0,0,0,1,0,0H0a0,0,0,0,1,0,0V4.745A4.745,4.745,0,0,1,4.745,0Z" transform="translate(8.084 135.766)" fill="#26251f"/>
      <path id="Trazado_158751" data-name="Trazado 158751" d="M1604.327,297.672H1156.673a4.307,4.307,0,0,0-4.294,4.294h0a4.307,4.307,0,0,0,4.294,4.294h447.654a4.308,4.308,0,0,0,4.295-4.294h0A4.308,4.308,0,0,0,1604.327,297.672Z" transform="translate(-1151.622 -268.366)" fill="#332c21"/>
      <rect id="Rectángulo_34303" data-name="Rectángulo 34303" width="457.759" height="9.6" transform="translate(0 149.05)" fill="#332c21"/>
      <path id="Trazado_158752" data-name="Trazado 158752" d="M1566.182,320.8H1166.022a3.547,3.547,0,0,0-3.538,3.538h0a3.546,3.546,0,0,0,3.538,3.535h400.159a3.548,3.548,0,0,0,3.538-3.535h0A3.548,3.548,0,0,0,1566.182,320.8Z" transform="translate(-1137.222 -235.412)" fill="#272015"/>
      <g id="Grupo_121059" data-name="Grupo 121059" transform="translate(62.148 67.199)">
        <path id="Trazado_158753" data-name="Trazado 158753" d="M1343.679,313.3H1297.2a6.588,6.588,0,0,0-6.568,6.569h0a6.587,6.587,0,0,0,6.568,6.567h46.482a6.588,6.588,0,0,0,6.569-6.567h0A6.588,6.588,0,0,0,1343.679,313.3Z" transform="translate(-1016.783 -313.299)" opacity="0.36"/>
        <rect id="Rectángulo_34304" data-name="Rectángulo 34304" width="4.884" height="20.715" transform="translate(318.645 5.726)" fill="#ffd56c"/>
        <rect id="Rectángulo_34305" data-name="Rectángulo 34305" width="4.884" height="20.715" transform="translate(284.456 5.726)" fill="#ffd56c"/>
        <path id="Trazado_158754" data-name="Trazado 158754" d="M1286.8,313.3h-46.484a6.586,6.586,0,0,0-6.566,6.569h0a6.585,6.585,0,0,0,6.566,6.567H1286.8a6.585,6.585,0,0,0,6.566-6.567h0A6.586,6.586,0,0,0,1286.8,313.3Z" transform="translate(-1097.833 -313.299)" opacity="0.36"/>
        <rect id="Rectángulo_34306" data-name="Rectángulo 34306" width="4.884" height="20.715" transform="translate(180.711 5.726)" fill="#ffd56c"/>
        <rect id="Rectángulo_34307" data-name="Rectángulo 34307" width="4.884" height="20.715" transform="translate(146.522 5.726)" fill="#ffd56c"/>
        <path id="Trazado_158755" data-name="Trazado 158755" d="M1230.747,313.3h-46.484a6.586,6.586,0,0,0-6.566,6.569h0a6.585,6.585,0,0,0,6.566,6.567h46.484a6.587,6.587,0,0,0,6.569-6.567h0A6.588,6.588,0,0,0,1230.747,313.3Z" transform="translate(-1177.696 -313.299)" opacity="0.36"/>
        <rect id="Rectángulo_34308" data-name="Rectángulo 34308" width="4.884" height="20.715" transform="translate(44.798 5.726)" fill="#ffd56c"/>
        <rect id="Rectángulo_34309" data-name="Rectángulo 34309" width="4.884" height="20.715" transform="translate(10.609 5.726)" fill="#ffd56c"/>
      </g>
      <path id="Trazado_158756" data-name="Trazado 158756" d="M1338.522,320.765h-15.9v7.073h15.9a3.537,3.537,0,1,0,0-7.073Z" transform="translate(-909.057 -235.462)" fill="#ffd56c"/>
      <path id="Trazado_158757" data-name="Trazado 158757" d="M1165.712,320.765h15.9v7.073h-15.9a3.537,3.537,0,0,1,0-7.073Z" transform="translate(-1137.661 -235.462)" fill="#ffd56c"/>
      <path id="Trazado_158758" data-name="Trazado 158758" d="M1523.94,300.239l-35.428-14.652H1212.475l-37.8,14.652Z" transform="translate(-1119.845 -285.586)" fill="#443b2c" opacity="0.27"/>
    </g>
    <g id="Grupo_127520" data-name="Grupo 127520" transform="translate(1108.173 3318.398)">
      <g id="Grupo_121036" data-name="Grupo 121036" transform="translate(0 82.755)">
        <path id="Trazado_158690" data-name="Trazado 158690" d="M614.85,236.3c-1.376-2.891-10.394,26.259-10.394,26.259l-1.368-9.574-10.121-7.932s-4.924,6.018-6.018,10.121S574.915,308.239,577.1,315.9s1.094,24.344,12.035,30.909,22.429-12.856,27.626-18.874S620.32,247.789,614.85,236.3Z" transform="translate(-576.814 -236.099)" fill="url(#linear-gradient)"/>
        <path id="Trazado_158691" data-name="Trazado 158691" d="M590.015,249.41s-1.915,24.618.547,27.353-4.376,34.738-1.641,36.653,7.385-15.318,5.471-21.062,4.65,5.471,4.65-.274,3.009-28.994-9.3-43.765" transform="translate(-563.21 -221.582)" fill="#868695"/>
      </g>
      <g id="Grupo_121037" data-name="Grupo 121037" transform="translate(7.21 81.326)">
        <path id="Trazado_158692" data-name="Trazado 158692" d="M605.077,267.613c-.788-.175-3.676.656-6.893,1.028a16.116,16.116,0,0,1-6.412-.284c-9.125-2.735-11.663-9.5-11.663-9.5,2.8-2.932,10.416-23.414,10.416-23.414l8.4,1.707,3.676.744c-.306,1.882-.5,3.654-.635,5.339v.022a81.949,81.949,0,0,0,.153,12.67C602.363,259.692,607.156,268.029,605.077,267.613Z" transform="translate(-580.109 -235.446)" fill="#db8804"/>
        <path id="Trazado_158693" data-name="Trazado 158693" d="M596.006,236.97c-.306,1.882-.5,3.654-.635,5.339v.022a2.581,2.581,0,0,1-.416.241c-4.661,2.32-9.3-3.829-9.3-3.829l6.674-2.517Z" transform="translate(-573.518 -234.519)" fill="#f7b242"/>
        <path id="Trazado_158694" data-name="Trazado 158694" d="M598.412,259.009c-.788-.175-3.676.656-6.893,1.029-1.269-2.013-1.685-4.048-.766-5.952-1.641-2.626-5.033-10.7-5.033-10.7-.131-2.473,5.186,2.32,7.112,3.545a3.474,3.474,0,0,0,2.626.394C595.7,251.088,600.491,259.425,598.412,259.009Z" transform="translate(-573.444 -226.842)" fill="#f7b242"/>
      </g>
      <g id="Grupo_121038" data-name="Grupo 121038" transform="translate(3.829 43.262)">
        <path id="Trazado_158695" data-name="Trazado 158695" d="M613.094,238.476l-3.744,11.556c-3.722,11.574-5.4,10.3-11.6,12.434-5.794,2-10.619-8.18-11.451-12.911-.733-3.994-8.022-11.293-7.731-14.757.116-1.4,1.092-.689,3.083,1.895a23.793,23.793,0,0,0,5.527,5c1.72-3.9-7.849-14.018-5.381-17.913,1.208-1.888,6.8,13.847,9.394,14.055,0,0,.757-1.359-1.363-9.3-1.21-4.558-2.5-9.241-1.355-10.265,2.092-1.851,2.978,8.134,8.127,18.281,0,0-.436-5.125-1.155-9.845-.678-4.309-1.759-8.265.186-8.383,1.6-.1,2.466,6.648,3.186,10.928a48.527,48.527,0,0,0,5.691,16.274,17.086,17.086,0,0,0,1.291,2C610.593,236.058,613.094,238.476,613.094,238.476Z" transform="translate(-578.564 -218.051)" fill="#db8804"/>
        <path id="Trazado_158696" data-name="Trazado 158696" d="M594.314,232.606s-4.9,2.171-5.86,6.147a6.611,6.611,0,0,1,4.569-8.145A17.065,17.065,0,0,0,594.314,232.606Z" transform="translate(-567.073 -203.13)" fill="#f7b242"/>
      </g>
      <g id="Grupo_121039" data-name="Grupo 121039" transform="translate(14.89 74.81)">
        <path id="Trazado_158697" data-name="Trazado 158697" d="M722.638,283.428A111.321,111.321,0,0,1,721,297.542q-1.116,6.5-2.626,12.933v.022a310.283,310.283,0,0,1-9.453,32.3c-2.188,6.324-4.333,13.086-7.549,18.972-1.444,2.648-3.961,4.967-4.333,8.053-.634,5.164,1.466,5.361-2.166,9.825-2.363,2.91-.9,7.177.569,10.635.7,1.663,1.379,3.326,2.013,5.011,10.547,27.134,13.414,55.34,10.81,84.357-1.269,14.092-3.063,28.141-4.748,42.189-.875,7.156-3.02,15.843-1.576,23.042,1.576,7.943-1.926,84.181-12.473,125.8a107.911,107.911,0,0,1-5.121,15.821l-16.7-.481s-7.287-92.65-7.659-129.106c-.241-24.968-5.274-58.295-8.425-76.829-1.466-8.556-2.517-13.983-2.517-13.983s4.026,57.244,4.026,70.023c0,12.758-3.654,27.353-3.654,27.353s8.031,88.252,5.471,127.64l-16.215,1.028-.919.066s-.328-.9-.9-2.582c-1.554-4.486-4.967-14.6-8.972-27.834-.153-.481-.284-.963-.416-1.4-.044-.131-.066-.241-.109-.372q-.985-3.25-1.9-6.5c-.875-2.954-1.729-5.93-2.56-8.906q-.558-2-1.116-4.07c-.416-1.422-.788-2.845-1.16-4.267-.744-2.845-1.51-5.755-2.254-8.687-1.86-7.353-3.654-14.968-5.274-22.626-.635-3.064-1.269-6.127-1.838-9.191-.306-1.532-.569-3.064-.853-4.6-5.8-32.474-7.44-48.841-7.9-56.172a49.366,49.366,0,0,1-.131-5.1s-16.412-41.576-18.6-91.162C582.547,411,588.849,391,594.67,378.791c4.552-9.628,8.8-14.442,8.8-14.442a.238.238,0,0,1-.044-.087c-.284-.81-2.385-6.915-.678-7.943a13.779,13.779,0,0,0,1.379-.941,19.218,19.218,0,0,0,1.9-1.619s-1.794-11.423-3.458-27.156c-3.085-28.994-5.733-72.584,4.2-86,7.353-9.956,21.489-8.293,25.865-7.549,1.269.219,4.53,1.9,8.534,4.18C650.952,242.814,665.11,252,665.11,252s19.628-3.567,30.679-2.363a21.193,21.193,0,0,1,3.239.547c9.847,2.56,18.6,7.659,22.976,24.443A31.689,31.689,0,0,1,722.638,283.428Z" transform="translate(-583.619 -232.468)" fill="url(#linear-gradient-2)"/>
        <path id="Trazado_158698" data-name="Trazado 158698" d="M664.538,247.053c-17.418,4.2-41.183,18.666-46.631,17.79-6.849-1.094-10.941-11.226-5.208-7.134,5.733,4.114,25.165-2.451,25.165-2.451s-19.432,1.357-23.808-6.3c-2.735-4.77-3.764-10.591-4.136-14.311,9.781,5.58,23.939,14.771,23.939,14.771S653.487,245.85,664.538,247.053Z" transform="translate(-552.367 -229.88)" fill="url(#linear-gradient)"/>
        <path id="Trazado_158699" data-name="Trazado 158699" d="M611.142,308.229c1.707.744-12.32,1.51-22.473-1.05,4.552-9.628,8.8-14.442,8.8-14.442S608.67,307.135,611.142,308.229Z" transform="translate(-577.617 -160.855)" fill="#868695"/>
        <path id="Trazado_158700" data-name="Trazado 158700" d="M664.513,311.811c-1.663,1.182-44.6,31.445-70.68-7.549a19.213,19.213,0,0,0,1.9-1.619s-1.794-11.423-3.458-27.156c3.261,10.219,9.825,24.749,23.611,34.355C636.175,324,663.244,312.358,664.513,311.811Z" transform="translate(-573.328 -181.353)" fill="#868695"/>
        <path id="Trazado_158701" data-name="Trazado 158701" d="M679.21,562.854a107.916,107.916,0,0,1-5.121,15.821l-16.7-.481s-7.287-92.65-7.659-129.106c-.241-24.968-5.274-58.295-8.425-76.829-1.466-8.556-2.517-13.983-2.517-13.983s4.026,57.244,4.026,70.024c0,12.757-3.654,27.353-3.654,27.353s8.031,88.252,5.471,127.64l-16.215,1.029A19.43,19.43,0,0,1,626.6,581.8c-4.9-7.856-6.893-20.176-8.972-27.834-.153-.481-.284-.963-.416-1.4-.044-.131-.066-.241-.109-.372q-.985-3.25-1.9-6.5c-.875-2.954-1.729-5.93-2.56-8.906q-.558-2-1.116-4.07c-.416-1.422-.788-2.845-1.16-4.267-.788-2.888-1.532-5.777-2.254-8.687q-2.888-11.259-5.274-22.626c-.635-3.064-1.269-6.127-1.838-9.191-.306-1.532-.569-3.064-.853-4.6-5.8-32.473-7.44-48.841-7.9-56.172,1.729,1.772,3.195,3.348,4.245,4.573,6.018,7.112,3.829,21.335,15.318,25.165s15.865-20.788,15.865-27.9-19.147-28.994-15.318-32.276,12.582-21.335,12.582-21.335-22.429,10.941-26.806,3.282,13.129-3.829,16.959-3.829,16.412-4.376,9.847-7.112-20.788-2.735-22.976-6.018,12.035-10.394,16.959-8.206c1.707.766-.722-.941-1.029-1.225-2.21-1.97-4.9-3.5-7.243-5.3-3.414-2.626-7.156-5.23-9.65-8.8-1.182-1.707-4.508-8.972.853-7.046,1.335.46,2.407,1.554,3.786,1.816.657.131,1.335.088,1.991.219,2.495.569,3.436,3.72,5.6,5.033,1.619.985,3.654.81,5.514.613a7.466,7.466,0,0,0-2.954-2.932c-3.37-2.3-6.74-4.573-10.088-6.871-.022-.022-6.783-5.449-2.888-5.8,4.355-.394,8.053,3.26,12.364,3.961,3.545.591,7.243-.875,10.766-.153a27.791,27.791,0,0,1,4.858,1.86c7.856,3.217,16.828,1.9,25.033-.306q-5.679,4.989-11.313,10.022c5.121-.832,12.035-4.136,16.937-3.7-.372,7.068-14.245,14.88-19.563,18.6,4.945,1.707,10.678,2.954,15.121,5.558-3.589,4.245-5.1,8.665-5.668,14.333-1.707,16.937-3.37,34.443,1.816,50.636,1.4,4.442,3.326,8.753,4.026,13.348.722,4.9.022,9.935.919,14.814s4.114,9.935,9.037,10.569a4.445,4.445,0,0,1,2.144.525c1.9,1.357-.153,4.136-1.532,6.018-2.867,3.851-2.32,9.322-.241,13.633,2.079,4.289,5.449,7.812,8.272,11.663a6.985,6.985,0,0,1,1.619,3.479c.153,1.794-.963,3.392-1.882,4.923-3.37,5.668-4.464,12.342-5.514,18.819-.394,2.516-.81,5.121-.2,7.593.394,1.532,1.138,2.954,1.6,4.464,1.466,4.814-.175,10.066.81,15.011C673.258,554.036,676.934,558.149,679.21,562.854Z" transform="translate(-573.363 -124.642)" fill="url(#linear-gradient)"/>
        <path id="Trazado_158702" data-name="Trazado 158702" d="M674.738,257.17a111.323,111.323,0,0,1-1.641,14.114q-1.116,6.5-2.626,12.932v.022a310.266,310.266,0,0,1-9.453,32.3c-2.188,6.324-4.333,13.086-7.549,18.972-1.444,2.648-3.961,4.967-4.333,8.053-.634,5.164,1.466,5.361-2.166,9.825-2.363,2.91-.9,7.177.569,10.635.7,1.663,1.379,3.326,2.013,5.011-1.575,2.538-3.195,4.048-4.814,4.245-13.677,1.641-14.771-7.112-7.659-10.941s8.206-13.129,8.206-13.129-12.035,8.753-17.506,8.753-7.4-9.3,10.11-21.335c12.889-8.84,24.6-70.417,36.106-82.059C674.278,255.419,674.519,256.295,674.738,257.17Z" transform="translate(-535.718 -206.211)" fill="#868695"/>
      </g>
      <g id="Grupo_121040" data-name="Grupo 121040" transform="translate(57.714 502.965)">
        <path id="Trazado_158703" data-name="Trazado 158703" d="M639.074,472.963c-2.6-2.755-3.241-36.635-4.429-42.784,0,0-5.541-3.144-16.959-1.641-10.394,1.368-14.5,6.018-14.5,6.018,1.385,3.722,11.829,31.206,10.714,36.585-.943,4.552-5.836,10.394-1.915,17.688H642.73S646.293,480.622,639.074,472.963Z" transform="translate(-603.189 -428.13)" fill="#db8804"/>
        <path id="Trazado_158704" data-name="Trazado 158704" d="M607.763,453.721s8.388-10.891,25.53-2.188c0,0,.729,7.659-7.3,6.2S613.234,462.109,607.763,453.721Z" transform="translate(-597.754 -404.328)" fill="#f7b242"/>
      </g>
      <g id="Grupo_121041" data-name="Grupo 121041" transform="translate(95.188 501.59)">
        <path id="Trazado_158705" data-name="Trazado 158705" d="M643.844,469.7c-2.131-2.794,4.742-33.708,5.19-37.677,0,0-3.558-2.989-12.035-4.1-10.394-1.368-16.685,1.094-16.685,1.094.764,4.755,3.615,38.576,2.74,44.7-1.823,12.736,2.91,15.865,2.91,15.865h30.743C665.492,474.956,647.439,474.409,643.844,469.7Z" transform="translate(-620.314 -427.502)" fill="#db8804"/>
        <path id="Trazado_158706" data-name="Trazado 158706" d="M624.718,453.206s10.21-10.059,26.333-.46c0,0-.074,5.93-8.1,4.471S630.189,461.593,624.718,453.206Z" transform="translate(-615.081 -402.438)" fill="#f7b242"/>
      </g>
      <g id="Grupo_121047" data-name="Grupo 121047" transform="translate(61.925 0)">
        <path id="Trazado_158707" data-name="Trazado 158707" d="M637.834,209.483c15.733.177,32.1,16.777,32.824,27.353s-9.482,40.119-30.635,39.025-33.7-33.007-32.624-42.671S621.606,209.3,637.834,209.483Z" transform="translate(-602.475 -184.972)" fill="#a7c6ce"/>
        <path id="Trazado_158708" data-name="Trazado 158708" d="M633.265,222.455s6.39-7.427,7.856.575c1.7,9.269-6.506,13.679-8.39,10.834S633.265,222.455,633.265,222.455Z" transform="translate(-573.15 -173.283)" fill="#ff8b66"/>
        <path id="Trazado_158709" data-name="Trazado 158709" d="M614.648,223.949s-7.44-6.372-7.676,1.757c-.276,9.42,8.5,12.539,9.932,9.44S614.648,223.949,614.648,223.949Z" transform="translate(-602.913 -170.603)" fill="#ff8b66"/>
        <path id="Trazado_158710" data-name="Trazado 158710" d="M638.606,272.4c15.342-1.169,23.237-11.847,20.948-41.9-1.18-15.5-9.792-24.412-26.977-23.1s-23.7,11.368-22.515,26.872C612.52,266.567,622.756,273.613,638.606,272.4Z" transform="translate(-599.393 -187.597)" fill="#ff8b66"/>
        <path id="Trazado_158711" data-name="Trazado 158711" d="M612.69,225.693c-.153,1.562,1.308,2.983,3.263,3.173s3.661-.923,3.812-2.486-1.309-2.983-3.263-3.173S612.841,224.131,612.69,225.693Z" transform="translate(-596.124 -168.687)" fill="#db614d"/>
        <path id="Trazado_158712" data-name="Trazado 158712" d="M627.146,225.442c.221,1.554,1.976,2.589,3.919,2.313s3.341-1.759,3.12-3.313-1.976-2.591-3.919-2.315S626.924,223.887,627.146,225.442Z" transform="translate(-578.961 -169.998)" fill="#db614d"/>
        <g id="Grupo_121042" data-name="Grupo 121042" transform="translate(21.568 36.476)">
          <path id="Trazado_158713" data-name="Trazado 158713" d="M615.412,219.281a.766.766,0,0,0,.921-.21c1.954-2.387,5.7-2.582,5.74-2.582a.77.77,0,0,0-.068-1.538c-.182.009-4.477.232-6.862,3.149a.768.768,0,0,0,.109,1.081A.778.778,0,0,0,615.412,219.281Z" transform="translate(-614.97 -214.95)" fill="#0c476b"/>
        </g>
        <g id="Grupo_121043" data-name="Grupo 121043" transform="translate(43.792 35.228)">
          <path id="Trazado_158714" data-name="Trazado 158714" d="M625.57,215.882a.765.765,0,0,0,.4.068c.037,0,3.777-.376,6.068,1.685a.769.769,0,0,0,1.029-1.142c-2.8-2.527-7.079-2.092-7.261-2.072a.769.769,0,0,0-.241,1.462Z" transform="translate(-625.126 -214.38)" fill="#0c476b"/>
        </g>
        <path id="Trazado_158715" data-name="Trazado 158715" d="M616.246,222.589c.147,1.906,1.12,3.385,2.179,3.3s1.8-1.689,1.654-3.593-1.12-3.385-2.18-3.3S616.1,220.683,616.246,222.589Z" transform="translate(-591.907 -173.673)" fill="#1a4850"/>
        <path id="Trazado_158716" data-name="Trazado 158716" d="M626.134,221.876c.144,1.906,1.12,3.385,2.177,3.3s1.8-1.692,1.654-3.6-1.121-3.385-2.18-3.3S625.987,219.97,626.134,221.876Z" transform="translate(-580.158 -174.52)" fill="#1a4850"/>
        <path id="Trazado_158717" data-name="Trazado 158717" d="M633.269,228.5s-9.453,2.064-14.565-.127c0,0,3.32,6.864,8.49,5.832A7.666,7.666,0,0,0,633.269,228.5Z" transform="translate(-588.964 -162.523)" fill="#1a4850"/>
        <path id="Trazado_158718" data-name="Trazado 158718" d="M623.618,222.763s-1.755-4.587-3.571-4.109-2.91,4.6-2.91,4.6l-2.834-1.236,2.751.149s1.1-4.3,2.921-4.447C622.568,217.513,623.618,222.763,623.618,222.763Z" transform="translate(-594.194 -175.186)" fill="#1a4850"/>
        <path id="Trazado_158719" data-name="Trazado 158719" d="M625.388,222.774s1.039-4.8,2.908-4.6,3.571,4.109,3.571,4.109l2.615-1.652-2.7.565s-1.74-4.085-3.56-3.954C625.629,217.426,625.388,222.774,625.388,222.774Z" transform="translate(-581.022 -175.757)" fill="#1a4850"/>
        <g id="Grupo_121044" data-name="Grupo 121044" transform="translate(33.949 52.055)">
          <path id="Trazado_158720" data-name="Trazado 158720" d="M622.677,228.739a4.8,4.8,0,0,0,1.116.357l.311-1.63c-1.387-.265-1.748-1.083-1.807-1.722a2.05,2.05,0,0,1,.891-1.98q.43-.164.952.519l1.32-1.007a2.384,2.384,0,0,0-2.875-1.057,3.643,3.643,0,0,0-1.939,3.676A3.4,3.4,0,0,0,622.677,228.739Z" transform="translate(-620.628 -222.069)" fill="#db614d"/>
        </g>
        <path id="Trazado_158721" data-name="Trazado 158721" d="M614.8,223.322l-1.921,7.733s-5.74-1.534-3.215-10.694S614.8,223.322,614.8,223.322Z" transform="translate(-600.474 -176.112)" fill="#0c476b"/>
        <path id="Trazado_158722" data-name="Trazado 158722" d="M636.856,212.112s-18.646,33.53-28.482,28.95c0,0-2.615-35.874,25.858-35.874s34.112,16.029,34.027,31.9c0,0-3.978,5.871-7.5,5.037C660.758,242.128,665.179,212.786,636.856,212.112Z" transform="translate(-601.313 -190.073)" fill="#0c476b"/>
        <path id="Trazado_158723" data-name="Trazado 158723" d="M622.326,237.415s-12.766-7.84-15.046-20.287" transform="translate(-602.54 -175.886)" fill="none" stroke="#ffd5a2" stroke-linecap="round" stroke-miterlimit="10" stroke-width="0.5"/>
        <path id="Trazado_158724" data-name="Trazado 158724" d="M629.9,242.465s13.311-12.217,14.221-29.587" transform="translate(-575.655 -180.936)" fill="none" stroke="#ffd5a2" stroke-linecap="round" stroke-miterlimit="10" stroke-width="0.5"/>
        <path id="Trazado_158725" data-name="Trazado 158725" d="M611.216,230.456c5.061,17.917,39.935,27.171,47.047-3.328" transform="translate(-597.862 -164.003)" fill="none" stroke="#ffd5a2" stroke-linecap="round" stroke-miterlimit="10" stroke-width="0.5"/>
        <path id="Trazado_158726" data-name="Trazado 158726" d="M632.3,221.165c9.468-.6,19.51,8.387,20.788,14.405s-6.2,20.425-18.419,21.335c-11.3.845-21.517-12.582-21.517-18.963S623.731,221.712,632.3,221.165Z" transform="translate(-595.558 -171.124)" fill="#fff"/>
        <path id="Trazado_158727" data-name="Trazado 158727" d="M620.363,223.062s3.556-2.554,7.02-.274" transform="translate(-586.993 -170.285)" fill="none" stroke="#ffd5a2" stroke-linecap="round" stroke-linejoin="round" stroke-width="0.5"/>
        <path id="Trazado_158728" data-name="Trazado 158728" d="M612.331,222.246a4.576,4.576,0,0,0,.656.306.068.068,0,0,1-.044.022S612.7,222.443,612.331,222.246Z" transform="translate(-596.537 -169.804)" fill="#4ba6c6"/>
        <g id="Grupo_121045" data-name="Grupo 121045" transform="translate(4.504 37.831)">
          <path id="Trazado_158729" data-name="Trazado 158729" d="M632.155,218.689l.363,7.2a27.164,27.164,0,0,0,7.659-3.1c.853-.56,2.554-5.105,2.1-6.018C642.276,216.774,639.083,218.6,632.155,218.689Z" transform="translate(-577.486 -214.137)" fill="#23687a"/>
          <path id="Trazado_158730" data-name="Trazado 158730" d="M614.976,218.7a49.326,49.326,0,0,1-7.567-1.094s-.639,4.195.182,5.928,7.2,2.643,7.2,2.643Z" transform="translate(-607.172 -213.148)" fill="#23687a"/>
          <path id="Trazado_158731" data-name="Trazado 158731" d="M656.721,227.406c-.066,1.641-4.989,4.311-6.937,4.464-1.948.175-8.381-5.974-15.077-6.105s-12.167,6.018-13.742,6.565a3.607,3.607,0,0,1-1.685-.109c-2.692-.635-7.243-2.779-7.812-3.589-.766-1.007-.5-10.219.613-10.394a183.558,183.558,0,0,1,19.825-1.838l1.86-.066c2.3-.066,4.464-.088,6.5-.088a114.106,114.106,0,0,1,15.646.832C657.553,217.493,656.787,225.765,656.721,227.406Z" transform="translate(-602.586 -214.765)" fill="#008f85" opacity="0.25"/>
          <path id="Trazado_158732" data-name="Trazado 158732" d="M631.907,216.316,619.28,232.137c-2.692-.635-7.243-2.779-7.812-3.589-.766-1.007-.5-10.219.613-10.394A183.553,183.553,0,0,1,631.907,216.316Z" transform="translate(-602.586 -214.682)" fill="#fff" opacity="0.25"/>
          <path id="Trazado_158733" data-name="Trazado 158733" d="M631.449,216.246l-13,9.628s3.654-5.011,6.5-9.541C627.248,216.268,629.414,216.246,631.449,216.246Z" transform="translate(-593.769 -214.765)" fill="#fff" opacity="0.25"/>
          <path id="Trazado_158734" data-name="Trazado 158734" d="M657.938,217.575c-1.466-2.188-9.563-2.1-21.882-1.926-10.941.175-22.976,1.926-24.618,3.195-1.488,1.16-1.313,7.724-.613,10.569.022,0,.022,0,0,.022a6.935,6.935,0,0,0,.241.722c.919,2.188,9.3,5.1,11.313,4.924,2.013-.2,6.39-6.871,13.3-7.309,7.4-.438,11.773,5.3,13.786,6.215,1.991.9,7.549-2.013,8.928-4.2.066-.109.131-.241.2-.372v-.022C659.71,226.788,659.316,219.654,657.938,217.575ZM613.079,220.2c.81-.9,6.652-1.816,21.795-2.451,15.121-.635,20.963.372,21.6,1.007.569.547.722,6.455.372,8.381a1.436,1.436,0,0,1-.175.547c-.547.744-5.208,4.026-6.3,3.654s-7.024-5.755-14.6-5.558c-7.549.175-12.932,6.28-14.027,6.74-.722.306-4.048-.919-6.346-2.035a4.58,4.58,0,0,1-.656-.306.021.021,0,0,0-.022-.022,4.927,4.927,0,0,1-1.554-1.007C612.707,228.32,612.313,221.055,613.079,220.2Z" transform="translate(-603.452 -215.569)" fill="#1d272b"/>
          <path id="Trazado_158735" data-name="Trazado 158735" d="M656.629,225.573a3.394,3.394,0,0,1-.547.919c.35-1.926.2-7.834-.372-8.381-.634-.635-6.477-1.641-21.6-1.007-15.143.635-20.985,1.554-21.795,2.451-.766.853-.372,8.118.088,8.95a4.219,4.219,0,0,1-1.007-.919c-.635-.919-.547-6.652-.088-8.206.372-1.247,7.659-2.823,22.714-3.195,15.033-.35,21.335.656,22.057,1.379S657.175,224.041,656.629,225.573Z" transform="translate(-602.69 -214.923)" fill="#4ba6c6"/>
          <path id="Trazado_158736" data-name="Trazado 158736" d="M658.31,223.134c-.066.131-.131.263-.2.372-1.379,2.188-6.937,5.1-8.928,4.2-2.013-.919-6.39-6.652-13.786-6.215-6.915.438-11.291,7.112-13.3,7.309-2.013.175-10.394-2.735-11.313-4.924a6.921,6.921,0,0,1-.241-.722,6.107,6.107,0,0,0,2.254,2.166c2.1,1.007,8.206,3.107,9.125,2.648.9-.46,7-7.287,14.136-7.112,7.09.2,12.385,5.755,13.567,6.193C650.586,227.423,655.772,225.191,658.31,223.134Z" transform="translate(-603.168 -209.289)" fill="#4ba6c6"/>
        </g>
        <path id="Trazado_158737" data-name="Trazado 158737" d="M676.33,226c-2.735-3.567-1.926-7.943-6.018-13.129-4.092-5.208-18.622-15.58-32.276-14.508-13.961,1.094-10.11,6.849-17.769,9.563-7.659,2.757-12.867,18.337-11.773,20.526s-3.829,4.639-3.282,19.694a29.507,29.507,0,0,0,2.21,10.679c2.56,5.974,6.455,8.14,7.024,8.425a.272.272,0,0,1,.066.044c-.284,1.9,4.659,8.2,4.661,8.206-.171-.219-3.144,2.632-3.23,3.02-.466,2.149,2.562,4,3.919,5.486,1.737,1.9,2.9,4.252,4.4,6.344s3.547,4.02,6.092,4.425c2.048.326,4.1-.379,6.107-.893,6.554-1.672,13.359-1.346,20.055-1.7,2.182-.116,8.922.225,10.506-1.435,1.838-1.923-1.593-4.145-3.278-5.4,1.641,0,2.188-10.679,4.661-12.035,2.451-1.357,7.659-13.392,8.753-17.769s0-9.585,1.619-12.035C680.444,241.029,679.065,229.54,676.33,226Zm-32.08,57.091a23.623,23.623,0,0,1-4.114.066,20.356,20.356,0,0,1-4.048-.744c-16.39-4.6-24.465-27.922-21.861-38.1,3.02-11.751,15.318-11.751,26.828-12.582,12.014-.853,22.408,1.926,26.522,11.2C671.691,252.254,666.067,280.833,644.25,283.086Z" transform="translate(-605.047 -198.281)" fill="url(#linear-gradient-2)"/>
        <path id="Trazado_158738" data-name="Trazado 158738" d="M664.688,224.186c-5.3-14.771-13.136-10.031-28.447-11.116-25.219-1.79-29.185,12.377-27.543,23.515,1.641,11.118,11.679,22.438,11.679,22.438l-4.567-3.838s11.845,17.547,19.141,17.318A29.673,29.673,0,0,0,661.762,255l-4.383,4.37S669.961,238.957,664.688,224.186ZM640.442,265.7c-21.795,2.254-33.02-27.025-30.022-38.776,3.02-11.751,15.318-11.751,26.828-12.582,12.014-.853,22.408,1.926,26.521,11.2C667.882,234.865,662.259,263.443,640.442,265.7Z" transform="translate(-601.238 -180.891)" fill="#868695"/>
        <path id="Trazado_158739" data-name="Trazado 158739" d="M612.606,216.384s5.652-3.464,8.753-3.464,10.21.182,13.858-.184,9.3-.91,12.948.547,6.018,2.372,6.018,2.372-9.484-6.2-16.412-5.654-10.213.547-13.129.547S614.794,212.554,612.606,216.384Z" transform="translate(-596.21 -184.395)" fill="#1d272b"/>
        <path id="Trazado_158740" data-name="Trazado 158740" d="M636.965,218.732s1.278,8.206-1.276,15.318A13.112,13.112,0,0,0,636.965,218.732Z" transform="translate(-568.782 -173.98)" fill="#1d272b"/>
        <path id="Trazado_158741" data-name="Trazado 158741" d="M613.271,239.67c-.569-.284-4.464-2.451-7.024-8.425a18.4,18.4,0,0,1,1.619-9.76s0,7.287,2.735,11.116A13.77,13.77,0,0,1,613.271,239.67Z" transform="translate(-603.871 -170.707)" fill="#1d272b"/>
        <g id="Grupo_121046" data-name="Grupo 121046" transform="translate(0 84.127)">
          <path id="Trazado_158742" data-name="Trazado 158742" d="M639.087,241.715a.931.931,0,0,0-.175,1.007,2.016,2.016,0,0,0,.678.81,5.141,5.141,0,0,1-2.407.963c-1.116.306-1.05.044-1.882,1.094-1.094,1.357-2.123,2.757-3.173,4.136-1.641,2.166-3.261,4.355-4.836,6.543-.5.656-.963,1.335-1.444,1.991-10.635,15.011-19.979,32.342-18.381,51.336,2.495,16.28,2.144,32.845,1.794,48.885-.263,11.948-.547,24.333.394,36.456,1.357,5.361.241,11.62-.854,17.681a65.45,65.45,0,0,0-1.335,10.854c0,4.289,2.166,10.613,4.2,13.83l-1.838,1.16c-2.188-3.457-4.551-10.175-4.551-14.989a66.744,66.744,0,0,1,1.378-11.248c1.029-5.821,2.123-11.838.832-16.937-.963-12.429-.678-24.858-.416-36.872.35-15.93.7-32.408-1.772-48.557-1.6-18.972,7.243-36.347,17.79-51.489.9-1.291,1.816-2.582,2.757-3.851,1.247-1.729,2.517-3.414,3.786-5.1,1.094-1.466,2.145-2.932,3.3-4.355,1.094-1.335,2.3-1.4,3.829-2.166a.661.661,0,0,0,.394-.372c.066-.306-.328-.5-.569-.7a1.244,1.244,0,0,1,.044-1.9c.328-.2.81-.394.744-.766a.7.7,0,0,0-.263-.394,3.157,3.157,0,0,1-.963-2.035,20.357,20.357,0,0,0,4.048.744c.066.7.044,1.466.153,2.21.066.569.109,1.247-.35,1.6C639.722,241.474,639.35,241.5,639.087,241.715Z" transform="translate(-605.113 -236.726)" fill="#1d272b"/>
        </g>
      </g>
      <g id="Grupo_121048" data-name="Grupo 121048" transform="translate(40.357 108.91)">
        <path id="Trazado_158743" data-name="Trazado 158743" d="M708.634,265.852c-.263,17.243-23.786,87.529-45.953,90.812-8.1,1.2-17.615-4.442-26.587-12.3-.022-.022-.044-.044-.066-.044-15.558-13.655-29.432-33.94-31.336-36.894-3-4.639-10.854-16.674-9.212-24.333s7.309-7.921,7.309-7.921,2.341,1.9,3.983,3,14.07,13.414,17.068,15.033c3.02,1.663,23.261,16.149,23.261,16.149s2.735-8.206,6.018-7.921c3.282.263,4.924-1.379,6.018-3.567a195.656,195.656,0,0,1,10.022-22.145c8.162-15.033,20.81-31.4,36.062-26.915.066,0,.81.044,1.619,1.6v.022C707.737,252.2,708.787,256.4,708.634,265.852Z" transform="translate(-595.257 -248.052)" fill="url(#linear-gradient)"/>
        <path id="Trazado_158744" data-name="Trazado 158744" d="M641.357,288.859c-2.451-.263-10.679-2.188-13.129-2.188s-6.3,4.376-6.565,6.565,9.584,7.921,13.129,13.129-1.926,9.847-5.208,3.282-10.635-15.318-10.635-15.318,2.735-8.206,6.018-7.921c3.282.263,4.923-1.379,6.018-3.567A195.655,195.655,0,0,1,641.007,260.7C636.827,272.71,643.786,289.121,641.357,288.859Z" transform="translate(-567.106 -233.027)" fill="#868695"/>
        <path id="Trazado_158745" data-name="Trazado 158745" d="M686.459,264.563c-.263,17.243-23.786,87.53-45.953,90.812-8.1,1.2-17.615-4.442-26.587-12.3,4.267,2.429,14.924,8.228,21.379,9.3,8.206,1.379,17.768-6.018,18.337-10.941.525-4.924-1.925-11.488,1.094-11.488,3,0,9.278-1.641,9.278-5.208,0-3.479,26.587-53.809,20.657-75.6C685.562,250.909,686.612,255.11,686.459,264.563Z" transform="translate(-573.082 -246.763)" fill="#1d272b"/>
      </g>
      <g id="Grupo_121049" data-name="Grupo 121049" transform="translate(22.818 102.061)">
        <path id="Trazado_158746" data-name="Trazado 158746" d="M590.418,247.214c.09-.928,1.724-1.656,1.724-1.656s.827,3.011,2.442,4.123a20.157,20.157,0,0,1,5.394,6.832c1.6,3.107,3.416,13.567,3.416,13.567s-9.613-10.059-9.9-11.882S590.418,247.214,590.418,247.214Z" transform="translate(-583.468 -244.167)" fill="#f7b242"/>
        <path id="Trazado_158747" data-name="Trazado 158747" d="M625.968,289.549s-2.554,16.046-14.405,19.694c0,0-10.51-24.136-10.928-26.217-.09-.584-.19-.969-.19-.969-11.138-6.821-10.418-12.937-10.418-12.937s-3.652-1.656-.733-5.84a4.99,4.99,0,0,1-1.442-3.039c-.057-.807,2.565-2.956,2.565-2.956s-1.46-2.6-.685-3.094a7.016,7.016,0,0,1,4.541-.691s-2.6-3.374-3.821-4.048c-3.5-1.888-5-5.786.026-4.127,2.512.8,9.451,7.6,11.5,10.847,2.094,3.215,5.718,15.554,6.8,17.613C609.827,275.869,625.968,289.549,625.968,289.549Z" transform="translate(-587.242 -244.922)" fill="#db8804"/>
        <path id="Trazado_158748" data-name="Trazado 158748" d="M588.687,250.621a5.537,5.537,0,0,1,3.729.656C594.335,252.369,588.687,250.621,588.687,250.621Z" transform="translate(-585.525 -238.252)" fill="#4ba6c6"/>
        <path id="Trazado_158749" data-name="Trazado 158749" d="M588.179,253.314s2.755-.118,3.267.613S590.083,254.176,588.179,253.314Z" transform="translate(-586.128 -234.958)" fill="#4ba6c6"/>
        <path id="Trazado_158750-2" data-name="Trazado 158750" d="M600.563,270.031c-.186.136-.7.1-1.435-.144-.09-.584-.19-.969-.19-.969C587.8,262.1,588.519,255.98,588.519,255.98l1.4.368a75.723,75.723,0,0,0,5.164,8.079c1.849,2.177,3.685,4.184,5.913,3.411C603.25,267.066,601.559,269.2,600.563,270.031Z" transform="translate(-585.735 -231.782)" fill="#f7b242"/>
      </g>
    </g>
    <g id="Grupo_127521" data-name="Grupo 127521" transform="translate(1300.32 3337.919)">
      <g id="Grupo_18423" data-name="Grupo 18423" transform="translate(0 0)">
        <g id="Grupo_18421" data-name="Grupo 18421">
          <g id="Grupo_18420" data-name="Grupo 18420">
            <g id="Grupo_18419" data-name="Grupo 18419">
              <path id="Trazado_40936" data-name="Trazado 40936" d="M273.1,2184.957a39.237,39.237,0,1,1-39.237-39.236A39.237,39.237,0,0,1,273.1,2184.957Z" transform="translate(-194.623 -2145.721)" fill="#fff"/>
            </g>
          </g>
        </g>
        <path id="Trazado_40937" data-name="Trazado 40937" d="M272.949,2184.8a39.237,39.237,0,1,0-39.237,39.238A39.083,39.083,0,0,0,272.949,2184.8Z" transform="translate(-194.475 -2145.559)" fill="url(#radial-gradient)"/>
        <path id="Trazado_40938" data-name="Trazado 40938" d="M262.423,2183.57a29.95,29.95,0,1,0-29.95,29.949A29.837,29.837,0,0,0,262.423,2183.57Z" transform="translate(-193.117 -2144.202)" fill="none" stroke="#008f85" stroke-miterlimit="10" stroke-width="3"/>
        <g id="Grupo_18422" data-name="Grupo 18422" transform="translate(6.951 22.029)">
          <path id="Trazado_40939" data-name="Trazado 40939" d="M268.1,2164.488a39.242,39.242,0,0,1-67.556,39.075,39.117,39.117,0,0,0,67.556-39.075Z" transform="translate(-200.545 -2164.488)" fill="#eceef0"/>
        </g>
      </g>
      <g id="Grupo_117564" data-name="Grupo 117564" transform="translate(26.395 16.761)">
        <path id="Trazado_151106" data-name="Trazado 151106" d="M5477.6,945.57V940.8c0-3.27-.006-6.54,0-9.809.006-2.6,1.539-3.635,3.752-2.719a15.359,15.359,0,0,1,1.563-2.09,2.034,2.034,0,0,1,1.422-.371c1.343.1,1.971.93,2.282,2.812,2.464-1.016,4.042.12,4.085,2.7.176-.063.334-.112.486-.174a2.4,2.4,0,0,1,3.534,2.211c.042,4.976,0,9.952-.036,14.928-.009,1.334-.063,2.673-.2,4a9,9,0,0,1-2.957,5.538,2.116,2.116,0,0,0-.723,1.693c.028,2.359.006,4.718.036,7.077a2.274,2.274,0,0,0,.3,1c.559,1.027.527,1.871-.468,2.452a10.965,10.965,0,0,1-10,.609c-1.746-.814-2.019-1.618-1.191-3.322a1.47,1.47,0,0,0,.16-.62c.011-2.361.02-4.723-.011-7.084a1.187,1.187,0,0,0-.378-.821,17.366,17.366,0,0,1-4.626-6.251c-1.2-2.441-2.349-4.907-3.508-7.369a2.462,2.462,0,0,1,.258-2.763,2.039,2.039,0,0,1,2.331-.768,4,4,0,0,1,1.621,1.174c.745.876,1.356,1.865,2.023,2.806Zm12.867,23.651a8.194,8.194,0,0,1-.431-1.72c-.013-2.722.087-5.445.025-8.165a2.023,2.023,0,0,1,.745-1.868,8.464,8.464,0,0,0,3.13-6.227c.1-1.588-.013-3.188-.016-4.783,0-4.286.018-8.572-.026-12.857a2.133,2.133,0,0,0-.58-1.517,1.829,1.829,0,0,0-1.644-.232,2.291,2.291,0,0,0-.992,1.6c-.1,2.684-.039,5.374-.06,8.061a4.376,4.376,0,0,1-.248,1l-.4-.08c-.024-.384-.068-.767-.068-1.151-.006-3.305,0-6.61-.01-9.915,0-.431.057-.979-.171-1.265-.369-.461-.943-1.016-1.45-1.036a2.358,2.358,0,0,0-1.522.918,2.325,2.325,0,0,0-.222,1.36c-.017,3.341,0,6.683-.018,10.024a7.888,7.888,0,0,1-.172,1.138l-.37-.011a8.931,8.931,0,0,1-.151-1.173c-.012-4-.007-7.991-.01-11.986a8.933,8.933,0,0,0-.034-1.3,1.6,1.6,0,0,0-1.74-1.441,1.516,1.516,0,0,0-1.525,1.53c-.036.4-.024.8-.025,1.2,0,4,0,7.991-.014,11.986a8.181,8.181,0,0,1-.185,1.212l-.424-.021a9.2,9.2,0,0,1-.157-1.179c-.012-3.559,0-7.119-.012-10.678,0-1.373-.844-2.143-2.028-1.872-1.058.243-1.274,1.037-1.272,1.993q.015,7.954-.006,15.908a3.061,3.061,0,0,1-.272.857,2.876,2.876,0,0,1-.742-.522c-.924-1.257-1.791-2.557-2.718-3.812-.563-.763-1.28-1.212-2.248-.647a1.693,1.693,0,0,0-.546,2.384c1.3,2.756,2.582,5.518,3.957,8.235a14.463,14.463,0,0,0,4.158,5.249,1.431,1.431,0,0,1,.394,1.021q.049,4.195,0,8.39a5.181,5.181,0,0,1-.446,1.323C5480.989,971.392,5489.336,971.4,5490.462,969.221Z" transform="translate(-5470.816 -925.801)" fill="#1d272b"/>
      </g>
    </g>
    <g id="Grupo_127522" data-name="Grupo 127522" transform="translate(1303.216 3506.514)">
      <g id="Grupo_18423-2" data-name="Grupo 18423" transform="translate(0 0)">
        <g id="Grupo_18421-2" data-name="Grupo 18421">
          <g id="Grupo_18420-2" data-name="Grupo 18420">
            <g id="Grupo_18419-2" data-name="Grupo 18419">
              <path id="Trazado_40936-2" data-name="Trazado 40936" d="M273.1,2184.957a39.237,39.237,0,1,1-39.237-39.236A39.237,39.237,0,0,1,273.1,2184.957Z" transform="translate(-194.623 -2145.721)" fill="#fff"/>
            </g>
          </g>
        </g>
        <path id="Trazado_40937-2" data-name="Trazado 40937" d="M272.949,2184.8a39.237,39.237,0,1,0-39.237,39.238A39.083,39.083,0,0,0,272.949,2184.8Z" transform="translate(-194.475 -2145.559)" fill="url(#radial-gradient)"/>
        <path id="Trazado_40938-2" data-name="Trazado 40938" d="M262.423,2183.57a29.95,29.95,0,1,0-29.95,29.949A29.837,29.837,0,0,0,262.423,2183.57Z" transform="translate(-193.117 -2144.202)" fill="none" stroke="#008f85" stroke-miterlimit="10" stroke-width="3"/>
        <g id="Grupo_18422-2" data-name="Grupo 18422" transform="translate(6.951 22.029)">
          <path id="Trazado_40939-2" data-name="Trazado 40939" d="M268.1,2164.488a39.242,39.242,0,0,1-67.556,39.075,39.117,39.117,0,0,0,67.556-39.075Z" transform="translate(-200.545 -2164.488)" fill="#eceef0"/>
        </g>
      </g>
      <g id="Grupo_117566" data-name="Grupo 117566" transform="translate(16.451 30.612)">
        <path id="Trazado_151094" data-name="Trazado 151094" d="M4986.306,979.126a16.888,16.888,0,0,1,.256-2.094,5.016,5.016,0,0,1,4.874-3.8q15.354-.019,30.708,0a5,5,0,0,1,5.061,4.926c.013.3.033.608.05.942a4.537,4.537,0,0,0,.45.063c1.737.053,1.873.187,1.876,1.9s0,3.428,0,5.142c0,1.012-.417,1.484-1.531,1.426a1.227,1.227,0,0,0-1.427,1.013c-1.522,4.641-7.2,7.639-12.094,6.759a46.48,46.48,0,0,1-6.049-1.737,5.223,5.223,0,0,0-3.37.006,40.827,40.827,0,0,1-6.13,1.75c-5.253.815-10.684-2.4-12.175-7.188a.7.7,0,0,0-.844-.586,3.464,3.464,0,0,1-1.171-.065,1.134,1.134,0,0,1-.778-1.253c0-1.767,0-3.534,0-5.3,0-1.6.22-1.819,1.848-1.864C4985.995,979.159,4986.13,979.141,4986.306,979.126Zm20.511-5.35c-5.062,0-10.125-.011-15.188,0a4.533,4.533,0,0,0-4.641,4.646c-.015,2.447-.081,4.9.035,7.339a8.628,8.628,0,0,0,.779,3.408,10.372,10.372,0,0,0,7.346,5.524,12.377,12.377,0,0,0,7.9-.951,8.292,8.292,0,0,1,7.44-.015,8.962,8.962,0,0,0,1.1.412,11.846,11.846,0,0,0,9.038-.148c3.653-1.669,5.93-4.386,6.042-8.558.06-2.219-.009-4.441-.017-6.661a4.623,4.623,0,0,0-4.979-5Q5014.243,973.774,5006.816,973.776Zm20.4,13.283c1.964.123,1.856.111,1.793-1.548-.01-.279,0-.56,0-.84,0-1.4-.007-2.8,0-4.2,0-.62-.39-.773-.884-.732-.33.027-.894-.249-.9.41C5027.2,982.435,5027.217,984.719,5027.217,987.059Zm-40.833-.031V979.8c-1.477-.137-1.746-.027-1.76.717-.031,1.687-.067,3.374-.036,5.06.03,1.587.113,1.625,1.725,1.494C4986.339,987.069,4986.361,987.042,4986.385,987.028Z" transform="translate(-4984.01 -973.221)" fill="#1d272b"/>
        <path id="Trazado_151095" data-name="Trazado 151095" d="M5031.666,988.78q7.293,0,14.586,0c2.2,0,3.059.87,3.065,3.064,0,1.907-.071,3.818.021,5.721.2,4.086-2.565,7.139-6.5,8.023a10.868,10.868,0,0,1-6.117-.587q-1.666-.59-3.336-1.158a7.079,7.079,0,0,0-4.691.325,39.785,39.785,0,0,1-4.734,1.449,8.813,8.813,0,0,1-7.761-2.1,6.9,6.9,0,0,1-2.376-5.375c-.047-2.163-.012-4.328-.009-6.492a2.535,2.535,0,0,1,2.846-2.869C5021.661,988.772,5026.664,988.78,5031.666,988.78Zm-.018.616q-7.5,0-15.007,0c-1.555,0-2.2.646-2.209,2.2-.007,2.22-.071,4.442.013,6.658a7.4,7.4,0,0,0,.618,2.9,8.142,8.142,0,0,0,8.03,4,35.313,35.313,0,0,0,5.313-1.531,8.594,8.594,0,0,1,6.32.019c.782.311,1.579.584,2.374.858a9.832,9.832,0,0,0,6.027.413c3.069-.871,5.811-3.492,5.648-6.68-.113-2.212-.046-4.434-.061-6.652-.01-1.537-.666-2.182-2.229-2.183Q5039.067,989.395,5031.648,989.4Z" transform="translate(-5008.771 -986.152)" fill="#1d272b"/>
      </g>
    </g>
    <g id="Grupo_127523" data-name="Grupo 127523" transform="translate(1301.121 3420.741)">
      <g id="Grupo_18423-3" data-name="Grupo 18423" transform="translate(0 0)">
        <g id="Grupo_18421-3" data-name="Grupo 18421">
          <g id="Grupo_18420-3" data-name="Grupo 18420">
            <g id="Grupo_18419-3" data-name="Grupo 18419">
              <path id="Trazado_40936-3" data-name="Trazado 40936" d="M273.1,2184.957a39.237,39.237,0,1,1-39.237-39.236A39.237,39.237,0,0,1,273.1,2184.957Z" transform="translate(-194.623 -2145.721)" fill="#fff"/>
            </g>
          </g>
        </g>
        <path id="Trazado_40937-3" data-name="Trazado 40937" d="M272.949,2184.8a39.237,39.237,0,1,0-39.237,39.238A39.083,39.083,0,0,0,272.949,2184.8Z" transform="translate(-194.475 -2145.559)" fill="url(#radial-gradient)"/>
        <path id="Trazado_40938-3" data-name="Trazado 40938" d="M262.423,2183.57a29.95,29.95,0,1,0-29.95,29.949A29.837,29.837,0,0,0,262.423,2183.57Z" transform="translate(-193.117 -2144.202)" fill="none" stroke="#008f85" stroke-miterlimit="10" stroke-width="3"/>
        <g id="Grupo_18422-3" data-name="Grupo 18422" transform="translate(6.951 22.029)">
          <path id="Trazado_40939-3" data-name="Trazado 40939" d="M268.1,2164.488a39.242,39.242,0,0,1-67.556,39.075,39.117,39.117,0,0,0,67.556-39.075Z" transform="translate(-200.545 -2164.488)" fill="#eceef0"/>
        </g>
      </g>
      <g id="w1LOms" transform="translate(21.024 19.087)">
        <g id="Grupo_117565" data-name="Grupo 117565" transform="translate(0 0)">
          <path id="Trazado_157841" data-name="Trazado 157841" d="M5240.343,1745.779h-17.391c-1.1,0-1.218-.139-1.123-1.245.261-3.029.531-6.057.761-9.089a3.756,3.756,0,0,1,1.882-3.157c2.038-1.239,4.036-2.542,6.066-3.8a1.128,1.128,0,0,0,.609-.993c.226-3.9.514-7.8.7-11.7a6.5,6.5,0,0,1,6.8-6.523,35.953,35.953,0,0,1,4.711.114,6.339,6.339,0,0,1,5.5,6.213c.208,3.953.506,7.9.722,11.854a1.237,1.237,0,0,0,.707,1.1c2.024,1.26,4.027,2.555,6.06,3.8a3.479,3.479,0,0,1,1.754,2.815q.41,4.74.8,9.481c.081,1-.052,1.127-1.093,1.127Zm17.189-1.254a3.545,3.545,0,0,0,.03-.427q-.352-4.429-.712-8.858a2.292,2.292,0,0,0-1.189-1.834c-2.205-1.367-4.4-2.744-6.576-4.164a1.572,1.572,0,0,1-.675-1.014c-.3-4.237-.549-8.477-.805-12.717a5.05,5.05,0,0,0-4.347-4.858,37.788,37.788,0,0,0-4.788-.124,5.233,5.233,0,0,0-5.35,5.078c-.251,4.161-.523,8.321-.754,12.483a1.327,1.327,0,0,1-.716,1.186c-2.074,1.28-4.1,2.643-6.2,3.873a3.047,3.047,0,0,0-1.636,2.732c-.083,1.7-.28,3.395-.417,5.092-.094,1.161-.168,2.323-.253,3.5h6.327v-.891c0-1.521-.007-3.043.007-4.564,0-.471-.158-1.129.6-1.133.8,0,.644.675.648,1.177.013,1.154,0,2.308,0,3.463v1.948h8.831a1.906,1.906,0,0,0,.074-.343q.008-5.705,0-11.411a.7.7,0,0,0-.172-.478,2.585,2.585,0,0,0-2.156-.09,2.765,2.765,0,0,1-3.466-.36,2.559,2.559,0,0,1-.289-3.38,2.638,2.638,0,0,0,.7-2.444,2.789,2.789,0,0,1,0-.629c.05-.7.373-.912,1.047-.685,1.092.368,2.178.753,3.267,1.131a5.007,5.007,0,0,0,3.464-.038c1.205-.44,2.409-.883,3.622-1.3.76-.261,1.112-.02,1.115.777,0,.626-.1,1.254-.09,1.88a1.568,1.568,0,0,0,.262.9,2.742,2.742,0,0,1-3.656,4.058.954.954,0,0,0-.6-.2c-.581.112-1.149.3-1.7.45a1.716,1.716,0,0,0-.056.279c0,3.777.006,7.555-.017,11.332,0,.594.3.6.741.6,2.544-.01,5.089,0,7.634-.007.226,0,.451-.034.719-.055v-5.576c0-.486-.017-1.023.669-1.014.665.009.582.551.584.99.007,1.653,0,3.305.007,4.958,0,.337-.065.7.478.7C5253.645,1744.518,5255.555,1744.525,5257.532,1744.525Zm-21.967-18.611c-.08.86-.032,1.247.731,1.318a2.569,2.569,0,0,1,2.2,2.41c.081,1.108.163,1.224,1.284,1.318a11.6,11.6,0,0,0,1.637-.067c.63-.037.873-.31.835-1a2.574,2.574,0,0,1,1.937-2.629,8.624,8.624,0,0,1,1.207-.137c.04-.394.077-.766.143-1.425C5242.178,1727.5,5238.926,1727.958,5235.565,1725.913Zm-1.218,3.971a1.448,1.448,0,1,0,1.431-1.45A1.407,1.407,0,0,0,5234.348,1729.884Zm12.028.024a1.4,1.4,0,0,0-1.4-1.476,1.453,1.453,0,1,0-.04,2.905A1.377,1.377,0,0,0,5246.375,1729.908Z" transform="translate(-5221.803 -1709.257)" fill="#1d272b"/>
          <path id="Trazado_157842" data-name="Trazado 157842" d="M5304.795,1763.663c1.545,0,3.09,0,4.636,0,1.49,0,1.882.373,1.887,1.835,0,.76.021,1.52-.009,2.278a1.223,1.223,0,0,1-1.381,1.345c-1.153.016-2.306.028-3.457-.008a1.879,1.879,0,0,1-1.017-.313.984.984,0,0,0-1.391.032,1.39,1.39,0,0,1-.791.277c-1.283.027-2.567.032-3.849,0a1.084,1.084,0,0,1-1.149-1.142c-.034-1.046-.042-2.1,0-3.141.032-.769.52-1.136,1.49-1.15,1.676-.023,3.353-.006,5.029-.006Zm-5.269,4.211c.766,0,1.444-.02,2.119.005a3.569,3.569,0,0,0,2.667-.659.958.958,0,0,1,.918,0c1.487,1.182,3.16.44,4.771.672v-2.874h-10.475Z" transform="translate(-5286.21 -1755.096)" fill="#1d272b"/>
        </g>
      </g>
    </g>
    <g id="Grupo_127524" data-name="Grupo 127524" transform="translate(1303.052 3592.576)">
      <g id="Grupo_18423-4" data-name="Grupo 18423" transform="translate(0 0)">
        <g id="Grupo_18421-4" data-name="Grupo 18421">
          <g id="Grupo_18420-4" data-name="Grupo 18420">
            <g id="Grupo_18419-4" data-name="Grupo 18419">
              <path id="Trazado_40936-4" data-name="Trazado 40936" d="M273.1,2184.957a39.237,39.237,0,1,1-39.237-39.236A39.237,39.237,0,0,1,273.1,2184.957Z" transform="translate(-194.623 -2145.721)" fill="#fff"/>
            </g>
          </g>
        </g>
        <path id="Trazado_40937-4" data-name="Trazado 40937" d="M272.949,2184.8a39.237,39.237,0,1,0-39.237,39.238A39.083,39.083,0,0,0,272.949,2184.8Z" transform="translate(-194.475 -2145.559)" fill="url(#radial-gradient)"/>
        <path id="Trazado_40938-4" data-name="Trazado 40938" d="M262.423,2183.57a29.95,29.95,0,1,0-29.95,29.949A29.837,29.837,0,0,0,262.423,2183.57Z" transform="translate(-193.117 -2144.202)" fill="none" stroke="#008f85" stroke-miterlimit="10" stroke-width="3"/>
        <g id="Grupo_18422-4" data-name="Grupo 18422" transform="translate(6.951 22.029)">
          <path id="Trazado_40939-4" data-name="Trazado 40939" d="M268.1,2164.488a39.242,39.242,0,0,1-67.556,39.075,39.117,39.117,0,0,0,67.556-39.075Z" transform="translate(-200.545 -2164.488)" fill="#eceef0"/>
        </g>
      </g>
      <g id="Grupo_117567" data-name="Grupo 117567" transform="translate(19.034 22.456)">
        <path id="Trazado_151096" data-name="Trazado 151096" d="M5059.941,679.372a13.864,13.864,0,0,1-.111,13.477,6.748,6.748,0,0,1,1.564,1.623c.16.342-.308,1.081-.641,1.531-1.149,1.559-1.918-.308-3.053-.333a22.209,22.209,0,0,1-16.2,6.289c-6.243-.027-11.823-1.841-16.312-6.292a10.355,10.355,0,0,1-2.488.838c-.313.028-.761-.786-1.046-1.276-.526-.9-.439-1.01,1.46-2.254a13.783,13.783,0,0,1-.207-13.55c-1.8-1.32-1.8-1.32-.98-2.675.669-1.107.691-1.108,2.792-.073,3.707-2.96,7.441-5.871,11.1-8.88s7.229-3.131,10.938-.225q4.663,3.654,9.336,7.3a4.317,4.317,0,0,1,.7.611c.754.918,1.424,1.434,2.7.57,1.005-.678,1.312.569,1.736,1.209a.965.965,0,0,1-.354,1.556C5060.572,678.979,5060.286,679.163,5059.941,679.372Zm-36.3.5c-2.317,3.09-2.206,9.664.251,12.663.642-.27,1.312-.843,1.955.071.864,1.228.9,1.659.066,2.66,8.034,8.408,23.818,7.767,31.117-.133-1.369-.67-.562-1.478-.151-2.292.564-1.119,1.365-.709,2.123-.307,2.639-3.577,2.387-9.627.187-12.7-.738.235-1.484,1.08-2.218-.067-.9-1.4-.909-1.534.3-2.735a15.314,15.314,0,0,0-1.366-1.381c-3.426-2.7-6.83-5.433-10.34-8.02a8.345,8.345,0,0,0-3.384-1.335c-2.347-.427-4.229.687-6,2.138-2.5,2.046-5.086,3.975-7.622,5.975-1.044.824-2.046,1.7-3.086,2.569,1.32,1.151,1.336,1.231.608,2.46C5025.434,680.538,5025.434,680.538,5023.642,679.875Zm-1.583-1.88,3.009,1.731c.291-.509.55-.961.845-1.476l-3.01-1.7Zm38.768,0-.9-1.449-2.976,1.71.851,1.456Zm-3.869,16.227,3.008,1.711c.323-.557.571-.984.845-1.456l-3.005-1.711Zm-31.041,0-.879-1.453-2.973,1.712.849,1.447Z" transform="translate(-5021.227 -665.462)" fill="#1d272b"/>
        <path id="Trazado_151102" data-name="Trazado 151102" d="M5075.456,686.551a6.761,6.761,0,0,1,4.164,1.566c2.27,1.782,4.545,3.556,6.8,5.355.191.153.256.464.38.7-.27-.046-.606-.006-.8-.153-2.1-1.6-4.2-3.217-6.263-4.87a5.9,5.9,0,0,0-8.511-.053c-2.093,1.672-4.219,3.3-6.351,4.927-.188.144-.519.1-.784.145.127-.239.2-.552.39-.707,2.26-1.794,4.546-3.555,6.81-5.344A6.812,6.812,0,0,1,5075.456,686.551Z" transform="translate(-5055.242 -682.197)" fill="#1d272b"/>
        <path id="Trazado_151103" data-name="Trazado 151103" d="M5097.873,792.9a4.733,4.733,0,0,1,.852-.16c2.338-.013,4.676-.021,7.013.008a2.466,2.466,0,0,1,.838.36c-.271.125-.542.356-.815.359-2.337.029-4.676.024-7.013.007a4.32,4.32,0,0,1-.893-.2C5097.861,793.154,5097.868,793.028,5097.873,792.9Z" transform="translate(-5082.033 -766.453)" fill="#1d272b"/>
        <path id="Trazado_151104" data-name="Trazado 151104" d="M5097.5,812.017h8.952C5105.672,812.739,5098.169,812.713,5097.5,812.017Z" transform="translate(-5081.754 -781.758)" fill="#1d272b"/>
        <path id="Trazado_151105" data-name="Trazado 151105" d="M5107.649,802.715c-.826,0-1.651.018-2.475-.016-.182-.007-.357-.2-.536-.31.165-.128.328-.365.494-.368q2.527-.042,5.053,0c.167,0,.33.244.494.374-.185.107-.367.3-.556.307C5109.3,802.735,5108.474,802.715,5107.649,802.715Z" transform="translate(-5087.417 -773.809)" fill="#1d272b"/>
      </g>
    </g>
  </g>
</svg>
