<svg xmlns="http://www.w3.org/2000/svg" width="89.683" height="81" viewBox="0 0 89.683 81">
  <g id="img28" transform="translate(-271 -11396)">
    <g id="Grupo_127922" data-name="Grupo 127922" transform="translate(271 11406.722)">
      <g id="Grupo_87607" data-name="Grupo 87607" transform="translate(28.365 16.002)">
        <path id="Trazado_139404" data-name="Trazado 139404" d="M96.278-83.045h0a4.717,4.717,0,0,1,4.684,5.277L98.889-60.436a2.645,2.645,0,0,1-2.626,2.33h0a2.645,2.645,0,0,1-2.626-2.334L91.593-77.775A4.717,4.717,0,0,1,96.278-83.045Z" transform="translate(-91.56 83.045)" fill="#008f85"/>
        <path id="Trazado_139405" data-name="Trazado 139405" d="M93.469-53.518a3.631,3.631,0,0,1-1.091-2.672,3.637,3.637,0,0,1,1.091-2.674,3.634,3.634,0,0,1,2.672-1.09,3.639,3.639,0,0,1,2.674,1.09,3.636,3.636,0,0,1,1.09,2.674,3.63,3.63,0,0,1-1.09,2.672,3.635,3.635,0,0,1-2.674,1.091A3.631,3.631,0,0,1,93.469-53.518Z" transform="translate(-91.424 86.877)" fill="#008f85"/>
      </g>
    </g>
    <g id="Grupo_128381" data-name="Grupo 128381">
      <rect id="Rectángulo_35422" data-name="Rectángulo 35422" width="5" height="81" transform="translate(355.683 11396)" fill="#1d272b"/>
      <path id="Trazado_139403" data-name="Trazado 139403" d="M125.825-37.491H74.779a7.457,7.457,0,0,1-6.526-3.768,7.458,7.458,0,0,1,0-7.535L93.775-93a7.461,7.461,0,0,1,6.526-3.767h0A7.46,7.46,0,0,1,106.827-93L132.35-48.794a7.458,7.458,0,0,1,0,7.535A7.458,7.458,0,0,1,125.825-37.491ZM97.159-91.048,71.637-46.841a3.589,3.589,0,0,0,0,3.629A3.592,3.592,0,0,0,74.779-41.4h51.045a3.593,3.593,0,0,0,3.142-1.814,3.592,3.592,0,0,0,0-3.629L103.444-91.048a3.591,3.591,0,0,0-3.141-1.814,3.593,3.593,0,0,0-3.143,1.814Z" transform="translate(203.768 11503.49)" fill="#008f85"/>
    </g>
  </g>
</svg>
