<svg xmlns="http://www.w3.org/2000/svg" xmlns:xlink="http://www.w3.org/1999/xlink" width="475.195" height="426.069" viewBox="0 0 475.195 426.069">
  <defs>
    <linearGradient id="linear-gradient" x1="0.44" y1="0.637" x2="0.9" y2="-0.426" gradientUnits="objectBoundingBox">
      <stop offset="0.181" stop-color="#fff"/>
      <stop offset="0.284" stop-color="#e5e5e5"/>
      <stop offset="0.504" stop-color="#a4a4a4"/>
      <stop offset="0.819" stop-color="#3d3d3d"/>
      <stop offset="1"/>
    </linearGradient>
    <radialGradient id="radial-gradient" cx="0.5" cy="0.5" r="0.5" gradientUnits="objectBoundingBox">
      <stop offset="0" stop-color="#f6f6f7"/>
      <stop offset="0.477" stop-color="#f9f9fa"/>
      <stop offset="0.715" stop-color="#fff"/>
    </radialGradient>
    <linearGradient id="linear-gradient-2" x1="0.5" x2="0.5" y2="1" gradientUnits="objectBoundingBox">
      <stop offset="0" stop-color="#f5f5f5"/>
      <stop offset="0.25" stop-color="#f5f5f5"/>
      <stop offset="1" stop-color="#a7b3cf"/>
    </linearGradient>
    <linearGradient id="linear-gradient-3" x1="0.5" x2="0.5" y2="1" gradientUnits="objectBoundingBox">
      <stop offset="0" stop-color="#fff"/>
      <stop offset="1" stop-color="#d2e6ee"/>
    </linearGradient>
    <linearGradient id="linear-gradient-9" x1="0.5" x2="0.5" y2="1" gradientUnits="objectBoundingBox">
      <stop offset="0" stop-color="#f5f5f5"/>
      <stop offset="0.25" stop-color="#f5f5f5"/>
      <stop offset="1" stop-color="#eeeef2"/>
    </linearGradient>
  </defs>
  <g id="img6" transform="translate(-180 -3563.098)">
    <g id="Grupo_128331" data-name="Grupo 128331">
      <g id="Grupo_128330" data-name="Grupo 128330">
        <g id="Grupo_127748" data-name="Grupo 127748" transform="translate(180 3563.098)">
          <path id="Trazado_151846" data-name="Trazado 151846" d="M487.537,508.6a110.928,110.928,0,0,0,13.383-92.275c-5.934-19.414-17.322-37.45-18.778-57.694-2.912-40.476,33.8-73.2,41.412-113.063,3.347-17.52-.3-37.93-14.652-48.572-14.171-10.511-34.4-8.365-50.442-1s-29.619,19.145-45.023,27.76-34.371,13.94-50.638,7.084c-16.477-6.945-25.824-24.451-31.059-41.512s-7.805-35.234-16.74-50.691c-14.726-25.475-46.123-39.365-75.382-35.771s-55.4,23.284-69.423,49.151-16.473,57.154-9.493,85.725c3.541,14.49,9.374,28.367,12.554,42.941s3.472,30.525-3.629,43.651c-14.849,27.449-54.022,31.277-74.535,54.818-16.931,19.429-17.462,49.078-7.854,72.971S114.9,495.4,132.907,513.84c83.975,2.816,169.455,3,253.431,5.818C418.975,520.752,454.938,510.516,487.537,508.6Z" transform="translate(-80.961 -95.483)" fill="#a4a4b4" opacity="0.354" style="mix-blend-mode: multiply;isolation: isolate"/>
          <path id="Trazado_151847" data-name="Trazado 151847" d="M359.211,196.366c-.245,26.2,24.664,49.008,20.329,74.852-2.318,13.827-12.854,27.844-6.731,40.456,5.417,11.16,20.933,13.095,32.8,9.467,27.769-8.5,44.648-36.88,52.72-64.777,7.593-26.239,9.477-55.548-2.682-80.008-9.8-19.707-32.4-37.106-55.361-35.5C379.256,142.333,359.395,176.628,359.211,196.366Z" transform="translate(10.801 -56.439)" fill="#a4a4b4" opacity="0.31" style="mix-blend-mode: multiply;isolation: isolate"/>
          <path id="Trazado_151848" data-name="Trazado 151848" d="M121.07,161.978c-18.549,30.948-19.386,71.737-2.12,103.419,5.456,10.011,12.824,19.34,22.774,24.906s22.784,6.808,32.687,1.16c15.018-8.567,18.34-28.773,17.145-46.023s-5.1-35.332,1.539-51.295c4.331-10.405,12.645-18.518,20.021-27.039s14.261-18.467,14.642-29.731c.988-29.2-30.012-27.018-48.695-20.954C155.211,124.165,134,140.4,121.07,161.978Z" transform="translate(-68.308 -90.362)" fill="#a4a4b4" opacity="0.31" style="mix-blend-mode: multiply;isolation: isolate"/>
          <g id="Grupo_107069" data-name="Grupo 107069" transform="translate(10.378 0)" style="mix-blend-mode: multiply;isolation: isolate">
            <path id="Trazado_151849" data-name="Trazado 151849" d="M479.581,515.667l-1.8-1.645c4.952-5.418,12.857-17.836,10.181-40.164-1.191-9.939-4.143-19.758-7-29.252-1.275-4.242-2.594-8.628-3.745-12.984a201.834,201.834,0,0,1,14.738-140.654c1.923-3.808,4-7.63,6.016-11.324,5.966-10.954,12.135-22.282,14.787-34.519,4.652-21.473-4.544-37.567-15.057-43.433-10.086-5.631-24.324-4.77-39.061,2.362-5.391,2.608-10.631,5.8-15.7,8.884-6.7,4.078-13.62,8.294-21.055,11.28-29.25,11.746-65.819,1.763-85.062-23.216-9.248-12-14.47-26.512-19.52-40.543-1.956-5.436-3.98-11.059-6.2-16.439-6.921-16.726-19.587-37.72-40.628-42.741-18.488-4.415-37.214,5.288-49.664,14.2-23.821,17.059-40.612,40.163-47.283,65.053-4.5,16.785-4.678,35.054-4.854,52.721-.261,26.31-.531,53.517-15.375,75.428-6.753,9.967-16.042,17.92-25.023,25.612-8.412,7.2-17.111,14.651-23.6,23.679-14.693,20.457-18.3,49.418-9.881,79.46,7.561,26.992,22.972,50.941,37.875,74.1l-2.048,1.319c-15-23.312-30.513-47.418-38.172-74.764-8.615-30.759-4.879-60.48,10.249-81.541,6.656-9.268,15.468-16.812,23.988-24.109,8.861-7.586,18.022-15.432,24.591-25.127,14.432-21.3,14.686-46.94,14.955-74.083.177-17.82.359-36.246,4.939-53.33,6.815-25.434,23.94-49.016,48.217-66.4,12.862-9.211,32.263-19.22,51.648-14.592,22.042,5.261,35.176,26.929,42.313,44.181,2.248,5.432,4.281,11.082,6.247,16.546,4.986,13.853,10.141,28.178,19.156,39.879,18.6,24.147,53.952,33.8,82.227,22.442,7.246-2.91,14.083-7.073,20.7-11.1,5.115-3.116,10.405-6.338,15.9-9,15.46-7.481,30.516-8.322,41.309-2.3,11.273,6.292,21.168,23.4,16.252,46.081-2.727,12.58-8.981,24.063-15.031,35.17-2,3.678-4.076,7.481-5.979,11.255A199.355,199.355,0,0,0,479.574,431c1.139,4.316,2.453,8.682,3.722,12.905,2.885,9.595,5.869,19.515,7.087,29.665C493.174,496.862,484.813,509.944,479.581,515.667Z" transform="translate(-87.906 -97.739)" fill="#a4a4b4"/>
          </g>
        </g>
        <g id="Grupo_127749" data-name="Grupo 127749" transform="translate(213.74 3644.107)">
          <path id="Trazado_163831" data-name="Trazado 163831" d="M312.358,390.219l8.182-7.22,16.124,19.974L374.2,383l-1.685,32.006L386,405.621l-12.514,45.242-79.733,46.366-82.143-49.092,99.207-62.97Z" transform="translate(-158.308 -261.808)" opacity="0.5" fill="url(#linear-gradient)" style="mix-blend-mode: multiply;isolation: isolate"/>
          <path id="Trazado_163832" data-name="Trazado 163832" d="M277.389,469.125s-1.787-17.781-.824-19.637,8.012-14.847,8.505-16.707c.493-1.875,6.072-20.445,5.733-22.979-.269-1.967-3.8-3.616-6.5,2.072s-5.391,11.828-6.172,10.369.42-23.464.758-26.367c.424-3.554.216-9.553-2.776-10.154s-3.677,6-4.158,9.88c-.466,3.885-1.829,11.774-2.437,11.817s.52-18.828-1.621-24.053c-.735-1.806-4.928-2.784-5.5,1.759s-.293,22.952-.755,22.475-.9-17.9-1.713-19.979-2.121-2.272-3.735-.982-1.791,15.34-2.2,17.962.035,8.382-.531,8.563.069-12.926-.32-15.136-1.64-3.677-2.776-2.849-2.352,4.328-3.431,12.144c-.709,5.063-.377,18.3.443,23.329s6.576,16.718,5.837,19.756-3.231,18.135-3.05,18.7S277.389,469.125,277.389,469.125Z" transform="translate(-58.695 -265.069)" fill="#db8804"/>
          <path id="Trazado_163833" data-name="Trazado 163833" d="M244.762,469.469s2.4-17.715,1.5-19.594c-.893-1.894-7.493-15.116-7.92-17.007-.424-1.875-5.348-20.63-4.925-23.156.331-1.96,3.92-3.477,6.415,2.3s4.99,12.009,5.81,10.573.408-23.468.169-26.379c-.3-3.558.112-9.549,3.119-10.05s3.473,6.126,3.808,10.022,1.428,11.836,2.037,11.9.135-18.832,2.449-23.98c.8-1.783,5.025-2.614,5.441,1.944s-.5,22.944-.027,22.49,1.521-17.87,2.406-19.906,2.2-2.2,3.77-.862c1.559,1.355,1.251,15.4,1.563,18.035s-.32,8.378.235,8.578.385-12.922.847-15.12,1.775-3.611,2.876-2.741,2.2,4.4,3,12.248c.527,5.09-.262,18.316-1.263,23.306s-7.154,16.472-6.519,19.533,2.6,18.239,2.395,18.8C271.761,470.955,244.762,469.469,244.762,469.469Z" transform="translate(-96.205 -262.745)" fill="#db8804"/>
          <g id="Grupo_127706" data-name="Grupo 127706" transform="translate(176.42 40.099)">
            <g id="Grupo_127704" data-name="Grupo 127704">
              <path id="Trazado_163834" data-name="Trazado 163834" d="M452.537,422.791v-1.2c-5.481-36.432-19.969-45.616-76.169-67.061l-65.01.877c-54.865,18.589-68.915,30.951-73.771,72.249l-6.07,54.658h226.27Z" transform="translate(-231.516 -191.03)" fill="#1d272b"/>
              <g id="Grupo_127689" data-name="Grupo 127689" transform="translate(77.019 145.536)">
                <path id="Trazado_163835" data-name="Trazado 163835" d="M253.574,350.961,246.8,374.216l34.56,41.29.124-61.494Z" transform="translate(-246.805 -350.961)" fill="#f8d1b9"/>
                <path id="Trazado_163836" data-name="Trazado 163836" d="M282.194,351.083l6.224,24.74-34.752,40.3.606-62.011Z" transform="translate(-219.105 -350.468)" fill="#f8d1b9"/>
              </g>
              <g id="Grupo_127700" data-name="Grupo 127700" transform="translate(57.998 23.974)">
                <g id="Grupo_127692" data-name="Grupo 127692" transform="translate(0 2.13)">
                  <g id="Grupo_127691" data-name="Grupo 127691">
                    <g id="Grupo_127690" data-name="Grupo 127690" transform="translate(22.075 119.795)">
                      <path id="Trazado_163838" data-name="Trazado 163838" d="M247.411,351.033a64.632,64.632,0,0,0,4.272,5.153.244.244,0,0,0,.03-.111A65.611,65.611,0,0,1,247.411,351.033Z" transform="translate(-247.411 -351.033)" fill="#fff"/>
                    </g>
                    <path id="Trazado_163839" data-name="Trazado 163839" d="M351.766,400.5c0-6.141-1.773-8.65-4.821-9.652.73-12.589,2.564-25.919-2.065-35.153-8.77-17.621-32.991-28.442-49.54-28.442-15.863,0-33.394,9.42-42.271,25.8-5.461,10.131-5.4,23.314-4.675,36.921-3.39.9-5.365,3.3-5.365,9.828,0,9.7,4.358,25,11.168,27.178.862,2.378,1.834,4.635,2.9,6.856.055.126.141.257.191.363a83.118,83.118,0,0,0,7.818,12.846,65.61,65.61,0,0,0,4.3,5.043.242.242,0,0,1-.03.111c8.232,8.952,17.994,14.151,28.468,14.151,16.025,0,30.342-12.085,40.069-31.2a22.248,22.248,0,0,1,2.519-3.849c.569-1.425,1.128-2.836,1.6-4.307C348.018,423.29,351.766,409.487,351.766,400.5Z" transform="translate(-243.029 -327.253)" fill="#f8d1b9"/>
                  </g>
                </g>
                <g id="Grupo_127699" data-name="Grupo 127699" transform="translate(4.226)">
                  <path id="Trazado_163841" data-name="Trazado 163841" d="M323.655,351.8c.987,8.091-14.181,7.743-24.3,6.076s-16.08.322-25.536,3.028c-9.551,2.74-18.9,12.6-20.231,17.536-.816,2.957-.121,17.219-.121,17.219l-8.463-3.975s-2.745-19.778.287-33.1c2.927-12.816,9.2-24.206,33.132-29.384,21.707-4.685,36.951-1.844,37.616,3.536,1.693.348,3.053-1,5.058-1,5.058,0,12.715,6.166,17.118,13.254,4.383,7.083,10.554,19.783,7.516,41.732-.69,5.728-1.854,7.254-1.854,7.254l-7.073,4.05s3.139-27.677-8.332-35.782C324.839,359.705,323.655,351.8,323.655,351.8Z" transform="translate(-243.868 -326.83)" fill="#1d272b"/>
                  <g id="Grupo_127698" data-name="Grupo 127698" transform="translate(72.563 4.604)">
                    <g id="Grupo_127697" data-name="Grupo 127697">
                      <g id="Grupo_127695" data-name="Grupo 127695">
                        <path id="Trazado_163842" data-name="Trazado 163842" d="M270.216,358.252c11.461,8.106,8.337,35.762,8.337,35.762l7.063-4.04s1.184-1.526,1.854-7.239c3.053-21.949-1.164-34.926-5.556-42.019s-14-12.972-19.067-12.972a22.482,22.482,0,0,0-4.574.988c2.151,7.143,7.158,17.4,7.118,19.077C265.39,347.809,266.589,355.713,270.216,358.252Z" transform="translate(-258.272 -327.744)" fill="#1d272b"/>
                      </g>
                      <g id="Grupo_127696" data-name="Grupo 127696" transform="translate(6.997 20.065)">
                        <path id="Trazado_163843" data-name="Trazado 163843" d="M259.782,331.727c-.015.5-.065,1.184-.121,1.884A5.605,5.605,0,0,0,259.782,331.727Z" transform="translate(-259.661 -331.727)" fill="#205f89"/>
                      </g>
                    </g>
                  </g>
                </g>
              </g>
              <g id="Grupo_127703" data-name="Grupo 127703" transform="translate(63.081)">
                <g id="Grupo_127702" data-name="Grupo 127702">
                  <path id="Trazado_163844" data-name="Trazado 163844" d="M344.342,335.456c-.02-3.421-22.115-13.385-49.8-13.385s-50.487,9.964-50.507,13.385h0v44.336a3.879,3.879,0,0,0,.766-.2c0-2.634,22.206-10.126,49.9-10.126,24.82,0,45.631,7.073,49.641,9.32V335.456Z" transform="translate(-244.038 -322.071)" fill="url(#radial-gradient)"/>
                </g>
              </g>
            </g>
            <path id="Trazado_163846" data-name="Trazado 163846" d="M245.08,340.875c21.692,8.871,57.429,14.3,87.509.977.987,28.593-3.209,58.92-3.209,58.92s-39.435,26.619-77.882,0C244.712,365.277,245.08,340.875,245.08,340.875Z" transform="translate(-176.765 -246.148)" fill="#1d272b"/>
            <g id="Grupo_127705" data-name="Grupo 127705" transform="translate(112.314 95.785)">
              <path id="Trazado_163847" data-name="Trazado 163847" d="M297.321,341.085c-14.05,6.216-29.173,8.639-43.51,8.584v62.084c22.911-.111,40.3-11.758,40.3-11.758S298.308,369.673,297.321,341.085Z" transform="translate(-253.811 -341.085)" fill="#1d272b"/>
            </g>
          </g>
          <g id="Grupo_127707" data-name="Grupo 127707" transform="translate(13.678 0)">
            <path id="Trazado_163848" data-name="Trazado 163848" d="M202.862,339.612a5.258,5.258,0,0,0,5.87,4.572l12.537-1.578a5.258,5.258,0,0,0,4.571-5.879h0a5.262,5.262,0,0,0-5.883-4.558l-12.525,1.573a5.256,5.256,0,0,0-4.571,5.87Z" transform="translate(-202.821 -239.338)" fill="#1d272b"/>
            <path id="Trazado_163849" data-name="Trazado 163849" d="M213.185,399.976c13.731,26.578,43.182,30.187,74.785,15.823,31.586-14.35,46.572-50.315,29.42-74.811-14.442-20.617-44.4-28.862-74.1-10.3C212.274,350.075,200.4,375.228,213.185,399.976Z" transform="translate(-185.049 -278.894)" fill="#1d272b"/>
            <path id="Trazado_163850" data-name="Trazado 163850" d="M213.025,390.592c8.668,20.394,37.865,26.517,65.241,13.622,27.376-12.877,42.559-39.878,33.908-60.286S274.3,317.411,246.937,330.3C219.544,343.187,204.375,370.175,213.025,390.592Z" transform="translate(-176.717 -268.15)" fill="url(#linear-gradient-2)"/>
            <path id="Trazado_163851" data-name="Trazado 163851" d="M221.242,350.615c3.591,5.582,11.5,6.9,17.693,2.924s8.276-11.714,4.689-17.3-11.509-6.9-17.684-2.924C219.747,337.285,217.651,345.024,221.242,350.615Z" transform="translate(-146.856 -243.06)" fill="url(#linear-gradient-3)"/>
            <path id="Trazado_163852" data-name="Trazado 163852" d="M216.2,350.8c3.791,4.035,11.047,3.1,16.237-2.1,5.173-5.2,6.31-12.677,2.528-16.7s-11.051-3.1-16.229,2.1S212.422,346.759,216.2,350.8Z" transform="translate(-165.386 -248.194)" fill="url(#linear-gradient-3)"/>
            <path id="Trazado_163853" data-name="Trazado 163853" d="M249.241,335.247c.357,5.521-5.29,10.171-12.633,10.415-7.33.222-13.566-4.066-13.923-9.579s5.29-10.184,12.625-10.406C242.652,325.437,248.883,329.726,249.241,335.247Z" transform="translate(-136.175 -261.025)" fill="url(#linear-gradient-3)"/>
            <path id="Trazado_163854" data-name="Trazado 163854" d="M214.655,346.913c-.405-4.855,4.493-9.047,10.951-9.378s12.006,3.356,12.411,8.2-4.493,9.051-10.943,9.374S215.06,351.767,214.655,346.913Z" transform="translate(-163.161 -221.242)" fill="url(#linear-gradient-3)"/>
            <path id="Trazado_163855" data-name="Trazado 163855" d="M248.373,332.8c-3.857-3.961-11.1-2.885-16.2,2.4-5.073,5.295-6.066,12.795-2.214,16.756s11.1,2.894,16.189-2.406S252.234,336.772,248.373,332.8Z" transform="translate(-119.57 -245.105)" fill="url(#linear-gradient-3)"/>
            <path id="Trazado_163856" data-name="Trazado 163856" d="M243.1,341.118c-2.31-4.284-8.694-5.121-14.294-1.878-5.574,3.251-8.232,9.361-5.922,13.649s8.7,5.134,14.285,1.878S245.407,345.419,243.1,341.118Z" transform="translate(-138.242 -222.084)" fill="url(#linear-gradient-3)"/>
            <path id="Trazado_163857" data-name="Trazado 163857" d="M213.744,407.063V376.2l65.727-39.965V258.227L266.623,271.9l-2.037,55.631-60.648,47.574.728,33.773Z" transform="translate(-199.066 -310.834)" fill="#1d272b"/>
          </g>
          <g id="Grupo_127712" data-name="Grupo 127712" transform="translate(0 184.741)">
            <g id="Grupo_127710" data-name="Grupo 127710" transform="translate(0.078)">
              <path id="Trazado_163858" data-name="Trazado 163858" d="M201.766,383.295c-.243.4-6.268,1.29-6.268,1.29s-1.532-11.562-1.151-19.205.955-9.788,2.737-13.515l.913-1.328a16.553,16.553,0,0,1,3.119,5.271c2.418,6.241,2.037,13.938,1.513,19.671S201.766,383.295,201.766,383.295Z" transform="translate(-192.964 -349.158)" fill="#1d272b"/>
              <path id="Trazado_163859" data-name="Trazado 163859" d="M194.595,360.153l5.93-1.07s-.112.92-.493,1.2a10.811,10.811,0,0,1-3.45.974,2.851,2.851,0,0,1-1.725-.366C194.618,360.765,194.595,360.153,194.595,360.153Z" transform="translate(-192.081 -324.796)" fill="#fff"/>
              <path id="Trazado_163860" data-name="Trazado 163860" d="M194.583,371.982c.4-.478.809-1.583.589-3.977s-.5-6.538-.5-6.538a4.363,4.363,0,0,0,2.734.347c1.648-.2,2.63-.377,3.846-3.08a68.1,68.1,0,0,0-.816,12.106,7.788,7.788,0,0,1,.281,1.517Z" transform="translate(-192.115 -325.793)" fill="#1d272b"/>
              <path id="Trazado_163861" data-name="Trazado 163861" d="M195.228,351.649l1.074-1.471a31.4,31.4,0,0,1,4.355,16.549,145.525,145.525,0,0,1-1.086,17.284c-.116,1.159-.712,9.73-.724,10.473s.2,1.91.732,2.125a1.057,1.057,0,0,1-1.167-.116s-.062-6.141.4-10.48,1.271-18.181.986-21.466c-.389-4.551-1.806-9.044-2.749-10.531A15.235,15.235,0,0,0,195.228,351.649Z" transform="translate(-190.277 -350.178)" fill="#cde3e8"/>
              <g id="Grupo_127709" data-name="Grupo 127709" transform="translate(0 45.051)">
                <g id="Grupo_127708" data-name="Grupo 127708">
                  <path id="Trazado_163862" data-name="Trazado 163862" d="M195.29,363.463c.162-.239.381-.2,1.036-.389a1.838,1.838,0,0,0,1.124-1.059,12.929,12.929,0,0,1,2.291-.135,26.987,26.987,0,0,0,3.966,1.463c.474.092,1.059-.123,1.136.354A185.923,185.923,0,0,1,205.5,384.1c-.389,8.759-1.386,33.679-1.44,40.132s.658,17.215.874,20.237.054,3.427-.832,4.139-8.686.724-10.03-.639c-.316-.328.031-3.589.131-6.3s1.883-15.906.589-43.158c0,0-.785-4.185-.589-15.656C194.377,372.769,195.29,363.463,195.29,363.463Z" transform="translate(-193.938 -361.878)" fill="#1d272b"/>
                  <path id="Trazado_163863" data-name="Trazado 163863" d="M204.777,383.506c-.219,2.183-.5,2.541-1.144,2.972-.878.6-7.712.724-9.691-.393a2.128,2.128,0,0,0,.131,1.032c1.344,1.371,9.1,1.286,10.026.639.909-.628,1.047-1.109.832-4.131Z" transform="translate(-193.942 -300.232)" fill="#cde3e8"/>
                </g>
              </g>
            </g>
            <g id="Grupo_127711" data-name="Grupo 127711" transform="translate(0 1.463)">
              <path id="Trazado_163864" data-name="Trazado 163864" d="M197.063,351.883c-1.783,3.723-2.36,5.872-2.738,13.511s1.147,19.209,1.147,19.209a4.225,4.225,0,0,0,2.861.558l-.358-34.6Z" transform="translate(-192.946 -350.558)" fill="#cde3e8"/>
              <path id="Trazado_163865" data-name="Trazado 163865" d="M196.306,363.091c-.655.2-.874.15-1.036.385,0,0-.916,9.31-1.09,19.4-.2,11.47.589,15.655.589,15.655,1.294,27.253-.485,40.456-.589,43.162s-.447,5.972-.127,6.3c.712.72,3.253,1.047,5.61,1.1V361.9a11.692,11.692,0,0,0-2.237.131A1.819,1.819,0,0,1,196.306,363.091Z" transform="translate(-193.922 -318.227)" fill="#1d272b"/>
            </g>
          </g>
          <g id="Grupo_127713" data-name="Grupo 127713" transform="translate(106.9 188.881)">
            <path id="Trazado_163866" data-name="Trazado 163866" d="M229.2,389.365c-6.665,0-12.071,6.4-12.071,14.292s5.406,14.3,12.071,14.3,12.071-6.4,12.071-14.3S235.865,389.365,229.2,389.365Zm0,24.827c-4.909,0-8.89-4.713-8.89-10.535s3.981-10.531,8.89-10.531,8.9,4.713,8.9,10.531S234.113,414.192,229.2,414.192Z" transform="translate(-217.125 -293.493)" fill="#1d272b"/>
            <path id="Trazado_163867" data-name="Trazado 163867" d="M232.442,471.66l2.541-47.648s2.676-20.981,3.7-25.1c1.694-6.773,8.84-31.923,8.205-33.513s-2.541-.316-3.5,3.18-9.152,30.121-9.152,30.121l-4.663,21.5-3.812,33.667-5.714,8.259,7.624,3.816Z" transform="translate(-208.773 -363.718)" fill="#1d272b"/>
            <path id="Trazado_163868" data-name="Trazado 163868" d="M236.876,389.117c-6.673,0-12.079,6.4-12.079,14.292s5.406,14.3,12.079,14.3,12.067-6.4,12.067-14.3S243.537,389.117,236.876,389.117Zm0,24.827c-4.913,0-8.9-4.713-8.9-10.535s3.985-10.527,8.9-10.527,8.887,4.713,8.887,10.527S241.785,413.944,236.876,413.944Z" transform="translate(-195.257 -294.2)" fill="#1d272b"/>
            <path id="Trazado_163869" data-name="Trazado 163869" d="M231.732,473.675l-4.285-39.7-5.082-3.18,2.857-33.355s7.882-31.1,9.637-32.5c1.586-1.271,3.177-.216,1.694,6.141-.82,3.527-5.926,26.895-5.926,26.895l5.714,59.507,7.47,1.9s-5.883,2.857-8.1,6.357A54.209,54.209,0,0,0,231.732,473.675Z" transform="translate(-202.192 -364.465)" fill="#1d272b"/>
            <path id="Trazado_163870" data-name="Trazado 163870" d="M228.162,382.474a2.541,2.541,0,1,1-2.537-2.541A2.543,2.543,0,0,1,228.162,382.474Z" transform="translate(-200.154 -320.377)" fill="#cde3e8"/>
          </g>
          <g id="Grupo_127714" data-name="Grupo 127714" transform="translate(59.981 184.745)">
            <path id="Trazado_163871" data-name="Trazado 163871" d="M235.575,365.615c0-8.529-5.837-15.436-13.041-15.436S209.5,357.086,209.5,365.615s5.837,15.432,13.033,15.432S235.575,374.14,235.575,365.615Zm-3.431,0c0,6.28-4.3,11.374-9.61,11.374s-9.6-5.094-9.6-11.374,4.3-11.374,9.6-11.374S232.144,359.331,232.144,365.615Z" transform="translate(-209.5 -350.179)" fill="#1d272b"/>
            <path id="Trazado_163872" data-name="Trazado 163872" d="M226.043,354.81l2.745,51.468s1.79,19.59,1.625,24.165c-.481,13.1-.262,36.086-.635,37.9-.477,2.3-1.586,1.763-1.748-2.148-.239-5.722-1.586-33.691-1.586-33.691l-3.488-22.113-4.112-36.363-6.18-8.925,8.24-4.116Z" transform="translate(-200.484 -336.979)" fill="#1d272b"/>
            <path id="Trazado_163873" data-name="Trazado 163873" d="M243.862,365.885c0-8.529-5.837-15.44-13.041-15.44s-13.033,6.911-13.033,15.44,5.837,15.436,13.033,15.436S243.862,374.406,243.862,365.885Zm-3.434,0c0,6.28-4.3,11.374-9.607,11.374s-9.6-5.094-9.6-11.374,4.3-11.378,9.6-11.378S240.427,359.6,240.427,365.885Z" transform="translate(-185.879 -349.421)" fill="#1d272b"/>
            <path id="Trazado_163874" data-name="Trazado 163874" d="M225.216,354.362l-4.632,42.885-5.487,3.431,3.088,36.02s1.425,28.827,1.555,31.249c.243,4.417,1.39,4.532,2.264-4.647.37-3.889,2.014-27.172,2.014-27.172l6.172-64.278,8.063-2.048s-6.349-3.088-8.748-6.861A58.712,58.712,0,0,1,225.216,354.362Z" transform="translate(-193.547 -338.256)" fill="#1d272b"/>
            <path id="Trazado_163875" data-name="Trazado 163875" d="M221.418,369.708a2.743,2.743,0,1,0-2.741,2.738A2.742,2.742,0,0,0,221.418,369.708Z" transform="translate(-191.169 -302.35)" fill="url(#linear-gradient-9)"/>
          </g>
          <g id="Grupo_127725" data-name="Grupo 127725" transform="translate(32.86 178.472)">
            <g id="Grupo_127724" data-name="Grupo 127724">
              <g id="Grupo_127723" data-name="Grupo 127723">
                <path id="Trazado_163876" data-name="Trazado 163876" d="M223.443,384.964c0,1.3-4.49,2.121-10.034,2.156s-10.034-.747-10.042-2.044,4.493-1.972,10.038-2.01C218.945,383.042,223.443,383.674,223.443,384.964Z" transform="translate(-199.859 -250.17)" fill="#fff"/>
                <path id="Trazado_163877" data-name="Trazado 163877" d="M223.5,383.566c-.655,1.174-4.986,1.971-10.069,2-5.544.031-10.088-.67-10.088-2.037,0-.015.042,1.748.042,1.748h0c.046,1.359,4.536,2.164,10.042,2.137s9.988-.886,10.019-2.245l.008,0v-.016l0,0,0,0A14.1,14.1,0,0,0,223.5,383.566Z" transform="translate(-199.928 -248.841)" fill="#1d272b"/>
                <g id="Grupo_127715" data-name="Grupo 127715" transform="translate(8.001 77.343)">
                  <path id="Trazado_163878" data-name="Trazado 163878" d="M210.444,426.408l-3.662.031-.019-11.116a29.57,29.57,0,0,1-1.975-7.832c-.177-3.277-.185-3.277-.254-38.854,0,0,2.969.158,5.583.146C210.182,403.329,210.444,426.408,210.444,426.408Z" transform="translate(-204.534 -368.637)" fill="#1d272b"/>
                  <path id="Trazado_163879" data-name="Trazado 163879" d="M205.91,368.934l5.26-.108s.416,37.364.293,39.535a46.837,46.837,0,0,1-1.271,6.18c0,1.648.119,11.343.119,11.343l-4.031.4Z" transform="translate(-200.612 -368.098)" fill="#1d272b"/>
                </g>
                <path id="Trazado_163880" data-name="Trazado 163880" d="M217.9,368.559l-13.545.073c-.1,0-.193.158-.193.354s.092.35.193.35l.581,0-.027,1.086-.581,0a.209.209,0,0,0-.189.231c0,.142.092.35.2.35h.578l.019.87h-.57a.242.242,0,0,0-.2.258c.008.139.092.262.2.258l13.545-.073c.1,0,.185-.119.185-.254s-.089-.262-.185-.262h-.585l0-.917.589,0c.1,0,.185-.108.185-.25s-.089-.262-.193-.262l-.581.008,0-1.117.581,0c.1,0,.2-.158.2-.35S218,368.559,217.9,368.559Z" transform="translate(-197.653 -291.517)" fill="#fff"/>
                <path id="Trazado_163881" data-name="Trazado 163881" d="M203.791,427.612l-.1-66.2a.468.468,0,0,1,.47-.477h0l16.133-.089a.475.475,0,0,1,.335.135h0a.468.468,0,0,1,.135.335h0l.162,66.041a.485.485,0,0,1-.208.385h0a6.9,6.9,0,0,1-3.092.789h0a51.916,51.916,0,0,1-5.233.281h0a39.7,39.7,0,0,1-5.483-.239h0a17.879,17.879,0,0,1-2.784-.512h0a.6.6,0,0,1-.193-.112h0a.471.471,0,0,1-.142-.335Zm.943-.366a21.088,21.088,0,0,0,2.291.389h0a37.805,37.805,0,0,0,5.348.231h0a50.653,50.653,0,0,0,5.144-.273h0a9.575,9.575,0,0,0,2.133-.4h0c.142-.054.243-.085.323-.123h0l-.15-65.283-15.193.092.1,65.371Z" transform="translate(-198.936 -313.51)" fill="#1d272b"/>
                <path id="Trazado_163882" data-name="Trazado 163882" d="M203.726,366.447l-.035-.092.031-.131a.894.894,0,0,1,.223-.408h0a2.577,2.577,0,0,1,1.051-.547h0c1.151-.3,3.026-.558,4.016-.851h0a2.23,2.23,0,0,0,.431-.146h0c.031-.843.1-4.705.1-4.713h0V359.1l5.633-.035v.474s.015,3.585.05,4.628h0l.015,0h0c.116.046.289.1.493.169h0c.412.119.966.254,1.548.377h0c1.305.3,2.641.4,3.311.955h0a.654.654,0,0,1,.223.427h0l.019.169v29.39l-.477,0,.477,0v.474l-16.992.1-.119-29.794Zm1.055,28.851,15.113-.1.012-28.851-.012-.031a16.532,16.532,0,0,0-2.8-.67h0a8.093,8.093,0,0,1-2.63-.839h0l-.035-.046h0a.406.406,0,0,1-.127-.281h0c-.042-.416-.05-3.311-.058-4.459h0l-3.77.015c-.023,1.178-.081,4.212-.085,4.432h0a.617.617,0,0,1-.185.412h0a5.212,5.212,0,0,1-2.233.743h0c-.955.189-2.037.373-2.722.551h0a2.293,2.293,0,0,0-.585.258h0l.119,28.866Z" transform="translate(-198.936 -318.564)" fill="#1d272b"/>
                <path id="Trazado_163883" data-name="Trazado 163883" d="M206.888,377.187l-1.045.015-.037-28.652,1.055,2.564Z" transform="translate(-192.908 -348.55)" fill="#fff"/>
                <path id="Trazado_163884" data-name="Trazado 163884" d="M209.744,356.97s-.189-.766-.231-.886l-.246.042-.312.566.012,5.06a.549.549,0,0,1-1.067.008l-.015-4.986-.358-.62s-.223-.085-.254-.058a4.213,4.213,0,0,0-.246.97,1.86,1.86,0,0,0-.462.1,28.468,28.468,0,0,0,.173,4.289c.085.585-.543,1.217-.816,1.79s-.843,6.53-.843,6.68c0,0,.562.015,3.384.073,2.464-.019,3.23-.1,3.23-.1-.015-.162-.443-6.076-.716-6.661-.289-.566-.974-1.267-.893-1.852a27.112,27.112,0,0,0,.123-4.316A1.529,1.529,0,0,0,209.744,356.97Z" transform="translate(-194.985 -327.075)" fill="#fff"/>
                <path id="Trazado_163885" data-name="Trazado 163885" d="M205.691,356.605c-.008-.366.424-.685.943-.685s.963.3.963.666c0,0-.489.038-1.013.035S205.691,356.605,205.691,356.605Z" transform="translate(-193.235 -327.542)" fill="#fff"/>
                <path id="Trazado_163886" data-name="Trazado 163886" d="M212.778,359.874c0,.146-.15.262-.346.27l-7.189.042a.316.316,0,0,1-.347-.273h0c0-.146.158-.27.347-.27l7.189-.042a.319.319,0,0,1,.346.273Z" transform="translate(-195.501 -317.05)" fill="#fff"/>
                <g id="Grupo_127716" data-name="Grupo 127716" transform="translate(7.77 51.172)">
                  <path id="Trazado_163887" data-name="Trazado 163887" d="M204.616,362.1c-.077,0-.143-.042-.143-.1h0c0-.065.065-.108.139-.108h0l8.529-.046c.077,0,.139.046.139.1h0a.131.131,0,0,1-.142.116h0l-8.521.042Z" transform="translate(-204.474 -361.84)" fill="#fff" opacity="0.92"/>
                  <path id="Trazado_163888" data-name="Trazado 163888" d="M204.624,365.055c-.081,0-.146-.05-.142-.108h0a.13.13,0,0,1,.139-.112h0l8.529-.046a.121.121,0,0,1,.131.108h0c.008.065-.058.108-.131.108h0l-8.525.05Z" transform="translate(-204.454 -353.434)" fill="#fff" opacity="0.92"/>
                  <path id="Trazado_163889" data-name="Trazado 163889" d="M204.626,368.071a.119.119,0,0,1-.139-.1h0a.119.119,0,0,1,.139-.107h0l8.529-.054a.125.125,0,0,1,.131.108h0c0,.065-.058.108-.131.112h0l-8.529.046Z" transform="translate(-204.437 -344.838)" fill="#fff" opacity="0.92"/>
                  <path id="Trazado_163890" data-name="Trazado 163890" d="M204.62,362.639a.139.139,0,0,1-.146-.1h0a.142.142,0,0,1,.15-.112h0l3.85-.023a.126.126,0,0,1,.135.108h0a.128.128,0,0,1-.135.108h0l-3.854.023Z" transform="translate(-204.474 -360.244)" fill="#fff" opacity="0.92"/>
                  <path id="Trazado_163891" data-name="Trazado 163891" d="M204.616,363.244c-.081,0-.139-.05-.139-.108h0a.127.127,0,0,1,.139-.112h0l3.85-.023c.073.008.139.05.135.116h0c0,.058-.058.1-.135.108h0l-3.85.019Z" transform="translate(-204.465 -358.531)" fill="#fff" opacity="0.92"/>
                  <path id="Trazado_163892" data-name="Trazado 163892" d="M204.615,363.847c-.081,0-.135-.05-.135-.1h0c-.008-.065.054-.116.135-.116h0l3.847-.027c.073.008.139.054.139.119h0c0,.058-.065.1-.139.1h0l-3.847.023Z" transform="translate(-204.457 -356.82)" fill="#fff" opacity="0.92"/>
                  <path id="Trazado_163893" data-name="Trazado 163893" d="M204.619,364.443c-.085,0-.139-.042-.139-.108h0a.127.127,0,0,1,.139-.108h0l3.85-.023a.127.127,0,0,1,.131.108h0c0,.058-.05.108-.139.112h0l-3.843.019Z" transform="translate(-204.457 -355.102)" fill="#fff" opacity="0.92"/>
                  <path id="Trazado_163894" data-name="Trazado 163894" d="M204.621,365.652a.127.127,0,0,1-.139-.115h0c0-.054.062-.1.139-.1h0l3.85-.027a.126.126,0,0,1,.135.112h0a.121.121,0,0,1-.135.108h0l-3.85.027Z" transform="translate(-204.451 -351.676)" fill="#fff" opacity="0.92"/>
                  <path id="Trazado_163895" data-name="Trazado 163895" d="M204.622,366.244c-.077,0-.135-.042-.139-.108h0c0-.058.062-.1.139-.1h0l3.847-.023c.081,0,.142.05.135.112h0c.008.054-.05.1-.131.1h0l-3.85.019Z" transform="translate(-204.448 -349.957)" fill="#fff" opacity="0.92"/>
                  <path id="Trazado_163896" data-name="Trazado 163896" d="M204.616,366.845c-.073,0-.131-.042-.131-.1h0a.125.125,0,0,1,.131-.119h0l3.858-.016a.117.117,0,0,1,.131.112h0c0,.058-.058.1-.135.1h0l-3.854.019Z" transform="translate(-204.443 -348.244)" fill="#fff" opacity="0.92"/>
                  <path id="Trazado_163897" data-name="Trazado 163897" d="M204.624,367.453a.125.125,0,0,1-.139-.108h0a.13.13,0,0,1,.139-.108h0l3.85-.027a.121.121,0,0,1,.135.112h0a.118.118,0,0,1-.127.108h0l-3.858.023Z" transform="translate(-204.443 -346.534)" fill="#fff" opacity="0.92"/>
                </g>
                <g id="Grupo_127718" data-name="Grupo 127718" transform="translate(18.185 50.498)">
                  <g id="Grupo_127717" data-name="Grupo 127717">
                    <path id="Trazado_163898" data-name="Trazado 163898" d="M207.645,363.19l0-1.1-.254.281-.208-.119.52-.585h.212l.008,1.521Z" transform="translate(-207.179 -361.665)" fill="#fff"/>
                  </g>
                </g>
                <g id="Grupo_127720" data-name="Grupo 127720" transform="translate(17.916 61.899)">
                  <g id="Grupo_127719" data-name="Grupo 127719">
                    <path id="Trazado_163899" data-name="Trazado 163899" d="M207.124,365.123a.611.611,0,0,1,.67-.5c.728-.008.924.616.408.909-.273.181-.347.22-.616.4l.874,0v.208l-1.344.008-.008-.162.9-.616v0c.3-.173.227-.527-.219-.527a.356.356,0,0,0-.393.293Z" transform="translate(-207.109 -364.626)" fill="#fff"/>
                  </g>
                </g>
                <g id="Grupo_127722" data-name="Grupo 127722" transform="translate(17.943 73.296)">
                  <g id="Grupo_127721" data-name="Grupo 127721">
                    <path id="Trazado_163900" data-name="Trazado 163900" d="M207.567,368.244l.285,0a.238.238,0,0,0,.266-.227c0-.154-.185-.219-.366-.216a.328.328,0,0,0-.331.185l-.25-.05a.567.567,0,0,1,.581-.347c.308,0,.639.131.643.427a.34.34,0,0,1-.177.316.362.362,0,0,1,.243.354c0,.223-.227.439-.685.443-.412,0-.6-.185-.658-.389l.262-.042c.023.119.146.231.393.227.3,0,.451-.135.427-.266-.012-.085-.092-.208-.343-.208l-.289,0Z" transform="translate(-207.116 -367.586)" fill="#fff"/>
                  </g>
                </g>
                <path id="Trazado_163901" data-name="Trazado 163901" d="M202.456,379.314c0,.82,6,1.452,13.4,1.417s13.376-.751,13.376-1.571-5.995-1.459-13.4-1.421C208.451,377.781,202.456,378.486,202.456,379.314Zm6.426-.193c0-.381,3.119-.709,6.961-.724s6.958.27,6.958.647-3.115.7-6.958.728S208.882,379.5,208.882,379.121Z" transform="translate(-202.456 -265.355)" fill="#fff"/>
                <path id="Trazado_163902" data-name="Trazado 163902" d="M215.851,379.651c-7.385.039-13.384-.6-13.391-1.421l.008,1.394h0v.008h0c.058.828,6.026,1.455,13.384,1.413s13.318-.735,13.376-1.563h0l-.015-1.351C228.981,378.938,223.105,379.612,215.851,379.651Zm-13.391-1.009,0,.015.012-.015Zm0,.015Z" transform="translate(-202.456 -264.236)" fill="#cde3e8"/>
              </g>
            </g>
            <rect id="Rectángulo_35061" data-name="Rectángulo 35061" width="5.434" height="3.79" transform="translate(8.075 110.265)" fill="#cde3e8"/>
          </g>
          <g id="Grupo_127728" data-name="Grupo 127728" transform="translate(237.365 113.322)">
            <g id="Grupo_91930" data-name="Grupo 91930" transform="translate(0 7.895)">
              <path id="Trazado_151017" data-name="Trazado 151017" d="M1619.681,1573.015c-1.424,0-1.8,1.12-1.8,2.545v3.9c0,1.425.378,1.976,1.8,1.976h4.093v-8.422Z" transform="translate(-1617.879 -1573.015)" fill="#008f85"/>
              <path id="Trazado_151018" data-name="Trazado 151018" d="M2052.3,1573.015a2.565,2.565,0,0,1,2.6,2.545v3.9c0,1.425-1.172,1.976-2.6,1.976h-4.142v-8.422Z" transform="translate(-1947.949 -1573.015)" fill="#008f85"/>
            </g>
            <g id="Grupo_91933" data-name="Grupo 91933" transform="translate(5.053)">
              <g id="Grupo_91931" data-name="Grupo 91931" transform="translate(0.842 1.01)">
                <path id="Trazado_151019" data-name="Trazado 151019" d="M1738.35,1547.878v11.939a14.24,14.24,0,0,1-12.673,14.043l-11.215,1.258a17.757,17.757,0,0,1-15.311-5.5l-6.261-6.642h-4.027l-6.251,6.642a17.836,17.836,0,0,1-15.3,5.651l-11.381-1.332a14.366,14.366,0,0,1-12.74-14.115v-11.939a4.744,4.744,0,0,1,4.9-4.419l42.739,1.812,42.715-1.812a4.581,4.581,0,0,1,3.343,1.218A4.519,4.519,0,0,1,1738.35,1547.878Z" transform="translate(-1643.19 -1543.454)" fill="url(#linear-gradient-3)"/>
                <path id="Trazado_151020" data-name="Trazado 151020" d="M1732.623,1587.26a14.089,14.089,0,0,1-6.986,2.8l-11.194,1.258a17.733,17.733,0,0,1-15.3-5.5l-6.251-6.642h-4.027l-6.251,6.642a17.836,17.836,0,0,1-15.3,5.651l-11.381-1.332a14.367,14.367,0,0,1-12.74-14.116V1564.57c4.211,3,10.737,5.567,20.652,5.96C1688.173,1571.485,1720.925,1560.4,1732.623,1587.26Z" transform="translate(-1643.19 -1559.652)" fill="#fff" opacity="0.5" style="mix-blend-mode: soft-light;isolation: isolate"/>
              </g>
              <g id="Grupo_91932" data-name="Grupo 91932">
                <path id="Trazado_151021" data-name="Trazado 151021" d="M1710.5,1573.17a18.28,18.28,0,0,1-13.869-5.873l-5.934-5.968h-3.183l-6.086,6a18.136,18.136,0,0,1-13.751,5.664,22.516,22.516,0,0,1-2.5-.172l-11.552-1.273c-7.823-.879-14.055-7.5-14.055-15.054v-11.944c0-1.257.808-2.54,2.252-3.924a6.677,6.677,0,0,1,4.516-1.506l42.659,1.816,42.727-1.821a4.866,4.866,0,0,1,3.515,1.511c1.17,1.122,1.176,2.587,1.176,3.879V1556.5c0,7.945-5.441,14.322-12.94,15.163l-10.677,1.381A20.668,20.668,0,0,1,1710.5,1573.17Zm-23.823-13.525h4.87l6.553,6.441a16.3,16.3,0,0,0,12.4,5.218,18.779,18.779,0,0,0,2.061-.189l10.841-1.417a12.961,12.961,0,0,0,11.331-13.2v-11.944a3.194,3.194,0,0,0-.713-2.469,3.061,3.061,0,0,0-2.2-.951l-.185,0-42.591,1.817-42.879-1.819a4.136,4.136,0,0,0-2.688.951c-1.261,1.208-1.38,2.01-1.38,2.47V1556.5a13.4,13.4,0,0,0,12.008,13.038l11.371,1.256a19.81,19.81,0,0,0,2.236.129c4.959,0,9.3-1.518,12.271-4.805Z" transform="translate(-1639.574 -1539.118)" fill="#008f85"/>
              </g>
            </g>
          </g>
        </g>
      </g>
      <g id="Grupo_127750" data-name="Grupo 127750" transform="translate(537.839 3842.156)">
        <path id="Trazado_163505" data-name="Trazado 163505" d="M441.412,409.054l.013,9.022.012,9.021-23.893.034-.009-5.9c0-1.721-1.738-3.115-3.877-3.113l-23.84.034c-2.139,0-3.871,1.4-3.869,3.122l.008,5.906-23.893.033-.013-9.022-.012-9.021Z" transform="translate(-354.31 -293.875)" fill="#38474f"/>
        <path id="Trazado_163506" data-name="Trazado 163506" d="M363.157,412.757c2.3-.484,4.855-.228,7.2-.25l7.577-.066c4.975-.041,9.949-.037,14.924-.039l29.62-.006c2.755,0,5.511.018,8.266.032s5.58-.043,8.182.86a.553.553,0,0,1,0,1.068,22.352,22.352,0,0,1-7.031.874c-2.524.049-5.053.047-7.577.059-4.975.023-9.95.026-14.925.038-9.872.025-19.747.11-29.62.055q-4.132-.022-8.265-.049l-4.134-.026a21.326,21.326,0,0,1-4.219-.21A1.208,1.208,0,0,1,363.157,412.757Z" transform="translate(-354.311 -293.901)" fill="#263238"/>
        <path id="Trazado_163507" data-name="Trazado 163507" d="M416.944,382.4l-.011-8.033a21.217,21.217,0,0,0-.468-4.407l-4.814-22.554a7.188,7.188,0,0,0-7.04-5.688l-8.826.012-.016-11.795,12.149-.017,8.522-.012a8.837,8.837,0,0,1,8.156,5.406l13.781,32.709a22.013,22.013,0,0,1,1.728,8.518l.026,19.04.013,8.785-23.17.032-53.658.074-.007-5.046a3.74,3.74,0,0,1,3.735-3.746l36.705-.05A13.215,13.215,0,0,0,416.944,382.4Z" transform="translate(-354.319 -293.262)" fill="#dbdbdb"/>
        <rect id="Rectángulo_34994" data-name="Rectángulo 34994" width="94.817" height="9.022" rx="4.232" transform="translate(94.829 118.951) rotate(179.921)" fill="#38474f"/>
        <g id="Grupo_127554" data-name="Grupo 127554" transform="translate(18.665 0)">
          <rect id="Rectángulo_34995" data-name="Rectángulo 34995" width="9.072" height="15.448" transform="translate(22.854 15.448) rotate(179.921)" fill="#868695"/>
          <rect id="Rectángulo_34996" data-name="Rectángulo 34996" width="13.006" height="72.767" transform="translate(24.907 77.962) rotate(179.921)" fill="#263238"/>
          <rect id="Rectángulo_34997" data-name="Rectángulo 34997" width="24.057" height="58.001" transform="translate(30.427 73.439) rotate(179.921)" fill="#ebebeb"/>
          <g id="Grupo_127552" data-name="Grupo 127552" transform="translate(8.833 20.546)">
            <rect id="Rectángulo_34998" data-name="Rectángulo 34998" width="4.956" height="6.029" transform="matrix(-1, 0.001, -0.001, -1, 5.017, 43.814)" fill="#fff"/>
            <rect id="Rectángulo_34999" data-name="Rectángulo 34999" width="4.956" height="34.862" transform="translate(5.004 34.862) rotate(179.921)" fill="#fff"/>
          </g>
          <rect id="Rectángulo_35000" data-name="Rectángulo 35000" width="6.931" height="11.897" transform="translate(21.904 102.385) rotate(179.921)" fill="#263238"/>
          <g id="Grupo_127553" data-name="Grupo 127553" transform="translate(20.003 24.927)">
            <path id="Trazado_163508" data-name="Trazado 163508" d="M393.219,328.456A10.345,10.345,0,1,0,403.55,318.1,10.344,10.344,0,0,0,393.219,328.456Z" transform="translate(-393.219 -318.097)" fill="#868695"/>
            <path id="Trazado_163509" data-name="Trazado 163509" d="M397.222,328.481a6.373,6.373,0,1,0,6.364-6.382A6.373,6.373,0,0,0,397.222,328.481Z" transform="translate(-393.25 -318.128)" fill="#868695" stroke="#263238" stroke-miterlimit="10" stroke-width="1"/>
          </g>
          <rect id="Rectángulo_35001" data-name="Rectángulo 35001" width="36.84" height="5.421" rx="2.543" transform="matrix(-1, 0.001, -0.001, -1, 36.847, 94.442)" fill="#38474f"/>
        </g>
      </g>
      <g id="Grupo_127751" data-name="Grupo 127751" transform="translate(341.433 3893.747)">
        <path id="Trazado_163547" data-name="Trazado 163547" d="M58.852,391.345l.1,72.432,152.228-.211-.1-72.432Zm106.789,59.141-91.416.126-.063-46.146,91.416-.126Z" transform="translate(-58.852 -368.356)" fill="#dbdbdb"/>
        <rect id="Rectángulo_35002" data-name="Rectángulo 35002" width="21.823" height="46.146" transform="translate(15.31 36.11) rotate(-0.079)" fill="#dbdbdb"/>
        <path id="Trazado_163548" data-name="Trazado 163548" d="M93.677,379.606l-15.864.022a4.552,4.552,0,1,0,.012,9.1h.561l.1,69.68a7.371,7.371,0,1,0,14.742-.022l-.1-69.68h.561a4.552,4.552,0,0,0-.012-9.1Z" transform="translate(-44.887 -379.523)" fill="#fff"/>
        <path id="Trazado_163549" data-name="Trazado 163549" d="M108.971,379.585l-15.864.022a4.552,4.552,0,0,0,.012,9.1h.561l.1,69.68a7.371,7.371,0,1,0,14.742-.022l-.094-69.68h.559a4.552,4.552,0,0,0-.012-9.1Z" transform="translate(-30.072 -379.544)" fill="#fff"/>
        <path id="Trazado_163550" data-name="Trazado 163550" d="M124.265,379.564l-15.864.022a4.552,4.552,0,0,0,.012,9.1h.561l.1,69.679a7.371,7.371,0,1,0,14.741-.022l-.094-69.68h.559a4.552,4.552,0,1,0-.012-9.1Z" transform="translate(-15.257 -379.564)" fill="#fff"/>
        <g id="Grupo_127567" data-name="Grupo 127567" transform="translate(28.381)">
          <g id="Grupo_127564" data-name="Grupo 127564" transform="translate(0 0.083)">
            <path id="Trazado_163551" data-name="Trazado 163551" d="M90.606,387.8l.087,62.657a7.364,7.364,0,1,1-14.728.02l-.087-62.655Z" transform="translate(-70.74 -371.668)" fill="#008f85"/>
            <path id="Trazado_163552" data-name="Trazado 163552" d="M93.677,379.606l-15.864.022a4.552,4.552,0,1,0,.012,9.1h.561l.1,69.68a7.371,7.371,0,1,0,14.742-.022l-.1-69.68h.561a4.552,4.552,0,0,0-.012-9.1Z" transform="translate(-73.268 -379.606)" fill="none" stroke="#ebebeb" stroke-linecap="round" stroke-linejoin="round" stroke-width="1"/>
          </g>
          <g id="Grupo_127565" data-name="Grupo 127565" transform="translate(30.109 0.041)">
            <path id="Trazado_163553" data-name="Trazado 163553" d="M105.927,406.186l.035,26.422a7.364,7.364,0,1,1-14.728.02l-.037-26.42Z" transform="translate(-86.01 -353.817)" fill="#d93328"/>
            <path id="Trazado_163554" data-name="Trazado 163554" d="M108.971,379.585l-15.864.022a4.552,4.552,0,0,0,.012,9.1h.561l.1,69.68a7.371,7.371,0,1,0,14.742-.022l-.094-69.68h.559a4.552,4.552,0,0,0-.012-9.1Z" transform="translate(-88.562 -379.585)" fill="none" stroke="#ebebeb" stroke-linecap="round" stroke-linejoin="round" stroke-width="1"/>
          </g>
          <g id="Grupo_127566" data-name="Grupo 127566" transform="translate(60.218)">
            <path id="Trazado_163555" data-name="Trazado 163555" d="M121.2,395.462l.065,47.493a7.364,7.364,0,1,1-14.728.02l-.065-47.493Z" transform="translate(-101.317 -364.164)" fill="#db8804"/>
            <path id="Trazado_163556" data-name="Trazado 163556" d="M124.265,379.564l-15.864.022a4.552,4.552,0,0,0,.012,9.1h.561l.1,69.679a7.371,7.371,0,1,0,14.741-.022l-.094-69.68h.559a4.552,4.552,0,1,0-.012-9.1Z" transform="translate(-103.856 -379.564)" fill="none" stroke="#ebebeb" stroke-linecap="round" stroke-linejoin="round" stroke-width="1"/>
          </g>
        </g>
        <path id="Trazado_163557" data-name="Trazado 163557" d="M58.852,391.324l.1,72.432,122-.167-.1-72.434Zm106.789,59.141-91.416.126-.063-46.146,91.416-.126Z" transform="translate(-58.852 -368.336)" fill="#ebebeb"/>
      </g>
    </g>
    <path id="Trazado_165477" data-name="Trazado 165477" d="M14.3-5.447a5.786,5.786,0,0,1-1.948,4.155A6.843,6.843,0,0,1,7.715.225,6.153,6.153,0,0,1,2.768-1.892,8.68,8.68,0,0,1,.966-7.7v-1A9.8,9.8,0,0,1,1.8-12.859a6.228,6.228,0,0,1,2.375-2.757,6.654,6.654,0,0,1,3.588-.96,6.666,6.666,0,0,1,4.56,1.516,6.218,6.218,0,0,1,2,4.256H10.95a3.415,3.415,0,0,0-.882-2.3,3.265,3.265,0,0,0-2.308-.713,2.863,2.863,0,0,0-2.521,1.207A6.766,6.766,0,0,0,4.38-8.861v1.235a7.242,7.242,0,0,0,.8,3.875A2.81,2.81,0,0,0,7.715-2.527a3.326,3.326,0,0,0,2.33-.713,3.221,3.221,0,0,0,.882-2.207Zm5.582,2.74h7.154V0H16.509V-16.352h3.369Zm18.53-.663H32.5L31.378,0H27.8l6.087-16.352H37L43.125,0H39.542Zm-5-2.729H37.5l-2.055-6.121ZM53.131-4.29a1.729,1.729,0,0,0-.674-1.466,8.838,8.838,0,0,0-2.426-1.078,17.2,17.2,0,0,1-2.774-1.117q-2.785-1.5-2.785-4.054a3.949,3.949,0,0,1,.747-2.364,4.871,4.871,0,0,1,2.145-1.623,8.074,8.074,0,0,1,3.139-.584,7.349,7.349,0,0,1,3.122.635,4.971,4.971,0,0,1,2.128,1.791,4.687,4.687,0,0,1,.758,2.628H53.143a2.2,2.2,0,0,0-.708-1.746,2.908,2.908,0,0,0-1.988-.623,3.107,3.107,0,0,0-1.92.522,1.647,1.647,0,0,0-.685,1.376,1.578,1.578,0,0,0,.8,1.336,9.072,9.072,0,0,0,2.364,1.011A10.214,10.214,0,0,1,55.2-7.5a4.272,4.272,0,0,1,1.314,3.189,3.935,3.935,0,0,1-1.606,3.33A7.031,7.031,0,0,1,50.582.225a8.349,8.349,0,0,1-3.437-.691,5.438,5.438,0,0,1-2.364-1.892,4.846,4.846,0,0,1-.814-2.785h3.38q0,2.707,3.234,2.707a3.146,3.146,0,0,0,1.875-.489A1.589,1.589,0,0,0,53.131-4.29ZM62.374,0H59V-16.352h3.369Zm12.96-6.682H68.865V0H65.5V-16.352H76.143v2.729H68.865V-9.4h6.469ZM81.679,0H78.31V-16.352h3.369ZM97.638-5.447a5.786,5.786,0,0,1-1.948,4.155A6.843,6.843,0,0,1,91.057.225,6.153,6.153,0,0,1,86.11-1.892a8.68,8.68,0,0,1-1.8-5.812v-1a9.8,9.8,0,0,1,.831-4.155,6.228,6.228,0,0,1,2.375-2.757,6.654,6.654,0,0,1,3.588-.96,6.666,6.666,0,0,1,4.56,1.516,6.218,6.218,0,0,1,2,4.256H94.291a3.415,3.415,0,0,0-.882-2.3,3.265,3.265,0,0,0-2.308-.713,2.863,2.863,0,0,0-2.521,1.207,6.766,6.766,0,0,0-.859,3.745v1.235a7.242,7.242,0,0,0,.8,3.875,2.81,2.81,0,0,0,2.532,1.224,3.326,3.326,0,0,0,2.33-.713,3.221,3.221,0,0,0,.882-2.207Zm11.444,2.078h-5.907L102.051,0H98.469l6.087-16.352h3.122L113.8,0h-3.583Zm-5-2.729h4.088l-2.055-6.121Zm24.078.651a5.786,5.786,0,0,1-1.948,4.155A6.843,6.843,0,0,1,121.581.225a6.153,6.153,0,0,1-4.947-2.117,8.68,8.68,0,0,1-1.8-5.812v-1a9.8,9.8,0,0,1,.831-4.155,6.228,6.228,0,0,1,2.375-2.757,6.654,6.654,0,0,1,3.588-.96,6.666,6.666,0,0,1,4.56,1.516,6.218,6.218,0,0,1,2,4.256h-3.369a3.415,3.415,0,0,0-.882-2.3,3.265,3.265,0,0,0-2.308-.713,2.863,2.863,0,0,0-2.521,1.207,6.766,6.766,0,0,0-.859,3.745v1.235a7.242,7.242,0,0,0,.8,3.875,2.81,2.81,0,0,0,2.532,1.224,3.326,3.326,0,0,0,2.33-.713,3.221,3.221,0,0,0,.882-2.207ZM133.957,0h-3.369V-16.352h3.369Zm16.554-7.805a9.871,9.871,0,0,1-.854,4.234,6.428,6.428,0,0,1-2.443,2.808,6.757,6.757,0,0,1-3.644.988,6.8,6.8,0,0,1-3.627-.977,6.491,6.491,0,0,1-2.471-2.791,9.589,9.589,0,0,1-.887-4.172v-.809a9.819,9.819,0,0,1,.87-4.251,6.48,6.48,0,0,1,2.459-2.819,6.765,6.765,0,0,1,3.633-.983,6.765,6.765,0,0,1,3.633.983,6.48,6.48,0,0,1,2.459,2.819,9.791,9.791,0,0,1,.87,4.24ZM147.1-8.546a6.881,6.881,0,0,0-.921-3.908,3,3,0,0,0-2.628-1.336,3,3,0,0,0-2.617,1.32A6.8,6.8,0,0,0,140-8.6v.8a6.967,6.967,0,0,0,.921,3.886,2.993,2.993,0,0,0,2.65,1.381,2.966,2.966,0,0,0,2.605-1.331,6.927,6.927,0,0,0,.921-3.88Zm-2.9-12.185h3.538l-3.111,3.481h-2.639ZM166.256,0h-3.369l-6.559-10.759V0h-3.369V-16.352h3.369L162.9-5.57V-16.352h3.358Z" transform="translate(353 3601)" fill="#008f85"/>
    <path id="Trazado_165476" data-name="Trazado 165476" d="M2.095,0V-23.461H9.313a10.963,10.963,0,0,1,5.535,1.394A9.719,9.719,0,0,1,18.659-18.1a12.226,12.226,0,0,1,1.37,5.841v1.08a12.261,12.261,0,0,1-1.345,5.817,9.636,9.636,0,0,1-3.795,3.948A11.045,11.045,0,0,1,9.362,0ZM6.929-19.545V-3.883H9.265A5.249,5.249,0,0,0,13.6-5.736a8.374,8.374,0,0,0,1.531-5.3v-1.241A8.507,8.507,0,0,0,13.648-17.7a5.232,5.232,0,0,0-4.334-1.845Zm30.728,9.378H28.375v6.284H39.268V0H23.542V-23.461H39.236v3.916H28.375v5.591h9.281Zm31.9-1.031A14.135,14.135,0,0,1,68.5-5.487,9.806,9.806,0,0,1,65.549-1.6l3.9,3.062L66.371,4.189l-5-4.012A10.573,10.573,0,0,1,59.6.322a9.76,9.76,0,0,1-5.2-1.4,9.313,9.313,0,0,1-3.545-4,13.758,13.758,0,0,1-1.273-5.986v-1.16a14.088,14.088,0,0,1,1.249-6.1,9.3,9.3,0,0,1,3.529-4.044,9.707,9.707,0,0,1,5.213-1.41,9.707,9.707,0,0,1,5.213,1.41,9.3,9.3,0,0,1,3.529,4.044,14.048,14.048,0,0,1,1.249,6.083Zm-4.9-1.063a9.873,9.873,0,0,0-1.321-5.607,4.306,4.306,0,0,0-3.771-1.917,4.307,4.307,0,0,0-3.754,1.893,9.76,9.76,0,0,0-1.337,5.551V-11.2A10,10,0,0,0,55.8-5.624a4.3,4.3,0,0,0,3.8,1.982,4.256,4.256,0,0,0,3.738-1.909,9.938,9.938,0,0,0,1.321-5.567Zm26.2-11.2V-8.008a7.911,7.911,0,0,1-2.409,6.091A9.287,9.287,0,0,1,81.872.322a9.392,9.392,0,0,1-6.526-2.175A7.776,7.776,0,0,1,72.88-7.831v-15.63h4.834V-7.976a4.47,4.47,0,0,0,1.1,3.36,4.237,4.237,0,0,0,3.053,1.055q4.077,0,4.141-4.286V-23.461ZM99.967,0H95.133V-23.461h4.834Zm-1.5-29.793h5.076l-4.463,5H95.294Zm12.294,6.333,6.026,17.016,5.994-17.016h6.349V0h-4.85V-6.413l.483-11.07L118.433,0h-3.319L108.8-17.467l.483,11.054V0h-4.834V-23.461ZM138.494,0H133.66V-23.461h4.834Zm22.9-7.815a8.3,8.3,0,0,1-2.8,5.962A9.818,9.818,0,0,1,151.948.322a8.829,8.829,0,0,1-7.1-3.037q-2.586-3.037-2.586-8.339v-1.434a14.064,14.064,0,0,1,1.192-5.962,8.936,8.936,0,0,1,3.408-3.956,9.547,9.547,0,0,1,5.148-1.378,9.565,9.565,0,0,1,6.542,2.175,8.922,8.922,0,0,1,2.868,6.107h-4.834a4.9,4.9,0,0,0-1.265-3.3,4.684,4.684,0,0,0-3.311-1.023,4.107,4.107,0,0,0-3.617,1.732,9.708,9.708,0,0,0-1.233,5.374v1.772q0,3.8,1.152,5.559a4.031,4.031,0,0,0,3.634,1.756,4.772,4.772,0,0,0,3.344-1.023,4.621,4.621,0,0,0,1.265-3.166ZM183.836-11.2a14.163,14.163,0,0,1-1.225,6.075,9.223,9.223,0,0,1-3.5,4.028A9.7,9.7,0,0,1,173.878.322a9.76,9.76,0,0,1-5.2-1.4,9.313,9.313,0,0,1-3.545-4,13.758,13.758,0,0,1-1.273-5.986v-1.16a14.088,14.088,0,0,1,1.249-6.1,9.3,9.3,0,0,1,3.529-4.044,9.707,9.707,0,0,1,5.213-1.41,9.707,9.707,0,0,1,5.213,1.41,9.3,9.3,0,0,1,3.529,4.044,14.048,14.048,0,0,1,1.249,6.083Zm-4.9-1.063a9.873,9.873,0,0,0-1.321-5.607,4.306,4.306,0,0,0-3.771-1.917,4.307,4.307,0,0,0-3.754,1.893,9.76,9.76,0,0,0-1.337,5.551V-11.2a10,10,0,0,0,1.321,5.575,4.3,4.3,0,0,0,3.8,1.982,4.256,4.256,0,0,0,3.738-1.909,9.938,9.938,0,0,0,1.321-5.567Zm20.577,6.107a2.481,2.481,0,0,0-.967-2.1,12.681,12.681,0,0,0-3.48-1.547,24.673,24.673,0,0,1-3.98-1.6q-4-2.159-4-5.817a5.665,5.665,0,0,1,1.072-3.392,6.99,6.99,0,0,1,3.078-2.328,11.584,11.584,0,0,1,4.5-.838,10.544,10.544,0,0,1,4.479.91,7.133,7.133,0,0,1,3.053,2.57,6.725,6.725,0,0,1,1.088,3.771h-4.834a3.164,3.164,0,0,0-1.015-2.506,4.173,4.173,0,0,0-2.852-.894,4.458,4.458,0,0,0-2.755.749,2.363,2.363,0,0,0-.983,1.974,2.263,2.263,0,0,0,1.152,1.917,13.016,13.016,0,0,0,3.392,1.45,14.655,14.655,0,0,1,6.01,3.078,6.129,6.129,0,0,1,1.885,4.576,5.646,5.646,0,0,1-2.3,4.778,10.087,10.087,0,0,1-6.2,1.732,11.979,11.979,0,0,1-4.931-.991,7.8,7.8,0,0,1-3.392-2.715,6.953,6.953,0,0,1-1.168-4h4.85q0,3.883,4.641,3.883a4.514,4.514,0,0,0,2.691-.7A2.28,2.28,0,0,0,199.515-6.155Z" transform="translate(353 3632)" fill="#1d272b"/>
    <rect id="Rectángulo_34968" data-name="Rectángulo 34968" width="5" height="67" transform="translate(341 3576)" fill="#d93328"/>
  </g>
</svg>
