<svg xmlns="http://www.w3.org/2000/svg" width="92.74" height="123.074" viewBox="0 0 92.74 123.074">
  <g id="img7" transform="translate(-3098.945 117.495)">
    <g id="Grupo_127453" data-name="Grupo 127453" transform="translate(3098.945 -117.495)">
      <path id="Trazado_163310" data-name="Trazado 163310" d="M3177.432-39.1c4.549-.137,8.332,1.235,11.216,4.642a12.316,12.316,0,0,1,3,8.453,12.628,12.628,0,0,1-4.811,9.844c-3.08,2.531-6.709,3.085-10.669,2.768-.027.57-.066,1.006-.067,1.441q-.007,7.532-.006,15.065c0,2.085-1.261,2.955-3.193,2.193-2.667-1.051-5.307-2.173-7.994-3.168a3.151,3.151,0,0,0-2.018-.019c-2.723,1-5.4,2.145-8.1,3.2-1.883.736-3.133-.122-3.139-2.147-.014-5.022,0-10.043-.005-15.065,0-1.453,0-1.456-1.5-1.456l-37.38,0a14.179,14.179,0,0,1-13.653-12.311c-.106-1.049-.165-2.108-.165-3.162q-.013-36.927,0-73.853c0-6.7,3.754-12.151,9.75-14.022a16.364,16.364,0,0,1,4.764-.76q32.509-.072,65.018-.015a12.488,12.488,0,0,1,11.92,7.369,12.851,12.851,0,0,1-11.3,18.344c-1.833.026-1.667-.2-1.668,1.736q0,24.637,0,49.273Zm-4.239-52.655h-1.508l-58.787,0c-.416,0-.833.023-1.245-.017a2.034,2.034,0,0,1-1.863-1.942,2,2,0,0,1,1.679-2.093c.37-.07.749-.1,1.124-.134a8.679,8.679,0,0,0,7.373-11.824c-1.216-3.216-4.863-5.76-7.866-5.49a10,10,0,0,0-8.975,9.755q-.022,38.059,0,76.118a9.343,9.343,0,0,0,2.827,6.825c2.124,2.116,4.676,3.449,7.75,2.829a8.654,8.654,0,0,0,6.881-8.89,8.724,8.724,0,0,0-8.34-8.3,4.245,4.245,0,0,1-1-.156A1.888,1.888,0,0,1,3109.8-37a1.855,1.855,0,0,1,1.437-1.931,6.036,6.036,0,0,1,1.565-.144q29.45-.011,58.9-.008h1.491Zm-51.671-21.491c4.3,6.757,4.3,10.072-.035,17.377h1.527q27.569,0,55.137-.011a11.564,11.564,0,0,0,2.8-.286,8.737,8.737,0,0,0,6.515-9.585,8.711,8.711,0,0,0-8.668-7.558q-28.078-.023-56.156,0C3122.319-113.314,3121.993-113.277,3121.522-113.249Zm-.1,95.819h1.525l26.269,0c2.272,0,2.312,0,2.425-2.211a25.108,25.108,0,0,0-1.412-11.019c-1.252-3.047-3.1-4.256-6.371-4.258q-10.53,0-21.06,0c-.386,0-.773.04-1.288.068C3125.8-29,3125.757-23.3,3121.422-17.43Zm50.445-1.372a7.98,7.98,0,0,0-8.135-8.161,8.17,8.17,0,0,0-8,8.175,8.126,8.126,0,0,0,8.35,8.026A7.933,7.933,0,0,0,3171.867-18.8Zm1.177-15.9c3.322,5.274,3.089,11.239,3.062,17.268,1.034,0,1.9.027,2.754,0a8.8,8.8,0,0,0,8.622-7.783,8.446,8.446,0,0,0-6.7-9.4C3178.32-35.073,3175.707-34.7,3173.043-34.7ZM3155.822.4c.506-.175.89-.29,1.262-.438,1.823-.725,3.653-1.433,5.458-2.2a3.016,3.016,0,0,1,2.6-.018c1.407.638,2.86,1.175,4.3,1.743.787.311,1.582.6,2.447.926V-9.512c-5.412,3.926-10.724,3.859-16.069.02Zm-.268-28.32c4.79-3.854,9.928-4.236,15.325-1.049a6.307,6.307,0,0,0-5.938-5.933c-3.8-.044-7.61-.015-11.415-.008a2.7,2.7,0,0,0-.571.1Z" transform="translate(-3098.945 117.495)" fill="#1d272b"/>
      <path id="Trazado_163311" data-name="Trazado 163311" d="M3176.913,64.458q12.734,0,25.469,0a4.124,4.124,0,0,1,1.229.11,1.894,1.894,0,0,1,1.436,2.045,1.862,1.862,0,0,1-1.511,1.869,5.437,5.437,0,0,1-1.345.127q-25.3.006-50.6,0a6.385,6.385,0,0,1-1.349-.094,1.953,1.953,0,0,1-1.6-2.148,1.988,1.988,0,0,1,1.894-1.9c.375-.034.754-.014,1.131-.014Z" transform="translate(-3137.381 -23.228)" fill="#1d272b"/>
      <path id="Trazado_163312" data-name="Trazado 163312" d="M3176.782,108.866q-12.848,0-25.7,0c-1.5,0-2.358-.7-2.429-1.943a1.939,1.939,0,0,1,1.617-2.126,7.822,7.822,0,0,1,1.464-.084q25.13-.008,50.259,0a8.3,8.3,0,0,1,1.354.072,1.945,1.945,0,0,1,1.7,2.059,2.025,2.025,0,0,1-1.9,2.017c-.337.032-.679.012-1.019.012Z" transform="translate(-3137.391 -54.36)" fill="#1d272b"/>
      <path id="Trazado_163313" data-name="Trazado 163313" d="M3176.854,24.246q12.913,0,25.827,0c1.612,0,2.469.813,2.369,2.194a1.927,1.927,0,0,1-1.793,1.857,9.647,9.647,0,0,1-1.018.022h-50.521c-.415,0-.833.016-1.245-.021a2.027,2.027,0,0,1-.01-4.031c.449-.045.905-.027,1.358-.027Q3164.337,24.243,3176.854,24.246Z" transform="translate(-3137.393 7.872)" fill="#1d272b"/>
      <path id="Trazado_163314" data-name="Trazado 163314" d="M3226.4,149.32c-4.224,0-8.449-.009-12.673,0a1.968,1.968,0,0,1-2.059-1.442,1.863,1.863,0,0,1,.81-2.273,2.511,2.511,0,0,1,1.273-.351q12.729-.03,25.459-.009a1.972,1.972,0,0,1,2.248,1.988c.022,1.282-.809,2.073-2.272,2.078C3234.925,149.331,3230.663,149.321,3226.4,149.32Z" transform="translate(-3186.042 -85.713)" fill="#1d272b"/>
      <path id="Trazado_163315" data-name="Trazado 163315" d="M3154.54,188.06c1.848,0,3.7-.016,5.545,0a2.045,2.045,0,1,1,.022,4.073q-5.545.029-11.091,0a2.046,2.046,0,0,1-2.235-2.034,2.016,2.016,0,0,1,2.212-2.038C3150.842,188.046,3152.691,188.06,3154.54,188.06Z" transform="translate(-3135.943 -118.824)" fill="#1d272b"/>
      <path id="Trazado_163316" data-name="Trazado 163316" d="M3334.818,188.079c1.849,0,3.7-.019,5.547.006a1.961,1.961,0,0,1,2.148,2.077,1.982,1.982,0,0,1-2.139,1.987q-5.6.03-11.206,0a2.062,2.062,0,0,1-2.184-2.089,2.032,2.032,0,0,1,2.175-1.967c1.886-.029,3.773-.008,5.659-.008Z" transform="translate(-3275.315 -118.839)" fill="#1d272b"/>
    </g>
  </g>
</svg>
