<svg xmlns="http://www.w3.org/2000/svg" xmlns:xlink="http://www.w3.org/1999/xlink" width="440.875" height="366.54" viewBox="0 0 440.875 366.54">
  <defs>
    <linearGradient id="linear-gradient" x1="0.5" x2="0.5" y2="1" gradientUnits="objectBoundingBox">
      <stop offset="0" stop-color="#f5f5f5"/>
      <stop offset="0.25" stop-color="#f5f5f5"/>
      <stop offset="1" stop-color="#eeeef2"/>
    </linearGradient>
    <clipPath id="clip-path">
      <path id="Trazado_150181" data-name="Trazado 150181" d="M-2318.433,1408.422c-294.729-2.81-340.641,3.245-342.356-14.495s-11.058-254.918,59.6-267.95,257.818-23,272.145,57.119S-2318.433,1408.422-2318.433,1408.422Z" transform="translate(2662.136 -1117.15)" fill="none"/>
    </clipPath>
    <linearGradient id="linear-gradient-2" x1="0.5" x2="0.5" y2="1" gradientUnits="objectBoundingBox">
      <stop offset="0" stop-color="#f5f5f5"/>
      <stop offset="0.25" stop-color="#f5f5f5"/>
      <stop offset="1" stop-color="#a7b3cf"/>
    </linearGradient>
    <radialGradient id="radial-gradient" cx="0.5" cy="0.5" r="0.5" gradientUnits="objectBoundingBox">
      <stop offset="0" stop-color="#f5f5f5"/>
      <stop offset="0.25" stop-color="#f5f5f5"/>
      <stop offset="1" stop-color="#4c5872"/>
    </radialGradient>
  </defs>
  <g id="img9" transform="translate(0 -0.137)">
    <path id="Trazado_151846" data-name="Trazado 151846" d="M459.654,440.964c16.51-22.333,21.207-51.319,12.465-76.914-5.527-16.182-16.134-31.215-17.491-48.09-2.713-33.738,31.479-61.014,38.572-94.241,3.118-14.6-.284-31.616-13.647-40.487-13.2-8.761-32.039-6.973-46.982-.837s-27.588,15.958-41.936,23.139-32.014,11.62-47.165,5.9c-15.347-5.789-24.053-20.381-28.929-34.6s-7.27-29.368-15.592-42.252c-13.716-21.234-42.96-32.812-70.212-29.816s-51.6,19.408-64.662,40.969-15.343,47.639-8.842,71.454c3.3,12.078,8.731,23.645,11.693,35.792s3.234,25.443-3.38,36.385c-13.83,22.88-50.317,26.07-69.424,45.692-15.77,16.194-16.264,40.908-7.315,60.823s25.768,36.074,42.537,51.447c78.216,2.347,157.835,2.5,236.051,4.85C395.795,451.092,429.291,442.56,459.654,440.964Z" transform="translate(-80.961 -96.189)" fill="#a4a4b4" opacity="0.354" style="mix-blend-mode: multiply;isolation: isolate"/>
    <path id="Trazado_151847" data-name="Trazado 151847" d="M359.21,189.489c-.215,22.963,21.614,42.948,17.815,65.6-2.031,12.117-11.265,24.4-5.9,35.454,4.747,9.78,18.344,11.476,28.741,8.3,24.335-7.445,39.127-32.32,46.2-56.767,6.654-22.994,8.305-48.679-2.351-70.115-8.587-17.27-28.4-32.518-48.515-31.107C376.777,142.138,359.372,172.192,359.21,189.489Z" transform="translate(-10.513 -72.948)" fill="#a4a4b4" opacity="0.31" style="mix-blend-mode: multiply;isolation: isolate"/>
    <path id="Trazado_151848" data-name="Trazado 151848" d="M119.276,155.879c-16.255,27.121-16.989,62.867-1.858,90.63,4.781,8.773,11.239,16.948,19.958,21.826s19.967,5.966,28.645,1.016c13.161-7.508,16.072-25.215,15.024-40.332s-4.472-30.963,1.349-44.952c3.8-9.118,11.081-16.228,17.545-23.7s12.5-16.184,12.831-26.055c.866-25.589-26.3-23.677-42.673-18.363C149.195,122.742,130.608,136.972,119.276,155.879Z" transform="translate(-73.038 -92.982)" fill="#a4a4b4" opacity="0.31" style="mix-blend-mode: multiply;isolation: isolate"/>
    <g id="Grupo_107069" data-name="Grupo 107069" transform="translate(9.095 0.138)" style="mix-blend-mode: multiply;isolation: isolate">
      <path id="Trazado_151849" data-name="Trazado 151849" d="M453.487,446.115l-1.68-1.371c4.622-4.516,12-14.868,9.5-33.48-1.111-8.285-3.867-16.47-6.533-24.384-1.19-3.536-2.421-7.192-3.5-10.823-11.462-38.74-6.448-81.475,13.756-117.246,1.794-3.174,3.736-6.36,5.615-9.44,5.569-9.131,11.326-18.574,13.8-28.774,4.342-17.9-4.242-31.315-14.054-36.205-9.414-4.694-22.7-3.976-36.458,1.969-5.032,2.174-9.922,4.834-14.652,7.405-6.25,3.4-12.712,6.914-19.652,9.4-27.3,9.791-61.434,1.47-79.4-19.352-8.632-10.006-13.506-22.1-18.219-33.8-1.826-4.532-3.715-9.219-5.792-13.7-6.459-13.942-18.282-31.442-37.921-35.628-17.256-3.68-34.734,4.408-46.355,11.84-22.234,14.22-37.906,33.479-44.133,54.227-4.2,13.992-4.366,29.22-4.53,43.947-.243,21.932-.5,44.611-14.35,62.875-6.3,8.309-14.973,14.938-23.355,21.35-7.852,6-15.971,12.213-22.023,19.739C89.849,331.719,86.487,355.861,94.34,380.9c7.057,22.5,21.441,42.464,35.352,61.771l-1.912,1.1c-14-19.432-28.48-39.527-35.629-62.322-8.041-25.64-4.554-50.415,9.566-67.971,6.213-7.725,14.437-14.014,22.39-20.1,8.27-6.324,16.822-12.864,22.952-20.945,13.471-17.757,13.708-39.128,13.959-61.754.165-14.854.335-30.214,4.61-44.455,6.361-21.2,22.345-40.858,45-55.354,12.005-7.678,30.114-16.021,48.207-12.163,20.573,4.385,32.833,22.448,39.494,36.828,2.1,4.528,4,9.238,5.831,13.792,4.654,11.547,9.465,23.489,17.88,33.243,17.362,20.128,50.358,28.171,76.749,18.707,6.763-2.425,13.145-5.9,19.317-9.251,4.775-2.6,9.712-5.283,14.842-7.5,14.43-6.236,28.483-6.937,38.556-1.915,10.522,5.245,19.758,19.5,15.17,38.412-2.545,10.486-8.382,20.059-14.029,29.317-1.87,3.066-3.8,6.236-5.581,9.382-19.957,35.333-24.909,77.545-13.587,115.81,1.064,3.6,2.29,7.237,3.474,10.758,2.693,8,5.478,16.267,6.615,24.728C466.174,430.439,458.37,441.344,453.487,446.115Z" transform="translate(-87.906 -97.739)" fill="#a4a4b4"/>
    </g>
    <g id="Grupo_127506" data-name="Grupo 127506" transform="translate(27.436 11.548)">
      <g id="Grupo_91555" data-name="Grupo 91555" transform="translate(0 0)">
        <path id="Trazado_150481" data-name="Trazado 150481" d="M593.251,565.023a21.294,21.294,0,0,1,21.294-21.294H795.632a18.761,18.761,0,0,1,18.736,17.807l13.367,262.542a13.835,13.835,0,0,1-13.565,14.536l-207.549,3.772a13.132,13.132,0,0,1-13.371-13.13Z" transform="translate(-593.251 -503.966)" fill="#2a383e"/>
        <path id="Trazado_150482" data-name="Trazado 150482" d="M663.922,1867.729h-.007l-23.223-.3a14.322,14.322,0,0,1-14.083-14.266V1818.1a.5.5,0,1,1,.992,0v35.063a13.327,13.327,0,0,0,13.1,13.275l23.223.3a.5.5,0,0,1-.006.992Z" transform="translate(-620.218 -1533.774)" fill="#5c5e61"/>
        <path id="Trazado_150483" data-name="Trazado 150483" d="M627.1,1737.949a.5.5,0,0,1-.5-.5v-5.679a.5.5,0,1,1,.992,0v5.679A.5.5,0,0,1,627.1,1737.949Z" transform="translate(-620.218 -1463.988)" fill="#5c5e61"/>
        <g id="Grupo_91553" data-name="Grupo 91553" transform="translate(14.835 37.577)">
          <path id="Trazado_150484" data-name="Trazado 150484" d="M670.682,538.549a6.185,6.185,0,0,1,7.015-6.169c24.729,3.354,109.766,13.725,180.073,8.328a5.72,5.72,0,0,1,6.159,5.394l14.016,263.712a6.582,6.582,0,0,1-6.184,6.922c-29.57,1.75-151.349,8.515-194.785,3.965a5.215,5.215,0,0,1-4.666-5.161Z" transform="translate(-670.682 -532.323)" fill="#a4a4b4"/>
          <path id="Trazado_150485" data-name="Trazado 150485" d="M685.885,574.031a5.953,5.953,0,0,1,6.751-5.937c23.8,3.227,105.633,13.209,173.293,8.015a5.5,5.5,0,0,1,5.927,5.191l13.488,253.782a6.334,6.334,0,0,1-5.951,6.661c-28.456,1.684-145.649,8.194-187.45,3.816a5.018,5.018,0,0,1-4.49-4.966Z" transform="translate(-682.973 -561.196)" fill="url(#linear-gradient)"/>
          <g id="Grupo_91552" data-name="Grupo 91552" transform="translate(16.08 29.067)">
            <g id="Grupo_91531" data-name="Grupo 91531" transform="translate(14.768)" opacity="0.75">
              <path id="Trazado_150486" data-name="Trazado 150486" d="M831.8,689.924c.394,2.075,1.75,3.515,3.295,3.5l125.854-1.491c1.424-.017,2.563-1.649,2.532-3.627-.03-1.923-1.157-3.463-2.542-3.472l-125.857-.8C832.859,684.019,831.232,686.938,831.8,689.924Z" transform="translate(-831.686 -684.033)" fill="#2a383e"/>
            </g>
            <g id="Grupo_91536" data-name="Grupo 91536" transform="translate(0 20.996)">
              <g id="Grupo_91532" data-name="Grupo 91532" transform="translate(30.14)" opacity="0.6">
                <path id="Trazado_150487" data-name="Trazado 150487" d="M911.968,797.644c.163,1.418.723,2.4,1.36,2.389l51.959-1.019c.588-.012,1.058-1.126,1.045-2.478-.013-1.314-.478-2.366-1.049-2.372l-51.961-.545C912.406,793.61,911.734,795.6,911.968,797.644Z" transform="translate(-911.922 -793.62)" fill="#2a383e"/>
              </g>
              <g id="Grupo_91533" data-name="Grupo 91533" transform="translate(29.317 17.252)" opacity="0.6">
                <path id="Trazado_150488" data-name="Trazado 150488" d="M907.706,887.688a2.684,2.684,0,0,0,2.427,2.389l92.71-1.018a2.225,2.225,0,0,0,1.865-2.478,2.195,2.195,0,0,0-1.872-2.372l-92.712-.545C908.487,883.654,907.289,885.649,907.706,887.688Z" transform="translate(-907.623 -883.664)" fill="#2a383e"/>
              </g>
              <g id="Grupo_91534" data-name="Grupo 91534" transform="translate(28.754 34.897)" opacity="0.6">
                <path id="Trazado_150489" data-name="Trazado 150489" d="M904.779,979.784a2.91,2.91,0,0,0,2.759,2.389l105.386-1.019a2.446,2.446,0,0,0-.008-4.849l-105.389-.545C905.666,975.75,904.3,977.745,904.779,979.784Z" transform="translate(-904.684 -975.76)" fill="#2a383e"/>
              </g>
              <g id="Grupo_91535" data-name="Grupo 91535" transform="translate(0 7.821)">
                <path id="Trazado_150490" data-name="Trazado 150490" d="M772.248,875.034h-.035L759.3,874.91a3.471,3.471,0,0,1-3.543-2.952l-1.135-10.835a2.354,2.354,0,0,1,.556-1.771,2.837,2.837,0,0,1,1.976-.975h0c1.088-.074,2.62-.2,4.242-.343,3.415-.291,7.666-.653,10.058-.683a3.609,3.609,0,0,1,3.616,2.529c.673,2.487.614,7.2.485,12.211A3.191,3.191,0,0,1,772.248,875.034Zm-15.027-15.667a1.837,1.837,0,0,0-1.284.623,1.37,1.37,0,0,0-.329,1.029l1.135,10.835a2.484,2.484,0,0,0,2.566,2.065l12.914.124h.026a2.2,2.2,0,0,0,2.316-1.976c.126-4.94.186-9.568-.452-11.927a2.665,2.665,0,0,0-2.646-1.8c-2.356.03-6.587.39-9.986.679-1.626.139-3.163.269-4.259.344Z" transform="translate(-754.608 -852.962)" fill="#fff"/>
                <path id="Trazado_150491" data-name="Trazado 150491" d="M768.471,868.046c2.713-.186,8.609-.784,11.405-.819a2.5,2.5,0,0,1,2.5,1.729c.539,2,.468,5.973.375,9.644a2.149,2.149,0,0,1-2.271,1.965l-10.319-.1a2.384,2.384,0,0,1-2.441-2l-.907-8.658A1.676,1.676,0,0,1,768.471,868.046Z" transform="translate(-764.469 -860.945)" fill="#fff" opacity="0.75"/>
                <path id="Trazado_150492" data-name="Trazado 150492" d="M774.048,843.663h0a1.982,1.982,0,0,1,2.734.744l2.547,4.566a.637.637,0,0,0,1.136-.049l6.318-14.065a.705.705,0,0,1,1.348.3,27.769,27.769,0,0,1-8.08,19.325s-3.788-1.472-6.839-8.171A2.079,2.079,0,0,1,774.048,843.663Z" transform="translate(-769.496 -834.441)" fill="#008f85"/>
              </g>
            </g>
            <g id="Grupo_91541" data-name="Grupo 91541" transform="translate(0.618 81.743)">
              <g id="Grupo_91537" data-name="Grupo 91537" transform="translate(30.14)" opacity="0.6">
                <path id="Trazado_150493" data-name="Trazado 150493" d="M915.269,1114.7a3.565,3.565,0,0,0,3.518,2.389l134.371-1.019a2.439,2.439,0,1,0-.011-4.849l-134.375-.545C916.4,1110.668,914.664,1112.663,915.269,1114.7Z" transform="translate(-915.148 -1110.678)" fill="#2a383e"/>
              </g>
              <g id="Grupo_91538" data-name="Grupo 91538" transform="translate(29.317 17.252)" opacity="0.6">
                <path id="Trazado_150494" data-name="Trazado 150494" d="M910.9,1204.746c.191,1.418.85,2.4,1.6,2.389l61.139-1.019c.692-.012,1.245-1.126,1.23-2.478-.015-1.314-.562-2.366-1.235-2.372l-61.141-.545C911.419,1200.713,910.629,1202.707,910.9,1204.746Z" transform="translate(-910.849 -1200.722)" fill="#2a383e"/>
              </g>
              <g id="Grupo_91539" data-name="Grupo 91539" transform="translate(28.754 34.897)" opacity="0.6">
                <path id="Trazado_150495" data-name="Trazado 150495" d="M908,1296.843a2.911,2.911,0,0,0,2.759,2.388l105.387-1.019a2.446,2.446,0,0,0-.009-4.849l-105.389-.545C908.892,1292.809,907.53,1294.8,908,1296.843Z" transform="translate(-907.91 -1292.818)" fill="#2a383e"/>
              </g>
              <g id="Grupo_91540" data-name="Grupo 91540" transform="translate(0 7.821)">
                <path id="Trazado_150496" data-name="Trazado 150496" d="M775.474,1192.092h-.035l-12.914-.124a3.471,3.471,0,0,1-3.543-2.953l-1.135-10.834a2.355,2.355,0,0,1,.556-1.771,2.837,2.837,0,0,1,1.976-.975h0c1.088-.074,2.62-.2,4.242-.343,3.416-.292,7.666-.653,10.058-.682a3.608,3.608,0,0,1,3.616,2.529c.673,2.487.614,7.2.486,12.211A3.191,3.191,0,0,1,775.474,1192.092Zm-15.027-15.668a1.838,1.838,0,0,0-1.285.624,1.369,1.369,0,0,0-.329,1.029l1.135,10.835a2.484,2.484,0,0,0,2.566,2.064l12.913.124h.026a2.2,2.2,0,0,0,2.316-1.976c.126-4.94.186-9.568-.452-11.927a2.664,2.664,0,0,0-2.646-1.8c-2.356.03-6.587.39-9.986.679-1.627.139-3.163.27-4.259.344Z" transform="translate(-757.835 -1170.021)" fill="#fff"/>
                <path id="Trazado_150497" data-name="Trazado 150497" d="M771.7,1185.1c2.713-.185,8.609-.784,11.405-.819a2.5,2.5,0,0,1,2.5,1.729c.54,2,.468,5.973.375,9.644a2.149,2.149,0,0,1-2.271,1.966l-10.319-.1a2.384,2.384,0,0,1-2.441-2l-.907-8.658A1.676,1.676,0,0,1,771.7,1185.1Z" transform="translate(-767.695 -1178.003)" fill="#fff" opacity="0.75"/>
                <path id="Trazado_150498" data-name="Trazado 150498" d="M777.274,1160.722h0a1.982,1.982,0,0,1,2.734.743l2.547,4.566a.637.637,0,0,0,1.136-.049l6.318-14.065a.705.705,0,0,1,1.348.3,27.766,27.766,0,0,1-8.08,19.325s-3.788-1.472-6.839-8.171A2.079,2.079,0,0,1,777.274,1160.722Z" transform="translate(-772.723 -1151.5)" fill="#008f85"/>
              </g>
            </g>
            <g id="Grupo_91546" data-name="Grupo 91546" transform="translate(0.392 141.481)">
              <g id="Grupo_91542" data-name="Grupo 91542" transform="translate(30.14)" opacity="0.6">
                <path id="Trazado_150499" data-name="Trazado 150499" d="M914.088,1426.5a3.565,3.565,0,0,0,3.517,2.388l134.371-1.019a2.44,2.44,0,1,0-.011-4.849l-134.375-.545C915.219,1422.464,913.483,1424.459,914.088,1426.5Z" transform="translate(-913.967 -1422.474)" fill="#2a383e"/>
              </g>
              <g id="Grupo_91543" data-name="Grupo 91543" transform="translate(29.317 17.252)" opacity="0.6">
                <path id="Trazado_150500" data-name="Trazado 150500" d="M909.751,1516.542a2.683,2.683,0,0,0,2.427,2.388l92.71-1.019a2.225,2.225,0,0,0,1.865-2.478,2.195,2.195,0,0,0-1.872-2.371l-92.712-.545C910.532,1512.508,909.334,1514.5,909.751,1516.542Z" transform="translate(-909.668 -1512.518)" fill="#2a383e"/>
              </g>
              <g id="Grupo_91544" data-name="Grupo 91544" transform="translate(28.754 34.897)" opacity="0.6">
                <path id="Trazado_150501" data-name="Trazado 150501" d="M906.777,1608.638c.169,1.418.752,2.4,1.416,2.389l54.093-1.019c.612-.011,1.1-1.126,1.088-2.478-.013-1.313-.5-2.365-1.092-2.371l-54.095-.545C907.233,1604.6,906.534,1606.6,906.777,1608.638Z" transform="translate(-906.728 -1604.614)" fill="#2a383e"/>
              </g>
              <g id="Grupo_91545" data-name="Grupo 91545" transform="translate(0 7.821)">
                <path id="Trazado_150502" data-name="Trazado 150502" d="M774.292,1503.889h-.036l-12.914-.124a3.471,3.471,0,0,1-3.543-2.953l-1.135-10.835a2.356,2.356,0,0,1,.556-1.771,2.838,2.838,0,0,1,1.976-.975h0c1.088-.074,2.62-.2,4.242-.343,3.416-.291,7.666-.653,10.058-.683a3.61,3.61,0,0,1,3.616,2.53c.673,2.487.614,7.2.486,12.211A3.192,3.192,0,0,1,774.292,1503.889Zm-15.027-15.667a1.836,1.836,0,0,0-1.284.624,1.37,1.37,0,0,0-.329,1.029l1.135,10.835a2.484,2.484,0,0,0,2.566,2.064l12.914.124h.026a2.2,2.2,0,0,0,2.316-1.976c.126-4.939.186-9.568-.452-11.927a2.665,2.665,0,0,0-2.646-1.8c-2.356.029-6.587.39-9.986.679-1.626.139-3.163.269-4.259.344Z" transform="translate(-756.653 -1481.816)" fill="#fff"/>
                <path id="Trazado_150503" data-name="Trazado 150503" d="M770.516,1496.9c2.713-.185,8.609-.784,11.405-.819a2.5,2.5,0,0,1,2.5,1.728c.54,2,.468,5.973.374,9.645a2.148,2.148,0,0,1-2.271,1.965l-10.32-.1a2.384,2.384,0,0,1-2.441-2l-.907-8.658A1.676,1.676,0,0,1,770.516,1496.9Z" transform="translate(-766.514 -1489.799)" fill="#fff" opacity="0.75"/>
                <path id="Trazado_150504" data-name="Trazado 150504" d="M776.093,1472.517h0a1.982,1.982,0,0,1,2.734.744l2.547,4.566a.636.636,0,0,0,1.136-.05l6.318-14.064a.705.705,0,0,1,1.349.3,27.769,27.769,0,0,1-8.08,19.325s-3.788-1.473-6.839-8.172A2.079,2.079,0,0,1,776.093,1472.517Z" transform="translate(-771.541 -1463.296)" fill="#008f85"/>
              </g>
            </g>
            <g id="Grupo_91551" data-name="Grupo 91551" transform="translate(0.015 204.927)">
              <g id="Grupo_91547" data-name="Grupo 91547" transform="translate(30.14)" opacity="0.6">
                <path id="Trazado_150505" data-name="Trazado 150505" d="M912.123,1757.642a3.565,3.565,0,0,0,3.518,2.388l134.371-1.019a2.44,2.44,0,1,0-.011-4.849l-134.375-.545C913.254,1753.608,911.518,1755.6,912.123,1757.642Z" transform="translate(-912.002 -1753.618)" fill="#2a383e"/>
              </g>
              <g id="Grupo_91548" data-name="Grupo 91548" transform="translate(29.317 17.252)" opacity="0.6">
                <path id="Trazado_150506" data-name="Trazado 150506" d="M907.787,1847.686a2.683,2.683,0,0,0,2.427,2.388l92.71-1.018a2.226,2.226,0,0,0,1.865-2.478,2.195,2.195,0,0,0-1.872-2.372l-92.712-.545C908.567,1843.652,907.37,1845.647,907.787,1847.686Z" transform="translate(-907.703 -1843.662)" fill="#2a383e"/>
              </g>
              <g id="Grupo_91549" data-name="Grupo 91549" transform="translate(28.754 34.897)" opacity="0.6">
                <path id="Trazado_150507" data-name="Trazado 150507" d="M904.84,1939.783c.265,1.417,1.177,2.4,2.215,2.388l84.6-1.019c.957-.011,1.723-1.125,1.7-2.477-.021-1.313-.778-2.365-1.709-2.371l-84.606-.545C905.552,1935.749,904.459,1937.742,904.84,1939.783Z" transform="translate(-904.764 -1935.758)" fill="#fff"/>
              </g>
              <g id="Grupo_91550" data-name="Grupo 91550" transform="translate(0 7.821)">
                <path id="Trazado_150508" data-name="Trazado 150508" d="M772.328,1835.032h-.035l-12.914-.124a3.471,3.471,0,0,1-3.543-2.952l-1.135-10.835a2.354,2.354,0,0,1,.556-1.771,2.835,2.835,0,0,1,1.976-.975h0c1.088-.074,2.62-.2,4.242-.343,3.415-.291,7.666-.653,10.058-.683a3.608,3.608,0,0,1,3.616,2.529c.673,2.487.614,7.2.486,12.211A3.191,3.191,0,0,1,772.328,1835.032ZM757.3,1819.365a1.839,1.839,0,0,0-1.284.624,1.371,1.371,0,0,0-.329,1.029l1.135,10.835a2.483,2.483,0,0,0,2.566,2.064l12.913.124h.026a2.2,2.2,0,0,0,2.316-1.975c.126-4.94.186-9.568-.452-11.927a2.665,2.665,0,0,0-2.646-1.8c-2.356.03-6.587.39-9.986.679-1.626.138-3.163.269-4.259.344Z" transform="translate(-754.689 -1812.961)" fill="#fff"/>
                <path id="Trazado_150509" data-name="Trazado 150509" d="M768.551,1828.044c2.713-.186,8.609-.784,11.406-.819a2.5,2.5,0,0,1,2.5,1.729c.54,2,.468,5.973.375,9.644a2.148,2.148,0,0,1-2.271,1.965l-10.319-.1a2.384,2.384,0,0,1-2.441-2l-.907-8.659A1.676,1.676,0,0,1,768.551,1828.044Z" transform="translate(-764.549 -1820.944)" fill="#fff" opacity="0.75"/>
                <path id="Trazado_150510" data-name="Trazado 150510" d="M774.128,1803.662h0a1.981,1.981,0,0,1,2.734.744l2.547,4.566a.637.637,0,0,0,1.137-.05l6.318-14.065a.705.705,0,0,1,1.348.305,27.769,27.769,0,0,1-8.08,19.324s-3.788-1.472-6.839-8.171A2.079,2.079,0,0,1,774.128,1803.662Z" transform="translate(-769.577 -1794.44)" fill="#008f85"/>
              </g>
            </g>
          </g>
        </g>
        <path id="Trazado_150511" data-name="Trazado 150511" d="M1143.023,340.16c-6.541-4.551-12.229-4.461-16.232-3.279a7.985,7.985,0,0,0-5.672,8.4l1.727,18.846,20.547,1.823S1155.852,349.085,1143.023,340.16Zm-9.036,15.2a5.123,5.123,0,1,1,5.123-5.123A5.123,5.123,0,0,1,1133.987,355.365Z" transform="translate(-1019.955 -336.194)" fill="#333435"/>
        <g id="Grupo_91554" data-name="Grupo 91554" transform="translate(103.67 2.76)">
          <path id="Trazado_150512" data-name="Trazado 150512" d="M1135.615,367.84a.5.5,0,0,1-.493-.451l-.275-3a.5.5,0,1,1,.988-.09l.275,3a.5.5,0,0,1-.449.539Zm-.539-5.882a.5.5,0,0,1-.493-.451l-.209-2.279a7.623,7.623,0,0,1,5.4-8,15.358,15.358,0,0,1,7.51-.308.5.5,0,0,1-.2.971,14.39,14.39,0,0,0-7.029.288,6.629,6.629,0,0,0-4.7,6.957l.209,2.278a.5.5,0,0,1-.448.539Z" transform="translate(-1134.342 -350.598)" fill="#5c5e61"/>
        </g>
        <path id="Trazado_150513" data-name="Trazado 150513" d="M983.911,481.162v-9.476a5.782,5.782,0,0,1,5.98-5.779l65.329,2.238a5.624,5.624,0,0,1,5.421,5.283l.546,9.1Z" transform="translate(-909.062 -441.052)" fill="#333435"/>
        <path id="Trazado_150514" data-name="Trazado 150514" d="M1097.105,480.374H1094.3a.5.5,0,1,1,0-.992h2.809a.5.5,0,1,1,0,.992Z" transform="translate(-997.897 -451.948)" fill="#5c5e61"/>
        <path id="Trazado_150515" data-name="Trazado 150515" d="M1000.275,489.082a.5.5,0,0,1-.5-.5v-3.833a5.377,5.377,0,0,1,5.371-5.371h10.329a.5.5,0,1,1,0,.992H1005.15a4.385,4.385,0,0,0-4.38,4.379v3.833A.5.5,0,0,1,1000.275,489.082Z" transform="translate(-921.89 -451.948)" fill="#5c5e61"/>
        <path id="Trazado_150516" data-name="Trazado 150516" d="M843.892,533.286a6.156,6.156,0,0,1,6.149-5.86l114.239,0a8.444,8.444,0,0,1,8.32,7l.1.558a7.252,7.252,0,0,1-7.145,8.488h-117.2a4.714,4.714,0,0,1-4.709-4.941Z" transform="translate(-795.662 -490.784)" fill="#333435"/>
      </g>
    </g>
    <g id="Grupo_127507" data-name="Grupo 127507" transform="translate(239.041 219.998)">
      <g id="Grupo_90349" data-name="Grupo 90349" transform="translate(0.903 94.115)" opacity="0.18" style="mix-blend-mode: multiply;isolation: isolate">
        <path id="Trazado_149749" data-name="Trazado 149749" d="M1941.321,490.727c-3.3-.828-6.832.133-10.062-1.076a5.563,5.563,0,0,1-2.248-1.5,10.247,10.247,0,0,1-1.485-2.779c-.562-1.293-1.491-2.8-2.9-3.194.038-.177.075-.353.108-.527-3.763-.844-7.117-2.918-10.687-4.378a34.4,34.4,0,0,0-18.1-2.151,13.765,13.765,0,0,0-4.277,1.24.234.234,0,0,0-.131.006c-2.8.982-5.481-.734-7.925-1.875a9.958,9.958,0,0,0-3.885-1.078,5.022,5.022,0,0,0-3.473,1.116,4.9,4.9,0,0,0-1.54,2.852,5.658,5.658,0,0,0,.455,3.331,7.581,7.581,0,0,0,2.272,2.783,12.487,12.487,0,0,0,3.582,1.824c2.416.851,5.148,1.422,6.985,3.35a5.7,5.7,0,0,1,.582.719.25.25,0,0,0,.072.069c-.068.129-.127.262-.2.388,3.212.48,5.654,2.135,8.684,3.3,6.933,2.667,15.145.348,21.867,3.506l.017-.046a22.8,22.8,0,0,0,5.227.9,49.476,49.476,0,0,0,6.233.124,110.339,110.339,0,0,0,12.676-1.374,2.346,2.346,0,0,0,1.978-1.082,2.237,2.237,0,0,0-.09-1.834A5.318,5.318,0,0,0,1941.321,490.727Zm-58.558-5.36a21.464,21.464,0,0,1-3.89-1.523,7.974,7.974,0,0,1-2.668-2.336,5.547,5.547,0,0,1-1.072-3.173,4.677,4.677,0,0,1,1.019-2.959c1.748-2.1,4.7-1.43,6.864-.447,2.459,1.117,4.965,2.8,7.8,2.268a2.912,2.912,0,0,0,.3-.082c0,.152,0,.3-.007.455-.02.726-.065,1.461-.133,2.2-.008.1-.018.2-.028.3a42.7,42.7,0,0,1-.815,5.016c-.019.1-.043.2-.065.294-.026.116-.052.23-.08.345a17.247,17.247,0,0,1-1.031,3.175c-.014.031-.032.059-.047.09C1887.449,486.988,1885.035,486.1,1882.763,485.366Zm60.41,10.275c-3.9.519-7.8,1.041-11.725,1.25a53.4,53.4,0,0,1-6.587-.025c-1.118-.079-2.236-.19-3.345-.361-.771-.118-1.534-.269-2.3-.381.034-.091.066-.182.1-.272.338-.848.731-1.69,1.139-2.526.118-.242.239-.485.358-.725.421-.848.846-1.689,1.235-2.523.339-.73.663-1.509.964-2.316.069-.188.14-.379.206-.57a39.958,39.958,0,0,0,1.31-4.564c1.39.343,2.213,2.063,2.7,3.282a7.108,7.108,0,0,0,2.6,3.673c2.649,1.681,5.954,1.188,8.921,1.325a8.668,8.668,0,0,1,4.725,1.321,2.972,2.972,0,0,1,1.278,1.882C1944.918,495.165,1944.062,495.523,1943.173,495.642Z" transform="translate(-1874.636 -461.171)" fill="#757575"/>
        <path id="Trazado_149750" data-name="Trazado 149750" d="M2115.432,463.308c1.864-.288,3.7-.667,5.582-.871,1.82-.2,3.65-.31,5.48-.339a59.781,59.781,0,0,1,11.892,1.01c.116.135.241.271.345.406,2.917-.776,6.568-.5,10.11-.751,8.108-.577,11.63-4.953,20.128-5.126-.087-.082-.171-.165-.256-.248a1.8,1.8,0,0,0,1.352-1.252,9.893,9.893,0,0,1,.5-1.451,2.96,2.96,0,0,1,1.232-1.191,2.856,2.856,0,0,1,1.588-.3c.6.058,1.178.262,1.783.3a1.821,1.821,0,0,0,1.949-1.136c.216-.869-.542-1.5-1.243-1.824a29.078,29.078,0,0,0-3.344-1.167q-3.751-1.211-7.587-2.137-2.088-.5-4.193-.917c-.716-.142-1.434-.278-2.155-.4a12.656,12.656,0,0,0-1.9-.244l-.132-.1c-3.731.72-8.525.471-12.8.709-6.81.381-12.343,2.042-15.826,4.749a4.015,4.015,0,0,0-1.861,2.7c.111.068.222.137.333.206a28.2,28.2,0,0,1-7.457,1.608c-2.685.368-6.023.956-7.638,3.4a2.746,2.746,0,0,0,.1,3.467A4.45,4.45,0,0,0,2115.432,463.308Zm44.413-16.688q1.719.337,3.426.73,3.329.767,6.606,1.737,1.681.5,3.343,1.049.791.262,1.576.537a4.847,4.847,0,0,1,1.36.619.874.874,0,0,1,.382,1.125,1.449,1.449,0,0,1-1.291.6c-.993-.013-1.882-.461-2.888-.236a3.549,3.549,0,0,0-2.184,1.525c-.44.687-.623,2.952-1.876,2.46a.216.216,0,0,0-.2.016c-.61-.618-1.19-1.245-1.75-1.876-.18-.2-.361-.408-.539-.611-.628-.716-1.248-1.428-1.886-2.123-.557-.608-1.183-1.245-1.855-1.891-.157-.15-.317-.3-.479-.455-1.337-1.254-2.827-2.529-4.31-3.7.281.057.565.1.846.157Zm-48.27,13.083c1.262-2.609,4.845-3.167,7.4-3.538,2.652-.385,5.591-.539,7.958-1.908.042.026.086.052.127.079.792.5,1.575,1.007,2.342,1.527.105.07.21.141.313.212,1.752,1.2,3.431,2.441,4.965,3.659.094.073.188.148.278.22l.323.26a28.611,28.611,0,0,1,2.561,2.29,60.845,60.845,0,0,0-19.356-.22c-.87.131-1.734.289-2.6.448a6.6,6.6,0,0,1-2.62.1A2.185,2.185,0,0,1,2111.576,459.7Z" transform="translate(-2006.951 -445.57)" fill="#757575"/>
        <path id="Trazado_149751" data-name="Trazado 149751" d="M2117.216,527.647c-1.393-.676-3.053-.406-4.534-.733a10.71,10.71,0,0,1-4.424-2.172,11.85,11.85,0,0,1-3.025-3.715,13.146,13.146,0,0,1-1.151-3.857l.279-.172a4.467,4.467,0,0,0-2.069-3c-3.875-3.012-10.031-4.86-17.607-5.283-4.753-.266-10.085.011-14.237-.789l-.085.066a.182.182,0,0,0-.215-.134,20.127,20.127,0,0,0-4.387,1.377c-1.436.551-2.848,1.158-4.292,1.692a30.073,30.073,0,0,1-4.113,1.234,6.852,6.852,0,0,0-6.258-2.31c-.871.148-2.431.672-2.009,1.867.389,1.1,2.217,1.27,3.17,1.388a15.466,15.466,0,0,0,4.894-.24c.107.144.217.285.31.438a7.393,7.393,0,0,1,.315,6.794.31.31,0,0,0-.025.157c-.125.129-.245.259-.373.387-.24.239-.484.475-.734.71,9.454.194,13.372,5.062,22.392,5.7,3.941.281,8-.028,11.249.835.115-.15.237-.3.364-.451,1.632,1.069,3.708.934,5.552.58a24.725,24.725,0,0,1,3.7-.606,8.038,8.038,0,0,1,3.3.609c3.608,1.438,6.448,4.714,10.5,5a4.694,4.694,0,0,0,4.335-1.813A2.346,2.346,0,0,0,2117.216,527.647Zm-63.549-15.092a12.05,12.05,0,0,1-2.144-.217,3.926,3.926,0,0,1-1.581-.524c-.685-.505-.115-1.029.467-1.237a5.068,5.068,0,0,1,1.611-.277,6.381,6.381,0,0,1,4.656,2A15.9,15.9,0,0,1,2053.667,512.554Zm4.108.177a28.826,28.826,0,0,0,3.545-1.069c1.5-.551,2.969-1.172,4.444-1.78,1.37-.565,2.788-1.007,4.162-1.555l-.152.117c-1.69,1.327-3.4,2.783-4.92,4.214-.181.168-.359.339-.532.506-.749.72-1.445,1.427-2.065,2.1-.71.774-1.4,1.566-2.1,2.362-.2.226-.4.454-.6.68q-.417.47-.851.938A7.846,7.846,0,0,0,2057.775,512.732Zm59.33,18.717c-1.385,1.343-3.53,1.207-5.239.663-3.614-1.152-6.293-4.294-10.056-5.079-1.979-.413-3.9.113-5.837.48a6.968,6.968,0,0,1-4.959-.485l.033-.039a30.131,30.131,0,0,1,3.072-2.774l.359-.289c.1-.081.205-.164.31-.245,1.706-1.356,3.572-2.738,5.523-4.071l.346-.236q1.283-.868,2.606-1.7l.321-.2a9.521,9.521,0,0,0,1.046,3.753,11.886,11.886,0,0,0,3.158,3.98,11.36,11.36,0,0,0,3.976,2.129,10.332,10.332,0,0,0,2.236.393,13.541,13.541,0,0,1,2.308.229,2,2,0,0,1,1.634,1.4A2.385,2.385,0,0,1,2117.1,531.449Z" transform="translate(-1972.357 -480.472)" fill="#757575"/>
        <path id="Trazado_149752" data-name="Trazado 149752" d="M2246.823,498.228a.169.169,0,0,0-.007-.03v0c-.131-.644-.939-.873-1.6-.944a36.9,36.9,0,0,0-11.663.615,5.326,5.326,0,0,1-3.852-.15c.2-.007.391-.022.586-.032l-.009.005c.143-.007.286-.02.429-.028.3-.018.6-.036.9-.06.219-.017.439-.038.66-.059.3-.027.6-.055.892-.088.227-.026.453-.055.679-.084.289-.037.578-.072.866-.114.236-.034.473-.074.709-.112.277-.045.554-.088.83-.137.251-.045.5-.1.75-.144s.521-.1.78-.155c.274-.058.547-.124.819-.187.235-.054.47-.105.7-.163.315-.078.63-.164.943-.249.19-.051.38-.1.568-.151q.754-.213,1.5-.451a4.147,4.147,0,0,0,1-.423,1.783,1.783,0,0,0,.28-.222,1.331,1.331,0,0,0,.362-.624.921.921,0,0,0-.08-.686.888.888,0,0,0-.228-.253s-.008-.012-.014-.016l0,0a1.877,1.877,0,0,0-.717-.312,11.2,11.2,0,0,0-4.961.464,42.1,42.1,0,0,1-9.134,1.016c.253-.11.513-.205.771-.3.174-.065.349-.131.524-.19s.382-.121.573-.178c.166-.05.331-.1.5-.146.225-.06.453-.11.681-.161.137-.03.272-.065.41-.092.369-.072.74-.133,1.113-.179a8.664,8.664,0,0,0,3.657-.866,1.607,1.607,0,0,0,.649-.682.915.915,0,0,0,.066-.231,1.017,1.017,0,0,0,0-.109.97.97,0,0,0,0-.13.769.769,0,0,0-.048-.166c-.008-.019-.008-.041-.017-.06a.655.655,0,0,0-.1-.139c-.014-.015-.021-.036-.036-.05h0a1.081,1.081,0,0,0-.662-.229,5.717,5.717,0,0,0-1.226.054l.012,0c-.036,0-.071.012-.105.017-.232.033-.46.07-.689.109h0c-.409.071-.831.183-1.256.292a7.039,7.039,0,0,1-2.117.309c-5.33-.323-10.533,1.282-15.416,3.447-1.347.6-2.909.041-4.379.143-.06.055-.128.128-.2.209l-.061.071c-.057.067-.115.139-.174.216-.019.025-.038.048-.057.073-.079.1-.157.212-.233.323-.008.011-.014.021-.021.032-.068.1-.132.2-.192.3-.008.015-.019.029-.028.043h0a2.958,2.958,0,0,0-.29.6,21.774,21.774,0,0,0-1.132,5.56,5.367,5.367,0,0,0,.058.946l0,0c0,.02.01.038.013.058.025.152.058.3.1.447.008.032.016.066.026.1a3.772,3.772,0,0,0,.18.492c.012.024.025.047.037.071a2.919,2.919,0,0,0,.217.379c.025.038.05.076.077.113a2.816,2.816,0,0,0,.338.392c.887-.2,1.729-.56,2.605-.8a4.431,4.431,0,0,1,1.369-.143,4.683,4.683,0,0,1,1.354.268,18.693,18.693,0,0,0,6.1,3.1q.349.084.7.147c1.173.212,2.371.274,3.557.422.474.059.945.132,1.412.234a16.174,16.174,0,0,1,3.014,1.017c.487.213.969.441,1.449.674s.958.472,1.436.706a2.532,2.532,0,0,0,.332.141.8.8,0,0,0,.347.04h0a.626.626,0,0,0,.268-.1.78.78,0,0,0,.073-.064.97.97,0,0,0,.133-.139,1.143,1.143,0,0,0,.063-.1,1.455,1.455,0,0,0,.083-.166c.016-.04.029-.077.042-.119.007-.022.018-.043.023-.065l-.007,0a1.523,1.523,0,0,0,.044-.192c.2-1.619-1.294-2.945-2.776-3.625s-3.177-1.09-4.265-2.3c.14-.024.32-.063.5-.1.1-.02.207-.036.311-.051.046-.007.094-.014.139-.018a1.665,1.665,0,0,1,.378-.007l4.952.672a51.933,51.933,0,0,0,8.865.691c.08,0,.16-.007.242-.014a3.071,3.071,0,0,0,.724-.133,1.2,1.2,0,0,0,.717-.549.929.929,0,0,0,.092-.278c0-.024.008-.048.01-.072a1.071,1.071,0,0,0,0-.277s0-.008,0-.012a1.244,1.244,0,0,0-.086-.288c-.008-.022-.018-.042-.027-.064a1.528,1.528,0,0,0-.146-.252l-.006-.011h0a1.527,1.527,0,0,0-.337-.337,3.6,3.6,0,0,0-1.729-.511c-4.177-.462-8.407-.417-12.364-1.834.258-.059.515-.1.774-.141.169-.025.34-.043.511-.061.115-.012.23-.025.347-.034.174-.013.35-.022.527-.03.112,0,.222-.009.333-.012q.275-.006.55-.005l.307,0q.3,0,.6.013l.208.007c.426.015.851.033,1.276.05l.061,0c.227.009.454.015.682.021l.262.007c.3,0,.594.006.891,0,1.11-.024,2.216-.145,3.32-.267l3.075-.339a6.193,6.193,0,0,0,2.358-.581,1.721,1.721,0,0,0,.7-.679A.875.875,0,0,0,2246.823,498.228Z" transform="translate(-2062.189 -470.768)" fill="#757575"/>
      </g>
      <g id="Grupo_90350" data-name="Grupo 90350" transform="translate(66.96 0)">
        <path id="Trazado_149753" data-name="Trazado 149753" d="M2046.585,358.66c-4.909-1.1-9.962-3.2-13.275-7.93a21.576,21.576,0,0,1-2.917-16.616c.968-4.15,3.151-7.893,3.307-12.217.091-2.534-.534-5.029-.571-7.565-.126-8.774,6.355-14.968,10.447-22.038a41.93,41.93,0,0,0,5.221-16.957c.232-2.5,2.594-3.567,4-1.792a29.337,29.337,0,0,0,6.553,6.024c4.575,3.1,9.593,4.982,14.415,7.409a79.181,79.181,0,0,1,11.35,6.983c5.677,4.178,11.387,9.992,12.568,18.188.429,2.976.233,6.149,1.219,8.9,2.312,6.464,9.662,7.328,12.868,13.144,3.067,5.56.97,13.768-3.167,18.066s-9.669,5.617-14.965,6.531c-8.474,1.461-17.007,2.246-25.539,2.89C2060.775,362.232,2053.819,360.283,2046.585,358.66Z" transform="translate(-2027.671 -254.561)" fill="#2e3c42"/>
        <path id="Trazado_149754" data-name="Trazado 149754" d="M2104.765,359.132c0,2.943,2.318,3.679,3.477,5.151a4.114,4.114,0,0,1,0,3.68c-1.159,1.472-3.477,1.472-4.055,2.208-1.739,2.943-2.319,7.359-4.635,7.359-5.023.638-12.225,1.829-14.806-4.1a5.524,5.524,0,0,0-5.259-3.364,2.888,2.888,0,0,0-2.53,1.577c-6.953,14.718-20.858,11.038-30.707,5.151-5.793-2.944-8.111-10.3-6.373-18.4,1.158-4.416,3.476-7.359,6.953-5.887-7.848-6.229-8.635-19.312-4.827-29.432-3.989,6.073-8.983,11.792-8.872,19.5.036,2.537.662,5.032.571,7.565-.156,4.324-2.338,8.067-3.307,12.217a21.575,21.575,0,0,0,2.917,16.616c3.313,4.731,8.366,6.829,13.275,7.93,7.234,1.623,14.191,3.572,21.511,3.02,8.532-.643,17.065-1.428,25.539-2.89,5.3-.913,10.827-2.233,14.965-6.531s6.234-12.505,3.167-18.066a10.8,10.8,0,0,0-.6-.952C2109.161,361.915,2106.963,361.28,2104.765,359.132Z" transform="translate(-2027.671 -282.812)" fill="#1d272b" opacity="0.72"/>
        <path id="Trazado_149755" data-name="Trazado 149755" d="M2043.3,263.868a12.914,12.914,0,0,0-.872-9.3c-1.558-2.783-4.818-4.723-7.951-4.122a39.286,39.286,0,0,0-4.4,1.617c-1.491.477-3.322.5-4.409-.631-1.322-1.369-.81-3.775.539-5.118s3.258-1.913,5.064-2.512,3.695-1.353,4.8-2.9c1.149-1.6,1.215-3.711,1.734-5.615s1.957-3.921,3.926-3.791c1.91.126,3.185,2.2,5.068,2.547,1.436.261,2.82-.542,4.126-1.2s2.929-1.164,4.165-.386a3.207,3.207,0,0,1,1.181,3.319,9.036,9.036,0,0,1-1.666,3.321c-1.43,2.055-2.949,4.163-3.4,6.624-.638,3.455,1,7.017,3.429,9.551s5.59,4.23,8.69,5.882c-.261-.139-6.072,4.292-6.8,4.713a51.529,51.529,0,0,1-7.812,3.69c-1.389.519-6.207,2.837-7.559,1.736C2040.029,270.381,2042.932,265.371,2043.3,263.868Z" transform="translate(-2024.896 -231.486)" fill="#2e3c42"/>
        <path id="Trazado_149756" data-name="Trazado 149756" d="M2050.223,256.615c-3.943-4.507.739-9.01,6.122-11.206a10.631,10.631,0,0,0,1.215-2.159c-5.031-.009-10.434,4.1-13.96,8.214a6.358,6.358,0,0,1-2.208-4.415,25.046,25.046,0,0,0-.736,7.359c-4.118-4.805-11.435-1.286-13,3.986a4.717,4.717,0,0,0,3.965.258,39.325,39.325,0,0,1,4.4-1.617c3.134-.6,6.394,1.339,7.952,4.122a12.907,12.907,0,0,1,.871,9.3c-.188.768-1.035,2.449-1.672,4.034a18.178,18.178,0,0,0,5.576-17.144,28.42,28.42,0,0,0,5.021,2.84A19.949,19.949,0,0,1,2050.223,256.615Z" transform="translate(-2026.444 -238.078)" fill="#263238" opacity="0.72"/>
        <path id="Trazado_149757" data-name="Trazado 149757" d="M2076.069,279.116c-.014-.014-.026-.029-.039-.043a2.791,2.791,0,0,1-.47.186q-1.735.6-3.473,1.2c-1.7.585-3.656,1.307-5.455.879a9.676,9.676,0,0,0,4.394-2.06,12.117,12.117,0,0,0,3.751-4.2.259.259,0,0,0-.351-.35c-2.968,1.662-5.906,3.693-9.366,4.07a.164.164,0,0,0,0,.327,10.168,10.168,0,0,0,4.778-1.309c1.383-.683,2.727-1.452,4.071-2.211a12.3,12.3,0,0,1-2.968,3.127,9.082,9.082,0,0,1-5.406,2.214c-.236.008-.36.349-.128.467,2.042,1.034,4.35.347,6.382-.354q1.862-.642,3.726-1.29a3.005,3.005,0,0,0,.882-.386A3.729,3.729,0,0,1,2076.069,279.116Z" transform="translate(-2047.315 -255.697)" fill="#fff"/>
      </g>
      <g id="Grupo_90351" data-name="Grupo 90351" transform="translate(97.106 83.793)">
        <path id="Trazado_149758" data-name="Trazado 149758" d="M2095.416,437.449h0a5.175,5.175,0,0,1-.836-7.249l4.887-6.163a5.174,5.174,0,0,1,7.249-.837h0a5.175,5.175,0,0,1,.836,7.249l-4.887,6.163A5.176,5.176,0,0,1,2095.416,437.449Z" transform="translate(-2093.469 -422.089)" fill="#cfd8dc"/>
        <path id="Trazado_149759" data-name="Trazado 149759" d="M2096.56,437.9h0a3.785,3.785,0,0,1-.612-5.3l6.191-7.807a3.785,3.785,0,0,1,5.3-.612h0a3.784,3.784,0,0,1,.611,5.3l-6.191,7.808A3.785,3.785,0,0,1,2096.56,437.9Z" transform="translate(-2094.403 -422.806)" fill="#fff"/>
        <path id="Trazado_149760" data-name="Trazado 149760" d="M2100.135,443.785h0a1.451,1.451,0,0,1-.236-2.039l3.882-4.9a1.453,1.453,0,0,1,2.04-.235h0a1.452,1.452,0,0,1,.235,2.039l-3.884,4.9A1.45,1.45,0,0,1,2100.135,443.785Z" transform="translate(-2096.896 -430.052)" fill="#bdbdbd"/>
        <path id="Trazado_149761" data-name="Trazado 149761" d="M2116.365,430.293l-.471-.374a1.152,1.152,0,0,1-.186-1.617h0a1.152,1.152,0,0,1,1.618-.187l.471.374a1.15,1.15,0,0,1,.186,1.616h0A1.152,1.152,0,0,1,2116.365,430.293Z" transform="translate(-2105.792 -425.327)" fill="#d32f2f"/>
      </g>
      <g id="Grupo_90352" data-name="Grupo 90352" transform="translate(0 15.335)">
        <path id="Trazado_149762" data-name="Trazado 149762" d="M1893.84,394.612c-6.235-1.1-12.653-3.2-16.861-7.93a17.853,17.853,0,0,1-3.706-16.616c1.231-4.15,4-7.893,4.2-12.217.116-2.534-.678-5.029-.725-7.565-.159-8.774,8.072-14.968,13.27-22.038a35.857,35.857,0,0,0,6.632-16.957,2.984,2.984,0,0,1,5.076-1.793,35.486,35.486,0,0,0,8.324,6.024c5.811,3.1,12.183,4.983,18.309,7.409a108.352,108.352,0,0,1,14.415,6.983c7.21,4.177,14.462,9.992,15.964,18.188.545,2.975.3,6.149,1.548,8.9,2.937,6.464,12.272,7.328,16.346,13.144,3.894,5.56,1.232,13.768-4.023,18.066s-12.28,5.617-19.007,6.531c-10.763,1.461-21.6,2.246-32.438,2.889C1911.864,398.185,1903.029,396.235,1893.84,394.612Z" transform="translate(-1872.582 -290.043)" fill="#37474f"/>
        <path id="Trazado_149763" data-name="Trazado 149763" d="M1943.107,333.718c2.943-1.471-2.943-7.359-.736-8.831,2.208-2.207,6.623-.736,10.3.736-4.441-2.96-9.356-6.041-13.5-9.718-.255-.131-.515-.251-.767-.386a35.473,35.473,0,0,1-8.323-6.024,2.984,2.984,0,0,0-5.077,1.793,36.338,36.338,0,0,1-1.823,7.777C1925.74,327.948,1934.707,335.657,1943.107,333.718Z" transform="translate(-1900.937 -290.043)" fill="#263238" opacity="0.72"/>
        <path id="Trazado_149764" data-name="Trazado 149764" d="M1967.736,395.085c0,2.944,2.944,3.68,4.415,5.151a3.34,3.34,0,0,1,0,3.679c-1.471,1.472-4.415,1.472-5.151,2.208-2.208,2.944-2.944,7.359-5.888,7.359-7.359.736-18.4,2.208-19.868-7.359-2.944.736-6.624-1.472-8.831,1.472-8.83,14.718-26.492,11.038-39,5.151-7.36-2.943-10.3-10.3-8.095-18.4,1.471-4.415,4.415-7.359,8.831-5.887-9.968-6.229-10.968-19.313-6.131-29.432-5.067,6.073-11.409,11.792-11.269,19.5.047,2.536.84,5.031.725,7.565-.2,4.324-2.969,8.067-4.2,12.218a17.853,17.853,0,0,0,3.706,16.616c4.208,4.731,10.626,6.829,16.861,7.93,9.189,1.623,18.024,3.573,27.322,3.021,10.837-.644,21.675-1.429,32.438-2.89,6.727-.914,13.752-2.233,19.007-6.531s7.918-12.505,4.023-18.066a11.276,11.276,0,0,0-.757-.952A10.349,10.349,0,0,1,1967.736,395.085Z" transform="translate(-1872.582 -318.294)" fill="#263238" opacity="0.72"/>
        <path id="Trazado_149765" data-name="Trazado 149765" d="M1927.975,275.554a75.679,75.679,0,0,1,13.079-7.46c2.353-1.046,4.888-1.99,7.441-1.659a10.2,10.2,0,0,1,6.664,4.315,24.43,24.43,0,0,1,3.338,7.406,10.129,10.129,0,0,0-4.211-.646,3.46,3.46,0,0,0-3.071,2.574c-.168,1.031.292,2.181-.23,3.085-.58,1-2.026,1.075-3.132.725a11.356,11.356,0,0,0-3.315-.993q.137,2.657.274,5.315a1.936,1.936,0,0,1-2.678-.095,6.87,6.87,0,0,1-1.462-2.586c-1.593-3.838-5.268-6.708-9.189-3.892-3.9,2.8,1.78,19.439-1.208,22.262-3.788,3.578-7.787-13.166-7.993-16.137C1921.9,282.286,1923.511,278.729,1927.975,275.554Z" transform="translate(-1900.403 -266.368)" fill="#37474f"/>
        <path id="Trazado_149766" data-name="Trazado 149766" d="M1956.1,272.972c-2.463.8-5.083,2.185-5.044,5.107a1.174,1.174,0,0,1-1.469,1.119,32.334,32.334,0,0,0-9.566-1.2,11.363,11.363,0,0,0-7.353,3.281,22,22,0,0,0-4.383,6.561,21.214,21.214,0,0,0-1.886,11.934c1.56,5.017,3.859,9.941,6.086,7.837,2.989-2.823-2.69-19.462,1.208-22.262,3.921-2.816,7.6.054,9.188,3.892a6.883,6.883,0,0,0,1.463,2.586,1.936,1.936,0,0,0,2.679.095l-.273-5.314a11.352,11.352,0,0,1,3.315.993c1.106.35,2.553.28,3.132-.725.522-.9.062-2.054.229-3.085a3.46,3.46,0,0,1,3.071-2.574,10.131,10.131,0,0,1,4.211.646,24.437,24.437,0,0,0-3.338-7.406A12.563,12.563,0,0,0,1956.1,272.972Z" transform="translate(-1902.612 -270.069)" fill="#263238" opacity="0.72"/>
        <path id="Trazado_149767" data-name="Trazado 149767" d="M1931.365,312.382a.245.245,0,0,0-.479.065,5.967,5.967,0,0,1-7.084,6.278c-.231-.041-.331.308-.1.355a6.329,6.329,0,0,0,7.533-4.976c.418,2.2.574,4.715-1.131,6.259a5.988,5.988,0,0,1-3.69,1.529,2.461,2.461,0,0,1-2.584-1.92c-.041-.315-.538-.328-.506,0a2.83,2.83,0,0,0,2.368,2.4,5.894,5.894,0,0,0,4.269-1.223C1932.784,319.136,1932.043,315.273,1931.365,312.382Z" transform="translate(-1901.017 -292.056)" fill="#fff"/>
      </g>
      <g id="Grupo_90354" data-name="Grupo 90354" transform="translate(0.903 105.186)">
        <path id="Trazado_149768" data-name="Trazado 149768" d="M1891.539,473.708c-2.8.982-5.481-.735-7.925-1.875a9.961,9.961,0,0,0-3.885-1.078,5.023,5.023,0,0,0-3.473,1.116,4.9,4.9,0,0,0-1.54,2.852,5.658,5.658,0,0,0,.455,3.332,7.582,7.582,0,0,0,2.272,2.783,12.5,12.5,0,0,0,3.582,1.823c2.416.851,5.148,1.422,6.985,3.35a5.712,5.712,0,0,1,.582.719c.182.264.616.014.433-.253-1.445-2.109-3.932-3.013-6.263-3.767a21.452,21.452,0,0,1-3.89-1.523,7.977,7.977,0,0,1-2.668-2.336,5.549,5.549,0,0,1-1.072-3.174,4.677,4.677,0,0,1,1.019-2.959c1.748-2.1,4.7-1.43,6.864-.447,2.459,1.117,4.965,2.8,7.8,2.268a4.485,4.485,0,0,0,.939-.316C1892.046,474.1,1891.839,473.6,1891.539,473.708Z" transform="translate(-1874.636 -470.751)" fill="#efebe9"/>
        <g id="Grupo_90353" data-name="Grupo 90353" transform="translate(13.826 1.324)">
          <path id="Trazado_149769" data-name="Trazado 149769" d="M1909.18,506.418a4.648,4.648,0,0,0-2.6-.438,9.987,9.987,0,0,1-.493.947c3.211.48,5.654,2.135,8.684,3.3,6.933,2.667,15.145.348,21.867,3.507q.141-.4.3-.795c-4.935-2.746-11.3-2.512-16.979-2.764C1916.04,509.847,1912.61,508.214,1909.18,506.418Z" transform="translate(-1906.087 -491.817)" fill="#b2f2ef"/>
          <path id="Trazado_149770" data-name="Trazado 149770" d="M1939.063,492.76c.422-.848.846-1.689,1.235-2.523.339-.73.664-1.509.964-2.316.069-.188.14-.379.207-.57a39.868,39.868,0,0,0,1.39-4.913,13.2,13.2,0,0,1-3.815-.95c-9.356-4.194-19.827-8.228-29.683-3.764-.02.727-.065,1.462-.134,2.2-.008.1-.017.2-.028.3a42.777,42.777,0,0,1-.815,5.016c-.019.1-.042.2-.065.294-.026.116-.053.23-.08.345a17.259,17.259,0,0,1-1.031,3.175,4.649,4.649,0,0,1,2.6.438c3.43,1.8,6.86,3.43,10.78,3.757,5.681.252,12.044.018,16.979,2.764.339-.848.731-1.69,1.138-2.526C1938.823,493.243,1938.944,493,1939.063,492.76Z" transform="translate(-1906.715 -474.89)" fill="#00a79e"/>
          <path id="Trazado_149771" data-name="Trazado 149771" d="M1935.044,476.3a34.4,34.4,0,0,0-18.1-2.151,12.665,12.665,0,0,0-4.826,1.551c0,.3,0,.6-.013.9,9.855-4.464,20.327-.431,29.682,3.764a13.207,13.207,0,0,0,3.815.95q.069-.319.129-.632C1941.969,479.834,1938.614,477.76,1935.044,476.3Z" transform="translate(-1909.459 -473.763)" fill="#b2f2ef"/>
          <path id="Trazado_149772" data-name="Trazado 149772" d="M1944.007,491.558c-.067.191-.137.382-.208.57-1.023-.619-1.984-1.338-3.009-1.955a29.743,29.743,0,0,0-3.461-1.69,52.264,52.264,0,0,0-13-3.956,46.815,46.815,0,0,0-12.6-.1c.01-.1.019-.2.028-.3a34.151,34.151,0,0,1,6.626-.819,40.159,40.159,0,0,1,13.855,1.878,29.474,29.474,0,0,1,6.442,2.807A36.884,36.884,0,0,1,1944.007,491.558Z" transform="translate(-1909.254 -479.097)" fill="#008f85"/>
          <path id="Trazado_149773" data-name="Trazado 149773" d="M1940.479,504.808c-.119.241-.24.484-.358.726-2.07-.916-4.1-1.909-6.219-2.729a76.6,76.6,0,0,0-8.236-2.67,85.008,85.008,0,0,0-8.47-1.762c-2.479-.387-4.969-.57-7.461-.79.022-.1.045-.2.065-.294a53.82,53.82,0,0,1,7.485.421,64.273,64.273,0,0,1,8.471,1.54,69.15,69.15,0,0,1,8.385,2.685A48.954,48.954,0,0,1,1940.479,504.808Z" transform="translate(-1908.132 -486.938)" fill="#008f85"/>
        </g>
        <path id="Trazado_149774" data-name="Trazado 149774" d="M2000.518,501.725a5.32,5.32,0,0,0-3.734-2.607c-3.3-.828-6.832.134-10.061-1.076a5.566,5.566,0,0,1-2.248-1.5,10.276,10.276,0,0,1-1.485-2.779c-.688-1.586-1.93-3.494-3.927-3.276a.252.252,0,1,0,.067.5c1.926-.3,2.978,1.867,3.562,3.32a7.106,7.106,0,0,0,2.6,3.673c2.648,1.681,5.954,1.188,8.921,1.325a8.673,8.673,0,0,1,4.725,1.321,2.971,2.971,0,0,1,1.277,1.883c.162,1.052-.695,1.411-1.583,1.53-3.9.519-7.8,1.041-11.725,1.25a53.385,53.385,0,0,1-6.587-.025c-1.118-.079-2.235-.19-3.344-.361-1.076-.164-2.137-.4-3.221-.492-.143-.012-.211.22-.076.279a19.532,19.532,0,0,0,6.039,1.205,49.5,49.5,0,0,0,6.232.124,110.367,110.367,0,0,0,12.676-1.374,2.348,2.348,0,0,0,1.979-1.082A2.238,2.238,0,0,0,2000.518,501.725Z" transform="translate(-1930.099 -481.801)" fill="#efebe9"/>
      </g>
      <g id="Grupo_90356" data-name="Grupo 90356" transform="translate(104.704 92.947)">
        <path id="Trazado_149775" data-name="Trazado 149775" d="M2139.243,469.974a60.8,60.8,0,0,0-20.754-.464c-.87.13-1.734.289-2.6.447a6.6,6.6,0,0,1-2.62.1,2.185,2.185,0,0,1-1.693-3.134c1.262-2.609,4.845-3.167,7.4-3.538,3-.436,6.369-.573,8.861-2.512.179-.138-.049-.414-.236-.307-2.671,1.531-5.66,1.784-8.649,2.194-2.685.369-6.023.956-7.638,3.4a2.746,2.746,0,0,0,.1,3.467,4.449,4.449,0,0,0,4.013.9c1.864-.289,3.7-.667,5.582-.871,1.82-.2,3.65-.309,5.48-.338a59.8,59.8,0,0,1,12.614,1.144C2139.429,470.532,2139.567,470.038,2139.243,469.974Z" transform="translate(-2110.752 -452.794)" fill="#efebe9"/>
        <path id="Trazado_149776" data-name="Trazado 149776" d="M2233.99,447.993a29.09,29.09,0,0,0-3.344-1.167q-3.751-1.211-7.586-2.136-2.088-.5-4.193-.917c-.717-.142-1.434-.278-2.155-.4a10.339,10.339,0,0,0-2.134-.247.115.115,0,0,0-.029.226,9.878,9.878,0,0,0,1.7.392l1.718.334q1.717.337,3.425.73,3.33.767,6.607,1.737,1.68.5,3.343,1.048c.528.175,1.052.354,1.576.537a4.855,4.855,0,0,1,1.359.619.874.874,0,0,1,.383,1.125,1.449,1.449,0,0,1-1.291.6c-.993-.013-1.882-.461-2.888-.236a3.552,3.552,0,0,0-2.184,1.525c-.44.687-.623,2.952-1.876,2.46-.285-.112-.478.354-.208.494.888.459,1.685-.326,1.975-1.123a10.145,10.145,0,0,1,.5-1.451,2.968,2.968,0,0,1,1.233-1.191,2.858,2.858,0,0,1,1.587-.3c.6.058,1.179.262,1.784.3a1.822,1.822,0,0,0,1.949-1.136C2235.45,448.949,2234.692,448.32,2233.99,447.993Z" transform="translate(-2168.872 -443.031)" fill="#efebe9"/>
        <g id="Grupo_90355" data-name="Grupo 90355" transform="translate(15.327)">
          <path id="Trazado_149777" data-name="Trazado 149777" d="M2175.252,474.015a4.4,4.4,0,0,0-2.416.6c.249.269.48.538.685.807,2.917-.776,6.568-.5,10.11-.751,8.109-.577,11.63-4.953,20.128-5.126q-.338-.317-.66-.639c-6.713-.16-11.176,2.177-15.674,3.953C2184.153,473.977,2179.793,474.051,2175.252,474.015Z" transform="translate(-2160.87 -457.472)" fill="#b2f2ef"/>
          <path id="Trazado_149778" data-name="Trazado 149778" d="M2186.605,452.238c-.628-.716-1.247-1.428-1.885-2.123-.559-.608-1.184-1.244-1.856-1.891-.157-.15-.317-.3-.479-.455-1.371-1.286-2.9-2.6-4.423-3.787a15.049,15.049,0,0,1-3.888.666c-11.6.378-23.856,1.245-26.216,7.63.792.5,1.574,1.007,2.342,1.527.105.07.211.142.314.212,1.752,1.2,3.43,2.441,4.965,3.659.094.073.187.148.277.22.109.088.216.173.322.26a27.05,27.05,0,0,1,2.761,2.493,4.4,4.4,0,0,1,2.417-.6c4.541.036,8.9-.038,12.174-1.16,4.5-1.776,8.961-4.113,15.674-3.953-.69-.688-1.334-1.389-1.958-2.092C2186.964,452.646,2186.783,452.441,2186.605,452.238Z" transform="translate(-2146.873 -443.511)" fill="#00a79e"/>
          <path id="Trazado_149779" data-name="Trazado 149779" d="M2163.3,443.622c-6.81.381-12.343,2.042-15.826,4.749a4.013,4.013,0,0,0-1.86,2.7q.494.3.985.609c2.36-6.385,14.612-7.252,26.215-7.63a15.045,15.045,0,0,0,3.888-.666q-.3-.238-.605-.47C2172.369,443.632,2167.575,443.383,2163.3,443.622Z" transform="translate(-2145.617 -442.912)" fill="#b2f2ef"/>
          <path id="Trazado_149780" data-name="Trazado 149780" d="M2185.37,451.8c.162.152.322.3.479.455-1.447-.067-2.958-.222-4.406-.287-1.558-.071-3-.009-4.445.046a66.881,66.881,0,0,0-14.042,1.785,29.638,29.638,0,0,0-9.458,4.249c-.1-.071-.208-.142-.313-.212a15.387,15.387,0,0,1,4.011-2.821,35.252,35.252,0,0,1,12.371-3.48,47.523,47.523,0,0,1,7.9-.314A79.19,79.19,0,0,1,2185.37,451.8Z" transform="translate(-2149.859 -447.538)" fill="#008f85"/>
          <path id="Trazado_149781" data-name="Trazado 149781" d="M2196.318,462.733c.177.2.358.408.539.611-2.553.091-5.167.119-7.647.291-3.156.218-6.194.559-9.079,1.021s-5.64,1.038-8.246,1.713c-2.27.588-4.322,1.318-6.417,2.022-.09-.072-.184-.148-.278-.22a38.767,38.767,0,0,1,6.025-2.28,63.326,63.326,0,0,1,8-1.863,91.518,91.518,0,0,1,9.206-1.062C2190.945,462.8,2193.55,462.65,2196.318,462.733Z" transform="translate(-2156.585 -454.006)" fill="#008f85"/>
        </g>
      </g>
      <g id="Grupo_90358" data-name="Grupo 90358" transform="translate(77.564 120.327)">
        <path id="Trazado_149782" data-name="Trazado 149782" d="M2143.286,534.827c1.523,1.148,3.517,1.034,5.3.7,1.941-.367,3.858-.893,5.838-.48,3.763.786,6.442,3.927,10.056,5.079,1.708.545,3.853.68,5.238-.663a2.383,2.383,0,0,0,.84-2.085,1.994,1.994,0,0,0-1.634-1.4,13.52,13.52,0,0,0-2.309-.229,10.365,10.365,0,0,1-2.236-.393,11.352,11.352,0,0,1-3.975-2.129,11.853,11.853,0,0,1-3.159-3.98,8.179,8.179,0,0,1-.965-4.907.139.139,0,0,1,.266,0,15.69,15.69,0,0,0,1.3,4.705,11.834,11.834,0,0,0,3.024,3.715,10.71,10.71,0,0,0,4.424,2.172c1.48.327,3.14.057,4.534.732a2.346,2.346,0,0,1,.82,3.561,4.7,4.7,0,0,1-4.335,1.813c-4.055-.286-6.9-3.562-10.5-5a8.036,8.036,0,0,0-3.3-.609,24.847,24.847,0,0,0-3.7.606c-1.937.373-4.134.519-5.8-.734C2142.738,535.087,2143.008,534.617,2143.286,534.827Z" transform="translate(-2101.626 -515.864)" fill="#efebe9"/>
        <path id="Trazado_149783" data-name="Trazado 149783" d="M2049.089,509.056c.389,1.1,2.217,1.27,3.17,1.388a15.47,15.47,0,0,0,4.894-.24c.107.144.217.285.31.438a7.393,7.393,0,0,1,.315,6.794c-.159.352.362.658.522.3a7.976,7.976,0,0,0-.523-7.667,28.815,28.815,0,0,0,3.545-1.069c1.5-.551,2.969-1.172,4.444-1.779s3.008-1.069,4.48-1.679a.181.181,0,0,0-.1-.349,20.129,20.129,0,0,0-4.387,1.377c-1.436.551-2.848,1.158-4.292,1.691a30.019,30.019,0,0,1-4.113,1.234,6.852,6.852,0,0,0-6.258-2.31C2050.227,507.337,2048.667,507.862,2049.089,509.056Zm1.32-1.138a5.061,5.061,0,0,1,1.611-.277,6.38,6.38,0,0,1,4.656,2,15.912,15.912,0,0,1-3.008.259,12.084,12.084,0,0,1-2.144-.217,3.921,3.921,0,0,1-1.581-.524C2049.257,508.65,2049.827,508.126,2050.408,507.918Z" transform="translate(-2049.018 -505.195)" fill="#efebe9"/>
        <g id="Grupo_90357" data-name="Grupo 90357" transform="translate(7.627 0.07)">
          <path id="Trazado_149784" data-name="Trazado 149784" d="M2098.083,539.956a4.895,4.895,0,0,1,2.688.663c-.278.3-.534.6-.762.9-3.246-.863-7.308-.554-11.248-.835-9.021-.642-12.939-5.51-22.394-5.7q.376-.352.734-.71c7.468-.178,12.434,2.422,17.438,4.4C2088.18,539.914,2093.031,540,2098.083,539.956Z" transform="translate(-2066.367 -521.552)" fill="#b2f2ef"/>
          <path id="Trazado_149785" data-name="Trazado 149785" d="M2070.817,515.729c.7-.8,1.387-1.588,2.1-2.362.622-.677,1.317-1.384,2.065-2.1.174-.167.353-.338.533-.506,1.525-1.43,3.23-2.887,4.921-4.213a16.752,16.752,0,0,0,4.325.742c12.909.42,26.54,1.386,29.166,8.488q-1.32.829-2.605,1.7l-.348.236c-1.951,1.333-3.817,2.716-5.522,4.071-.106.081-.209.165-.31.245-.121.1-.242.193-.359.289a30.2,30.2,0,0,0-3.071,2.774,4.9,4.9,0,0,0-2.688-.664c-5.052.041-9.9-.042-13.543-1.291-5-1.975-9.97-4.576-17.438-4.4.767-.764,1.483-1.545,2.179-2.327C2070.418,516.183,2070.618,515.954,2070.817,515.729Z" transform="translate(-2067.302 -506.02)" fill="#00a79e"/>
          <path id="Trazado_149786" data-name="Trazado 149786" d="M2111.143,506.143c7.576.424,13.731,2.272,17.607,5.283a4.467,4.467,0,0,1,2.069,3c-.366.222-.732.449-1.1.677-2.625-7.1-16.256-8.068-29.165-8.488a16.765,16.765,0,0,1-4.325-.742c.225-.176.45-.351.673-.523C2101.057,506.155,2106.39,505.878,2111.143,506.143Z" transform="translate(-2083.102 -505.354)" fill="#b2f2ef"/>
          <path id="Trazado_149787" data-name="Trazado 149787" d="M2084.36,515.237c-.18.169-.358.339-.533.506,1.608-.074,3.291-.247,4.9-.319,1.735-.079,3.332-.01,4.946.051a74.356,74.356,0,0,1,15.622,1.987,32.98,32.98,0,0,1,10.522,4.727l.348-.236a17.108,17.108,0,0,0-4.462-3.138,39.228,39.228,0,0,0-13.764-3.871,52.851,52.851,0,0,0-8.788-.349C2090.333,514.738,2087.4,514.782,2084.36,515.237Z" transform="translate(-2076.151 -510.5)" fill="#008f85"/>
          <path id="Trazado_149788" data-name="Trazado 149788" d="M2073.594,527.4c-.2.225-.4.454-.6.68,2.84.1,5.748.132,8.508.323,3.511.242,6.89.623,10.1,1.136s6.271,1.154,9.173,1.906c2.525.655,4.807,1.466,7.138,2.25.1-.081.2-.165.309-.245a43.031,43.031,0,0,0-6.7-2.536,70.41,70.41,0,0,0-8.9-2.073,101.849,101.849,0,0,0-10.242-1.182C2079.572,527.479,2076.672,527.312,2073.594,527.4Z" transform="translate(-2070.08 -517.696)" fill="#008f85"/>
        </g>
      </g>
      <g id="Grupo_90359" data-name="Grupo 90359" transform="translate(148.036 112.714)">
        <path id="Trazado_149789" data-name="Trazado 149789" d="M2211.708,492.257c1.47-.1,3.032.455,4.379-.143,4.882-2.165,10.085-3.77,15.415-3.448a15.322,15.322,0,0,0,3.374-.6,8.013,8.013,0,0,1,2.01-.176,1.077,1.077,0,0,1,.661.229.8.8,0,0,1,.136.886,1.609,1.609,0,0,1-.648.682,8.664,8.664,0,0,1-3.657.866,16.661,16.661,0,0,0-4.571,1.249,42.115,42.115,0,0,0,9.134-1.015,11.2,11.2,0,0,1,4.96-.464,1.429,1.429,0,0,1,.963.576,1.123,1.123,0,0,1-.282,1.31,3.134,3.134,0,0,1-1.277.645,47.358,47.358,0,0,1-12.606,2.209,5.327,5.327,0,0,0,3.852.149,36.883,36.883,0,0,1,11.662-.615c.673.072,1.5.305,1.611.972a1.3,1.3,0,0,1-.791,1.226,6.176,6.176,0,0,1-2.358.581l-3.076.338c-1.1.122-2.209.243-3.319.267-2.45.052-4.941-.37-7.329.179,3.956,1.417,8.187,1.373,12.364,1.835a3.6,3.6,0,0,1,1.73.511,1.307,1.307,0,0,1,.5,1.59c-.3.56-1.047.673-1.683.7A51.95,51.95,0,0,1,2234,502.1l-4.952-.672a5.455,5.455,0,0,0-1.332.174c1.089,1.214,2.784,1.625,4.266,2.3s2.971,2.005,2.776,3.625c-.05.426-.294.9-.721.951a1.238,1.238,0,0,1-.68-.181,26.409,26.409,0,0,0-5.9-2.4c-1.866-.406-3.813-.351-5.669-.8a18.7,18.7,0,0,1-6.1-3.1,4.63,4.63,0,0,0-2.722-.125c-.877.238-1.719.6-2.605.8a3.938,3.938,0,0,1-1.039-3,21.777,21.777,0,0,1,1.134-5.56A6.167,6.167,0,0,1,2211.708,492.257Z" transform="translate(-2209.321 -487.876)" fill="#00a79e"/>
        <path id="Trazado_149790" data-name="Trazado 149790" d="M2231.794,519.106c-2.324-1.421-4-3.457-6.721-4.172-2.349-.577-4.882-.652-7.093-1.606-1.459-.677-1.923-2.128-2.854-3.466-.386,2.988-3.249,2.65-5.5,2.963a.24.24,0,0,0-.174.123,3.478,3.478,0,0,0,.983,2.051c.887-.2,1.729-.56,2.606-.8a4.628,4.628,0,0,1,2.722.125,18.7,18.7,0,0,0,6.1,3.1c1.856.451,3.8.4,5.669.8a26.437,26.437,0,0,1,5.9,2.4,1.236,1.236,0,0,0,.68.181.917.917,0,0,0,.684-.757C2233.821,519.672,2232.779,519.572,2231.794,519.106Z" transform="translate(-2209.396 -500.197)" fill="#008f85"/>
        <path id="Trazado_149791" data-name="Trazado 149791" d="M2268.425,517.371a1.3,1.3,0,0,1-1.02.966c-4.226,1.438-8.148-.285-12.4-.708a4.493,4.493,0,0,0-2.777.412,3.019,3.019,0,0,1,.87-.083l4.95.672a51.989,51.989,0,0,0,8.865.691c.636-.024,1.38-.136,1.683-.7A1.192,1.192,0,0,0,2268.425,517.371Z" transform="translate(-2233.364 -504.405)" fill="#008f85"/>
        <path id="Trazado_149792" data-name="Trazado 149792" d="M2258.764,497.757a5.36,5.36,0,0,0-1.775.791,47.362,47.362,0,0,0,12.03-2.182,3.144,3.144,0,0,0,1.276-.645,1.127,1.127,0,0,0,.283-1.309.922.922,0,0,0-.243-.269,1.2,1.2,0,0,1-.322.485C2267.174,497.712,2262.747,497.369,2258.764,497.757Z" transform="translate(-2236.033 -491.388)" fill="#008f85"/>
        <path id="Trazado_149793" data-name="Trazado 149793" d="M2217.021,495.262c3.119-5.4,10.4-4.3,15.776-6.164a3.639,3.639,0,0,1,1.951-.28,11.613,11.613,0,0,0,2.738-.8c-.266.035-.531.08-.794.126a15.342,15.342,0,0,1-3.374.6c-5.331-.323-10.533,1.283-15.415,3.448-1.348.6-2.909.041-4.38.143a6.738,6.738,0,0,0-.963,1.265c1.061-.1,2.09-.107,3.119-.115C2216.774,493.606,2217.263,494.212,2217.021,495.262Z" transform="translate(-2211.136 -487.958)" fill="#00c1b9"/>
        <path id="Trazado_149794" data-name="Trazado 149794" d="M2256.733,490.732c-.718.137-1.958.333-2.064,1.2a16.664,16.664,0,0,1,4.122-1.064,8.656,8.656,0,0,0,3.656-.866,1.615,1.615,0,0,0,.649-.682.8.8,0,0,0-.135-.885,1.654,1.654,0,0,1-.519.7C2260.716,490.343,2258.651,490.155,2256.733,490.732Z" transform="translate(-2234.733 -488.187)" fill="#008f85"/>
        <path id="Trazado_149795" data-name="Trazado 149795" d="M2267.79,507.483l3.077-.338a6.171,6.171,0,0,0,2.357-.581,1.3,1.3,0,0,0,.791-1.225.19.19,0,0,0-.007-.03,1.267,1.267,0,0,1-.45.4c-4.159,2.031-8.857.877-13.309,1.378a4.371,4.371,0,0,0-2.406.712c2.173-.338,4.416,0,6.629-.048C2265.581,507.726,2266.686,507.6,2267.79,507.483Z" transform="translate(-2236.512 -497.644)" fill="#008f85"/>
      </g>
      <g id="Grupo_90360" data-name="Grupo 90360" transform="translate(65.267 53.373)">
        <path id="Trazado_149796" data-name="Trazado 149796" d="M2025.3,352.892c1.691.439,3.05,1.652,4.63,1.911a17,17,0,0,1,13.634,11.85c.38,1.325,1.184,2.636,1.6,4a9.159,9.159,0,0,1,.479,2.56,1.628,1.628,0,0,1-.171.87.627.627,0,0,1-.846.2,1.946,1.946,0,0,1-.7-.771,24.509,24.509,0,0,1-1.48-4.19,11.492,11.492,0,0,0-2.872-4.488,42.124,42.124,0,0,1,3.341,9.809,10.076,10.076,0,0,1-.146,5.975,1.775,1.775,0,0,1-.824,1.019.957.957,0,0,1-1.134-.646,4.71,4.71,0,0,1-.288-1.548,35.543,35.543,0,0,0-3.423-12.469,6.593,6.593,0,0,0,1.021,3.556,13.7,13.7,0,0,1-.034,11.534c-.294.656-.852,1.392-1.488,1.234-.485-.121-.718-.69-.786-1.183a8.3,8.3,0,0,1,.155-2.275,17.7,17.7,0,0,0,.177-2.756c-.014-.972-.109-1.919-.181-2.855-.15-2.033-.26-4.241-1.523-5.884-.024,3.459.371,6.631-.677,9.82a2.109,2.109,0,0,1-.788,1.187,1.445,1.445,0,0,1-1.574-.077,1.221,1.221,0,0,1-.357-1.264,33.164,33.164,0,0,0,.675-5.7,14.182,14.182,0,0,0-.431-3.315,2.241,2.241,0,0,0-.553-.726,17,17,0,0,0-1.008,3.286,3.548,3.548,0,0,1-3.068,2.13c-.409.047-.87.036-.953-.1-.046-.078.036-.181.115-.282a4.7,4.7,0,0,0,1.216-3.159,12.222,12.222,0,0,0-1.066-2.71c-.423-1.178-.57-2.809-1.075-4.539a2.016,2.016,0,0,0-1.632-.9c-.655-.01-1.31-.1-1.936-.059a4.437,4.437,0,0,1-.135-2.743,14.873,14.873,0,0,1,2.246-4.978A4.873,4.873,0,0,1,2025.3,352.892Z" transform="translate(-2021.045 -352.892)" fill="#00a79e"/>
        <path id="Trazado_149797" data-name="Trazado 149797" d="M2027.048,379.911c.978-1.366,2.363-3.146,1.932-4.969-.423-1.545-1.53-2.767-2.27-4.4-.483-1.123-.089-2.5-.214-4.026-1.635,2.367-3.41,1.177-5.274,1.135a.193.193,0,0,0-.158.088,3.647,3.647,0,0,0,.267,1.839c.626-.039,1.282.049,1.937.059a2.018,2.018,0,0,1,1.633.9c.5,1.73.651,3.361,1.075,4.54a12.213,12.213,0,0,1,1.065,2.71,4.69,4.69,0,0,1-1.216,3.159c-.079.1-.162.2-.115.282.07.118.413.143.766.12C2026.761,380.9,2026.752,380.455,2027.048,379.911Z" transform="translate(-2021.045 -360.527)" fill="#008f85"/>
        <path id="Trazado_149798" data-name="Trazado 149798" d="M2045.233,399.435a1.21,1.21,0,0,1-.7-.959c-.7-3,.8-5.362.191-8.466a2.028,2.028,0,0,0-1.124-1.579,1.332,1.332,0,0,1,.33.492,14.2,14.2,0,0,1,.432,3.315,33.177,33.177,0,0,1-.676,5.7,1.221,1.221,0,0,0,.357,1.264A1.435,1.435,0,0,0,2045.233,399.435Z" transform="translate(-2033.683 -372.808)" fill="#008f85"/>
        <path id="Trazado_149799" data-name="Trazado 149799" d="M2059.4,387.485a4.231,4.231,0,0,0-1.3-1.391,35.386,35.386,0,0,1,3.185,11.965,4.717,4.717,0,0,0,.288,1.548.957.957,0,0,0,1.134.646.981.981,0,0,0,.328-.223,1.223,1.223,0,0,1-.356-.493C2060.653,395.618,2061.007,391.319,2059.4,387.485Z" transform="translate(-2041.812 -371.498)" fill="#008f85"/>
        <path id="Trazado_149800" data-name="Trazado 149800" d="M2031.312,356.932c5.556-3.332,11.957,3.6,15.354,9.221a4.742,4.742,0,0,1,.98,2.233c.337,1.1.96,2.046,1.422,3.269-.079-.337-.173-.67-.273-1-.415-1.368-1.22-2.679-1.6-4a17,17,0,0,0-13.634-11.85c-1.58-.259-2.939-1.472-4.63-1.911a5.339,5.339,0,0,0-1.4.855,15.015,15.015,0,0,1,3.271,1.042C2031.85,355.387,2032,356.162,2031.312,356.932Z" transform="translate(-2024.68 -352.892)" fill="#00c1b9"/>
        <path id="Trazado_149801" data-name="Trazado 149801" d="M2065.986,382.661c-.388-.761-1.135-2.015-1.944-1.765a11.577,11.577,0,0,1,2.5,4.111,24.5,24.5,0,0,0,1.479,4.19,1.954,1.954,0,0,0,.7.771.627.627,0,0,0,.846-.2,1.825,1.825,0,0,1-.7-.627C2067.562,387.074,2067.265,384.641,2065.986,382.661Z" transform="translate(-2045.139 -368.567)" fill="#008f85"/>
        <path id="Trazado_149802" data-name="Trazado 149802" d="M2053.647,397.432a17.828,17.828,0,0,1-.178,2.756,8.283,8.283,0,0,0-.156,2.275c.068.493.3,1.062.786,1.183.01,0,.019,0,.03,0a1.369,1.369,0,0,1-.175-.574c-.246-4.423,1.032-8.328-.41-12.155a2.886,2.886,0,0,0-1.271-1.736,12.1,12.1,0,0,1,1.191,5.393C2053.539,395.513,2053.633,396.46,2053.647,397.432Z" transform="translate(-2038.546 -373.229)" fill="#008f85"/>
      </g>
      <path id="Trazado_149803" data-name="Trazado 149803" d="M2089.362,283.35c-.284-.3-.557-.621-.816-.95q-.754-.288-1.487-.614A20.8,20.8,0,0,0,2089.362,283.35Z" transform="translate(-1992.771 -259.673)" fill="#2e3c42"/>
    </g>
    <g id="Grupo_127508" data-name="Grupo 127508" transform="translate(94.109 58.697)">
      <g id="Grupo_90984" data-name="Grupo 90984" transform="translate(0 0)" clip-path="url(#clip-path)">
        <g id="Grupo_91824" data-name="Grupo 91824" transform="translate(4.634 7.702)">
          <path id="Trazado_150872" data-name="Trazado 150872" d="M1106.556,1116.436c-11.036-47.648-28.571-139.371-28.571-139.371l-99.327-1.073C962.9,985.059,965.9,1096,961.99,1106.727s-45.657,77.76-41.286,101.71c4.386,23.945,42.514,4.391,42.514,4.391s34.648-52.665,43.685-65.816c10.186-14.82,13.188-24.5,13.188-24.5,11.219-21.651,16.57-57.466,16.57-57.466,1.708,36.909,15.165,66.184,13.728,72.048,0,0,17.883,79.157,23.747,85.023s32.075,5.856,42.1-12.711C1116.233,1209.405,1113.821,1147.845,1106.556,1116.436Z" transform="translate(-889.92 -720.004)" fill="url(#linear-gradient-2)"/>
          <path id="Trazado_150873" data-name="Trazado 150873" d="M998.254,999.307c7.19-4.406,58.274,3.208,81.926-11-1.368-7.043-2.167-11.238-2.167-11.238l-99.327-1.073c-15.753,9.067-12.757,120.01-16.668,130.735-3.857,10.579-44.459,75.841-41.406,100.637l47.926-2.573c.155-.231.3-.455.455-.688-8.021-1.21-26.654-5.032-27.773-14.659-1.428-12.285,18.194-3.491,18.158-13.253-.042-9.777-8.876-19.552-3.97-25.415s27.831-7.656,27.123-24.84-9.061-35.75,0-49.436,22.55-20.521,19.715-36.154S990.266,1004.192,998.254,999.307Z" transform="translate(-889.948 -720.004)" fill="url(#radial-gradient)"/>
          <path id="Trazado_150874" data-name="Trazado 150874" d="M1162.527,1260.3c5.863,5.858,32.075,5.856,42.1-12.711,0,0-.242-6.045-.795-15.3-4.459,1.847-27.005,10.712-34.012,4.563-7.779-6.846,8.434-29.317,4.726-45.934s-16.937-15.775-20.094-29.392,9.613-23.381,5.674-33.152-18.6-34.207-15.669-44.959-10.832-18.926-10.832-18.926-3.884,18.2-8.4,41.732c2.265,35.484,14.956,63.355,13.559,69.06C1138.779,1175.28,1156.662,1254.437,1162.527,1260.3Z" transform="translate(-978.31 -758.191)" fill="#7999c6"/>
          <path id="Trazado_150875" data-name="Trazado 150875" d="M1149,1202.652s30.589,28.489,45.6,33.225" transform="translate(-988.572 -817.812)" fill="none" stroke="#5179aa" stroke-linecap="round" stroke-miterlimit="10" stroke-width="2.579"/>
          <path id="Trazado_150876" data-name="Trazado 150876" d="M1157.326,1248.207s35.168,9.362,48.858,14.21" transform="translate(-992.165 -837.469)" fill="none" stroke="#5179aa" stroke-linecap="round" stroke-miterlimit="10" stroke-width="2.579"/>
          <g id="Grupo_91823" data-name="Grupo 91823" transform="translate(38.811 0)">
            <g id="Grupo_91822" data-name="Grupo 91822">
              <path id="Trazado_150877" data-name="Trazado 150877" d="M999.348,677.267a4.171,4.171,0,0,1-4.168,4.164H974.388a4.169,4.169,0,0,1-4.168-4.164h0a4.166,4.166,0,0,1,4.168-4.162H995.18a4.168,4.168,0,0,1,4.168,4.162Z" transform="translate(-950.237 -589.303)" fill="#00111c"/>
              <path id="Trazado_150878" data-name="Trazado 150878" d="M1064.962,678.217a4.164,4.164,0,0,1-4.168,4.161H1040a4.162,4.162,0,0,1-4.168-4.161h0a4.165,4.165,0,0,1,4.168-4.166h20.792a4.166,4.166,0,0,1,4.168,4.166Z" transform="translate(-978.55 -589.711)" fill="#00111c"/>
              <path id="Trazado_150879" data-name="Trazado 150879" d="M956.986,681.379v12.706l62.544.486-1.559-13.193Z" transform="translate(-944.526 -592.873)" fill="#00111c"/>
              <g id="Grupo_91821" data-name="Grupo 91821">
                <path id="Trazado_150880" data-name="Trazado 150880" d="M1202.132,834.766s37.637-6.95,42.765-5.158,14.168,17.35-.486,27.607-64.956,27.511-67.232,22.379S1179.115,838.433,1202.132,834.766Z" transform="translate(-1039.308 -656.709)" fill="url(#linear-gradient-2)"/>
                <path id="Trazado_150881" data-name="Trazado 150881" d="M1198.979,716.621s11.732,4.846,15.391,9.9-1.324,71.174-10.927,87.26S1198.979,716.621,1198.979,716.621Z" transform="translate(-1048.358 -608.081)" fill="url(#linear-gradient-2)"/>
                <path id="Trazado_150882" data-name="Trazado 150882" d="M1008.553,825.936a17.594,17.594,0,0,1-17.59,17.6h-38.3a17.6,17.6,0,0,1-17.594-17.6V712.841a17.59,17.59,0,0,1,17.594-17.587h38.3a17.588,17.588,0,0,1,17.59,17.587Z" transform="translate(-935.068 -598.86)" fill="#db8804"/>
                <path id="Trazado_150883" data-name="Trazado 150883" d="M976.194,825.936V712.841a17.584,17.584,0,0,0-17.588-17.587h-5.945a17.59,17.59,0,0,0-17.594,17.587V825.936a17.6,17.6,0,0,0,17.594,17.6h5.945A17.589,17.589,0,0,0,976.194,825.936Z" transform="translate(-935.068 -598.86)" fill="#f7b242"/>
                <g id="Grupo_91816" data-name="Grupo 91816" transform="translate(5.367 207.787)">
                  <path id="Trazado_150884" data-name="Trazado 150884" d="M953.8,907.936a7.452,7.452,0,1,0-7.453-7.452A7.457,7.457,0,0,0,953.8,907.936Z" transform="translate(-945.301 -891.992)" fill="#a2c2e7"/>
                  <path id="Trazado_150885" data-name="Trazado 150885" d="M953.005,893.284a6.412,6.412,0,1,1-6.414,6.411,6.414,6.414,0,0,1,6.414-6.411m0-2.081a8.493,8.493,0,1,0,8.491,8.492,8.5,8.5,0,0,0-8.491-8.492Z" transform="translate(-944.509 -891.203)" fill="#00111c"/>
                </g>
                <g id="Grupo_91819" data-name="Grupo 91819" transform="translate(9.201 99.05)">
                  <g id="Grupo_91818" data-name="Grupo 91818">
                    <g id="Grupo_91817" data-name="Grupo 91817">
                      <path id="Trazado_150886" data-name="Trazado 150886" d="M1120.992,958.842s-.015,14.381-3.442,15.416c0,0-58.765,14.444-104.2-7l-1.277-13.328Z" transform="translate(-977.497 -809.531)" fill="#1d272b"/>
                      <path id="Trazado_150887" data-name="Trazado 150887" d="M1045.8,699.926s-42.661,9.571-48.476,16.4,11.234,62.971,12.822,69.327-6.246,54.949-4.659,61.829,73.716,18.687,108.618,1.754c0,0,1.959-74.707,1.959-76.3s9.522-64.74-6.762-65.464c-4.244-.182-22.319-7.55-22.319-7.55Z" transform="translate(-970.614 -699.926)" fill="#ecedea"/>
                      <path id="Trazado_150888" data-name="Trazado 150888" d="M1012.441,852.163c1.588,6.875,73.716,18.687,108.618,1.754,0,0,1.959-74.707,1.959-76.3s9.522-64.74-6.762-65.464a27.374,27.374,0,0,1-5.658-1.384l-9.786,8.17h-47.18s-32.095,10.543-34.862,18.609c-1.521,4.439-1.767,26.079-2.771,48.769.53,1.881.919,3.282,1.1,4.013C1018.687,796.676,1010.853,845.284,1012.441,852.163Z" transform="translate(-977.564 -704.607)" fill="url(#linear-gradient-2)"/>
                      <path id="Trazado_150889" data-name="Trazado 150889" d="M1079.922,976.545s35.02-21.747,5.13-41.955c-19.913-13.455-156.457,32.364-130.54-25.473" transform="translate(-951.252 -790.196)" fill="none" stroke="#1d272d" stroke-linecap="round" stroke-miterlimit="10" stroke-width="7.736"/>
                      <path id="Trazado_150890" data-name="Trazado 150890" d="M1193.482,711.742s5.487,83.132,6.457,117.119c0,0,9.169-79.3,2.081-107.435C1199.642,711.96,1199.034,711.742,1193.482,711.742Z" transform="translate(-1055.779 -705.025)" fill="#1d272b"/>
                      <path id="Trazado_150891" data-name="Trazado 150891" d="M1013.35,716.24s40.107,64.268-3.286,121.767c0,0-5.954,6.671,0,9.364,0,0,33.669-26.052,29.277-77.158,0,0-5.012-38.768-19.608-56.176C1019.732,714.037,1014.722,711.423,1013.35,716.24Z" transform="translate(-975.488 -705.71)" fill="#1d272b"/>
                      <path id="Trazado_150892" data-name="Trazado 150892" d="M1101.33,797.28h-21.86V782.7h21.86Z" transform="translate(-1006.581 -735.644)" fill="#008f85"/>
                      <rect id="Rectngulo_34024" data-name="Rectngulo 34024" width="17.925" height="2.263" transform="translate(76.067 53.213)" fill="#1d272b"/>
                      <path id="Trazado_150893" data-name="Trazado 150893" d="M1101.52,770.918l-1.459,9.409h-3.988l-.3-9.409Z" transform="translate(-1013.616 -730.56)" fill="#1d272b"/>
                    </g>
                  </g>
                </g>
                <path id="Trazado_150894" data-name="Trazado 150894" d="M1115.422,536.384c-3.075-2.5-14.311-9.162-32.035-10.632-12.22-1.006-24.672,10.772-33.432,21.256-6.567,7.868-3.173,31.7-1.379,42.275,0,0-3.218,31.371-.371,40.184,0,0,51.3,10.6,57.29,9.54s14.123-6.7,16.934-12.338,2.579-33.676,2.579-33.676S1122.828,542.386,1115.422,536.384Z" transform="translate(-982.975 -525.691)" fill="#ecedea"/>
                <path id="Trazado_150895" data-name="Trazado 150895" d="M1121.979,575.953s1.012-20.163-3.173-24.925-31.391-5.135-37.942-2.572-8.756,29.957-8.392,37.518c0,0-13.195-7.206-15.02-4.586s15.391,5.341,14.285,8.376-12.089,1.974-12.82,5.8,13.555-1.763,14.29,1.219,2.567,1.223-.735,4.484-17.221,5.46-12.824,7.656,16.935-5.012,16.529-1.954-21.292,9.644-17.259,11.665,18-5.336,17.612-2.025-20.938,9.7-15.067,10.35c5.889.655,11.421-2.847,15.067,0,2.654,2.078,1.275,10.517.311,16.329,14.294,2.684,30.309,5.423,33.5,4.859,4.928-.869,11.279-4.834,14.959-9.343.331-8.918,1.3-32.321-1.992-47.608Z" transform="translate(-987.819 -534.835)" fill="url(#linear-gradient-2)"/>
                <path id="Trazado_150896" data-name="Trazado 150896" d="M1136.355,582.111a31.6,31.6,0,0,1,.29,14.008,17.369,17.369,0,0,0,.286,8.465c1.359,4,2.756,22.069-2.347,30.458-3.6,5.9-24.56,11.052-34.722,0-8.438-9.171-9.575-28.935-9.34-35.517s2.037-24.347,18.855-22.768C1125.019,578.222,1135.555,575.613,1136.355,582.111Z" transform="translate(-1002.138 -547.684)" fill="#fca977"/>
                <path id="Trazado_150897" data-name="Trazado 150897" d="M1123.383,592.588s3.406.557.94,2.321-8.882.624-12.582,1.326c0,0,.582-1.293,3.049-2.523S1123.383,592.588,1123.383,592.588Z" transform="translate(-1011.305 -554.557)" fill="#1a1715"/>
                <path id="Trazado_150898" data-name="Trazado 150898" d="M1159.388,595.8s-2.292.555-.634,2.316,5.013.439,7.5,1.146a1.2,1.2,0,0,0,.037-2.2C1164.635,595.834,1159.388,595.8,1159.388,595.8Z" transform="translate(-1031.333 -555.946)" fill="#1a1715"/>
                <path id="Trazado_150899" data-name="Trazado 150899" d="M1124.935,613.371c0,1.653.769,3,1.705,3s1.706-1.346,1.706-3-.762-3-1.706-3S1124.935,611.712,1124.935,613.371Z" transform="translate(-1016.999 -562.232)" fill="#1a1715"/>
                <path id="Trazado_150900" data-name="Trazado 150900" d="M1161.244,613.371c0,1.653.537,3,1.2,3s1.208-1.346,1.208-3-.537-3-1.208-3S1161.244,611.713,1161.244,613.371Z" transform="translate(-1032.667 -562.232)" fill="#1a1715"/>
                <path id="Trazado_150901" data-name="Trazado 150901" d="M1105.144,610.533s-.551,9.784,1.877,11.912,22.4-2.721,23.818-3.633c0,0,12.971,3.7,13.084,2.949s1.183-10.157.569-13.341l-33.072-.837Z" transform="translate(-1008.435 -561.028)" fill="#8e2f2b" opacity="0.5" style="mix-blend-mode: multiply;isolation: isolate"/>
                <g id="Grupo_91820" data-name="Grupo 91820" transform="translate(95.039 46.249)">
                  <path id="Trazado_150902" data-name="Trazado 150902" d="M1117.184,607.049l-.12,0h0Z" transform="translate(-1108.641 -607.047)" fill="#1d272b"/>
                  <path id="Trazado_150903" data-name="Trazado 150903" d="M1144.6,608.251l-1.885-.069c.156,1.323,1.124,10.5-1.5,11.642,0,0-8.831-2.3-12.01-2.3s-17.769,4.5-21.05,3.489-2.371-10.7-2.371-10.7l4.838-3.237-7.832,3.237s-2.381,12.858,2.88,13.957,21.38-5.312,24.68-4.394,11.468,3.715,12.878,2.774S1144.6,608.251,1144.6,608.251Z" transform="translate(-1102.248 -607.06)" fill="#1d272b"/>
                </g>
                <path id="Trazado_150904" data-name="Trazado 150904" d="M1090.544,612.317s9.884-4.535,13.812-5.42,33.66-.7,35.188,0c0,0,1.008,1.43-1.9,1.718,0,0-26.776-1.7-33.29,0l-13.428,5.041Z" transform="translate(-1002.159 -560.476)" fill="#1d272b"/>
                <path id="Trazado_150905" data-name="Trazado 150905" d="M1137.6,633.074a10.027,10.027,0,0,0-6.717,0c-4.69,1.437-15.733,8.163-16.054,10.855s6.4,17.589,14.015,19.664c5.518,1.508,15.251-1.965,19.275-15.7,0,0,.815-5.823-.995-8.974S1137.6,633.074,1137.6,633.074Z" transform="translate(-1012.635 -571.791)" fill="#eeebf5"/>
                <path id="Trazado_150906" data-name="Trazado 150906" d="M1105.986,642.419s-13.337-8.41-14.872-9.9l.16,3.28,13.328,8.125Z" transform="translate(-1002.405 -571.791)" fill="#eeebf5"/>
                <path id="Trazado_150907" data-name="Trazado 150907" d="M1112.244,667.923s-10.984-1.137-13.5-1.943l.89,1.943,13.306,2.107Z" transform="translate(-1005.695 -586.228)" fill="#eeebf5"/>
                <path id="Trazado_150908" data-name="Trazado 150908" d="M1120.167,693.665l6.315,9.035s-8,18.527-27.976,20.73-60.29-19.786-60.29-19.786l5.456-12.855s40.127,20.461,56.844,16.4C1118.974,702.7,1120.167,693.665,1120.167,693.665Z" transform="translate(-979.578 -596.933)" fill="#008f85"/>
                <path id="Trazado_150909" data-name="Trazado 150909" d="M1082.351,711.76l-39.765-16.506-4.37,10.317s28.355,15.463,49.291,19.153Z" transform="translate(-979.578 -598.86)" fill="#008f85"/>
                <path id="Trazado_150910" data-name="Trazado 150910" d="M1103.388,707.184c-16.717,4.066-56.844-16.4-56.844-16.4l-1.672,3.928c10.961,5.561,39.946,19.269,55.92,17.512,12.764-1.41,20.636-9.469,24.657-15.118l-2.411-3.446S1121.846,702.7,1103.388,707.184Z" transform="translate(-982.451 -596.933)" fill="#1d272b"/>
                <path id="Trazado_150911" data-name="Trazado 150911" d="M986.129,728.585s10.264-2.936,17.59,11.2,12.74,64.2,12.74,64.2,46.329,62.34,50.639,64.439-.67,16.188-13.69,18.331c-8.911,1.468-62-47.853-66.448-55.889,0,0-2.2,1.466-16.226-71.624C968.3,746.539,973.786,728.33,986.129,728.585Z" transform="translate(-950.214 -613.134)" fill="#ecedea"/>
                <path id="Trazado_150912" data-name="Trazado 150912" d="M1280.284,823.772s-4.739,17.213,6.345,22.744l17.512-10.694s10.179,1.767,13.024,1.485,18.789-6.873,20.208-9.142-.488-10.273-2.2-13.686-10.053-3.324-12.613-3.886-7.954-.286-10.228,0-4.264,2.558-5.119,4.261-8.538,6.049-10.532,6.9S1280.284,823.772,1280.284,823.772Z" transform="translate(-1083.6 -648.488)" fill="#f7b242"/>
              </g>
            </g>
            <path id="Trazado_150913" data-name="Trazado 150913" d="M1026.069,838.906s-26.747,4.506-26.367,19.97" transform="translate(-962.957 -660.849)" fill="none" stroke="#868695" stroke-linecap="round" stroke-miterlimit="10" stroke-width="2.579"/>
            <line id="Lnea_1693" data-name="Lnea 1693" x1="29.745" y1="2.771" transform="translate(30.618 172.604)" fill="none" stroke="#868695" stroke-linecap="round" stroke-miterlimit="10" stroke-width="2.579"/>
            <path id="Trazado_150914" data-name="Trazado 150914" d="M1009.066,811.8s-21.443-14.509-27.123-18.269" transform="translate(-955.295 -641.269)" fill="none" stroke="#868695" stroke-linecap="round" stroke-miterlimit="10" stroke-width="2.579"/>
          </g>
          <path id="Trazado_150915" data-name="Trazado 150915" d="M1370.529,786.633s9.893,7.694,5.5,19.784l-81.286,15.755-.593-4.51Z" transform="translate(-1051.205 -638.292)" fill="#1d272b"/>
          <path id="Trazado_150916" data-name="Trazado 150916" d="M1337.176,810.488s3.52.8,4.892,2.425,2.687,6.4,1.468,8.277-5.634-2.53-6.36-4.115c0,0-3.444.111-5.37-1" transform="translate(-1067.456 -648.586)" fill="#f7b242"/>
          <path id="Trazado_150917" data-name="Trazado 150917" d="M1355.029,834.214a2.194,2.194,0,0,0,2.193,2.2h0a2.2,2.2,0,0,0,2.2-2.2v-9.284a2.193,2.193,0,0,0-2.2-2.2h0a2.191,2.191,0,0,0-2.193,2.2Z" transform="translate(-1077.477 -653.869)" fill="#f7b242"/>
          <path id="Trazado_150918" data-name="Trazado 150918" d="M1362.127,831.787a2.2,2.2,0,0,0,2.2,2.2h0a2.2,2.2,0,0,0,2.2-2.2v-9.282a2.2,2.2,0,0,0-2.2-2.2h0a2.2,2.2,0,0,0-2.2,2.2Z" transform="translate(-1080.54 -652.824)" fill="#f7b242"/>
          <path id="Trazado_150919" data-name="Trazado 150919" d="M1369.873,829.977a2.2,2.2,0,0,0,2.192,2.194h0a2.2,2.2,0,0,0,2.205-2.194v-9.288a2.2,2.2,0,0,0-2.205-2.2h0a2.192,2.192,0,0,0-2.192,2.2Z" transform="translate(-1083.882 -652.04)" fill="#f7b242"/>
          <path id="Trazado_150920" data-name="Trazado 150920" d="M1377.607,829.165a2.2,2.2,0,0,0,2.2,2.2h0a2.2,2.2,0,0,0,2.2-2.2v-9.28a2.2,2.2,0,0,0-2.2-2.205h0a2.2,2.2,0,0,0-2.2,2.205Z" transform="translate(-1087.22 -651.689)" fill="#f7b242"/>
          <path id="Trazado_150921" data-name="Trazado 150921" d="M1220.335,842.555s-18.567,4.37-25.9,22.451-6.356,175.908-39.528,198.625c0,0-48.432,26.568-38.086-40.311,9.018-58.283,22.864-78.428,22.864-78.428" transform="translate(-974.061 -662.423)" fill="none" stroke="#1d272d" stroke-linecap="round" stroke-miterlimit="10" stroke-width="7.736"/>
          <path id="Trazado_150922" data-name="Trazado 150922" d="M1121.488,975.992l13.18,16.59s2.26-.134,6.719,2.447,7.451,1.636,8.339,4.656,1.485,2.307.9,4.257,4.862,5.33,4.508,8.8-7.35,6.968-12.369,9.224c-1.264.562-9.673,1.384-13.155-.682s-7.61-15.3-9.376-18.307-16.186-14.861-16.186-14.861A34.54,34.54,0,0,1,1121.488,975.992Z" transform="translate(-969.176 -720.004)" fill="#f7b242"/>
          <path id="Trazado_150923" data-name="Trazado 150923" d="M915.5,1419.553s25.371,24.348,26.9,25.5.619,4.133-.4,5.325-61.78-23.965-65.5-25.537-8.485-2.94-9.522-4.887,2.423-12.833,9.1-20.923l20.015-41.115s-.211-6,3.789-6.444c0,0,23.894,13.954,44.53,19.752,0,0-4.386,7.177-8.128,10.544C928.28,1388.962,915.5,1419.553,915.5,1419.553Z" transform="translate(-866.796 -882.029)" fill="#00111c"/>
          <path id="Trazado_150924" data-name="Trazado 150924" d="M1232.457,1434.314s34.647,6,36.556,6.1,2.83,3.078,2.638,4.635-64.614,14.674-68.576,15.451-8.681,2.305-10.632,1.268-5.163-12-4.148-22.44l-6.4-45.279s-3.522-4.854-.453-7.461c0,0,27.6-1.783,47.963-8.519,0,0,.371,8.405-.85,13.291C1225.941,1401.806,1232.457,1434.314,1232.457,1434.314Z" transform="translate(-1002.031 -893.509)" fill="#00111c"/>
          <path id="Trazado_150925" data-name="Trazado 150925" d="M1003.334,1209.52s7.583,24.245,14.962,43.982" transform="translate(-925.715 -820.775)" fill="none" stroke="#5179aa" stroke-linecap="round" stroke-miterlimit="10" stroke-width="2.579"/>
          <path id="Trazado_150926" data-name="Trazado 150926" d="M981.943,1240.6s18.094,30.567,27.123,37.06" transform="translate(-916.484 -834.188)" fill="none" stroke="#5179aa" stroke-linecap="round" stroke-miterlimit="10" stroke-width="2.579"/>
        </g>
      </g>
    </g>
    <g id="Grupo_127509" data-name="Grupo 127509" transform="translate(61.906 208.55)">
      <g id="Grupo_90783" data-name="Grupo 90783" transform="translate(14.097 12.319)">
        <g id="Grupo_90780" data-name="Grupo 90780" transform="translate(49.482 6.461)">
          <path id="Trazado_149804" data-name="Trazado 149804" d="M224.556,159.767a4.2,4.2,0,0,1-.912-.391c-3.551-1.989-6.743-3.891-6.775-3.91a.272.272,0,0,1,.279-.468c.031.019,3.218,1.917,6.762,3.9.831.465,1.468.537,1.894.214,1.038-.788.937-3.857.3-6.482-.81-3.342-5.771-4.922-7.62-4.831a16.936,16.936,0,0,0-4.12.824.272.272,0,0,1-.181-.514,17.174,17.174,0,0,1,4.274-.854c2.343-.115,7.351,1.839,8.177,5.247.507,2.091.972,5.928-.5,7.045A1.72,1.72,0,0,1,224.556,159.767Z" transform="translate(-214.002 -147.252)" fill="#efebe9"/>
        </g>
        <g id="Grupo_90781" data-name="Grupo 90781" transform="translate(0 7.755)">
          <path id="Trazado_149805" data-name="Trazado 149805" d="M109.862,160.717a16.475,16.475,0,0,1-1.778-.6c-2.744-1.12-4.512-2.8-5.254-5-.692-2.046-.638-3.429.164-4.228,1.6-1.594,5.771-.164,8.815.881.431.148.838.287,1.208.408,3.9,1.275,5.869.576,5.889.569a.272.272,0,1,1,.189.511c-.086.032-2.17.767-6.247-.561-.373-.121-.782-.262-1.216-.411-2.745-.942-6.892-2.366-8.253-1.01-.632.629-.643,1.863-.032,3.667.69,2.04,2.353,3.61,4.944,4.668,5.213,2.126,13.307,1.584,17.062-.323a.273.273,0,1,1,.247.486C122.13,161.532,115.22,162.215,109.862,160.717Z" transform="translate(-102.348 -150.173)" fill="#97e8ce"/>
        </g>
        <path id="Trazado_149806" data-name="Trazado 149806" d="M175.8,147.485l-3.329-7.479a.547.547,0,0,0-.334-.3c-1.63-.507-2.912-1.491-8.4-5.491-5.747-4.186-11.865,1.273-15.165,3.18-2.464,1.423-8.156,4.338-10.1,5.329a.552.552,0,0,0-.146.876l6.465,6.684a.555.555,0,0,0,.453.165c4.288-.41,4.71.9,10.708,1.713,6.119.831,10.006-.472,13.171-2.794a7.726,7.726,0,0,1,6.07-1.117A.552.552,0,0,0,175.8,147.485Z" transform="translate(-122.294 -132.674)" fill="#b2f2ef"/>
        <path id="Trazado_149807" data-name="Trazado 149807" d="M144.8,146.305a.755.755,0,0,1,.2-1.2c2.6-1.337,6.129-3.177,7.967-4.239.546-.316,1.148-.71,1.784-1.128,2.628-1.727,6.228-4.091,9.555-3.16a6.43,6.43,0,0,1,2.046,1.015l1.077.785c4.058,2.958,5.581,4.069,7.046,4.674a.752.752,0,0,1,.4.39l1.792,4.026a.757.757,0,0,1-.633,1.061,8.435,8.435,0,0,0-4.3,1.578c-3.276,2.4-6.972,3.173-11.983,2.492a32.849,32.849,0,0,1-4.791-1l-.632-.178a13.344,13.344,0,0,0-4.8-.611.755.755,0,0,1-.58-.229Z" transform="translate(-125.867 -134.732)" fill="#00a79e"/>
        <g id="Grupo_90782" data-name="Grupo 90782" transform="translate(19.2 2.959)">
          <path id="Trazado_149808" data-name="Trazado 149808" d="M153.564,144.442c.581-.336,1.219-.755,1.894-1.2,2.747-1.8,6.51-4.275,9.945-3.315a6.617,6.617,0,0,1,2.1,1.044l1.139.831c4.3,3.136,5.912,4.31,7.48,4.957a.18.18,0,0,0,.093.01l-.2-.453c-1.46-.655-3.11-1.858-7.159-4.809l-1.138-.83a6.963,6.963,0,0,0-2.219-1.1c-3.594-1.006-7.436,1.518-10.244,3.362-.67.44-1.3.855-1.875,1.186-1.775,1.025-5.044,2.738-7.711,4.114l.264.273C148.588,147.145,151.8,145.459,153.564,144.442Z" transform="translate(-145.671 -139.351)" fill="#008f85"/>
          <path id="Trazado_149809" data-name="Trazado 149809" d="M179.485,152.268c-1.528-.631-3.127-1.8-7.406-4.916l-1.139-.83a6.966,6.966,0,0,0-2.219-1.1c-3.594-1.006-7.437,1.518-10.25,3.366-.667.438-1.3.852-1.868,1.182-1.528.883-4.164,2.275-6.57,3.524l.263.273c2.383-1.237,4.975-2.607,6.488-3.482.58-.335,1.214-.752,1.894-1.2,2.748-1.8,6.51-4.276,9.945-3.315a6.6,6.6,0,0,1,2.1,1.045l1.141.831c4.3,3.135,5.911,4.309,7.478,4.956a.179.179,0,0,0,.238-.1A.182.182,0,0,0,179.485,152.268Z" transform="translate(-148.1 -142.604)" fill="#008f85"/>
          <path id="Trazado_149810" data-name="Trazado 149810" d="M174.16,152.366a6.967,6.967,0,0,0-2.219-1.1c-3.594-1.005-7.436,1.519-10.25,3.367-.667.438-1.3.852-1.868,1.182-1.289.745-3.368,1.853-5.431,2.931l.008.009a.757.757,0,0,0,.366.206c2-1.046,3.987-2.108,5.238-2.831.58-.335,1.214-.752,1.894-1.2,2.747-1.8,6.51-4.276,9.945-3.315a6.6,6.6,0,0,1,2.1,1.044l1.139.83c2.211,1.612,3.711,2.705,4.859,3.475q.244-.064.485-.114c-1.174-.771-2.731-1.906-5.131-3.655Z" transform="translate(-150.527 -145.858)" fill="#008f85"/>
          <path id="Trazado_149811" data-name="Trazado 149811" d="M180.617,158.209a6.959,6.959,0,0,0-2.219-1.1c-3.594-1.005-7.437,1.519-10.243,3.361-.67.44-1.3.855-1.876,1.187-.477.276-1.062.6-1.714.956.17.042.341.087.513.134.518-.284.988-.547,1.383-.775.583-.337,1.22-.755,1.894-1.2,2.748-1.8,6.51-4.276,9.945-3.315a6.61,6.61,0,0,1,2.1,1.044l1.141.832c.836.609,1.569,1.143,2.221,1.615.121-.066.241-.128.363-.186-.688-.5-1.47-1.067-2.372-1.724Z" transform="translate(-156.192 -149.111)" fill="#008f85"/>
          <path id="Trazado_149812" data-name="Trazado 149812" d="M185.962,164.053a6.984,6.984,0,0,0-2.219-1.1c-3.594-1-7.436,1.519-10.243,3.362-.26.171-.512.335-.76.5.163.035.331.07.506.105l.454-.3c2.747-1.8,6.51-4.275,9.944-3.315a6.6,6.6,0,0,1,2.1,1.045l1.115.813c.106-.071.211-.146.316-.22l-.078-.057Z" transform="translate(-160.744 -152.365)" fill="#008f85"/>
        </g>
      </g>
      <g id="Grupo_90787" data-name="Grupo 90787" transform="translate(30.165 20.519)">
        <g id="Grupo_90784" data-name="Grupo 90784" transform="translate(49.482 6.461)">
          <path id="Trazado_149813" data-name="Trazado 149813" d="M260.812,178.269a4.2,4.2,0,0,1-.912-.391c-3.551-1.989-6.743-3.89-6.775-3.909a.273.273,0,0,1,.279-.468c.032.019,3.219,1.917,6.763,3.9.831.465,1.468.538,1.894.214,1.038-.788.937-3.857.3-6.482-.81-3.342-5.771-4.922-7.621-4.831a16.9,16.9,0,0,0-4.12.824.273.273,0,0,1-.181-.515,17.184,17.184,0,0,1,4.274-.854c2.343-.115,7.351,1.839,8.177,5.247.507,2.091.972,5.928-.5,7.045A1.719,1.719,0,0,1,260.812,178.269Z" transform="translate(-250.258 -165.754)" fill="#efebe9"/>
        </g>
        <g id="Grupo_90785" data-name="Grupo 90785" transform="translate(0 7.755)">
          <path id="Trazado_149814" data-name="Trazado 149814" d="M146.118,179.219a16.258,16.258,0,0,1-1.778-.6c-2.744-1.12-4.512-2.8-5.255-5-.692-2.046-.638-3.429.164-4.228,1.6-1.594,5.771-.164,8.815.881.431.148.838.287,1.208.408,3.9,1.276,5.87.576,5.889.569a.273.273,0,0,1,.189.511c-.087.032-2.17.767-6.247-.562-.372-.121-.782-.262-1.215-.411-2.745-.941-6.892-2.366-8.253-1.01-.632.629-.643,1.863-.032,3.667.689,2.04,2.353,3.61,4.944,4.668,5.213,2.126,13.307,1.584,17.062-.323a.273.273,0,1,1,.247.486C158.386,180.034,151.476,180.717,146.118,179.219Z" transform="translate(-138.604 -168.675)" fill="#9de2f5"/>
        </g>
        <path id="Trazado_149815" data-name="Trazado 149815" d="M212.06,165.987l-3.329-7.479a.544.544,0,0,0-.334-.3c-1.63-.507-2.912-1.492-8.4-5.491-5.748-4.186-11.865,1.273-15.165,3.18-2.464,1.423-8.156,4.338-10.1,5.329a.552.552,0,0,0-.146.876l6.465,6.684a.556.556,0,0,0,.453.165c4.288-.411,4.71.9,10.708,1.713,6.119.831,10.006-.472,13.171-2.794a7.726,7.726,0,0,1,6.07-1.117A.551.551,0,0,0,212.06,165.987Z" transform="translate(-158.55 -151.176)" fill="#b2f2ef"/>
        <path id="Trazado_149816" data-name="Trazado 149816" d="M181.056,164.808a.756.756,0,0,1,.2-1.2c2.6-1.337,6.13-3.177,7.967-4.239.546-.316,1.148-.711,1.784-1.129,2.628-1.726,6.228-4.091,9.555-3.16A6.425,6.425,0,0,1,202.6,156.1l1.077.785c4.058,2.958,5.581,4.068,7.046,4.673a.752.752,0,0,1,.4.39l1.792,4.026a.757.757,0,0,1-.633,1.06,8.435,8.435,0,0,0-4.3,1.578c-3.276,2.4-6.972,3.173-11.983,2.492a32.924,32.924,0,0,1-4.791-1l-.631-.177a13.346,13.346,0,0,0-4.8-.612.755.755,0,0,1-.58-.229Z" transform="translate(-162.124 -153.234)" fill="#00a79e"/>
        <g id="Grupo_90786" data-name="Grupo 90786" transform="translate(19.2 2.959)">
          <path id="Trazado_149817" data-name="Trazado 149817" d="M189.82,162.945c.582-.336,1.218-.754,1.894-1.2,2.747-1.8,6.51-4.276,9.945-3.315a6.608,6.608,0,0,1,2.1,1.045l1.139.83c4.3,3.136,5.913,4.31,7.48,4.957a.176.176,0,0,0,.094.01l-.2-.453c-1.46-.655-3.11-1.858-7.159-4.809l-1.138-.83a6.972,6.972,0,0,0-2.219-1.1c-3.594-1.005-7.437,1.518-10.244,3.362-.67.44-1.3.855-1.875,1.186-1.775,1.025-5.044,2.738-7.711,4.114l.264.273C184.844,165.647,188.061,163.961,189.82,162.945Z" transform="translate(-181.927 -157.853)" fill="#008f85"/>
          <path id="Trazado_149818" data-name="Trazado 149818" d="M215.741,170.77c-1.527-.631-3.127-1.8-7.406-4.916l-1.138-.829a6.961,6.961,0,0,0-2.219-1.1c-3.594-1.005-7.436,1.519-10.25,3.366-.667.438-1.3.852-1.868,1.182-1.528.883-4.164,2.275-6.57,3.524l.264.273c2.383-1.237,4.975-2.607,6.488-3.482.58-.335,1.214-.752,1.894-1.2,2.747-1.805,6.51-4.276,9.945-3.315a6.606,6.606,0,0,1,2.1,1.044l1.141.831c4.3,3.136,5.911,4.309,7.478,4.956a.178.178,0,0,0,.237-.1A.182.182,0,0,0,215.741,170.77Z" transform="translate(-184.356 -161.106)" fill="#008f85"/>
          <path id="Trazado_149819" data-name="Trazado 149819" d="M210.416,170.869a6.966,6.966,0,0,0-2.219-1.1c-3.594-1.005-7.437,1.519-10.251,3.367-.667.438-1.3.852-1.868,1.182-1.289.745-3.368,1.853-5.431,2.931l.008.009a.754.754,0,0,0,.366.205c2-1.046,3.988-2.108,5.238-2.831.58-.335,1.214-.751,1.894-1.2,2.747-1.8,6.51-4.276,9.945-3.315a6.61,6.61,0,0,1,2.1,1.044l1.139.83c2.212,1.612,3.711,2.705,4.86,3.475.162-.043.324-.081.485-.114-1.174-.771-2.731-1.906-5.131-3.655Z" transform="translate(-186.783 -164.36)" fill="#008f85"/>
          <path id="Trazado_149820" data-name="Trazado 149820" d="M216.874,176.712a6.969,6.969,0,0,0-2.219-1.1c-3.594-1.006-7.436,1.518-10.243,3.361-.669.44-1.3.855-1.876,1.187-.477.275-1.062.6-1.714.956.17.042.341.087.513.133.518-.284.988-.547,1.383-.775.583-.337,1.22-.755,1.894-1.2,2.747-1.8,6.51-4.276,9.945-3.315a6.614,6.614,0,0,1,2.1,1.044l1.141.832c.836.609,1.569,1.143,2.221,1.615q.181-.1.363-.186c-.688-.5-1.47-1.067-2.372-1.724Z" transform="translate(-192.449 -167.614)" fill="#008f85"/>
          <path id="Trazado_149821" data-name="Trazado 149821" d="M222.219,182.555a6.966,6.966,0,0,0-2.219-1.1c-3.594-1.005-7.436,1.518-10.243,3.361-.26.171-.512.335-.76.5.163.035.331.07.506.105l.453-.3c2.748-1.8,6.51-4.275,9.945-3.315a6.6,6.6,0,0,1,2.1,1.045l1.115.813c.106-.071.211-.146.315-.22l-.078-.057Z" transform="translate(-197.001 -170.868)" fill="#008f85"/>
        </g>
      </g>
      <g id="Grupo_90795" data-name="Grupo 90795" transform="translate(0 0)">
        <g id="Grupo_90788" data-name="Grupo 90788" transform="translate(15.748 6.316)">
          <rect id="Rectngulo_33170" data-name="Rectngulo 33170" width="6.242" height="6.242" transform="translate(7.873 5.932) rotate(161.881)" fill="#cfd8dc"/>
          <rect id="Rectngulo_33171" data-name="Rectngulo 33171" width="4.244" height="6.242" transform="matrix(-0.95, 0.311, -0.311, -0.95, 6.924, 6.243)" fill="#37474f"/>
          <rect id="Rectngulo_33172" data-name="Rectngulo 33172" width="1.698" height="6.242" transform="translate(5.714 6.639) rotate(161.882)" fill="#fff"/>
        </g>
        <path id="Trazado_149822" data-name="Trazado 149822" d="M93.6,106.116l1.646,5.03a1.8,1.8,0,0,1-1.15,2.268l-8.258,2.7a1.8,1.8,0,0,1-2.267-1.149l-.435-1.329a1.8,1.8,0,0,0-2.268-1.149l-9.776,3.2-.559-1.708,20.8-9.012A1.8,1.8,0,0,1,93.6,106.116Z" transform="translate(-70.538 -104.877)" fill="#fff"/>
        <g id="Grupo_90790" data-name="Grupo 90790" transform="translate(14.934 10.626)">
          <rect id="Rectngulo_33173" data-name="Rectngulo 33173" width="11.485" height="4.394" rx="1.662" transform="translate(0 3.572) rotate(-18.119)" fill="#37474f"/>
          <g id="Grupo_90789" data-name="Grupo 90789" transform="translate(1.196 0.989)">
            <path id="Trazado_149823" data-name="Trazado 149823" d="M126,131.109a.474.474,0,0,1,.6.3l.683,2.088a.474.474,0,0,1-.9.3l-.683-2.088A.474.474,0,0,1,126,131.109Z" transform="translate(-117.368 -131.086)" fill="#2a383e"/>
            <path id="Trazado_149824" data-name="Trazado 149824" d="M122.252,132.335a.474.474,0,0,1,.6.3l.683,2.088a.474.474,0,1,1-.9.3l-.683-2.088A.475.475,0,0,1,122.252,132.335Z" transform="translate(-115.281 -131.768)" fill="#2a383e"/>
            <path id="Trazado_149825" data-name="Trazado 149825" d="M118.5,133.562a.474.474,0,0,1,.6.3l.683,2.088a.474.474,0,0,1-.9.3l-.683-2.088A.474.474,0,0,1,118.5,133.562Z" transform="translate(-113.194 -132.451)" fill="#2a383e"/>
            <path id="Trazado_149826" data-name="Trazado 149826" d="M114.756,134.788a.474.474,0,0,1,.6.3l.683,2.088a.474.474,0,1,1-.9.3l-.683-2.088A.474.474,0,0,1,114.756,134.788Z" transform="translate(-111.107 -133.134)" fill="#2a383e"/>
            <path id="Trazado_149827" data-name="Trazado 149827" d="M111.008,136.014a.474.474,0,0,1,.6.3l.683,2.088a.474.474,0,1,1-.9.295l-.683-2.088A.475.475,0,0,1,111.008,136.014Z" transform="translate(-109.021 -133.817)" fill="#2a383e"/>
            <path id="Trazado_149828" data-name="Trazado 149828" d="M107.26,137.241a.474.474,0,0,1,.6.3l.683,2.088a.474.474,0,0,1-.9.3l-.683-2.088A.474.474,0,0,1,107.26,137.241Z" transform="translate(-106.934 -134.5)" fill="#2a383e"/>
          </g>
        </g>
        <path id="Trazado_149829" data-name="Trazado 149829" d="M75.292,112.653c2.445-.725,4.905-1.626,7.456-1.556a2.259,2.259,0,0,1,1.272.322,6.212,6.212,0,0,1,.887,1.084,2.887,2.887,0,0,0,2.35.842,8.541,8.541,0,0,0,2.488-.667,4.993,4.993,0,0,0,2.671-1.76c1.165-1.914.242-4.151-1.342-5.836l.264-.114a1.8,1.8,0,0,1,2.268,1.15l1.646,5.03a1.8,1.8,0,0,1-1.15,2.268l-8.258,2.7a1.8,1.8,0,0,1-2.267-1.149l-.435-1.329a1.8,1.8,0,0,0-2.268-1.149l-9.776,3.2-.559-1.708,1.241-.538A22.3,22.3,0,0,0,75.292,112.653Z" transform="translate(-70.538 -104.877)" fill="#cfd8dc"/>
        <g id="Grupo_90792" data-name="Grupo 90792" transform="translate(11.122 15.222)">
          <g id="Grupo_90791" data-name="Grupo 90791">
            <path id="Trazado_149830" data-name="Trazado 149830" d="M95.87,157.069c-1.677-7.237,6.113-15.076,6.113-15.076l2.224-.728,4.013-1.313,2.224-.728s10.917,1.717,13.84,8.547,7.351,27.214,5.752,29.707c-.78,1.214-3.914,3.434-7.859,5.128q-.241.1-.485.2a21.79,21.79,0,0,1-3.021.988q-.255.063-.507.122c-4.184.966-8.023,1.027-9.37.51C106.027,183.365,97.55,164.308,95.87,157.069Z" transform="translate(-95.633 -139.225)" fill="#cfd8dc"/>
            <path id="Trazado_149831" data-name="Trazado 149831" d="M121.426,183.8c.472-.154.944-.328,1.4-.516q.235-.1.467-.2c3.848-1.653,6.68-3.736,7.268-4.621.326-.724.22-4.647-1.4-12.555a99.355,99.355,0,0,0-4.439-15.956c-2.352-5.495-10.86-7.394-12.556-7.722l-7.837,2.564c-1.173,1.264-6.914,7.828-5.564,13.651a99.468,99.468,0,0,0,5.853,15.493c3.366,7.339,5.6,10.565,6.29,10.956.995.367,4.511.373,8.595-.569q.241-.056.487-.117C120.47,184.1,120.953,183.959,121.426,183.8Z" transform="translate(-97.263 -140.903)" fill="#fff"/>
          </g>
          <path id="Trazado_149832" data-name="Trazado 149832" d="M124.708,178.6c-2.75-7.567-5.4-15.34-6.6-19.341a34.191,34.191,0,0,1-1.148-14.237l2.742-.9a34.168,34.168,0,0,1,7.489,12.162c1.4,3.935,3.853,11.773,6.108,19.5,1.044,3.579,1.847,6.453,2.445,8.686-.592.3-1.211.586-1.853.862q-.241.1-.485.2a21.791,21.791,0,0,1-3.021.988q-.255.063-.507.122c-.681.157-1.352.29-2.005.4C127.032,184.891,125.981,182.1,124.708,178.6Z" transform="translate(-107.345 -141.951)" fill="#bdbdbd"/>
        </g>
        <g id="Grupo_90794" data-name="Grupo 90794" transform="translate(13.745 29.017)">
          <path id="Trazado_149833" data-name="Trazado 149833" d="M106.31,191.748a72.428,72.428,0,0,0,25.764-8.43l-3.606-12.966a72.508,72.508,0,0,1-26.914,8.807Z" transform="translate(-101.553 -170.352)" fill="#ebfdff"/>
          <g id="Grupo_90793" data-name="Grupo 90793" transform="translate(11.347 7.423)">
            <path id="Trazado_149834" data-name="Trazado 149834" d="M127.158,191.346q1.22-.32,2.427-.683l-.823-2.467q1.686-.506,3.346-1.095l.795,2.476q1.188-.421,2.362-.884.53,1.7,1.053,3.374-1.161.457-2.335.872l.764,2.379q-1.613.57-3.252,1.064l-.791-2.37q-1.193.359-2.4.677Z" transform="translate(-127.158 -187.101)" fill="#0090b8"/>
          </g>
        </g>
      </g>
      <g id="Grupo_90798" data-name="Grupo 90798" transform="translate(2.922 30.389)">
        <path id="Trazado_149835" data-name="Trazado 149835" d="M90.7,207.832l8.357,96.1a5.774,5.774,0,0,0,5.752,5.274h53.756a5.775,5.775,0,0,0,5.753-5.274l8.357-96.1Z" transform="translate(-84.685 -192.593)" fill="#d93328"/>
        <path id="Trazado_149836" data-name="Trazado 149836" d="M159.578,224.689H109.825a7.729,7.729,0,0,0-7.7,8.4l6.922,74.568a3.793,3.793,0,0,0,3.778,3.464h49.632a3.792,3.792,0,0,0,3.792-3.793l-2.881-78.845A3.793,3.793,0,0,0,159.578,224.689Z" transform="translate(-91.032 -201.98)" fill="#b42218"/>
        <path id="Trazado_149837" data-name="Trazado 149837" d="M131.779,328.535H121.8a2.48,2.48,0,0,0-2.471,2.695l2.7,31.1a2.476,2.476,0,0,0,3.489,2.044q3.614-1.643,7.584-3.134a3.792,3.792,0,0,0,2.464-3.547V332.324A3.789,3.789,0,0,0,131.779,328.535Z" transform="translate(-100.621 -259.804)" fill="#d93328"/>
        <path id="Trazado_149838" data-name="Trazado 149838" d="M169.005,173.447H79.257a2.337,2.337,0,0,0-2.126,2.524l.109,10.252a2.326,2.326,0,0,0,2.126,2.462H168.9a2.327,2.327,0,0,0,2.127-2.462l.109-10.252A2.338,2.338,0,0,0,169.005,173.447Z" transform="translate(-77.131 -173.447)" fill="#b42218"/>
        <g id="Grupo_90796" data-name="Grupo 90796" transform="translate(4.019 3.989)">
          <path id="Trazado_149839" data-name="Trazado 149839" d="M117.916,182.447h-30.4a1.32,1.32,0,0,0-1.32,1.335l.049,4.62a1.321,1.321,0,0,0,1.321,1.306h8.553a.692.692,0,0,0,.508-.209c2.232-2.386,10.207-4.433,21.359-5.7a.682.682,0,0,0,.606-.675h0A.68.68,0,0,0,117.916,182.447Z" transform="translate(-86.199 -182.447)" fill="#d93328"/>
        </g>
        <g id="Grupo_90797" data-name="Grupo 90797" transform="translate(22.876 29.063)">
          <path id="Trazado_149840" data-name="Trazado 149840" d="M184.359,264.721c-.516-.3-1.028-.56-1.494-.887a.673.673,0,0,1-.19-.571,2.893,2.893,0,0,0-1.98-3.348c-.144-.042-.342-.219-.35-.344-.038-.565-.017-1.134-.017-1.692a9.566,9.566,0,0,0,1.812-18.827c2.473-.236,6.905,2.876,8.7,6.157a12.624,12.624,0,0,1,.726,10.754A12.6,12.6,0,0,1,201.7,272.211c.615-5.7-1.411-9.807-7.007-11.4C190.5,259.624,187.046,261.23,184.359,264.721Z" transform="translate(-157.466 -239.034)" fill="#f8f8f8"/>
          <path id="Trazado_149841" data-name="Trazado 149841" d="M174.91,308.881a12.546,12.546,0,0,1-19.31-.475,12.513,12.513,0,0,1-11.671,4.495,11.729,11.729,0,0,1-7.133-3.739c4.188,2.989,8.486,3.387,12.541,0,3.672-3.063,4.16-7.079,2.43-11.5.5-.291.994-.607,1.518-.871a.6.6,0,0,1,.481.13,2.849,2.849,0,0,0,3.793,0,.632.632,0,0,1,.539-.065c.511.253.993.563,1.492.855-1.93,4.973-1.149,9.321,3.4,12.323C167.115,312.775,171.2,311.993,174.91,308.881Z" transform="translate(-133.23 -271.187)" fill="#f8f8f8"/>
          <path id="Trazado_149842" data-name="Trazado 149842" d="M146.775,264.639a9.665,9.665,0,0,0-11.62-3.634,9.417,9.417,0,0,0-4.928,4.576,9.838,9.838,0,0,0-.745,6.622c-2.325-5.428.844-14.888,9.881-16.379-3.106-8.918,3.414-16.037,9.516-16.8a9.9,9.9,0,0,0-5.383,3.651,9.3,9.3,0,0,0-1.843,6.278,9.654,9.654,0,0,0,8.94,8.917c0,.559.027,1.13-.017,1.694a.677.677,0,0,1-.373.42,2.89,2.89,0,0,0-1.814,3.283.682.682,0,0,1-.211.546C147.746,264.118,147.27,264.356,146.775,264.639Z" transform="translate(-128.748 -239.027)" fill="#f8f8f8"/>
          <path id="Trazado_149843" data-name="Trazado 149843" d="M159.728,301.574a11.87,11.87,0,0,1-7.238-11.786c.019-.37.121-.567.534-.459.693.182,1.4.316,2.075.551a.837.837,0,0,1,.442.625,8.87,8.87,0,0,0,4.559,7.863.686.686,0,0,1,.311.529C160.224,299.774,159.974,300.638,159.728,301.574Z" transform="translate(-141.957 -267.02)" fill="#f8f8f8"/>
          <path id="Trazado_149844" data-name="Trazado 149844" d="M196.121,289.375a11.7,11.7,0,0,1-7.128,12.34c-.235-.927-.486-1.83-.673-2.746-.026-.128.232-.369.408-.474a8.8,8.8,0,0,0,4.3-6.028,10.059,10.059,0,0,0,.173-1.769c.009-.346.089-.57.436-.661C194.447,289.823,195.257,289.605,196.121,289.375Z" transform="translate(-161.918 -267.062)" fill="#f8f8f8"/>
          <path id="Trazado_149845" data-name="Trazado 149845" d="M177.495,267.994c-.686.67-1.32,1.311-1.988,1.915a.606.606,0,0,1-.55.007,8.918,8.918,0,0,0-9.206-.008.658.658,0,0,1-.6-.029c-.656-.588-1.272-1.22-1.909-1.844C166.658,265.077,172.967,264.487,177.495,267.994Z" transform="translate(-147.956 -253.815)" fill="#f8f8f8"/>
        </g>
      </g>
    </g>
  </g>
</svg>
